# Tiled2Unity generated file. Do not modify by hand.
# Wavefront file for 'dungeon1_mesh_0044.obj'

# Vertices (Count = 320)
v -15 -1 0
v -16 -1 0
v -16 0 0
v -15 0 0
v -14 -1 0
v -15 -1 0
v -15 0 0
v -14 0 0
v -13 -1 0
v -14 -1 0
v -14 0 0
v -13 0 0
v -12 -1 0
v -13 -1 0
v -13 0 0
v -12 0 0
v -11 -1 0
v -12 -1 0
v -12 0 0
v -11 0 0
v -10 -1 0
v -11 -1 0
v -11 0 0
v -10 0 0
v -9 -1 0
v -10 -1 0
v -10 0 0
v -9 0 0
v -8 -1 0
v -9 -1 0
v -9 0 0
v -8 0 0
v -7 -1 0
v -8 -1 0
v -8 0 0
v -7 0 0
v -6 -1 0
v -7 -1 0
v -7 0 0
v -6 0 0
v -5 -1 0
v -6 -1 0
v -6 0 0
v -5 0 0
v -4 -1 0
v -5 -1 0
v -5 0 0
v -4 0 0
v -3 -1 0
v -4 -1 0
v -4 0 0
v -3 0 0
v -2 -1 0
v -3 -1 0
v -3 0 0
v -2 0 0
v -1 -1 0
v -2 -1 0
v -2 0 0
v -1 0 0
v 0 -1 0
v -1 -1 0
v -1 0 0
v 0 0 0
v -15 -2 0
v -16 -2 0
v -16 -1 0
v -15 -1 0
v -14 -2 0
v -15 -2 0
v -15 -1 0
v -14 -1 0
v -13 -2 0
v -14 -2 0
v -14 -1 0
v -13 -1 0
v -12 -2 0
v -13 -2 0
v -13 -1 0
v -12 -1 0
v -11 -2 0
v -12 -2 0
v -12 -1 0
v -11 -1 0
v -10 -2 0
v -11 -2 0
v -11 -1 0
v -10 -1 0
v -9 -2 0
v -10 -2 0
v -10 -1 0
v -9 -1 0
v -8 -2 0
v -9 -2 0
v -9 -1 0
v -8 -1 0
v -7 -2 0
v -8 -2 0
v -8 -1 0
v -7 -1 0
v -6 -2 0
v -7 -2 0
v -7 -1 0
v -6 -1 0
v -5 -2 0
v -6 -2 0
v -6 -1 0
v -5 -1 0
v -4 -2 0
v -5 -2 0
v -5 -1 0
v -4 -1 0
v -3 -2 0
v -4 -2 0
v -4 -1 0
v -3 -1 0
v -2 -2 0
v -3 -2 0
v -3 -1 0
v -2 -1 0
v -1 -2 0
v -2 -2 0
v -2 -1 0
v -1 -1 0
v 0 -2 0
v -1 -2 0
v -1 -1 0
v 0 -1 0
v -15 -3 0
v -16 -3 0
v -16 -2 0
v -15 -2 0
v -14 -3 0
v -15 -3 0
v -15 -2 0
v -14 -2 0
v -13 -3 0
v -14 -3 0
v -14 -2 0
v -13 -2 0
v -12 -3 0
v -13 -3 0
v -13 -2 0
v -12 -2 0
v -11 -3 0
v -12 -3 0
v -12 -2 0
v -11 -2 0
v -10 -3 0
v -11 -3 0
v -11 -2 0
v -10 -2 0
v -9 -3 0
v -10 -3 0
v -10 -2 0
v -9 -2 0
v -8 -3 0
v -9 -3 0
v -9 -2 0
v -8 -2 0
v -7 -3 0
v -8 -3 0
v -8 -2 0
v -7 -2 0
v -6 -3 0
v -7 -3 0
v -7 -2 0
v -6 -2 0
v -5 -3 0
v -6 -3 0
v -6 -2 0
v -5 -2 0
v -4 -3 0
v -5 -3 0
v -5 -2 0
v -4 -2 0
v -3 -3 0
v -4 -3 0
v -4 -2 0
v -3 -2 0
v -2 -3 0
v -3 -3 0
v -3 -2 0
v -2 -2 0
v -1 -3 0
v -2 -3 0
v -2 -2 0
v -1 -2 0
v 0 -3 0
v -1 -3 0
v -1 -2 0
v 0 -2 0
v -15 -4 0
v -16 -4 0
v -16 -3 0
v -15 -3 0
v -14 -4 0
v -15 -4 0
v -15 -3 0
v -14 -3 0
v -13 -4 0
v -14 -4 0
v -14 -3 0
v -13 -3 0
v -12 -4 0
v -13 -4 0
v -13 -3 0
v -12 -3 0
v -11 -4 0
v -12 -4 0
v -12 -3 0
v -11 -3 0
v -10 -4 0
v -11 -4 0
v -11 -3 0
v -10 -3 0
v -9 -4 0
v -10 -4 0
v -10 -3 0
v -9 -3 0
v -8 -4 0
v -9 -4 0
v -9 -3 0
v -8 -3 0
v -7 -4 0
v -8 -4 0
v -8 -3 0
v -7 -3 0
v -6 -4 0
v -7 -4 0
v -7 -3 0
v -6 -3 0
v -5 -4 0
v -6 -4 0
v -6 -3 0
v -5 -3 0
v -4 -4 0
v -5 -4 0
v -5 -3 0
v -4 -3 0
v -3 -4 0
v -4 -4 0
v -4 -3 0
v -3 -3 0
v -2 -4 0
v -3 -4 0
v -3 -3 0
v -2 -3 0
v -1 -4 0
v -2 -4 0
v -2 -3 0
v -1 -3 0
v 0 -4 0
v -1 -4 0
v -1 -3 0
v 0 -3 0
v -15 -5 0
v -16 -5 0
v -16 -4 0
v -15 -4 0
v -14 -5 0
v -15 -5 0
v -15 -4 0
v -14 -4 0
v -13 -5 0
v -14 -5 0
v -14 -4 0
v -13 -4 0
v -12 -5 0
v -13 -5 0
v -13 -4 0
v -12 -4 0
v -11 -5 0
v -12 -5 0
v -12 -4 0
v -11 -4 0
v -10 -5 0
v -11 -5 0
v -11 -4 0
v -10 -4 0
v -9 -5 0
v -10 -5 0
v -10 -4 0
v -9 -4 0
v -8 -5 0
v -9 -5 0
v -9 -4 0
v -8 -4 0
v -7 -5 0
v -8 -5 0
v -8 -4 0
v -7 -4 0
v -6 -5 0
v -7 -5 0
v -7 -4 0
v -6 -4 0
v -5 -5 0
v -6 -5 0
v -6 -4 0
v -5 -4 0
v -4 -5 0
v -5 -5 0
v -5 -4 0
v -4 -4 0
v -3 -5 0
v -4 -5 0
v -4 -4 0
v -3 -4 0
v -2 -5 0
v -3 -5 0
v -3 -4 0
v -2 -4 0
v -1 -5 0
v -2 -5 0
v -2 -4 0
v -1 -4 0
v 0 -5 0
v -1 -5 0
v -1 -4 0
v 0 -4 0

# Texture cooridinates (Count = 26)
vt 0.2432432 0.9347826
vt 0.2702703 0.9347826
vt 0.2702703 0.9565217
vt 0.2432432 0.9565217
vt 0.2162162 0.9347826
vt 0.2162162 0.9565217
vt 0.2162162 0.9130435
vt 0.2432432 0.9130435
vt 0.3243243 0.8913044
vt 0.3513514 0.8913044
vt 0.3513514 0.9130435
vt 0.3243243 0.9130435
vt 0.2972973 0.8913044
vt 0.2972973 0.9130435
vt 0.2702703 0.8913044
vt 0.2702703 0.9130435
vt 0.2432432 0.8913044
vt 0.2162162 0.8913044
vt 0.3243243 0.8695652
vt 0.3513514 0.8695652
vt 0.2972973 0.8695652
vt 0.2702703 0.8695652
vt 0.2432432 0.8695652
vt 0.2162162 0.8695652
vt 0.3783784 0.8695652
vt 0.3783784 0.8913044

# Normal
vn 0 0 -1

# Mesh description
g dungeon1_mesh_0044

# Faces
f 1/1/1 2/2/1 3/3/1 4/4/1
f 5/5/1 6/1/1 7/4/1 8/6/1
f 9/7/1 10/8/1 11/1/1 12/5/1
f 13/7/1 14/8/1 15/1/1 16/5/1
f 17/9/1 18/10/1 19/11/1 20/12/1
f 21/13/1 22/9/1 23/12/1 24/14/1
f 25/15/1 26/13/1 27/14/1 28/16/1
f 29/17/1 30/15/1 31/16/1 32/8/1
f 33/18/1 34/17/1 35/8/1 36/7/1
f 37/19/1 38/20/1 39/10/1 40/9/1
f 41/21/1 42/19/1 43/9/1 44/13/1
f 45/22/1 46/21/1 47/13/1 48/15/1
f 49/23/1 50/22/1 51/15/1 52/17/1
f 53/24/1 54/23/1 55/17/1 56/18/1
f 57/24/1 58/23/1 59/17/1 60/18/1
f 61/24/1 62/23/1 63/17/1 64/18/1
f 65/5/1 66/1/1 67/4/1 68/6/1
f 69/5/1 70/1/1 71/4/1 72/6/1
f 73/18/1 74/17/1 75/8/1 76/7/1
f 77/18/1 78/17/1 79/8/1 80/7/1
f 81/19/1 82/20/1 83/10/1 84/9/1
f 85/21/1 86/19/1 87/9/1 88/13/1
f 89/22/1 90/21/1 91/13/1 92/15/1
f 93/23/1 94/22/1 95/15/1 96/17/1
f 97/24/1 98/23/1 99/17/1 100/18/1
f 101/5/1 102/1/1 103/4/1 104/6/1
f 105/5/1 106/1/1 107/4/1 108/6/1
f 109/5/1 110/1/1 111/4/1 112/6/1
f 113/5/1 114/1/1 115/4/1 116/6/1
f 117/5/1 118/1/1 119/4/1 120/6/1
f 121/5/1 122/1/1 123/4/1 124/6/1
f 125/5/1 126/1/1 127/4/1 128/6/1
f 129/7/1 130/8/1 131/1/1 132/5/1
f 133/7/1 134/8/1 135/1/1 136/5/1
f 137/24/1 138/23/1 139/17/1 140/18/1
f 141/24/1 142/23/1 143/17/1 144/18/1
f 145/21/1 146/19/1 147/9/1 148/13/1
f 149/22/1 150/21/1 151/13/1 152/15/1
f 153/23/1 154/22/1 155/15/1 156/17/1
f 157/24/1 158/23/1 159/17/1 160/18/1
f 161/7/1 162/8/1 163/1/1 164/5/1
f 165/7/1 166/8/1 167/1/1 168/5/1
f 169/7/1 170/8/1 171/1/1 172/5/1
f 173/7/1 174/8/1 175/1/1 176/5/1
f 177/7/1 178/8/1 179/1/1 180/5/1
f 181/7/1 182/8/1 183/1/1 184/5/1
f 185/7/1 186/8/1 187/1/1 188/5/1
f 189/7/1 190/8/1 191/1/1 192/5/1
f 193/18/1 194/17/1 195/8/1 196/7/1
f 197/18/1 198/17/1 199/8/1 200/7/1
f 201/20/1 202/25/1 203/26/1 204/10/1
f 205/19/1 206/20/1 207/10/1 208/9/1
f 209/21/1 210/19/1 211/9/1 212/13/1
f 213/22/1 214/21/1 215/13/1 216/15/1
f 217/23/1 218/22/1 219/15/1 220/17/1
f 221/24/1 222/23/1 223/17/1 224/18/1
f 225/18/1 226/17/1 227/8/1 228/7/1
f 229/18/1 230/17/1 231/8/1 232/7/1
f 233/18/1 234/17/1 235/8/1 236/7/1
f 237/18/1 238/17/1 239/8/1 240/7/1
f 241/18/1 242/17/1 243/8/1 244/7/1
f 245/18/1 246/17/1 247/8/1 248/7/1
f 249/18/1 250/17/1 251/8/1 252/7/1
f 253/18/1 254/17/1 255/8/1 256/7/1
f 257/24/1 258/23/1 259/17/1 260/18/1
f 261/24/1 262/23/1 263/17/1 264/18/1
f 265/20/1 266/25/1 267/26/1 268/10/1
f 269/19/1 270/20/1 271/10/1 272/9/1
f 273/21/1 274/19/1 275/9/1 276/13/1
f 277/22/1 278/21/1 279/13/1 280/15/1
f 281/23/1 282/22/1 283/15/1 284/17/1
f 285/24/1 286/23/1 287/17/1 288/18/1
f 289/24/1 290/23/1 291/17/1 292/18/1
f 293/24/1 294/23/1 295/17/1 296/18/1
f 297/24/1 298/23/1 299/17/1 300/18/1
f 301/24/1 302/23/1 303/17/1 304/18/1
f 305/24/1 306/23/1 307/17/1 308/18/1
f 309/24/1 310/23/1 311/17/1 312/18/1
f 313/24/1 314/23/1 315/17/1 316/18/1
f 317/24/1 318/23/1 319/17/1 320/18/1

