# Tiled2Unity generated file. Do not modify by hand.
# Wavefront file for 'dungeon1_mesh_0124.obj'

# Vertices (Count = 616)
v -5 -1 0
v -6 -1 0
v -6 0 0
v -5 0 0
v -4 -1 0
v -5 -1 0
v -5 0 0
v -4 0 0
v -1 -1 0
v -2 -1 0
v -2 0 0
v -1 0 0
v 0 -1 0
v -1 -1 0
v -1 0 0
v 0 0 0
v -5 -2 0
v -6 -2 0
v -6 -1 0
v -5 -1 0
v -4 -2 0
v -5 -2 0
v -5 -1 0
v -4 -1 0
v -2 -2 0
v -3 -2 0
v -3 -1 0
v -2 -1 0
v -1 -2 0
v -2 -2 0
v -2 -1 0
v -1 -1 0
v 0 -2 0
v -1 -2 0
v -1 -1 0
v 0 -1 0
v -5 -3 0
v -6 -3 0
v -6 -2 0
v -5 -2 0
v -4 -3 0
v -5 -3 0
v -5 -2 0
v -4 -2 0
v -3 -3 0
v -4 -3 0
v -4 -2 0
v -3 -2 0
v -2 -3 0
v -3 -3 0
v -3 -2 0
v -2 -2 0
v -1 -3 0
v -2 -3 0
v -2 -2 0
v -1 -2 0
v 0 -3 0
v -1 -3 0
v -1 -2 0
v 0 -2 0
v -7 -4 0
v -8 -4 0
v -8 -3 0
v -7 -3 0
v -6 -4 0
v -7 -4 0
v -7 -3 0
v -6 -3 0
v -5 -4 0
v -6 -4 0
v -6 -3 0
v -5 -3 0
v -4 -4 0
v -5 -4 0
v -5 -3 0
v -4 -3 0
v -3 -4 0
v -4 -4 0
v -4 -3 0
v -3 -3 0
v -2 -4 0
v -3 -4 0
v -3 -3 0
v -2 -3 0
v -1 -4 0
v -2 -4 0
v -2 -3 0
v -1 -3 0
v 0 -4 0
v -1 -4 0
v -1 -3 0
v 0 -3 0
v -9 -5 0
v -10 -5 0
v -10 -4 0
v -9 -4 0
v -8 -5 0
v -9 -5 0
v -9 -4 0
v -8 -4 0
v -7 -5 0
v -8 -5 0
v -8 -4 0
v -7 -4 0
v -6 -5 0
v -7 -5 0
v -7 -4 0
v -6 -4 0
v -5 -5 0
v -6 -5 0
v -6 -4 0
v -5 -4 0
v -4 -5 0
v -5 -5 0
v -5 -4 0
v -4 -4 0
v -3 -5 0
v -4 -5 0
v -4 -4 0
v -3 -4 0
v -2 -5 0
v -3 -5 0
v -3 -4 0
v -2 -4 0
v -1 -5 0
v -2 -5 0
v -2 -4 0
v -1 -4 0
v 0 -5 0
v -1 -5 0
v -1 -4 0
v 0 -4 0
v -9 -6 0
v -10 -6 0
v -10 -5 0
v -9 -5 0
v -8 -6 0
v -9 -6 0
v -9 -5 0
v -8 -5 0
v -7 -6 0
v -8 -6 0
v -8 -5 0
v -7 -5 0
v -6 -6 0
v -7 -6 0
v -7 -5 0
v -6 -5 0
v -5 -6 0
v -6 -6 0
v -6 -5 0
v -5 -5 0
v -4 -6 0
v -5 -6 0
v -5 -5 0
v -4 -5 0
v -3 -6 0
v -4 -6 0
v -4 -5 0
v -3 -5 0
v -2 -6 0
v -3 -6 0
v -3 -5 0
v -2 -5 0
v -1 -6 0
v -2 -6 0
v -2 -5 0
v -1 -5 0
v 0 -6 0
v -1 -6 0
v -1 -5 0
v 0 -5 0
v -9 -7 0
v -10 -7 0
v -10 -6 0
v -9 -6 0
v -8 -7 0
v -9 -7 0
v -9 -6 0
v -8 -6 0
v -7 -7 0
v -8 -7 0
v -8 -6 0
v -7 -6 0
v -6 -7 0
v -7 -7 0
v -7 -6 0
v -6 -6 0
v -5 -7 0
v -6 -7 0
v -6 -6 0
v -5 -6 0
v -4 -7 0
v -5 -7 0
v -5 -6 0
v -4 -6 0
v -3 -7 0
v -4 -7 0
v -4 -6 0
v -3 -6 0
v -2 -7 0
v -3 -7 0
v -3 -6 0
v -2 -6 0
v -1 -7 0
v -2 -7 0
v -2 -6 0
v -1 -6 0
v 0 -7 0
v -1 -7 0
v -1 -6 0
v 0 -6 0
v -9 -8 0
v -10 -8 0
v -10 -7 0
v -9 -7 0
v -8 -8 0
v -9 -8 0
v -9 -7 0
v -8 -7 0
v -7 -8 0
v -8 -8 0
v -8 -7 0
v -7 -7 0
v -6 -8 0
v -7 -8 0
v -7 -7 0
v -6 -7 0
v -5 -8 0
v -6 -8 0
v -6 -7 0
v -5 -7 0
v -4 -8 0
v -5 -8 0
v -5 -7 0
v -4 -7 0
v -3 -8 0
v -4 -8 0
v -4 -7 0
v -3 -7 0
v -2 -8 0
v -3 -8 0
v -3 -7 0
v -2 -7 0
v -1 -8 0
v -2 -8 0
v -2 -7 0
v -1 -7 0
v 0 -8 0
v -1 -8 0
v -1 -7 0
v 0 -7 0
v -9 -9 0
v -10 -9 0
v -10 -8 0
v -9 -8 0
v -8 -9 0
v -9 -9 0
v -9 -8 0
v -8 -8 0
v -7 -9 0
v -8 -9 0
v -8 -8 0
v -7 -8 0
v -6 -9 0
v -7 -9 0
v -7 -8 0
v -6 -8 0
v -5 -9 0
v -6 -9 0
v -6 -8 0
v -5 -8 0
v -4 -9 0
v -5 -9 0
v -5 -8 0
v -4 -8 0
v -3 -9 0
v -4 -9 0
v -4 -8 0
v -3 -8 0
v -2 -9 0
v -3 -9 0
v -3 -8 0
v -2 -8 0
v -1 -9 0
v -2 -9 0
v -2 -8 0
v -1 -8 0
v 0 -9 0
v -1 -9 0
v -1 -8 0
v 0 -8 0
v -9 -10 0
v -10 -10 0
v -10 -9 0
v -9 -9 0
v -8 -10 0
v -9 -10 0
v -9 -9 0
v -8 -9 0
v -7 -10 0
v -8 -10 0
v -8 -9 0
v -7 -9 0
v -6 -10 0
v -7 -10 0
v -7 -9 0
v -6 -9 0
v -5 -10 0
v -6 -10 0
v -6 -9 0
v -5 -9 0
v -4 -10 0
v -5 -10 0
v -5 -9 0
v -4 -9 0
v -3 -10 0
v -4 -10 0
v -4 -9 0
v -3 -9 0
v -2 -10 0
v -3 -10 0
v -3 -9 0
v -2 -9 0
v -1 -10 0
v -2 -10 0
v -2 -9 0
v -1 -9 0
v 0 -10 0
v -1 -10 0
v -1 -9 0
v 0 -9 0
v -10 -11 0
v -11 -11 0
v -11 -10 0
v -10 -10 0
v -9 -11 0
v -10 -11 0
v -10 -10 0
v -9 -10 0
v -8 -11 0
v -9 -11 0
v -9 -10 0
v -8 -10 0
v -7 -11 0
v -8 -11 0
v -8 -10 0
v -7 -10 0
v -6 -11 0
v -7 -11 0
v -7 -10 0
v -6 -10 0
v -5 -11 0
v -6 -11 0
v -6 -10 0
v -5 -10 0
v -4 -11 0
v -5 -11 0
v -5 -10 0
v -4 -10 0
v -3 -11 0
v -4 -11 0
v -4 -10 0
v -3 -10 0
v -2 -11 0
v -3 -11 0
v -3 -10 0
v -2 -10 0
v -1 -11 0
v -2 -11 0
v -2 -10 0
v -1 -10 0
v 0 -11 0
v -1 -11 0
v -1 -10 0
v 0 -10 0
v -10 -12 0
v -11 -12 0
v -11 -11 0
v -10 -11 0
v -9 -12 0
v -10 -12 0
v -10 -11 0
v -9 -11 0
v -8 -12 0
v -9 -12 0
v -9 -11 0
v -8 -11 0
v -7 -12 0
v -8 -12 0
v -8 -11 0
v -7 -11 0
v -6 -12 0
v -7 -12 0
v -7 -11 0
v -6 -11 0
v -5 -12 0
v -6 -12 0
v -6 -11 0
v -5 -11 0
v -4 -12 0
v -5 -12 0
v -5 -11 0
v -4 -11 0
v -3 -12 0
v -4 -12 0
v -4 -11 0
v -3 -11 0
v -2 -12 0
v -3 -12 0
v -3 -11 0
v -2 -11 0
v -1 -12 0
v -2 -12 0
v -2 -11 0
v -1 -11 0
v 0 -12 0
v -1 -12 0
v -1 -11 0
v 0 -11 0
v -15 -13 0
v -16 -13 0
v -16 -12 0
v -15 -12 0
v -14 -13 0
v -15 -13 0
v -15 -12 0
v -14 -12 0
v -13 -13 0
v -14 -13 0
v -14 -12 0
v -13 -12 0
v -12 -13 0
v -13 -13 0
v -13 -12 0
v -12 -12 0
v -11 -13 0
v -12 -13 0
v -12 -12 0
v -11 -12 0
v -10 -13 0
v -11 -13 0
v -11 -12 0
v -10 -12 0
v -9 -13 0
v -10 -13 0
v -10 -12 0
v -9 -12 0
v -15 -14 0
v -16 -14 0
v -16 -13 0
v -15 -13 0
v -14 -14 0
v -15 -14 0
v -15 -13 0
v -14 -13 0
v -13 -14 0
v -14 -14 0
v -14 -13 0
v -13 -13 0
v -12 -14 0
v -13 -14 0
v -13 -13 0
v -12 -13 0
v -11 -14 0
v -12 -14 0
v -12 -13 0
v -11 -13 0
v -10 -14 0
v -11 -14 0
v -11 -13 0
v -10 -13 0
v -9 -14 0
v -10 -14 0
v -10 -13 0
v -9 -13 0
v -6 -14 0
v -7 -14 0
v -7 -13 0
v -6 -13 0
v -5 -14 0
v -6 -14 0
v -6 -13 0
v -5 -13 0
v -4 -14 0
v -5 -14 0
v -5 -13 0
v -4 -13 0
v -3 -14 0
v -4 -14 0
v -4 -13 0
v -3 -13 0
v -2 -14 0
v -3 -14 0
v -3 -13 0
v -2 -13 0
v -1 -14 0
v -2 -14 0
v -2 -13 0
v -1 -13 0
v 0 -14 0
v -1 -14 0
v -1 -13 0
v 0 -13 0
v -15 -15 0
v -16 -15 0
v -16 -14 0
v -15 -14 0
v -14 -15 0
v -15 -15 0
v -15 -14 0
v -14 -14 0
v -13 -15 0
v -14 -15 0
v -14 -14 0
v -13 -14 0
v -12 -15 0
v -13 -15 0
v -13 -14 0
v -12 -14 0
v -11 -15 0
v -12 -15 0
v -12 -14 0
v -11 -14 0
v -10 -15 0
v -11 -15 0
v -11 -14 0
v -10 -14 0
v -9 -15 0
v -10 -15 0
v -10 -14 0
v -9 -14 0
v -6 -15 0
v -7 -15 0
v -7 -14 0
v -6 -14 0
v -5 -15 0
v -6 -15 0
v -6 -14 0
v -5 -14 0
v -4 -15 0
v -5 -15 0
v -5 -14 0
v -4 -14 0
v -3 -15 0
v -4 -15 0
v -4 -14 0
v -3 -14 0
v -2 -15 0
v -3 -15 0
v -3 -14 0
v -2 -14 0
v -1 -15 0
v -2 -15 0
v -2 -14 0
v -1 -14 0
v 0 -15 0
v -1 -15 0
v -1 -14 0
v 0 -14 0
v -15 -16 0
v -16 -16 0
v -16 -15 0
v -15 -15 0
v -14 -16 0
v -15 -16 0
v -15 -15 0
v -14 -15 0
v -13 -16 0
v -14 -16 0
v -14 -15 0
v -13 -15 0
v -12 -16 0
v -13 -16 0
v -13 -15 0
v -12 -15 0
v -11 -16 0
v -12 -16 0
v -12 -15 0
v -11 -15 0
v -10 -16 0
v -11 -16 0
v -11 -15 0
v -10 -15 0
v -9 -16 0
v -10 -16 0
v -10 -15 0
v -9 -15 0
v -6 -16 0
v -7 -16 0
v -7 -15 0
v -6 -15 0
v -5 -16 0
v -6 -16 0
v -6 -15 0
v -5 -15 0
v -4 -16 0
v -5 -16 0
v -5 -15 0
v -4 -15 0
v -3 -16 0
v -4 -16 0
v -4 -15 0
v -3 -15 0
v -2 -16 0
v -3 -16 0
v -3 -15 0
v -2 -15 0
v -1 -16 0
v -2 -16 0
v -2 -15 0
v -1 -15 0
v 0 -16 0
v -1 -16 0
v -1 -15 0
v 0 -15 0

# Texture cooridinates (Count = 131)
vt 0.6486486 0.8260869
vt 0.6756757 0.8260869
vt 0.6756757 0.8478261
vt 0.6486486 0.8478261
vt 0.6216216 0.8260869
vt 0.6216216 0.8478261
vt 0.7837838 0.8695652
vt 0.8108108 0.8695652
vt 0.8108108 0.8913044
vt 0.7837838 0.8913044
vt 0.7837838 0.8478261
vt 0.8108108 0.8478261
vt 0.6486486 0.8043478
vt 0.6756757 0.8043478
vt 0.6216216 0.8043478
vt 0.7837838 0.8260869
vt 0.8108108 0.8260869
vt 0.6486486 0.7826087
vt 0.6756757 0.7826087
vt 0.6216216 0.7826087
vt 0.8378378 0.8478261
vt 0.8378378 0.8695652
vt 0.7837838 0.8043478
vt 0.8108108 0.8043478
vt 0.5675676 0.8478261
vt 0.5945946 0.8478261
vt 0.5945946 0.8695652
vt 0.5675676 0.8695652
vt 0.5405405 0.8478261
vt 0.5405405 0.8695652
vt 0.6486486 0.7608696
vt 0.6756757 0.7608696
vt 0.6216216 0.7608696
vt 0.8378378 0.8260869
vt 0.7837838 0.7826087
vt 0.8108108 0.7826087
vt 0.1621622 0.9565217
vt 0.1891892 0.9565217
vt 0.1891892 0.9782609
vt 0.1621622 0.9782609
vt 0.08108108 0.8260869
vt 0.1081081 0.8260869
vt 0.1081081 0.8478261
vt 0.08108108 0.8478261
vt 0.5675676 0.8260869
vt 0.5945946 0.8260869
vt 0.5405405 0.8260869
vt 0.8378378 0.8043478
vt 0.7567568 0.8043478
vt 0.7567568 0.8260869
vt 0.1621622 0.8478261
vt 0.1891892 0.8478261
vt 0.1891892 0.8695652
vt 0.1621622 0.8695652
vt 0.08108108 0.8043478
vt 0.1081081 0.8043478
vt 0.5675676 0.8043478
vt 0.5945946 0.8043478
vt 0.5405405 0.8043478
vt 0.8378378 0.7826087
vt 0.7567568 0.7826087
vt 0.08108108 0.7608696
vt 0.1081081 0.7608696
vt 0.1081081 0.7826087
vt 0.08108108 0.7826087
vt 0.5675676 0.7826087
vt 0.5945946 0.7826087
vt 0.5405405 0.7826087
vt 0.1621622 0.8260869
vt 0.1891892 0.8260869
vt 0.5675676 0.7608696
vt 0.5945946 0.7608696
vt 0.5405405 0.7608696
vt 0.6756757 0.9130435
vt 0.7027027 0.9130435
vt 0.7027027 0.9347826
vt 0.6756757 0.9347826
vt 0.6486486 0.9130435
vt 0.6486486 0.9347826
vt 0.8108108 0.7608696
vt 0.8378378 0.7608696
vt 0.7837838 0.7608696
vt 0.7567568 0.7608696
vt 0.1621622 0.8913044
vt 0.1891892 0.8913044
vt 0.1891892 0.9130435
vt 0.1621622 0.9130435
vt 0.1351351 0.8043478
vt 0.1621622 0.8043478
vt 0.1351351 0.8260869
vt 0.08108108 0.7391304
vt 0.1081081 0.7391304
vt 0.2702703 0.7391304
vt 0.2972973 0.7391304
vt 0.2972973 0.7608696
vt 0.2702703 0.7608696
vt 0.2432432 0.7391304
vt 0.2432432 0.7608696
vt 0.6756757 0.9782609
vt 0.7027027 0.9782609
vt 0.7027027 1
vt 0.6756757 1
vt 0.6486486 0.9782609
vt 0.6486486 1
vt 0.6216216 0.9782609
vt 0.6216216 1
vt 0.1351351 0.7608696
vt 0.1621622 0.7608696
vt 0.1621622 0.7826087
vt 0.1351351 0.7826087
vt 0.6756757 0.9565217
vt 0.7027027 0.9565217
vt 0.6486486 0.9565217
vt 0.6216216 0.9565217
vt 0.5135135 0.6521739
vt 0.5405405 0.6521739
vt 0.5405405 0.673913
vt 0.5135135 0.673913
vt 0.4864865 0.6521739
vt 0.4864865 0.673913
vt 0.5405405 0.6956522
vt 0.5135135 0.6956522
vt 0.4864865 0.6956522
vt 0.5135135 0.7173913
vt 0.5405405 0.7173913
vt 0.5405405 0.7391304
vt 0.5135135 0.7391304
vt 0.6216216 0.9347826
vt 0.6216216 0.9130435
vt 0.4864865 0.7173913
vt 0.4864865 0.7391304

# Normal
vn 0 0 -1

# Mesh description
g dungeon1_mesh_0124

# Faces
f 1/1/1 2/2/1 3/3/1 4/4/1
f 5/5/1 6/1/1 7/4/1 8/6/1
f 9/7/1 10/8/1 11/9/1 12/10/1
f 13/11/1 14/12/1 15/8/1 16/7/1
f 17/13/1 18/14/1 19/2/1 20/1/1
f 21/15/1 22/13/1 23/1/1 24/5/1
f 25/7/1 26/8/1 27/9/1 28/10/1
f 29/11/1 30/12/1 31/8/1 32/7/1
f 33/16/1 34/17/1 35/12/1 36/11/1
f 37/18/1 38/19/1 39/14/1 40/13/1
f 41/20/1 42/18/1 43/13/1 44/15/1
f 45/12/1 46/21/1 47/22/1 48/8/1
f 49/11/1 50/12/1 51/8/1 52/7/1
f 53/16/1 54/17/1 55/12/1 56/11/1
f 57/23/1 58/24/1 59/17/1 60/16/1
f 61/25/1 62/26/1 63/27/1 64/28/1
f 65/29/1 66/25/1 67/28/1 68/30/1
f 69/31/1 70/32/1 71/19/1 72/18/1
f 73/33/1 74/31/1 75/18/1 76/20/1
f 77/17/1 78/34/1 79/21/1 80/12/1
f 81/16/1 82/17/1 83/12/1 84/11/1
f 85/35/1 86/36/1 87/24/1 88/23/1
f 89/35/1 90/36/1 91/24/1 92/23/1
f 93/37/1 94/38/1 95/39/1 96/40/1
f 97/41/1 98/42/1 99/43/1 100/44/1
f 101/45/1 102/46/1 103/26/1 104/25/1
f 105/47/1 106/45/1 107/25/1 108/29/1
f 109/18/1 110/19/1 111/14/1 112/13/1
f 113/20/1 114/18/1 115/13/1 116/15/1
f 117/24/1 118/48/1 119/34/1 120/17/1
f 121/23/1 122/24/1 123/17/1 124/16/1
f 125/49/1 126/23/1 127/16/1 128/50/1
f 129/23/1 130/24/1 131/17/1 132/16/1
f 133/51/1 134/52/1 135/53/1 136/54/1
f 137/55/1 138/56/1 139/42/1 140/41/1
f 141/57/1 142/58/1 143/46/1 144/45/1
f 145/59/1 146/57/1 147/45/1 148/47/1
f 149/31/1 150/32/1 151/19/1 152/18/1
f 153/33/1 154/31/1 155/18/1 156/20/1
f 157/36/1 158/60/1 159/48/1 160/24/1
f 161/35/1 162/36/1 163/24/1 164/23/1
f 165/61/1 166/35/1 167/23/1 168/49/1
f 169/35/1 170/36/1 171/24/1 172/23/1
f 173/51/1 174/52/1 175/53/1 176/54/1
f 177/62/1 178/63/1 179/64/1 180/65/1
f 181/66/1 182/67/1 183/58/1 184/57/1
f 185/68/1 186/66/1 187/57/1 188/59/1
f 189/18/1 190/19/1 191/14/1 192/13/1
f 193/20/1 194/18/1 195/13/1 196/15/1
f 197/24/1 198/48/1 199/34/1 200/17/1
f 201/23/1 202/24/1 203/17/1 204/16/1
f 205/49/1 206/23/1 207/16/1 208/50/1
f 209/23/1 210/24/1 211/17/1 212/16/1
f 213/51/1 214/52/1 215/53/1 216/54/1
f 217/65/1 218/64/1 219/56/1 220/55/1
f 221/66/1 222/67/1 223/58/1 224/57/1
f 225/68/1 226/66/1 227/57/1 228/59/1
f 229/31/1 230/32/1 231/19/1 232/18/1
f 233/33/1 234/31/1 235/18/1 236/20/1
f 237/36/1 238/60/1 239/48/1 240/24/1
f 241/35/1 242/36/1 243/24/1 244/23/1
f 245/61/1 246/35/1 247/23/1 248/49/1
f 249/35/1 250/36/1 251/24/1 252/23/1
f 253/51/1 254/52/1 255/53/1 256/54/1
f 257/62/1 258/63/1 259/64/1 260/65/1
f 261/66/1 262/67/1 263/58/1 264/57/1
f 265/68/1 266/66/1 267/57/1 268/59/1
f 269/18/1 270/19/1 271/14/1 272/13/1
f 273/20/1 274/18/1 275/13/1 276/15/1
f 277/24/1 278/48/1 279/34/1 280/17/1
f 281/23/1 282/24/1 283/17/1 284/16/1
f 285/49/1 286/23/1 287/16/1 288/50/1
f 289/23/1 290/24/1 291/17/1 292/16/1
f 293/51/1 294/52/1 295/53/1 296/54/1
f 297/65/1 298/64/1 299/56/1 300/55/1
f 301/66/1 302/67/1 303/58/1 304/57/1
f 305/68/1 306/66/1 307/57/1 308/59/1
f 309/31/1 310/32/1 311/19/1 312/18/1
f 313/33/1 314/31/1 315/18/1 316/20/1
f 317/36/1 318/60/1 319/48/1 320/24/1
f 321/35/1 322/36/1 323/24/1 324/23/1
f 325/61/1 326/35/1 327/23/1 328/49/1
f 329/35/1 330/36/1 331/24/1 332/23/1
f 333/37/1 334/38/1 335/39/1 336/40/1
f 337/69/1 338/70/1 339/52/1 340/51/1
f 341/62/1 342/63/1 343/64/1 344/65/1
f 345/71/1 346/72/1 347/67/1 348/66/1
f 349/73/1 350/71/1 351/66/1 352/68/1
f 353/74/1 354/75/1 355/76/1 356/77/1
f 357/78/1 358/74/1 359/77/1 360/79/1
f 361/80/1 362/81/1 363/60/1 364/36/1
f 365/82/1 366/80/1 367/36/1 368/35/1
f 369/83/1 370/82/1 371/35/1 372/61/1
f 373/82/1 374/80/1 375/36/1 376/35/1
f 377/84/1 378/85/1 379/86/1 380/87/1
f 381/88/1 382/89/1 383/69/1 384/90/1
f 385/91/1 386/92/1 387/63/1 388/62/1
f 389/93/1 390/94/1 391/95/1 392/96/1
f 393/97/1 394/93/1 395/96/1 396/98/1
f 397/93/1 398/94/1 399/95/1 400/96/1
f 401/97/1 402/93/1 403/96/1 404/98/1
f 405/93/1 406/94/1 407/95/1 408/96/1
f 409/97/1 410/93/1 411/96/1 412/98/1
f 413/93/1 414/94/1 415/95/1 416/96/1
f 417/97/1 418/93/1 419/96/1 420/98/1
f 421/99/1 422/100/1 423/101/1 424/102/1
f 425/103/1 426/99/1 427/102/1 428/104/1
f 429/105/1 430/103/1 431/104/1 432/106/1
f 433/99/1 434/100/1 435/101/1 436/102/1
f 437/103/1 438/99/1 439/102/1 440/104/1
f 441/105/1 442/103/1 443/104/1 444/106/1
f 445/107/1 446/108/1 447/109/1 448/110/1
f 449/111/1 450/112/1 451/100/1 452/99/1
f 453/113/1 454/111/1 455/99/1 456/103/1
f 457/114/1 458/113/1 459/103/1 460/105/1
f 461/111/1 462/112/1 463/100/1 464/99/1
f 465/113/1 466/111/1 467/99/1 468/103/1
f 469/114/1 470/113/1 471/103/1 472/105/1
f 473/110/1 474/109/1 475/89/1 476/88/1
f 477/115/1 478/116/1 479/117/1 480/118/1
f 481/119/1 482/115/1 483/118/1 484/120/1
f 485/115/1 486/116/1 487/117/1 488/118/1
f 489/118/1 490/117/1 491/121/1 492/122/1
f 493/120/1 494/118/1 495/122/1 496/123/1
f 497/118/1 498/117/1 499/121/1 500/122/1
f 501/124/1 502/125/1 503/126/1 504/127/1
f 505/77/1 506/76/1 507/112/1 508/111/1
f 509/79/1 510/77/1 511/111/1 512/113/1
f 513/128/1 514/79/1 515/113/1 516/114/1
f 517/77/1 518/76/1 519/112/1 520/111/1
f 521/79/1 522/77/1 523/111/1 524/113/1
f 525/128/1 526/79/1 527/113/1 528/114/1
f 529/107/1 530/108/1 531/109/1 532/110/1
f 533/115/1 534/116/1 535/117/1 536/118/1
f 537/119/1 538/115/1 539/118/1 540/120/1
f 541/120/1 542/118/1 543/122/1 544/123/1
f 545/115/1 546/116/1 547/117/1 548/118/1
f 549/119/1 550/115/1 551/118/1 552/120/1
f 553/115/1 554/116/1 555/117/1 556/118/1
f 557/122/1 558/121/1 559/125/1 560/124/1
f 561/74/1 562/75/1 563/76/1 564/77/1
f 565/78/1 566/74/1 567/77/1 568/79/1
f 569/129/1 570/78/1 571/79/1 572/128/1
f 573/74/1 574/75/1 575/76/1 576/77/1
f 577/78/1 578/74/1 579/77/1 580/79/1
f 581/129/1 582/78/1 583/79/1 584/128/1
f 585/107/1 586/108/1 587/109/1 588/110/1
f 589/115/1 590/116/1 591/117/1 592/118/1
f 593/119/1 594/115/1 595/118/1 596/120/1
f 597/124/1 598/125/1 599/126/1 600/127/1
f 601/115/1 602/116/1 603/117/1 604/118/1
f 605/119/1 606/115/1 607/118/1 608/120/1
f 609/130/1 610/124/1 611/127/1 612/131/1
f 613/118/1 614/117/1 615/121/1 616/122/1

