# Tiled2Unity generated file. Do not modify by hand.
# Wavefront file for 'dungeon1_mesh_0149.obj'

# Vertices (Count = 224)
v -9 -1 0
v -10 -1 0
v -10 0 0
v -9 0 0
v -8 -1 0
v -9 -1 0
v -9 0 0
v -8 0 0
v -9 -2 0
v -10 -2 0
v -10 -1 0
v -9 -1 0
v -8 -2 0
v -9 -2 0
v -9 -1 0
v -8 -1 0
v -9 -3 0
v -10 -3 0
v -10 -2 0
v -9 -2 0
v -8 -3 0
v -9 -3 0
v -9 -2 0
v -8 -2 0
v -9 -4 0
v -10 -4 0
v -10 -3 0
v -9 -3 0
v -8 -4 0
v -9 -4 0
v -9 -3 0
v -8 -3 0
v -9 -5 0
v -10 -5 0
v -10 -4 0
v -9 -4 0
v -8 -5 0
v -9 -5 0
v -9 -4 0
v -8 -4 0
v -9 -6 0
v -10 -6 0
v -10 -5 0
v -9 -5 0
v -9 -7 0
v -10 -7 0
v -10 -6 0
v -9 -6 0
v -2 -7 0
v -3 -7 0
v -3 -6 0
v -2 -6 0
v -1 -7 0
v -2 -7 0
v -2 -6 0
v -1 -6 0
v 0 -7 0
v -1 -7 0
v -1 -6 0
v 0 -6 0
v -9 -8 0
v -10 -8 0
v -10 -7 0
v -9 -7 0
v -2 -8 0
v -3 -8 0
v -3 -7 0
v -2 -7 0
v -1 -8 0
v -2 -8 0
v -2 -7 0
v -1 -7 0
v 0 -8 0
v -1 -8 0
v -1 -7 0
v 0 -7 0
v -9 -9 0
v -10 -9 0
v -10 -8 0
v -9 -8 0
v -2 -9 0
v -3 -9 0
v -3 -8 0
v -2 -8 0
v -1 -9 0
v -2 -9 0
v -2 -8 0
v -1 -8 0
v 0 -9 0
v -1 -9 0
v -1 -8 0
v 0 -8 0
v -9 -10 0
v -10 -10 0
v -10 -9 0
v -9 -9 0
v -2 -10 0
v -3 -10 0
v -3 -9 0
v -2 -9 0
v -1 -10 0
v -2 -10 0
v -2 -9 0
v -1 -9 0
v 0 -10 0
v -1 -10 0
v -1 -9 0
v 0 -9 0
v -9 -11 0
v -10 -11 0
v -10 -10 0
v -9 -10 0
v -6 -11 0
v -7 -11 0
v -7 -10 0
v -6 -10 0
v -5 -11 0
v -6 -11 0
v -6 -10 0
v -5 -10 0
v -4 -11 0
v -5 -11 0
v -5 -10 0
v -4 -10 0
v -3 -11 0
v -4 -11 0
v -4 -10 0
v -3 -10 0
v -2 -11 0
v -3 -11 0
v -3 -10 0
v -2 -10 0
v -1 -11 0
v -2 -11 0
v -2 -10 0
v -1 -10 0
v 0 -11 0
v -1 -11 0
v -1 -10 0
v 0 -10 0
v -9 -12 0
v -10 -12 0
v -10 -11 0
v -9 -11 0
v -6 -12 0
v -7 -12 0
v -7 -11 0
v -6 -11 0
v -5 -12 0
v -6 -12 0
v -6 -11 0
v -5 -11 0
v -4 -12 0
v -5 -12 0
v -5 -11 0
v -4 -11 0
v -3 -12 0
v -4 -12 0
v -4 -11 0
v -3 -11 0
v -9 -13 0
v -10 -13 0
v -10 -12 0
v -9 -12 0
v -6 -13 0
v -7 -13 0
v -7 -12 0
v -6 -12 0
v -5 -13 0
v -6 -13 0
v -6 -12 0
v -5 -12 0
v -4 -13 0
v -5 -13 0
v -5 -12 0
v -4 -12 0
v -3 -13 0
v -4 -13 0
v -4 -12 0
v -3 -12 0
v -9 -14 0
v -10 -14 0
v -10 -13 0
v -9 -13 0
v -6 -14 0
v -7 -14 0
v -7 -13 0
v -6 -13 0
v -5 -14 0
v -6 -14 0
v -6 -13 0
v -5 -13 0
v -4 -14 0
v -5 -14 0
v -5 -13 0
v -4 -13 0
v -3 -14 0
v -4 -14 0
v -4 -13 0
v -3 -13 0
v -9 -15 0
v -10 -15 0
v -10 -14 0
v -9 -14 0
v -6 -15 0
v -7 -15 0
v -7 -14 0
v -6 -14 0
v -5 -15 0
v -6 -15 0
v -6 -14 0
v -5 -14 0
v -4 -15 0
v -5 -15 0
v -5 -14 0
v -4 -14 0
v -3 -15 0
v -4 -15 0
v -4 -14 0
v -3 -14 0
v -9 -16 0
v -10 -16 0
v -10 -15 0
v -9 -15 0

# Texture cooridinates (Count = 50)
vt 0.1621622 0.9347826
vt 0.1891892 0.9347826
vt 0.1891892 0.9565217
vt 0.1621622 0.9565217
vt 0.1351351 0.7826087
vt 0.1621622 0.7826087
vt 0.1621622 0.8043478
vt 0.1351351 0.8043478
vt 0.1621622 0.9130435
vt 0.1891892 0.9130435
vt 0.1621622 0.8913044
vt 0.1891892 0.8913044
vt 0.1621622 0.8695652
vt 0.1891892 0.8695652
vt 0.1351351 0.7608696
vt 0.1621622 0.7608696
vt 0.1621622 0.8478261
vt 0.1891892 0.8478261
vt 0.1351351 0.7391304
vt 0.1621622 0.7391304
vt 0.8378378 0.1739131
vt 0.8648649 0.1739131
vt 0.8648649 0.1956522
vt 0.8378378 0.1956522
vt 0.8108108 0.1739131
vt 0.8108108 0.1956522
vt 0.7837838 0.1739131
vt 0.7837838 0.1956522
vt 0.8378378 0.1521739
vt 0.8648649 0.1521739
vt 0.8108108 0.1521739
vt 0.7837838 0.1521739
vt 0.8378378 0.1304348
vt 0.8648649 0.1304348
vt 0.8108108 0.1304348
vt 0.7837838 0.1304348
vt 0.8378378 0.1086956
vt 0.8648649 0.1086956
vt 0.8108108 0.1086956
vt 0.7837838 0.1086956
vt 0.7567568 0.1739131
vt 0.7567568 0.1956522
vt 0.8378378 0.0869565
vt 0.8648649 0.0869565
vt 0.8108108 0.0869565
vt 0.7837838 0.0869565
vt 0.7567568 0.1521739
vt 0.7567568 0.1304348
vt 0.7567568 0.1086956
vt 0.7567568 0.0869565

# Normal
vn 0 0 -1

# Mesh description
g dungeon1_mesh_0149

# Faces
f 1/1/1 2/2/1 3/3/1 4/4/1
f 5/5/1 6/6/1 7/7/1 8/8/1
f 9/9/1 10/10/1 11/2/1 12/1/1
f 13/5/1 14/6/1 15/7/1 16/8/1
f 17/11/1 18/12/1 19/10/1 20/9/1
f 21/5/1 22/6/1 23/7/1 24/8/1
f 25/13/1 26/14/1 27/12/1 28/11/1
f 29/15/1 30/16/1 31/6/1 32/5/1
f 33/17/1 34/18/1 35/14/1 36/13/1
f 37/19/1 38/20/1 39/16/1 40/15/1
f 41/1/1 42/2/1 43/3/1 44/4/1
f 45/9/1 46/10/1 47/2/1 48/1/1
f 49/21/1 50/22/1 51/23/1 52/24/1
f 53/25/1 54/21/1 55/24/1 56/26/1
f 57/27/1 58/25/1 59/26/1 60/28/1
f 61/11/1 62/12/1 63/10/1 64/9/1
f 65/29/1 66/30/1 67/22/1 68/21/1
f 69/31/1 70/29/1 71/21/1 72/25/1
f 73/32/1 74/31/1 75/25/1 76/27/1
f 77/1/1 78/2/1 79/3/1 80/4/1
f 81/33/1 82/34/1 83/30/1 84/29/1
f 85/35/1 86/33/1 87/29/1 88/31/1
f 89/36/1 90/35/1 91/31/1 92/32/1
f 93/9/1 94/10/1 95/2/1 96/1/1
f 97/37/1 98/38/1 99/34/1 100/33/1
f 101/39/1 102/37/1 103/33/1 104/35/1
f 105/40/1 106/39/1 107/35/1 108/36/1
f 109/11/1 110/12/1 111/10/1 112/9/1
f 113/21/1 114/22/1 115/23/1 116/24/1
f 117/25/1 118/21/1 119/24/1 120/26/1
f 121/27/1 122/25/1 123/26/1 124/28/1
f 125/41/1 126/27/1 127/28/1 128/42/1
f 129/43/1 130/44/1 131/38/1 132/37/1
f 133/45/1 134/43/1 135/37/1 136/39/1
f 137/46/1 138/45/1 139/39/1 140/40/1
f 141/1/1 142/2/1 143/3/1 144/4/1
f 145/29/1 146/30/1 147/22/1 148/21/1
f 149/31/1 150/29/1 151/21/1 152/25/1
f 153/32/1 154/31/1 155/25/1 156/27/1
f 157/47/1 158/32/1 159/27/1 160/41/1
f 161/9/1 162/10/1 163/2/1 164/1/1
f 165/33/1 166/34/1 167/30/1 168/29/1
f 169/35/1 170/33/1 171/29/1 172/31/1
f 173/36/1 174/35/1 175/31/1 176/32/1
f 177/48/1 178/36/1 179/32/1 180/47/1
f 181/1/1 182/2/1 183/3/1 184/4/1
f 185/37/1 186/38/1 187/34/1 188/33/1
f 189/39/1 190/37/1 191/33/1 192/35/1
f 193/40/1 194/39/1 195/35/1 196/36/1
f 197/49/1 198/40/1 199/36/1 200/48/1
f 201/9/1 202/10/1 203/2/1 204/1/1
f 205/43/1 206/44/1 207/38/1 208/37/1
f 209/45/1 210/43/1 211/37/1 212/39/1
f 213/46/1 214/45/1 215/39/1 216/40/1
f 217/50/1 218/46/1 219/40/1 220/49/1
f 221/11/1 222/12/1 223/10/1 224/9/1

