# Tiled2Unity generated file. Do not modify by hand.
# Wavefront file for 'dungeon1_mesh_0104.obj'

# Vertices (Count = 12)
v -4 -9 0
v -5 -9 0
v -5 -8 0
v -4 -8 0
v -4 -10 0
v -5 -10 0
v -5 -9 0
v -4 -9 0
v -4 -11 0
v -5 -11 0
v -5 -10 0
v -4 -10 0

# Texture cooridinates (Count = 4)
vt 0.34375 0.8125
vt 0.375 0.8125
vt 0.375 0.84375
vt 0.34375 0.84375

# Normal
vn 0 0 -1

# Mesh description
g dungeon1_mesh_0104

# Faces
f 1/1/1 2/2/1 3/3/1 4/4/1
f 5/1/1 6/2/1 7/3/1 8/4/1
f 9/1/1 10/2/1 11/3/1 12/4/1

