# Tiled2Unity generated file. Do not modify by hand.
# Wavefront file for 'dungeon1_mesh_0113.obj'

# Vertices (Count = 388)
v -10 -1 0
v -11 -1 0
v -11 0 0
v -10 0 0
v -10 -2 0
v -11 -2 0
v -11 -1 0
v -10 -1 0
v -10 -3 0
v -11 -3 0
v -11 -2 0
v -10 -2 0
v -10 -4 0
v -11 -4 0
v -11 -3 0
v -10 -3 0
v -15 -5 0
v -16 -5 0
v -16 -4 0
v -15 -4 0
v -14 -5 0
v -15 -5 0
v -15 -4 0
v -14 -4 0
v -13 -5 0
v -14 -5 0
v -14 -4 0
v -13 -4 0
v -12 -5 0
v -13 -5 0
v -13 -4 0
v -12 -4 0
v -11 -5 0
v -12 -5 0
v -12 -4 0
v -11 -4 0
v -10 -5 0
v -11 -5 0
v -11 -4 0
v -10 -4 0
v -13 -9 0
v -14 -9 0
v -14 -8 0
v -13 -8 0
v -12 -9 0
v -13 -9 0
v -13 -8 0
v -12 -8 0
v -11 -9 0
v -12 -9 0
v -12 -8 0
v -11 -8 0
v -10 -9 0
v -11 -9 0
v -11 -8 0
v -10 -8 0
v -6 -9 0
v -7 -9 0
v -7 -8 0
v -6 -8 0
v -5 -9 0
v -6 -9 0
v -6 -8 0
v -5 -8 0
v 0 -9 0
v -1 -9 0
v -1 -8 0
v 0 -8 0
v -15 -10 0
v -16 -10 0
v -16 -9 0
v -15 -9 0
v -14 -10 0
v -15 -10 0
v -15 -9 0
v -14 -9 0
v -13 -10 0
v -14 -10 0
v -14 -9 0
v -13 -9 0
v -12 -10 0
v -13 -10 0
v -13 -9 0
v -12 -9 0
v -11 -10 0
v -12 -10 0
v -12 -9 0
v -11 -9 0
v -10 -10 0
v -11 -10 0
v -11 -9 0
v -10 -9 0
v -9 -10 0
v -10 -10 0
v -10 -9 0
v -9 -9 0
v -8 -10 0
v -9 -10 0
v -9 -9 0
v -8 -9 0
v -7 -10 0
v -8 -10 0
v -8 -9 0
v -7 -9 0
v -6 -10 0
v -7 -10 0
v -7 -9 0
v -6 -9 0
v -5 -10 0
v -6 -10 0
v -6 -9 0
v -5 -9 0
v -4 -10 0
v -5 -10 0
v -5 -9 0
v -4 -9 0
v -3 -10 0
v -4 -10 0
v -4 -9 0
v -3 -9 0
v -2 -10 0
v -3 -10 0
v -3 -9 0
v -2 -9 0
v -1 -10 0
v -2 -10 0
v -2 -9 0
v -1 -9 0
v 0 -10 0
v -1 -10 0
v -1 -9 0
v 0 -9 0
v -15 -11 0
v -16 -11 0
v -16 -10 0
v -15 -10 0
v -14 -11 0
v -15 -11 0
v -15 -10 0
v -14 -10 0
v -13 -11 0
v -14 -11 0
v -14 -10 0
v -13 -10 0
v -12 -11 0
v -13 -11 0
v -13 -10 0
v -12 -10 0
v -11 -11 0
v -12 -11 0
v -12 -10 0
v -11 -10 0
v -10 -11 0
v -11 -11 0
v -11 -10 0
v -10 -10 0
v -9 -11 0
v -10 -11 0
v -10 -10 0
v -9 -10 0
v -8 -11 0
v -9 -11 0
v -9 -10 0
v -8 -10 0
v -7 -11 0
v -8 -11 0
v -8 -10 0
v -7 -10 0
v -6 -11 0
v -7 -11 0
v -7 -10 0
v -6 -10 0
v -5 -11 0
v -6 -11 0
v -6 -10 0
v -5 -10 0
v -4 -11 0
v -5 -11 0
v -5 -10 0
v -4 -10 0
v -3 -11 0
v -4 -11 0
v -4 -10 0
v -3 -10 0
v -2 -11 0
v -3 -11 0
v -3 -10 0
v -2 -10 0
v -1 -11 0
v -2 -11 0
v -2 -10 0
v -1 -10 0
v 0 -11 0
v -1 -11 0
v -1 -10 0
v 0 -10 0
v -15 -12 0
v -16 -12 0
v -16 -11 0
v -15 -11 0
v -14 -12 0
v -15 -12 0
v -15 -11 0
v -14 -11 0
v -13 -12 0
v -14 -12 0
v -14 -11 0
v -13 -11 0
v -12 -12 0
v -13 -12 0
v -13 -11 0
v -12 -11 0
v -11 -12 0
v -12 -12 0
v -12 -11 0
v -11 -11 0
v -10 -12 0
v -11 -12 0
v -11 -11 0
v -10 -11 0
v -9 -12 0
v -10 -12 0
v -10 -11 0
v -9 -11 0
v -8 -12 0
v -9 -12 0
v -9 -11 0
v -8 -11 0
v -7 -12 0
v -8 -12 0
v -8 -11 0
v -7 -11 0
v -6 -12 0
v -7 -12 0
v -7 -11 0
v -6 -11 0
v -5 -12 0
v -6 -12 0
v -6 -11 0
v -5 -11 0
v -4 -12 0
v -5 -12 0
v -5 -11 0
v -4 -11 0
v -3 -12 0
v -4 -12 0
v -4 -11 0
v -3 -11 0
v -2 -12 0
v -3 -12 0
v -3 -11 0
v -2 -11 0
v -1 -12 0
v -2 -12 0
v -2 -11 0
v -1 -11 0
v 0 -12 0
v -1 -12 0
v -1 -11 0
v 0 -11 0
v -15 -13 0
v -16 -13 0
v -16 -12 0
v -15 -12 0
v -14 -13 0
v -15 -13 0
v -15 -12 0
v -14 -12 0
v -13 -13 0
v -14 -13 0
v -14 -12 0
v -13 -12 0
v -12 -13 0
v -13 -13 0
v -13 -12 0
v -12 -12 0
v -11 -13 0
v -12 -13 0
v -12 -12 0
v -11 -12 0
v -10 -13 0
v -11 -13 0
v -11 -12 0
v -10 -12 0
v -9 -13 0
v -10 -13 0
v -10 -12 0
v -9 -12 0
v -8 -13 0
v -9 -13 0
v -9 -12 0
v -8 -12 0
v -7 -13 0
v -8 -13 0
v -8 -12 0
v -7 -12 0
v -6 -13 0
v -7 -13 0
v -7 -12 0
v -6 -12 0
v -5 -13 0
v -6 -13 0
v -6 -12 0
v -5 -12 0
v -4 -13 0
v -5 -13 0
v -5 -12 0
v -4 -12 0
v -3 -13 0
v -4 -13 0
v -4 -12 0
v -3 -12 0
v -2 -13 0
v -3 -13 0
v -3 -12 0
v -2 -12 0
v -1 -13 0
v -2 -13 0
v -2 -12 0
v -1 -12 0
v 0 -13 0
v -1 -13 0
v -1 -12 0
v 0 -12 0
v -15 -14 0
v -16 -14 0
v -16 -13 0
v -15 -13 0
v -14 -14 0
v -15 -14 0
v -15 -13 0
v -14 -13 0
v -13 -14 0
v -14 -14 0
v -14 -13 0
v -13 -13 0
v -12 -14 0
v -13 -14 0
v -13 -13 0
v -12 -13 0
v -11 -14 0
v -12 -14 0
v -12 -13 0
v -11 -13 0
v -10 -14 0
v -11 -14 0
v -11 -13 0
v -10 -13 0
v -9 -14 0
v -10 -14 0
v -10 -13 0
v -9 -13 0
v -8 -14 0
v -9 -14 0
v -9 -13 0
v -8 -13 0
v -7 -14 0
v -8 -14 0
v -8 -13 0
v -7 -13 0
v -6 -14 0
v -7 -14 0
v -7 -13 0
v -6 -13 0
v -5 -14 0
v -6 -14 0
v -6 -13 0
v -5 -13 0
v -4 -14 0
v -5 -14 0
v -5 -13 0
v -4 -13 0
v -3 -14 0
v -4 -14 0
v -4 -13 0
v -3 -13 0
v -2 -14 0
v -3 -14 0
v -3 -13 0
v -2 -13 0
v -1 -14 0
v -2 -14 0
v -2 -13 0
v -1 -13 0
v 0 -14 0
v -1 -14 0
v -1 -13 0
v 0 -13 0

# Texture cooridinates (Count = 86)
vt 0.4054054 0.9130435
vt 0.4324324 0.9130435
vt 0.4324324 0.9347826
vt 0.4054054 0.9347826
vt 0.2162162 0.9782609
vt 0.2432432 0.9782609
vt 0.2432432 1
vt 0.2162162 1
vt 0.1891892 0.9782609
vt 0.1891892 1
vt 0.3783784 0.9782609
vt 0.4054054 0.9782609
vt 0.4054054 1
vt 0.3783784 1
vt 0.3243243 0.9782609
vt 0.3513514 0.9782609
vt 0.3513514 1
vt 0.3243243 1
vt 0.4864865 0.8478261
vt 0.5135135 0.8478261
vt 0.5135135 0.8695652
vt 0.4864865 0.8695652
vt 0.5675676 0.8478261
vt 0.5945946 0.8478261
vt 0.5945946 0.8695652
vt 0.5675676 0.8695652
vt 0.5405405 0.8478261
vt 0.5405405 0.8695652
vt 0.3783784 0.8260869
vt 0.4054054 0.8260869
vt 0.4054054 0.8478261
vt 0.3783784 0.8478261
vt 0.3513514 0.8260869
vt 0.3513514 0.8478261
vt 0.4864865 0.8260869
vt 0.5135135 0.8260869
vt 0.5675676 0.8260869
vt 0.5945946 0.8260869
vt 0.5405405 0.8260869
vt 0.6216216 0.9782609
vt 0.6486486 0.9782609
vt 0.6486486 1
vt 0.6216216 1
vt 0.3783784 0.8043478
vt 0.4054054 0.8043478
vt 0.3513514 0.8043478
vt 0.4864865 0.8043478
vt 0.5135135 0.8043478
vt 0.5675676 0.8043478
vt 0.5945946 0.8043478
vt 0.5405405 0.8043478
vt 0.6216216 0.9565217
vt 0.6486486 0.9565217
vt 0.3783784 0.7826087
vt 0.4054054 0.7826087
vt 0.3513514 0.7826087
vt 0.4864865 0.7826087
vt 0.5135135 0.7826087
vt 0.5675676 0.7826087
vt 0.5945946 0.7826087
vt 0.5405405 0.7826087
vt 0.6216216 0.9347826
vt 0.6486486 0.9347826
vt 0.3783784 0.7608696
vt 0.4054054 0.7608696
vt 0.3513514 0.7608696
vt 0.4864865 0.7608696
vt 0.5135135 0.7608696
vt 0.5675676 0.7608696
vt 0.5945946 0.7608696
vt 0.5405405 0.7608696
vt 0.6216216 0.9130435
vt 0.6486486 0.9130435
vt 0.3783784 0.7391304
vt 0.4054054 0.7391304
vt 0.3513514 0.7391304
vt 0.4864865 0.7391304
vt 0.5135135 0.7391304
vt 0.3243243 0.7391304
vt 0.3243243 0.7608696
vt 0.2972973 0.7391304
vt 0.2972973 0.7608696
vt 0.2702703 0.7391304
vt 0.2702703 0.7608696
vt 0.2432432 0.7391304
vt 0.2432432 0.7608696

# Normal
vn 0 0 -1

# Mesh description
g dungeon1_mesh_0113

# Faces
f 1/1/1 2/2/1 3/3/1 4/4/1
f 5/1/1 6/2/1 7/3/1 8/4/1
f 9/1/1 10/2/1 11/3/1 12/4/1
f 13/1/1 14/2/1 15/3/1 16/4/1
f 17/5/1 18/6/1 19/7/1 20/8/1
f 21/5/1 22/6/1 23/7/1 24/8/1
f 25/5/1 26/6/1 27/7/1 28/8/1
f 29/9/1 30/5/1 31/8/1 32/10/1
f 33/11/1 34/12/1 35/13/1 36/14/1
f 37/15/1 38/16/1 39/17/1 40/18/1
f 41/19/1 42/20/1 43/21/1 44/22/1
f 45/23/1 46/24/1 47/25/1 48/26/1
f 49/27/1 50/23/1 51/26/1 52/28/1
f 53/19/1 54/20/1 55/21/1 56/22/1
f 57/23/1 58/24/1 59/25/1 60/26/1
f 61/27/1 62/23/1 63/26/1 64/28/1
f 65/23/1 66/24/1 67/25/1 68/26/1
f 69/29/1 70/30/1 71/31/1 72/32/1
f 73/33/1 74/29/1 75/32/1 76/34/1
f 77/35/1 78/36/1 79/20/1 80/19/1
f 81/37/1 82/38/1 83/24/1 84/23/1
f 85/39/1 86/37/1 87/23/1 88/27/1
f 89/35/1 90/36/1 91/20/1 92/19/1
f 93/29/1 94/30/1 95/31/1 96/32/1
f 97/33/1 98/29/1 99/32/1 100/34/1
f 101/40/1 102/41/1 103/42/1 104/43/1
f 105/37/1 106/38/1 107/24/1 108/23/1
f 109/39/1 110/37/1 111/23/1 112/27/1
f 113/40/1 114/41/1 115/42/1 116/43/1
f 117/29/1 118/30/1 119/31/1 120/32/1
f 121/33/1 122/29/1 123/32/1 124/34/1
f 125/40/1 126/41/1 127/42/1 128/43/1
f 129/37/1 130/38/1 131/24/1 132/23/1
f 133/44/1 134/45/1 135/30/1 136/29/1
f 137/46/1 138/44/1 139/29/1 140/33/1
f 141/47/1 142/48/1 143/36/1 144/35/1
f 145/49/1 146/50/1 147/38/1 148/37/1
f 149/51/1 150/49/1 151/37/1 152/39/1
f 153/47/1 154/48/1 155/36/1 156/35/1
f 157/44/1 158/45/1 159/30/1 160/29/1
f 161/46/1 162/44/1 163/29/1 164/33/1
f 165/52/1 166/53/1 167/41/1 168/40/1
f 169/49/1 170/50/1 171/38/1 172/37/1
f 173/51/1 174/49/1 175/37/1 176/39/1
f 177/52/1 178/53/1 179/41/1 180/40/1
f 181/44/1 182/45/1 183/30/1 184/29/1
f 185/46/1 186/44/1 187/29/1 188/33/1
f 189/52/1 190/53/1 191/41/1 192/40/1
f 193/49/1 194/50/1 195/38/1 196/37/1
f 197/54/1 198/55/1 199/45/1 200/44/1
f 201/56/1 202/54/1 203/44/1 204/46/1
f 205/57/1 206/58/1 207/48/1 208/47/1
f 209/59/1 210/60/1 211/50/1 212/49/1
f 213/61/1 214/59/1 215/49/1 216/51/1
f 217/57/1 218/58/1 219/48/1 220/47/1
f 221/54/1 222/55/1 223/45/1 224/44/1
f 225/56/1 226/54/1 227/44/1 228/46/1
f 229/62/1 230/63/1 231/53/1 232/52/1
f 233/59/1 234/60/1 235/50/1 236/49/1
f 237/61/1 238/59/1 239/49/1 240/51/1
f 241/62/1 242/63/1 243/53/1 244/52/1
f 245/54/1 246/55/1 247/45/1 248/44/1
f 249/56/1 250/54/1 251/44/1 252/46/1
f 253/62/1 254/63/1 255/53/1 256/52/1
f 257/59/1 258/60/1 259/50/1 260/49/1
f 261/64/1 262/65/1 263/55/1 264/54/1
f 265/66/1 266/64/1 267/54/1 268/56/1
f 269/67/1 270/68/1 271/58/1 272/57/1
f 273/69/1 274/70/1 275/60/1 276/59/1
f 277/71/1 278/69/1 279/59/1 280/61/1
f 281/67/1 282/68/1 283/58/1 284/57/1
f 285/64/1 286/65/1 287/55/1 288/54/1
f 289/66/1 290/64/1 291/54/1 292/56/1
f 293/72/1 294/73/1 295/63/1 296/62/1
f 297/69/1 298/70/1 299/60/1 300/59/1
f 301/71/1 302/69/1 303/59/1 304/61/1
f 305/72/1 306/73/1 307/63/1 308/62/1
f 309/64/1 310/65/1 311/55/1 312/54/1
f 313/66/1 314/64/1 315/54/1 316/56/1
f 317/72/1 318/73/1 319/63/1 320/62/1
f 321/69/1 322/70/1 323/60/1 324/59/1
f 325/74/1 326/75/1 327/65/1 328/64/1
f 329/76/1 330/74/1 331/64/1 332/66/1
f 333/77/1 334/78/1 335/68/1 336/67/1
f 337/74/1 338/75/1 339/65/1 340/64/1
f 341/76/1 342/74/1 343/64/1 344/66/1
f 345/77/1 346/78/1 347/68/1 348/67/1
f 349/74/1 350/75/1 351/65/1 352/64/1
f 353/76/1 354/74/1 355/64/1 356/66/1
f 357/79/1 358/76/1 359/66/1 360/80/1
f 361/81/1 362/79/1 363/80/1 364/82/1
f 365/83/1 366/81/1 367/82/1 368/84/1
f 369/85/1 370/83/1 371/84/1 372/86/1
f 373/74/1 374/75/1 375/65/1 376/64/1
f 377/76/1 378/74/1 379/64/1 380/66/1
f 381/79/1 382/76/1 383/66/1 384/80/1
f 385/81/1 386/79/1 387/80/1 388/82/1

