# Tiled2Unity generated file. Do not modify by hand.
# Wavefront file for 'dungeon1_mesh_0072.obj'

# Vertices (Count = 640)
v -15 -1 0
v -16 -1 0
v -16 0 0
v -15 0 0
v -14 -1 0
v -15 -1 0
v -15 0 0
v -14 0 0
v -13 -1 0
v -14 -1 0
v -14 0 0
v -13 0 0
v -12 -1 0
v -13 -1 0
v -13 0 0
v -12 0 0
v -11 -1 0
v -12 -1 0
v -12 0 0
v -11 0 0
v -10 -1 0
v -11 -1 0
v -11 0 0
v -10 0 0
v -9 -1 0
v -10 -1 0
v -10 0 0
v -9 0 0
v -8 -1 0
v -9 -1 0
v -9 0 0
v -8 0 0
v -7 -1 0
v -8 -1 0
v -8 0 0
v -7 0 0
v -6 -1 0
v -7 -1 0
v -7 0 0
v -6 0 0
v -15 -2 0
v -16 -2 0
v -16 -1 0
v -15 -1 0
v -14 -2 0
v -15 -2 0
v -15 -1 0
v -14 -1 0
v -13 -2 0
v -14 -2 0
v -14 -1 0
v -13 -1 0
v -12 -2 0
v -13 -2 0
v -13 -1 0
v -12 -1 0
v -11 -2 0
v -12 -2 0
v -12 -1 0
v -11 -1 0
v -10 -2 0
v -11 -2 0
v -11 -1 0
v -10 -1 0
v -9 -2 0
v -10 -2 0
v -10 -1 0
v -9 -1 0
v -8 -2 0
v -9 -2 0
v -9 -1 0
v -8 -1 0
v -7 -2 0
v -8 -2 0
v -8 -1 0
v -7 -1 0
v -6 -2 0
v -7 -2 0
v -7 -1 0
v -6 -1 0
v -15 -3 0
v -16 -3 0
v -16 -2 0
v -15 -2 0
v -14 -3 0
v -15 -3 0
v -15 -2 0
v -14 -2 0
v -13 -3 0
v -14 -3 0
v -14 -2 0
v -13 -2 0
v -12 -3 0
v -13 -3 0
v -13 -2 0
v -12 -2 0
v -11 -3 0
v -12 -3 0
v -12 -2 0
v -11 -2 0
v -10 -3 0
v -11 -3 0
v -11 -2 0
v -10 -2 0
v -9 -3 0
v -10 -3 0
v -10 -2 0
v -9 -2 0
v -8 -3 0
v -9 -3 0
v -9 -2 0
v -8 -2 0
v -7 -3 0
v -8 -3 0
v -8 -2 0
v -7 -2 0
v -6 -3 0
v -7 -3 0
v -7 -2 0
v -6 -2 0
v -15 -4 0
v -16 -4 0
v -16 -3 0
v -15 -3 0
v -14 -4 0
v -15 -4 0
v -15 -3 0
v -14 -3 0
v -13 -4 0
v -14 -4 0
v -14 -3 0
v -13 -3 0
v -12 -4 0
v -13 -4 0
v -13 -3 0
v -12 -3 0
v -11 -4 0
v -12 -4 0
v -12 -3 0
v -11 -3 0
v -10 -4 0
v -11 -4 0
v -11 -3 0
v -10 -3 0
v -9 -4 0
v -10 -4 0
v -10 -3 0
v -9 -3 0
v -8 -4 0
v -9 -4 0
v -9 -3 0
v -8 -3 0
v -7 -4 0
v -8 -4 0
v -8 -3 0
v -7 -3 0
v -6 -4 0
v -7 -4 0
v -7 -3 0
v -6 -3 0
v -15 -5 0
v -16 -5 0
v -16 -4 0
v -15 -4 0
v -14 -5 0
v -15 -5 0
v -15 -4 0
v -14 -4 0
v -13 -5 0
v -14 -5 0
v -14 -4 0
v -13 -4 0
v -12 -5 0
v -13 -5 0
v -13 -4 0
v -12 -4 0
v -11 -5 0
v -12 -5 0
v -12 -4 0
v -11 -4 0
v -10 -5 0
v -11 -5 0
v -11 -4 0
v -10 -4 0
v -9 -5 0
v -10 -5 0
v -10 -4 0
v -9 -4 0
v -8 -5 0
v -9 -5 0
v -9 -4 0
v -8 -4 0
v -7 -5 0
v -8 -5 0
v -8 -4 0
v -7 -4 0
v -6 -5 0
v -7 -5 0
v -7 -4 0
v -6 -4 0
v -15 -6 0
v -16 -6 0
v -16 -5 0
v -15 -5 0
v -14 -6 0
v -15 -6 0
v -15 -5 0
v -14 -5 0
v -13 -6 0
v -14 -6 0
v -14 -5 0
v -13 -5 0
v -12 -6 0
v -13 -6 0
v -13 -5 0
v -12 -5 0
v -11 -6 0
v -12 -6 0
v -12 -5 0
v -11 -5 0
v -10 -6 0
v -11 -6 0
v -11 -5 0
v -10 -5 0
v -9 -6 0
v -10 -6 0
v -10 -5 0
v -9 -5 0
v -8 -6 0
v -9 -6 0
v -9 -5 0
v -8 -5 0
v -7 -6 0
v -8 -6 0
v -8 -5 0
v -7 -5 0
v -6 -6 0
v -7 -6 0
v -7 -5 0
v -6 -5 0
v -15 -7 0
v -16 -7 0
v -16 -6 0
v -15 -6 0
v -14 -7 0
v -15 -7 0
v -15 -6 0
v -14 -6 0
v -13 -7 0
v -14 -7 0
v -14 -6 0
v -13 -6 0
v -12 -7 0
v -13 -7 0
v -13 -6 0
v -12 -6 0
v -11 -7 0
v -12 -7 0
v -12 -6 0
v -11 -6 0
v -10 -7 0
v -11 -7 0
v -11 -6 0
v -10 -6 0
v -9 -7 0
v -10 -7 0
v -10 -6 0
v -9 -6 0
v -8 -7 0
v -9 -7 0
v -9 -6 0
v -8 -6 0
v -7 -7 0
v -8 -7 0
v -8 -6 0
v -7 -6 0
v -6 -7 0
v -7 -7 0
v -7 -6 0
v -6 -6 0
v -15 -8 0
v -16 -8 0
v -16 -7 0
v -15 -7 0
v -14 -8 0
v -15 -8 0
v -15 -7 0
v -14 -7 0
v -13 -8 0
v -14 -8 0
v -14 -7 0
v -13 -7 0
v -12 -8 0
v -13 -8 0
v -13 -7 0
v -12 -7 0
v -11 -8 0
v -12 -8 0
v -12 -7 0
v -11 -7 0
v -10 -8 0
v -11 -8 0
v -11 -7 0
v -10 -7 0
v -9 -8 0
v -10 -8 0
v -10 -7 0
v -9 -7 0
v -8 -8 0
v -9 -8 0
v -9 -7 0
v -8 -7 0
v -7 -8 0
v -8 -8 0
v -8 -7 0
v -7 -7 0
v -6 -8 0
v -7 -8 0
v -7 -7 0
v -6 -7 0
v -15 -9 0
v -16 -9 0
v -16 -8 0
v -15 -8 0
v -14 -9 0
v -15 -9 0
v -15 -8 0
v -14 -8 0
v -13 -9 0
v -14 -9 0
v -14 -8 0
v -13 -8 0
v -12 -9 0
v -13 -9 0
v -13 -8 0
v -12 -8 0
v -11 -9 0
v -12 -9 0
v -12 -8 0
v -11 -8 0
v -10 -9 0
v -11 -9 0
v -11 -8 0
v -10 -8 0
v -9 -9 0
v -10 -9 0
v -10 -8 0
v -9 -8 0
v -8 -9 0
v -9 -9 0
v -9 -8 0
v -8 -8 0
v -7 -9 0
v -8 -9 0
v -8 -8 0
v -7 -8 0
v -6 -9 0
v -7 -9 0
v -7 -8 0
v -6 -8 0
v -15 -10 0
v -16 -10 0
v -16 -9 0
v -15 -9 0
v -14 -10 0
v -15 -10 0
v -15 -9 0
v -14 -9 0
v -13 -10 0
v -14 -10 0
v -14 -9 0
v -13 -9 0
v -12 -10 0
v -13 -10 0
v -13 -9 0
v -12 -9 0
v -11 -10 0
v -12 -10 0
v -12 -9 0
v -11 -9 0
v -10 -10 0
v -11 -10 0
v -11 -9 0
v -10 -9 0
v -9 -10 0
v -10 -10 0
v -10 -9 0
v -9 -9 0
v -8 -10 0
v -9 -10 0
v -9 -9 0
v -8 -9 0
v -7 -10 0
v -8 -10 0
v -8 -9 0
v -7 -9 0
v -6 -10 0
v -7 -10 0
v -7 -9 0
v -6 -9 0
v -15 -11 0
v -16 -11 0
v -16 -10 0
v -15 -10 0
v -14 -11 0
v -15 -11 0
v -15 -10 0
v -14 -10 0
v -13 -11 0
v -14 -11 0
v -14 -10 0
v -13 -10 0
v -12 -11 0
v -13 -11 0
v -13 -10 0
v -12 -10 0
v -11 -11 0
v -12 -11 0
v -12 -10 0
v -11 -10 0
v -10 -11 0
v -11 -11 0
v -11 -10 0
v -10 -10 0
v -9 -11 0
v -10 -11 0
v -10 -10 0
v -9 -10 0
v -8 -11 0
v -9 -11 0
v -9 -10 0
v -8 -10 0
v -7 -11 0
v -8 -11 0
v -8 -10 0
v -7 -10 0
v -6 -11 0
v -7 -11 0
v -7 -10 0
v -6 -10 0
v -15 -12 0
v -16 -12 0
v -16 -11 0
v -15 -11 0
v -14 -12 0
v -15 -12 0
v -15 -11 0
v -14 -11 0
v -13 -12 0
v -14 -12 0
v -14 -11 0
v -13 -11 0
v -12 -12 0
v -13 -12 0
v -13 -11 0
v -12 -11 0
v -11 -12 0
v -12 -12 0
v -12 -11 0
v -11 -11 0
v -10 -12 0
v -11 -12 0
v -11 -11 0
v -10 -11 0
v -9 -12 0
v -10 -12 0
v -10 -11 0
v -9 -11 0
v -8 -12 0
v -9 -12 0
v -9 -11 0
v -8 -11 0
v -7 -12 0
v -8 -12 0
v -8 -11 0
v -7 -11 0
v -6 -12 0
v -7 -12 0
v -7 -11 0
v -6 -11 0
v -15 -13 0
v -16 -13 0
v -16 -12 0
v -15 -12 0
v -14 -13 0
v -15 -13 0
v -15 -12 0
v -14 -12 0
v -13 -13 0
v -14 -13 0
v -14 -12 0
v -13 -12 0
v -12 -13 0
v -13 -13 0
v -13 -12 0
v -12 -12 0
v -11 -13 0
v -12 -13 0
v -12 -12 0
v -11 -12 0
v -10 -13 0
v -11 -13 0
v -11 -12 0
v -10 -12 0
v -9 -13 0
v -10 -13 0
v -10 -12 0
v -9 -12 0
v -8 -13 0
v -9 -13 0
v -9 -12 0
v -8 -12 0
v -7 -13 0
v -8 -13 0
v -8 -12 0
v -7 -12 0
v -6 -13 0
v -7 -13 0
v -7 -12 0
v -6 -12 0
v -15 -14 0
v -16 -14 0
v -16 -13 0
v -15 -13 0
v -14 -14 0
v -15 -14 0
v -15 -13 0
v -14 -13 0
v -13 -14 0
v -14 -14 0
v -14 -13 0
v -13 -13 0
v -12 -14 0
v -13 -14 0
v -13 -13 0
v -12 -13 0
v -11 -14 0
v -12 -14 0
v -12 -13 0
v -11 -13 0
v -10 -14 0
v -11 -14 0
v -11 -13 0
v -10 -13 0
v -9 -14 0
v -10 -14 0
v -10 -13 0
v -9 -13 0
v -8 -14 0
v -9 -14 0
v -9 -13 0
v -8 -13 0
v -7 -14 0
v -8 -14 0
v -8 -13 0
v -7 -13 0
v -6 -14 0
v -7 -14 0
v -7 -13 0
v -6 -13 0
v -15 -15 0
v -16 -15 0
v -16 -14 0
v -15 -14 0
v -14 -15 0
v -15 -15 0
v -15 -14 0
v -14 -14 0
v -13 -15 0
v -14 -15 0
v -14 -14 0
v -13 -14 0
v -12 -15 0
v -13 -15 0
v -13 -14 0
v -12 -14 0
v -11 -15 0
v -12 -15 0
v -12 -14 0
v -11 -14 0
v -10 -15 0
v -11 -15 0
v -11 -14 0
v -10 -14 0
v -9 -15 0
v -10 -15 0
v -10 -14 0
v -9 -14 0
v -8 -15 0
v -9 -15 0
v -9 -14 0
v -8 -14 0
v -7 -15 0
v -8 -15 0
v -8 -14 0
v -7 -14 0
v -6 -15 0
v -7 -15 0
v -7 -14 0
v -6 -14 0
v -15 -16 0
v -16 -16 0
v -16 -15 0
v -15 -15 0
v -14 -16 0
v -15 -16 0
v -15 -15 0
v -14 -15 0
v -13 -16 0
v -14 -16 0
v -14 -15 0
v -13 -15 0
v -12 -16 0
v -13 -16 0
v -13 -15 0
v -12 -15 0
v -11 -16 0
v -12 -16 0
v -12 -15 0
v -11 -15 0
v -10 -16 0
v -11 -16 0
v -11 -15 0
v -10 -15 0
v -9 -16 0
v -10 -16 0
v -10 -15 0
v -9 -15 0
v -8 -16 0
v -9 -16 0
v -9 -15 0
v -8 -15 0
v -7 -16 0
v -8 -16 0
v -8 -15 0
v -7 -15 0
v -6 -16 0
v -7 -16 0
v -7 -15 0
v -6 -15 0

# Texture cooridinates (Count = 43)
vt 0.08108108 0.3478261
vt 0.1081081 0.3478261
vt 0.1081081 0.3695652
vt 0.08108108 0.3695652
vt 0.08108108 0.2826087
vt 0.1081081 0.2826087
vt 0.1081081 0.3043478
vt 0.08108108 0.3043478
vt 0.1081081 0.3260869
vt 0.08108108 0.3260869
vt 0.1351351 0.3043478
vt 0.1351351 0.3260869
vt 0.02702703 0.3260869
vt 0.05405406 0.3260869
vt 0.05405406 0.3478261
vt 0.02702703 0.3478261
vt 0.1621622 0.3478261
vt 0.1891892 0.3478261
vt 0.1891892 0.3695652
vt 0.1621622 0.3695652
vt 0 0.3043478
vt 0.02702703 0.3043478
vt 0 0.3260869
vt 0.1351351 0.3478261
vt 0.1351351 0.3695652
vt 0.1891892 0.3913044
vt 0.1621622 0.3913044
vt 0 0.3478261
vt 0.02702703 0.3695652
vt 0 0.3695652
vt 0.05405406 0.3043478
vt 0.05405406 0.2826087
vt 0.1351351 0.2826087
vt 0.1891892 0.4130435
vt 0.1621622 0.4130435
vt 0.2162162 0.3695652
vt 0.2162162 0.3913044
vt 0.2162162 0.3478261
vt 0.2162162 0.4130435
vt 0 0.2391304
vt 0.02702703 0.2391304
vt 0.02702703 0.2608696
vt 0 0.2608696

# Normal
vn 0 0 -1

# Mesh description
g dungeon1_mesh_0072

# Faces
f 1/1/1 2/2/1 3/3/1 4/4/1
f 5/5/1 6/6/1 7/7/1 8/8/1
f 9/8/1 10/7/1 11/9/1 12/10/1
f 13/10/1 14/9/1 15/2/1 16/1/1
f 17/7/1 18/11/1 19/12/1 20/9/1
f 21/8/1 22/7/1 23/9/1 24/10/1
f 25/10/1 26/9/1 27/2/1 28/1/1
f 29/13/1 30/14/1 31/15/1 32/16/1
f 33/17/1 34/18/1 35/19/1 36/20/1
f 37/21/1 38/22/1 39/13/1 40/23/1
f 41/2/1 42/24/1 43/25/1 44/3/1
f 45/1/1 46/2/1 47/3/1 48/4/1
f 49/5/1 50/6/1 51/7/1 52/8/1
f 53/8/1 54/7/1 55/9/1 56/10/1
f 57/1/1 58/2/1 59/3/1 60/4/1
f 61/8/1 62/7/1 63/9/1 64/10/1
f 65/8/1 66/7/1 67/9/1 68/10/1
f 69/13/1 70/14/1 71/15/1 72/16/1
f 73/20/1 74/19/1 75/26/1 76/27/1
f 77/28/1 78/16/1 79/29/1 80/30/1
f 81/2/1 82/24/1 83/25/1 84/3/1
f 85/1/1 86/2/1 87/3/1 88/4/1
f 89/5/1 90/6/1 91/7/1 92/8/1
f 93/5/1 94/6/1 95/7/1 96/8/1
f 97/10/1 98/9/1 99/2/1 100/1/1
f 101/7/1 102/11/1 103/12/1 104/9/1
f 105/8/1 106/7/1 107/9/1 108/10/1
f 109/13/1 110/14/1 111/15/1 112/16/1
f 113/17/1 114/18/1 115/19/1 116/20/1
f 117/23/1 118/13/1 119/16/1 120/28/1
f 121/1/1 122/2/1 123/3/1 124/4/1
f 125/2/1 126/24/1 127/25/1 128/3/1
f 129/1/1 130/2/1 131/3/1 132/4/1
f 133/5/1 134/6/1 135/7/1 136/8/1
f 137/8/1 138/7/1 139/9/1 140/10/1
f 141/7/1 142/11/1 143/12/1 144/9/1
f 145/8/1 146/7/1 147/9/1 148/10/1
f 149/13/1 150/14/1 151/15/1 152/16/1
f 153/20/1 154/19/1 155/26/1 156/27/1
f 157/21/1 158/22/1 159/13/1 160/23/1
f 161/10/1 162/9/1 163/2/1 164/1/1
f 165/1/1 166/2/1 167/3/1 168/4/1
f 169/1/1 170/2/1 171/3/1 172/4/1
f 173/5/1 174/6/1 175/7/1 176/8/1
f 177/5/1 178/6/1 179/7/1 180/8/1
f 181/10/1 182/9/1 183/2/1 184/1/1
f 185/8/1 186/7/1 187/9/1 188/10/1
f 189/13/1 190/14/1 191/15/1 192/16/1
f 193/17/1 194/18/1 195/19/1 196/20/1
f 197/28/1 198/16/1 199/29/1 200/30/1
f 201/8/1 202/7/1 203/9/1 204/10/1
f 205/10/1 206/9/1 207/2/1 208/1/1
f 209/1/1 210/2/1 211/3/1 212/4/1
f 213/1/1 214/2/1 215/3/1 216/4/1
f 217/5/1 218/6/1 219/7/1 220/8/1
f 221/10/1 222/9/1 223/2/1 224/1/1
f 225/8/1 226/7/1 227/9/1 228/10/1
f 229/13/1 230/14/1 231/15/1 232/16/1
f 233/20/1 234/19/1 235/26/1 236/27/1
f 237/23/1 238/13/1 239/16/1 240/28/1
f 241/5/1 242/6/1 243/7/1 244/8/1
f 245/8/1 246/7/1 247/9/1 248/10/1
f 249/10/1 250/9/1 251/2/1 252/1/1
f 253/1/1 254/2/1 255/3/1 256/4/1
f 257/5/1 258/6/1 259/7/1 260/8/1
f 261/10/1 262/9/1 263/2/1 264/1/1
f 265/8/1 266/7/1 267/9/1 268/10/1
f 269/22/1 270/31/1 271/14/1 272/13/1
f 273/17/1 274/18/1 275/19/1 276/20/1
f 277/21/1 278/22/1 279/13/1 280/23/1
f 281/5/1 282/6/1 283/7/1 284/8/1
f 285/5/1 286/6/1 287/7/1 288/8/1
f 289/8/1 290/7/1 291/9/1 292/10/1
f 293/10/1 294/9/1 295/2/1 296/1/1
f 297/5/1 298/6/1 299/7/1 300/8/1
f 301/8/1 302/7/1 303/9/1 304/10/1
f 305/32/1 306/5/1 307/8/1 308/31/1
f 309/20/1 310/19/1 311/26/1 312/27/1
f 313/20/1 314/19/1 315/26/1 316/27/1
f 317/23/1 318/13/1 319/16/1 320/28/1
f 321/6/1 322/33/1 323/11/1 324/7/1
f 325/5/1 326/6/1 327/7/1 328/8/1
f 329/5/1 330/6/1 331/7/1 332/8/1
f 333/8/1 334/7/1 335/9/1 336/10/1
f 337/8/1 338/7/1 339/9/1 340/10/1
f 341/8/1 342/7/1 343/9/1 344/10/1
f 345/20/1 346/19/1 347/26/1 348/27/1
f 349/27/1 350/26/1 351/34/1 352/35/1
f 353/17/1 354/18/1 355/19/1 356/20/1
f 357/28/1 358/16/1 359/29/1 360/30/1
f 361/5/1 362/6/1 363/7/1 364/8/1
f 365/6/1 366/33/1 367/11/1 368/7/1
f 369/5/1 370/6/1 371/7/1 372/8/1
f 373/5/1 374/6/1 375/7/1 376/8/1
f 377/7/1 378/11/1 379/12/1 380/9/1
f 381/32/1 382/5/1 383/8/1 384/31/1
f 385/20/1 386/19/1 387/26/1 388/27/1
f 389/19/1 390/36/1 391/37/1 392/26/1
f 393/20/1 394/19/1 395/26/1 396/27/1
f 397/23/1 398/13/1 399/16/1 400/28/1
f 401/5/1 402/6/1 403/7/1 404/8/1
f 405/6/1 406/33/1 407/11/1 408/7/1
f 409/5/1 410/6/1 411/7/1 412/8/1
f 413/7/1 414/11/1 415/12/1 416/9/1
f 417/8/1 418/7/1 419/9/1 420/10/1
f 421/20/1 422/19/1 423/26/1 424/27/1
f 425/17/1 426/18/1 427/19/1 428/20/1
f 429/18/1 430/38/1 431/36/1 432/19/1
f 433/17/1 434/18/1 435/19/1 436/20/1
f 437/21/1 438/22/1 439/13/1 440/23/1
f 441/5/1 442/6/1 443/7/1 444/8/1
f 445/10/1 446/9/1 447/2/1 448/1/1
f 449/7/1 450/11/1 451/12/1 452/9/1
f 453/7/1 454/11/1 455/12/1 456/9/1
f 457/8/1 458/7/1 459/9/1 460/10/1
f 461/20/1 462/19/1 463/26/1 464/27/1
f 465/20/1 466/19/1 467/26/1 468/27/1
f 469/19/1 470/36/1 471/37/1 472/26/1
f 473/26/1 474/37/1 475/39/1 476/34/1
f 477/23/1 478/13/1 479/16/1 480/28/1
f 481/10/1 482/9/1 483/2/1 484/1/1
f 485/9/1 486/12/1 487/24/1 488/2/1
f 489/7/1 490/11/1 491/12/1 492/9/1
f 493/8/1 494/7/1 495/9/1 496/10/1
f 497/32/1 498/5/1 499/8/1 500/31/1
f 501/20/1 502/19/1 503/26/1 504/27/1
f 505/17/1 506/18/1 507/19/1 508/20/1
f 509/18/1 510/38/1 511/36/1 512/19/1
f 513/17/1 514/18/1 515/19/1 516/20/1
f 517/21/1 518/22/1 519/13/1 520/23/1
f 521/9/1 522/12/1 523/24/1 524/2/1
f 525/7/1 526/11/1 527/12/1 528/9/1
f 529/7/1 530/11/1 531/12/1 532/9/1
f 533/8/1 534/7/1 535/9/1 536/10/1
f 537/20/1 538/19/1 539/26/1 540/27/1
f 541/19/1 542/36/1 543/37/1 544/26/1
f 545/20/1 546/19/1 547/26/1 548/27/1
f 549/19/1 550/36/1 551/37/1 552/26/1
f 553/20/1 554/19/1 555/26/1 556/27/1
f 557/28/1 558/16/1 559/29/1 560/30/1
f 561/10/1 562/9/1 563/2/1 564/1/1
f 565/7/1 566/11/1 567/12/1 568/9/1
f 569/32/1 570/5/1 571/8/1 572/31/1
f 573/20/1 574/19/1 575/26/1 576/27/1
f 577/20/1 578/19/1 579/26/1 580/27/1
f 581/18/1 582/38/1 583/36/1 584/19/1
f 585/17/1 586/18/1 587/19/1 588/20/1
f 589/40/1 590/41/1 591/42/1 592/43/1
f 593/17/1 594/18/1 595/19/1 596/20/1
f 597/23/1 598/13/1 599/16/1 600/28/1
f 601/8/1 602/7/1 603/9/1 604/10/1
f 605/32/1 606/5/1 607/8/1 608/31/1
f 609/20/1 610/19/1 611/26/1 612/27/1
f 613/27/1 614/26/1 615/34/1 616/35/1
f 617/20/1 618/19/1 619/26/1 620/27/1
f 621/19/1 622/36/1 623/37/1 624/26/1
f 625/20/1 626/19/1 627/26/1 628/27/1
f 629/19/1 630/36/1 631/37/1 632/26/1
f 633/20/1 634/19/1 635/26/1 636/27/1
f 637/21/1 638/22/1 639/13/1 640/23/1

