# Tiled2Unity generated file. Do not modify by hand.
# Wavefront file for 'dungeon1_mesh_0019.obj'

# Vertices (Count = 324)
v -15 -8 0
v -16 -8 0
v -16 -7 0
v -15 -7 0
v -14 -8 0
v -15 -8 0
v -15 -7 0
v -14 -7 0
v -13 -8 0
v -14 -8 0
v -14 -7 0
v -13 -7 0
v -5 -8 0
v -6 -8 0
v -6 -7 0
v -5 -7 0
v -4 -8 0
v -5 -8 0
v -5 -7 0
v -4 -7 0
v -3 -8 0
v -4 -8 0
v -4 -7 0
v -3 -7 0
v -2 -8 0
v -3 -8 0
v -3 -7 0
v -2 -7 0
v -1 -8 0
v -2 -8 0
v -2 -7 0
v -1 -7 0
v 0 -8 0
v -1 -8 0
v -1 -7 0
v 0 -7 0
v -15 -9 0
v -16 -9 0
v -16 -8 0
v -15 -8 0
v -14 -9 0
v -15 -9 0
v -15 -8 0
v -14 -8 0
v -13 -9 0
v -14 -9 0
v -14 -8 0
v -13 -8 0
v -5 -9 0
v -6 -9 0
v -6 -8 0
v -5 -8 0
v -4 -9 0
v -5 -9 0
v -5 -8 0
v -4 -8 0
v -3 -9 0
v -4 -9 0
v -4 -8 0
v -3 -8 0
v -2 -9 0
v -3 -9 0
v -3 -8 0
v -2 -8 0
v -1 -9 0
v -2 -9 0
v -2 -8 0
v -1 -8 0
v 0 -9 0
v -1 -9 0
v -1 -8 0
v 0 -8 0
v -15 -10 0
v -16 -10 0
v -16 -9 0
v -15 -9 0
v -14 -10 0
v -15 -10 0
v -15 -9 0
v -14 -9 0
v -13 -10 0
v -14 -10 0
v -14 -9 0
v -13 -9 0
v -5 -10 0
v -6 -10 0
v -6 -9 0
v -5 -9 0
v -4 -10 0
v -5 -10 0
v -5 -9 0
v -4 -9 0
v -3 -10 0
v -4 -10 0
v -4 -9 0
v -3 -9 0
v -2 -10 0
v -3 -10 0
v -3 -9 0
v -2 -9 0
v -1 -10 0
v -2 -10 0
v -2 -9 0
v -1 -9 0
v 0 -10 0
v -1 -10 0
v -1 -9 0
v 0 -9 0
v -15 -11 0
v -16 -11 0
v -16 -10 0
v -15 -10 0
v -14 -11 0
v -15 -11 0
v -15 -10 0
v -14 -10 0
v -13 -11 0
v -14 -11 0
v -14 -10 0
v -13 -10 0
v -5 -11 0
v -6 -11 0
v -6 -10 0
v -5 -10 0
v -4 -11 0
v -5 -11 0
v -5 -10 0
v -4 -10 0
v -3 -11 0
v -4 -11 0
v -4 -10 0
v -3 -10 0
v -2 -11 0
v -3 -11 0
v -3 -10 0
v -2 -10 0
v -1 -11 0
v -2 -11 0
v -2 -10 0
v -1 -10 0
v 0 -11 0
v -1 -11 0
v -1 -10 0
v 0 -10 0
v -15 -12 0
v -16 -12 0
v -16 -11 0
v -15 -11 0
v -14 -12 0
v -15 -12 0
v -15 -11 0
v -14 -11 0
v -13 -12 0
v -14 -12 0
v -14 -11 0
v -13 -11 0
v -5 -12 0
v -6 -12 0
v -6 -11 0
v -5 -11 0
v -4 -12 0
v -5 -12 0
v -5 -11 0
v -4 -11 0
v -3 -12 0
v -4 -12 0
v -4 -11 0
v -3 -11 0
v -2 -12 0
v -3 -12 0
v -3 -11 0
v -2 -11 0
v -1 -12 0
v -2 -12 0
v -2 -11 0
v -1 -11 0
v 0 -12 0
v -1 -12 0
v -1 -11 0
v 0 -11 0
v -15 -13 0
v -16 -13 0
v -16 -12 0
v -15 -12 0
v -14 -13 0
v -15 -13 0
v -15 -12 0
v -14 -12 0
v -13 -13 0
v -14 -13 0
v -14 -12 0
v -13 -12 0
v -5 -13 0
v -6 -13 0
v -6 -12 0
v -5 -12 0
v -4 -13 0
v -5 -13 0
v -5 -12 0
v -4 -12 0
v -3 -13 0
v -4 -13 0
v -4 -12 0
v -3 -12 0
v -2 -13 0
v -3 -13 0
v -3 -12 0
v -2 -12 0
v -1 -13 0
v -2 -13 0
v -2 -12 0
v -1 -12 0
v 0 -13 0
v -1 -13 0
v -1 -12 0
v 0 -12 0
v -15 -14 0
v -16 -14 0
v -16 -13 0
v -15 -13 0
v -14 -14 0
v -15 -14 0
v -15 -13 0
v -14 -13 0
v -13 -14 0
v -14 -14 0
v -14 -13 0
v -13 -13 0
v -5 -14 0
v -6 -14 0
v -6 -13 0
v -5 -13 0
v -4 -14 0
v -5 -14 0
v -5 -13 0
v -4 -13 0
v -3 -14 0
v -4 -14 0
v -4 -13 0
v -3 -13 0
v -2 -14 0
v -3 -14 0
v -3 -13 0
v -2 -13 0
v -1 -14 0
v -2 -14 0
v -2 -13 0
v -1 -13 0
v 0 -14 0
v -1 -14 0
v -1 -13 0
v 0 -13 0
v -15 -15 0
v -16 -15 0
v -16 -14 0
v -15 -14 0
v -14 -15 0
v -15 -15 0
v -15 -14 0
v -14 -14 0
v -13 -15 0
v -14 -15 0
v -14 -14 0
v -13 -14 0
v -5 -15 0
v -6 -15 0
v -6 -14 0
v -5 -14 0
v -4 -15 0
v -5 -15 0
v -5 -14 0
v -4 -14 0
v -3 -15 0
v -4 -15 0
v -4 -14 0
v -3 -14 0
v -2 -15 0
v -3 -15 0
v -3 -14 0
v -2 -14 0
v -1 -15 0
v -2 -15 0
v -2 -14 0
v -1 -14 0
v 0 -15 0
v -1 -15 0
v -1 -14 0
v 0 -14 0
v -15 -16 0
v -16 -16 0
v -16 -15 0
v -15 -15 0
v -14 -16 0
v -15 -16 0
v -15 -15 0
v -14 -15 0
v -13 -16 0
v -14 -16 0
v -14 -15 0
v -13 -15 0
v -5 -16 0
v -6 -16 0
v -6 -15 0
v -5 -15 0
v -4 -16 0
v -5 -16 0
v -5 -15 0
v -4 -15 0
v -3 -16 0
v -4 -16 0
v -4 -15 0
v -3 -15 0
v -2 -16 0
v -3 -16 0
v -3 -15 0
v -2 -15 0
v -1 -16 0
v -2 -16 0
v -2 -15 0
v -1 -15 0
v 0 -16 0
v -1 -16 0
v -1 -15 0
v 0 -15 0

# Texture cooridinates (Count = 15)
vt 0.2162162 0.9347826
vt 0.2432432 0.9347826
vt 0.2432432 0.9565217
vt 0.2162162 0.9565217
vt 0.2702703 0.9347826
vt 0.2702703 0.9565217
vt 0.2972973 0.9347826
vt 0.2972973 0.9565217
vt 0.2162162 0.9130435
vt 0.2432432 0.9130435
vt 0.2702703 0.9130435
vt 0.2972973 0.9130435
vt 0.2702703 0.8913044
vt 0.2972973 0.8913044
vt 0.2432432 0.8913044

# Normal
vn 0 0 -1

# Mesh description
g dungeon1_mesh_0019

# Faces
f 1/1/1 2/2/1 3/3/1 4/4/1
f 5/2/1 6/5/1 7/6/1 8/3/1
f 9/1/1 10/2/1 11/3/1 12/4/1
f 13/5/1 14/7/1 15/8/1 16/6/1
f 17/2/1 18/5/1 19/6/1 20/3/1
f 21/2/1 22/5/1 23/6/1 24/3/1
f 25/2/1 26/5/1 27/6/1 28/3/1
f 29/2/1 30/5/1 31/6/1 32/3/1
f 33/2/1 34/5/1 35/6/1 36/3/1
f 37/9/1 38/10/1 39/2/1 40/1/1
f 41/2/1 42/5/1 43/6/1 44/3/1
f 45/1/1 46/2/1 47/3/1 48/4/1
f 49/11/1 50/12/1 51/7/1 52/5/1
f 53/10/1 54/11/1 55/5/1 56/2/1
f 57/10/1 58/11/1 59/5/1 60/2/1
f 61/10/1 62/11/1 63/5/1 64/2/1
f 65/10/1 66/11/1 67/5/1 68/2/1
f 69/10/1 70/11/1 71/5/1 72/2/1
f 73/5/1 74/7/1 75/8/1 76/6/1
f 77/2/1 78/5/1 79/6/1 80/3/1
f 81/1/1 82/2/1 83/3/1 84/4/1
f 85/13/1 86/14/1 87/12/1 88/11/1
f 89/15/1 90/13/1 91/11/1 92/10/1
f 93/15/1 94/13/1 95/11/1 96/10/1
f 97/15/1 98/13/1 99/11/1 100/10/1
f 101/15/1 102/13/1 103/11/1 104/10/1
f 105/5/1 106/7/1 107/8/1 108/6/1
f 109/5/1 110/7/1 111/8/1 112/6/1
f 113/2/1 114/5/1 115/6/1 116/3/1
f 117/1/1 118/2/1 119/3/1 120/4/1
f 121/5/1 122/7/1 123/8/1 124/6/1
f 125/5/1 126/7/1 127/8/1 128/6/1
f 129/5/1 130/7/1 131/8/1 132/6/1
f 133/5/1 134/7/1 135/8/1 136/6/1
f 137/5/1 138/7/1 139/8/1 140/6/1
f 141/11/1 142/12/1 143/7/1 144/5/1
f 145/5/1 146/7/1 147/8/1 148/6/1
f 149/2/1 150/5/1 151/6/1 152/3/1
f 153/1/1 154/2/1 155/3/1 156/4/1
f 157/5/1 158/7/1 159/8/1 160/6/1
f 161/2/1 162/5/1 163/6/1 164/3/1
f 165/2/1 166/5/1 167/6/1 168/3/1
f 169/2/1 170/5/1 171/6/1 172/3/1
f 173/2/1 174/5/1 175/6/1 176/3/1
f 177/2/1 178/5/1 179/6/1 180/3/1
f 181/5/1 182/7/1 183/8/1 184/6/1
f 185/2/1 186/5/1 187/6/1 188/3/1
f 189/1/1 190/2/1 191/3/1 192/4/1
f 193/5/1 194/7/1 195/8/1 196/6/1
f 197/5/1 198/7/1 199/8/1 200/6/1
f 201/5/1 202/7/1 203/8/1 204/6/1
f 205/5/1 206/7/1 207/8/1 208/6/1
f 209/5/1 210/7/1 211/8/1 212/6/1
f 213/5/1 214/7/1 215/8/1 216/6/1
f 217/5/1 218/7/1 219/8/1 220/6/1
f 221/2/1 222/5/1 223/6/1 224/3/1
f 225/1/1 226/2/1 227/3/1 228/4/1
f 229/5/1 230/7/1 231/8/1 232/6/1
f 233/5/1 234/7/1 235/8/1 236/6/1
f 237/2/1 238/5/1 239/6/1 240/3/1
f 241/11/1 242/12/1 243/7/1 244/5/1
f 245/11/1 246/12/1 247/7/1 248/5/1
f 249/11/1 250/12/1 251/7/1 252/5/1
f 253/5/1 254/7/1 255/8/1 256/6/1
f 257/2/1 258/5/1 259/6/1 260/3/1
f 261/1/1 262/2/1 263/3/1 264/4/1
f 265/5/1 266/7/1 267/8/1 268/6/1
f 269/5/1 270/7/1 271/8/1 272/6/1
f 273/5/1 274/7/1 275/8/1 276/6/1
f 277/2/1 278/5/1 279/6/1 280/3/1
f 281/2/1 282/5/1 283/6/1 284/3/1
f 285/2/1 286/5/1 287/6/1 288/3/1
f 289/5/1 290/7/1 291/8/1 292/6/1
f 293/2/1 294/5/1 295/6/1 296/3/1
f 297/1/1 298/2/1 299/3/1 300/4/1
f 301/5/1 302/7/1 303/8/1 304/6/1
f 305/11/1 306/12/1 307/7/1 308/5/1
f 309/11/1 310/12/1 311/7/1 312/5/1
f 313/10/1 314/11/1 315/5/1 316/2/1
f 317/2/1 318/5/1 319/6/1 320/3/1
f 321/10/1 322/11/1 323/5/1 324/2/1

