# Tiled2Unity generated file. Do not modify by hand.
# Wavefront file for 'dungeon1_mesh_0075.obj'

# Vertices (Count = 640)
v -15 -1 0
v -16 -1 0
v -16 0 0
v -15 0 0
v -14 -1 0
v -15 -1 0
v -15 0 0
v -14 0 0
v -13 -1 0
v -14 -1 0
v -14 0 0
v -13 0 0
v -12 -1 0
v -13 -1 0
v -13 0 0
v -12 0 0
v -11 -1 0
v -12 -1 0
v -12 0 0
v -11 0 0
v -10 -1 0
v -11 -1 0
v -11 0 0
v -10 0 0
v -9 -1 0
v -10 -1 0
v -10 0 0
v -9 0 0
v -8 -1 0
v -9 -1 0
v -9 0 0
v -8 0 0
v -7 -1 0
v -8 -1 0
v -8 0 0
v -7 0 0
v -6 -1 0
v -7 -1 0
v -7 0 0
v -6 0 0
v -5 -1 0
v -6 -1 0
v -6 0 0
v -5 0 0
v -4 -1 0
v -5 -1 0
v -5 0 0
v -4 0 0
v -15 -2 0
v -16 -2 0
v -16 -1 0
v -15 -1 0
v -14 -2 0
v -15 -2 0
v -15 -1 0
v -14 -1 0
v -13 -2 0
v -14 -2 0
v -14 -1 0
v -13 -1 0
v -12 -2 0
v -13 -2 0
v -13 -1 0
v -12 -1 0
v -11 -2 0
v -12 -2 0
v -12 -1 0
v -11 -1 0
v -10 -2 0
v -11 -2 0
v -11 -1 0
v -10 -1 0
v -9 -2 0
v -10 -2 0
v -10 -1 0
v -9 -1 0
v -8 -2 0
v -9 -2 0
v -9 -1 0
v -8 -1 0
v -7 -2 0
v -8 -2 0
v -8 -1 0
v -7 -1 0
v -6 -2 0
v -7 -2 0
v -7 -1 0
v -6 -1 0
v -5 -2 0
v -6 -2 0
v -6 -1 0
v -5 -1 0
v -4 -2 0
v -5 -2 0
v -5 -1 0
v -4 -1 0
v -3 -2 0
v -4 -2 0
v -4 -1 0
v -3 -1 0
v -2 -2 0
v -3 -2 0
v -3 -1 0
v -2 -1 0
v -1 -2 0
v -2 -2 0
v -2 -1 0
v -1 -1 0
v 0 -2 0
v -1 -2 0
v -1 -1 0
v 0 -1 0
v -15 -3 0
v -16 -3 0
v -16 -2 0
v -15 -2 0
v -14 -3 0
v -15 -3 0
v -15 -2 0
v -14 -2 0
v -13 -3 0
v -14 -3 0
v -14 -2 0
v -13 -2 0
v -12 -3 0
v -13 -3 0
v -13 -2 0
v -12 -2 0
v -11 -3 0
v -12 -3 0
v -12 -2 0
v -11 -2 0
v -10 -3 0
v -11 -3 0
v -11 -2 0
v -10 -2 0
v -9 -3 0
v -10 -3 0
v -10 -2 0
v -9 -2 0
v -8 -3 0
v -9 -3 0
v -9 -2 0
v -8 -2 0
v -7 -3 0
v -8 -3 0
v -8 -2 0
v -7 -2 0
v -6 -3 0
v -7 -3 0
v -7 -2 0
v -6 -2 0
v -5 -3 0
v -6 -3 0
v -6 -2 0
v -5 -2 0
v -4 -3 0
v -5 -3 0
v -5 -2 0
v -4 -2 0
v -3 -3 0
v -4 -3 0
v -4 -2 0
v -3 -2 0
v -2 -3 0
v -3 -3 0
v -3 -2 0
v -2 -2 0
v -1 -3 0
v -2 -3 0
v -2 -2 0
v -1 -2 0
v 0 -3 0
v -1 -3 0
v -1 -2 0
v 0 -2 0
v -15 -4 0
v -16 -4 0
v -16 -3 0
v -15 -3 0
v -14 -4 0
v -15 -4 0
v -15 -3 0
v -14 -3 0
v -13 -4 0
v -14 -4 0
v -14 -3 0
v -13 -3 0
v -12 -4 0
v -13 -4 0
v -13 -3 0
v -12 -3 0
v -11 -4 0
v -12 -4 0
v -12 -3 0
v -11 -3 0
v -10 -4 0
v -11 -4 0
v -11 -3 0
v -10 -3 0
v -9 -4 0
v -10 -4 0
v -10 -3 0
v -9 -3 0
v -8 -4 0
v -9 -4 0
v -9 -3 0
v -8 -3 0
v -7 -4 0
v -8 -4 0
v -8 -3 0
v -7 -3 0
v -6 -4 0
v -7 -4 0
v -7 -3 0
v -6 -3 0
v -5 -4 0
v -6 -4 0
v -6 -3 0
v -5 -3 0
v -4 -4 0
v -5 -4 0
v -5 -3 0
v -4 -3 0
v -3 -4 0
v -4 -4 0
v -4 -3 0
v -3 -3 0
v -2 -4 0
v -3 -4 0
v -3 -3 0
v -2 -3 0
v -1 -4 0
v -2 -4 0
v -2 -3 0
v -1 -3 0
v 0 -4 0
v -1 -4 0
v -1 -3 0
v 0 -3 0
v -15 -5 0
v -16 -5 0
v -16 -4 0
v -15 -4 0
v -14 -5 0
v -15 -5 0
v -15 -4 0
v -14 -4 0
v -13 -5 0
v -14 -5 0
v -14 -4 0
v -13 -4 0
v -12 -5 0
v -13 -5 0
v -13 -4 0
v -12 -4 0
v -11 -5 0
v -12 -5 0
v -12 -4 0
v -11 -4 0
v -10 -5 0
v -11 -5 0
v -11 -4 0
v -10 -4 0
v -9 -5 0
v -10 -5 0
v -10 -4 0
v -9 -4 0
v -8 -5 0
v -9 -5 0
v -9 -4 0
v -8 -4 0
v -7 -5 0
v -8 -5 0
v -8 -4 0
v -7 -4 0
v -6 -5 0
v -7 -5 0
v -7 -4 0
v -6 -4 0
v -5 -5 0
v -6 -5 0
v -6 -4 0
v -5 -4 0
v -4 -5 0
v -5 -5 0
v -5 -4 0
v -4 -4 0
v -3 -5 0
v -4 -5 0
v -4 -4 0
v -3 -4 0
v -2 -5 0
v -3 -5 0
v -3 -4 0
v -2 -4 0
v -1 -5 0
v -2 -5 0
v -2 -4 0
v -1 -4 0
v 0 -5 0
v -1 -5 0
v -1 -4 0
v 0 -4 0
v -15 -6 0
v -16 -6 0
v -16 -5 0
v -15 -5 0
v -14 -6 0
v -15 -6 0
v -15 -5 0
v -14 -5 0
v -13 -6 0
v -14 -6 0
v -14 -5 0
v -13 -5 0
v -12 -6 0
v -13 -6 0
v -13 -5 0
v -12 -5 0
v -11 -6 0
v -12 -6 0
v -12 -5 0
v -11 -5 0
v -10 -6 0
v -11 -6 0
v -11 -5 0
v -10 -5 0
v -9 -6 0
v -10 -6 0
v -10 -5 0
v -9 -5 0
v -8 -6 0
v -9 -6 0
v -9 -5 0
v -8 -5 0
v -7 -6 0
v -8 -6 0
v -8 -5 0
v -7 -5 0
v -6 -6 0
v -7 -6 0
v -7 -5 0
v -6 -5 0
v -5 -6 0
v -6 -6 0
v -6 -5 0
v -5 -5 0
v -4 -6 0
v -5 -6 0
v -5 -5 0
v -4 -5 0
v -15 -7 0
v -16 -7 0
v -16 -6 0
v -15 -6 0
v -14 -7 0
v -15 -7 0
v -15 -6 0
v -14 -6 0
v -13 -7 0
v -14 -7 0
v -14 -6 0
v -13 -6 0
v -12 -7 0
v -13 -7 0
v -13 -6 0
v -12 -6 0
v -11 -7 0
v -12 -7 0
v -12 -6 0
v -11 -6 0
v -10 -7 0
v -11 -7 0
v -11 -6 0
v -10 -6 0
v -9 -7 0
v -10 -7 0
v -10 -6 0
v -9 -6 0
v -8 -7 0
v -9 -7 0
v -9 -6 0
v -8 -6 0
v -7 -7 0
v -8 -7 0
v -8 -6 0
v -7 -6 0
v -6 -7 0
v -7 -7 0
v -7 -6 0
v -6 -6 0
v -5 -7 0
v -6 -7 0
v -6 -6 0
v -5 -6 0
v -4 -7 0
v -5 -7 0
v -5 -6 0
v -4 -6 0
v -15 -8 0
v -16 -8 0
v -16 -7 0
v -15 -7 0
v -14 -8 0
v -15 -8 0
v -15 -7 0
v -14 -7 0
v -13 -8 0
v -14 -8 0
v -14 -7 0
v -13 -7 0
v -12 -8 0
v -13 -8 0
v -13 -7 0
v -12 -7 0
v -11 -8 0
v -12 -8 0
v -12 -7 0
v -11 -7 0
v -10 -8 0
v -11 -8 0
v -11 -7 0
v -10 -7 0
v -9 -8 0
v -10 -8 0
v -10 -7 0
v -9 -7 0
v -8 -8 0
v -9 -8 0
v -9 -7 0
v -8 -7 0
v -7 -8 0
v -8 -8 0
v -8 -7 0
v -7 -7 0
v -6 -8 0
v -7 -8 0
v -7 -7 0
v -6 -7 0
v -5 -8 0
v -6 -8 0
v -6 -7 0
v -5 -7 0
v -4 -8 0
v -5 -8 0
v -5 -7 0
v -4 -7 0
v -15 -9 0
v -16 -9 0
v -16 -8 0
v -15 -8 0
v -14 -9 0
v -15 -9 0
v -15 -8 0
v -14 -8 0
v -13 -9 0
v -14 -9 0
v -14 -8 0
v -13 -8 0
v -12 -9 0
v -13 -9 0
v -13 -8 0
v -12 -8 0
v -11 -9 0
v -12 -9 0
v -12 -8 0
v -11 -8 0
v -10 -9 0
v -11 -9 0
v -11 -8 0
v -10 -8 0
v -9 -9 0
v -10 -9 0
v -10 -8 0
v -9 -8 0
v -8 -9 0
v -9 -9 0
v -9 -8 0
v -8 -8 0
v -7 -9 0
v -8 -9 0
v -8 -8 0
v -7 -8 0
v -6 -9 0
v -7 -9 0
v -7 -8 0
v -6 -8 0
v -5 -9 0
v -6 -9 0
v -6 -8 0
v -5 -8 0
v -4 -9 0
v -5 -9 0
v -5 -8 0
v -4 -8 0
v -15 -10 0
v -16 -10 0
v -16 -9 0
v -15 -9 0
v -14 -10 0
v -15 -10 0
v -15 -9 0
v -14 -9 0
v -13 -10 0
v -14 -10 0
v -14 -9 0
v -13 -9 0
v -12 -10 0
v -13 -10 0
v -13 -9 0
v -12 -9 0
v -11 -10 0
v -12 -10 0
v -12 -9 0
v -11 -9 0
v -10 -10 0
v -11 -10 0
v -11 -9 0
v -10 -9 0
v -9 -10 0
v -10 -10 0
v -10 -9 0
v -9 -9 0
v -8 -10 0
v -9 -10 0
v -9 -9 0
v -8 -9 0
v -7 -10 0
v -8 -10 0
v -8 -9 0
v -7 -9 0
v -6 -10 0
v -7 -10 0
v -7 -9 0
v -6 -9 0
v -5 -10 0
v -6 -10 0
v -6 -9 0
v -5 -9 0
v -4 -10 0
v -5 -10 0
v -5 -9 0
v -4 -9 0
v -15 -11 0
v -16 -11 0
v -16 -10 0
v -15 -10 0
v -14 -11 0
v -15 -11 0
v -15 -10 0
v -14 -10 0
v -13 -11 0
v -14 -11 0
v -14 -10 0
v -13 -10 0
v -12 -11 0
v -13 -11 0
v -13 -10 0
v -12 -10 0
v -11 -11 0
v -12 -11 0
v -12 -10 0
v -11 -10 0
v -10 -11 0
v -11 -11 0
v -11 -10 0
v -10 -10 0
v -9 -11 0
v -10 -11 0
v -10 -10 0
v -9 -10 0
v -8 -11 0
v -9 -11 0
v -9 -10 0
v -8 -10 0
v -7 -11 0
v -8 -11 0
v -8 -10 0
v -7 -10 0
v -6 -11 0
v -7 -11 0
v -7 -10 0
v -6 -10 0
v -5 -11 0
v -6 -11 0
v -6 -10 0
v -5 -10 0
v -4 -11 0
v -5 -11 0
v -5 -10 0
v -4 -10 0
v -15 -12 0
v -16 -12 0
v -16 -11 0
v -15 -11 0
v -14 -12 0
v -15 -12 0
v -15 -11 0
v -14 -11 0
v -13 -12 0
v -14 -12 0
v -14 -11 0
v -13 -11 0
v -12 -12 0
v -13 -12 0
v -13 -11 0
v -12 -11 0
v -11 -12 0
v -12 -12 0
v -12 -11 0
v -11 -11 0
v -10 -12 0
v -11 -12 0
v -11 -11 0
v -10 -11 0
v -9 -12 0
v -10 -12 0
v -10 -11 0
v -9 -11 0
v -8 -12 0
v -9 -12 0
v -9 -11 0
v -8 -11 0
v -7 -12 0
v -8 -12 0
v -8 -11 0
v -7 -11 0
v -6 -12 0
v -7 -12 0
v -7 -11 0
v -6 -11 0
v -5 -12 0
v -6 -12 0
v -6 -11 0
v -5 -11 0
v -4 -12 0
v -5 -12 0
v -5 -11 0
v -4 -11 0

# Texture cooridinates (Count = 117)
vt 0.4054054 0.3913044
vt 0.4324324 0.3913044
vt 0.4324324 0.4130435
vt 0.4054054 0.4130435
vt 0.3783784 0.3913044
vt 0.3783784 0.4130435
vt 0.3513514 0.3913044
vt 0.3513514 0.4130435
vt 0.3243243 0.3913044
vt 0.3243243 0.4130435
vt 0.2972973 0.3913044
vt 0.2972973 0.4130435
vt 0.2702703 0.3913044
vt 0.2702703 0.4130435
vt 0.2432432 0.3913044
vt 0.2432432 0.4130435
vt 0.2162162 0.3913044
vt 0.2162162 0.4130435
vt 0.2972973 0.5
vt 0.3243243 0.5
vt 0.3243243 0.5217391
vt 0.2972973 0.5217391
vt 0.2702703 0.5
vt 0.2702703 0.5217391
vt 0.2432432 0.5
vt 0.2432432 0.5217391
vt 0.2162162 0.5
vt 0.2162162 0.5217391
vt 0.4054054 0.3695652
vt 0.4324324 0.3695652
vt 0.3783784 0.3695652
vt 0.3513514 0.3695652
vt 0.3243243 0.3695652
vt 0.2972973 0.3695652
vt 0.2702703 0.3695652
vt 0.2432432 0.3695652
vt 0.2162162 0.3695652
vt 0.2972973 0.4782609
vt 0.3243243 0.4782609
vt 0.2702703 0.4782609
vt 0.2432432 0.4782609
vt 0.2162162 0.4782609
vt 0.4054054 0.3478261
vt 0.4324324 0.3478261
vt 0.3783784 0.3478261
vt 0.3513514 0.3478261
vt 0.3243243 0.3478261
vt 0.2972973 0.3478261
vt 0.2702703 0.3478261
vt 0.2432432 0.3478261
vt 0.2162162 0.3478261
vt 0.2972973 0.4565217
vt 0.3243243 0.4565217
vt 0.2702703 0.4565217
vt 0.02702703 0.5
vt 0.05405406 0.5
vt 0.05405406 0.5217391
vt 0.02702703 0.5217391
vt 0 0.5
vt 0 0.5217391
vt 0.1891892 0.3913044
vt 0.1891892 0.4130435
vt 0.4054054 0.3260869
vt 0.4324324 0.3260869
vt 0.3783784 0.3260869
vt 0.3513514 0.3260869
vt 0.3243243 0.3260869
vt 0.2972973 0.3260869
vt 0.2702703 0.3260869
vt 0.2432432 0.3260869
vt 0.2162162 0.3260869
vt 0.2972973 0.4347826
vt 0.3243243 0.4347826
vt 0.2702703 0.4347826
vt 0.02702703 0.4782609
vt 0.05405406 0.4782609
vt 0 0.4782609
vt 0.4054054 0.3043478
vt 0.4324324 0.3043478
vt 0.3783784 0.3043478
vt 0.3513514 0.3043478
vt 0.3243243 0.3043478
vt 0.2972973 0.3043478
vt 0.2702703 0.3043478
vt 0.2432432 0.3043478
vt 0.2162162 0.3043478
vt 0.4054054 0.2826087
vt 0.4324324 0.2826087
vt 0.3783784 0.2826087
vt 0.3513514 0.2826087
vt 0.3243243 0.2826087
vt 0.2972973 0.2826087
vt 0.2702703 0.2826087
vt 0.2432432 0.2826087
vt 0.2162162 0.2826087
vt 0.4054054 0.2608696
vt 0.4324324 0.2608696
vt 0.3783784 0.2608696
vt 0.3513514 0.2608696
vt 0.3243243 0.2608696
vt 0.2972973 0.2608696
vt 0.2702703 0.2608696
vt 0.2432432 0.2608696
vt 0.2162162 0.2608696
vt 0.2432432 0.4565217
vt 0.2162162 0.4565217
vt 0.4054054 0.2391304
vt 0.4324324 0.2391304
vt 0.3783784 0.2391304
vt 0.3513514 0.2391304
vt 0.3243243 0.2391304
vt 0.2972973 0.2391304
vt 0.2702703 0.2391304
vt 0.2432432 0.2391304
vt 0.2162162 0.2391304
vt 0.2432432 0.4347826
vt 0.2162162 0.4347826

# Normal
vn 0 0 -1

# Mesh description
g dungeon1_mesh_0075

# Faces
f 1/1/1 2/2/1 3/3/1 4/4/1
f 5/5/1 6/1/1 7/4/1 8/6/1
f 9/7/1 10/5/1 11/6/1 12/8/1
f 13/9/1 14/7/1 15/8/1 16/10/1
f 17/11/1 18/9/1 19/10/1 20/12/1
f 21/13/1 22/11/1 23/12/1 24/14/1
f 25/15/1 26/13/1 27/14/1 28/16/1
f 29/17/1 30/15/1 31/16/1 32/18/1
f 33/19/1 34/20/1 35/21/1 36/22/1
f 37/23/1 38/19/1 39/22/1 40/24/1
f 41/25/1 42/23/1 43/24/1 44/26/1
f 45/27/1 46/25/1 47/26/1 48/28/1
f 49/29/1 50/30/1 51/2/1 52/1/1
f 53/31/1 54/29/1 55/1/1 56/5/1
f 57/32/1 58/31/1 59/5/1 60/7/1
f 61/33/1 62/32/1 63/7/1 64/9/1
f 65/34/1 66/33/1 67/9/1 68/11/1
f 69/35/1 70/34/1 71/11/1 72/13/1
f 73/36/1 74/35/1 75/13/1 76/15/1
f 77/37/1 78/36/1 79/15/1 80/17/1
f 81/38/1 82/39/1 83/20/1 84/19/1
f 85/40/1 86/38/1 87/19/1 88/23/1
f 89/41/1 90/40/1 91/23/1 92/25/1
f 93/42/1 94/41/1 95/25/1 96/27/1
f 97/19/1 98/20/1 99/21/1 100/22/1
f 101/19/1 102/20/1 103/21/1 104/22/1
f 105/19/1 106/20/1 107/21/1 108/22/1
f 109/19/1 110/20/1 111/21/1 112/22/1
f 113/43/1 114/44/1 115/30/1 116/29/1
f 117/45/1 118/43/1 119/29/1 120/31/1
f 121/46/1 122/45/1 123/31/1 124/32/1
f 125/47/1 126/46/1 127/32/1 128/33/1
f 129/48/1 130/47/1 131/33/1 132/34/1
f 133/49/1 134/48/1 135/34/1 136/35/1
f 137/50/1 138/49/1 139/35/1 140/36/1
f 141/51/1 142/50/1 143/36/1 144/37/1
f 145/52/1 146/53/1 147/39/1 148/38/1
f 149/54/1 150/52/1 151/38/1 152/40/1
f 153/55/1 154/56/1 155/57/1 156/58/1
f 157/59/1 158/55/1 159/58/1 160/60/1
f 161/59/1 162/55/1 163/58/1 164/60/1
f 165/59/1 166/55/1 167/58/1 168/60/1
f 169/59/1 170/55/1 171/58/1 172/60/1
f 173/61/1 174/17/1 175/18/1 176/62/1
f 177/63/1 178/64/1 179/44/1 180/43/1
f 181/65/1 182/63/1 183/43/1 184/45/1
f 185/66/1 186/65/1 187/45/1 188/46/1
f 189/67/1 190/66/1 191/46/1 192/47/1
f 193/68/1 194/67/1 195/47/1 196/48/1
f 197/69/1 198/68/1 199/48/1 200/49/1
f 201/70/1 202/69/1 203/49/1 204/50/1
f 205/71/1 206/70/1 207/50/1 208/51/1
f 209/72/1 210/73/1 211/53/1 212/52/1
f 213/74/1 214/72/1 215/52/1 216/54/1
f 217/75/1 218/76/1 219/56/1 220/55/1
f 221/77/1 222/75/1 223/55/1 224/59/1
f 225/77/1 226/75/1 227/55/1 228/59/1
f 229/77/1 230/75/1 231/55/1 232/59/1
f 233/77/1 234/75/1 235/55/1 236/59/1
f 237/77/1 238/75/1 239/55/1 240/59/1
f 241/78/1 242/79/1 243/64/1 244/63/1
f 245/80/1 246/78/1 247/63/1 248/65/1
f 249/81/1 250/80/1 251/65/1 252/66/1
f 253/82/1 254/81/1 255/66/1 256/67/1
f 257/83/1 258/82/1 259/67/1 260/68/1
f 261/84/1 262/83/1 263/68/1 264/69/1
f 265/85/1 266/84/1 267/69/1 268/70/1
f 269/86/1 270/85/1 271/70/1 272/71/1
f 273/19/1 274/20/1 275/21/1 276/22/1
f 277/23/1 278/19/1 279/22/1 280/24/1
f 281/25/1 282/23/1 283/24/1 284/26/1
f 285/27/1 286/25/1 287/26/1 288/28/1
f 289/72/1 290/73/1 291/53/1 292/52/1
f 293/72/1 294/73/1 295/53/1 296/52/1
f 297/72/1 298/73/1 299/53/1 300/52/1
f 301/72/1 302/73/1 303/53/1 304/52/1
f 305/87/1 306/88/1 307/79/1 308/78/1
f 309/89/1 310/87/1 311/78/1 312/80/1
f 313/90/1 314/89/1 315/80/1 316/81/1
f 317/91/1 318/90/1 319/81/1 320/82/1
f 321/92/1 322/91/1 323/82/1 324/83/1
f 325/93/1 326/92/1 327/83/1 328/84/1
f 329/94/1 330/93/1 331/84/1 332/85/1
f 333/95/1 334/94/1 335/85/1 336/86/1
f 337/38/1 338/39/1 339/20/1 340/19/1
f 341/40/1 342/38/1 343/19/1 344/23/1
f 345/41/1 346/40/1 347/23/1 348/25/1
f 349/42/1 350/41/1 351/25/1 352/27/1
f 353/96/1 354/97/1 355/88/1 356/87/1
f 357/98/1 358/96/1 359/87/1 360/89/1
f 361/99/1 362/98/1 363/89/1 364/90/1
f 365/100/1 366/99/1 367/90/1 368/91/1
f 369/101/1 370/100/1 371/91/1 372/92/1
f 373/102/1 374/101/1 375/92/1 376/93/1
f 377/103/1 378/102/1 379/93/1 380/94/1
f 381/104/1 382/103/1 383/94/1 384/95/1
f 385/52/1 386/53/1 387/39/1 388/38/1
f 389/54/1 390/52/1 391/38/1 392/40/1
f 393/105/1 394/54/1 395/40/1 396/41/1
f 397/106/1 398/105/1 399/41/1 400/42/1
f 401/107/1 402/108/1 403/97/1 404/96/1
f 405/109/1 406/107/1 407/96/1 408/98/1
f 409/110/1 410/109/1 411/98/1 412/99/1
f 413/111/1 414/110/1 415/99/1 416/100/1
f 417/112/1 418/111/1 419/100/1 420/101/1
f 421/113/1 422/112/1 423/101/1 424/102/1
f 425/114/1 426/113/1 427/102/1 428/103/1
f 429/115/1 430/114/1 431/103/1 432/104/1
f 433/72/1 434/73/1 435/53/1 436/52/1
f 437/74/1 438/72/1 439/52/1 440/54/1
f 441/116/1 442/74/1 443/54/1 444/105/1
f 445/117/1 446/116/1 447/105/1 448/106/1
f 449/19/1 450/20/1 451/21/1 452/22/1
f 453/23/1 454/19/1 455/22/1 456/24/1
f 457/25/1 458/23/1 459/24/1 460/26/1
f 461/27/1 462/25/1 463/26/1 464/28/1
f 465/19/1 466/20/1 467/21/1 468/22/1
f 469/23/1 470/19/1 471/22/1 472/24/1
f 473/25/1 474/23/1 475/24/1 476/26/1
f 477/27/1 478/25/1 479/26/1 480/28/1
f 481/19/1 482/20/1 483/21/1 484/22/1
f 485/23/1 486/19/1 487/22/1 488/24/1
f 489/25/1 490/23/1 491/24/1 492/26/1
f 493/27/1 494/25/1 495/26/1 496/28/1
f 497/38/1 498/39/1 499/20/1 500/19/1
f 501/40/1 502/38/1 503/19/1 504/23/1
f 505/41/1 506/40/1 507/23/1 508/25/1
f 509/42/1 510/41/1 511/25/1 512/27/1
f 513/38/1 514/39/1 515/20/1 516/19/1
f 517/40/1 518/38/1 519/19/1 520/23/1
f 521/41/1 522/40/1 523/23/1 524/25/1
f 525/42/1 526/41/1 527/25/1 528/27/1
f 529/67/1 530/66/1 531/46/1 532/47/1
f 533/49/1 534/48/1 535/34/1 536/35/1
f 537/41/1 538/40/1 539/23/1 540/25/1
f 541/42/1 542/41/1 543/25/1 544/27/1
f 545/52/1 546/53/1 547/39/1 548/38/1
f 549/54/1 550/52/1 551/38/1 552/40/1
f 553/105/1 554/54/1 555/40/1 556/41/1
f 557/106/1 558/105/1 559/41/1 560/42/1
f 561/52/1 562/53/1 563/39/1 564/38/1
f 565/54/1 566/52/1 567/38/1 568/40/1
f 569/105/1 570/54/1 571/40/1 572/41/1
f 573/106/1 574/105/1 575/41/1 576/42/1
f 577/90/1 578/89/1 579/80/1 580/81/1
f 581/83/1 582/82/1 583/67/1 584/68/1
f 585/105/1 586/54/1 587/40/1 588/41/1
f 589/106/1 590/105/1 591/41/1 592/42/1
f 593/72/1 594/73/1 595/53/1 596/52/1
f 597/74/1 598/72/1 599/52/1 600/54/1
f 601/116/1 602/74/1 603/54/1 604/105/1
f 605/117/1 606/116/1 607/105/1 608/106/1
f 609/72/1 610/73/1 611/53/1 612/52/1
f 613/74/1 614/72/1 615/52/1 616/54/1
f 617/116/1 618/74/1 619/54/1 620/105/1
f 621/117/1 622/116/1 623/105/1 624/106/1
f 625/72/1 626/73/1 627/53/1 628/52/1
f 629/74/1 630/72/1 631/52/1 632/54/1
f 633/116/1 634/74/1 635/54/1 636/105/1
f 637/117/1 638/116/1 639/105/1 640/106/1

