# Tiled2Unity generated file. Do not modify by hand.
# Wavefront file for 'dungeon1_mesh_0144.obj'

# Vertices (Count = 104)
v -10 -1 0
v -11 -1 0
v -11 0 0
v -10 0 0
v -9 -1 0
v -10 -1 0
v -10 0 0
v -9 0 0
v -10 -2 0
v -11 -2 0
v -11 -1 0
v -10 -1 0
v -9 -2 0
v -10 -2 0
v -10 -1 0
v -9 -1 0
v -1 -2 0
v -2 -2 0
v -2 -1 0
v -1 -1 0
v 0 -2 0
v -1 -2 0
v -1 -1 0
v 0 -1 0
v -10 -3 0
v -11 -3 0
v -11 -2 0
v -10 -2 0
v -9 -3 0
v -10 -3 0
v -10 -2 0
v -9 -2 0
v -8 -3 0
v -9 -3 0
v -9 -2 0
v -8 -2 0
v -7 -3 0
v -8 -3 0
v -8 -2 0
v -7 -2 0
v -6 -3 0
v -7 -3 0
v -7 -2 0
v -6 -2 0
v -5 -3 0
v -6 -3 0
v -6 -2 0
v -5 -2 0
v -4 -3 0
v -5 -3 0
v -5 -2 0
v -4 -2 0
v -3 -3 0
v -4 -3 0
v -4 -2 0
v -3 -2 0
v 0 -3 0
v -1 -3 0
v -1 -2 0
v 0 -2 0
v -3 -4 0
v -4 -4 0
v -4 -3 0
v -3 -3 0
v 0 -4 0
v -1 -4 0
v -1 -3 0
v 0 -3 0
v -3 -5 0
v -4 -5 0
v -4 -4 0
v -3 -4 0
v 0 -5 0
v -1 -5 0
v -1 -4 0
v 0 -4 0
v -3 -6 0
v -4 -6 0
v -4 -5 0
v -3 -5 0
v 0 -6 0
v -1 -6 0
v -1 -5 0
v 0 -5 0
v -3 -7 0
v -4 -7 0
v -4 -6 0
v -3 -6 0
v -3 -8 0
v -4 -8 0
v -4 -7 0
v -3 -7 0
v -2 -8 0
v -3 -8 0
v -3 -7 0
v -2 -7 0
v -1 -8 0
v -2 -8 0
v -2 -7 0
v -1 -7 0
v 0 -8 0
v -1 -8 0
v -1 -7 0
v 0 -7 0

# Texture cooridinates (Count = 26)
vt 0.1621622 0.8913044
vt 0.1891892 0.8913044
vt 0.1891892 0.9130435
vt 0.1621622 0.9130435
vt 0.1351351 0.7826087
vt 0.1621622 0.7826087
vt 0.1621622 0.8043478
vt 0.1351351 0.8043478
vt 0.1891892 0.9347826
vt 0.1621622 0.9347826
vt 0.1351351 0.7608696
vt 0.1621622 0.7608696
vt 0.08108108 0.8695652
vt 0.1081081 0.8695652
vt 0.1081081 0.8913044
vt 0.08108108 0.8913044
vt 0.2432432 0.9782609
vt 0.2702703 0.9782609
vt 0.2702703 1
vt 0.2432432 1
vt 0.2162162 0.9782609
vt 0.2162162 1
vt 0.1891892 0.9782609
vt 0.1891892 1
vt 0.1621622 0.9782609
vt 0.1621622 1

# Normal
vn 0 0 -1

# Mesh description
g dungeon1_mesh_0144

# Faces
f 1/1/1 2/2/1 3/3/1 4/4/1
f 5/5/1 6/6/1 7/7/1 8/8/1
f 9/4/1 10/3/1 11/9/1 12/10/1
f 13/11/1 14/12/1 15/6/1 16/5/1
f 17/13/1 18/14/1 19/15/1 20/16/1
f 21/13/1 22/14/1 23/15/1 24/16/1
f 25/17/1 26/18/1 27/19/1 28/20/1
f 29/21/1 30/17/1 31/20/1 32/22/1
f 33/23/1 34/21/1 35/22/1 36/24/1
f 37/23/1 38/21/1 39/22/1 40/24/1
f 41/23/1 42/21/1 43/22/1 44/24/1
f 45/23/1 46/21/1 47/22/1 48/24/1
f 49/23/1 50/21/1 51/22/1 52/24/1
f 53/25/1 54/23/1 55/24/1 56/26/1
f 57/13/1 58/14/1 59/15/1 60/16/1
f 61/4/1 62/3/1 63/9/1 64/10/1
f 65/13/1 66/14/1 67/15/1 68/16/1
f 69/4/1 70/3/1 71/9/1 72/10/1
f 73/13/1 74/14/1 75/15/1 76/16/1
f 77/4/1 78/3/1 79/9/1 80/10/1
f 81/13/1 82/14/1 83/15/1 84/16/1
f 85/1/1 86/2/1 87/3/1 88/4/1
f 89/17/1 90/18/1 91/19/1 92/20/1
f 93/21/1 94/17/1 95/20/1 96/22/1
f 97/23/1 98/21/1 99/22/1 100/24/1
f 101/23/1 102/21/1 103/22/1 104/24/1

