# Tiled2Unity generated file. Do not modify by hand.
# Wavefront file for 'dungeon1_mesh_0025.obj'

# Vertices (Count = 392)
v -15 -1 0
v -16 -1 0
v -16 0 0
v -15 0 0
v -14 -1 0
v -15 -1 0
v -15 0 0
v -14 0 0
v -13 -1 0
v -14 -1 0
v -14 0 0
v -13 0 0
v -12 -1 0
v -13 -1 0
v -13 0 0
v -12 0 0
v -11 -1 0
v -12 -1 0
v -12 0 0
v -11 0 0
v -10 -1 0
v -11 -1 0
v -11 0 0
v -10 0 0
v -9 -1 0
v -10 -1 0
v -10 0 0
v -9 0 0
v -8 -1 0
v -9 -1 0
v -9 0 0
v -8 0 0
v -7 -1 0
v -8 -1 0
v -8 0 0
v -7 0 0
v -6 -1 0
v -7 -1 0
v -7 0 0
v -6 0 0
v -5 -1 0
v -6 -1 0
v -6 0 0
v -5 0 0
v -4 -1 0
v -5 -1 0
v -5 0 0
v -4 0 0
v -3 -1 0
v -4 -1 0
v -4 0 0
v -3 0 0
v -2 -1 0
v -3 -1 0
v -3 0 0
v -2 0 0
v -1 -1 0
v -2 -1 0
v -2 0 0
v -1 0 0
v 0 -1 0
v -1 -1 0
v -1 0 0
v 0 0 0
v -15 -2 0
v -16 -2 0
v -16 -1 0
v -15 -1 0
v -14 -2 0
v -15 -2 0
v -15 -1 0
v -14 -1 0
v -13 -2 0
v -14 -2 0
v -14 -1 0
v -13 -1 0
v -12 -2 0
v -13 -2 0
v -13 -1 0
v -12 -1 0
v -11 -2 0
v -12 -2 0
v -12 -1 0
v -11 -1 0
v -10 -2 0
v -11 -2 0
v -11 -1 0
v -10 -1 0
v -9 -2 0
v -10 -2 0
v -10 -1 0
v -9 -1 0
v -8 -2 0
v -9 -2 0
v -9 -1 0
v -8 -1 0
v -7 -2 0
v -8 -2 0
v -8 -1 0
v -7 -1 0
v -6 -2 0
v -7 -2 0
v -7 -1 0
v -6 -1 0
v -5 -2 0
v -6 -2 0
v -6 -1 0
v -5 -1 0
v -4 -2 0
v -5 -2 0
v -5 -1 0
v -4 -1 0
v -3 -2 0
v -4 -2 0
v -4 -1 0
v -3 -1 0
v -2 -2 0
v -3 -2 0
v -3 -1 0
v -2 -1 0
v -15 -3 0
v -16 -3 0
v -16 -2 0
v -15 -2 0
v -14 -3 0
v -15 -3 0
v -15 -2 0
v -14 -2 0
v -13 -3 0
v -14 -3 0
v -14 -2 0
v -13 -2 0
v -12 -3 0
v -13 -3 0
v -13 -2 0
v -12 -2 0
v -11 -3 0
v -12 -3 0
v -12 -2 0
v -11 -2 0
v -10 -3 0
v -11 -3 0
v -11 -2 0
v -10 -2 0
v -9 -3 0
v -10 -3 0
v -10 -2 0
v -9 -2 0
v -8 -3 0
v -9 -3 0
v -9 -2 0
v -8 -2 0
v -7 -3 0
v -8 -3 0
v -8 -2 0
v -7 -2 0
v -6 -3 0
v -7 -3 0
v -7 -2 0
v -6 -2 0
v -5 -3 0
v -6 -3 0
v -6 -2 0
v -5 -2 0
v -4 -3 0
v -5 -3 0
v -5 -2 0
v -4 -2 0
v -3 -3 0
v -4 -3 0
v -4 -2 0
v -3 -2 0
v -2 -3 0
v -3 -3 0
v -3 -2 0
v -2 -2 0
v -15 -4 0
v -16 -4 0
v -16 -3 0
v -15 -3 0
v -14 -4 0
v -15 -4 0
v -15 -3 0
v -14 -3 0
v -13 -4 0
v -14 -4 0
v -14 -3 0
v -13 -3 0
v -12 -4 0
v -13 -4 0
v -13 -3 0
v -12 -3 0
v -11 -4 0
v -12 -4 0
v -12 -3 0
v -11 -3 0
v -10 -4 0
v -11 -4 0
v -11 -3 0
v -10 -3 0
v -9 -4 0
v -10 -4 0
v -10 -3 0
v -9 -3 0
v -8 -4 0
v -9 -4 0
v -9 -3 0
v -8 -3 0
v -15 -5 0
v -16 -5 0
v -16 -4 0
v -15 -4 0
v -14 -5 0
v -15 -5 0
v -15 -4 0
v -14 -4 0
v -13 -5 0
v -14 -5 0
v -14 -4 0
v -13 -4 0
v -12 -5 0
v -13 -5 0
v -13 -4 0
v -12 -4 0
v -11 -5 0
v -12 -5 0
v -12 -4 0
v -11 -4 0
v -10 -5 0
v -11 -5 0
v -11 -4 0
v -10 -4 0
v -15 -6 0
v -16 -6 0
v -16 -5 0
v -15 -5 0
v -14 -6 0
v -15 -6 0
v -15 -5 0
v -14 -5 0
v -13 -6 0
v -14 -6 0
v -14 -5 0
v -13 -5 0
v -12 -6 0
v -13 -6 0
v -13 -5 0
v -12 -5 0
v -11 -6 0
v -12 -6 0
v -12 -5 0
v -11 -5 0
v -10 -6 0
v -11 -6 0
v -11 -5 0
v -10 -5 0
v -15 -7 0
v -16 -7 0
v -16 -6 0
v -15 -6 0
v -14 -7 0
v -15 -7 0
v -15 -6 0
v -14 -6 0
v -13 -7 0
v -14 -7 0
v -14 -6 0
v -13 -6 0
v -12 -7 0
v -13 -7 0
v -13 -6 0
v -12 -6 0
v -11 -7 0
v -12 -7 0
v -12 -6 0
v -11 -6 0
v -10 -7 0
v -11 -7 0
v -11 -6 0
v -10 -6 0
v -15 -8 0
v -16 -8 0
v -16 -7 0
v -15 -7 0
v -14 -8 0
v -15 -8 0
v -15 -7 0
v -14 -7 0
v -13 -8 0
v -14 -8 0
v -14 -7 0
v -13 -7 0
v -12 -8 0
v -13 -8 0
v -13 -7 0
v -12 -7 0
v -11 -8 0
v -12 -8 0
v -12 -7 0
v -11 -7 0
v -10 -8 0
v -11 -8 0
v -11 -7 0
v -10 -7 0
v -15 -9 0
v -16 -9 0
v -16 -8 0
v -15 -8 0
v -14 -9 0
v -15 -9 0
v -15 -8 0
v -14 -8 0
v -13 -9 0
v -14 -9 0
v -14 -8 0
v -13 -8 0
v -12 -9 0
v -13 -9 0
v -13 -8 0
v -12 -8 0
v -11 -9 0
v -12 -9 0
v -12 -8 0
v -11 -8 0
v -10 -9 0
v -11 -9 0
v -11 -8 0
v -10 -8 0
v -15 -10 0
v -16 -10 0
v -16 -9 0
v -15 -9 0
v -14 -10 0
v -15 -10 0
v -15 -9 0
v -14 -9 0
v -13 -10 0
v -14 -10 0
v -14 -9 0
v -13 -9 0
v -12 -10 0
v -13 -10 0
v -13 -9 0
v -12 -9 0
v -11 -10 0
v -12 -10 0
v -12 -9 0
v -11 -9 0
v -10 -10 0
v -11 -10 0
v -11 -9 0
v -10 -9 0
v -15 -11 0
v -16 -11 0
v -16 -10 0
v -15 -10 0
v -14 -11 0
v -15 -11 0
v -15 -10 0
v -14 -10 0
v -13 -11 0
v -14 -11 0
v -14 -10 0
v -13 -10 0
v -12 -11 0
v -13 -11 0
v -13 -10 0
v -12 -10 0
v -11 -11 0
v -12 -11 0
v -12 -10 0
v -11 -10 0
v -15 -12 0
v -16 -12 0
v -16 -11 0
v -15 -11 0
v -14 -12 0
v -15 -12 0
v -15 -11 0
v -14 -11 0
v -13 -12 0
v -14 -12 0
v -14 -11 0
v -13 -11 0
v -12 -12 0
v -13 -12 0
v -13 -11 0
v -12 -11 0
v -11 -12 0
v -12 -12 0
v -12 -11 0
v -11 -11 0

# Texture cooridinates (Count = 25)
vt 0.2162162 0.9130435
vt 0.2432432 0.9130435
vt 0.2432432 0.9347826
vt 0.2162162 0.9347826
vt 0.2432432 0.9565217
vt 0.2162162 0.9565217
vt 0.3513514 0.8913044
vt 0.3783784 0.8913044
vt 0.3783784 0.9130435
vt 0.3513514 0.9130435
vt 0.3243243 0.8913044
vt 0.3243243 0.9130435
vt 0.3243243 0.8695652
vt 0.3513514 0.8695652
vt 0.2162162 0.8913044
vt 0.2432432 0.8913044
vt 0.2702703 0.9347826
vt 0.2972973 0.9347826
vt 0.2972973 0.9565217
vt 0.2702703 0.9565217
vt 0.2162162 0.8695652
vt 0.2432432 0.8695652
vt 0.3783784 0.8695652
vt 0.2702703 0.8695652
vt 0.2702703 0.8913044

# Normal
vn 0 0 -1

# Mesh description
g dungeon1_mesh_0025

# Faces
f 1/1/1 2/2/1 3/3/1 4/4/1
f 5/1/1 6/2/1 7/3/1 8/4/1
f 9/1/1 10/2/1 11/3/1 12/4/1
f 13/1/1 14/2/1 15/3/1 16/4/1
f 17/1/1 18/2/1 19/3/1 20/4/1
f 21/1/1 22/2/1 23/3/1 24/4/1
f 25/4/1 26/3/1 27/5/1 28/6/1
f 29/4/1 30/3/1 31/5/1 32/6/1
f 33/1/1 34/2/1 35/3/1 36/4/1
f 37/1/1 38/2/1 39/3/1 40/4/1
f 41/7/1 42/8/1 43/9/1 44/10/1
f 45/11/1 46/7/1 47/10/1 48/12/1
f 49/13/1 50/14/1 51/7/1 52/11/1
f 53/13/1 54/14/1 55/7/1 56/11/1
f 57/13/1 58/14/1 59/7/1 60/11/1
f 61/13/1 62/14/1 63/7/1 64/11/1
f 65/15/1 66/16/1 67/2/1 68/1/1
f 69/15/1 70/16/1 71/2/1 72/1/1
f 73/15/1 74/16/1 75/2/1 76/1/1
f 77/15/1 78/16/1 79/2/1 80/1/1
f 81/15/1 82/16/1 83/2/1 84/1/1
f 85/15/1 86/16/1 87/2/1 88/1/1
f 89/1/1 90/2/1 91/3/1 92/4/1
f 93/1/1 94/2/1 95/3/1 96/4/1
f 97/15/1 98/16/1 99/2/1 100/1/1
f 101/15/1 102/16/1 103/2/1 104/1/1
f 105/7/1 106/8/1 107/9/1 108/10/1
f 109/7/1 110/8/1 111/9/1 112/10/1
f 113/7/1 114/8/1 115/9/1 116/10/1
f 117/11/1 118/7/1 119/10/1 120/12/1
f 121/4/1 122/3/1 123/5/1 124/6/1
f 125/4/1 126/3/1 127/5/1 128/6/1
f 129/4/1 130/3/1 131/5/1 132/6/1
f 133/17/1 134/18/1 135/19/1 136/20/1
f 137/3/1 138/17/1 139/20/1 140/5/1
f 141/4/1 142/3/1 143/5/1 144/6/1
f 145/15/1 146/16/1 147/2/1 148/1/1
f 149/15/1 150/16/1 151/2/1 152/1/1
f 153/21/1 154/22/1 155/16/1 156/15/1
f 157/21/1 158/22/1 159/16/1 160/15/1
f 161/14/1 162/23/1 163/8/1 164/7/1
f 165/14/1 166/23/1 167/8/1 168/7/1
f 169/14/1 170/23/1 171/8/1 172/7/1
f 173/13/1 174/14/1 175/7/1 176/11/1
f 177/1/1 178/2/1 179/3/1 180/4/1
f 181/1/1 182/2/1 183/3/1 184/4/1
f 185/1/1 186/2/1 187/3/1 188/4/1
f 189/17/1 190/18/1 191/19/1 192/20/1
f 193/3/1 194/17/1 195/20/1 196/5/1
f 197/4/1 198/3/1 199/5/1 200/6/1
f 201/21/1 202/22/1 203/16/1 204/15/1
f 205/21/1 206/22/1 207/16/1 208/15/1
f 209/15/1 210/16/1 211/2/1 212/1/1
f 213/15/1 214/16/1 215/2/1 216/1/1
f 217/15/1 218/16/1 219/2/1 220/1/1
f 221/17/1 222/18/1 223/19/1 224/20/1
f 225/3/1 226/17/1 227/20/1 228/5/1
f 229/4/1 230/3/1 231/5/1 232/6/1
f 233/21/1 234/22/1 235/16/1 236/15/1
f 237/21/1 238/22/1 239/16/1 240/15/1
f 241/21/1 242/22/1 243/16/1 244/15/1
f 245/17/1 246/18/1 247/19/1 248/20/1
f 249/3/1 250/17/1 251/20/1 252/5/1
f 253/4/1 254/3/1 255/5/1 256/6/1
f 257/22/1 258/24/1 259/25/1 260/16/1
f 261/21/1 262/22/1 263/16/1 264/15/1
f 265/3/1 266/17/1 267/20/1 268/5/1
f 269/4/1 270/3/1 271/5/1 272/6/1
f 273/4/1 274/3/1 275/5/1 276/6/1
f 277/4/1 278/3/1 279/5/1 280/6/1
f 281/22/1 282/24/1 283/25/1 284/16/1
f 285/21/1 286/22/1 287/16/1 288/15/1
f 289/3/1 290/17/1 291/20/1 292/5/1
f 293/4/1 294/3/1 295/5/1 296/6/1
f 297/1/1 298/2/1 299/3/1 300/4/1
f 301/1/1 302/2/1 303/3/1 304/4/1
f 305/22/1 306/24/1 307/25/1 308/16/1
f 309/21/1 310/22/1 311/16/1 312/15/1
f 313/4/1 314/3/1 315/5/1 316/6/1
f 317/4/1 318/3/1 319/5/1 320/6/1
f 321/4/1 322/3/1 323/5/1 324/6/1
f 325/15/1 326/16/1 327/2/1 328/1/1
f 329/21/1 330/22/1 331/16/1 332/15/1
f 333/1/1 334/2/1 335/3/1 336/4/1
f 337/1/1 338/2/1 339/3/1 340/4/1
f 341/1/1 342/2/1 343/3/1 344/4/1
f 345/1/1 346/2/1 347/3/1 348/4/1
f 349/21/1 350/22/1 351/16/1 352/15/1
f 353/21/1 354/22/1 355/16/1 356/15/1
f 357/15/1 358/16/1 359/2/1 360/1/1
f 361/15/1 362/16/1 363/2/1 364/1/1
f 365/15/1 366/16/1 367/2/1 368/1/1
f 369/15/1 370/16/1 371/2/1 372/1/1
f 373/21/1 374/22/1 375/16/1 376/15/1
f 377/21/1 378/22/1 379/16/1 380/15/1
f 381/21/1 382/22/1 383/16/1 384/15/1
f 385/21/1 386/22/1 387/16/1 388/15/1
f 389/21/1 390/22/1 391/16/1 392/15/1

