# Tiled2Unity generated file. Do not modify by hand.
# Wavefront file for 'dungeon1_mesh_0103.obj'

# Vertices (Count = 432)
v -8 -5 0
v -9 -5 0
v -9 -4 0
v -8 -4 0
v -7 -5 0
v -8 -5 0
v -8 -4 0
v -7 -4 0
v -6 -5 0
v -7 -5 0
v -7 -4 0
v -6 -4 0
v -5 -5 0
v -6 -5 0
v -6 -4 0
v -5 -4 0
v -4 -5 0
v -5 -5 0
v -5 -4 0
v -4 -4 0
v -3 -5 0
v -4 -5 0
v -4 -4 0
v -3 -4 0
v -2 -5 0
v -3 -5 0
v -3 -4 0
v -2 -4 0
v -1 -5 0
v -2 -5 0
v -2 -4 0
v -1 -4 0
v 0 -5 0
v -1 -5 0
v -1 -4 0
v 0 -4 0
v -8 -6 0
v -9 -6 0
v -9 -5 0
v -8 -5 0
v -7 -6 0
v -8 -6 0
v -8 -5 0
v -7 -5 0
v -6 -6 0
v -7 -6 0
v -7 -5 0
v -6 -5 0
v -5 -6 0
v -6 -6 0
v -6 -5 0
v -5 -5 0
v -4 -6 0
v -5 -6 0
v -5 -5 0
v -4 -5 0
v -3 -6 0
v -4 -6 0
v -4 -5 0
v -3 -5 0
v -2 -6 0
v -3 -6 0
v -3 -5 0
v -2 -5 0
v -1 -6 0
v -2 -6 0
v -2 -5 0
v -1 -5 0
v 0 -6 0
v -1 -6 0
v -1 -5 0
v 0 -5 0
v -8 -7 0
v -9 -7 0
v -9 -6 0
v -8 -6 0
v -7 -7 0
v -8 -7 0
v -8 -6 0
v -7 -6 0
v -6 -7 0
v -7 -7 0
v -7 -6 0
v -6 -6 0
v -5 -7 0
v -6 -7 0
v -6 -6 0
v -5 -6 0
v -4 -7 0
v -5 -7 0
v -5 -6 0
v -4 -6 0
v -3 -7 0
v -4 -7 0
v -4 -6 0
v -3 -6 0
v -2 -7 0
v -3 -7 0
v -3 -6 0
v -2 -6 0
v -1 -7 0
v -2 -7 0
v -2 -6 0
v -1 -6 0
v 0 -7 0
v -1 -7 0
v -1 -6 0
v 0 -6 0
v -8 -8 0
v -9 -8 0
v -9 -7 0
v -8 -7 0
v -7 -8 0
v -8 -8 0
v -8 -7 0
v -7 -7 0
v -6 -8 0
v -7 -8 0
v -7 -7 0
v -6 -7 0
v -5 -8 0
v -6 -8 0
v -6 -7 0
v -5 -7 0
v -4 -8 0
v -5 -8 0
v -5 -7 0
v -4 -7 0
v -3 -8 0
v -4 -8 0
v -4 -7 0
v -3 -7 0
v -2 -8 0
v -3 -8 0
v -3 -7 0
v -2 -7 0
v -1 -8 0
v -2 -8 0
v -2 -7 0
v -1 -7 0
v 0 -8 0
v -1 -8 0
v -1 -7 0
v 0 -7 0
v -8 -9 0
v -9 -9 0
v -9 -8 0
v -8 -8 0
v -7 -9 0
v -8 -9 0
v -8 -8 0
v -7 -8 0
v -6 -9 0
v -7 -9 0
v -7 -8 0
v -6 -8 0
v -5 -9 0
v -6 -9 0
v -6 -8 0
v -5 -8 0
v -4 -9 0
v -5 -9 0
v -5 -8 0
v -4 -8 0
v -3 -9 0
v -4 -9 0
v -4 -8 0
v -3 -8 0
v -2 -9 0
v -3 -9 0
v -3 -8 0
v -2 -8 0
v -1 -9 0
v -2 -9 0
v -2 -8 0
v -1 -8 0
v 0 -9 0
v -1 -9 0
v -1 -8 0
v 0 -8 0
v -8 -10 0
v -9 -10 0
v -9 -9 0
v -8 -9 0
v -7 -10 0
v -8 -10 0
v -8 -9 0
v -7 -9 0
v -6 -10 0
v -7 -10 0
v -7 -9 0
v -6 -9 0
v -5 -10 0
v -6 -10 0
v -6 -9 0
v -5 -9 0
v -4 -10 0
v -5 -10 0
v -5 -9 0
v -4 -9 0
v -3 -10 0
v -4 -10 0
v -4 -9 0
v -3 -9 0
v -2 -10 0
v -3 -10 0
v -3 -9 0
v -2 -9 0
v -1 -10 0
v -2 -10 0
v -2 -9 0
v -1 -9 0
v 0 -10 0
v -1 -10 0
v -1 -9 0
v 0 -9 0
v -8 -11 0
v -9 -11 0
v -9 -10 0
v -8 -10 0
v -7 -11 0
v -8 -11 0
v -8 -10 0
v -7 -10 0
v -6 -11 0
v -7 -11 0
v -7 -10 0
v -6 -10 0
v -5 -11 0
v -6 -11 0
v -6 -10 0
v -5 -10 0
v -4 -11 0
v -5 -11 0
v -5 -10 0
v -4 -10 0
v -3 -11 0
v -4 -11 0
v -4 -10 0
v -3 -10 0
v -2 -11 0
v -3 -11 0
v -3 -10 0
v -2 -10 0
v -1 -11 0
v -2 -11 0
v -2 -10 0
v -1 -10 0
v 0 -11 0
v -1 -11 0
v -1 -10 0
v 0 -10 0
v -8 -12 0
v -9 -12 0
v -9 -11 0
v -8 -11 0
v -7 -12 0
v -8 -12 0
v -8 -11 0
v -7 -11 0
v -6 -12 0
v -7 -12 0
v -7 -11 0
v -6 -11 0
v -5 -12 0
v -6 -12 0
v -6 -11 0
v -5 -11 0
v -4 -12 0
v -5 -12 0
v -5 -11 0
v -4 -11 0
v -3 -12 0
v -4 -12 0
v -4 -11 0
v -3 -11 0
v -2 -12 0
v -3 -12 0
v -3 -11 0
v -2 -11 0
v -1 -12 0
v -2 -12 0
v -2 -11 0
v -1 -11 0
v 0 -12 0
v -1 -12 0
v -1 -11 0
v 0 -11 0
v -8 -13 0
v -9 -13 0
v -9 -12 0
v -8 -12 0
v -7 -13 0
v -8 -13 0
v -8 -12 0
v -7 -12 0
v -6 -13 0
v -7 -13 0
v -7 -12 0
v -6 -12 0
v -5 -13 0
v -6 -13 0
v -6 -12 0
v -5 -12 0
v -4 -13 0
v -5 -13 0
v -5 -12 0
v -4 -12 0
v -3 -13 0
v -4 -13 0
v -4 -12 0
v -3 -12 0
v -2 -13 0
v -3 -13 0
v -3 -12 0
v -2 -12 0
v -1 -13 0
v -2 -13 0
v -2 -12 0
v -1 -12 0
v 0 -13 0
v -1 -13 0
v -1 -12 0
v 0 -12 0
v -8 -14 0
v -9 -14 0
v -9 -13 0
v -8 -13 0
v -7 -14 0
v -8 -14 0
v -8 -13 0
v -7 -13 0
v -6 -14 0
v -7 -14 0
v -7 -13 0
v -6 -13 0
v -5 -14 0
v -6 -14 0
v -6 -13 0
v -5 -13 0
v -4 -14 0
v -5 -14 0
v -5 -13 0
v -4 -13 0
v -3 -14 0
v -4 -14 0
v -4 -13 0
v -3 -13 0
v -2 -14 0
v -3 -14 0
v -3 -13 0
v -2 -13 0
v -1 -14 0
v -2 -14 0
v -2 -13 0
v -1 -13 0
v 0 -14 0
v -1 -14 0
v -1 -13 0
v 0 -13 0
v -8 -15 0
v -9 -15 0
v -9 -14 0
v -8 -14 0
v -7 -15 0
v -8 -15 0
v -8 -14 0
v -7 -14 0
v -6 -15 0
v -7 -15 0
v -7 -14 0
v -6 -14 0
v -5 -15 0
v -6 -15 0
v -6 -14 0
v -5 -14 0
v -4 -15 0
v -5 -15 0
v -5 -14 0
v -4 -14 0
v -3 -15 0
v -4 -15 0
v -4 -14 0
v -3 -14 0
v -2 -15 0
v -3 -15 0
v -3 -14 0
v -2 -14 0
v -1 -15 0
v -2 -15 0
v -2 -14 0
v -1 -14 0
v 0 -15 0
v -1 -15 0
v -1 -14 0
v 0 -14 0
v -8 -16 0
v -9 -16 0
v -9 -15 0
v -8 -15 0
v -7 -16 0
v -8 -16 0
v -8 -15 0
v -7 -15 0
v -6 -16 0
v -7 -16 0
v -7 -15 0
v -6 -15 0
v -5 -16 0
v -6 -16 0
v -6 -15 0
v -5 -15 0
v -4 -16 0
v -5 -16 0
v -5 -15 0
v -4 -15 0
v -3 -16 0
v -4 -16 0
v -4 -15 0
v -3 -15 0
v -2 -16 0
v -3 -16 0
v -3 -15 0
v -2 -15 0
v -1 -16 0
v -2 -16 0
v -2 -15 0
v -1 -15 0
v 0 -16 0
v -1 -16 0
v -1 -15 0
v 0 -15 0

# Texture cooridinates (Count = 42)
vt 0.6216216 0.1739131
vt 0.6486486 0.1739131
vt 0.6486486 0.1956522
vt 0.6216216 0.1956522
vt 0.5675676 0.1739131
vt 0.5945946 0.1739131
vt 0.5945946 0.1956522
vt 0.5675676 0.1956522
vt 0.5405405 0.1739131
vt 0.5405405 0.1956522
vt 0.5135135 0.1739131
vt 0.5135135 0.1956522
vt 0.4864865 0.1739131
vt 0.4864865 0.1956522
vt 0.5945946 0.1521739
vt 0.6216216 0.1521739
vt 0.5675676 0.1521739
vt 0.5405405 0.1521739
vt 0.5135135 0.1521739
vt 0.4864865 0.1521739
vt 0.6216216 0.1304348
vt 0.6486486 0.1304348
vt 0.6486486 0.1521739
vt 0.5675676 0.1304348
vt 0.5945946 0.1304348
vt 0.5405405 0.1304348
vt 0.5135135 0.1304348
vt 0.4864865 0.1304348
vt 0.6216216 0.1086956
vt 0.6486486 0.1086956
vt 0.5945946 0.1086956
vt 0.5675676 0.1086956
vt 0.5405405 0.1086956
vt 0.5135135 0.1086956
vt 0.4864865 0.1086956
vt 0.6216216 0.0869565
vt 0.6486486 0.0869565
vt 0.4864865 0.0869565
vt 0.5135135 0.0869565
vt 0.5405405 0.0869565
vt 0.5945946 0.0869565
vt 0.5675676 0.0869565

# Normal
vn 0 0 -1

# Mesh description
g dungeon1_mesh_0103

# Faces
f 1/1/1 2/2/1 3/3/1 4/4/1
f 5/5/1 6/6/1 7/7/1 8/8/1
f 9/9/1 10/5/1 11/8/1 12/10/1
f 13/11/1 14/9/1 15/10/1 16/12/1
f 17/13/1 18/11/1 19/12/1 20/14/1
f 21/6/1 22/1/1 23/4/1 24/7/1
f 25/5/1 26/6/1 27/7/1 28/8/1
f 29/9/1 30/5/1 31/8/1 32/10/1
f 33/11/1 34/9/1 35/10/1 36/12/1
f 37/15/1 38/16/1 39/1/1 40/6/1
f 41/17/1 42/15/1 43/6/1 44/5/1
f 45/18/1 46/17/1 47/5/1 48/9/1
f 49/19/1 50/18/1 51/9/1 52/11/1
f 53/20/1 54/19/1 55/11/1 56/13/1
f 57/15/1 58/16/1 59/1/1 60/6/1
f 61/17/1 62/15/1 63/6/1 64/5/1
f 65/18/1 66/17/1 67/5/1 68/9/1
f 69/19/1 70/18/1 71/9/1 72/11/1
f 73/21/1 74/22/1 75/23/1 76/16/1
f 77/24/1 78/25/1 79/15/1 80/17/1
f 81/26/1 82/24/1 83/17/1 84/18/1
f 85/27/1 86/26/1 87/18/1 88/19/1
f 89/28/1 90/27/1 91/19/1 92/20/1
f 93/25/1 94/21/1 95/16/1 96/15/1
f 97/24/1 98/25/1 99/15/1 100/17/1
f 101/26/1 102/24/1 103/17/1 104/18/1
f 105/27/1 106/26/1 107/18/1 108/19/1
f 109/29/1 110/30/1 111/22/1 112/21/1
f 113/31/1 114/29/1 115/21/1 116/25/1
f 117/32/1 118/31/1 119/25/1 120/24/1
f 121/33/1 122/32/1 123/24/1 124/26/1
f 125/34/1 126/33/1 127/26/1 128/27/1
f 129/35/1 130/34/1 131/27/1 132/28/1
f 133/31/1 134/29/1 135/21/1 136/25/1
f 137/32/1 138/31/1 139/25/1 140/24/1
f 141/33/1 142/32/1 143/24/1 144/26/1
f 145/36/1 146/37/1 147/30/1 148/29/1
f 149/31/1 150/29/1 151/21/1 152/25/1
f 153/32/1 154/31/1 155/25/1 156/24/1
f 157/33/1 158/32/1 159/24/1 160/26/1
f 161/34/1 162/33/1 163/26/1 164/27/1
f 165/35/1 166/34/1 167/27/1 168/28/1
f 169/35/1 170/34/1 171/27/1 172/28/1
f 173/35/1 174/34/1 175/27/1 176/28/1
f 177/32/1 178/31/1 179/25/1 180/24/1
f 181/29/1 182/30/1 183/22/1 184/21/1
f 185/31/1 186/29/1 187/21/1 188/25/1
f 189/32/1 190/31/1 191/25/1 192/24/1
f 193/33/1 194/32/1 195/24/1 196/26/1
f 197/34/1 198/33/1 199/26/1 200/27/1
f 201/35/1 202/34/1 203/27/1 204/28/1
f 205/38/1 206/39/1 207/34/1 208/35/1
f 209/35/1 210/34/1 211/27/1 212/28/1
f 213/35/1 214/34/1 215/27/1 216/28/1
f 217/36/1 218/37/1 219/30/1 220/29/1
f 221/31/1 222/29/1 223/21/1 224/25/1
f 225/32/1 226/31/1 227/25/1 228/24/1
f 229/33/1 230/32/1 231/24/1 232/26/1
f 233/34/1 234/33/1 235/26/1 236/27/1
f 237/35/1 238/34/1 239/27/1 240/28/1
f 241/38/1 242/39/1 243/34/1 244/35/1
f 245/38/1 246/39/1 247/34/1 248/35/1
f 249/35/1 250/34/1 251/27/1 252/28/1
f 253/29/1 254/30/1 255/22/1 256/21/1
f 257/31/1 258/29/1 259/21/1 260/25/1
f 261/32/1 262/31/1 263/25/1 264/24/1
f 265/33/1 266/32/1 267/24/1 268/26/1
f 269/34/1 270/33/1 271/26/1 272/27/1
f 273/35/1 274/34/1 275/27/1 276/28/1
f 277/39/1 278/40/1 279/33/1 280/34/1
f 281/31/1 282/29/1 283/21/1 284/25/1
f 285/32/1 286/31/1 287/25/1 288/24/1
f 289/36/1 290/37/1 291/30/1 292/29/1
f 293/31/1 294/29/1 295/21/1 296/25/1
f 297/32/1 298/31/1 299/25/1 300/24/1
f 301/33/1 302/32/1 303/24/1 304/26/1
f 305/34/1 306/33/1 307/26/1 308/27/1
f 309/35/1 310/34/1 311/27/1 312/28/1
f 313/31/1 314/29/1 315/21/1 316/25/1
f 317/32/1 318/31/1 319/25/1 320/24/1
f 321/33/1 322/32/1 323/24/1 324/26/1
f 325/29/1 326/30/1 327/22/1 328/21/1
f 329/31/1 330/29/1 331/21/1 332/25/1
f 333/32/1 334/31/1 335/25/1 336/24/1
f 337/33/1 338/32/1 339/24/1 340/26/1
f 341/34/1 342/33/1 343/26/1 344/27/1
f 345/35/1 346/34/1 347/27/1 348/28/1
f 349/41/1 350/36/1 351/29/1 352/31/1
f 353/42/1 354/41/1 355/31/1 356/32/1
f 357/40/1 358/42/1 359/32/1 360/33/1
f 361/29/1 362/30/1 363/22/1 364/21/1
f 365/31/1 366/29/1 367/21/1 368/25/1
f 369/31/1 370/29/1 371/21/1 372/25/1
f 373/31/1 374/29/1 375/21/1 376/25/1
f 377/31/1 378/29/1 379/21/1 380/25/1
f 381/31/1 382/29/1 383/21/1 384/25/1
f 385/31/1 386/29/1 387/21/1 388/25/1
f 389/31/1 390/29/1 391/21/1 392/25/1
f 393/31/1 394/29/1 395/21/1 396/25/1
f 397/29/1 398/30/1 399/22/1 400/21/1
f 401/41/1 402/36/1 403/29/1 404/31/1
f 405/41/1 406/36/1 407/29/1 408/31/1
f 409/41/1 410/36/1 411/29/1 412/31/1
f 413/41/1 414/36/1 415/29/1 416/31/1
f 417/41/1 418/36/1 419/29/1 420/31/1
f 421/41/1 422/36/1 423/29/1 424/31/1
f 425/41/1 426/36/1 427/29/1 428/31/1
f 429/41/1 430/36/1 431/29/1 432/31/1

