# Tiled2Unity generated file. Do not modify by hand.
# Wavefront file for 'dungeon1_mesh_0049.obj'

# Vertices (Count = 256)
v -1 -6 0
v -2 -6 0
v -2 -5 0
v -1 -5 0
v 0 -6 0
v -1 -6 0
v -1 -5 0
v 0 -5 0
v -1 -7 0
v -2 -7 0
v -2 -6 0
v -1 -6 0
v 0 -7 0
v -1 -7 0
v -1 -6 0
v 0 -6 0
v -1 -8 0
v -2 -8 0
v -2 -7 0
v -1 -7 0
v 0 -8 0
v -1 -8 0
v -1 -7 0
v 0 -7 0
v -1 -9 0
v -2 -9 0
v -2 -8 0
v -1 -8 0
v 0 -9 0
v -1 -9 0
v -1 -8 0
v 0 -8 0
v -1 -10 0
v -2 -10 0
v -2 -9 0
v -1 -9 0
v 0 -10 0
v -1 -10 0
v -1 -9 0
v 0 -9 0
v -1 -11 0
v -2 -11 0
v -2 -10 0
v -1 -10 0
v 0 -11 0
v -1 -11 0
v -1 -10 0
v 0 -10 0
v -1 -12 0
v -2 -12 0
v -2 -11 0
v -1 -11 0
v 0 -12 0
v -1 -12 0
v -1 -11 0
v 0 -11 0
v -1 -13 0
v -2 -13 0
v -2 -12 0
v -1 -12 0
v 0 -13 0
v -1 -13 0
v -1 -12 0
v 0 -12 0
v -15 -14 0
v -16 -14 0
v -16 -13 0
v -15 -13 0
v -14 -14 0
v -15 -14 0
v -15 -13 0
v -14 -13 0
v -13 -14 0
v -14 -14 0
v -14 -13 0
v -13 -13 0
v -12 -14 0
v -13 -14 0
v -13 -13 0
v -12 -13 0
v -11 -14 0
v -12 -14 0
v -12 -13 0
v -11 -13 0
v -10 -14 0
v -11 -14 0
v -11 -13 0
v -10 -13 0
v -9 -14 0
v -10 -14 0
v -10 -13 0
v -9 -13 0
v -8 -14 0
v -9 -14 0
v -9 -13 0
v -8 -13 0
v -7 -14 0
v -8 -14 0
v -8 -13 0
v -7 -13 0
v -6 -14 0
v -7 -14 0
v -7 -13 0
v -6 -13 0
v -5 -14 0
v -6 -14 0
v -6 -13 0
v -5 -13 0
v -4 -14 0
v -5 -14 0
v -5 -13 0
v -4 -13 0
v -3 -14 0
v -4 -14 0
v -4 -13 0
v -3 -13 0
v -2 -14 0
v -3 -14 0
v -3 -13 0
v -2 -13 0
v -1 -14 0
v -2 -14 0
v -2 -13 0
v -1 -13 0
v 0 -14 0
v -1 -14 0
v -1 -13 0
v 0 -13 0
v -15 -15 0
v -16 -15 0
v -16 -14 0
v -15 -14 0
v -14 -15 0
v -15 -15 0
v -15 -14 0
v -14 -14 0
v -13 -15 0
v -14 -15 0
v -14 -14 0
v -13 -14 0
v -12 -15 0
v -13 -15 0
v -13 -14 0
v -12 -14 0
v -11 -15 0
v -12 -15 0
v -12 -14 0
v -11 -14 0
v -10 -15 0
v -11 -15 0
v -11 -14 0
v -10 -14 0
v -9 -15 0
v -10 -15 0
v -10 -14 0
v -9 -14 0
v -8 -15 0
v -9 -15 0
v -9 -14 0
v -8 -14 0
v -7 -15 0
v -8 -15 0
v -8 -14 0
v -7 -14 0
v -6 -15 0
v -7 -15 0
v -7 -14 0
v -6 -14 0
v -5 -15 0
v -6 -15 0
v -6 -14 0
v -5 -14 0
v -4 -15 0
v -5 -15 0
v -5 -14 0
v -4 -14 0
v -3 -15 0
v -4 -15 0
v -4 -14 0
v -3 -14 0
v -2 -15 0
v -3 -15 0
v -3 -14 0
v -2 -14 0
v -1 -15 0
v -2 -15 0
v -2 -14 0
v -1 -14 0
v 0 -15 0
v -1 -15 0
v -1 -14 0
v 0 -14 0
v -15 -16 0
v -16 -16 0
v -16 -15 0
v -15 -15 0
v -14 -16 0
v -15 -16 0
v -15 -15 0
v -14 -15 0
v -13 -16 0
v -14 -16 0
v -14 -15 0
v -13 -15 0
v -12 -16 0
v -13 -16 0
v -13 -15 0
v -12 -15 0
v -11 -16 0
v -12 -16 0
v -12 -15 0
v -11 -15 0
v -10 -16 0
v -11 -16 0
v -11 -15 0
v -10 -15 0
v -9 -16 0
v -10 -16 0
v -10 -15 0
v -9 -15 0
v -8 -16 0
v -9 -16 0
v -9 -15 0
v -8 -15 0
v -7 -16 0
v -8 -16 0
v -8 -15 0
v -7 -15 0
v -6 -16 0
v -7 -16 0
v -7 -15 0
v -6 -15 0
v -5 -16 0
v -6 -16 0
v -6 -15 0
v -5 -15 0
v -4 -16 0
v -5 -16 0
v -5 -15 0
v -4 -15 0
v -3 -16 0
v -4 -16 0
v -4 -15 0
v -3 -15 0
v -2 -16 0
v -3 -16 0
v -3 -15 0
v -2 -15 0
v -1 -16 0
v -2 -16 0
v -2 -15 0
v -1 -15 0
v 0 -16 0
v -1 -16 0
v -1 -15 0
v 0 -15 0

# Texture cooridinates (Count = 31)
vt 0.4054054 0.3695652
vt 0.4324324 0.3695652
vt 0.4324324 0.3913044
vt 0.4054054 0.3913044
vt 0.4054054 0.3478261
vt 0.4324324 0.3478261
vt 0.2432432 0.3913044
vt 0.2702703 0.3913044
vt 0.2702703 0.4130435
vt 0.2432432 0.4130435
vt 0.2432432 0.3695652
vt 0.2702703 0.3695652
vt 0.3783784 0.3695652
vt 0.3783784 0.3913044
vt 0 0.1086956
vt 0.02702703 0.1086956
vt 0.02702703 0.1304348
vt 0 0.1304348
vt 0.02702703 0.06521738
vt 0.05405406 0.06521738
vt 0.05405406 0.0869565
vt 0.02702703 0.0869565
vt 0.08108108 0.06521738
vt 0.08108108 0.0869565
vt 0.05405406 0.1086956
vt 0.08108108 0.1086956
vt 0 0.0869565
vt 0.02702703 0.04347825
vt 0.05405406 0.04347825
vt 0.08108108 0.04347825
vt 0 0.06521738

# Normal
vn 0 0 -1

# Mesh description
g dungeon1_mesh_0049

# Faces
f 1/1/1 2/2/1 3/3/1 4/4/1
f 5/1/1 6/2/1 7/3/1 8/4/1
f 9/5/1 10/6/1 11/2/1 12/1/1
f 13/7/1 14/8/1 15/9/1 16/10/1
f 17/1/1 18/2/1 19/3/1 20/4/1
f 21/11/1 22/12/1 23/8/1 24/7/1
f 25/1/1 26/2/1 27/3/1 28/4/1
f 29/13/1 30/1/1 31/4/1 32/14/1
f 33/1/1 34/2/1 35/3/1 36/4/1
f 37/13/1 38/1/1 39/4/1 40/14/1
f 41/1/1 42/2/1 43/3/1 44/4/1
f 45/13/1 46/1/1 47/4/1 48/14/1
f 49/1/1 50/2/1 51/3/1 52/4/1
f 53/13/1 54/1/1 55/4/1 56/14/1
f 57/1/1 58/2/1 59/3/1 60/4/1
f 61/13/1 62/1/1 63/4/1 64/14/1
f 65/15/1 66/16/1 67/17/1 68/18/1
f 69/15/1 70/16/1 71/17/1 72/18/1
f 73/15/1 74/16/1 75/17/1 76/18/1
f 77/15/1 78/16/1 79/17/1 80/18/1
f 81/15/1 82/16/1 83/17/1 84/18/1
f 85/15/1 86/16/1 87/17/1 88/18/1
f 89/15/1 90/16/1 91/17/1 92/18/1
f 93/15/1 94/16/1 95/17/1 96/18/1
f 97/15/1 98/16/1 99/17/1 100/18/1
f 101/15/1 102/16/1 103/17/1 104/18/1
f 105/15/1 106/16/1 107/17/1 108/18/1
f 109/15/1 110/16/1 111/17/1 112/18/1
f 113/15/1 114/16/1 115/17/1 116/18/1
f 117/15/1 118/16/1 119/17/1 120/18/1
f 121/5/1 122/6/1 123/2/1 124/1/1
f 125/1/1 126/2/1 127/3/1 128/4/1
f 129/19/1 130/20/1 131/21/1 132/22/1
f 133/20/1 134/23/1 135/24/1 136/21/1
f 137/19/1 138/20/1 139/21/1 140/22/1
f 141/19/1 142/20/1 143/21/1 144/22/1
f 145/22/1 146/21/1 147/25/1 148/16/1
f 149/20/1 150/23/1 151/24/1 152/21/1
f 153/19/1 154/20/1 155/21/1 156/22/1
f 157/21/1 158/24/1 159/26/1 160/25/1
f 161/22/1 162/21/1 163/25/1 164/16/1
f 165/21/1 166/24/1 167/26/1 168/25/1
f 169/21/1 170/24/1 171/26/1 172/25/1
f 173/21/1 174/24/1 175/26/1 176/25/1
f 177/22/1 178/21/1 179/25/1 180/16/1
f 181/27/1 182/22/1 183/16/1 184/15/1
f 185/15/1 186/16/1 187/17/1 188/18/1
f 189/5/1 190/6/1 191/2/1 192/1/1
f 193/28/1 194/29/1 195/20/1 196/19/1
f 197/29/1 198/30/1 199/23/1 200/20/1
f 201/28/1 202/29/1 203/20/1 204/19/1
f 205/28/1 206/29/1 207/20/1 208/19/1
f 209/19/1 210/20/1 211/21/1 212/22/1
f 213/29/1 214/30/1 215/23/1 216/20/1
f 217/28/1 218/29/1 219/20/1 220/19/1
f 221/20/1 222/23/1 223/24/1 224/21/1
f 225/19/1 226/20/1 227/21/1 228/22/1
f 229/20/1 230/23/1 231/24/1 232/21/1
f 233/20/1 234/23/1 235/24/1 236/21/1
f 237/20/1 238/23/1 239/24/1 240/21/1
f 241/19/1 242/20/1 243/21/1 244/22/1
f 245/31/1 246/19/1 247/22/1 248/27/1
f 249/15/1 250/16/1 251/17/1 252/18/1
f 253/15/1 254/16/1 255/17/1 256/18/1

