# Tiled2Unity generated file. Do not modify by hand.
# Wavefront file for 'dungeon1_mesh_0101.obj'

# Vertices (Count = 480)
v -15 -5 0
v -16 -5 0
v -16 -4 0
v -15 -4 0
v -14 -5 0
v -15 -5 0
v -15 -4 0
v -14 -4 0
v -13 -5 0
v -14 -5 0
v -14 -4 0
v -13 -4 0
v -12 -5 0
v -13 -5 0
v -13 -4 0
v -12 -4 0
v -11 -5 0
v -12 -5 0
v -12 -4 0
v -11 -4 0
v -10 -5 0
v -11 -5 0
v -11 -4 0
v -10 -4 0
v -9 -5 0
v -10 -5 0
v -10 -4 0
v -9 -4 0
v -8 -5 0
v -9 -5 0
v -9 -4 0
v -8 -4 0
v -7 -5 0
v -8 -5 0
v -8 -4 0
v -7 -4 0
v -6 -5 0
v -7 -5 0
v -7 -4 0
v -6 -4 0
v -15 -6 0
v -16 -6 0
v -16 -5 0
v -15 -5 0
v -14 -6 0
v -15 -6 0
v -15 -5 0
v -14 -5 0
v -13 -6 0
v -14 -6 0
v -14 -5 0
v -13 -5 0
v -12 -6 0
v -13 -6 0
v -13 -5 0
v -12 -5 0
v -11 -6 0
v -12 -6 0
v -12 -5 0
v -11 -5 0
v -10 -6 0
v -11 -6 0
v -11 -5 0
v -10 -5 0
v -9 -6 0
v -10 -6 0
v -10 -5 0
v -9 -5 0
v -8 -6 0
v -9 -6 0
v -9 -5 0
v -8 -5 0
v -7 -6 0
v -8 -6 0
v -8 -5 0
v -7 -5 0
v -6 -6 0
v -7 -6 0
v -7 -5 0
v -6 -5 0
v -15 -7 0
v -16 -7 0
v -16 -6 0
v -15 -6 0
v -14 -7 0
v -15 -7 0
v -15 -6 0
v -14 -6 0
v -13 -7 0
v -14 -7 0
v -14 -6 0
v -13 -6 0
v -12 -7 0
v -13 -7 0
v -13 -6 0
v -12 -6 0
v -11 -7 0
v -12 -7 0
v -12 -6 0
v -11 -6 0
v -10 -7 0
v -11 -7 0
v -11 -6 0
v -10 -6 0
v -9 -7 0
v -10 -7 0
v -10 -6 0
v -9 -6 0
v -8 -7 0
v -9 -7 0
v -9 -6 0
v -8 -6 0
v -7 -7 0
v -8 -7 0
v -8 -6 0
v -7 -6 0
v -6 -7 0
v -7 -7 0
v -7 -6 0
v -6 -6 0
v -15 -8 0
v -16 -8 0
v -16 -7 0
v -15 -7 0
v -14 -8 0
v -15 -8 0
v -15 -7 0
v -14 -7 0
v -13 -8 0
v -14 -8 0
v -14 -7 0
v -13 -7 0
v -12 -8 0
v -13 -8 0
v -13 -7 0
v -12 -7 0
v -11 -8 0
v -12 -8 0
v -12 -7 0
v -11 -7 0
v -10 -8 0
v -11 -8 0
v -11 -7 0
v -10 -7 0
v -9 -8 0
v -10 -8 0
v -10 -7 0
v -9 -7 0
v -8 -8 0
v -9 -8 0
v -9 -7 0
v -8 -7 0
v -7 -8 0
v -8 -8 0
v -8 -7 0
v -7 -7 0
v -6 -8 0
v -7 -8 0
v -7 -7 0
v -6 -7 0
v -15 -9 0
v -16 -9 0
v -16 -8 0
v -15 -8 0
v -14 -9 0
v -15 -9 0
v -15 -8 0
v -14 -8 0
v -13 -9 0
v -14 -9 0
v -14 -8 0
v -13 -8 0
v -12 -9 0
v -13 -9 0
v -13 -8 0
v -12 -8 0
v -11 -9 0
v -12 -9 0
v -12 -8 0
v -11 -8 0
v -10 -9 0
v -11 -9 0
v -11 -8 0
v -10 -8 0
v -9 -9 0
v -10 -9 0
v -10 -8 0
v -9 -8 0
v -8 -9 0
v -9 -9 0
v -9 -8 0
v -8 -8 0
v -7 -9 0
v -8 -9 0
v -8 -8 0
v -7 -8 0
v -6 -9 0
v -7 -9 0
v -7 -8 0
v -6 -8 0
v -15 -10 0
v -16 -10 0
v -16 -9 0
v -15 -9 0
v -14 -10 0
v -15 -10 0
v -15 -9 0
v -14 -9 0
v -13 -10 0
v -14 -10 0
v -14 -9 0
v -13 -9 0
v -12 -10 0
v -13 -10 0
v -13 -9 0
v -12 -9 0
v -11 -10 0
v -12 -10 0
v -12 -9 0
v -11 -9 0
v -10 -10 0
v -11 -10 0
v -11 -9 0
v -10 -9 0
v -9 -10 0
v -10 -10 0
v -10 -9 0
v -9 -9 0
v -8 -10 0
v -9 -10 0
v -9 -9 0
v -8 -9 0
v -7 -10 0
v -8 -10 0
v -8 -9 0
v -7 -9 0
v -6 -10 0
v -7 -10 0
v -7 -9 0
v -6 -9 0
v -15 -11 0
v -16 -11 0
v -16 -10 0
v -15 -10 0
v -14 -11 0
v -15 -11 0
v -15 -10 0
v -14 -10 0
v -13 -11 0
v -14 -11 0
v -14 -10 0
v -13 -10 0
v -12 -11 0
v -13 -11 0
v -13 -10 0
v -12 -10 0
v -11 -11 0
v -12 -11 0
v -12 -10 0
v -11 -10 0
v -10 -11 0
v -11 -11 0
v -11 -10 0
v -10 -10 0
v -9 -11 0
v -10 -11 0
v -10 -10 0
v -9 -10 0
v -8 -11 0
v -9 -11 0
v -9 -10 0
v -8 -10 0
v -7 -11 0
v -8 -11 0
v -8 -10 0
v -7 -10 0
v -6 -11 0
v -7 -11 0
v -7 -10 0
v -6 -10 0
v -15 -12 0
v -16 -12 0
v -16 -11 0
v -15 -11 0
v -14 -12 0
v -15 -12 0
v -15 -11 0
v -14 -11 0
v -13 -12 0
v -14 -12 0
v -14 -11 0
v -13 -11 0
v -12 -12 0
v -13 -12 0
v -13 -11 0
v -12 -11 0
v -11 -12 0
v -12 -12 0
v -12 -11 0
v -11 -11 0
v -10 -12 0
v -11 -12 0
v -11 -11 0
v -10 -11 0
v -9 -12 0
v -10 -12 0
v -10 -11 0
v -9 -11 0
v -8 -12 0
v -9 -12 0
v -9 -11 0
v -8 -11 0
v -7 -12 0
v -8 -12 0
v -8 -11 0
v -7 -11 0
v -6 -12 0
v -7 -12 0
v -7 -11 0
v -6 -11 0
v -15 -13 0
v -16 -13 0
v -16 -12 0
v -15 -12 0
v -14 -13 0
v -15 -13 0
v -15 -12 0
v -14 -12 0
v -13 -13 0
v -14 -13 0
v -14 -12 0
v -13 -12 0
v -12 -13 0
v -13 -13 0
v -13 -12 0
v -12 -12 0
v -11 -13 0
v -12 -13 0
v -12 -12 0
v -11 -12 0
v -10 -13 0
v -11 -13 0
v -11 -12 0
v -10 -12 0
v -9 -13 0
v -10 -13 0
v -10 -12 0
v -9 -12 0
v -8 -13 0
v -9 -13 0
v -9 -12 0
v -8 -12 0
v -7 -13 0
v -8 -13 0
v -8 -12 0
v -7 -12 0
v -6 -13 0
v -7 -13 0
v -7 -12 0
v -6 -12 0
v -15 -14 0
v -16 -14 0
v -16 -13 0
v -15 -13 0
v -14 -14 0
v -15 -14 0
v -15 -13 0
v -14 -13 0
v -13 -14 0
v -14 -14 0
v -14 -13 0
v -13 -13 0
v -12 -14 0
v -13 -14 0
v -13 -13 0
v -12 -13 0
v -11 -14 0
v -12 -14 0
v -12 -13 0
v -11 -13 0
v -10 -14 0
v -11 -14 0
v -11 -13 0
v -10 -13 0
v -9 -14 0
v -10 -14 0
v -10 -13 0
v -9 -13 0
v -8 -14 0
v -9 -14 0
v -9 -13 0
v -8 -13 0
v -7 -14 0
v -8 -14 0
v -8 -13 0
v -7 -13 0
v -6 -14 0
v -7 -14 0
v -7 -13 0
v -6 -13 0
v -15 -15 0
v -16 -15 0
v -16 -14 0
v -15 -14 0
v -14 -15 0
v -15 -15 0
v -15 -14 0
v -14 -14 0
v -13 -15 0
v -14 -15 0
v -14 -14 0
v -13 -14 0
v -12 -15 0
v -13 -15 0
v -13 -14 0
v -12 -14 0
v -11 -15 0
v -12 -15 0
v -12 -14 0
v -11 -14 0
v -10 -15 0
v -11 -15 0
v -11 -14 0
v -10 -14 0
v -9 -15 0
v -10 -15 0
v -10 -14 0
v -9 -14 0
v -8 -15 0
v -9 -15 0
v -9 -14 0
v -8 -14 0
v -7 -15 0
v -8 -15 0
v -8 -14 0
v -7 -14 0
v -6 -15 0
v -7 -15 0
v -7 -14 0
v -6 -14 0
v -15 -16 0
v -16 -16 0
v -16 -15 0
v -15 -15 0
v -14 -16 0
v -15 -16 0
v -15 -15 0
v -14 -15 0
v -13 -16 0
v -14 -16 0
v -14 -15 0
v -13 -15 0
v -12 -16 0
v -13 -16 0
v -13 -15 0
v -12 -15 0
v -11 -16 0
v -12 -16 0
v -12 -15 0
v -11 -15 0
v -10 -16 0
v -11 -16 0
v -11 -15 0
v -10 -15 0
v -9 -16 0
v -10 -16 0
v -10 -15 0
v -9 -15 0
v -8 -16 0
v -9 -16 0
v -9 -15 0
v -8 -15 0
v -7 -16 0
v -8 -16 0
v -8 -15 0
v -7 -15 0
v -6 -16 0
v -7 -16 0
v -7 -15 0
v -6 -15 0

# Texture cooridinates (Count = 42)
vt 0.5945946 0.1739131
vt 0.6216216 0.1739131
vt 0.6216216 0.1956522
vt 0.5945946 0.1956522
vt 0.5675676 0.1739131
vt 0.5675676 0.1956522
vt 0.5405405 0.1739131
vt 0.5405405 0.1956522
vt 0.5135135 0.1739131
vt 0.5135135 0.1956522
vt 0.4864865 0.1739131
vt 0.4864865 0.1956522
vt 0.4594595 0.1739131
vt 0.4594595 0.1956522
vt 0.5945946 0.1521739
vt 0.6216216 0.1521739
vt 0.5675676 0.1521739
vt 0.5405405 0.1521739
vt 0.5135135 0.1521739
vt 0.4864865 0.1521739
vt 0.5945946 0.1304348
vt 0.6216216 0.1304348
vt 0.5675676 0.1304348
vt 0.5405405 0.1304348
vt 0.5135135 0.1304348
vt 0.4864865 0.1304348
vt 0.4594595 0.1304348
vt 0.4594595 0.1521739
vt 0.5675676 0.1086956
vt 0.5945946 0.1086956
vt 0.5405405 0.1086956
vt 0.5135135 0.1086956
vt 0.4864865 0.1086956
vt 0.4594595 0.1086956
vt 0.4864865 0.0869565
vt 0.5135135 0.0869565
vt 0.4594595 0.0869565
vt 0.6216216 0.1086956
vt 0.5405405 0.0869565
vt 0.5675676 0.0869565
vt 0.5945946 0.0869565
vt 0.6216216 0.0869565

# Normal
vn 0 0 -1

# Mesh description
g dungeon1_mesh_0101

# Faces
f 1/1/1 2/2/1 3/3/1 4/4/1
f 5/5/1 6/1/1 7/4/1 8/6/1
f 9/7/1 10/5/1 11/6/1 12/8/1
f 13/9/1 14/7/1 15/8/1 16/10/1
f 17/11/1 18/9/1 19/10/1 20/12/1
f 21/1/1 22/2/1 23/3/1 24/4/1
f 25/5/1 26/1/1 27/4/1 28/6/1
f 29/7/1 30/5/1 31/6/1 32/8/1
f 33/9/1 34/7/1 35/8/1 36/10/1
f 37/13/1 38/11/1 39/12/1 40/14/1
f 41/15/1 42/16/1 43/2/1 44/1/1
f 45/17/1 46/15/1 47/1/1 48/5/1
f 49/18/1 50/17/1 51/5/1 52/7/1
f 53/19/1 54/18/1 55/7/1 56/9/1
f 57/20/1 58/19/1 59/9/1 60/11/1
f 61/15/1 62/16/1 63/2/1 64/1/1
f 65/17/1 66/15/1 67/1/1 68/5/1
f 69/18/1 70/17/1 71/5/1 72/7/1
f 73/19/1 74/18/1 75/7/1 76/9/1
f 77/15/1 78/16/1 79/2/1 80/1/1
f 81/21/1 82/22/1 83/16/1 84/15/1
f 85/23/1 86/21/1 87/15/1 88/17/1
f 89/24/1 90/23/1 91/17/1 92/18/1
f 93/25/1 94/24/1 95/18/1 96/19/1
f 97/26/1 98/25/1 99/19/1 100/20/1
f 101/21/1 102/22/1 103/16/1 104/15/1
f 105/23/1 106/21/1 107/15/1 108/17/1
f 109/24/1 110/23/1 111/17/1 112/18/1
f 113/25/1 114/24/1 115/18/1 116/19/1
f 117/27/1 118/26/1 119/20/1 120/28/1
f 121/29/1 122/30/1 123/21/1 124/23/1
f 125/31/1 126/29/1 127/23/1 128/24/1
f 129/32/1 130/31/1 131/24/1 132/25/1
f 133/33/1 134/32/1 135/25/1 136/26/1
f 137/32/1 138/31/1 139/24/1 140/25/1
f 141/33/1 142/32/1 143/25/1 144/26/1
f 145/33/1 146/32/1 147/25/1 148/26/1
f 149/33/1 150/32/1 151/25/1 152/26/1
f 153/33/1 154/32/1 155/25/1 156/26/1
f 157/34/1 158/33/1 159/26/1 160/27/1
f 161/32/1 162/31/1 163/24/1 164/25/1
f 165/33/1 166/32/1 167/25/1 168/26/1
f 169/32/1 170/31/1 171/24/1 172/25/1
f 173/33/1 174/32/1 175/25/1 176/26/1
f 177/32/1 178/31/1 179/24/1 180/25/1
f 181/33/1 182/32/1 183/25/1 184/26/1
f 185/35/1 186/36/1 187/32/1 188/33/1
f 189/35/1 190/36/1 191/32/1 192/33/1
f 193/35/1 194/36/1 195/32/1 196/33/1
f 197/37/1 198/35/1 199/33/1 200/34/1
f 201/32/1 202/31/1 203/24/1 204/25/1
f 205/33/1 206/32/1 207/25/1 208/26/1
f 209/33/1 210/32/1 211/25/1 212/26/1
f 213/33/1 214/32/1 215/25/1 216/26/1
f 217/30/1 218/38/1 219/22/1 220/21/1
f 221/29/1 222/30/1 223/21/1 224/23/1
f 225/31/1 226/29/1 227/23/1 228/24/1
f 229/32/1 230/31/1 231/24/1 232/25/1
f 233/33/1 234/32/1 235/25/1 236/26/1
f 237/34/1 238/33/1 239/26/1 240/27/1
f 241/30/1 242/38/1 243/22/1 244/21/1
f 245/29/1 246/30/1 247/21/1 248/23/1
f 249/31/1 250/29/1 251/23/1 252/24/1
f 253/32/1 254/31/1 255/24/1 256/25/1
f 257/33/1 258/32/1 259/25/1 260/26/1
f 261/33/1 262/32/1 263/25/1 264/26/1
f 265/31/1 266/29/1 267/23/1 268/24/1
f 269/32/1 270/31/1 271/24/1 272/25/1
f 273/33/1 274/32/1 275/25/1 276/26/1
f 277/37/1 278/35/1 279/33/1 280/34/1
f 281/30/1 282/38/1 283/22/1 284/21/1
f 285/29/1 286/30/1 287/21/1 288/23/1
f 289/31/1 290/29/1 291/23/1 292/24/1
f 293/32/1 294/31/1 295/24/1 296/25/1
f 297/33/1 298/32/1 299/25/1 300/26/1
f 301/35/1 302/36/1 303/32/1 304/33/1
f 305/33/1 306/32/1 307/25/1 308/26/1
f 309/33/1 310/32/1 311/25/1 312/26/1
f 313/33/1 314/32/1 315/25/1 316/26/1
f 317/34/1 318/33/1 319/26/1 320/27/1
f 321/33/1 322/32/1 323/25/1 324/26/1
f 325/33/1 326/32/1 327/25/1 328/26/1
f 329/33/1 330/32/1 331/25/1 332/26/1
f 333/33/1 334/32/1 335/25/1 336/26/1
f 337/33/1 338/32/1 339/25/1 340/26/1
f 341/35/1 342/36/1 343/32/1 344/33/1
f 345/35/1 346/36/1 347/32/1 348/33/1
f 349/35/1 350/36/1 351/32/1 352/33/1
f 353/33/1 354/32/1 355/25/1 356/26/1
f 357/37/1 358/35/1 359/33/1 360/34/1
f 361/35/1 362/36/1 363/32/1 364/33/1
f 365/35/1 366/36/1 367/32/1 368/33/1
f 369/35/1 370/36/1 371/32/1 372/33/1
f 373/35/1 374/36/1 375/32/1 376/33/1
f 377/35/1 378/36/1 379/32/1 380/33/1
f 381/39/1 382/40/1 383/29/1 384/31/1
f 385/36/1 386/39/1 387/31/1 388/32/1
f 389/35/1 390/36/1 391/32/1 392/33/1
f 393/35/1 394/36/1 395/32/1 396/33/1
f 397/34/1 398/33/1 399/26/1 400/27/1
f 401/30/1 402/38/1 403/22/1 404/21/1
f 405/29/1 406/30/1 407/21/1 408/23/1
f 409/31/1 410/29/1 411/23/1 412/24/1
f 413/32/1 414/31/1 415/24/1 416/25/1
f 417/30/1 418/38/1 419/22/1 420/21/1
f 421/29/1 422/30/1 423/21/1 424/23/1
f 425/31/1 426/29/1 427/23/1 428/24/1
f 429/32/1 430/31/1 431/24/1 432/25/1
f 433/33/1 434/32/1 435/25/1 436/26/1
f 437/34/1 438/33/1 439/26/1 440/27/1
f 441/41/1 442/42/1 443/38/1 444/30/1
f 445/40/1 446/41/1 447/30/1 448/29/1
f 449/39/1 450/40/1 451/29/1 452/31/1
f 453/36/1 454/39/1 455/31/1 456/32/1
f 457/41/1 458/42/1 459/38/1 460/30/1
f 461/40/1 462/41/1 463/30/1 464/29/1
f 465/39/1 466/40/1 467/29/1 468/31/1
f 469/36/1 470/39/1 471/31/1 472/32/1
f 473/35/1 474/36/1 475/32/1 476/33/1
f 477/37/1 478/35/1 479/33/1 480/34/1

