# Tiled2Unity generated file. Do not modify by hand.
# Wavefront file for 'dungeon1_mesh_0021.obj'

# Vertices (Count = 784)
v -15 -4 0
v -16 -4 0
v -16 -3 0
v -15 -3 0
v -14 -4 0
v -15 -4 0
v -15 -3 0
v -14 -3 0
v -13 -4 0
v -14 -4 0
v -14 -3 0
v -13 -3 0
v -12 -4 0
v -13 -4 0
v -13 -3 0
v -12 -3 0
v -11 -4 0
v -12 -4 0
v -12 -3 0
v -11 -3 0
v -10 -4 0
v -11 -4 0
v -11 -3 0
v -10 -3 0
v -9 -4 0
v -10 -4 0
v -10 -3 0
v -9 -3 0
v -8 -4 0
v -9 -4 0
v -9 -3 0
v -8 -3 0
v -7 -4 0
v -8 -4 0
v -8 -3 0
v -7 -3 0
v -6 -4 0
v -7 -4 0
v -7 -3 0
v -6 -3 0
v -5 -4 0
v -6 -4 0
v -6 -3 0
v -5 -3 0
v -4 -4 0
v -5 -4 0
v -5 -3 0
v -4 -3 0
v -3 -4 0
v -4 -4 0
v -4 -3 0
v -3 -3 0
v -2 -4 0
v -3 -4 0
v -3 -3 0
v -2 -3 0
v -1 -4 0
v -2 -4 0
v -2 -3 0
v -1 -3 0
v 0 -4 0
v -1 -4 0
v -1 -3 0
v 0 -3 0
v -15 -5 0
v -16 -5 0
v -16 -4 0
v -15 -4 0
v -14 -5 0
v -15 -5 0
v -15 -4 0
v -14 -4 0
v -13 -5 0
v -14 -5 0
v -14 -4 0
v -13 -4 0
v -12 -5 0
v -13 -5 0
v -13 -4 0
v -12 -4 0
v -11 -5 0
v -12 -5 0
v -12 -4 0
v -11 -4 0
v -10 -5 0
v -11 -5 0
v -11 -4 0
v -10 -4 0
v -9 -5 0
v -10 -5 0
v -10 -4 0
v -9 -4 0
v -8 -5 0
v -9 -5 0
v -9 -4 0
v -8 -4 0
v -7 -5 0
v -8 -5 0
v -8 -4 0
v -7 -4 0
v -6 -5 0
v -7 -5 0
v -7 -4 0
v -6 -4 0
v -5 -5 0
v -6 -5 0
v -6 -4 0
v -5 -4 0
v -4 -5 0
v -5 -5 0
v -5 -4 0
v -4 -4 0
v -3 -5 0
v -4 -5 0
v -4 -4 0
v -3 -4 0
v -2 -5 0
v -3 -5 0
v -3 -4 0
v -2 -4 0
v -1 -5 0
v -2 -5 0
v -2 -4 0
v -1 -4 0
v 0 -5 0
v -1 -5 0
v -1 -4 0
v 0 -4 0
v -15 -6 0
v -16 -6 0
v -16 -5 0
v -15 -5 0
v -14 -6 0
v -15 -6 0
v -15 -5 0
v -14 -5 0
v -13 -6 0
v -14 -6 0
v -14 -5 0
v -13 -5 0
v -12 -6 0
v -13 -6 0
v -13 -5 0
v -12 -5 0
v -11 -6 0
v -12 -6 0
v -12 -5 0
v -11 -5 0
v -10 -6 0
v -11 -6 0
v -11 -5 0
v -10 -5 0
v -9 -6 0
v -10 -6 0
v -10 -5 0
v -9 -5 0
v -8 -6 0
v -9 -6 0
v -9 -5 0
v -8 -5 0
v -7 -6 0
v -8 -6 0
v -8 -5 0
v -7 -5 0
v -6 -6 0
v -7 -6 0
v -7 -5 0
v -6 -5 0
v -5 -6 0
v -6 -6 0
v -6 -5 0
v -5 -5 0
v -4 -6 0
v -5 -6 0
v -5 -5 0
v -4 -5 0
v -3 -6 0
v -4 -6 0
v -4 -5 0
v -3 -5 0
v -2 -6 0
v -3 -6 0
v -3 -5 0
v -2 -5 0
v -1 -6 0
v -2 -6 0
v -2 -5 0
v -1 -5 0
v 0 -6 0
v -1 -6 0
v -1 -5 0
v 0 -5 0
v -15 -7 0
v -16 -7 0
v -16 -6 0
v -15 -6 0
v -14 -7 0
v -15 -7 0
v -15 -6 0
v -14 -6 0
v -13 -7 0
v -14 -7 0
v -14 -6 0
v -13 -6 0
v -12 -7 0
v -13 -7 0
v -13 -6 0
v -12 -6 0
v -11 -7 0
v -12 -7 0
v -12 -6 0
v -11 -6 0
v -10 -7 0
v -11 -7 0
v -11 -6 0
v -10 -6 0
v -9 -7 0
v -10 -7 0
v -10 -6 0
v -9 -6 0
v -8 -7 0
v -9 -7 0
v -9 -6 0
v -8 -6 0
v -7 -7 0
v -8 -7 0
v -8 -6 0
v -7 -6 0
v -6 -7 0
v -7 -7 0
v -7 -6 0
v -6 -6 0
v -5 -7 0
v -6 -7 0
v -6 -6 0
v -5 -6 0
v -4 -7 0
v -5 -7 0
v -5 -6 0
v -4 -6 0
v -3 -7 0
v -4 -7 0
v -4 -6 0
v -3 -6 0
v -2 -7 0
v -3 -7 0
v -3 -6 0
v -2 -6 0
v -1 -7 0
v -2 -7 0
v -2 -6 0
v -1 -6 0
v 0 -7 0
v -1 -7 0
v -1 -6 0
v 0 -6 0
v -15 -8 0
v -16 -8 0
v -16 -7 0
v -15 -7 0
v -14 -8 0
v -15 -8 0
v -15 -7 0
v -14 -7 0
v -13 -8 0
v -14 -8 0
v -14 -7 0
v -13 -7 0
v -12 -8 0
v -13 -8 0
v -13 -7 0
v -12 -7 0
v -11 -8 0
v -12 -8 0
v -12 -7 0
v -11 -7 0
v -10 -8 0
v -11 -8 0
v -11 -7 0
v -10 -7 0
v -9 -8 0
v -10 -8 0
v -10 -7 0
v -9 -7 0
v -8 -8 0
v -9 -8 0
v -9 -7 0
v -8 -7 0
v -7 -8 0
v -8 -8 0
v -8 -7 0
v -7 -7 0
v -6 -8 0
v -7 -8 0
v -7 -7 0
v -6 -7 0
v -5 -8 0
v -6 -8 0
v -6 -7 0
v -5 -7 0
v -4 -8 0
v -5 -8 0
v -5 -7 0
v -4 -7 0
v -3 -8 0
v -4 -8 0
v -4 -7 0
v -3 -7 0
v -2 -8 0
v -3 -8 0
v -3 -7 0
v -2 -7 0
v -1 -8 0
v -2 -8 0
v -2 -7 0
v -1 -7 0
v 0 -8 0
v -1 -8 0
v -1 -7 0
v 0 -7 0
v -15 -9 0
v -16 -9 0
v -16 -8 0
v -15 -8 0
v -14 -9 0
v -15 -9 0
v -15 -8 0
v -14 -8 0
v -13 -9 0
v -14 -9 0
v -14 -8 0
v -13 -8 0
v -12 -9 0
v -13 -9 0
v -13 -8 0
v -12 -8 0
v -11 -9 0
v -12 -9 0
v -12 -8 0
v -11 -8 0
v -10 -9 0
v -11 -9 0
v -11 -8 0
v -10 -8 0
v -9 -9 0
v -10 -9 0
v -10 -8 0
v -9 -8 0
v -8 -9 0
v -9 -9 0
v -9 -8 0
v -8 -8 0
v -7 -9 0
v -8 -9 0
v -8 -8 0
v -7 -8 0
v -6 -9 0
v -7 -9 0
v -7 -8 0
v -6 -8 0
v -5 -9 0
v -6 -9 0
v -6 -8 0
v -5 -8 0
v -4 -9 0
v -5 -9 0
v -5 -8 0
v -4 -8 0
v -3 -9 0
v -4 -9 0
v -4 -8 0
v -3 -8 0
v -2 -9 0
v -3 -9 0
v -3 -8 0
v -2 -8 0
v -1 -9 0
v -2 -9 0
v -2 -8 0
v -1 -8 0
v 0 -9 0
v -1 -9 0
v -1 -8 0
v 0 -8 0
v -15 -10 0
v -16 -10 0
v -16 -9 0
v -15 -9 0
v -14 -10 0
v -15 -10 0
v -15 -9 0
v -14 -9 0
v -13 -10 0
v -14 -10 0
v -14 -9 0
v -13 -9 0
v -12 -10 0
v -13 -10 0
v -13 -9 0
v -12 -9 0
v -11 -10 0
v -12 -10 0
v -12 -9 0
v -11 -9 0
v -10 -10 0
v -11 -10 0
v -11 -9 0
v -10 -9 0
v -9 -10 0
v -10 -10 0
v -10 -9 0
v -9 -9 0
v -8 -10 0
v -9 -10 0
v -9 -9 0
v -8 -9 0
v -7 -10 0
v -8 -10 0
v -8 -9 0
v -7 -9 0
v -6 -10 0
v -7 -10 0
v -7 -9 0
v -6 -9 0
v -5 -10 0
v -6 -10 0
v -6 -9 0
v -5 -9 0
v -4 -10 0
v -5 -10 0
v -5 -9 0
v -4 -9 0
v -3 -10 0
v -4 -10 0
v -4 -9 0
v -3 -9 0
v -2 -10 0
v -3 -10 0
v -3 -9 0
v -2 -9 0
v -1 -10 0
v -2 -10 0
v -2 -9 0
v -1 -9 0
v 0 -10 0
v -1 -10 0
v -1 -9 0
v 0 -9 0
v -15 -11 0
v -16 -11 0
v -16 -10 0
v -15 -10 0
v -14 -11 0
v -15 -11 0
v -15 -10 0
v -14 -10 0
v -13 -11 0
v -14 -11 0
v -14 -10 0
v -13 -10 0
v -12 -11 0
v -13 -11 0
v -13 -10 0
v -12 -10 0
v -11 -11 0
v -12 -11 0
v -12 -10 0
v -11 -10 0
v -10 -11 0
v -11 -11 0
v -11 -10 0
v -10 -10 0
v -9 -11 0
v -10 -11 0
v -10 -10 0
v -9 -10 0
v -8 -11 0
v -9 -11 0
v -9 -10 0
v -8 -10 0
v -7 -11 0
v -8 -11 0
v -8 -10 0
v -7 -10 0
v -6 -11 0
v -7 -11 0
v -7 -10 0
v -6 -10 0
v -5 -11 0
v -6 -11 0
v -6 -10 0
v -5 -10 0
v -4 -11 0
v -5 -11 0
v -5 -10 0
v -4 -10 0
v -3 -11 0
v -4 -11 0
v -4 -10 0
v -3 -10 0
v -2 -11 0
v -3 -11 0
v -3 -10 0
v -2 -10 0
v -15 -12 0
v -16 -12 0
v -16 -11 0
v -15 -11 0
v -14 -12 0
v -15 -12 0
v -15 -11 0
v -14 -11 0
v -13 -12 0
v -14 -12 0
v -14 -11 0
v -13 -11 0
v -12 -12 0
v -13 -12 0
v -13 -11 0
v -12 -11 0
v -11 -12 0
v -12 -12 0
v -12 -11 0
v -11 -11 0
v -10 -12 0
v -11 -12 0
v -11 -11 0
v -10 -11 0
v -9 -12 0
v -10 -12 0
v -10 -11 0
v -9 -11 0
v -8 -12 0
v -9 -12 0
v -9 -11 0
v -8 -11 0
v -7 -12 0
v -8 -12 0
v -8 -11 0
v -7 -11 0
v -6 -12 0
v -7 -12 0
v -7 -11 0
v -6 -11 0
v -5 -12 0
v -6 -12 0
v -6 -11 0
v -5 -11 0
v -4 -12 0
v -5 -12 0
v -5 -11 0
v -4 -11 0
v -3 -12 0
v -4 -12 0
v -4 -11 0
v -3 -11 0
v -2 -12 0
v -3 -12 0
v -3 -11 0
v -2 -11 0
v -15 -13 0
v -16 -13 0
v -16 -12 0
v -15 -12 0
v -14 -13 0
v -15 -13 0
v -15 -12 0
v -14 -12 0
v -13 -13 0
v -14 -13 0
v -14 -12 0
v -13 -12 0
v -12 -13 0
v -13 -13 0
v -13 -12 0
v -12 -12 0
v -11 -13 0
v -12 -13 0
v -12 -12 0
v -11 -12 0
v -10 -13 0
v -11 -13 0
v -11 -12 0
v -10 -12 0
v -9 -13 0
v -10 -13 0
v -10 -12 0
v -9 -12 0
v -8 -13 0
v -9 -13 0
v -9 -12 0
v -8 -12 0
v -7 -13 0
v -8 -13 0
v -8 -12 0
v -7 -12 0
v -6 -13 0
v -7 -13 0
v -7 -12 0
v -6 -12 0
v -5 -13 0
v -6 -13 0
v -6 -12 0
v -5 -12 0
v -4 -13 0
v -5 -13 0
v -5 -12 0
v -4 -12 0
v -3 -13 0
v -4 -13 0
v -4 -12 0
v -3 -12 0
v -2 -13 0
v -3 -13 0
v -3 -12 0
v -2 -12 0
v -15 -14 0
v -16 -14 0
v -16 -13 0
v -15 -13 0
v -14 -14 0
v -15 -14 0
v -15 -13 0
v -14 -13 0
v -13 -14 0
v -14 -14 0
v -14 -13 0
v -13 -13 0
v -12 -14 0
v -13 -14 0
v -13 -13 0
v -12 -13 0
v -11 -14 0
v -12 -14 0
v -12 -13 0
v -11 -13 0
v -10 -14 0
v -11 -14 0
v -11 -13 0
v -10 -13 0
v -9 -14 0
v -10 -14 0
v -10 -13 0
v -9 -13 0
v -8 -14 0
v -9 -14 0
v -9 -13 0
v -8 -13 0
v -7 -14 0
v -8 -14 0
v -8 -13 0
v -7 -13 0
v -6 -14 0
v -7 -14 0
v -7 -13 0
v -6 -13 0
v -5 -14 0
v -6 -14 0
v -6 -13 0
v -5 -13 0
v -4 -14 0
v -5 -14 0
v -5 -13 0
v -4 -13 0
v -3 -14 0
v -4 -14 0
v -4 -13 0
v -3 -13 0
v -2 -14 0
v -3 -14 0
v -3 -13 0
v -2 -13 0
v -15 -15 0
v -16 -15 0
v -16 -14 0
v -15 -14 0
v -14 -15 0
v -15 -15 0
v -15 -14 0
v -14 -14 0
v -13 -15 0
v -14 -15 0
v -14 -14 0
v -13 -14 0
v -12 -15 0
v -13 -15 0
v -13 -14 0
v -12 -14 0
v -11 -15 0
v -12 -15 0
v -12 -14 0
v -11 -14 0
v -10 -15 0
v -11 -15 0
v -11 -14 0
v -10 -14 0
v -9 -15 0
v -10 -15 0
v -10 -14 0
v -9 -14 0
v -8 -15 0
v -9 -15 0
v -9 -14 0
v -8 -14 0
v -7 -15 0
v -8 -15 0
v -8 -14 0
v -7 -14 0
v -6 -15 0
v -7 -15 0
v -7 -14 0
v -6 -14 0
v -5 -15 0
v -6 -15 0
v -6 -14 0
v -5 -14 0
v -4 -15 0
v -5 -15 0
v -5 -14 0
v -4 -14 0
v -3 -15 0
v -4 -15 0
v -4 -14 0
v -3 -14 0
v -2 -15 0
v -3 -15 0
v -3 -14 0
v -2 -14 0
v -15 -16 0
v -16 -16 0
v -16 -15 0
v -15 -15 0
v -14 -16 0
v -15 -16 0
v -15 -15 0
v -14 -15 0
v -13 -16 0
v -14 -16 0
v -14 -15 0
v -13 -15 0
v -12 -16 0
v -13 -16 0
v -13 -15 0
v -12 -15 0
v -11 -16 0
v -12 -16 0
v -12 -15 0
v -11 -15 0
v -10 -16 0
v -11 -16 0
v -11 -15 0
v -10 -15 0
v -9 -16 0
v -10 -16 0
v -10 -15 0
v -9 -15 0
v -8 -16 0
v -9 -16 0
v -9 -15 0
v -8 -15 0
v -7 -16 0
v -8 -16 0
v -8 -15 0
v -7 -15 0
v -6 -16 0
v -7 -16 0
v -7 -15 0
v -6 -15 0
v -5 -16 0
v -6 -16 0
v -6 -15 0
v -5 -15 0
v -4 -16 0
v -5 -16 0
v -5 -15 0
v -4 -15 0
v -3 -16 0
v -4 -16 0
v -4 -15 0
v -3 -15 0
v -2 -16 0
v -3 -16 0
v -3 -15 0
v -2 -15 0

# Texture cooridinates (Count = 40)
vt 0.3243243 0.1956522
vt 0.3513514 0.1956522
vt 0.3513514 0.2173913
vt 0.3243243 0.2173913
vt 0.2972973 0.1956522
vt 0.2972973 0.2173913
vt 0.2702703 0.1956522
vt 0.2702703 0.2173913
vt 0.2432432 0.1956522
vt 0.2432432 0.2173913
vt 0.2162162 0.1956522
vt 0.2162162 0.2173913
vt 0.3243243 0.1739131
vt 0.3513514 0.1739131
vt 0.2972973 0.1739131
vt 0.2702703 0.1739131
vt 0.2432432 0.1739131
vt 0.2162162 0.1739131
vt 0.3243243 0.1521739
vt 0.3513514 0.1521739
vt 0.2972973 0.1521739
vt 0.2702703 0.1521739
vt 0.2432432 0.1521739
vt 0.2702703 0.9347826
vt 0.2972973 0.9347826
vt 0.2972973 0.9565217
vt 0.2702703 0.9565217
vt 0.2432432 0.9347826
vt 0.2432432 0.9565217
vt 0.2162162 0.9347826
vt 0.2162162 0.9565217
vt 0.2162162 0.1521739
vt 0.2432432 0.9130435
vt 0.2162162 0.9130435
vt 0.2432432 0.8913044
vt 0.2162162 0.8913044
vt 0.2702703 0.9130435
vt 0.2972973 0.9130435
vt 0.2702703 0.8913044
vt 0.2972973 0.8913044

# Normal
vn 0 0 -1

# Mesh description
g dungeon1_mesh_0021

# Faces
f 1/1/1 2/2/1 3/3/1 4/4/1
f 5/5/1 6/1/1 7/4/1 8/6/1
f 9/7/1 10/5/1 11/6/1 12/8/1
f 13/9/1 14/7/1 15/8/1 16/10/1
f 17/11/1 18/9/1 19/10/1 20/12/1
f 21/1/1 22/2/1 23/3/1 24/4/1
f 25/5/1 26/1/1 27/4/1 28/6/1
f 29/7/1 30/5/1 31/6/1 32/8/1
f 33/9/1 34/7/1 35/8/1 36/10/1
f 37/11/1 38/9/1 39/10/1 40/12/1
f 41/1/1 42/2/1 43/3/1 44/4/1
f 45/5/1 46/1/1 47/4/1 48/6/1
f 49/7/1 50/5/1 51/6/1 52/8/1
f 53/9/1 54/7/1 55/8/1 56/10/1
f 57/11/1 58/9/1 59/10/1 60/12/1
f 61/1/1 62/2/1 63/3/1 64/4/1
f 65/13/1 66/14/1 67/2/1 68/1/1
f 69/15/1 70/13/1 71/1/1 72/5/1
f 73/16/1 74/15/1 75/5/1 76/7/1
f 77/17/1 78/16/1 79/7/1 80/9/1
f 81/18/1 82/17/1 83/9/1 84/11/1
f 85/13/1 86/14/1 87/2/1 88/1/1
f 89/15/1 90/13/1 91/1/1 92/5/1
f 93/16/1 94/15/1 95/5/1 96/7/1
f 97/17/1 98/16/1 99/7/1 100/9/1
f 101/18/1 102/17/1 103/9/1 104/11/1
f 105/13/1 106/14/1 107/2/1 108/1/1
f 109/15/1 110/13/1 111/1/1 112/5/1
f 113/16/1 114/15/1 115/5/1 116/7/1
f 117/17/1 118/16/1 119/7/1 120/9/1
f 121/18/1 122/17/1 123/9/1 124/11/1
f 125/13/1 126/14/1 127/2/1 128/1/1
f 129/19/1 130/20/1 131/14/1 132/13/1
f 133/21/1 134/19/1 135/13/1 136/15/1
f 137/22/1 138/21/1 139/15/1 140/16/1
f 141/23/1 142/22/1 143/16/1 144/17/1
f 145/24/1 146/25/1 147/26/1 148/27/1
f 149/24/1 150/25/1 151/26/1 152/27/1
f 153/24/1 154/25/1 155/26/1 156/27/1
f 157/28/1 158/24/1 159/27/1 160/29/1
f 161/30/1 162/28/1 163/29/1 164/31/1
f 165/32/1 166/23/1 167/17/1 168/18/1
f 169/19/1 170/20/1 171/14/1 172/13/1
f 173/21/1 174/19/1 175/13/1 176/15/1
f 177/22/1 178/21/1 179/15/1 180/16/1
f 181/23/1 182/22/1 183/16/1 184/17/1
f 185/32/1 186/23/1 187/17/1 188/18/1
f 189/19/1 190/20/1 191/14/1 192/13/1
f 193/33/1 194/28/1 195/30/1 196/34/1
f 197/35/1 198/33/1 199/34/1 200/36/1
f 201/28/1 202/29/1 203/31/1 204/30/1
f 205/33/1 206/28/1 207/30/1 208/34/1
f 209/37/1 210/38/1 211/25/1 212/24/1
f 213/37/1 214/38/1 215/25/1 216/24/1
f 217/24/1 218/25/1 219/26/1 220/27/1
f 221/24/1 222/25/1 223/26/1 224/27/1
f 225/24/1 226/25/1 227/26/1 228/27/1
f 229/24/1 230/25/1 231/26/1 232/27/1
f 233/24/1 234/25/1 235/26/1 236/27/1
f 237/24/1 238/25/1 239/26/1 240/27/1
f 241/24/1 242/25/1 243/26/1 244/27/1
f 245/24/1 246/25/1 247/26/1 248/27/1
f 249/24/1 250/25/1 251/26/1 252/27/1
f 253/24/1 254/25/1 255/26/1 256/27/1
f 257/33/1 258/28/1 259/30/1 260/34/1
f 261/35/1 262/33/1 263/34/1 264/36/1
f 265/35/1 266/33/1 267/34/1 268/36/1
f 269/33/1 270/28/1 271/30/1 272/34/1
f 273/37/1 274/38/1 275/25/1 276/24/1
f 277/33/1 278/37/1 279/24/1 280/28/1
f 281/37/1 282/38/1 283/25/1 284/24/1
f 285/37/1 286/38/1 287/25/1 288/24/1
f 289/37/1 290/38/1 291/25/1 292/24/1
f 293/37/1 294/38/1 295/25/1 296/24/1
f 297/24/1 298/25/1 299/26/1 300/27/1
f 301/37/1 302/38/1 303/25/1 304/24/1
f 305/24/1 306/25/1 307/26/1 308/27/1
f 309/28/1 310/24/1 311/27/1 312/29/1
f 313/30/1 314/28/1 315/29/1 316/31/1
f 317/30/1 318/28/1 319/29/1 320/31/1
f 321/33/1 322/28/1 323/30/1 324/34/1
f 325/35/1 326/33/1 327/34/1 328/36/1
f 329/35/1 330/33/1 331/34/1 332/36/1
f 333/33/1 334/28/1 335/30/1 336/34/1
f 337/37/1 338/38/1 339/25/1 340/24/1
f 341/24/1 342/25/1 343/26/1 344/27/1
f 345/24/1 346/25/1 347/26/1 348/27/1
f 349/37/1 350/38/1 351/25/1 352/24/1
f 353/33/1 354/37/1 355/24/1 356/28/1
f 357/34/1 358/33/1 359/28/1 360/30/1
f 361/37/1 362/38/1 363/25/1 364/24/1
f 365/37/1 366/38/1 367/25/1 368/24/1
f 369/37/1 370/38/1 371/25/1 372/24/1
f 373/33/1 374/37/1 375/24/1 376/28/1
f 377/34/1 378/33/1 379/28/1 380/30/1
f 381/34/1 382/33/1 383/28/1 384/30/1
f 385/37/1 386/24/1 387/28/1 388/33/1
f 389/39/1 390/37/1 391/33/1 392/35/1
f 393/35/1 394/33/1 395/34/1 396/36/1
f 397/33/1 398/28/1 399/30/1 400/34/1
f 401/37/1 402/38/1 403/25/1 404/24/1
f 405/37/1 406/38/1 407/25/1 408/24/1
f 409/37/1 410/38/1 411/25/1 412/24/1
f 413/37/1 414/38/1 415/25/1 416/24/1
f 417/33/1 418/37/1 419/24/1 420/28/1
f 421/34/1 422/33/1 423/28/1 424/30/1
f 425/37/1 426/38/1 427/25/1 428/24/1
f 429/33/1 430/37/1 431/24/1 432/28/1
f 433/34/1 434/33/1 435/28/1 436/30/1
f 437/34/1 438/33/1 439/28/1 440/30/1
f 441/34/1 442/33/1 443/28/1 444/30/1
f 445/34/1 446/33/1 447/28/1 448/30/1
f 449/38/1 450/25/1 451/24/1 452/37/1
f 453/40/1 454/38/1 455/37/1 456/39/1
f 457/39/1 458/37/1 459/33/1 460/35/1
f 461/35/1 462/33/1 463/34/1 464/36/1
f 465/37/1 466/38/1 467/25/1 468/24/1
f 469/37/1 470/38/1 471/25/1 472/24/1
f 473/33/1 474/37/1 475/24/1 476/28/1
f 477/34/1 478/33/1 479/28/1 480/30/1
f 481/37/1 482/38/1 483/25/1 484/24/1
f 485/33/1 486/37/1 487/24/1 488/28/1
f 489/34/1 490/33/1 491/28/1 492/30/1
f 493/30/1 494/28/1 495/29/1 496/31/1
f 497/30/1 498/28/1 499/29/1 500/31/1
f 501/34/1 502/33/1 503/28/1 504/30/1
f 505/38/1 506/25/1 507/24/1 508/37/1
f 509/40/1 510/38/1 511/37/1 512/39/1
f 513/40/1 514/38/1 515/37/1 516/39/1
f 517/35/1 518/33/1 519/34/1 520/36/1
f 521/37/1 522/38/1 523/25/1 524/24/1
f 525/37/1 526/38/1 527/25/1 528/24/1
f 529/37/1 530/38/1 531/25/1 532/24/1
f 533/33/1 534/37/1 535/24/1 536/28/1
f 537/37/1 538/38/1 539/25/1 540/24/1
f 541/33/1 542/37/1 543/24/1 544/28/1
f 545/34/1 546/33/1 547/28/1 548/30/1
f 549/30/1 550/28/1 551/29/1 552/31/1
f 553/30/1 554/28/1 555/29/1 556/31/1
f 557/34/1 558/33/1 559/28/1 560/30/1
f 561/39/1 562/37/1 563/33/1 564/35/1
f 565/39/1 566/37/1 567/33/1 568/35/1
f 569/39/1 570/37/1 571/33/1 572/35/1
f 573/39/1 574/37/1 575/33/1 576/35/1
f 577/37/1 578/38/1 579/25/1 580/24/1
f 581/37/1 582/38/1 583/25/1 584/24/1
f 585/37/1 586/38/1 587/25/1 588/24/1
f 589/37/1 590/38/1 591/25/1 592/24/1
f 593/37/1 594/38/1 595/25/1 596/24/1
f 597/33/1 598/37/1 599/24/1 600/28/1
f 601/34/1 602/33/1 603/28/1 604/30/1
f 605/34/1 606/33/1 607/28/1 608/30/1
f 609/30/1 610/28/1 611/29/1 612/31/1
f 613/34/1 614/33/1 615/28/1 616/30/1
f 617/40/1 618/38/1 619/37/1 620/39/1
f 621/40/1 622/38/1 623/37/1 624/39/1
f 625/40/1 626/38/1 627/37/1 628/39/1
f 629/40/1 630/38/1 631/37/1 632/39/1
f 633/37/1 634/38/1 635/25/1 636/24/1
f 637/33/1 638/37/1 639/24/1 640/28/1
f 641/37/1 642/38/1 643/25/1 644/24/1
f 645/33/1 646/37/1 647/24/1 648/28/1
f 649/34/1 650/33/1 651/28/1 652/30/1
f 653/37/1 654/38/1 655/25/1 656/24/1
f 657/33/1 658/37/1 659/24/1 660/28/1
f 661/34/1 662/33/1 663/28/1 664/30/1
f 665/30/1 666/28/1 667/29/1 668/31/1
f 669/34/1 670/33/1 671/28/1 672/30/1
f 673/24/1 674/27/1 675/29/1 676/28/1
f 677/24/1 678/27/1 679/29/1 680/28/1
f 681/24/1 682/27/1 683/29/1 684/28/1
f 685/37/1 686/24/1 687/28/1 688/33/1
f 689/37/1 690/38/1 691/25/1 692/24/1
f 693/33/1 694/37/1 695/24/1 696/28/1
f 697/34/1 698/33/1 699/28/1 700/30/1
f 701/30/1 702/28/1 703/29/1 704/31/1
f 705/30/1 706/28/1 707/29/1 708/31/1
f 709/37/1 710/38/1 711/25/1 712/24/1
f 713/33/1 714/37/1 715/24/1 716/28/1
f 717/34/1 718/33/1 719/28/1 720/30/1
f 721/34/1 722/33/1 723/28/1 724/30/1
f 725/34/1 726/33/1 727/28/1 728/30/1
f 729/25/1 730/26/1 731/27/1 732/24/1
f 733/25/1 734/26/1 735/27/1 736/24/1
f 737/25/1 738/26/1 739/27/1 740/24/1
f 741/38/1 742/25/1 743/24/1 744/37/1
f 745/37/1 746/38/1 747/25/1 748/24/1
f 749/33/1 750/37/1 751/24/1 752/28/1
f 753/34/1 754/33/1 755/28/1 756/30/1
f 757/34/1 758/33/1 759/28/1 760/30/1
f 761/34/1 762/33/1 763/28/1 764/30/1
f 765/34/1 766/33/1 767/28/1 768/30/1
f 769/34/1 770/33/1 771/28/1 772/30/1
f 773/34/1 774/33/1 775/28/1 776/30/1
f 777/34/1 778/33/1 779/28/1 780/30/1
f 781/34/1 782/33/1 783/28/1 784/30/1

