# Tiled2Unity generated file. Do not modify by hand.
# Wavefront file for 'dungeon1_mesh_0140.obj'

# Vertices (Count = 204)
v -15 -1 0
v -16 -1 0
v -16 0 0
v -15 0 0
v -14 -1 0
v -15 -1 0
v -15 0 0
v -14 0 0
v -13 -1 0
v -14 -1 0
v -14 0 0
v -13 0 0
v -12 -1 0
v -13 -1 0
v -13 0 0
v -12 0 0
v -11 -1 0
v -12 -1 0
v -12 0 0
v -11 0 0
v -10 -1 0
v -11 -1 0
v -11 0 0
v -10 0 0
v -9 -1 0
v -10 -1 0
v -10 0 0
v -9 0 0
v -8 -1 0
v -9 -1 0
v -9 0 0
v -8 0 0
v -15 -2 0
v -16 -2 0
v -16 -1 0
v -15 -1 0
v -14 -2 0
v -15 -2 0
v -15 -1 0
v -14 -1 0
v -13 -2 0
v -14 -2 0
v -14 -1 0
v -13 -1 0
v -12 -2 0
v -13 -2 0
v -13 -1 0
v -12 -1 0
v -11 -2 0
v -12 -2 0
v -12 -1 0
v -11 -1 0
v -10 -2 0
v -11 -2 0
v -11 -1 0
v -10 -1 0
v -9 -2 0
v -10 -2 0
v -10 -1 0
v -9 -1 0
v -8 -2 0
v -9 -2 0
v -9 -1 0
v -8 -1 0
v -15 -6 0
v -16 -6 0
v -16 -5 0
v -15 -5 0
v -14 -6 0
v -15 -6 0
v -15 -5 0
v -14 -5 0
v -13 -6 0
v -14 -6 0
v -14 -5 0
v -13 -5 0
v -12 -6 0
v -13 -6 0
v -13 -5 0
v -12 -5 0
v -11 -6 0
v -12 -6 0
v -12 -5 0
v -11 -5 0
v -10 -6 0
v -11 -6 0
v -11 -5 0
v -10 -5 0
v -9 -6 0
v -10 -6 0
v -10 -5 0
v -9 -5 0
v -8 -6 0
v -9 -6 0
v -9 -5 0
v -8 -5 0
v -9 -7 0
v -10 -7 0
v -10 -6 0
v -9 -6 0
v -8 -7 0
v -9 -7 0
v -9 -6 0
v -8 -6 0
v -9 -8 0
v -10 -8 0
v -10 -7 0
v -9 -7 0
v -8 -8 0
v -9 -8 0
v -9 -7 0
v -8 -7 0
v -9 -9 0
v -10 -9 0
v -10 -8 0
v -9 -8 0
v -8 -9 0
v -9 -9 0
v -9 -8 0
v -8 -8 0
v -2 -9 0
v -3 -9 0
v -3 -8 0
v -2 -8 0
v -9 -10 0
v -10 -10 0
v -10 -9 0
v -9 -9 0
v -8 -10 0
v -9 -10 0
v -9 -9 0
v -8 -9 0
v -2 -10 0
v -3 -10 0
v -3 -9 0
v -2 -9 0
v 0 -10 0
v -1 -10 0
v -1 -9 0
v 0 -9 0
v -9 -11 0
v -10 -11 0
v -10 -10 0
v -9 -10 0
v -8 -11 0
v -9 -11 0
v -9 -10 0
v -8 -10 0
v -2 -11 0
v -3 -11 0
v -3 -10 0
v -2 -10 0
v 0 -11 0
v -1 -11 0
v -1 -10 0
v 0 -10 0
v -9 -12 0
v -10 -12 0
v -10 -11 0
v -9 -11 0
v -8 -12 0
v -9 -12 0
v -9 -11 0
v -8 -11 0
v -2 -12 0
v -3 -12 0
v -3 -11 0
v -2 -11 0
v -9 -13 0
v -10 -13 0
v -10 -12 0
v -9 -12 0
v -8 -13 0
v -9 -13 0
v -9 -12 0
v -8 -12 0
v -2 -13 0
v -3 -13 0
v -3 -12 0
v -2 -12 0
v -9 -14 0
v -10 -14 0
v -10 -13 0
v -9 -13 0
v -8 -14 0
v -9 -14 0
v -9 -13 0
v -8 -13 0
v -9 -15 0
v -10 -15 0
v -10 -14 0
v -9 -14 0
v -8 -15 0
v -9 -15 0
v -9 -14 0
v -8 -14 0
v -9 -16 0
v -10 -16 0
v -10 -15 0
v -9 -15 0
v -8 -16 0
v -9 -16 0
v -9 -15 0
v -8 -15 0

# Texture cooridinates (Count = 64)
vt 0.3513514 0.7608696
vt 0.3783784 0.7608696
vt 0.3783784 0.7826087
vt 0.3513514 0.7826087
vt 0.3243243 0.7608696
vt 0.3243243 0.7826087
vt 0.2972973 0.7608696
vt 0.2972973 0.7826087
vt 0.2702703 0.7608696
vt 0.2702703 0.7826087
vt 0.2432432 0.7608696
vt 0.2432432 0.7826087
vt 0.2162162 0.7608696
vt 0.2162162 0.7826087
vt 0.1891892 0.7608696
vt 0.1891892 0.7826087
vt 0.1351351 0.7608696
vt 0.1621622 0.7608696
vt 0.1621622 0.7826087
vt 0.1351351 0.7826087
vt 0.3513514 0.7391304
vt 0.3783784 0.7391304
vt 0.3243243 0.7391304
vt 0.2972973 0.7391304
vt 0.2702703 0.7391304
vt 0.2432432 0.7391304
vt 0.2162162 0.7391304
vt 0.1891892 0.7391304
vt 0.1351351 0.7391304
vt 0.1621622 0.7391304
vt 0.3783784 0.9782609
vt 0.4054054 0.9782609
vt 0.4054054 1
vt 0.3783784 1
vt 0.3513514 0.9782609
vt 0.3513514 1
vt 0.1621622 0.9782609
vt 0.1891892 0.9782609
vt 0.1891892 1
vt 0.1621622 1
vt 0.1621622 0.8043478
vt 0.1351351 0.8043478
vt 0.1621622 0.9347826
vt 0.1891892 0.9347826
vt 0.1891892 0.9565217
vt 0.1621622 0.9565217
vt 0.5675676 0.6956522
vt 0.5945946 0.6956522
vt 0.5945946 0.7173913
vt 0.5675676 0.7173913
vt 0.5675676 0.673913
vt 0.5945946 0.673913
vt 0.5675676 0.4782609
vt 0.5945946 0.4782609
vt 0.5945946 0.5
vt 0.5675676 0.5
vt 0.5675676 0.6521739
vt 0.5945946 0.6521739
vt 0.5675676 0.4565217
vt 0.5945946 0.4565217
vt 0.5675676 0.6304348
vt 0.5945946 0.6304348
vt 0.5675676 0.6086956
vt 0.5945946 0.6086956

# Normal
vn 0 0 -1

# Mesh description
g dungeon1_mesh_0140

# Faces
f 1/1/1 2/2/1 3/3/1 4/4/1
f 5/5/1 6/1/1 7/4/1 8/6/1
f 9/7/1 10/5/1 11/6/1 12/8/1
f 13/9/1 14/7/1 15/8/1 16/10/1
f 17/11/1 18/9/1 19/10/1 20/12/1
f 21/13/1 22/11/1 23/12/1 24/14/1
f 25/15/1 26/13/1 27/14/1 28/16/1
f 29/17/1 30/18/1 31/19/1 32/20/1
f 33/21/1 34/22/1 35/2/1 36/1/1
f 37/23/1 38/21/1 39/1/1 40/5/1
f 41/24/1 42/23/1 43/5/1 44/7/1
f 45/25/1 46/24/1 47/7/1 48/9/1
f 49/26/1 50/25/1 51/9/1 52/11/1
f 53/27/1 54/26/1 55/11/1 56/13/1
f 57/28/1 58/27/1 59/13/1 60/15/1
f 61/29/1 62/30/1 63/18/1 64/17/1
f 65/31/1 66/32/1 67/33/1 68/34/1
f 69/31/1 70/32/1 71/33/1 72/34/1
f 73/31/1 74/32/1 75/33/1 76/34/1
f 77/31/1 78/32/1 79/33/1 80/34/1
f 81/31/1 82/32/1 83/33/1 84/34/1
f 85/35/1 86/31/1 87/34/1 88/36/1
f 89/37/1 90/38/1 91/39/1 92/40/1
f 93/20/1 94/19/1 95/41/1 96/42/1
f 97/43/1 98/44/1 99/45/1 100/46/1
f 101/20/1 102/19/1 103/41/1 104/42/1
f 105/43/1 106/44/1 107/45/1 108/46/1
f 109/20/1 110/19/1 111/41/1 112/42/1
f 113/43/1 114/44/1 115/45/1 116/46/1
f 117/20/1 118/19/1 119/41/1 120/42/1
f 121/47/1 122/48/1 123/49/1 124/50/1
f 125/43/1 126/44/1 127/45/1 128/46/1
f 129/20/1 130/19/1 131/41/1 132/42/1
f 133/51/1 134/52/1 135/48/1 136/47/1
f 137/53/1 138/54/1 139/55/1 140/56/1
f 141/43/1 142/44/1 143/45/1 144/46/1
f 145/20/1 146/19/1 147/41/1 148/42/1
f 149/57/1 150/58/1 151/52/1 152/51/1
f 153/59/1 154/60/1 155/54/1 156/53/1
f 157/43/1 158/44/1 159/45/1 160/46/1
f 161/20/1 162/19/1 163/41/1 164/42/1
f 165/61/1 166/62/1 167/58/1 168/57/1
f 169/43/1 170/44/1 171/45/1 172/46/1
f 173/20/1 174/19/1 175/41/1 176/42/1
f 177/63/1 178/64/1 179/62/1 180/61/1
f 181/43/1 182/44/1 183/45/1 184/46/1
f 185/20/1 186/19/1 187/41/1 188/42/1
f 189/43/1 190/44/1 191/45/1 192/46/1
f 193/20/1 194/19/1 195/41/1 196/42/1
f 197/43/1 198/44/1 199/45/1 200/46/1
f 201/20/1 202/19/1 203/41/1 204/42/1

