# Tiled2Unity generated file. Do not modify by hand.
# Wavefront file for 'dungeon1_mesh_0102.obj'

# Vertices (Count = 768)
v -15 -5 0
v -16 -5 0
v -16 -4 0
v -15 -4 0
v -14 -5 0
v -15 -5 0
v -15 -4 0
v -14 -4 0
v -13 -5 0
v -14 -5 0
v -14 -4 0
v -13 -4 0
v -12 -5 0
v -13 -5 0
v -13 -4 0
v -12 -4 0
v -11 -5 0
v -12 -5 0
v -12 -4 0
v -11 -4 0
v -10 -5 0
v -11 -5 0
v -11 -4 0
v -10 -4 0
v -9 -5 0
v -10 -5 0
v -10 -4 0
v -9 -4 0
v -8 -5 0
v -9 -5 0
v -9 -4 0
v -8 -4 0
v -7 -5 0
v -8 -5 0
v -8 -4 0
v -7 -4 0
v -6 -5 0
v -7 -5 0
v -7 -4 0
v -6 -4 0
v -5 -5 0
v -6 -5 0
v -6 -4 0
v -5 -4 0
v -4 -5 0
v -5 -5 0
v -5 -4 0
v -4 -4 0
v -3 -5 0
v -4 -5 0
v -4 -4 0
v -3 -4 0
v -2 -5 0
v -3 -5 0
v -3 -4 0
v -2 -4 0
v -1 -5 0
v -2 -5 0
v -2 -4 0
v -1 -4 0
v 0 -5 0
v -1 -5 0
v -1 -4 0
v 0 -4 0
v -15 -6 0
v -16 -6 0
v -16 -5 0
v -15 -5 0
v -14 -6 0
v -15 -6 0
v -15 -5 0
v -14 -5 0
v -13 -6 0
v -14 -6 0
v -14 -5 0
v -13 -5 0
v -12 -6 0
v -13 -6 0
v -13 -5 0
v -12 -5 0
v -11 -6 0
v -12 -6 0
v -12 -5 0
v -11 -5 0
v -10 -6 0
v -11 -6 0
v -11 -5 0
v -10 -5 0
v -9 -6 0
v -10 -6 0
v -10 -5 0
v -9 -5 0
v -8 -6 0
v -9 -6 0
v -9 -5 0
v -8 -5 0
v -7 -6 0
v -8 -6 0
v -8 -5 0
v -7 -5 0
v -6 -6 0
v -7 -6 0
v -7 -5 0
v -6 -5 0
v -5 -6 0
v -6 -6 0
v -6 -5 0
v -5 -5 0
v -4 -6 0
v -5 -6 0
v -5 -5 0
v -4 -5 0
v -3 -6 0
v -4 -6 0
v -4 -5 0
v -3 -5 0
v -2 -6 0
v -3 -6 0
v -3 -5 0
v -2 -5 0
v -1 -6 0
v -2 -6 0
v -2 -5 0
v -1 -5 0
v 0 -6 0
v -1 -6 0
v -1 -5 0
v 0 -5 0
v -15 -7 0
v -16 -7 0
v -16 -6 0
v -15 -6 0
v -14 -7 0
v -15 -7 0
v -15 -6 0
v -14 -6 0
v -13 -7 0
v -14 -7 0
v -14 -6 0
v -13 -6 0
v -12 -7 0
v -13 -7 0
v -13 -6 0
v -12 -6 0
v -11 -7 0
v -12 -7 0
v -12 -6 0
v -11 -6 0
v -10 -7 0
v -11 -7 0
v -11 -6 0
v -10 -6 0
v -9 -7 0
v -10 -7 0
v -10 -6 0
v -9 -6 0
v -8 -7 0
v -9 -7 0
v -9 -6 0
v -8 -6 0
v -7 -7 0
v -8 -7 0
v -8 -6 0
v -7 -6 0
v -6 -7 0
v -7 -7 0
v -7 -6 0
v -6 -6 0
v -5 -7 0
v -6 -7 0
v -6 -6 0
v -5 -6 0
v -4 -7 0
v -5 -7 0
v -5 -6 0
v -4 -6 0
v -3 -7 0
v -4 -7 0
v -4 -6 0
v -3 -6 0
v -2 -7 0
v -3 -7 0
v -3 -6 0
v -2 -6 0
v -1 -7 0
v -2 -7 0
v -2 -6 0
v -1 -6 0
v 0 -7 0
v -1 -7 0
v -1 -6 0
v 0 -6 0
v -15 -8 0
v -16 -8 0
v -16 -7 0
v -15 -7 0
v -14 -8 0
v -15 -8 0
v -15 -7 0
v -14 -7 0
v -13 -8 0
v -14 -8 0
v -14 -7 0
v -13 -7 0
v -12 -8 0
v -13 -8 0
v -13 -7 0
v -12 -7 0
v -11 -8 0
v -12 -8 0
v -12 -7 0
v -11 -7 0
v -10 -8 0
v -11 -8 0
v -11 -7 0
v -10 -7 0
v -9 -8 0
v -10 -8 0
v -10 -7 0
v -9 -7 0
v -8 -8 0
v -9 -8 0
v -9 -7 0
v -8 -7 0
v -7 -8 0
v -8 -8 0
v -8 -7 0
v -7 -7 0
v -6 -8 0
v -7 -8 0
v -7 -7 0
v -6 -7 0
v -5 -8 0
v -6 -8 0
v -6 -7 0
v -5 -7 0
v -4 -8 0
v -5 -8 0
v -5 -7 0
v -4 -7 0
v -3 -8 0
v -4 -8 0
v -4 -7 0
v -3 -7 0
v -2 -8 0
v -3 -8 0
v -3 -7 0
v -2 -7 0
v -1 -8 0
v -2 -8 0
v -2 -7 0
v -1 -7 0
v 0 -8 0
v -1 -8 0
v -1 -7 0
v 0 -7 0
v -15 -9 0
v -16 -9 0
v -16 -8 0
v -15 -8 0
v -14 -9 0
v -15 -9 0
v -15 -8 0
v -14 -8 0
v -13 -9 0
v -14 -9 0
v -14 -8 0
v -13 -8 0
v -12 -9 0
v -13 -9 0
v -13 -8 0
v -12 -8 0
v -11 -9 0
v -12 -9 0
v -12 -8 0
v -11 -8 0
v -10 -9 0
v -11 -9 0
v -11 -8 0
v -10 -8 0
v -9 -9 0
v -10 -9 0
v -10 -8 0
v -9 -8 0
v -8 -9 0
v -9 -9 0
v -9 -8 0
v -8 -8 0
v -7 -9 0
v -8 -9 0
v -8 -8 0
v -7 -8 0
v -6 -9 0
v -7 -9 0
v -7 -8 0
v -6 -8 0
v -5 -9 0
v -6 -9 0
v -6 -8 0
v -5 -8 0
v -4 -9 0
v -5 -9 0
v -5 -8 0
v -4 -8 0
v -3 -9 0
v -4 -9 0
v -4 -8 0
v -3 -8 0
v -2 -9 0
v -3 -9 0
v -3 -8 0
v -2 -8 0
v -1 -9 0
v -2 -9 0
v -2 -8 0
v -1 -8 0
v 0 -9 0
v -1 -9 0
v -1 -8 0
v 0 -8 0
v -15 -10 0
v -16 -10 0
v -16 -9 0
v -15 -9 0
v -14 -10 0
v -15 -10 0
v -15 -9 0
v -14 -9 0
v -13 -10 0
v -14 -10 0
v -14 -9 0
v -13 -9 0
v -12 -10 0
v -13 -10 0
v -13 -9 0
v -12 -9 0
v -11 -10 0
v -12 -10 0
v -12 -9 0
v -11 -9 0
v -10 -10 0
v -11 -10 0
v -11 -9 0
v -10 -9 0
v -9 -10 0
v -10 -10 0
v -10 -9 0
v -9 -9 0
v -8 -10 0
v -9 -10 0
v -9 -9 0
v -8 -9 0
v -7 -10 0
v -8 -10 0
v -8 -9 0
v -7 -9 0
v -6 -10 0
v -7 -10 0
v -7 -9 0
v -6 -9 0
v -5 -10 0
v -6 -10 0
v -6 -9 0
v -5 -9 0
v -4 -10 0
v -5 -10 0
v -5 -9 0
v -4 -9 0
v -3 -10 0
v -4 -10 0
v -4 -9 0
v -3 -9 0
v -2 -10 0
v -3 -10 0
v -3 -9 0
v -2 -9 0
v -1 -10 0
v -2 -10 0
v -2 -9 0
v -1 -9 0
v 0 -10 0
v -1 -10 0
v -1 -9 0
v 0 -9 0
v -15 -11 0
v -16 -11 0
v -16 -10 0
v -15 -10 0
v -14 -11 0
v -15 -11 0
v -15 -10 0
v -14 -10 0
v -13 -11 0
v -14 -11 0
v -14 -10 0
v -13 -10 0
v -12 -11 0
v -13 -11 0
v -13 -10 0
v -12 -10 0
v -11 -11 0
v -12 -11 0
v -12 -10 0
v -11 -10 0
v -10 -11 0
v -11 -11 0
v -11 -10 0
v -10 -10 0
v -9 -11 0
v -10 -11 0
v -10 -10 0
v -9 -10 0
v -8 -11 0
v -9 -11 0
v -9 -10 0
v -8 -10 0
v -7 -11 0
v -8 -11 0
v -8 -10 0
v -7 -10 0
v -6 -11 0
v -7 -11 0
v -7 -10 0
v -6 -10 0
v -5 -11 0
v -6 -11 0
v -6 -10 0
v -5 -10 0
v -4 -11 0
v -5 -11 0
v -5 -10 0
v -4 -10 0
v -3 -11 0
v -4 -11 0
v -4 -10 0
v -3 -10 0
v -2 -11 0
v -3 -11 0
v -3 -10 0
v -2 -10 0
v -1 -11 0
v -2 -11 0
v -2 -10 0
v -1 -10 0
v 0 -11 0
v -1 -11 0
v -1 -10 0
v 0 -10 0
v -15 -12 0
v -16 -12 0
v -16 -11 0
v -15 -11 0
v -14 -12 0
v -15 -12 0
v -15 -11 0
v -14 -11 0
v -13 -12 0
v -14 -12 0
v -14 -11 0
v -13 -11 0
v -12 -12 0
v -13 -12 0
v -13 -11 0
v -12 -11 0
v -11 -12 0
v -12 -12 0
v -12 -11 0
v -11 -11 0
v -10 -12 0
v -11 -12 0
v -11 -11 0
v -10 -11 0
v -9 -12 0
v -10 -12 0
v -10 -11 0
v -9 -11 0
v -8 -12 0
v -9 -12 0
v -9 -11 0
v -8 -11 0
v -7 -12 0
v -8 -12 0
v -8 -11 0
v -7 -11 0
v -6 -12 0
v -7 -12 0
v -7 -11 0
v -6 -11 0
v -5 -12 0
v -6 -12 0
v -6 -11 0
v -5 -11 0
v -4 -12 0
v -5 -12 0
v -5 -11 0
v -4 -11 0
v -3 -12 0
v -4 -12 0
v -4 -11 0
v -3 -11 0
v -2 -12 0
v -3 -12 0
v -3 -11 0
v -2 -11 0
v -1 -12 0
v -2 -12 0
v -2 -11 0
v -1 -11 0
v 0 -12 0
v -1 -12 0
v -1 -11 0
v 0 -11 0
v -15 -13 0
v -16 -13 0
v -16 -12 0
v -15 -12 0
v -14 -13 0
v -15 -13 0
v -15 -12 0
v -14 -12 0
v -13 -13 0
v -14 -13 0
v -14 -12 0
v -13 -12 0
v -12 -13 0
v -13 -13 0
v -13 -12 0
v -12 -12 0
v -11 -13 0
v -12 -13 0
v -12 -12 0
v -11 -12 0
v -10 -13 0
v -11 -13 0
v -11 -12 0
v -10 -12 0
v -9 -13 0
v -10 -13 0
v -10 -12 0
v -9 -12 0
v -8 -13 0
v -9 -13 0
v -9 -12 0
v -8 -12 0
v -7 -13 0
v -8 -13 0
v -8 -12 0
v -7 -12 0
v -6 -13 0
v -7 -13 0
v -7 -12 0
v -6 -12 0
v -5 -13 0
v -6 -13 0
v -6 -12 0
v -5 -12 0
v -4 -13 0
v -5 -13 0
v -5 -12 0
v -4 -12 0
v -3 -13 0
v -4 -13 0
v -4 -12 0
v -3 -12 0
v -2 -13 0
v -3 -13 0
v -3 -12 0
v -2 -12 0
v -1 -13 0
v -2 -13 0
v -2 -12 0
v -1 -12 0
v 0 -13 0
v -1 -13 0
v -1 -12 0
v 0 -12 0
v -15 -14 0
v -16 -14 0
v -16 -13 0
v -15 -13 0
v -14 -14 0
v -15 -14 0
v -15 -13 0
v -14 -13 0
v -13 -14 0
v -14 -14 0
v -14 -13 0
v -13 -13 0
v -12 -14 0
v -13 -14 0
v -13 -13 0
v -12 -13 0
v -11 -14 0
v -12 -14 0
v -12 -13 0
v -11 -13 0
v -10 -14 0
v -11 -14 0
v -11 -13 0
v -10 -13 0
v -9 -14 0
v -10 -14 0
v -10 -13 0
v -9 -13 0
v -8 -14 0
v -9 -14 0
v -9 -13 0
v -8 -13 0
v -7 -14 0
v -8 -14 0
v -8 -13 0
v -7 -13 0
v -6 -14 0
v -7 -14 0
v -7 -13 0
v -6 -13 0
v -5 -14 0
v -6 -14 0
v -6 -13 0
v -5 -13 0
v -4 -14 0
v -5 -14 0
v -5 -13 0
v -4 -13 0
v -3 -14 0
v -4 -14 0
v -4 -13 0
v -3 -13 0
v -2 -14 0
v -3 -14 0
v -3 -13 0
v -2 -13 0
v -1 -14 0
v -2 -14 0
v -2 -13 0
v -1 -13 0
v 0 -14 0
v -1 -14 0
v -1 -13 0
v 0 -13 0
v -15 -15 0
v -16 -15 0
v -16 -14 0
v -15 -14 0
v -14 -15 0
v -15 -15 0
v -15 -14 0
v -14 -14 0
v -13 -15 0
v -14 -15 0
v -14 -14 0
v -13 -14 0
v -12 -15 0
v -13 -15 0
v -13 -14 0
v -12 -14 0
v -11 -15 0
v -12 -15 0
v -12 -14 0
v -11 -14 0
v -10 -15 0
v -11 -15 0
v -11 -14 0
v -10 -14 0
v -9 -15 0
v -10 -15 0
v -10 -14 0
v -9 -14 0
v -8 -15 0
v -9 -15 0
v -9 -14 0
v -8 -14 0
v -7 -15 0
v -8 -15 0
v -8 -14 0
v -7 -14 0
v -6 -15 0
v -7 -15 0
v -7 -14 0
v -6 -14 0
v -5 -15 0
v -6 -15 0
v -6 -14 0
v -5 -14 0
v -4 -15 0
v -5 -15 0
v -5 -14 0
v -4 -14 0
v -3 -15 0
v -4 -15 0
v -4 -14 0
v -3 -14 0
v -2 -15 0
v -3 -15 0
v -3 -14 0
v -2 -14 0
v -1 -15 0
v -2 -15 0
v -2 -14 0
v -1 -14 0
v 0 -15 0
v -1 -15 0
v -1 -14 0
v 0 -14 0
v -15 -16 0
v -16 -16 0
v -16 -15 0
v -15 -15 0
v -14 -16 0
v -15 -16 0
v -15 -15 0
v -14 -15 0
v -13 -16 0
v -14 -16 0
v -14 -15 0
v -13 -15 0
v -12 -16 0
v -13 -16 0
v -13 -15 0
v -12 -15 0
v -11 -16 0
v -12 -16 0
v -12 -15 0
v -11 -15 0
v -10 -16 0
v -11 -16 0
v -11 -15 0
v -10 -15 0
v -9 -16 0
v -10 -16 0
v -10 -15 0
v -9 -15 0
v -8 -16 0
v -9 -16 0
v -9 -15 0
v -8 -15 0
v -7 -16 0
v -8 -16 0
v -8 -15 0
v -7 -15 0
v -6 -16 0
v -7 -16 0
v -7 -15 0
v -6 -15 0
v -5 -16 0
v -6 -16 0
v -6 -15 0
v -5 -15 0
v -4 -16 0
v -5 -16 0
v -5 -15 0
v -4 -15 0
v -3 -16 0
v -4 -16 0
v -4 -15 0
v -3 -15 0
v -2 -16 0
v -3 -16 0
v -3 -15 0
v -2 -15 0
v -1 -16 0
v -2 -16 0
v -2 -15 0
v -1 -15 0
v 0 -16 0
v -1 -16 0
v -1 -15 0
v 0 -15 0

# Texture cooridinates (Count = 36)
vt 0.4864865 0.1739131
vt 0.5135135 0.1739131
vt 0.5135135 0.1956522
vt 0.4864865 0.1956522
vt 0.5945946 0.1739131
vt 0.6216216 0.1739131
vt 0.6216216 0.1956522
vt 0.5945946 0.1956522
vt 0.5675676 0.1739131
vt 0.5675676 0.1956522
vt 0.5405405 0.1739131
vt 0.5405405 0.1956522
vt 0.4864865 0.1521739
vt 0.5135135 0.1521739
vt 0.5945946 0.1521739
vt 0.6216216 0.1521739
vt 0.5675676 0.1521739
vt 0.5405405 0.1521739
vt 0.4864865 0.1304348
vt 0.5135135 0.1304348
vt 0.5945946 0.1086956
vt 0.6216216 0.1086956
vt 0.6216216 0.1304348
vt 0.5945946 0.1304348
vt 0.5675676 0.1086956
vt 0.5675676 0.1304348
vt 0.5405405 0.1086956
vt 0.5405405 0.1304348
vt 0.5135135 0.1086956
vt 0.4864865 0.1086956
vt 0.5945946 0.0869565
vt 0.6216216 0.0869565
vt 0.4864865 0.0869565
vt 0.5135135 0.0869565
vt 0.5405405 0.0869565
vt 0.5675676 0.0869565

# Normal
vn 0 0 -1

# Mesh description
g dungeon1_mesh_0102

# Faces
f 1/1/1 2/2/1 3/3/1 4/4/1
f 5/5/1 6/6/1 7/7/1 8/8/1
f 9/9/1 10/5/1 11/8/1 12/10/1
f 13/11/1 14/9/1 15/10/1 16/12/1
f 17/2/1 18/11/1 19/12/1 20/3/1
f 21/1/1 22/2/1 23/3/1 24/4/1
f 25/5/1 26/6/1 27/7/1 28/8/1
f 29/9/1 30/5/1 31/8/1 32/10/1
f 33/11/1 34/9/1 35/10/1 36/12/1
f 37/2/1 38/11/1 39/12/1 40/3/1
f 41/1/1 42/2/1 43/3/1 44/4/1
f 45/5/1 46/6/1 47/7/1 48/8/1
f 49/9/1 50/5/1 51/8/1 52/10/1
f 53/11/1 54/9/1 55/10/1 56/12/1
f 57/2/1 58/11/1 59/12/1 60/3/1
f 61/1/1 62/2/1 63/3/1 64/4/1
f 65/13/1 66/14/1 67/2/1 68/1/1
f 69/15/1 70/16/1 71/6/1 72/5/1
f 73/17/1 74/15/1 75/5/1 76/9/1
f 77/18/1 78/17/1 79/9/1 80/11/1
f 81/14/1 82/18/1 83/11/1 84/2/1
f 85/13/1 86/14/1 87/2/1 88/1/1
f 89/15/1 90/16/1 91/6/1 92/5/1
f 93/17/1 94/15/1 95/5/1 96/9/1
f 97/18/1 98/17/1 99/9/1 100/11/1
f 101/14/1 102/18/1 103/11/1 104/2/1
f 105/13/1 106/14/1 107/2/1 108/1/1
f 109/15/1 110/16/1 111/6/1 112/5/1
f 113/17/1 114/15/1 115/5/1 116/9/1
f 117/18/1 118/17/1 119/9/1 120/11/1
f 121/14/1 122/18/1 123/11/1 124/2/1
f 125/13/1 126/14/1 127/2/1 128/1/1
f 129/19/1 130/20/1 131/14/1 132/13/1
f 133/21/1 134/22/1 135/23/1 136/24/1
f 137/21/1 138/22/1 139/23/1 140/24/1
f 141/21/1 142/22/1 143/23/1 144/24/1
f 145/21/1 146/22/1 147/23/1 148/24/1
f 149/25/1 150/21/1 151/24/1 152/26/1
f 153/27/1 154/25/1 155/26/1 156/28/1
f 157/29/1 158/27/1 159/28/1 160/20/1
f 161/30/1 162/29/1 163/20/1 164/19/1
f 165/20/1 166/28/1 167/18/1 168/14/1
f 169/19/1 170/20/1 171/14/1 172/13/1
f 173/24/1 174/23/1 175/16/1 176/15/1
f 177/26/1 178/24/1 179/15/1 180/17/1
f 181/28/1 182/26/1 183/17/1 184/18/1
f 185/20/1 186/28/1 187/18/1 188/14/1
f 189/19/1 190/20/1 191/14/1 192/13/1
f 193/29/1 194/27/1 195/28/1 196/20/1
f 197/30/1 198/29/1 199/20/1 200/19/1
f 201/31/1 202/32/1 203/22/1 204/21/1
f 205/31/1 206/32/1 207/22/1 208/21/1
f 209/31/1 210/32/1 211/22/1 212/21/1
f 213/21/1 214/22/1 215/23/1 216/24/1
f 217/21/1 218/22/1 219/23/1 220/24/1
f 221/25/1 222/21/1 223/24/1 224/26/1
f 225/27/1 226/25/1 227/26/1 228/28/1
f 229/29/1 230/27/1 231/28/1 232/20/1
f 233/30/1 234/29/1 235/20/1 236/19/1
f 237/30/1 238/29/1 239/20/1 240/19/1
f 241/27/1 242/25/1 243/26/1 244/28/1
f 245/29/1 246/27/1 247/28/1 248/20/1
f 249/30/1 250/29/1 251/20/1 252/19/1
f 253/21/1 254/22/1 255/23/1 256/24/1
f 257/27/1 258/25/1 259/26/1 260/28/1
f 261/29/1 262/27/1 263/28/1 264/20/1
f 265/30/1 266/29/1 267/20/1 268/19/1
f 269/27/1 270/25/1 271/26/1 272/28/1
f 273/29/1 274/27/1 275/28/1 276/20/1
f 277/30/1 278/29/1 279/20/1 280/19/1
f 281/21/1 282/22/1 283/23/1 284/24/1
f 285/25/1 286/21/1 287/24/1 288/26/1
f 289/27/1 290/25/1 291/26/1 292/28/1
f 293/29/1 294/27/1 295/28/1 296/20/1
f 297/30/1 298/29/1 299/20/1 300/19/1
f 301/30/1 302/29/1 303/20/1 304/19/1
f 305/25/1 306/21/1 307/24/1 308/26/1
f 309/27/1 310/25/1 311/26/1 312/28/1
f 313/29/1 314/27/1 315/28/1 316/20/1
f 317/30/1 318/29/1 319/20/1 320/19/1
f 321/27/1 322/25/1 323/26/1 324/28/1
f 325/29/1 326/27/1 327/28/1 328/20/1
f 329/30/1 330/29/1 331/20/1 332/19/1
f 333/27/1 334/25/1 335/26/1 336/28/1
f 337/29/1 338/27/1 339/28/1 340/20/1
f 341/30/1 342/29/1 343/20/1 344/19/1
f 345/25/1 346/21/1 347/24/1 348/26/1
f 349/27/1 350/25/1 351/26/1 352/28/1
f 353/29/1 354/27/1 355/28/1 356/20/1
f 357/30/1 358/29/1 359/20/1 360/19/1
f 361/30/1 362/29/1 363/20/1 364/19/1
f 365/30/1 366/29/1 367/20/1 368/19/1
f 369/25/1 370/21/1 371/24/1 372/26/1
f 373/27/1 374/25/1 375/26/1 376/28/1
f 377/29/1 378/27/1 379/28/1 380/20/1
f 381/30/1 382/29/1 383/20/1 384/19/1
f 385/27/1 386/25/1 387/26/1 388/28/1
f 389/29/1 390/27/1 391/28/1 392/20/1
f 393/30/1 394/29/1 395/20/1 396/19/1
f 397/27/1 398/25/1 399/26/1 400/28/1
f 401/29/1 402/27/1 403/28/1 404/20/1
f 405/30/1 406/29/1 407/20/1 408/19/1
f 409/30/1 410/29/1 411/20/1 412/19/1
f 413/30/1 414/29/1 415/20/1 416/19/1
f 417/30/1 418/29/1 419/20/1 420/19/1
f 421/30/1 422/29/1 423/20/1 424/19/1
f 425/33/1 426/34/1 427/29/1 428/30/1
f 429/30/1 430/29/1 431/20/1 432/19/1
f 433/25/1 434/21/1 435/24/1 436/26/1
f 437/27/1 438/25/1 439/26/1 440/28/1
f 441/29/1 442/27/1 443/28/1 444/20/1
f 445/30/1 446/29/1 447/20/1 448/19/1
f 449/27/1 450/25/1 451/26/1 452/28/1
f 453/29/1 454/27/1 455/28/1 456/20/1
f 457/30/1 458/29/1 459/20/1 460/19/1
f 461/30/1 462/29/1 463/20/1 464/19/1
f 465/30/1 466/29/1 467/20/1 468/19/1
f 469/30/1 470/29/1 471/20/1 472/19/1
f 473/30/1 474/29/1 475/20/1 476/19/1
f 477/30/1 478/29/1 479/20/1 480/19/1
f 481/30/1 482/29/1 483/20/1 484/19/1
f 485/30/1 486/29/1 487/20/1 488/19/1
f 489/30/1 490/29/1 491/20/1 492/19/1
f 493/30/1 494/29/1 495/20/1 496/19/1
f 497/30/1 498/29/1 499/20/1 500/19/1
f 501/30/1 502/29/1 503/20/1 504/19/1
f 505/30/1 506/29/1 507/20/1 508/19/1
f 509/30/1 510/29/1 511/20/1 512/19/1
f 513/29/1 514/27/1 515/28/1 516/20/1
f 517/30/1 518/29/1 519/20/1 520/19/1
f 521/30/1 522/29/1 523/20/1 524/19/1
f 525/33/1 526/34/1 527/29/1 528/30/1
f 529/33/1 530/34/1 531/29/1 532/30/1
f 533/33/1 534/34/1 535/29/1 536/30/1
f 537/33/1 538/34/1 539/29/1 540/30/1
f 541/33/1 542/34/1 543/29/1 544/30/1
f 545/33/1 546/34/1 547/29/1 548/30/1
f 549/33/1 550/34/1 551/29/1 552/30/1
f 553/33/1 554/34/1 555/29/1 556/30/1
f 557/33/1 558/34/1 559/29/1 560/30/1
f 561/33/1 562/34/1 563/29/1 564/30/1
f 565/30/1 566/29/1 567/20/1 568/19/1
f 569/30/1 570/29/1 571/20/1 572/19/1
f 573/30/1 574/29/1 575/20/1 576/19/1
f 577/34/1 578/35/1 579/27/1 580/29/1
f 581/33/1 582/34/1 583/29/1 584/30/1
f 585/33/1 586/34/1 587/29/1 588/30/1
f 589/21/1 590/22/1 591/23/1 592/24/1
f 593/21/1 594/22/1 595/23/1 596/24/1
f 597/21/1 598/22/1 599/23/1 600/24/1
f 601/21/1 602/22/1 603/23/1 604/24/1
f 605/21/1 606/22/1 607/23/1 608/24/1
f 609/31/1 610/32/1 611/22/1 612/21/1
f 613/36/1 614/31/1 615/21/1 616/25/1
f 617/35/1 618/36/1 619/25/1 620/27/1
f 621/34/1 622/35/1 623/27/1 624/29/1
f 625/33/1 626/34/1 627/29/1 628/30/1
f 629/33/1 630/34/1 631/29/1 632/30/1
f 633/33/1 634/34/1 635/29/1 636/30/1
f 637/33/1 638/34/1 639/29/1 640/30/1
f 641/31/1 642/32/1 643/22/1 644/21/1
f 645/31/1 646/32/1 647/22/1 648/21/1
f 649/31/1 650/32/1 651/22/1 652/21/1
f 653/31/1 654/32/1 655/22/1 656/21/1
f 657/31/1 658/32/1 659/22/1 660/21/1
f 661/21/1 662/22/1 663/23/1 664/24/1
f 665/25/1 666/21/1 667/24/1 668/26/1
f 669/27/1 670/25/1 671/26/1 672/28/1
f 673/29/1 674/27/1 675/28/1 676/20/1
f 677/30/1 678/29/1 679/20/1 680/19/1
f 681/21/1 682/22/1 683/23/1 684/24/1
f 685/25/1 686/21/1 687/24/1 688/26/1
f 689/27/1 690/25/1 691/26/1 692/28/1
f 693/29/1 694/27/1 695/28/1 696/20/1
f 697/30/1 698/29/1 699/20/1 700/19/1
f 701/30/1 702/29/1 703/20/1 704/19/1
f 705/31/1 706/32/1 707/22/1 708/21/1
f 709/36/1 710/31/1 711/21/1 712/25/1
f 713/35/1 714/36/1 715/25/1 716/27/1
f 717/34/1 718/35/1 719/27/1 720/29/1
f 721/33/1 722/34/1 723/29/1 724/30/1
f 725/31/1 726/32/1 727/22/1 728/21/1
f 729/36/1 730/31/1 731/21/1 732/25/1
f 733/35/1 734/36/1 735/25/1 736/27/1
f 737/34/1 738/35/1 739/27/1 740/29/1
f 741/33/1 742/34/1 743/29/1 744/30/1
f 745/31/1 746/32/1 747/22/1 748/21/1
f 749/36/1 750/31/1 751/21/1 752/25/1
f 753/35/1 754/36/1 755/25/1 756/27/1
f 757/34/1 758/35/1 759/27/1 760/29/1
f 761/33/1 762/34/1 763/29/1 764/30/1
f 765/33/1 766/34/1 767/29/1 768/30/1

