# Tiled2Unity generated file. Do not modify by hand.
# Wavefront file for 'dungeon1_mesh_0067.obj'

# Vertices (Count = 64)
v -3 -13 0
v -4 -13 0
v -4 -12 0
v -3 -12 0
v -2 -13 0
v -3 -13 0
v -3 -12 0
v -2 -12 0
v -1 -13 0
v -2 -13 0
v -2 -12 0
v -1 -12 0
v 0 -13 0
v -1 -13 0
v -1 -12 0
v 0 -12 0
v -3 -14 0
v -4 -14 0
v -4 -13 0
v -3 -13 0
v -2 -14 0
v -3 -14 0
v -3 -13 0
v -2 -13 0
v -1 -14 0
v -2 -14 0
v -2 -13 0
v -1 -13 0
v 0 -14 0
v -1 -14 0
v -1 -13 0
v 0 -13 0
v -3 -15 0
v -4 -15 0
v -4 -14 0
v -3 -14 0
v -2 -15 0
v -3 -15 0
v -3 -14 0
v -2 -14 0
v -1 -15 0
v -2 -15 0
v -2 -14 0
v -1 -14 0
v 0 -15 0
v -1 -15 0
v -1 -14 0
v 0 -14 0
v -3 -16 0
v -4 -16 0
v -4 -15 0
v -3 -15 0
v -2 -16 0
v -3 -16 0
v -3 -15 0
v -2 -15 0
v -1 -16 0
v -2 -16 0
v -2 -15 0
v -1 -15 0
v 0 -16 0
v -1 -16 0
v -1 -15 0
v 0 -15 0

# Texture cooridinates (Count = 37)
vt 0.2972973 0.5
vt 0.3243243 0.5
vt 0.3243243 0.5217391
vt 0.2972973 0.5217391
vt 0.2702703 0.5
vt 0.2702703 0.5217391
vt 0.2432432 0.5
vt 0.2432432 0.5217391
vt 0.2162162 0.5
vt 0.2162162 0.5217391
vt 0.2972973 0.4782609
vt 0.3243243 0.4782609
vt 0.2702703 0.4782609
vt 0.3513514 0.3478261
vt 0.3783784 0.3478261
vt 0.3783784 0.3695652
vt 0.3513514 0.3695652
vt 0.2702703 0.3478261
vt 0.2972973 0.3478261
vt 0.2972973 0.3695652
vt 0.2702703 0.3695652
vt 0.2972973 0.4565217
vt 0.3243243 0.4565217
vt 0.2702703 0.4565217
vt 0.3513514 0.3260869
vt 0.3783784 0.3260869
vt 0.2972973 0.4347826
vt 0.3243243 0.4347826
vt 0.2702703 0.4347826
vt 0.3513514 0.2826087
vt 0.3783784 0.2826087
vt 0.3783784 0.3043478
vt 0.3513514 0.3043478
vt 0.2702703 0.2826087
vt 0.2972973 0.2826087
vt 0.2972973 0.3043478
vt 0.2702703 0.3043478

# Normal
vn 0 0 -1

# Mesh description
g dungeon1_mesh_0067

# Faces
f 1/1/1 2/2/1 3/3/1 4/4/1
f 5/5/1 6/1/1 7/4/1 8/6/1
f 9/7/1 10/5/1 11/6/1 12/8/1
f 13/9/1 14/7/1 15/8/1 16/10/1
f 17/11/1 18/12/1 19/2/1 20/1/1
f 21/13/1 22/11/1 23/1/1 24/5/1
f 25/14/1 26/15/1 27/16/1 28/17/1
f 29/18/1 30/19/1 31/20/1 32/21/1
f 33/22/1 34/23/1 35/12/1 36/11/1
f 37/24/1 38/22/1 39/11/1 40/13/1
f 41/25/1 42/26/1 43/15/1 44/14/1
f 45/25/1 46/26/1 47/15/1 48/14/1
f 49/27/1 50/28/1 51/23/1 52/22/1
f 53/29/1 54/27/1 55/22/1 56/24/1
f 57/30/1 58/31/1 59/32/1 60/33/1
f 61/34/1 62/35/1 63/36/1 64/37/1

