# Tiled2Unity generated file. Do not modify by hand.
# Wavefront file for 'dungeon1_mesh_0094.obj'

# Vertices (Count = 188)
v -10 -1 0
v -11 -1 0
v -11 0 0
v -10 0 0
v -6 -1 0
v -7 -1 0
v -7 0 0
v -6 0 0
v -12 -10 0
v -13 -10 0
v -13 -9 0
v -12 -9 0
v -11 -10 0
v -12 -10 0
v -12 -9 0
v -11 -9 0
v -10 -10 0
v -11 -10 0
v -11 -9 0
v -10 -9 0
v -9 -10 0
v -10 -10 0
v -10 -9 0
v -9 -9 0
v -8 -10 0
v -9 -10 0
v -9 -9 0
v -8 -9 0
v -7 -10 0
v -8 -10 0
v -8 -9 0
v -7 -9 0
v -6 -10 0
v -7 -10 0
v -7 -9 0
v -6 -9 0
v -5 -10 0
v -6 -10 0
v -6 -9 0
v -5 -9 0
v -4 -10 0
v -5 -10 0
v -5 -9 0
v -4 -9 0
v -12 -11 0
v -13 -11 0
v -13 -10 0
v -12 -10 0
v -11 -11 0
v -12 -11 0
v -12 -10 0
v -11 -10 0
v -10 -11 0
v -11 -11 0
v -11 -10 0
v -10 -10 0
v -9 -11 0
v -10 -11 0
v -10 -10 0
v -9 -10 0
v -8 -11 0
v -9 -11 0
v -9 -10 0
v -8 -10 0
v -7 -11 0
v -8 -11 0
v -8 -10 0
v -7 -10 0
v -6 -11 0
v -7 -11 0
v -7 -10 0
v -6 -10 0
v -5 -11 0
v -6 -11 0
v -6 -10 0
v -5 -10 0
v -4 -11 0
v -5 -11 0
v -5 -10 0
v -4 -10 0
v -12 -12 0
v -13 -12 0
v -13 -11 0
v -12 -11 0
v -11 -12 0
v -12 -12 0
v -12 -11 0
v -11 -11 0
v -10 -12 0
v -11 -12 0
v -11 -11 0
v -10 -11 0
v -9 -12 0
v -10 -12 0
v -10 -11 0
v -9 -11 0
v -8 -12 0
v -9 -12 0
v -9 -11 0
v -8 -11 0
v -7 -12 0
v -8 -12 0
v -8 -11 0
v -7 -11 0
v -6 -12 0
v -7 -12 0
v -7 -11 0
v -6 -11 0
v -5 -12 0
v -6 -12 0
v -6 -11 0
v -5 -11 0
v -4 -12 0
v -5 -12 0
v -5 -11 0
v -4 -11 0
v -12 -13 0
v -13 -13 0
v -13 -12 0
v -12 -12 0
v -11 -13 0
v -12 -13 0
v -12 -12 0
v -11 -12 0
v -10 -13 0
v -11 -13 0
v -11 -12 0
v -10 -12 0
v -9 -13 0
v -10 -13 0
v -10 -12 0
v -9 -12 0
v -8 -13 0
v -9 -13 0
v -9 -12 0
v -8 -12 0
v -7 -13 0
v -8 -13 0
v -8 -12 0
v -7 -12 0
v -6 -13 0
v -7 -13 0
v -7 -12 0
v -6 -12 0
v -5 -13 0
v -6 -13 0
v -6 -12 0
v -5 -12 0
v -4 -13 0
v -5 -13 0
v -5 -12 0
v -4 -12 0
v -12 -14 0
v -13 -14 0
v -13 -13 0
v -12 -13 0
v -11 -14 0
v -12 -14 0
v -12 -13 0
v -11 -13 0
v -10 -14 0
v -11 -14 0
v -11 -13 0
v -10 -13 0
v -9 -14 0
v -10 -14 0
v -10 -13 0
v -9 -13 0
v -8 -14 0
v -9 -14 0
v -9 -13 0
v -8 -13 0
v -7 -14 0
v -8 -14 0
v -8 -13 0
v -7 -13 0
v -6 -14 0
v -7 -14 0
v -7 -13 0
v -6 -13 0
v -5 -14 0
v -6 -14 0
v -6 -13 0
v -5 -13 0
v -4 -14 0
v -5 -14 0
v -5 -13 0
v -4 -13 0

# Texture cooridinates (Count = 68)
vt 0.1351351 0.7608696
vt 0.1621622 0.7608696
vt 0.1621622 0.7826087
vt 0.1351351 0.7826087
vt 0.4324324 0.7608696
vt 0.4594595 0.7608696
vt 0.4594595 0.7826087
vt 0.4324324 0.7826087
vt 0.6486486 0.5
vt 0.6756757 0.5
vt 0.6756757 0.5217391
vt 0.6486486 0.5217391
vt 0.6216216 0.5
vt 0.6216216 0.5217391
vt 0.5945946 0.5
vt 0.5945946 0.5217391
vt 0.5675676 0.5
vt 0.5675676 0.5217391
vt 0.5405405 0.5
vt 0.5405405 0.5217391
vt 0.5135135 0.5
vt 0.5135135 0.5217391
vt 0.4864865 0.5
vt 0.4864865 0.5217391
vt 0.4594595 0.5
vt 0.4594595 0.5217391
vt 0.4324324 0.5
vt 0.4324324 0.5217391
vt 0.6486486 0.4782609
vt 0.6756757 0.4782609
vt 0.6216216 0.4782609
vt 0.5945946 0.4782609
vt 0.5675676 0.4782609
vt 0.5405405 0.4782609
vt 0.5135135 0.4782609
vt 0.4864865 0.4782609
vt 0.4594595 0.4782609
vt 0.4324324 0.4782609
vt 0.6486486 0.4565217
vt 0.6756757 0.4565217
vt 0.6216216 0.4565217
vt 0.5945946 0.4565217
vt 0.5675676 0.4565217
vt 0.5405405 0.4565217
vt 0.5135135 0.4565217
vt 0.4864865 0.4565217
vt 0.4594595 0.4565217
vt 0.4324324 0.4565217
vt 0.6486486 0.4347826
vt 0.6756757 0.4347826
vt 0.6216216 0.4347826
vt 0.5945946 0.4347826
vt 0.5675676 0.4347826
vt 0.5405405 0.4347826
vt 0.5135135 0.4347826
vt 0.4864865 0.4347826
vt 0.4594595 0.4347826
vt 0.4324324 0.4347826
vt 0.6486486 0.4130435
vt 0.6756757 0.4130435
vt 0.6216216 0.4130435
vt 0.5945946 0.4130435
vt 0.5675676 0.4130435
vt 0.5405405 0.4130435
vt 0.5135135 0.4130435
vt 0.4864865 0.4130435
vt 0.4594595 0.4130435
vt 0.4324324 0.4130435

# Normal
vn 0 0 -1

# Mesh description
g dungeon1_mesh_0094

# Faces
f 1/1/1 2/2/1 3/3/1 4/4/1
f 5/5/1 6/6/1 7/7/1 8/8/1
f 9/9/1 10/10/1 11/11/1 12/12/1
f 13/13/1 14/9/1 15/12/1 16/14/1
f 17/15/1 18/13/1 19/14/1 20/16/1
f 21/17/1 22/15/1 23/16/1 24/18/1
f 25/19/1 26/17/1 27/18/1 28/20/1
f 29/21/1 30/19/1 31/20/1 32/22/1
f 33/23/1 34/21/1 35/22/1 36/24/1
f 37/25/1 38/23/1 39/24/1 40/26/1
f 41/27/1 42/25/1 43/26/1 44/28/1
f 45/29/1 46/30/1 47/10/1 48/9/1
f 49/31/1 50/29/1 51/9/1 52/13/1
f 53/32/1 54/31/1 55/13/1 56/15/1
f 57/33/1 58/32/1 59/15/1 60/17/1
f 61/34/1 62/33/1 63/17/1 64/19/1
f 65/35/1 66/34/1 67/19/1 68/21/1
f 69/36/1 70/35/1 71/21/1 72/23/1
f 73/37/1 74/36/1 75/23/1 76/25/1
f 77/38/1 78/37/1 79/25/1 80/27/1
f 81/39/1 82/40/1 83/30/1 84/29/1
f 85/41/1 86/39/1 87/29/1 88/31/1
f 89/42/1 90/41/1 91/31/1 92/32/1
f 93/43/1 94/42/1 95/32/1 96/33/1
f 97/44/1 98/43/1 99/33/1 100/34/1
f 101/45/1 102/44/1 103/34/1 104/35/1
f 105/46/1 106/45/1 107/35/1 108/36/1
f 109/47/1 110/46/1 111/36/1 112/37/1
f 113/48/1 114/47/1 115/37/1 116/38/1
f 117/49/1 118/50/1 119/40/1 120/39/1
f 121/51/1 122/49/1 123/39/1 124/41/1
f 125/52/1 126/51/1 127/41/1 128/42/1
f 129/53/1 130/52/1 131/42/1 132/43/1
f 133/54/1 134/53/1 135/43/1 136/44/1
f 137/55/1 138/54/1 139/44/1 140/45/1
f 141/56/1 142/55/1 143/45/1 144/46/1
f 145/57/1 146/56/1 147/46/1 148/47/1
f 149/58/1 150/57/1 151/47/1 152/48/1
f 153/59/1 154/60/1 155/50/1 156/49/1
f 157/61/1 158/59/1 159/49/1 160/51/1
f 161/62/1 162/61/1 163/51/1 164/52/1
f 165/63/1 166/62/1 167/52/1 168/53/1
f 169/64/1 170/63/1 171/53/1 172/54/1
f 173/65/1 174/64/1 175/54/1 176/55/1
f 177/66/1 178/65/1 179/55/1 180/56/1
f 181/67/1 182/66/1 183/56/1 184/57/1
f 185/68/1 186/67/1 187/57/1 188/58/1

