# Tiled2Unity generated file. Do not modify by hand.
# Wavefront file for 'dungeon1_mesh_0142.obj'

# Vertices (Count = 116)
v -4 -1 0
v -5 -1 0
v -5 0 0
v -4 0 0
v -3 -1 0
v -4 -1 0
v -4 0 0
v -3 0 0
v -4 -2 0
v -5 -2 0
v -5 -1 0
v -4 -1 0
v -3 -2 0
v -4 -2 0
v -4 -1 0
v -3 -1 0
v -4 -3 0
v -5 -3 0
v -5 -2 0
v -4 -2 0
v -3 -3 0
v -4 -3 0
v -4 -2 0
v -3 -2 0
v -4 -4 0
v -5 -4 0
v -5 -3 0
v -4 -3 0
v -3 -4 0
v -4 -4 0
v -4 -3 0
v -3 -3 0
v -4 -5 0
v -5 -5 0
v -5 -4 0
v -4 -4 0
v -3 -5 0
v -4 -5 0
v -4 -4 0
v -3 -4 0
v -4 -6 0
v -5 -6 0
v -5 -5 0
v -4 -5 0
v -3 -6 0
v -4 -6 0
v -4 -5 0
v -3 -5 0
v -4 -7 0
v -5 -7 0
v -5 -6 0
v -4 -6 0
v -3 -7 0
v -4 -7 0
v -4 -6 0
v -3 -6 0
v -4 -8 0
v -5 -8 0
v -5 -7 0
v -4 -7 0
v -3 -8 0
v -4 -8 0
v -4 -7 0
v -3 -7 0
v -4 -9 0
v -5 -9 0
v -5 -8 0
v -4 -8 0
v -3 -9 0
v -4 -9 0
v -4 -8 0
v -3 -8 0
v -4 -10 0
v -5 -10 0
v -5 -9 0
v -4 -9 0
v -3 -10 0
v -4 -10 0
v -4 -9 0
v -3 -9 0
v -4 -11 0
v -5 -11 0
v -5 -10 0
v -4 -10 0
v -3 -11 0
v -4 -11 0
v -4 -10 0
v -3 -10 0
v -4 -12 0
v -5 -12 0
v -5 -11 0
v -4 -11 0
v -3 -12 0
v -4 -12 0
v -4 -11 0
v -3 -11 0
v -4 -13 0
v -5 -13 0
v -5 -12 0
v -4 -12 0
v -3 -13 0
v -4 -13 0
v -4 -12 0
v -3 -12 0
v -2 -13 0
v -3 -13 0
v -3 -12 0
v -2 -12 0
v -1 -13 0
v -2 -13 0
v -2 -12 0
v -1 -12 0
v 0 -13 0
v -1 -13 0
v -1 -12 0
v 0 -12 0

# Texture cooridinates (Count = 23)
vt 0.1621622 0.8695652
vt 0.1891892 0.8695652
vt 0.1891892 0.8913044
vt 0.1621622 0.8913044
vt 0.1351351 0.8478261
vt 0.1621622 0.8478261
vt 0.1351351 0.8695652
vt 0.1621622 0.9347826
vt 0.1891892 0.9347826
vt 0.1891892 0.9565217
vt 0.1621622 0.9565217
vt 0.1621622 0.9130435
vt 0.1891892 0.9130435
vt 0.1351351 0.8260869
vt 0.1621622 0.8260869
vt 0.2432432 0.9782609
vt 0.2702703 0.9782609
vt 0.2702703 1
vt 0.2432432 1
vt 0.2162162 0.9782609
vt 0.2162162 1
vt 0.1891892 0.9782609
vt 0.1891892 1

# Normal
vn 0 0 -1

# Mesh description
g dungeon1_mesh_0142

# Faces
f 1/1/1 2/2/1 3/3/1 4/4/1
f 5/5/1 6/6/1 7/1/1 8/7/1
f 9/1/1 10/2/1 11/3/1 12/4/1
f 13/5/1 14/6/1 15/1/1 16/7/1
f 17/1/1 18/2/1 19/3/1 20/4/1
f 21/5/1 22/6/1 23/1/1 24/7/1
f 25/1/1 26/2/1 27/3/1 28/4/1
f 29/5/1 30/6/1 31/1/1 32/7/1
f 33/8/1 34/9/1 35/10/1 36/11/1
f 37/5/1 38/6/1 39/1/1 40/7/1
f 41/12/1 42/13/1 43/9/1 44/8/1
f 45/5/1 46/6/1 47/1/1 48/7/1
f 49/4/1 50/3/1 51/13/1 52/12/1
f 53/14/1 54/15/1 55/6/1 56/5/1
f 57/1/1 58/2/1 59/3/1 60/4/1
f 61/5/1 62/6/1 63/1/1 64/7/1
f 65/1/1 66/2/1 67/3/1 68/4/1
f 69/5/1 70/6/1 71/1/1 72/7/1
f 73/1/1 74/2/1 75/3/1 76/4/1
f 77/14/1 78/15/1 79/6/1 80/5/1
f 81/1/1 82/2/1 83/3/1 84/4/1
f 85/5/1 86/6/1 87/1/1 88/7/1
f 89/1/1 90/2/1 91/3/1 92/4/1
f 93/5/1 94/6/1 95/1/1 96/7/1
f 97/16/1 98/17/1 99/18/1 100/19/1
f 101/20/1 102/16/1 103/19/1 104/21/1
f 105/22/1 106/20/1 107/21/1 108/23/1
f 109/22/1 110/20/1 111/21/1 112/23/1
f 113/22/1 114/20/1 115/21/1 116/23/1

