# Tiled2Unity generated file. Do not modify by hand.
# Wavefront file for 'dungeon1_mesh_0037.obj'

# Vertices (Count = 256)
v -1 -7 0
v -2 -7 0
v -2 -6 0
v -1 -6 0
v 0 -7 0
v -1 -7 0
v -1 -6 0
v 0 -6 0
v -1 -8 0
v -2 -8 0
v -2 -7 0
v -1 -7 0
v 0 -8 0
v -1 -8 0
v -1 -7 0
v 0 -7 0
v -1 -9 0
v -2 -9 0
v -2 -8 0
v -1 -8 0
v 0 -9 0
v -1 -9 0
v -1 -8 0
v 0 -8 0
v -1 -10 0
v -2 -10 0
v -2 -9 0
v -1 -9 0
v 0 -10 0
v -1 -10 0
v -1 -9 0
v 0 -9 0
v -1 -11 0
v -2 -11 0
v -2 -10 0
v -1 -10 0
v 0 -11 0
v -1 -11 0
v -1 -10 0
v 0 -10 0
v -2 -12 0
v -3 -12 0
v -3 -11 0
v -2 -11 0
v -1 -12 0
v -2 -12 0
v -2 -11 0
v -1 -11 0
v 0 -12 0
v -1 -12 0
v -1 -11 0
v 0 -11 0
v -2 -13 0
v -3 -13 0
v -3 -12 0
v -2 -12 0
v -1 -13 0
v -2 -13 0
v -2 -12 0
v -1 -12 0
v 0 -13 0
v -1 -13 0
v -1 -12 0
v 0 -12 0
v -15 -14 0
v -16 -14 0
v -16 -13 0
v -15 -13 0
v -14 -14 0
v -15 -14 0
v -15 -13 0
v -14 -13 0
v -13 -14 0
v -14 -14 0
v -14 -13 0
v -13 -13 0
v -12 -14 0
v -13 -14 0
v -13 -13 0
v -12 -13 0
v -11 -14 0
v -12 -14 0
v -12 -13 0
v -11 -13 0
v -10 -14 0
v -11 -14 0
v -11 -13 0
v -10 -13 0
v -9 -14 0
v -10 -14 0
v -10 -13 0
v -9 -13 0
v -8 -14 0
v -9 -14 0
v -9 -13 0
v -8 -13 0
v -7 -14 0
v -8 -14 0
v -8 -13 0
v -7 -13 0
v -6 -14 0
v -7 -14 0
v -7 -13 0
v -6 -13 0
v -5 -14 0
v -6 -14 0
v -6 -13 0
v -5 -13 0
v -4 -14 0
v -5 -14 0
v -5 -13 0
v -4 -13 0
v -3 -14 0
v -4 -14 0
v -4 -13 0
v -3 -13 0
v -2 -14 0
v -3 -14 0
v -3 -13 0
v -2 -13 0
v -1 -14 0
v -2 -14 0
v -2 -13 0
v -1 -13 0
v 0 -14 0
v -1 -14 0
v -1 -13 0
v 0 -13 0
v -15 -15 0
v -16 -15 0
v -16 -14 0
v -15 -14 0
v -14 -15 0
v -15 -15 0
v -15 -14 0
v -14 -14 0
v -13 -15 0
v -14 -15 0
v -14 -14 0
v -13 -14 0
v -12 -15 0
v -13 -15 0
v -13 -14 0
v -12 -14 0
v -11 -15 0
v -12 -15 0
v -12 -14 0
v -11 -14 0
v -10 -15 0
v -11 -15 0
v -11 -14 0
v -10 -14 0
v -9 -15 0
v -10 -15 0
v -10 -14 0
v -9 -14 0
v -8 -15 0
v -9 -15 0
v -9 -14 0
v -8 -14 0
v -7 -15 0
v -8 -15 0
v -8 -14 0
v -7 -14 0
v -6 -15 0
v -7 -15 0
v -7 -14 0
v -6 -14 0
v -5 -15 0
v -6 -15 0
v -6 -14 0
v -5 -14 0
v -4 -15 0
v -5 -15 0
v -5 -14 0
v -4 -14 0
v -3 -15 0
v -4 -15 0
v -4 -14 0
v -3 -14 0
v -2 -15 0
v -3 -15 0
v -3 -14 0
v -2 -14 0
v -1 -15 0
v -2 -15 0
v -2 -14 0
v -1 -14 0
v 0 -15 0
v -1 -15 0
v -1 -14 0
v 0 -14 0
v -15 -16 0
v -16 -16 0
v -16 -15 0
v -15 -15 0
v -14 -16 0
v -15 -16 0
v -15 -15 0
v -14 -15 0
v -13 -16 0
v -14 -16 0
v -14 -15 0
v -13 -15 0
v -12 -16 0
v -13 -16 0
v -13 -15 0
v -12 -15 0
v -11 -16 0
v -12 -16 0
v -12 -15 0
v -11 -15 0
v -10 -16 0
v -11 -16 0
v -11 -15 0
v -10 -15 0
v -9 -16 0
v -10 -16 0
v -10 -15 0
v -9 -15 0
v -8 -16 0
v -9 -16 0
v -9 -15 0
v -8 -15 0
v -7 -16 0
v -8 -16 0
v -8 -15 0
v -7 -15 0
v -6 -16 0
v -7 -16 0
v -7 -15 0
v -6 -15 0
v -5 -16 0
v -6 -16 0
v -6 -15 0
v -5 -15 0
v -4 -16 0
v -5 -16 0
v -5 -15 0
v -4 -15 0
v -3 -16 0
v -4 -16 0
v -4 -15 0
v -3 -15 0
v -2 -16 0
v -3 -16 0
v -3 -15 0
v -2 -15 0
v -1 -16 0
v -2 -16 0
v -2 -15 0
v -1 -15 0
v 0 -16 0
v -1 -16 0
v -1 -15 0
v 0 -15 0

# Texture cooridinates (Count = 36)
vt 0.3783784 0.9347826
vt 0.4054054 0.9347826
vt 0.4054054 0.9565217
vt 0.3783784 0.9565217
vt 0.3513514 0.9347826
vt 0.3513514 0.9565217
vt 0.3783784 0.9130435
vt 0.4054054 0.9130435
vt 0.3783784 0.8913044
vt 0.4054054 0.8913044
vt 0.3783784 0.8695652
vt 0.4054054 0.8695652
vt 0.3243243 0.9347826
vt 0.3243243 0.9565217
vt 0.2702703 0.9565217
vt 0.2972973 0.9565217
vt 0.2972973 0.9782609
vt 0.2702703 0.9782609
vt 0.2972973 0.9347826
vt 0.2702703 0.9347826
vt 0.2432432 0.9347826
vt 0.2432432 0.9565217
vt 0.2162162 0.9347826
vt 0.2162162 0.9565217
vt 0.3243243 0.9130435
vt 0.3513514 0.9130435
vt 0.2972973 0.9130435
vt 0.2702703 0.9130435
vt 0.2432432 0.9130435
vt 0.2162162 0.9130435
vt 0.3243243 0.8913044
vt 0.3513514 0.8913044
vt 0.2972973 0.8913044
vt 0.2702703 0.8913044
vt 0.2432432 0.8913044
vt 0.2162162 0.8913044

# Normal
vn 0 0 -1

# Mesh description
g dungeon1_mesh_0037

# Faces
f 1/1/1 2/2/1 3/3/1 4/4/1
f 5/5/1 6/1/1 7/4/1 8/6/1
f 9/1/1 10/2/1 11/3/1 12/4/1
f 13/1/1 14/2/1 15/3/1 16/4/1
f 17/7/1 18/8/1 19/2/1 20/1/1
f 21/1/1 22/2/1 23/3/1 24/4/1
f 25/9/1 26/10/1 27/8/1 28/7/1
f 29/1/1 30/2/1 31/3/1 32/4/1
f 33/11/1 34/12/1 35/10/1 36/9/1
f 37/1/1 38/2/1 39/3/1 40/4/1
f 41/1/1 42/2/1 43/3/1 44/4/1
f 45/5/1 46/1/1 47/4/1 48/6/1
f 49/13/1 50/5/1 51/6/1 52/14/1
f 53/1/1 54/2/1 55/3/1 56/4/1
f 57/5/1 58/1/1 59/4/1 60/6/1
f 61/13/1 62/5/1 63/6/1 64/14/1
f 65/15/1 66/16/1 67/17/1 68/18/1
f 69/15/1 70/16/1 71/17/1 72/18/1
f 73/1/1 74/2/1 75/3/1 76/4/1
f 77/5/1 78/1/1 79/4/1 80/6/1
f 81/13/1 82/5/1 83/6/1 84/14/1
f 85/19/1 86/13/1 87/14/1 88/16/1
f 89/20/1 90/19/1 91/16/1 92/15/1
f 93/21/1 94/20/1 95/15/1 96/22/1
f 97/23/1 98/21/1 99/22/1 100/24/1
f 101/13/1 102/5/1 103/6/1 104/14/1
f 105/19/1 106/13/1 107/14/1 108/16/1
f 109/20/1 110/19/1 111/16/1 112/15/1
f 113/21/1 114/20/1 115/15/1 116/22/1
f 117/23/1 118/21/1 119/22/1 120/24/1
f 121/23/1 122/21/1 123/22/1 124/24/1
f 125/23/1 126/21/1 127/22/1 128/24/1
f 129/20/1 130/19/1 131/16/1 132/15/1
f 133/1/1 134/2/1 135/3/1 136/4/1
f 137/1/1 138/2/1 139/3/1 140/4/1
f 141/5/1 142/1/1 143/4/1 144/6/1
f 145/13/1 146/5/1 147/6/1 148/14/1
f 149/19/1 150/13/1 151/14/1 152/16/1
f 153/20/1 154/19/1 155/16/1 156/15/1
f 157/21/1 158/20/1 159/15/1 160/22/1
f 161/23/1 162/21/1 163/22/1 164/24/1
f 165/25/1 166/26/1 167/5/1 168/13/1
f 169/27/1 170/25/1 171/13/1 172/19/1
f 173/28/1 174/27/1 175/19/1 176/20/1
f 177/29/1 178/28/1 179/20/1 180/21/1
f 181/30/1 182/29/1 183/21/1 184/23/1
f 185/30/1 186/29/1 187/21/1 188/23/1
f 189/30/1 190/29/1 191/21/1 192/23/1
f 193/21/1 194/20/1 195/15/1 196/22/1
f 197/23/1 198/21/1 199/22/1 200/24/1
f 201/23/1 202/21/1 203/22/1 204/24/1
f 205/23/1 206/21/1 207/22/1 208/24/1
f 209/25/1 210/26/1 211/5/1 212/13/1
f 213/27/1 214/25/1 215/13/1 216/19/1
f 217/28/1 218/27/1 219/19/1 220/20/1
f 221/29/1 222/28/1 223/20/1 224/21/1
f 225/30/1 226/29/1 227/21/1 228/23/1
f 229/31/1 230/32/1 231/26/1 232/25/1
f 233/33/1 234/31/1 235/25/1 236/27/1
f 237/34/1 238/33/1 239/27/1 240/28/1
f 241/35/1 242/34/1 243/28/1 244/29/1
f 245/36/1 246/35/1 247/29/1 248/30/1
f 249/36/1 250/35/1 251/29/1 252/30/1
f 253/36/1 254/35/1 255/29/1 256/30/1

