# Tiled2Unity generated file. Do not modify by hand.
# Wavefront file for 'dungeon1_mesh_0077.obj'

# Vertices (Count = 140)
v -15 -1 0
v -16 -1 0
v -16 0 0
v -15 0 0
v -14 -1 0
v -15 -1 0
v -15 0 0
v -14 0 0
v -13 -1 0
v -14 -1 0
v -14 0 0
v -13 0 0
v -12 -1 0
v -13 -1 0
v -13 0 0
v -12 0 0
v -11 -1 0
v -12 -1 0
v -12 0 0
v -11 0 0
v -10 -1 0
v -11 -1 0
v -11 0 0
v -10 0 0
v -9 -1 0
v -10 -1 0
v -10 0 0
v -9 0 0
v -8 -1 0
v -9 -1 0
v -9 0 0
v -8 0 0
v -7 -1 0
v -8 -1 0
v -8 0 0
v -7 0 0
v -6 -1 0
v -7 -1 0
v -7 0 0
v -6 0 0
v -15 -2 0
v -16 -2 0
v -16 -1 0
v -15 -1 0
v -14 -2 0
v -15 -2 0
v -15 -1 0
v -14 -1 0
v -13 -2 0
v -14 -2 0
v -14 -1 0
v -13 -1 0
v -12 -2 0
v -13 -2 0
v -13 -1 0
v -12 -1 0
v -11 -2 0
v -12 -2 0
v -12 -1 0
v -11 -1 0
v -10 -2 0
v -11 -2 0
v -11 -1 0
v -10 -1 0
v -9 -2 0
v -10 -2 0
v -10 -1 0
v -9 -1 0
v -8 -2 0
v -9 -2 0
v -9 -1 0
v -8 -1 0
v -7 -2 0
v -8 -2 0
v -8 -1 0
v -7 -1 0
v -6 -2 0
v -7 -2 0
v -7 -1 0
v -6 -1 0
v -15 -3 0
v -16 -3 0
v -16 -2 0
v -15 -2 0
v -14 -3 0
v -15 -3 0
v -15 -2 0
v -14 -2 0
v -13 -3 0
v -14 -3 0
v -14 -2 0
v -13 -2 0
v -15 -4 0
v -16 -4 0
v -16 -3 0
v -15 -3 0
v -14 -4 0
v -15 -4 0
v -15 -3 0
v -14 -3 0
v -13 -4 0
v -14 -4 0
v -14 -3 0
v -13 -3 0
v -15 -5 0
v -16 -5 0
v -16 -4 0
v -15 -4 0
v -14 -5 0
v -15 -5 0
v -15 -4 0
v -14 -4 0
v -13 -5 0
v -14 -5 0
v -14 -4 0
v -13 -4 0
v -15 -6 0
v -16 -6 0
v -16 -5 0
v -15 -5 0
v -14 -6 0
v -15 -6 0
v -15 -5 0
v -14 -5 0
v -13 -6 0
v -14 -6 0
v -14 -5 0
v -13 -5 0
v -15 -7 0
v -16 -7 0
v -16 -6 0
v -15 -6 0
v -14 -7 0
v -15 -7 0
v -15 -6 0
v -14 -6 0
v -13 -7 0
v -14 -7 0
v -14 -6 0
v -13 -6 0

# Texture cooridinates (Count = 29)
vt 0.05405406 0.04347825
vt 0.08108108 0.04347825
vt 0.08108108 0.06521738
vt 0.05405406 0.06521738
vt 0.1081081 0.04347825
vt 0.1081081 0.06521738
vt 0.02702703 0.0869565
vt 0.05405406 0.0869565
vt 0.05405406 0.1086956
vt 0.02702703 0.1086956
vt 0 0.0869565
vt 0 0.1086956
vt 0.1351351 0.0869565
vt 0.1621622 0.0869565
vt 0.1621622 0.1086956
vt 0.1351351 0.1086956
vt 0.1081081 0.0869565
vt 0.1081081 0.1086956
vt 0.2162162 0.1086956
vt 0.2432432 0.1086956
vt 0.2432432 0.1304348
vt 0.2162162 0.1304348
vt 0.05405406 0.1304348
vt 0.02702703 0.1304348
vt 0.2702703 0.1086956
vt 0.2702703 0.1304348
vt 0.2432432 0.0869565
vt 0.2702703 0.0869565
vt 0.2162162 0.0869565

# Normal
vn 0 0 -1

# Mesh description
g dungeon1_mesh_0077

# Faces
f 1/1/1 2/2/1 3/3/1 4/4/1
f 5/2/1 6/5/1 7/6/1 8/3/1
f 9/2/1 10/5/1 11/6/1 12/3/1
f 13/1/1 14/2/1 15/3/1 16/4/1
f 17/7/1 18/8/1 19/9/1 20/10/1
f 21/11/1 22/7/1 23/10/1 24/12/1
f 25/13/1 26/14/1 27/15/1 28/16/1
f 29/13/1 30/14/1 31/15/1 32/16/1
f 33/17/1 34/13/1 35/16/1 36/18/1
f 37/19/1 38/20/1 39/21/1 40/22/1
f 41/10/1 42/9/1 43/23/1 44/24/1
f 45/10/1 46/9/1 47/23/1 48/24/1
f 49/20/1 50/25/1 51/26/1 52/21/1
f 53/20/1 54/25/1 55/26/1 56/21/1
f 57/10/1 58/9/1 59/23/1 60/24/1
f 61/10/1 62/9/1 63/23/1 64/24/1
f 65/20/1 66/25/1 67/26/1 68/21/1
f 69/20/1 70/25/1 71/26/1 72/21/1
f 73/20/1 74/25/1 75/26/1 76/21/1
f 77/20/1 78/25/1 79/26/1 80/21/1
f 81/10/1 82/9/1 83/23/1 84/24/1
f 85/20/1 86/25/1 87/26/1 88/21/1
f 89/19/1 90/20/1 91/21/1 92/22/1
f 93/10/1 94/9/1 95/23/1 96/24/1
f 97/27/1 98/28/1 99/25/1 100/20/1
f 101/29/1 102/27/1 103/20/1 104/19/1
f 105/10/1 106/9/1 107/23/1 108/24/1
f 109/20/1 110/25/1 111/26/1 112/21/1
f 113/19/1 114/20/1 115/21/1 116/22/1
f 117/19/1 118/20/1 119/21/1 120/22/1
f 121/20/1 122/25/1 123/26/1 124/21/1
f 125/19/1 126/20/1 127/21/1 128/22/1
f 129/29/1 130/27/1 131/20/1 132/19/1
f 133/27/1 134/28/1 135/25/1 136/20/1
f 137/29/1 138/27/1 139/20/1 140/19/1

