# Tiled2Unity generated file. Do not modify by hand.
# Wavefront file for 'dungeon1_mesh_0040.obj'

# Vertices (Count = 284)
v -15 -1 0
v -16 -1 0
v -16 0 0
v -15 0 0
v -14 -1 0
v -15 -1 0
v -15 0 0
v -14 0 0
v -13 -1 0
v -14 -1 0
v -14 0 0
v -13 0 0
v -12 -1 0
v -13 -1 0
v -13 0 0
v -12 0 0
v -11 -1 0
v -12 -1 0
v -12 0 0
v -11 0 0
v -15 -2 0
v -16 -2 0
v -16 -1 0
v -15 -1 0
v -14 -2 0
v -15 -2 0
v -15 -1 0
v -14 -1 0
v -13 -2 0
v -14 -2 0
v -14 -1 0
v -13 -1 0
v -12 -2 0
v -13 -2 0
v -13 -1 0
v -12 -1 0
v -11 -2 0
v -12 -2 0
v -12 -1 0
v -11 -1 0
v -15 -3 0
v -16 -3 0
v -16 -2 0
v -15 -2 0
v -14 -3 0
v -15 -3 0
v -15 -2 0
v -14 -2 0
v -13 -3 0
v -14 -3 0
v -14 -2 0
v -13 -2 0
v -12 -3 0
v -13 -3 0
v -13 -2 0
v -12 -2 0
v -11 -3 0
v -12 -3 0
v -12 -2 0
v -11 -2 0
v -10 -3 0
v -11 -3 0
v -11 -2 0
v -10 -2 0
v -15 -4 0
v -16 -4 0
v -16 -3 0
v -15 -3 0
v -14 -4 0
v -15 -4 0
v -15 -3 0
v -14 -3 0
v -13 -4 0
v -14 -4 0
v -14 -3 0
v -13 -3 0
v -12 -4 0
v -13 -4 0
v -13 -3 0
v -12 -3 0
v -11 -4 0
v -12 -4 0
v -12 -3 0
v -11 -3 0
v -10 -4 0
v -11 -4 0
v -11 -3 0
v -10 -3 0
v -9 -4 0
v -10 -4 0
v -10 -3 0
v -9 -3 0
v -8 -4 0
v -9 -4 0
v -9 -3 0
v -8 -3 0
v -7 -4 0
v -8 -4 0
v -8 -3 0
v -7 -3 0
v -6 -4 0
v -7 -4 0
v -7 -3 0
v -6 -3 0
v -5 -4 0
v -6 -4 0
v -6 -3 0
v -5 -3 0
v -4 -4 0
v -5 -4 0
v -5 -3 0
v -4 -3 0
v -15 -5 0
v -16 -5 0
v -16 -4 0
v -15 -4 0
v -14 -5 0
v -15 -5 0
v -15 -4 0
v -14 -4 0
v -13 -5 0
v -14 -5 0
v -14 -4 0
v -13 -4 0
v -12 -5 0
v -13 -5 0
v -13 -4 0
v -12 -4 0
v -11 -5 0
v -12 -5 0
v -12 -4 0
v -11 -4 0
v -10 -5 0
v -11 -5 0
v -11 -4 0
v -10 -4 0
v -9 -5 0
v -10 -5 0
v -10 -4 0
v -9 -4 0
v -8 -5 0
v -9 -5 0
v -9 -4 0
v -8 -4 0
v -7 -5 0
v -8 -5 0
v -8 -4 0
v -7 -4 0
v -6 -5 0
v -7 -5 0
v -7 -4 0
v -6 -4 0
v -5 -5 0
v -6 -5 0
v -6 -4 0
v -5 -4 0
v -4 -5 0
v -5 -5 0
v -5 -4 0
v -4 -4 0
v -15 -6 0
v -16 -6 0
v -16 -5 0
v -15 -5 0
v -14 -6 0
v -15 -6 0
v -15 -5 0
v -14 -5 0
v -13 -6 0
v -14 -6 0
v -14 -5 0
v -13 -5 0
v -12 -6 0
v -13 -6 0
v -13 -5 0
v -12 -5 0
v -11 -6 0
v -12 -6 0
v -12 -5 0
v -11 -5 0
v -10 -6 0
v -11 -6 0
v -11 -5 0
v -10 -5 0
v -9 -6 0
v -10 -6 0
v -10 -5 0
v -9 -5 0
v -8 -6 0
v -9 -6 0
v -9 -5 0
v -8 -5 0
v -7 -6 0
v -8 -6 0
v -8 -5 0
v -7 -5 0
v -6 -6 0
v -7 -6 0
v -7 -5 0
v -6 -5 0
v -5 -6 0
v -6 -6 0
v -6 -5 0
v -5 -5 0
v -4 -6 0
v -5 -6 0
v -5 -5 0
v -4 -5 0
v -15 -7 0
v -16 -7 0
v -16 -6 0
v -15 -6 0
v -15 -8 0
v -16 -8 0
v -16 -7 0
v -15 -7 0
v -15 -9 0
v -16 -9 0
v -16 -8 0
v -15 -8 0
v -2 -9 0
v -3 -9 0
v -3 -8 0
v -2 -8 0
v -1 -9 0
v -2 -9 0
v -2 -8 0
v -1 -8 0
v 0 -9 0
v -1 -9 0
v -1 -8 0
v 0 -8 0
v -15 -10 0
v -16 -10 0
v -16 -9 0
v -15 -9 0
v -2 -10 0
v -3 -10 0
v -3 -9 0
v -2 -9 0
v -1 -10 0
v -2 -10 0
v -2 -9 0
v -1 -9 0
v 0 -10 0
v -1 -10 0
v -1 -9 0
v 0 -9 0
v -15 -11 0
v -16 -11 0
v -16 -10 0
v -15 -10 0
v -2 -11 0
v -3 -11 0
v -3 -10 0
v -2 -10 0
v -1 -11 0
v -2 -11 0
v -2 -10 0
v -1 -10 0
v 0 -11 0
v -1 -11 0
v -1 -10 0
v 0 -10 0
v -15 -12 0
v -16 -12 0
v -16 -11 0
v -15 -11 0
v -15 -13 0
v -16 -13 0
v -16 -12 0
v -15 -12 0
v -15 -14 0
v -16 -14 0
v -16 -13 0
v -15 -13 0
v -15 -15 0
v -16 -15 0
v -16 -14 0
v -15 -14 0
v -15 -16 0
v -16 -16 0
v -16 -15 0
v -15 -15 0

# Texture cooridinates (Count = 46)
vt 0.2162162 0.9347826
vt 0.2432432 0.9347826
vt 0.2432432 0.9565217
vt 0.2162162 0.9565217
vt 0.2972973 0.8695652
vt 0.3243243 0.8695652
vt 0.3243243 0.8913044
vt 0.2972973 0.8913044
vt 0.2702703 0.8695652
vt 0.2702703 0.8913044
vt 0.2432432 0.8695652
vt 0.2432432 0.8913044
vt 0.2162162 0.8695652
vt 0.2162162 0.8913044
vt 0.2162162 0.9130435
vt 0.2432432 0.9130435
vt 0.1081081 0.1956522
vt 0.1351351 0.1956522
vt 0.1351351 0.2173913
vt 0.1081081 0.2173913
vt 0.08108108 0.1956522
vt 0.08108108 0.2173913
vt 0.05405406 0.1956522
vt 0.05405406 0.2173913
vt 0.02702703 0.1956522
vt 0.02702703 0.2173913
vt 0 0.1956522
vt 0 0.2173913
vt 0.1081081 0.1739131
vt 0.1351351 0.1739131
vt 0.08108108 0.1739131
vt 0.05405406 0.1739131
vt 0.02702703 0.1739131
vt 0 0.1739131
vt 0.2702703 0.9347826
vt 0.2972973 0.9347826
vt 0.2972973 0.9565217
vt 0.2702703 0.9565217
vt 0.1081081 0.1521739
vt 0.1351351 0.1521739
vt 0.08108108 0.1521739
vt 0.05405406 0.1521739
vt 0.02702703 0.1521739
vt 0 0.1521739
vt 0.2702703 0.9130435
vt 0.2972973 0.9130435

# Normal
vn 0 0 -1

# Mesh description
g dungeon1_mesh_0040

# Faces
f 1/1/1 2/2/1 3/3/1 4/4/1
f 5/5/1 6/6/1 7/7/1 8/8/1
f 9/9/1 10/5/1 11/8/1 12/10/1
f 13/11/1 14/9/1 15/10/1 16/12/1
f 17/13/1 18/11/1 19/12/1 20/14/1
f 21/1/1 22/2/1 23/3/1 24/4/1
f 25/5/1 26/6/1 27/7/1 28/8/1
f 29/9/1 30/5/1 31/8/1 32/10/1
f 33/11/1 34/9/1 35/10/1 36/12/1
f 37/13/1 38/11/1 39/12/1 40/14/1
f 41/1/1 42/2/1 43/3/1 44/4/1
f 45/5/1 46/6/1 47/7/1 48/8/1
f 49/9/1 50/5/1 51/8/1 52/10/1
f 53/11/1 54/9/1 55/10/1 56/12/1
f 57/13/1 58/11/1 59/12/1 60/14/1
f 61/1/1 62/2/1 63/3/1 64/4/1
f 65/15/1 66/16/1 67/2/1 68/1/1
f 69/9/1 70/5/1 71/8/1 72/10/1
f 73/11/1 74/9/1 75/10/1 76/12/1
f 77/13/1 78/11/1 79/12/1 80/14/1
f 81/15/1 82/16/1 83/2/1 84/1/1
f 85/15/1 86/16/1 87/2/1 88/1/1
f 89/17/1 90/18/1 91/19/1 92/20/1
f 93/21/1 94/17/1 95/20/1 96/22/1
f 97/23/1 98/21/1 99/22/1 100/24/1
f 101/25/1 102/23/1 103/24/1 104/26/1
f 105/27/1 106/25/1 107/26/1 108/28/1
f 109/27/1 110/25/1 111/26/1 112/28/1
f 113/14/1 114/12/1 115/16/1 116/15/1
f 117/9/1 118/5/1 119/8/1 120/10/1
f 121/11/1 122/9/1 123/10/1 124/12/1
f 125/13/1 126/11/1 127/12/1 128/14/1
f 129/14/1 130/12/1 131/16/1 132/15/1
f 133/14/1 134/12/1 135/16/1 136/15/1
f 137/29/1 138/30/1 139/18/1 140/17/1
f 141/31/1 142/29/1 143/17/1 144/21/1
f 145/32/1 146/31/1 147/21/1 148/23/1
f 149/33/1 150/32/1 151/23/1 152/25/1
f 153/34/1 154/33/1 155/25/1 156/27/1
f 157/34/1 158/33/1 159/25/1 160/27/1
f 161/35/1 162/36/1 163/37/1 164/38/1
f 165/9/1 166/5/1 167/8/1 168/10/1
f 169/11/1 170/9/1 171/10/1 172/12/1
f 173/13/1 174/11/1 175/12/1 176/14/1
f 177/13/1 178/11/1 179/12/1 180/14/1
f 181/13/1 182/11/1 183/12/1 184/14/1
f 185/39/1 186/40/1 187/30/1 188/29/1
f 189/41/1 190/39/1 191/29/1 192/31/1
f 193/42/1 194/41/1 195/31/1 196/32/1
f 197/43/1 198/42/1 199/32/1 200/33/1
f 201/44/1 202/43/1 203/33/1 204/34/1
f 205/44/1 206/43/1 207/33/1 208/34/1
f 209/45/1 210/46/1 211/36/1 212/35/1
f 213/10/1 214/8/1 215/46/1 216/45/1
f 217/10/1 218/8/1 219/46/1 220/45/1
f 221/17/1 222/18/1 223/19/1 224/20/1
f 225/21/1 226/17/1 227/20/1 228/22/1
f 229/23/1 230/21/1 231/22/1 232/24/1
f 233/10/1 234/8/1 235/46/1 236/45/1
f 237/29/1 238/30/1 239/18/1 240/17/1
f 241/31/1 242/29/1 243/17/1 244/21/1
f 245/32/1 246/31/1 247/21/1 248/23/1
f 249/10/1 250/8/1 251/46/1 252/45/1
f 253/39/1 254/40/1 255/30/1 256/29/1
f 257/41/1 258/39/1 259/29/1 260/31/1
f 261/42/1 262/41/1 263/31/1 264/32/1
f 265/10/1 266/8/1 267/46/1 268/45/1
f 269/10/1 270/8/1 271/46/1 272/45/1
f 273/10/1 274/8/1 275/46/1 276/45/1
f 277/10/1 278/8/1 279/46/1 280/45/1
f 281/10/1 282/8/1 283/46/1 284/45/1

