# Tiled2Unity generated file. Do not modify by hand.
# Wavefront file for 'dungeon1_mesh_0120.obj'

# Vertices (Count = 80)
v -15 -3 0
v -16 -3 0
v -16 -2 0
v -15 -2 0
v -14 -3 0
v -15 -3 0
v -15 -2 0
v -14 -2 0
v -13 -3 0
v -14 -3 0
v -14 -2 0
v -13 -2 0
v -12 -3 0
v -13 -3 0
v -13 -2 0
v -12 -2 0
v -11 -3 0
v -12 -3 0
v -12 -2 0
v -11 -2 0
v -10 -3 0
v -11 -3 0
v -11 -2 0
v -10 -2 0
v -1 -11 0
v -2 -11 0
v -2 -10 0
v -1 -10 0
v 0 -11 0
v -1 -11 0
v -1 -10 0
v 0 -10 0
v -1 -12 0
v -2 -12 0
v -2 -11 0
v -1 -11 0
v 0 -12 0
v -1 -12 0
v -1 -11 0
v 0 -11 0
v -1 -13 0
v -2 -13 0
v -2 -12 0
v -1 -12 0
v 0 -13 0
v -1 -13 0
v -1 -12 0
v 0 -12 0
v -1 -14 0
v -2 -14 0
v -2 -13 0
v -1 -13 0
v 0 -14 0
v -1 -14 0
v -1 -13 0
v 0 -13 0
v -1 -15 0
v -2 -15 0
v -2 -14 0
v -1 -14 0
v 0 -15 0
v -1 -15 0
v -1 -14 0
v 0 -14 0
v -15 -16 0
v -16 -16 0
v -16 -15 0
v -15 -15 0
v -14 -16 0
v -15 -16 0
v -15 -15 0
v -14 -15 0
v -1 -16 0
v -2 -16 0
v -2 -15 0
v -1 -15 0
v 0 -16 0
v -1 -16 0
v -1 -15 0
v 0 -15 0

# Texture cooridinates (Count = 36)
vt 0.3783784 0.9782609
vt 0.4054054 0.9782609
vt 0.4054054 1
vt 0.3783784 1
vt 0.3513514 0.9782609
vt 0.3513514 1
vt 0.1891892 0.9782609
vt 0.2162162 0.9782609
vt 0.2162162 1
vt 0.1891892 1
vt 0.8378378 0.3913044
vt 0.8648649 0.3913044
vt 0.8648649 0.4130435
vt 0.8378378 0.4130435
vt 0.8108108 0.3913044
vt 0.8108108 0.4130435
vt 0.8378378 0.3695652
vt 0.8648649 0.3695652
vt 0.8108108 0.3695652
vt 0.8378378 0.3478261
vt 0.8648649 0.3478261
vt 0.8108108 0.3478261
vt 0.8378378 0.3260869
vt 0.8648649 0.3260869
vt 0.8108108 0.3260869
vt 0.8378378 0.3043478
vt 0.8648649 0.3043478
vt 0.8108108 0.3043478
vt 0 0.8478261
vt 0.02702703 0.8478261
vt 0.02702703 0.8695652
vt 0 0.8695652
vt 0.08108108 0.8478261
vt 0.1081081 0.8478261
vt 0.1081081 0.8695652
vt 0.08108108 0.8695652

# Normal
vn 0 0 -1

# Mesh description
g dungeon1_mesh_0120

# Faces
f 1/1/1 2/2/1 3/3/1 4/4/1
f 5/1/1 6/2/1 7/3/1 8/4/1
f 9/1/1 10/2/1 11/3/1 12/4/1
f 13/1/1 14/2/1 15/3/1 16/4/1
f 17/5/1 18/1/1 19/4/1 20/6/1
f 21/7/1 22/8/1 23/9/1 24/10/1
f 25/11/1 26/12/1 27/13/1 28/14/1
f 29/15/1 30/11/1 31/14/1 32/16/1
f 33/17/1 34/18/1 35/12/1 36/11/1
f 37/19/1 38/17/1 39/11/1 40/15/1
f 41/20/1 42/21/1 43/18/1 44/17/1
f 45/22/1 46/20/1 47/17/1 48/19/1
f 49/23/1 50/24/1 51/21/1 52/20/1
f 53/25/1 54/23/1 55/20/1 56/22/1
f 57/26/1 58/27/1 59/24/1 60/23/1
f 61/28/1 62/26/1 63/23/1 64/25/1
f 65/29/1 66/30/1 67/31/1 68/32/1
f 69/33/1 70/34/1 71/35/1 72/36/1
f 73/11/1 74/12/1 75/13/1 76/14/1
f 77/15/1 78/11/1 79/14/1 80/16/1

