# Tiled2Unity generated file. Do not modify by hand.
# Wavefront file for 'dungeon1_mesh_0079.obj'

# Vertices (Count = 272)
v -11 -1 0
v -12 -1 0
v -12 0 0
v -11 0 0
v -10 -1 0
v -11 -1 0
v -11 0 0
v -10 0 0
v -9 -1 0
v -10 -1 0
v -10 0 0
v -9 0 0
v -8 -1 0
v -9 -1 0
v -9 0 0
v -8 0 0
v -7 -1 0
v -8 -1 0
v -8 0 0
v -7 0 0
v -11 -2 0
v -12 -2 0
v -12 -1 0
v -11 -1 0
v -10 -2 0
v -11 -2 0
v -11 -1 0
v -10 -1 0
v -9 -2 0
v -10 -2 0
v -10 -1 0
v -9 -1 0
v -8 -2 0
v -9 -2 0
v -9 -1 0
v -8 -1 0
v -7 -2 0
v -8 -2 0
v -8 -1 0
v -7 -1 0
v -11 -3 0
v -12 -3 0
v -12 -2 0
v -11 -2 0
v -10 -3 0
v -11 -3 0
v -11 -2 0
v -10 -2 0
v -9 -3 0
v -10 -3 0
v -10 -2 0
v -9 -2 0
v -8 -3 0
v -9 -3 0
v -9 -2 0
v -8 -2 0
v -7 -3 0
v -8 -3 0
v -8 -2 0
v -7 -2 0
v -11 -4 0
v -12 -4 0
v -12 -3 0
v -11 -3 0
v -10 -4 0
v -11 -4 0
v -11 -3 0
v -10 -3 0
v -9 -4 0
v -10 -4 0
v -10 -3 0
v -9 -3 0
v -8 -4 0
v -9 -4 0
v -9 -3 0
v -8 -3 0
v -7 -4 0
v -8 -4 0
v -8 -3 0
v -7 -3 0
v -11 -5 0
v -12 -5 0
v -12 -4 0
v -11 -4 0
v -10 -5 0
v -11 -5 0
v -11 -4 0
v -10 -4 0
v -9 -5 0
v -10 -5 0
v -10 -4 0
v -9 -4 0
v -8 -5 0
v -9 -5 0
v -9 -4 0
v -8 -4 0
v -7 -5 0
v -8 -5 0
v -8 -4 0
v -7 -4 0
v -11 -6 0
v -12 -6 0
v -12 -5 0
v -11 -5 0
v -10 -6 0
v -11 -6 0
v -11 -5 0
v -10 -5 0
v -9 -6 0
v -10 -6 0
v -10 -5 0
v -9 -5 0
v -8 -6 0
v -9 -6 0
v -9 -5 0
v -8 -5 0
v -7 -6 0
v -8 -6 0
v -8 -5 0
v -7 -5 0
v -11 -7 0
v -12 -7 0
v -12 -6 0
v -11 -6 0
v -10 -7 0
v -11 -7 0
v -11 -6 0
v -10 -6 0
v -9 -7 0
v -10 -7 0
v -10 -6 0
v -9 -6 0
v -8 -7 0
v -9 -7 0
v -9 -6 0
v -8 -6 0
v -7 -7 0
v -8 -7 0
v -8 -6 0
v -7 -6 0
v -11 -8 0
v -12 -8 0
v -12 -7 0
v -11 -7 0
v -9 -8 0
v -10 -8 0
v -10 -7 0
v -9 -7 0
v -8 -8 0
v -9 -8 0
v -9 -7 0
v -8 -7 0
v -7 -8 0
v -8 -8 0
v -8 -7 0
v -7 -7 0
v -11 -9 0
v -12 -9 0
v -12 -8 0
v -11 -8 0
v -9 -9 0
v -10 -9 0
v -10 -8 0
v -9 -8 0
v -7 -9 0
v -8 -9 0
v -8 -8 0
v -7 -8 0
v -7 -10 0
v -8 -10 0
v -8 -9 0
v -7 -9 0
v -9 -11 0
v -10 -11 0
v -10 -10 0
v -9 -10 0
v -11 -12 0
v -12 -12 0
v -12 -11 0
v -11 -11 0
v -9 -12 0
v -10 -12 0
v -10 -11 0
v -9 -11 0
v -8 -12 0
v -9 -12 0
v -9 -11 0
v -8 -11 0
v -7 -12 0
v -8 -12 0
v -8 -11 0
v -7 -11 0
v -11 -13 0
v -12 -13 0
v -12 -12 0
v -11 -12 0
v -10 -13 0
v -11 -13 0
v -11 -12 0
v -10 -12 0
v -9 -13 0
v -10 -13 0
v -10 -12 0
v -9 -12 0
v -8 -13 0
v -9 -13 0
v -9 -12 0
v -8 -12 0
v -7 -13 0
v -8 -13 0
v -8 -12 0
v -7 -12 0
v -11 -14 0
v -12 -14 0
v -12 -13 0
v -11 -13 0
v -10 -14 0
v -11 -14 0
v -11 -13 0
v -10 -13 0
v -9 -14 0
v -10 -14 0
v -10 -13 0
v -9 -13 0
v -8 -14 0
v -9 -14 0
v -9 -13 0
v -8 -13 0
v -7 -14 0
v -8 -14 0
v -8 -13 0
v -7 -13 0
v -11 -15 0
v -12 -15 0
v -12 -14 0
v -11 -14 0
v -10 -15 0
v -11 -15 0
v -11 -14 0
v -10 -14 0
v -9 -15 0
v -10 -15 0
v -10 -14 0
v -9 -14 0
v -8 -15 0
v -9 -15 0
v -9 -14 0
v -8 -14 0
v -7 -15 0
v -8 -15 0
v -8 -14 0
v -7 -14 0
v -11 -16 0
v -12 -16 0
v -12 -15 0
v -11 -15 0
v -10 -16 0
v -11 -16 0
v -11 -15 0
v -10 -15 0
v -9 -16 0
v -10 -16 0
v -10 -15 0
v -9 -15 0
v -8 -16 0
v -9 -16 0
v -9 -15 0
v -8 -15 0
v -7 -16 0
v -8 -16 0
v -8 -15 0
v -7 -15 0

# Texture cooridinates (Count = 28)
vt 0.2972973 0.0869565
vt 0.3243243 0.0869565
vt 0.3243243 0.1086956
vt 0.2972973 0.1086956
vt 0.2702703 0.0869565
vt 0.2702703 0.1086956
vt 0.2432432 0.0869565
vt 0.2432432 0.1086956
vt 0.2432432 0.06521738
vt 0.2702703 0.06521738
vt 0.2972973 0.06521738
vt 0.3243243 0.06521738
vt 0.2972973 0.04347825
vt 0.3243243 0.04347825
vt 0.2702703 0.04347825
vt 0.2432432 0.04347825
vt 0 0.1956522
vt 0.02702703 0.1956522
vt 0.02702703 0.2173913
vt 0 0.2173913
vt 0 0.1739131
vt 0.02702703 0.1739131
vt 0 0.1521739
vt 0.02702703 0.1521739
vt 0.3513514 0.0869565
vt 0.3783784 0.0869565
vt 0.3783784 0.1086956
vt 0.3513514 0.1086956

# Normal
vn 0 0 -1

# Mesh description
g dungeon1_mesh_0079

# Faces
f 1/1/1 2/2/1 3/3/1 4/4/1
f 5/5/1 6/1/1 7/4/1 8/6/1
f 9/7/1 10/5/1 11/6/1 12/8/1
f 13/7/1 14/5/1 15/6/1 16/8/1
f 17/7/1 18/5/1 19/6/1 20/8/1
f 21/1/1 22/2/1 23/3/1 24/4/1
f 25/5/1 26/1/1 27/4/1 28/6/1
f 29/7/1 30/5/1 31/6/1 32/8/1
f 33/9/1 34/10/1 35/5/1 36/7/1
f 37/9/1 38/10/1 39/5/1 40/7/1
f 41/11/1 42/12/1 43/2/1 44/1/1
f 45/10/1 46/11/1 47/1/1 48/5/1
f 49/9/1 50/10/1 51/5/1 52/7/1
f 53/5/1 54/1/1 55/4/1 56/6/1
f 57/7/1 58/5/1 59/6/1 60/8/1
f 61/13/1 62/14/1 63/12/1 64/11/1
f 65/15/1 66/13/1 67/11/1 68/10/1
f 69/16/1 70/15/1 71/10/1 72/9/1
f 73/10/1 74/11/1 75/1/1 76/5/1
f 77/9/1 78/10/1 79/5/1 80/7/1
f 81/10/1 82/11/1 83/1/1 84/5/1
f 85/17/1 86/18/1 87/19/1 88/20/1
f 89/13/1 90/14/1 91/12/1 92/11/1
f 93/15/1 94/13/1 95/11/1 96/10/1
f 97/16/1 98/15/1 99/10/1 100/9/1
f 101/10/1 102/11/1 103/1/1 104/5/1
f 105/21/1 106/22/1 107/18/1 108/17/1
f 109/10/1 110/11/1 111/1/1 112/5/1
f 113/17/1 114/18/1 115/19/1 116/20/1
f 117/10/1 118/11/1 119/1/1 120/5/1
f 121/17/1 122/18/1 123/19/1 124/20/1
f 125/23/1 126/24/1 127/22/1 128/21/1
f 129/17/1 130/18/1 131/19/1 132/20/1
f 133/21/1 134/22/1 135/18/1 136/17/1
f 137/10/1 138/11/1 139/1/1 140/5/1
f 141/21/1 142/22/1 143/18/1 144/17/1
f 145/21/1 146/22/1 147/18/1 148/17/1
f 149/23/1 150/24/1 151/22/1 152/21/1
f 153/17/1 154/18/1 155/19/1 156/20/1
f 157/23/1 158/24/1 159/22/1 160/21/1
f 161/23/1 162/24/1 163/22/1 164/21/1
f 165/21/1 166/22/1 167/18/1 168/17/1
f 169/23/1 170/24/1 171/22/1 172/21/1
f 173/25/1 174/26/1 175/27/1 176/28/1
f 177/25/1 178/26/1 179/27/1 180/28/1
f 181/25/1 182/26/1 183/27/1 184/28/1
f 185/25/1 186/26/1 187/27/1 188/28/1
f 189/25/1 190/26/1 191/27/1 192/28/1
f 193/11/1 194/12/1 195/2/1 196/1/1
f 197/10/1 198/11/1 199/1/1 200/5/1
f 201/10/1 202/11/1 203/1/1 204/5/1
f 205/11/1 206/12/1 207/2/1 208/1/1
f 209/10/1 210/11/1 211/1/1 212/5/1
f 213/13/1 214/14/1 215/12/1 216/11/1
f 217/11/1 218/12/1 219/2/1 220/1/1
f 221/10/1 222/11/1 223/1/1 224/5/1
f 225/10/1 226/11/1 227/1/1 228/5/1
f 229/10/1 230/11/1 231/1/1 232/5/1
f 233/11/1 234/12/1 235/2/1 236/1/1
f 237/10/1 238/11/1 239/1/1 240/5/1
f 241/15/1 242/13/1 243/11/1 244/10/1
f 245/15/1 246/13/1 247/11/1 248/10/1
f 249/10/1 250/11/1 251/1/1 252/5/1
f 253/13/1 254/14/1 255/12/1 256/11/1
f 257/15/1 258/13/1 259/11/1 260/10/1
f 261/13/1 262/14/1 263/12/1 264/11/1
f 265/15/1 266/13/1 267/11/1 268/10/1
f 269/15/1 270/13/1 271/11/1 272/10/1

