# Tiled2Unity generated file. Do not modify by hand.
# Wavefront file for 'dungeon1_mesh_0134.obj'

# Vertices (Count = 328)
v -15 -1 0
v -16 -1 0
v -16 0 0
v -15 0 0
v -14 -1 0
v -15 -1 0
v -15 0 0
v -14 0 0
v -13 -1 0
v -14 -1 0
v -14 0 0
v -13 0 0
v -12 -1 0
v -13 -1 0
v -13 0 0
v -12 0 0
v -11 -1 0
v -12 -1 0
v -12 0 0
v -11 0 0
v -10 -1 0
v -11 -1 0
v -11 0 0
v -10 0 0
v -9 -1 0
v -10 -1 0
v -10 0 0
v -9 0 0
v -6 -1 0
v -7 -1 0
v -7 0 0
v -6 0 0
v -5 -1 0
v -6 -1 0
v -6 0 0
v -5 0 0
v -4 -1 0
v -5 -1 0
v -5 0 0
v -4 0 0
v -3 -1 0
v -4 -1 0
v -4 0 0
v -3 0 0
v -2 -1 0
v -3 -1 0
v -3 0 0
v -2 0 0
v -1 -1 0
v -2 -1 0
v -2 0 0
v -1 0 0
v 0 -1 0
v -1 -1 0
v -1 0 0
v 0 0 0
v -6 -2 0
v -7 -2 0
v -7 -1 0
v -6 -1 0
v -5 -2 0
v -6 -2 0
v -6 -1 0
v -5 -1 0
v -4 -2 0
v -5 -2 0
v -5 -1 0
v -4 -1 0
v -3 -2 0
v -4 -2 0
v -4 -1 0
v -3 -1 0
v -2 -2 0
v -3 -2 0
v -3 -1 0
v -2 -1 0
v -1 -2 0
v -2 -2 0
v -2 -1 0
v -1 -1 0
v 0 -2 0
v -1 -2 0
v -1 -1 0
v 0 -1 0
v -6 -3 0
v -7 -3 0
v -7 -2 0
v -6 -2 0
v -5 -3 0
v -6 -3 0
v -6 -2 0
v -5 -2 0
v -4 -3 0
v -5 -3 0
v -5 -2 0
v -4 -2 0
v -3 -3 0
v -4 -3 0
v -4 -2 0
v -3 -2 0
v -2 -3 0
v -3 -3 0
v -3 -2 0
v -2 -2 0
v -1 -3 0
v -2 -3 0
v -2 -2 0
v -1 -2 0
v 0 -3 0
v -1 -3 0
v -1 -2 0
v 0 -2 0
v -5 -4 0
v -6 -4 0
v -6 -3 0
v -5 -3 0
v -4 -4 0
v -5 -4 0
v -5 -3 0
v -4 -3 0
v -3 -4 0
v -4 -4 0
v -4 -3 0
v -3 -3 0
v -2 -4 0
v -3 -4 0
v -3 -3 0
v -2 -3 0
v -1 -4 0
v -2 -4 0
v -2 -3 0
v -1 -3 0
v 0 -4 0
v -1 -4 0
v -1 -3 0
v 0 -3 0
v -5 -5 0
v -6 -5 0
v -6 -4 0
v -5 -4 0
v -4 -5 0
v -5 -5 0
v -5 -4 0
v -4 -4 0
v -3 -5 0
v -4 -5 0
v -4 -4 0
v -3 -4 0
v -2 -5 0
v -3 -5 0
v -3 -4 0
v -2 -4 0
v -1 -5 0
v -2 -5 0
v -2 -4 0
v -1 -4 0
v 0 -5 0
v -1 -5 0
v -1 -4 0
v 0 -4 0
v -15 -6 0
v -16 -6 0
v -16 -5 0
v -15 -5 0
v -14 -6 0
v -15 -6 0
v -15 -5 0
v -14 -5 0
v -13 -6 0
v -14 -6 0
v -14 -5 0
v -13 -5 0
v -12 -6 0
v -13 -6 0
v -13 -5 0
v -12 -5 0
v -11 -6 0
v -12 -6 0
v -12 -5 0
v -11 -5 0
v -10 -6 0
v -11 -6 0
v -11 -5 0
v -10 -5 0
v -9 -6 0
v -10 -6 0
v -10 -5 0
v -9 -5 0
v -4 -6 0
v -5 -6 0
v -5 -5 0
v -4 -5 0
v -3 -6 0
v -4 -6 0
v -4 -5 0
v -3 -5 0
v -2 -6 0
v -3 -6 0
v -3 -5 0
v -2 -5 0
v -1 -6 0
v -2 -6 0
v -2 -5 0
v -1 -5 0
v 0 -6 0
v -1 -6 0
v -1 -5 0
v 0 -5 0
v -10 -7 0
v -11 -7 0
v -11 -6 0
v -10 -6 0
v -9 -7 0
v -10 -7 0
v -10 -6 0
v -9 -6 0
v -3 -7 0
v -4 -7 0
v -4 -6 0
v -3 -6 0
v -2 -7 0
v -3 -7 0
v -3 -6 0
v -2 -6 0
v -1 -7 0
v -2 -7 0
v -2 -6 0
v -1 -6 0
v 0 -7 0
v -1 -7 0
v -1 -6 0
v 0 -6 0
v -10 -8 0
v -11 -8 0
v -11 -7 0
v -10 -7 0
v -9 -8 0
v -10 -8 0
v -10 -7 0
v -9 -7 0
v -1 -8 0
v -2 -8 0
v -2 -7 0
v -1 -7 0
v 0 -8 0
v -1 -8 0
v -1 -7 0
v 0 -7 0
v -10 -9 0
v -11 -9 0
v -11 -8 0
v -10 -8 0
v -9 -9 0
v -10 -9 0
v -10 -8 0
v -9 -8 0
v -10 -10 0
v -11 -10 0
v -11 -9 0
v -10 -9 0
v -9 -10 0
v -10 -10 0
v -10 -9 0
v -9 -9 0
v -10 -11 0
v -11 -11 0
v -11 -10 0
v -10 -10 0
v -9 -11 0
v -10 -11 0
v -10 -10 0
v -9 -10 0
v -10 -12 0
v -11 -12 0
v -11 -11 0
v -10 -11 0
v -9 -12 0
v -10 -12 0
v -10 -11 0
v -9 -11 0
v -10 -13 0
v -11 -13 0
v -11 -12 0
v -10 -12 0
v -9 -13 0
v -10 -13 0
v -10 -12 0
v -9 -12 0
v -10 -14 0
v -11 -14 0
v -11 -13 0
v -10 -13 0
v -9 -14 0
v -10 -14 0
v -10 -13 0
v -9 -13 0
v -10 -15 0
v -11 -15 0
v -11 -14 0
v -10 -14 0
v -9 -15 0
v -10 -15 0
v -10 -14 0
v -9 -14 0
v -8 -15 0
v -9 -15 0
v -9 -14 0
v -8 -14 0
v -7 -15 0
v -8 -15 0
v -8 -14 0
v -7 -14 0
v -10 -16 0
v -11 -16 0
v -11 -15 0
v -10 -15 0
v -9 -16 0
v -10 -16 0
v -10 -15 0
v -9 -15 0
v -8 -16 0
v -9 -16 0
v -9 -15 0
v -8 -15 0
v -7 -16 0
v -8 -16 0
v -8 -15 0
v -7 -15 0

# Texture cooridinates (Count = 52)
vt 0.1891892 0.7391304
vt 0.2162162 0.7391304
vt 0.2162162 0.7608696
vt 0.1891892 0.7608696
vt 0.1351351 0.7391304
vt 0.1621622 0.7391304
vt 0.1621622 0.7608696
vt 0.1351351 0.7608696
vt 0.5135135 0.6521739
vt 0.5405405 0.6521739
vt 0.5405405 0.673913
vt 0.5135135 0.673913
vt 0.4864865 0.6521739
vt 0.4864865 0.673913
vt 0.5135135 0.6956522
vt 0.5405405 0.6956522
vt 0.5405405 0.7173913
vt 0.5135135 0.7173913
vt 0.4864865 0.7173913
vt 0.5135135 0.7391304
vt 0.4864865 0.7391304
vt 0.4864865 0.6956522
vt 0.2162162 0.9782609
vt 0.2432432 0.9782609
vt 0.2432432 1
vt 0.2162162 1
vt 0.1621622 0.9782609
vt 0.1891892 0.9782609
vt 0.1891892 1
vt 0.1621622 1
vt 0.1351351 0.8478261
vt 0.1621622 0.8478261
vt 0.1621622 0.8695652
vt 0.1351351 0.8695652
vt 0.1621622 0.9347826
vt 0.1891892 0.9347826
vt 0.1891892 0.9565217
vt 0.1621622 0.9565217
vt 0.1351351 0.8260869
vt 0.1621622 0.8260869
vt 0.1621622 0.9130435
vt 0.1891892 0.9130435
vt 0.1621622 0.8913044
vt 0.1891892 0.8913044
vt 0.1351351 0.7826087
vt 0.1621622 0.7826087
vt 0.1621622 0.8043478
vt 0.1351351 0.8043478
vt 0.2702703 0.7173913
vt 0.2972973 0.7173913
vt 0.2972973 0.7391304
vt 0.2702703 0.7391304

# Normal
vn 0 0 -1

# Mesh description
g dungeon1_mesh_0134

# Faces
f 1/1/1 2/2/1 3/3/1 4/4/1
f 5/1/1 6/2/1 7/3/1 8/4/1
f 9/1/1 10/2/1 11/3/1 12/4/1
f 13/1/1 14/2/1 15/3/1 16/4/1
f 17/1/1 18/2/1 19/3/1 20/4/1
f 21/1/1 22/2/1 23/3/1 24/4/1
f 25/5/1 26/6/1 27/7/1 28/8/1
f 29/9/1 30/10/1 31/11/1 32/12/1
f 33/13/1 34/9/1 35/12/1 36/14/1
f 37/15/1 38/16/1 39/17/1 40/18/1
f 41/9/1 42/10/1 43/11/1 44/12/1
f 45/13/1 46/9/1 47/12/1 48/14/1
f 49/19/1 50/18/1 51/20/1 52/21/1
f 53/9/1 54/10/1 55/11/1 56/12/1
f 57/9/1 58/10/1 59/11/1 60/12/1
f 61/13/1 62/9/1 63/12/1 64/14/1
f 65/12/1 66/11/1 67/16/1 68/15/1
f 69/9/1 70/10/1 71/11/1 72/12/1
f 73/13/1 74/9/1 75/12/1 76/14/1
f 77/19/1 78/18/1 79/20/1 80/21/1
f 81/22/1 82/15/1 83/18/1 84/19/1
f 85/9/1 86/10/1 87/11/1 88/12/1
f 89/13/1 90/9/1 91/12/1 92/14/1
f 93/9/1 94/10/1 95/11/1 96/12/1
f 97/13/1 98/9/1 99/12/1 100/14/1
f 101/14/1 102/12/1 103/15/1 104/22/1
f 105/19/1 106/18/1 107/20/1 108/21/1
f 109/14/1 110/12/1 111/15/1 112/22/1
f 113/9/1 114/10/1 115/11/1 116/12/1
f 117/9/1 118/10/1 119/11/1 120/12/1
f 121/13/1 122/9/1 123/12/1 124/14/1
f 125/13/1 126/9/1 127/12/1 128/14/1
f 129/22/1 130/15/1 131/18/1 132/19/1
f 133/19/1 134/18/1 135/20/1 136/21/1
f 137/9/1 138/10/1 139/11/1 140/12/1
f 141/13/1 142/9/1 143/12/1 144/14/1
f 145/9/1 146/10/1 147/11/1 148/12/1
f 149/13/1 150/9/1 151/12/1 152/14/1
f 153/14/1 154/12/1 155/15/1 156/22/1
f 157/22/1 158/15/1 159/18/1 160/19/1
f 161/23/1 162/24/1 163/25/1 164/26/1
f 165/23/1 166/24/1 167/25/1 168/26/1
f 169/23/1 170/24/1 171/25/1 172/26/1
f 173/23/1 174/24/1 175/25/1 176/26/1
f 177/23/1 178/24/1 179/25/1 180/26/1
f 181/27/1 182/28/1 183/29/1 184/30/1
f 185/31/1 186/32/1 187/33/1 188/34/1
f 189/9/1 190/10/1 191/11/1 192/12/1
f 193/9/1 194/10/1 195/11/1 196/12/1
f 197/13/1 198/9/1 199/12/1 200/14/1
f 201/13/1 202/9/1 203/12/1 204/14/1
f 205/14/1 206/12/1 207/15/1 208/22/1
f 209/35/1 210/36/1 211/37/1 212/38/1
f 213/39/1 214/40/1 215/32/1 216/31/1
f 217/9/1 218/10/1 219/11/1 220/12/1
f 221/13/1 222/9/1 223/12/1 224/14/1
f 225/13/1 226/9/1 227/12/1 228/14/1
f 229/13/1 230/9/1 231/12/1 232/14/1
f 233/41/1 234/42/1 235/36/1 236/35/1
f 237/31/1 238/32/1 239/33/1 240/34/1
f 241/9/1 242/10/1 243/11/1 244/12/1
f 245/13/1 246/9/1 247/12/1 248/14/1
f 249/43/1 250/44/1 251/42/1 252/41/1
f 253/39/1 254/40/1 255/32/1 256/31/1
f 257/35/1 258/36/1 259/37/1 260/38/1
f 261/45/1 262/46/1 263/47/1 264/48/1
f 265/41/1 266/42/1 267/36/1 268/35/1
f 269/45/1 270/46/1 271/47/1 272/48/1
f 273/43/1 274/44/1 275/42/1 276/41/1
f 277/45/1 278/46/1 279/47/1 280/48/1
f 281/35/1 282/36/1 283/37/1 284/38/1
f 285/45/1 286/46/1 287/47/1 288/48/1
f 289/41/1 290/42/1 291/36/1 292/35/1
f 293/45/1 294/46/1 295/47/1 296/48/1
f 297/43/1 298/44/1 299/42/1 300/41/1
f 301/45/1 302/46/1 303/47/1 304/48/1
f 305/49/1 306/50/1 307/51/1 308/52/1
f 309/49/1 310/50/1 311/51/1 312/52/1
f 313/43/1 314/44/1 315/42/1 316/41/1
f 317/45/1 318/46/1 319/47/1 320/48/1
f 321/49/1 322/50/1 323/51/1 324/52/1
f 325/49/1 326/50/1 327/51/1 328/52/1

