# Tiled2Unity generated file. Do not modify by hand.
# Wavefront file for 'dungeon1_mesh_0034.obj'

# Vertices (Count = 220)
v -15 -7 0
v -16 -7 0
v -16 -6 0
v -15 -6 0
v -14 -7 0
v -15 -7 0
v -15 -6 0
v -14 -6 0
v -13 -7 0
v -14 -7 0
v -14 -6 0
v -13 -6 0
v -12 -7 0
v -13 -7 0
v -13 -6 0
v -12 -6 0
v -11 -7 0
v -12 -7 0
v -12 -6 0
v -11 -6 0
v -15 -8 0
v -16 -8 0
v -16 -7 0
v -15 -7 0
v -14 -8 0
v -15 -8 0
v -15 -7 0
v -14 -7 0
v -13 -8 0
v -14 -8 0
v -14 -7 0
v -13 -7 0
v -12 -8 0
v -13 -8 0
v -13 -7 0
v -12 -7 0
v -11 -8 0
v -12 -8 0
v -12 -7 0
v -11 -7 0
v -15 -9 0
v -16 -9 0
v -16 -8 0
v -15 -8 0
v -14 -9 0
v -15 -9 0
v -15 -8 0
v -14 -8 0
v -13 -9 0
v -14 -9 0
v -14 -8 0
v -13 -8 0
v -12 -9 0
v -13 -9 0
v -13 -8 0
v -12 -8 0
v -11 -9 0
v -12 -9 0
v -12 -8 0
v -11 -8 0
v -15 -10 0
v -16 -10 0
v -16 -9 0
v -15 -9 0
v -14 -10 0
v -15 -10 0
v -15 -9 0
v -14 -9 0
v -13 -10 0
v -14 -10 0
v -14 -9 0
v -13 -9 0
v -12 -10 0
v -13 -10 0
v -13 -9 0
v -12 -9 0
v -11 -10 0
v -12 -10 0
v -12 -9 0
v -11 -9 0
v -10 -10 0
v -11 -10 0
v -11 -9 0
v -10 -9 0
v -15 -11 0
v -16 -11 0
v -16 -10 0
v -15 -10 0
v -14 -11 0
v -15 -11 0
v -15 -10 0
v -14 -10 0
v -13 -11 0
v -14 -11 0
v -14 -10 0
v -13 -10 0
v -12 -11 0
v -13 -11 0
v -13 -10 0
v -12 -10 0
v -11 -11 0
v -12 -11 0
v -12 -10 0
v -11 -10 0
v -10 -11 0
v -11 -11 0
v -11 -10 0
v -10 -10 0
v -15 -12 0
v -16 -12 0
v -16 -11 0
v -15 -11 0
v -14 -12 0
v -15 -12 0
v -15 -11 0
v -14 -11 0
v -13 -12 0
v -14 -12 0
v -14 -11 0
v -13 -11 0
v -12 -12 0
v -13 -12 0
v -13 -11 0
v -12 -11 0
v -11 -12 0
v -12 -12 0
v -12 -11 0
v -11 -11 0
v -10 -12 0
v -11 -12 0
v -11 -11 0
v -10 -11 0
v -15 -13 0
v -16 -13 0
v -16 -12 0
v -15 -12 0
v -14 -13 0
v -15 -13 0
v -15 -12 0
v -14 -12 0
v -13 -13 0
v -14 -13 0
v -14 -12 0
v -13 -12 0
v -12 -13 0
v -13 -13 0
v -13 -12 0
v -12 -12 0
v -11 -13 0
v -12 -13 0
v -12 -12 0
v -11 -12 0
v -10 -13 0
v -11 -13 0
v -11 -12 0
v -10 -12 0
v -15 -14 0
v -16 -14 0
v -16 -13 0
v -15 -13 0
v -14 -14 0
v -15 -14 0
v -15 -13 0
v -14 -13 0
v -13 -14 0
v -14 -14 0
v -14 -13 0
v -13 -13 0
v -12 -14 0
v -13 -14 0
v -13 -13 0
v -12 -13 0
v -11 -14 0
v -12 -14 0
v -12 -13 0
v -11 -13 0
v -10 -14 0
v -11 -14 0
v -11 -13 0
v -10 -13 0
v -15 -15 0
v -16 -15 0
v -16 -14 0
v -15 -14 0
v -14 -15 0
v -15 -15 0
v -15 -14 0
v -14 -14 0
v -13 -15 0
v -14 -15 0
v -14 -14 0
v -13 -14 0
v -12 -15 0
v -13 -15 0
v -13 -14 0
v -12 -14 0
v -11 -15 0
v -12 -15 0
v -12 -14 0
v -11 -14 0
v -15 -16 0
v -16 -16 0
v -16 -15 0
v -15 -15 0
v -14 -16 0
v -15 -16 0
v -15 -15 0
v -14 -15 0
v -13 -16 0
v -14 -16 0
v -14 -15 0
v -13 -15 0
v -12 -16 0
v -13 -16 0
v -13 -15 0
v -12 -15 0
v -11 -16 0
v -12 -16 0
v -12 -15 0
v -11 -15 0

# Texture cooridinates (Count = 28)
vt 0.02702703 0.1956522
vt 0.05405406 0.1956522
vt 0.05405406 0.2173913
vt 0.02702703 0.2173913
vt 0 0.1956522
vt 0 0.2173913
vt 0.08108108 0.1956522
vt 0.08108108 0.2173913
vt 0.02702703 0.1739131
vt 0.05405406 0.1739131
vt 0 0.1739131
vt 0.08108108 0.1739131
vt 0.2162162 0.9347826
vt 0.2432432 0.9347826
vt 0.2432432 0.9565217
vt 0.2162162 0.9565217
vt 0.2162162 0.9130435
vt 0.2432432 0.9130435
vt 0.2162162 0.8913044
vt 0.2432432 0.8913044
vt 0.2162162 0.8695652
vt 0.2432432 0.8695652
vt 0.2972973 0.8695652
vt 0.3243243 0.8695652
vt 0.3243243 0.8913044
vt 0.2972973 0.8913044
vt 0.2702703 0.8695652
vt 0.2702703 0.8913044

# Normal
vn 0 0 -1

# Mesh description
g dungeon1_mesh_0034

# Faces
f 1/1/1 2/2/1 3/3/1 4/4/1
f 5/5/1 6/1/1 7/4/1 8/6/1
f 9/2/1 10/7/1 11/8/1 12/3/1
f 13/1/1 14/2/1 15/3/1 16/4/1
f 17/5/1 18/1/1 19/4/1 20/6/1
f 21/9/1 22/10/1 23/2/1 24/1/1
f 25/11/1 26/9/1 27/1/1 28/5/1
f 29/10/1 30/12/1 31/7/1 32/2/1
f 33/9/1 34/10/1 35/2/1 36/1/1
f 37/11/1 38/9/1 39/1/1 40/5/1
f 41/13/1 42/14/1 43/15/1 44/16/1
f 45/13/1 46/14/1 47/15/1 48/16/1
f 49/13/1 50/14/1 51/15/1 52/16/1
f 53/13/1 54/14/1 55/15/1 56/16/1
f 57/13/1 58/14/1 59/15/1 60/16/1
f 61/13/1 62/14/1 63/15/1 64/16/1
f 65/17/1 66/18/1 67/14/1 68/13/1
f 69/17/1 70/18/1 71/14/1 72/13/1
f 73/17/1 74/18/1 75/14/1 76/13/1
f 77/17/1 78/18/1 79/14/1 80/13/1
f 81/13/1 82/14/1 83/15/1 84/16/1
f 85/13/1 86/14/1 87/15/1 88/16/1
f 89/19/1 90/20/1 91/18/1 92/17/1
f 93/19/1 94/20/1 95/18/1 96/17/1
f 97/19/1 98/20/1 99/18/1 100/17/1
f 101/19/1 102/20/1 103/18/1 104/17/1
f 105/17/1 106/18/1 107/14/1 108/13/1
f 109/13/1 110/14/1 111/15/1 112/16/1
f 113/21/1 114/22/1 115/20/1 116/19/1
f 117/21/1 118/22/1 119/20/1 120/19/1
f 121/21/1 122/22/1 123/20/1 124/19/1
f 125/21/1 126/22/1 127/20/1 128/19/1
f 129/19/1 130/20/1 131/18/1 132/17/1
f 133/13/1 134/14/1 135/15/1 136/16/1
f 137/23/1 138/24/1 139/25/1 140/26/1
f 141/27/1 142/23/1 143/26/1 144/28/1
f 145/22/1 146/27/1 147/28/1 148/20/1
f 149/21/1 150/22/1 151/20/1 152/19/1
f 153/21/1 154/22/1 155/20/1 156/19/1
f 157/17/1 158/18/1 159/14/1 160/13/1
f 161/23/1 162/24/1 163/25/1 164/26/1
f 165/23/1 166/24/1 167/25/1 168/26/1
f 169/27/1 170/23/1 171/26/1 172/28/1
f 173/22/1 174/27/1 175/28/1 176/20/1
f 177/21/1 178/22/1 179/20/1 180/19/1
f 181/13/1 182/14/1 183/15/1 184/16/1
f 185/23/1 186/24/1 187/25/1 188/26/1
f 189/27/1 190/23/1 191/26/1 192/28/1
f 193/22/1 194/27/1 195/28/1 196/20/1
f 197/21/1 198/22/1 199/20/1 200/19/1
f 201/13/1 202/14/1 203/15/1 204/16/1
f 205/23/1 206/24/1 207/25/1 208/26/1
f 209/27/1 210/23/1 211/26/1 212/28/1
f 213/22/1 214/27/1 215/28/1 216/20/1
f 217/21/1 218/22/1 219/20/1 220/19/1

