# Tiled2Unity generated file. Do not modify by hand.
# Wavefront file for 'dungeon1_mesh_0061.obj'

# Vertices (Count = 540)
v -11 -1 0
v -12 -1 0
v -12 0 0
v -11 0 0
v -10 -1 0
v -11 -1 0
v -11 0 0
v -10 0 0
v -9 -1 0
v -10 -1 0
v -10 0 0
v -9 0 0
v -8 -1 0
v -9 -1 0
v -9 0 0
v -8 0 0
v -7 -1 0
v -8 -1 0
v -8 0 0
v -7 0 0
v -11 -2 0
v -12 -2 0
v -12 -1 0
v -11 -1 0
v -10 -2 0
v -11 -2 0
v -11 -1 0
v -10 -1 0
v -9 -2 0
v -10 -2 0
v -10 -1 0
v -9 -1 0
v -8 -2 0
v -9 -2 0
v -9 -1 0
v -8 -1 0
v -7 -2 0
v -8 -2 0
v -8 -1 0
v -7 -1 0
v -11 -3 0
v -12 -3 0
v -12 -2 0
v -11 -2 0
v -10 -3 0
v -11 -3 0
v -11 -2 0
v -10 -2 0
v -9 -3 0
v -10 -3 0
v -10 -2 0
v -9 -2 0
v -8 -3 0
v -9 -3 0
v -9 -2 0
v -8 -2 0
v -7 -3 0
v -8 -3 0
v -8 -2 0
v -7 -2 0
v -11 -4 0
v -12 -4 0
v -12 -3 0
v -11 -3 0
v -10 -4 0
v -11 -4 0
v -11 -3 0
v -10 -3 0
v -9 -4 0
v -10 -4 0
v -10 -3 0
v -9 -3 0
v -8 -4 0
v -9 -4 0
v -9 -3 0
v -8 -3 0
v -7 -4 0
v -8 -4 0
v -8 -3 0
v -7 -3 0
v -11 -5 0
v -12 -5 0
v -12 -4 0
v -11 -4 0
v -10 -5 0
v -11 -5 0
v -11 -4 0
v -10 -4 0
v -9 -5 0
v -10 -5 0
v -10 -4 0
v -9 -4 0
v -8 -5 0
v -9 -5 0
v -9 -4 0
v -8 -4 0
v -7 -5 0
v -8 -5 0
v -8 -4 0
v -7 -4 0
v -11 -6 0
v -12 -6 0
v -12 -5 0
v -11 -5 0
v -10 -6 0
v -11 -6 0
v -11 -5 0
v -10 -5 0
v -9 -6 0
v -10 -6 0
v -10 -5 0
v -9 -5 0
v -8 -6 0
v -9 -6 0
v -9 -5 0
v -8 -5 0
v -7 -6 0
v -8 -6 0
v -8 -5 0
v -7 -5 0
v -11 -7 0
v -12 -7 0
v -12 -6 0
v -11 -6 0
v -10 -7 0
v -11 -7 0
v -11 -6 0
v -10 -6 0
v -9 -7 0
v -10 -7 0
v -10 -6 0
v -9 -6 0
v -8 -7 0
v -9 -7 0
v -9 -6 0
v -8 -6 0
v -7 -7 0
v -8 -7 0
v -8 -6 0
v -7 -6 0
v -11 -8 0
v -12 -8 0
v -12 -7 0
v -11 -7 0
v -10 -8 0
v -11 -8 0
v -11 -7 0
v -10 -7 0
v -9 -8 0
v -10 -8 0
v -10 -7 0
v -9 -7 0
v -8 -8 0
v -9 -8 0
v -9 -7 0
v -8 -7 0
v -7 -8 0
v -8 -8 0
v -8 -7 0
v -7 -7 0
v -11 -9 0
v -12 -9 0
v -12 -8 0
v -11 -8 0
v -10 -9 0
v -11 -9 0
v -11 -8 0
v -10 -8 0
v -9 -9 0
v -10 -9 0
v -10 -8 0
v -9 -8 0
v -8 -9 0
v -9 -9 0
v -9 -8 0
v -8 -8 0
v -7 -9 0
v -8 -9 0
v -8 -8 0
v -7 -8 0
v -11 -10 0
v -12 -10 0
v -12 -9 0
v -11 -9 0
v -10 -10 0
v -11 -10 0
v -11 -9 0
v -10 -9 0
v -9 -10 0
v -10 -10 0
v -10 -9 0
v -9 -9 0
v -8 -10 0
v -9 -10 0
v -9 -9 0
v -8 -9 0
v -7 -10 0
v -8 -10 0
v -8 -9 0
v -7 -9 0
v -11 -11 0
v -12 -11 0
v -12 -10 0
v -11 -10 0
v -10 -11 0
v -11 -11 0
v -11 -10 0
v -10 -10 0
v -9 -11 0
v -10 -11 0
v -10 -10 0
v -9 -10 0
v -8 -11 0
v -9 -11 0
v -9 -10 0
v -8 -10 0
v -7 -11 0
v -8 -11 0
v -8 -10 0
v -7 -10 0
v -15 -12 0
v -16 -12 0
v -16 -11 0
v -15 -11 0
v -14 -12 0
v -15 -12 0
v -15 -11 0
v -14 -11 0
v -13 -12 0
v -14 -12 0
v -14 -11 0
v -13 -11 0
v -12 -12 0
v -13 -12 0
v -13 -11 0
v -12 -11 0
v -11 -12 0
v -12 -12 0
v -12 -11 0
v -11 -11 0
v -10 -12 0
v -11 -12 0
v -11 -11 0
v -10 -11 0
v -9 -12 0
v -10 -12 0
v -10 -11 0
v -9 -11 0
v -8 -12 0
v -9 -12 0
v -9 -11 0
v -8 -11 0
v -7 -12 0
v -8 -12 0
v -8 -11 0
v -7 -11 0
v -6 -12 0
v -7 -12 0
v -7 -11 0
v -6 -11 0
v -5 -12 0
v -6 -12 0
v -6 -11 0
v -5 -11 0
v -4 -12 0
v -5 -12 0
v -5 -11 0
v -4 -11 0
v -3 -12 0
v -4 -12 0
v -4 -11 0
v -3 -11 0
v -2 -12 0
v -3 -12 0
v -3 -11 0
v -2 -11 0
v -1 -12 0
v -2 -12 0
v -2 -11 0
v -1 -11 0
v 0 -12 0
v -1 -12 0
v -1 -11 0
v 0 -11 0
v -15 -13 0
v -16 -13 0
v -16 -12 0
v -15 -12 0
v -14 -13 0
v -15 -13 0
v -15 -12 0
v -14 -12 0
v -13 -13 0
v -14 -13 0
v -14 -12 0
v -13 -12 0
v -12 -13 0
v -13 -13 0
v -13 -12 0
v -12 -12 0
v -11 -13 0
v -12 -13 0
v -12 -12 0
v -11 -12 0
v -10 -13 0
v -11 -13 0
v -11 -12 0
v -10 -12 0
v -9 -13 0
v -10 -13 0
v -10 -12 0
v -9 -12 0
v -8 -13 0
v -9 -13 0
v -9 -12 0
v -8 -12 0
v -7 -13 0
v -8 -13 0
v -8 -12 0
v -7 -12 0
v -6 -13 0
v -7 -13 0
v -7 -12 0
v -6 -12 0
v -5 -13 0
v -6 -13 0
v -6 -12 0
v -5 -12 0
v -4 -13 0
v -5 -13 0
v -5 -12 0
v -4 -12 0
v -3 -13 0
v -4 -13 0
v -4 -12 0
v -3 -12 0
v -2 -13 0
v -3 -13 0
v -3 -12 0
v -2 -12 0
v -1 -13 0
v -2 -13 0
v -2 -12 0
v -1 -12 0
v 0 -13 0
v -1 -13 0
v -1 -12 0
v 0 -12 0
v -15 -14 0
v -16 -14 0
v -16 -13 0
v -15 -13 0
v -14 -14 0
v -15 -14 0
v -15 -13 0
v -14 -13 0
v -13 -14 0
v -14 -14 0
v -14 -13 0
v -13 -13 0
v -12 -14 0
v -13 -14 0
v -13 -13 0
v -12 -13 0
v -11 -14 0
v -12 -14 0
v -12 -13 0
v -11 -13 0
v -10 -14 0
v -11 -14 0
v -11 -13 0
v -10 -13 0
v -9 -14 0
v -10 -14 0
v -10 -13 0
v -9 -13 0
v -8 -14 0
v -9 -14 0
v -9 -13 0
v -8 -13 0
v -7 -14 0
v -8 -14 0
v -8 -13 0
v -7 -13 0
v -6 -14 0
v -7 -14 0
v -7 -13 0
v -6 -13 0
v -5 -14 0
v -6 -14 0
v -6 -13 0
v -5 -13 0
v -4 -14 0
v -5 -14 0
v -5 -13 0
v -4 -13 0
v -3 -14 0
v -4 -14 0
v -4 -13 0
v -3 -13 0
v -2 -14 0
v -3 -14 0
v -3 -13 0
v -2 -13 0
v -1 -14 0
v -2 -14 0
v -2 -13 0
v -1 -13 0
v 0 -14 0
v -1 -14 0
v -1 -13 0
v 0 -13 0
v -15 -15 0
v -16 -15 0
v -16 -14 0
v -15 -14 0
v -14 -15 0
v -15 -15 0
v -15 -14 0
v -14 -14 0
v -13 -15 0
v -14 -15 0
v -14 -14 0
v -13 -14 0
v -12 -15 0
v -13 -15 0
v -13 -14 0
v -12 -14 0
v -11 -15 0
v -12 -15 0
v -12 -14 0
v -11 -14 0
v -10 -15 0
v -11 -15 0
v -11 -14 0
v -10 -14 0
v -9 -15 0
v -10 -15 0
v -10 -14 0
v -9 -14 0
v -8 -15 0
v -9 -15 0
v -9 -14 0
v -8 -14 0
v -7 -15 0
v -8 -15 0
v -8 -14 0
v -7 -14 0
v -6 -15 0
v -7 -15 0
v -7 -14 0
v -6 -14 0
v -5 -15 0
v -6 -15 0
v -6 -14 0
v -5 -14 0
v -4 -15 0
v -5 -15 0
v -5 -14 0
v -4 -14 0
v -3 -15 0
v -4 -15 0
v -4 -14 0
v -3 -14 0
v -2 -15 0
v -3 -15 0
v -3 -14 0
v -2 -14 0
v -1 -15 0
v -2 -15 0
v -2 -14 0
v -1 -14 0
v 0 -15 0
v -1 -15 0
v -1 -14 0
v 0 -14 0
v -15 -16 0
v -16 -16 0
v -16 -15 0
v -15 -15 0
v -14 -16 0
v -15 -16 0
v -15 -15 0
v -14 -15 0
v -13 -16 0
v -14 -16 0
v -14 -15 0
v -13 -15 0
v -12 -16 0
v -13 -16 0
v -13 -15 0
v -12 -15 0
v -11 -16 0
v -12 -16 0
v -12 -15 0
v -11 -15 0
v -10 -16 0
v -11 -16 0
v -11 -15 0
v -10 -15 0
v -9 -16 0
v -10 -16 0
v -10 -15 0
v -9 -15 0
v -8 -16 0
v -9 -16 0
v -9 -15 0
v -8 -15 0
v -7 -16 0
v -8 -16 0
v -8 -15 0
v -7 -15 0
v -6 -16 0
v -7 -16 0
v -7 -15 0
v -6 -15 0
v -5 -16 0
v -6 -16 0
v -6 -15 0
v -5 -15 0
v -4 -16 0
v -5 -16 0
v -5 -15 0
v -4 -15 0
v -3 -16 0
v -4 -16 0
v -4 -15 0
v -3 -15 0
v -2 -16 0
v -3 -16 0
v -3 -15 0
v -2 -15 0
v -1 -16 0
v -2 -16 0
v -2 -15 0
v -1 -15 0
v 0 -16 0
v -1 -16 0
v -1 -15 0
v 0 -15 0

# Texture cooridinates (Count = 27)
vt 0.02702703 0.5
vt 0.05405406 0.5
vt 0.05405406 0.5217391
vt 0.02702703 0.5217391
vt 0.02702703 0.4782609
vt 0.05405406 0.4782609
vt 0 0.5
vt 0 0.5217391
vt 0 0.4782609
vt 0.2702703 0.1086956
vt 0.2972973 0.1086956
vt 0.2972973 0.1304348
vt 0.2702703 0.1304348
vt 0.2432432 0.06521738
vt 0.2702703 0.06521738
vt 0.2702703 0.0869565
vt 0.2432432 0.0869565
vt 0.2972973 0.0869565
vt 0.2432432 0.1086956
vt 0.2432432 0.1304348
vt 0.2162162 0.1086956
vt 0.2162162 0.1304348
vt 0.2972973 0.06521738
vt 0.3243243 0.1086956
vt 0.3243243 0.1304348
vt 0.3243243 0.0869565
vt 0.2162162 0.0869565

# Normal
vn 0 0 -1

# Mesh description
g dungeon1_mesh_0061

# Faces
f 1/1/1 2/2/1 3/3/1 4/4/1
f 5/1/1 6/2/1 7/3/1 8/4/1
f 9/5/1 10/6/1 11/2/1 12/1/1
f 13/1/1 14/2/1 15/3/1 16/4/1
f 17/7/1 18/1/1 19/4/1 20/8/1
f 21/1/1 22/2/1 23/3/1 24/4/1
f 25/1/1 26/2/1 27/3/1 28/4/1
f 29/7/1 30/1/1 31/4/1 32/8/1
f 33/7/1 34/1/1 35/4/1 36/8/1
f 37/7/1 38/1/1 39/4/1 40/8/1
f 41/5/1 42/6/1 43/2/1 44/1/1
f 45/1/1 46/2/1 47/3/1 48/4/1
f 49/7/1 50/1/1 51/4/1 52/8/1
f 53/9/1 54/5/1 55/1/1 56/7/1
f 57/7/1 58/1/1 59/4/1 60/8/1
f 61/1/1 62/2/1 63/3/1 64/4/1
f 65/7/1 66/1/1 67/4/1 68/8/1
f 69/7/1 70/1/1 71/4/1 72/8/1
f 73/9/1 74/5/1 75/1/1 76/7/1
f 77/9/1 78/5/1 79/1/1 80/7/1
f 81/1/1 82/2/1 83/3/1 84/4/1
f 85/7/1 86/1/1 87/4/1 88/8/1
f 89/7/1 90/1/1 91/4/1 92/8/1
f 93/5/1 94/6/1 95/2/1 96/1/1
f 97/9/1 98/5/1 99/1/1 100/7/1
f 101/1/1 102/2/1 103/3/1 104/4/1
f 105/7/1 106/1/1 107/4/1 108/8/1
f 109/9/1 110/5/1 111/1/1 112/7/1
f 113/5/1 114/6/1 115/2/1 116/1/1
f 117/9/1 118/5/1 119/1/1 120/7/1
f 121/1/1 122/2/1 123/3/1 124/4/1
f 125/7/1 126/1/1 127/4/1 128/8/1
f 129/7/1 130/1/1 131/4/1 132/8/1
f 133/1/1 134/2/1 135/3/1 136/4/1
f 137/7/1 138/1/1 139/4/1 140/8/1
f 141/1/1 142/2/1 143/3/1 144/4/1
f 145/7/1 146/1/1 147/4/1 148/8/1
f 149/7/1 150/1/1 151/4/1 152/8/1
f 153/1/1 154/2/1 155/3/1 156/4/1
f 157/7/1 158/1/1 159/4/1 160/8/1
f 161/1/1 162/2/1 163/3/1 164/4/1
f 165/7/1 166/1/1 167/4/1 168/8/1
f 169/9/1 170/5/1 171/1/1 172/7/1
f 173/1/1 174/2/1 175/3/1 176/4/1
f 177/7/1 178/1/1 179/4/1 180/8/1
f 181/1/1 182/2/1 183/3/1 184/4/1
f 185/1/1 186/2/1 187/3/1 188/4/1
f 189/1/1 190/2/1 191/3/1 192/4/1
f 193/1/1 194/2/1 195/3/1 196/4/1
f 197/7/1 198/1/1 199/4/1 200/8/1
f 201/1/1 202/2/1 203/3/1 204/4/1
f 205/7/1 206/1/1 207/4/1 208/8/1
f 209/7/1 210/1/1 211/4/1 212/8/1
f 213/7/1 214/1/1 215/4/1 216/8/1
f 217/7/1 218/1/1 219/4/1 220/8/1
f 221/1/1 222/2/1 223/3/1 224/4/1
f 225/1/1 226/2/1 227/3/1 228/4/1
f 229/1/1 230/2/1 231/3/1 232/4/1
f 233/1/1 234/2/1 235/3/1 236/4/1
f 237/7/1 238/1/1 239/4/1 240/8/1
f 241/7/1 242/1/1 243/4/1 244/8/1
f 245/1/1 246/2/1 247/3/1 248/4/1
f 249/7/1 250/1/1 251/4/1 252/8/1
f 253/9/1 254/5/1 255/1/1 256/7/1
f 257/10/1 258/11/1 259/12/1 260/13/1
f 261/10/1 262/11/1 263/12/1 264/13/1
f 265/10/1 266/11/1 267/12/1 268/13/1
f 269/10/1 270/11/1 271/12/1 272/13/1
f 273/10/1 274/11/1 275/12/1 276/13/1
f 277/10/1 278/11/1 279/12/1 280/13/1
f 281/10/1 282/11/1 283/12/1 284/13/1
f 285/1/1 286/2/1 287/3/1 288/4/1
f 289/1/1 290/2/1 291/3/1 292/4/1
f 293/1/1 294/2/1 295/3/1 296/4/1
f 297/7/1 298/1/1 299/4/1 300/8/1
f 301/7/1 302/1/1 303/4/1 304/8/1
f 305/14/1 306/15/1 307/16/1 308/17/1
f 309/14/1 310/15/1 311/16/1 312/17/1
f 313/1/1 314/2/1 315/3/1 316/4/1
f 317/14/1 318/15/1 319/16/1 320/17/1
f 321/16/1 322/18/1 323/11/1 324/10/1
f 325/16/1 326/18/1 327/11/1 328/10/1
f 329/17/1 330/16/1 331/10/1 332/19/1
f 333/17/1 334/16/1 335/10/1 336/19/1
f 337/10/1 338/11/1 339/12/1 340/13/1
f 341/19/1 342/10/1 343/13/1 344/20/1
f 345/21/1 346/19/1 347/20/1 348/22/1
f 349/7/1 350/1/1 351/4/1 352/8/1
f 353/7/1 354/1/1 355/4/1 356/8/1
f 357/7/1 358/1/1 359/4/1 360/8/1
f 361/7/1 362/1/1 363/4/1 364/8/1
f 365/7/1 366/1/1 367/4/1 368/8/1
f 369/14/1 370/15/1 371/16/1 372/17/1
f 373/14/1 374/15/1 375/16/1 376/17/1
f 377/14/1 378/15/1 379/16/1 380/17/1
f 381/14/1 382/15/1 383/16/1 384/17/1
f 385/10/1 386/11/1 387/12/1 388/13/1
f 389/15/1 390/23/1 391/18/1 392/16/1
f 393/14/1 394/15/1 395/16/1 396/17/1
f 397/14/1 398/15/1 399/16/1 400/17/1
f 401/21/1 402/19/1 403/20/1 404/22/1
f 405/10/1 406/11/1 407/12/1 408/13/1
f 409/16/1 410/18/1 411/11/1 412/10/1
f 413/9/1 414/5/1 415/1/1 416/7/1
f 417/9/1 418/5/1 419/1/1 420/7/1
f 421/9/1 422/5/1 423/1/1 424/7/1
f 425/9/1 426/5/1 427/1/1 428/7/1
f 429/7/1 430/1/1 431/4/1 432/8/1
f 433/9/1 434/5/1 435/1/1 436/7/1
f 437/14/1 438/15/1 439/16/1 440/17/1
f 441/14/1 442/15/1 443/16/1 444/17/1
f 445/10/1 446/11/1 447/12/1 448/13/1
f 449/16/1 450/18/1 451/11/1 452/10/1
f 453/15/1 454/23/1 455/18/1 456/16/1
f 457/14/1 458/15/1 459/16/1 460/17/1
f 461/11/1 462/24/1 463/25/1 464/12/1
f 465/16/1 466/18/1 467/11/1 468/10/1
f 469/17/1 470/16/1 471/10/1 472/19/1
f 473/15/1 474/23/1 475/18/1 476/16/1
f 477/5/1 478/6/1 479/2/1 480/1/1
f 481/9/1 482/5/1 483/1/1 484/7/1
f 485/9/1 486/5/1 487/1/1 488/7/1
f 489/9/1 490/5/1 491/1/1 492/7/1
f 493/9/1 494/5/1 495/1/1 496/7/1
f 497/14/1 498/15/1 499/16/1 500/17/1
f 501/10/1 502/11/1 503/12/1 504/13/1
f 505/19/1 506/10/1 507/13/1 508/20/1
f 509/21/1 510/19/1 511/20/1 512/22/1
f 513/10/1 514/11/1 515/12/1 516/13/1
f 517/10/1 518/11/1 519/12/1 520/13/1
f 521/19/1 522/10/1 523/13/1 524/20/1
f 525/18/1 526/26/1 527/24/1 528/11/1
f 529/15/1 530/23/1 531/18/1 532/16/1
f 533/14/1 534/15/1 535/16/1 536/17/1
f 537/27/1 538/17/1 539/19/1 540/21/1

