# Tiled2Unity generated file. Do not modify by hand.
# Wavefront file for 'dungeon1_mesh_0136.obj'

# Vertices (Count = 248)
v -15 -1 0
v -16 -1 0
v -16 0 0
v -15 0 0
v -14 -1 0
v -15 -1 0
v -15 0 0
v -14 0 0
v -13 -1 0
v -14 -1 0
v -14 0 0
v -13 0 0
v -12 -1 0
v -13 -1 0
v -13 0 0
v -12 0 0
v -11 -1 0
v -12 -1 0
v -12 0 0
v -11 0 0
v -10 -1 0
v -11 -1 0
v -11 0 0
v -10 0 0
v -9 -1 0
v -10 -1 0
v -10 0 0
v -9 0 0
v -8 -1 0
v -9 -1 0
v -9 0 0
v -8 0 0
v -7 -1 0
v -8 -1 0
v -8 0 0
v -7 0 0
v -12 -2 0
v -13 -2 0
v -13 -1 0
v -12 -1 0
v -11 -2 0
v -12 -2 0
v -12 -1 0
v -11 -1 0
v -12 -3 0
v -13 -3 0
v -13 -2 0
v -12 -2 0
v -11 -3 0
v -12 -3 0
v -12 -2 0
v -11 -2 0
v -1 -3 0
v -2 -3 0
v -2 -2 0
v -1 -2 0
v 0 -3 0
v -1 -3 0
v -1 -2 0
v 0 -2 0
v -12 -4 0
v -13 -4 0
v -13 -3 0
v -12 -3 0
v -11 -4 0
v -12 -4 0
v -12 -3 0
v -11 -3 0
v -1 -4 0
v -2 -4 0
v -2 -3 0
v -1 -3 0
v 0 -4 0
v -1 -4 0
v -1 -3 0
v 0 -3 0
v -12 -5 0
v -13 -5 0
v -13 -4 0
v -12 -4 0
v -11 -5 0
v -12 -5 0
v -12 -4 0
v -11 -4 0
v -1 -5 0
v -2 -5 0
v -2 -4 0
v -1 -4 0
v 0 -5 0
v -1 -5 0
v -1 -4 0
v 0 -4 0
v -12 -6 0
v -13 -6 0
v -13 -5 0
v -12 -5 0
v -11 -6 0
v -12 -6 0
v -12 -5 0
v -11 -5 0
v 0 -6 0
v -1 -6 0
v -1 -5 0
v 0 -5 0
v -12 -7 0
v -13 -7 0
v -13 -6 0
v -12 -6 0
v -11 -7 0
v -12 -7 0
v -12 -6 0
v -11 -6 0
v 0 -7 0
v -1 -7 0
v -1 -6 0
v 0 -6 0
v -12 -8 0
v -13 -8 0
v -13 -7 0
v -12 -7 0
v -11 -8 0
v -12 -8 0
v -12 -7 0
v -11 -7 0
v -2 -8 0
v -3 -8 0
v -3 -7 0
v -2 -7 0
v -1 -8 0
v -2 -8 0
v -2 -7 0
v -1 -7 0
v 0 -8 0
v -1 -8 0
v -1 -7 0
v 0 -7 0
v -12 -9 0
v -13 -9 0
v -13 -8 0
v -12 -8 0
v -11 -9 0
v -12 -9 0
v -12 -8 0
v -11 -8 0
v -2 -9 0
v -3 -9 0
v -3 -8 0
v -2 -8 0
v -1 -9 0
v -2 -9 0
v -2 -8 0
v -1 -8 0
v 0 -9 0
v -1 -9 0
v -1 -8 0
v 0 -8 0
v -12 -10 0
v -13 -10 0
v -13 -9 0
v -12 -9 0
v -11 -10 0
v -12 -10 0
v -12 -9 0
v -11 -9 0
v -2 -10 0
v -3 -10 0
v -3 -9 0
v -2 -9 0
v -1 -10 0
v -2 -10 0
v -2 -9 0
v -1 -9 0
v 0 -10 0
v -1 -10 0
v -1 -9 0
v 0 -9 0
v -12 -11 0
v -13 -11 0
v -13 -10 0
v -12 -10 0
v -11 -11 0
v -12 -11 0
v -12 -10 0
v -11 -10 0
v -2 -11 0
v -3 -11 0
v -3 -10 0
v -2 -10 0
v -1 -11 0
v -2 -11 0
v -2 -10 0
v -1 -10 0
v 0 -11 0
v -1 -11 0
v -1 -10 0
v 0 -10 0
v -12 -12 0
v -13 -12 0
v -13 -11 0
v -12 -11 0
v -11 -12 0
v -12 -12 0
v -12 -11 0
v -11 -11 0
v -2 -12 0
v -3 -12 0
v -3 -11 0
v -2 -11 0
v -1 -12 0
v -2 -12 0
v -2 -11 0
v -1 -11 0
v 0 -12 0
v -1 -12 0
v -1 -11 0
v 0 -11 0
v -12 -13 0
v -13 -13 0
v -13 -12 0
v -12 -12 0
v -11 -13 0
v -12 -13 0
v -12 -12 0
v -11 -12 0
v -12 -14 0
v -13 -14 0
v -13 -13 0
v -12 -13 0
v -11 -14 0
v -12 -14 0
v -12 -13 0
v -11 -13 0
v -12 -15 0
v -13 -15 0
v -13 -14 0
v -12 -14 0
v -11 -15 0
v -12 -15 0
v -12 -14 0
v -11 -14 0
v -12 -16 0
v -13 -16 0
v -13 -15 0
v -12 -15 0
v -11 -16 0
v -12 -16 0
v -12 -15 0
v -11 -15 0

# Texture cooridinates (Count = 61)
vt 0.2162162 0.9782609
vt 0.2432432 0.9782609
vt 0.2432432 1
vt 0.2162162 1
vt 0.1621622 0.9782609
vt 0.1891892 0.9782609
vt 0.1891892 1
vt 0.1621622 1
vt 0.1351351 0.7826087
vt 0.1621622 0.7826087
vt 0.1621622 0.8043478
vt 0.1351351 0.8043478
vt 0.1351351 0.2173913
vt 0.1621622 0.2173913
vt 0.1621622 0.2391304
vt 0.1351351 0.2391304
vt 0.1621622 0.9347826
vt 0.1891892 0.9347826
vt 0.1891892 0.9565217
vt 0.1621622 0.9565217
vt 0.1621622 0.1956522
vt 0.1891892 0.1956522
vt 0.1891892 0.2173913
vt 0.1351351 0.1956522
vt 0.1621622 0.1739131
vt 0.1891892 0.1739131
vt 0.8378378 0.1739131
vt 0.8648649 0.1739131
vt 0.8648649 0.1956522
vt 0.8378378 0.1956522
vt 0.8108108 0.1739131
vt 0.8108108 0.1956522
vt 0.7837838 0.1739131
vt 0.7837838 0.1956522
vt 0.8378378 0.1521739
vt 0.8648649 0.1521739
vt 0.8108108 0.1521739
vt 0.7837838 0.1521739
vt 0.8918919 0.4565217
vt 0.9189189 0.4565217
vt 0.9189189 0.4782609
vt 0.8918919 0.4782609
vt 0.8108108 0.1304348
vt 0.8378378 0.1304348
vt 0.7837838 0.1304348
vt 0.8918919 0.4347826
vt 0.9189189 0.4347826
vt 0.8108108 0.1086956
vt 0.8378378 0.1086956
vt 0.7837838 0.1086956
vt 0.8918919 0.4130435
vt 0.9189189 0.4130435
vt 0.8108108 0.0869565
vt 0.8378378 0.0869565
vt 0.7837838 0.0869565
vt 0.1621622 0.9130435
vt 0.1891892 0.9130435
vt 0.1621622 0.8913044
vt 0.1891892 0.8913044
vt 0.1351351 0.7608696
vt 0.1621622 0.7608696

# Normal
vn 0 0 -1

# Mesh description
g dungeon1_mesh_0136

# Faces
f 1/1/1 2/2/1 3/3/1 4/4/1
f 5/1/1 6/2/1 7/3/1 8/4/1
f 9/1/1 10/2/1 11/3/1 12/4/1
f 13/5/1 14/6/1 15/7/1 16/8/1
f 17/9/1 18/10/1 19/11/1 20/12/1
f 21/13/1 22/14/1 23/15/1 24/16/1
f 25/13/1 26/14/1 27/15/1 28/16/1
f 29/13/1 30/14/1 31/15/1 32/16/1
f 33/13/1 34/14/1 35/15/1 36/16/1
f 37/17/1 38/18/1 39/19/1 40/20/1
f 41/9/1 42/10/1 43/11/1 44/12/1
f 45/17/1 46/18/1 47/19/1 48/20/1
f 49/9/1 50/10/1 51/11/1 52/12/1
f 53/21/1 54/22/1 55/23/1 56/14/1
f 57/24/1 58/21/1 59/14/1 60/13/1
f 61/17/1 62/18/1 63/19/1 64/20/1
f 65/9/1 66/10/1 67/11/1 68/12/1
f 69/21/1 70/22/1 71/23/1 72/14/1
f 73/21/1 74/22/1 75/23/1 76/14/1
f 77/17/1 78/18/1 79/19/1 80/20/1
f 81/9/1 82/10/1 83/11/1 84/12/1
f 85/25/1 86/26/1 87/22/1 88/21/1
f 89/21/1 90/22/1 91/23/1 92/14/1
f 93/17/1 94/18/1 95/19/1 96/20/1
f 97/9/1 98/10/1 99/11/1 100/12/1
f 101/21/1 102/22/1 103/23/1 104/14/1
f 105/17/1 106/18/1 107/19/1 108/20/1
f 109/9/1 110/10/1 111/11/1 112/12/1
f 113/25/1 114/26/1 115/22/1 116/21/1
f 117/17/1 118/18/1 119/19/1 120/20/1
f 121/9/1 122/10/1 123/11/1 124/12/1
f 125/27/1 126/28/1 127/29/1 128/30/1
f 129/31/1 130/27/1 131/30/1 132/32/1
f 133/33/1 134/31/1 135/32/1 136/34/1
f 137/17/1 138/18/1 139/19/1 140/20/1
f 141/9/1 142/10/1 143/11/1 144/12/1
f 145/35/1 146/36/1 147/28/1 148/27/1
f 149/37/1 150/35/1 151/27/1 152/31/1
f 153/38/1 154/37/1 155/31/1 156/33/1
f 157/17/1 158/18/1 159/19/1 160/20/1
f 161/9/1 162/10/1 163/11/1 164/12/1
f 165/39/1 166/40/1 167/41/1 168/42/1
f 169/43/1 170/44/1 171/35/1 172/37/1
f 173/45/1 174/43/1 175/37/1 176/38/1
f 177/17/1 178/18/1 179/19/1 180/20/1
f 181/9/1 182/10/1 183/11/1 184/12/1
f 185/46/1 186/47/1 187/40/1 188/39/1
f 189/48/1 190/49/1 191/44/1 192/43/1
f 193/50/1 194/48/1 195/43/1 196/45/1
f 197/17/1 198/18/1 199/19/1 200/20/1
f 201/9/1 202/10/1 203/11/1 204/12/1
f 205/51/1 206/52/1 207/47/1 208/46/1
f 209/53/1 210/54/1 211/49/1 212/48/1
f 213/55/1 214/53/1 215/48/1 216/50/1
f 217/17/1 218/18/1 219/19/1 220/20/1
f 221/9/1 222/10/1 223/11/1 224/12/1
f 225/17/1 226/18/1 227/19/1 228/20/1
f 229/9/1 230/10/1 231/11/1 232/12/1
f 233/56/1 234/57/1 235/18/1 236/17/1
f 237/9/1 238/10/1 239/11/1 240/12/1
f 241/58/1 242/59/1 243/57/1 244/56/1
f 245/60/1 246/61/1 247/10/1 248/9/1

