# Tiled2Unity generated file. Do not modify by hand.
# Wavefront file for 'dungeon1_mesh_0033.obj'

# Vertices (Count = 296)
v -4 -1 0
v -5 -1 0
v -5 0 0
v -4 0 0
v -3 -1 0
v -4 -1 0
v -4 0 0
v -3 0 0
v -2 -1 0
v -3 -1 0
v -3 0 0
v -2 0 0
v -1 -1 0
v -2 -1 0
v -2 0 0
v -1 0 0
v 0 -1 0
v -1 -1 0
v -1 0 0
v 0 0 0
v -4 -2 0
v -5 -2 0
v -5 -1 0
v -4 -1 0
v -3 -2 0
v -4 -2 0
v -4 -1 0
v -3 -1 0
v -2 -2 0
v -3 -2 0
v -3 -1 0
v -2 -1 0
v -1 -2 0
v -2 -2 0
v -2 -1 0
v -1 -1 0
v 0 -2 0
v -1 -2 0
v -1 -1 0
v 0 -1 0
v -4 -3 0
v -5 -3 0
v -5 -2 0
v -4 -2 0
v -3 -3 0
v -4 -3 0
v -4 -2 0
v -3 -2 0
v -2 -3 0
v -3 -3 0
v -3 -2 0
v -2 -2 0
v -1 -3 0
v -2 -3 0
v -2 -2 0
v -1 -2 0
v 0 -3 0
v -1 -3 0
v -1 -2 0
v 0 -2 0
v -4 -4 0
v -5 -4 0
v -5 -3 0
v -4 -3 0
v -3 -4 0
v -4 -4 0
v -4 -3 0
v -3 -3 0
v -2 -4 0
v -3 -4 0
v -3 -3 0
v -2 -3 0
v -1 -4 0
v -2 -4 0
v -2 -3 0
v -1 -3 0
v 0 -4 0
v -1 -4 0
v -1 -3 0
v 0 -3 0
v -4 -5 0
v -5 -5 0
v -5 -4 0
v -4 -4 0
v -3 -5 0
v -4 -5 0
v -4 -4 0
v -3 -4 0
v -2 -5 0
v -3 -5 0
v -3 -4 0
v -2 -4 0
v -1 -5 0
v -2 -5 0
v -2 -4 0
v -1 -4 0
v 0 -5 0
v -1 -5 0
v -1 -4 0
v 0 -4 0
v -4 -6 0
v -5 -6 0
v -5 -5 0
v -4 -5 0
v -3 -6 0
v -4 -6 0
v -4 -5 0
v -3 -5 0
v -2 -6 0
v -3 -6 0
v -3 -5 0
v -2 -5 0
v -1 -6 0
v -2 -6 0
v -2 -5 0
v -1 -5 0
v 0 -6 0
v -1 -6 0
v -1 -5 0
v 0 -5 0
v -4 -7 0
v -5 -7 0
v -5 -6 0
v -4 -6 0
v -3 -7 0
v -4 -7 0
v -4 -6 0
v -3 -6 0
v -2 -7 0
v -3 -7 0
v -3 -6 0
v -2 -6 0
v -1 -7 0
v -2 -7 0
v -2 -6 0
v -1 -6 0
v 0 -7 0
v -1 -7 0
v -1 -6 0
v 0 -6 0
v -4 -8 0
v -5 -8 0
v -5 -7 0
v -4 -7 0
v -3 -8 0
v -4 -8 0
v -4 -7 0
v -3 -7 0
v -2 -8 0
v -3 -8 0
v -3 -7 0
v -2 -7 0
v -1 -8 0
v -2 -8 0
v -2 -7 0
v -1 -7 0
v 0 -8 0
v -1 -8 0
v -1 -7 0
v 0 -7 0
v -3 -9 0
v -4 -9 0
v -4 -8 0
v -3 -8 0
v -2 -9 0
v -3 -9 0
v -3 -8 0
v -2 -8 0
v -1 -9 0
v -2 -9 0
v -2 -8 0
v -1 -8 0
v 0 -9 0
v -1 -9 0
v -1 -8 0
v 0 -8 0
v -3 -10 0
v -4 -10 0
v -4 -9 0
v -3 -9 0
v -2 -10 0
v -3 -10 0
v -3 -9 0
v -2 -9 0
v -1 -10 0
v -2 -10 0
v -2 -9 0
v -1 -9 0
v 0 -10 0
v -1 -10 0
v -1 -9 0
v 0 -9 0
v -3 -11 0
v -4 -11 0
v -4 -10 0
v -3 -10 0
v -2 -11 0
v -3 -11 0
v -3 -10 0
v -2 -10 0
v -1 -11 0
v -2 -11 0
v -2 -10 0
v -1 -10 0
v 0 -11 0
v -1 -11 0
v -1 -10 0
v 0 -10 0
v -3 -12 0
v -4 -12 0
v -4 -11 0
v -3 -11 0
v -2 -12 0
v -3 -12 0
v -3 -11 0
v -2 -11 0
v -1 -12 0
v -2 -12 0
v -2 -11 0
v -1 -11 0
v 0 -12 0
v -1 -12 0
v -1 -11 0
v 0 -11 0
v -3 -13 0
v -4 -13 0
v -4 -12 0
v -3 -12 0
v -2 -13 0
v -3 -13 0
v -3 -12 0
v -2 -12 0
v -1 -13 0
v -2 -13 0
v -2 -12 0
v -1 -12 0
v 0 -13 0
v -1 -13 0
v -1 -12 0
v 0 -12 0
v -3 -14 0
v -4 -14 0
v -4 -13 0
v -3 -13 0
v -2 -14 0
v -3 -14 0
v -3 -13 0
v -2 -13 0
v -1 -14 0
v -2 -14 0
v -2 -13 0
v -1 -13 0
v 0 -14 0
v -1 -14 0
v -1 -13 0
v 0 -13 0
v -4 -15 0
v -5 -15 0
v -5 -14 0
v -4 -14 0
v -3 -15 0
v -4 -15 0
v -4 -14 0
v -3 -14 0
v -2 -15 0
v -3 -15 0
v -3 -14 0
v -2 -14 0
v -1 -15 0
v -2 -15 0
v -2 -14 0
v -1 -14 0
v 0 -15 0
v -1 -15 0
v -1 -14 0
v 0 -14 0
v -4 -16 0
v -5 -16 0
v -5 -15 0
v -4 -15 0
v -3 -16 0
v -4 -16 0
v -4 -15 0
v -3 -15 0
v -2 -16 0
v -3 -16 0
v -3 -15 0
v -2 -15 0
v -1 -16 0
v -2 -16 0
v -2 -15 0
v -1 -15 0
v 0 -16 0
v -1 -16 0
v -1 -15 0
v 0 -15 0

# Texture cooridinates (Count = 22)
vt 0.2972973 0.9347826
vt 0.3243243 0.9347826
vt 0.3243243 0.9565217
vt 0.2972973 0.9565217
vt 0.2972973 0.8695652
vt 0.3243243 0.8695652
vt 0.3243243 0.8913044
vt 0.2972973 0.8913044
vt 0.2702703 0.8695652
vt 0.2702703 0.8913044
vt 0.2432432 0.8695652
vt 0.2432432 0.8913044
vt 0.2162162 0.8695652
vt 0.2162162 0.8913044
vt 0.2972973 0.9130435
vt 0.3243243 0.9130435
vt 0.2702703 0.9130435
vt 0.2702703 0.9347826
vt 0.2432432 0.9130435
vt 0.2432432 0.9347826
vt 0.2162162 0.9130435
vt 0.2162162 0.9347826

# Normal
vn 0 0 -1

# Mesh description
g dungeon1_mesh_0033

# Faces
f 1/1/1 2/2/1 3/3/1 4/4/1
f 5/5/1 6/6/1 7/7/1 8/8/1
f 9/9/1 10/5/1 11/8/1 12/10/1
f 13/11/1 14/9/1 15/10/1 16/12/1
f 17/13/1 18/11/1 19/12/1 20/14/1
f 21/1/1 22/2/1 23/3/1 24/4/1
f 25/5/1 26/6/1 27/7/1 28/8/1
f 29/9/1 30/5/1 31/8/1 32/10/1
f 33/11/1 34/9/1 35/10/1 36/12/1
f 37/13/1 38/11/1 39/12/1 40/14/1
f 41/1/1 42/2/1 43/3/1 44/4/1
f 45/5/1 46/6/1 47/7/1 48/8/1
f 49/9/1 50/5/1 51/8/1 52/10/1
f 53/11/1 54/9/1 55/10/1 56/12/1
f 57/13/1 58/11/1 59/12/1 60/14/1
f 61/1/1 62/2/1 63/3/1 64/4/1
f 65/5/1 66/6/1 67/7/1 68/8/1
f 69/9/1 70/5/1 71/8/1 72/10/1
f 73/11/1 74/9/1 75/10/1 76/12/1
f 77/13/1 78/11/1 79/12/1 80/14/1
f 81/1/1 82/2/1 83/3/1 84/4/1
f 85/5/1 86/6/1 87/7/1 88/8/1
f 89/9/1 90/5/1 91/8/1 92/10/1
f 93/11/1 94/9/1 95/10/1 96/12/1
f 97/13/1 98/11/1 99/12/1 100/14/1
f 101/15/1 102/16/1 103/2/1 104/1/1
f 105/5/1 106/6/1 107/7/1 108/8/1
f 109/9/1 110/5/1 111/8/1 112/10/1
f 113/11/1 114/9/1 115/10/1 116/12/1
f 117/13/1 118/11/1 119/12/1 120/14/1
f 121/8/1 122/7/1 123/16/1 124/15/1
f 125/5/1 126/6/1 127/7/1 128/8/1
f 129/9/1 130/5/1 131/8/1 132/10/1
f 133/11/1 134/9/1 135/10/1 136/12/1
f 137/13/1 138/11/1 139/12/1 140/14/1
f 141/5/1 142/6/1 143/7/1 144/8/1
f 145/5/1 146/6/1 147/7/1 148/8/1
f 149/9/1 150/5/1 151/8/1 152/10/1
f 153/11/1 154/9/1 155/10/1 156/12/1
f 157/13/1 158/11/1 159/12/1 160/14/1
f 161/5/1 162/6/1 163/7/1 164/8/1
f 165/9/1 166/5/1 167/8/1 168/10/1
f 169/11/1 170/9/1 171/10/1 172/12/1
f 173/13/1 174/11/1 175/12/1 176/14/1
f 177/5/1 178/6/1 179/7/1 180/8/1
f 181/9/1 182/5/1 183/8/1 184/10/1
f 185/11/1 186/9/1 187/10/1 188/12/1
f 189/13/1 190/11/1 191/12/1 192/14/1
f 193/5/1 194/6/1 195/7/1 196/8/1
f 197/9/1 198/5/1 199/8/1 200/10/1
f 201/11/1 202/9/1 203/10/1 204/12/1
f 205/13/1 206/11/1 207/12/1 208/14/1
f 209/5/1 210/6/1 211/7/1 212/8/1
f 213/9/1 214/5/1 215/8/1 216/10/1
f 217/11/1 218/9/1 219/10/1 220/12/1
f 221/13/1 222/11/1 223/12/1 224/14/1
f 225/5/1 226/6/1 227/7/1 228/8/1
f 229/9/1 230/5/1 231/8/1 232/10/1
f 233/11/1 234/9/1 235/10/1 236/12/1
f 237/13/1 238/11/1 239/12/1 240/14/1
f 241/5/1 242/6/1 243/7/1 244/8/1
f 245/9/1 246/5/1 247/8/1 248/10/1
f 249/11/1 250/9/1 251/10/1 252/12/1
f 253/13/1 254/11/1 255/12/1 256/14/1
f 257/1/1 258/2/1 259/3/1 260/4/1
f 261/5/1 262/6/1 263/7/1 264/8/1
f 265/9/1 266/5/1 267/8/1 268/10/1
f 269/11/1 270/9/1 271/10/1 272/12/1
f 273/13/1 274/11/1 275/12/1 276/14/1
f 277/15/1 278/16/1 279/2/1 280/1/1
f 281/17/1 282/15/1 283/1/1 284/18/1
f 285/19/1 286/17/1 287/18/1 288/20/1
f 289/21/1 290/19/1 291/20/1 292/22/1
f 293/21/1 294/19/1 295/20/1 296/22/1

