# Tiled2Unity generated file. Do not modify by hand.
# Wavefront file for 'dungeon1_mesh_0038.obj'

# Vertices (Count = 632)
v -12 -1 0
v -13 -1 0
v -13 0 0
v -12 0 0
v -11 -1 0
v -12 -1 0
v -12 0 0
v -11 0 0
v -10 -1 0
v -11 -1 0
v -11 0 0
v -10 0 0
v -9 -1 0
v -10 -1 0
v -10 0 0
v -9 0 0
v -8 -1 0
v -9 -1 0
v -9 0 0
v -8 0 0
v -7 -1 0
v -8 -1 0
v -8 0 0
v -7 0 0
v -6 -1 0
v -7 -1 0
v -7 0 0
v -6 0 0
v -5 -1 0
v -6 -1 0
v -6 0 0
v -5 0 0
v -4 -1 0
v -5 -1 0
v -5 0 0
v -4 0 0
v -12 -2 0
v -13 -2 0
v -13 -1 0
v -12 -1 0
v -11 -2 0
v -12 -2 0
v -12 -1 0
v -11 -1 0
v -10 -2 0
v -11 -2 0
v -11 -1 0
v -10 -1 0
v -9 -2 0
v -10 -2 0
v -10 -1 0
v -9 -1 0
v -8 -2 0
v -9 -2 0
v -9 -1 0
v -8 -1 0
v -7 -2 0
v -8 -2 0
v -8 -1 0
v -7 -1 0
v -6 -2 0
v -7 -2 0
v -7 -1 0
v -6 -1 0
v -5 -2 0
v -6 -2 0
v -6 -1 0
v -5 -1 0
v -4 -2 0
v -5 -2 0
v -5 -1 0
v -4 -1 0
v -12 -3 0
v -13 -3 0
v -13 -2 0
v -12 -2 0
v -11 -3 0
v -12 -3 0
v -12 -2 0
v -11 -2 0
v -10 -3 0
v -11 -3 0
v -11 -2 0
v -10 -2 0
v -9 -3 0
v -10 -3 0
v -10 -2 0
v -9 -2 0
v -8 -3 0
v -9 -3 0
v -9 -2 0
v -8 -2 0
v -7 -3 0
v -8 -3 0
v -8 -2 0
v -7 -2 0
v -6 -3 0
v -7 -3 0
v -7 -2 0
v -6 -2 0
v -5 -3 0
v -6 -3 0
v -6 -2 0
v -5 -2 0
v -4 -3 0
v -5 -3 0
v -5 -2 0
v -4 -2 0
v -12 -4 0
v -13 -4 0
v -13 -3 0
v -12 -3 0
v -11 -4 0
v -12 -4 0
v -12 -3 0
v -11 -3 0
v -10 -4 0
v -11 -4 0
v -11 -3 0
v -10 -3 0
v -9 -4 0
v -10 -4 0
v -10 -3 0
v -9 -3 0
v -8 -4 0
v -9 -4 0
v -9 -3 0
v -8 -3 0
v -7 -4 0
v -8 -4 0
v -8 -3 0
v -7 -3 0
v -6 -4 0
v -7 -4 0
v -7 -3 0
v -6 -3 0
v -5 -4 0
v -6 -4 0
v -6 -3 0
v -5 -3 0
v -4 -4 0
v -5 -4 0
v -5 -3 0
v -4 -3 0
v -12 -5 0
v -13 -5 0
v -13 -4 0
v -12 -4 0
v -11 -5 0
v -12 -5 0
v -12 -4 0
v -11 -4 0
v -10 -5 0
v -11 -5 0
v -11 -4 0
v -10 -4 0
v -9 -5 0
v -10 -5 0
v -10 -4 0
v -9 -4 0
v -8 -5 0
v -9 -5 0
v -9 -4 0
v -8 -4 0
v -7 -5 0
v -8 -5 0
v -8 -4 0
v -7 -4 0
v -6 -5 0
v -7 -5 0
v -7 -4 0
v -6 -4 0
v -5 -5 0
v -6 -5 0
v -6 -4 0
v -5 -4 0
v -4 -5 0
v -5 -5 0
v -5 -4 0
v -4 -4 0
v -12 -6 0
v -13 -6 0
v -13 -5 0
v -12 -5 0
v -11 -6 0
v -12 -6 0
v -12 -5 0
v -11 -5 0
v -10 -6 0
v -11 -6 0
v -11 -5 0
v -10 -5 0
v -9 -6 0
v -10 -6 0
v -10 -5 0
v -9 -5 0
v -8 -6 0
v -9 -6 0
v -9 -5 0
v -8 -5 0
v -7 -6 0
v -8 -6 0
v -8 -5 0
v -7 -5 0
v -6 -6 0
v -7 -6 0
v -7 -5 0
v -6 -5 0
v -5 -6 0
v -6 -6 0
v -6 -5 0
v -5 -5 0
v -4 -6 0
v -5 -6 0
v -5 -5 0
v -4 -5 0
v -12 -7 0
v -13 -7 0
v -13 -6 0
v -12 -6 0
v -11 -7 0
v -12 -7 0
v -12 -6 0
v -11 -6 0
v -10 -7 0
v -11 -7 0
v -11 -6 0
v -10 -6 0
v -9 -7 0
v -10 -7 0
v -10 -6 0
v -9 -6 0
v -8 -7 0
v -9 -7 0
v -9 -6 0
v -8 -6 0
v -7 -7 0
v -8 -7 0
v -8 -6 0
v -7 -6 0
v -6 -7 0
v -7 -7 0
v -7 -6 0
v -6 -6 0
v -5 -7 0
v -6 -7 0
v -6 -6 0
v -5 -6 0
v -4 -7 0
v -5 -7 0
v -5 -6 0
v -4 -6 0
v -12 -8 0
v -13 -8 0
v -13 -7 0
v -12 -7 0
v -11 -8 0
v -12 -8 0
v -12 -7 0
v -11 -7 0
v -10 -8 0
v -11 -8 0
v -11 -7 0
v -10 -7 0
v -9 -8 0
v -10 -8 0
v -10 -7 0
v -9 -7 0
v -8 -8 0
v -9 -8 0
v -9 -7 0
v -8 -7 0
v -7 -8 0
v -8 -8 0
v -8 -7 0
v -7 -7 0
v -6 -8 0
v -7 -8 0
v -7 -7 0
v -6 -7 0
v -5 -8 0
v -6 -8 0
v -6 -7 0
v -5 -7 0
v -4 -8 0
v -5 -8 0
v -5 -7 0
v -4 -7 0
v -12 -9 0
v -13 -9 0
v -13 -8 0
v -12 -8 0
v -11 -9 0
v -12 -9 0
v -12 -8 0
v -11 -8 0
v -10 -9 0
v -11 -9 0
v -11 -8 0
v -10 -8 0
v -9 -9 0
v -10 -9 0
v -10 -8 0
v -9 -8 0
v -8 -9 0
v -9 -9 0
v -9 -8 0
v -8 -8 0
v -7 -9 0
v -8 -9 0
v -8 -8 0
v -7 -8 0
v -6 -9 0
v -7 -9 0
v -7 -8 0
v -6 -8 0
v -5 -9 0
v -6 -9 0
v -6 -8 0
v -5 -8 0
v -4 -9 0
v -5 -9 0
v -5 -8 0
v -4 -8 0
v -12 -10 0
v -13 -10 0
v -13 -9 0
v -12 -9 0
v -11 -10 0
v -12 -10 0
v -12 -9 0
v -11 -9 0
v -10 -10 0
v -11 -10 0
v -11 -9 0
v -10 -9 0
v -9 -10 0
v -10 -10 0
v -10 -9 0
v -9 -9 0
v -8 -10 0
v -9 -10 0
v -9 -9 0
v -8 -9 0
v -7 -10 0
v -8 -10 0
v -8 -9 0
v -7 -9 0
v -6 -10 0
v -7 -10 0
v -7 -9 0
v -6 -9 0
v -5 -10 0
v -6 -10 0
v -6 -9 0
v -5 -9 0
v -4 -10 0
v -5 -10 0
v -5 -9 0
v -4 -9 0
v -12 -11 0
v -13 -11 0
v -13 -10 0
v -12 -10 0
v -11 -11 0
v -12 -11 0
v -12 -10 0
v -11 -10 0
v -10 -11 0
v -11 -11 0
v -11 -10 0
v -10 -10 0
v -9 -11 0
v -10 -11 0
v -10 -10 0
v -9 -10 0
v -8 -11 0
v -9 -11 0
v -9 -10 0
v -8 -10 0
v -7 -11 0
v -8 -11 0
v -8 -10 0
v -7 -10 0
v -6 -11 0
v -7 -11 0
v -7 -10 0
v -6 -10 0
v -5 -11 0
v -6 -11 0
v -6 -10 0
v -5 -10 0
v -4 -11 0
v -5 -11 0
v -5 -10 0
v -4 -10 0
v -12 -12 0
v -13 -12 0
v -13 -11 0
v -12 -11 0
v -11 -12 0
v -12 -12 0
v -12 -11 0
v -11 -11 0
v -10 -12 0
v -11 -12 0
v -11 -11 0
v -10 -11 0
v -9 -12 0
v -10 -12 0
v -10 -11 0
v -9 -11 0
v -8 -12 0
v -9 -12 0
v -9 -11 0
v -8 -11 0
v -7 -12 0
v -8 -12 0
v -8 -11 0
v -7 -11 0
v -6 -12 0
v -7 -12 0
v -7 -11 0
v -6 -11 0
v -5 -12 0
v -6 -12 0
v -6 -11 0
v -5 -11 0
v -4 -12 0
v -5 -12 0
v -5 -11 0
v -4 -11 0
v -3 -12 0
v -4 -12 0
v -4 -11 0
v -3 -11 0
v -12 -13 0
v -13 -13 0
v -13 -12 0
v -12 -12 0
v -11 -13 0
v -12 -13 0
v -12 -12 0
v -11 -12 0
v -10 -13 0
v -11 -13 0
v -11 -12 0
v -10 -12 0
v -9 -13 0
v -10 -13 0
v -10 -12 0
v -9 -12 0
v -8 -13 0
v -9 -13 0
v -9 -12 0
v -8 -12 0
v -7 -13 0
v -8 -13 0
v -8 -12 0
v -7 -12 0
v -6 -13 0
v -7 -13 0
v -7 -12 0
v -6 -12 0
v -5 -13 0
v -6 -13 0
v -6 -12 0
v -5 -12 0
v -4 -13 0
v -5 -13 0
v -5 -12 0
v -4 -12 0
v -3 -13 0
v -4 -13 0
v -4 -12 0
v -3 -12 0
v -12 -14 0
v -13 -14 0
v -13 -13 0
v -12 -13 0
v -11 -14 0
v -12 -14 0
v -12 -13 0
v -11 -13 0
v -10 -14 0
v -11 -14 0
v -11 -13 0
v -10 -13 0
v -9 -14 0
v -10 -14 0
v -10 -13 0
v -9 -13 0
v -8 -14 0
v -9 -14 0
v -9 -13 0
v -8 -13 0
v -7 -14 0
v -8 -14 0
v -8 -13 0
v -7 -13 0
v -6 -14 0
v -7 -14 0
v -7 -13 0
v -6 -13 0
v -5 -14 0
v -6 -14 0
v -6 -13 0
v -5 -13 0
v -4 -14 0
v -5 -14 0
v -5 -13 0
v -4 -13 0
v -3 -14 0
v -4 -14 0
v -4 -13 0
v -3 -13 0
v -2 -14 0
v -3 -14 0
v -3 -13 0
v -2 -13 0
v -1 -14 0
v -2 -14 0
v -2 -13 0
v -1 -13 0
v 0 -14 0
v -1 -14 0
v -1 -13 0
v 0 -13 0
v -12 -15 0
v -13 -15 0
v -13 -14 0
v -12 -14 0
v -11 -15 0
v -12 -15 0
v -12 -14 0
v -11 -14 0
v -10 -15 0
v -11 -15 0
v -11 -14 0
v -10 -14 0
v -9 -15 0
v -10 -15 0
v -10 -14 0
v -9 -14 0
v -8 -15 0
v -9 -15 0
v -9 -14 0
v -8 -14 0
v -7 -15 0
v -8 -15 0
v -8 -14 0
v -7 -14 0
v -6 -15 0
v -7 -15 0
v -7 -14 0
v -6 -14 0
v -5 -15 0
v -6 -15 0
v -6 -14 0
v -5 -14 0
v -4 -15 0
v -5 -15 0
v -5 -14 0
v -4 -14 0
v -3 -15 0
v -4 -15 0
v -4 -14 0
v -3 -14 0
v -2 -15 0
v -3 -15 0
v -3 -14 0
v -2 -14 0
v -1 -15 0
v -2 -15 0
v -2 -14 0
v -1 -14 0
v 0 -15 0
v -1 -15 0
v -1 -14 0
v 0 -14 0
v -12 -16 0
v -13 -16 0
v -13 -15 0
v -12 -15 0
v -11 -16 0
v -12 -16 0
v -12 -15 0
v -11 -15 0
v -10 -16 0
v -11 -16 0
v -11 -15 0
v -10 -15 0
v -9 -16 0
v -10 -16 0
v -10 -15 0
v -9 -15 0
v -8 -16 0
v -9 -16 0
v -9 -15 0
v -8 -15 0
v -7 -16 0
v -8 -16 0
v -8 -15 0
v -7 -15 0
v -6 -16 0
v -7 -16 0
v -7 -15 0
v -6 -15 0
v -5 -16 0
v -6 -16 0
v -6 -15 0
v -5 -15 0
v -4 -16 0
v -5 -16 0
v -5 -15 0
v -4 -15 0
v -3 -16 0
v -4 -16 0
v -4 -15 0
v -3 -15 0
v -2 -16 0
v -3 -16 0
v -3 -15 0
v -2 -15 0
v -1 -16 0
v -2 -16 0
v -2 -15 0
v -1 -15 0
v 0 -16 0
v -1 -16 0
v -1 -15 0
v 0 -15 0

# Texture cooridinates (Count = 47)
vt 0.3783784 0.8695652
vt 0.4054054 0.8695652
vt 0.4054054 0.8913044
vt 0.3783784 0.8913044
vt 0.3513514 0.8695652
vt 0.3513514 0.8913044
vt 0.3243243 0.8695652
vt 0.3243243 0.8913044
vt 0.2972973 0.8695652
vt 0.2972973 0.8913044
vt 0.2702703 0.8695652
vt 0.2702703 0.8913044
vt 0.2432432 0.8695652
vt 0.2432432 0.8913044
vt 0.2162162 0.8695652
vt 0.2162162 0.8913044
vt 0.2162162 0.9565217
vt 0.2432432 0.9565217
vt 0.2432432 0.9782609
vt 0.2162162 0.9782609
vt 0.1891892 0.9565217
vt 0.1891892 0.9782609
vt 0.3783784 0.9130435
vt 0.4054054 0.9130435
vt 0.4054054 0.9347826
vt 0.3783784 0.9347826
vt 0.3513514 0.9130435
vt 0.3513514 0.9347826
vt 0.3243243 0.9130435
vt 0.3243243 0.9347826
vt 0.2972973 0.9130435
vt 0.2972973 0.9347826
vt 0.2702703 0.9130435
vt 0.2702703 0.9347826
vt 0.2432432 0.9130435
vt 0.2432432 0.9347826
vt 0.2162162 0.9130435
vt 0.2162162 0.9347826
vt 0.1891892 0.9347826
vt 0.2702703 0.9565217
vt 0.2972973 0.9565217
vt 0.2972973 0.9782609
vt 0.2702703 0.9782609
vt 0.4054054 0.9565217
vt 0.3783784 0.9565217
vt 0.3513514 0.9565217
vt 0.3243243 0.9565217

# Normal
vn 0 0 -1

# Mesh description
g dungeon1_mesh_0038

# Faces
f 1/1/1 2/2/1 3/3/1 4/4/1
f 5/5/1 6/1/1 7/4/1 8/6/1
f 9/7/1 10/5/1 11/6/1 12/8/1
f 13/9/1 14/7/1 15/8/1 16/10/1
f 17/11/1 18/9/1 19/10/1 20/12/1
f 21/13/1 22/11/1 23/12/1 24/14/1
f 25/15/1 26/13/1 27/14/1 28/16/1
f 29/17/1 30/18/1 31/19/1 32/20/1
f 33/21/1 34/17/1 35/20/1 36/22/1
f 37/1/1 38/2/1 39/3/1 40/4/1
f 41/5/1 42/1/1 43/4/1 44/6/1
f 45/7/1 46/5/1 47/6/1 48/8/1
f 49/9/1 50/7/1 51/8/1 52/10/1
f 53/11/1 54/9/1 55/10/1 56/12/1
f 57/13/1 58/11/1 59/12/1 60/14/1
f 61/15/1 62/13/1 63/14/1 64/16/1
f 65/17/1 66/18/1 67/19/1 68/20/1
f 69/21/1 70/17/1 71/20/1 72/22/1
f 73/1/1 74/2/1 75/3/1 76/4/1
f 77/5/1 78/1/1 79/4/1 80/6/1
f 81/7/1 82/5/1 83/6/1 84/8/1
f 85/9/1 86/7/1 87/8/1 88/10/1
f 89/11/1 90/9/1 91/10/1 92/12/1
f 93/13/1 94/11/1 95/12/1 96/14/1
f 97/15/1 98/13/1 99/14/1 100/16/1
f 101/17/1 102/18/1 103/19/1 104/20/1
f 105/21/1 106/17/1 107/20/1 108/22/1
f 109/1/1 110/2/1 111/3/1 112/4/1
f 113/5/1 114/1/1 115/4/1 116/6/1
f 117/7/1 118/5/1 119/6/1 120/8/1
f 121/9/1 122/7/1 123/8/1 124/10/1
f 125/11/1 126/9/1 127/10/1 128/12/1
f 129/13/1 130/11/1 131/12/1 132/14/1
f 133/15/1 134/13/1 135/14/1 136/16/1
f 137/17/1 138/18/1 139/19/1 140/20/1
f 141/21/1 142/17/1 143/20/1 144/22/1
f 145/1/1 146/2/1 147/3/1 148/4/1
f 149/5/1 150/1/1 151/4/1 152/6/1
f 153/7/1 154/5/1 155/6/1 156/8/1
f 157/9/1 158/7/1 159/8/1 160/10/1
f 161/11/1 162/9/1 163/10/1 164/12/1
f 165/13/1 166/11/1 167/12/1 168/14/1
f 169/15/1 170/13/1 171/14/1 172/16/1
f 173/17/1 174/18/1 175/19/1 176/20/1
f 177/21/1 178/17/1 179/20/1 180/22/1
f 181/1/1 182/2/1 183/3/1 184/4/1
f 185/5/1 186/1/1 187/4/1 188/6/1
f 189/7/1 190/5/1 191/6/1 192/8/1
f 193/9/1 194/7/1 195/8/1 196/10/1
f 197/11/1 198/9/1 199/10/1 200/12/1
f 201/13/1 202/11/1 203/12/1 204/14/1
f 205/15/1 206/13/1 207/14/1 208/16/1
f 209/17/1 210/18/1 211/19/1 212/20/1
f 213/21/1 214/17/1 215/20/1 216/22/1
f 217/1/1 218/2/1 219/3/1 220/4/1
f 221/5/1 222/1/1 223/4/1 224/6/1
f 225/7/1 226/5/1 227/6/1 228/8/1
f 229/9/1 230/7/1 231/8/1 232/10/1
f 233/11/1 234/9/1 235/10/1 236/12/1
f 237/13/1 238/11/1 239/12/1 240/14/1
f 241/15/1 242/13/1 243/14/1 244/16/1
f 245/17/1 246/18/1 247/19/1 248/20/1
f 249/21/1 250/17/1 251/20/1 252/22/1
f 253/1/1 254/2/1 255/3/1 256/4/1
f 257/5/1 258/1/1 259/4/1 260/6/1
f 261/7/1 262/5/1 263/6/1 264/8/1
f 265/9/1 266/7/1 267/8/1 268/10/1
f 269/11/1 270/9/1 271/10/1 272/12/1
f 273/13/1 274/11/1 275/12/1 276/14/1
f 277/15/1 278/13/1 279/14/1 280/16/1
f 281/17/1 282/18/1 283/19/1 284/20/1
f 285/21/1 286/17/1 287/20/1 288/22/1
f 289/23/1 290/24/1 291/25/1 292/26/1
f 293/27/1 294/23/1 295/26/1 296/28/1
f 297/29/1 298/27/1 299/28/1 300/30/1
f 301/31/1 302/29/1 303/30/1 304/32/1
f 305/33/1 306/31/1 307/32/1 308/34/1
f 309/35/1 310/33/1 311/34/1 312/36/1
f 313/37/1 314/35/1 315/36/1 316/38/1
f 317/17/1 318/18/1 319/19/1 320/20/1
f 321/21/1 322/17/1 323/20/1 324/22/1
f 325/4/1 326/3/1 327/24/1 328/23/1
f 329/6/1 330/4/1 331/23/1 332/27/1
f 333/8/1 334/6/1 335/27/1 336/29/1
f 337/10/1 338/8/1 339/29/1 340/31/1
f 341/12/1 342/10/1 343/31/1 344/33/1
f 345/14/1 346/12/1 347/33/1 348/35/1
f 349/16/1 350/14/1 351/35/1 352/37/1
f 353/17/1 354/18/1 355/19/1 356/20/1
f 357/21/1 358/17/1 359/20/1 360/22/1
f 361/1/1 362/2/1 363/3/1 364/4/1
f 365/5/1 366/1/1 367/4/1 368/6/1
f 369/7/1 370/5/1 371/6/1 372/8/1
f 373/9/1 374/7/1 375/8/1 376/10/1
f 377/11/1 378/9/1 379/10/1 380/12/1
f 381/13/1 382/11/1 383/12/1 384/14/1
f 385/15/1 386/13/1 387/14/1 388/16/1
f 389/17/1 390/18/1 391/19/1 392/20/1
f 393/21/1 394/17/1 395/20/1 396/22/1
f 397/1/1 398/2/1 399/3/1 400/4/1
f 401/5/1 402/1/1 403/4/1 404/6/1
f 405/7/1 406/5/1 407/6/1 408/8/1
f 409/9/1 410/7/1 411/8/1 412/10/1
f 413/11/1 414/9/1 415/10/1 416/12/1
f 417/13/1 418/11/1 419/12/1 420/14/1
f 421/15/1 422/13/1 423/14/1 424/16/1
f 425/17/1 426/18/1 427/19/1 428/20/1
f 429/17/1 430/18/1 431/19/1 432/20/1
f 433/21/1 434/17/1 435/20/1 436/22/1
f 437/1/1 438/2/1 439/3/1 440/4/1
f 441/5/1 442/1/1 443/4/1 444/6/1
f 445/7/1 446/5/1 447/6/1 448/8/1
f 449/9/1 450/7/1 451/8/1 452/10/1
f 453/11/1 454/9/1 455/10/1 456/12/1
f 457/13/1 458/11/1 459/12/1 460/14/1
f 461/15/1 462/13/1 463/14/1 464/16/1
f 465/38/1 466/36/1 467/18/1 468/17/1
f 469/38/1 470/36/1 471/18/1 472/17/1
f 473/39/1 474/38/1 475/17/1 476/21/1
f 477/1/1 478/2/1 479/3/1 480/4/1
f 481/5/1 482/1/1 483/4/1 484/6/1
f 485/7/1 486/5/1 487/6/1 488/8/1
f 489/9/1 490/7/1 491/8/1 492/10/1
f 493/11/1 494/9/1 495/10/1 496/12/1
f 497/13/1 498/11/1 499/12/1 500/14/1
f 501/15/1 502/13/1 503/14/1 504/16/1
f 505/37/1 506/35/1 507/36/1 508/38/1
f 509/40/1 510/41/1 511/42/1 512/43/1
f 513/40/1 514/41/1 515/42/1 516/43/1
f 517/40/1 518/41/1 519/42/1 520/43/1
f 521/40/1 522/41/1 523/42/1 524/43/1
f 525/40/1 526/41/1 527/42/1 528/43/1
f 529/1/1 530/2/1 531/3/1 532/4/1
f 533/5/1 534/1/1 535/4/1 536/6/1
f 537/7/1 538/5/1 539/6/1 540/8/1
f 541/9/1 542/7/1 543/8/1 544/10/1
f 545/11/1 546/9/1 547/10/1 548/12/1
f 549/13/1 550/11/1 551/12/1 552/14/1
f 553/15/1 554/13/1 555/14/1 556/16/1
f 557/16/1 558/14/1 559/35/1 560/37/1
f 561/34/1 562/32/1 563/41/1 564/40/1
f 565/34/1 566/32/1 567/41/1 568/40/1
f 569/34/1 570/32/1 571/41/1 572/40/1
f 573/34/1 574/32/1 575/41/1 576/40/1
f 577/34/1 578/32/1 579/41/1 580/40/1
f 581/26/1 582/25/1 583/44/1 584/45/1
f 585/28/1 586/26/1 587/45/1 588/46/1
f 589/30/1 590/28/1 591/46/1 592/47/1
f 593/32/1 594/30/1 595/47/1 596/41/1
f 597/34/1 598/32/1 599/41/1 600/40/1
f 601/36/1 602/34/1 603/40/1 604/18/1
f 605/38/1 606/36/1 607/18/1 608/17/1
f 609/15/1 610/13/1 611/14/1 612/16/1
f 613/26/1 614/25/1 615/44/1 616/45/1
f 617/28/1 618/26/1 619/45/1 620/46/1
f 621/30/1 622/28/1 623/46/1 624/47/1
f 625/32/1 626/30/1 627/47/1 628/41/1
f 629/34/1 630/32/1 631/41/1 632/40/1

