# Tiled2Unity generated file. Do not modify by hand.
# Wavefront file for 'dungeon1_mesh_0068.obj'

# Vertices (Count = 640)
v -15 -1 0
v -16 -1 0
v -16 0 0
v -15 0 0
v -14 -1 0
v -15 -1 0
v -15 0 0
v -14 0 0
v -13 -1 0
v -14 -1 0
v -14 0 0
v -13 0 0
v -12 -1 0
v -13 -1 0
v -13 0 0
v -12 0 0
v -11 -1 0
v -12 -1 0
v -12 0 0
v -11 0 0
v -10 -1 0
v -11 -1 0
v -11 0 0
v -10 0 0
v -9 -1 0
v -10 -1 0
v -10 0 0
v -9 0 0
v -8 -1 0
v -9 -1 0
v -9 0 0
v -8 0 0
v -7 -1 0
v -8 -1 0
v -8 0 0
v -7 0 0
v -6 -1 0
v -7 -1 0
v -7 0 0
v -6 0 0
v -15 -2 0
v -16 -2 0
v -16 -1 0
v -15 -1 0
v -14 -2 0
v -15 -2 0
v -15 -1 0
v -14 -1 0
v -13 -2 0
v -14 -2 0
v -14 -1 0
v -13 -1 0
v -12 -2 0
v -13 -2 0
v -13 -1 0
v -12 -1 0
v -11 -2 0
v -12 -2 0
v -12 -1 0
v -11 -1 0
v -10 -2 0
v -11 -2 0
v -11 -1 0
v -10 -1 0
v -9 -2 0
v -10 -2 0
v -10 -1 0
v -9 -1 0
v -8 -2 0
v -9 -2 0
v -9 -1 0
v -8 -1 0
v -7 -2 0
v -8 -2 0
v -8 -1 0
v -7 -1 0
v -6 -2 0
v -7 -2 0
v -7 -1 0
v -6 -1 0
v -15 -3 0
v -16 -3 0
v -16 -2 0
v -15 -2 0
v -14 -3 0
v -15 -3 0
v -15 -2 0
v -14 -2 0
v -13 -3 0
v -14 -3 0
v -14 -2 0
v -13 -2 0
v -12 -3 0
v -13 -3 0
v -13 -2 0
v -12 -2 0
v -11 -3 0
v -12 -3 0
v -12 -2 0
v -11 -2 0
v -10 -3 0
v -11 -3 0
v -11 -2 0
v -10 -2 0
v -9 -3 0
v -10 -3 0
v -10 -2 0
v -9 -2 0
v -8 -3 0
v -9 -3 0
v -9 -2 0
v -8 -2 0
v -7 -3 0
v -8 -3 0
v -8 -2 0
v -7 -2 0
v -6 -3 0
v -7 -3 0
v -7 -2 0
v -6 -2 0
v -15 -4 0
v -16 -4 0
v -16 -3 0
v -15 -3 0
v -14 -4 0
v -15 -4 0
v -15 -3 0
v -14 -3 0
v -13 -4 0
v -14 -4 0
v -14 -3 0
v -13 -3 0
v -12 -4 0
v -13 -4 0
v -13 -3 0
v -12 -3 0
v -11 -4 0
v -12 -4 0
v -12 -3 0
v -11 -3 0
v -10 -4 0
v -11 -4 0
v -11 -3 0
v -10 -3 0
v -9 -4 0
v -10 -4 0
v -10 -3 0
v -9 -3 0
v -8 -4 0
v -9 -4 0
v -9 -3 0
v -8 -3 0
v -7 -4 0
v -8 -4 0
v -8 -3 0
v -7 -3 0
v -6 -4 0
v -7 -4 0
v -7 -3 0
v -6 -3 0
v -15 -5 0
v -16 -5 0
v -16 -4 0
v -15 -4 0
v -14 -5 0
v -15 -5 0
v -15 -4 0
v -14 -4 0
v -13 -5 0
v -14 -5 0
v -14 -4 0
v -13 -4 0
v -12 -5 0
v -13 -5 0
v -13 -4 0
v -12 -4 0
v -11 -5 0
v -12 -5 0
v -12 -4 0
v -11 -4 0
v -10 -5 0
v -11 -5 0
v -11 -4 0
v -10 -4 0
v -9 -5 0
v -10 -5 0
v -10 -4 0
v -9 -4 0
v -8 -5 0
v -9 -5 0
v -9 -4 0
v -8 -4 0
v -7 -5 0
v -8 -5 0
v -8 -4 0
v -7 -4 0
v -6 -5 0
v -7 -5 0
v -7 -4 0
v -6 -4 0
v -15 -6 0
v -16 -6 0
v -16 -5 0
v -15 -5 0
v -14 -6 0
v -15 -6 0
v -15 -5 0
v -14 -5 0
v -13 -6 0
v -14 -6 0
v -14 -5 0
v -13 -5 0
v -12 -6 0
v -13 -6 0
v -13 -5 0
v -12 -5 0
v -11 -6 0
v -12 -6 0
v -12 -5 0
v -11 -5 0
v -10 -6 0
v -11 -6 0
v -11 -5 0
v -10 -5 0
v -9 -6 0
v -10 -6 0
v -10 -5 0
v -9 -5 0
v -8 -6 0
v -9 -6 0
v -9 -5 0
v -8 -5 0
v -7 -6 0
v -8 -6 0
v -8 -5 0
v -7 -5 0
v -6 -6 0
v -7 -6 0
v -7 -5 0
v -6 -5 0
v -15 -7 0
v -16 -7 0
v -16 -6 0
v -15 -6 0
v -14 -7 0
v -15 -7 0
v -15 -6 0
v -14 -6 0
v -13 -7 0
v -14 -7 0
v -14 -6 0
v -13 -6 0
v -12 -7 0
v -13 -7 0
v -13 -6 0
v -12 -6 0
v -11 -7 0
v -12 -7 0
v -12 -6 0
v -11 -6 0
v -10 -7 0
v -11 -7 0
v -11 -6 0
v -10 -6 0
v -9 -7 0
v -10 -7 0
v -10 -6 0
v -9 -6 0
v -8 -7 0
v -9 -7 0
v -9 -6 0
v -8 -6 0
v -7 -7 0
v -8 -7 0
v -8 -6 0
v -7 -6 0
v -6 -7 0
v -7 -7 0
v -7 -6 0
v -6 -6 0
v -15 -8 0
v -16 -8 0
v -16 -7 0
v -15 -7 0
v -14 -8 0
v -15 -8 0
v -15 -7 0
v -14 -7 0
v -13 -8 0
v -14 -8 0
v -14 -7 0
v -13 -7 0
v -12 -8 0
v -13 -8 0
v -13 -7 0
v -12 -7 0
v -11 -8 0
v -12 -8 0
v -12 -7 0
v -11 -7 0
v -10 -8 0
v -11 -8 0
v -11 -7 0
v -10 -7 0
v -9 -8 0
v -10 -8 0
v -10 -7 0
v -9 -7 0
v -8 -8 0
v -9 -8 0
v -9 -7 0
v -8 -7 0
v -7 -8 0
v -8 -8 0
v -8 -7 0
v -7 -7 0
v -6 -8 0
v -7 -8 0
v -7 -7 0
v -6 -7 0
v -15 -9 0
v -16 -9 0
v -16 -8 0
v -15 -8 0
v -14 -9 0
v -15 -9 0
v -15 -8 0
v -14 -8 0
v -13 -9 0
v -14 -9 0
v -14 -8 0
v -13 -8 0
v -12 -9 0
v -13 -9 0
v -13 -8 0
v -12 -8 0
v -11 -9 0
v -12 -9 0
v -12 -8 0
v -11 -8 0
v -10 -9 0
v -11 -9 0
v -11 -8 0
v -10 -8 0
v -9 -9 0
v -10 -9 0
v -10 -8 0
v -9 -8 0
v -8 -9 0
v -9 -9 0
v -9 -8 0
v -8 -8 0
v -7 -9 0
v -8 -9 0
v -8 -8 0
v -7 -8 0
v -6 -9 0
v -7 -9 0
v -7 -8 0
v -6 -8 0
v -15 -10 0
v -16 -10 0
v -16 -9 0
v -15 -9 0
v -14 -10 0
v -15 -10 0
v -15 -9 0
v -14 -9 0
v -13 -10 0
v -14 -10 0
v -14 -9 0
v -13 -9 0
v -12 -10 0
v -13 -10 0
v -13 -9 0
v -12 -9 0
v -11 -10 0
v -12 -10 0
v -12 -9 0
v -11 -9 0
v -10 -10 0
v -11 -10 0
v -11 -9 0
v -10 -9 0
v -9 -10 0
v -10 -10 0
v -10 -9 0
v -9 -9 0
v -8 -10 0
v -9 -10 0
v -9 -9 0
v -8 -9 0
v -7 -10 0
v -8 -10 0
v -8 -9 0
v -7 -9 0
v -6 -10 0
v -7 -10 0
v -7 -9 0
v -6 -9 0
v -15 -11 0
v -16 -11 0
v -16 -10 0
v -15 -10 0
v -14 -11 0
v -15 -11 0
v -15 -10 0
v -14 -10 0
v -13 -11 0
v -14 -11 0
v -14 -10 0
v -13 -10 0
v -12 -11 0
v -13 -11 0
v -13 -10 0
v -12 -10 0
v -11 -11 0
v -12 -11 0
v -12 -10 0
v -11 -10 0
v -10 -11 0
v -11 -11 0
v -11 -10 0
v -10 -10 0
v -9 -11 0
v -10 -11 0
v -10 -10 0
v -9 -10 0
v -8 -11 0
v -9 -11 0
v -9 -10 0
v -8 -10 0
v -7 -11 0
v -8 -11 0
v -8 -10 0
v -7 -10 0
v -6 -11 0
v -7 -11 0
v -7 -10 0
v -6 -10 0
v -15 -12 0
v -16 -12 0
v -16 -11 0
v -15 -11 0
v -14 -12 0
v -15 -12 0
v -15 -11 0
v -14 -11 0
v -13 -12 0
v -14 -12 0
v -14 -11 0
v -13 -11 0
v -12 -12 0
v -13 -12 0
v -13 -11 0
v -12 -11 0
v -11 -12 0
v -12 -12 0
v -12 -11 0
v -11 -11 0
v -10 -12 0
v -11 -12 0
v -11 -11 0
v -10 -11 0
v -9 -12 0
v -10 -12 0
v -10 -11 0
v -9 -11 0
v -8 -12 0
v -9 -12 0
v -9 -11 0
v -8 -11 0
v -7 -12 0
v -8 -12 0
v -8 -11 0
v -7 -11 0
v -6 -12 0
v -7 -12 0
v -7 -11 0
v -6 -11 0
v -15 -13 0
v -16 -13 0
v -16 -12 0
v -15 -12 0
v -14 -13 0
v -15 -13 0
v -15 -12 0
v -14 -12 0
v -13 -13 0
v -14 -13 0
v -14 -12 0
v -13 -12 0
v -12 -13 0
v -13 -13 0
v -13 -12 0
v -12 -12 0
v -11 -13 0
v -12 -13 0
v -12 -12 0
v -11 -12 0
v -10 -13 0
v -11 -13 0
v -11 -12 0
v -10 -12 0
v -9 -13 0
v -10 -13 0
v -10 -12 0
v -9 -12 0
v -8 -13 0
v -9 -13 0
v -9 -12 0
v -8 -12 0
v -7 -13 0
v -8 -13 0
v -8 -12 0
v -7 -12 0
v -6 -13 0
v -7 -13 0
v -7 -12 0
v -6 -12 0
v -15 -14 0
v -16 -14 0
v -16 -13 0
v -15 -13 0
v -14 -14 0
v -15 -14 0
v -15 -13 0
v -14 -13 0
v -13 -14 0
v -14 -14 0
v -14 -13 0
v -13 -13 0
v -12 -14 0
v -13 -14 0
v -13 -13 0
v -12 -13 0
v -11 -14 0
v -12 -14 0
v -12 -13 0
v -11 -13 0
v -10 -14 0
v -11 -14 0
v -11 -13 0
v -10 -13 0
v -9 -14 0
v -10 -14 0
v -10 -13 0
v -9 -13 0
v -8 -14 0
v -9 -14 0
v -9 -13 0
v -8 -13 0
v -7 -14 0
v -8 -14 0
v -8 -13 0
v -7 -13 0
v -6 -14 0
v -7 -14 0
v -7 -13 0
v -6 -13 0
v -15 -15 0
v -16 -15 0
v -16 -14 0
v -15 -14 0
v -14 -15 0
v -15 -15 0
v -15 -14 0
v -14 -14 0
v -13 -15 0
v -14 -15 0
v -14 -14 0
v -13 -14 0
v -12 -15 0
v -13 -15 0
v -13 -14 0
v -12 -14 0
v -11 -15 0
v -12 -15 0
v -12 -14 0
v -11 -14 0
v -10 -15 0
v -11 -15 0
v -11 -14 0
v -10 -14 0
v -9 -15 0
v -10 -15 0
v -10 -14 0
v -9 -14 0
v -8 -15 0
v -9 -15 0
v -9 -14 0
v -8 -14 0
v -7 -15 0
v -8 -15 0
v -8 -14 0
v -7 -14 0
v -6 -15 0
v -7 -15 0
v -7 -14 0
v -6 -14 0
v -15 -16 0
v -16 -16 0
v -16 -15 0
v -15 -15 0
v -14 -16 0
v -15 -16 0
v -15 -15 0
v -14 -15 0
v -13 -16 0
v -14 -16 0
v -14 -15 0
v -13 -15 0
v -12 -16 0
v -13 -16 0
v -13 -15 0
v -12 -15 0
v -11 -16 0
v -12 -16 0
v -12 -15 0
v -11 -15 0
v -10 -16 0
v -11 -16 0
v -11 -15 0
v -10 -15 0
v -9 -16 0
v -10 -16 0
v -10 -15 0
v -9 -15 0
v -8 -16 0
v -9 -16 0
v -9 -15 0
v -8 -15 0
v -7 -16 0
v -8 -16 0
v -8 -15 0
v -7 -15 0
v -6 -16 0
v -7 -16 0
v -7 -15 0
v -6 -15 0

# Texture cooridinates (Count = 33)
vt 0.1081081 0.1086956
vt 0.1351351 0.1086956
vt 0.1351351 0.1304348
vt 0.1081081 0.1304348
vt 0.1081081 0.0869565
vt 0.1351351 0.0869565
vt 0.08108108 0.06521738
vt 0.1081081 0.06521738
vt 0.08108108 0.0869565
vt 0.05405406 0.06521738
vt 0.05405406 0.0869565
vt 0.02702703 0.1086956
vt 0.05405406 0.1086956
vt 0.05405406 0.1304348
vt 0.02702703 0.1304348
vt 0 0.1086956
vt 0 0.1304348
vt 0.1621622 0.0869565
vt 0.1621622 0.1086956
vt 0.2432432 0.1086956
vt 0.2702703 0.1086956
vt 0.2702703 0.1304348
vt 0.2432432 0.1304348
vt 0.02702703 0.04347825
vt 0.05405406 0.04347825
vt 0.02702703 0.06521738
vt 0.08108108 0.04347825
vt 0.1081081 0.04347825
vt 0.2162162 0.1086956
vt 0.2162162 0.1304348
vt 0.1621622 0.1304348
vt 0.02702703 0.0869565
vt 0 0.0869565

# Normal
vn 0 0 -1

# Mesh description
g dungeon1_mesh_0068

# Faces
f 1/1/1 2/2/1 3/3/1 4/4/1
f 5/5/1 6/6/1 7/2/1 8/1/1
f 9/7/1 10/8/1 11/5/1 12/9/1
f 13/10/1 14/7/1 15/9/1 16/11/1
f 17/12/1 18/13/1 19/14/1 20/15/1
f 21/16/1 22/12/1 23/15/1 24/17/1
f 25/6/1 26/18/1 27/19/1 28/2/1
f 29/6/1 30/18/1 31/19/1 32/2/1
f 33/5/1 34/6/1 35/2/1 36/1/1
f 37/20/1 38/21/1 39/22/1 40/23/1
f 41/5/1 42/6/1 43/2/1 44/1/1
f 45/24/1 46/25/1 47/10/1 48/26/1
f 49/27/1 50/28/1 51/8/1 52/7/1
f 53/25/1 54/27/1 55/7/1 56/10/1
f 57/12/1 58/13/1 59/14/1 60/15/1
f 61/16/1 62/12/1 63/15/1 64/17/1
f 65/6/1 66/18/1 67/19/1 68/2/1
f 69/6/1 70/18/1 71/19/1 72/2/1
f 73/5/1 74/6/1 75/2/1 76/1/1
f 77/29/1 78/20/1 79/23/1 80/30/1
f 81/7/1 82/8/1 83/5/1 84/9/1
f 85/7/1 86/8/1 87/5/1 88/9/1
f 89/7/1 90/8/1 91/5/1 92/9/1
f 93/10/1 94/7/1 95/9/1 96/11/1
f 97/12/1 98/13/1 99/14/1 100/15/1
f 101/16/1 102/12/1 103/15/1 104/17/1
f 105/6/1 106/18/1 107/19/1 108/2/1
f 109/6/1 110/18/1 111/19/1 112/2/1
f 113/5/1 114/6/1 115/2/1 116/1/1
f 117/20/1 118/21/1 119/22/1 120/23/1
f 121/27/1 122/28/1 123/8/1 124/7/1
f 125/27/1 126/28/1 127/8/1 128/7/1
f 129/27/1 130/28/1 131/8/1 132/7/1
f 133/25/1 134/27/1 135/7/1 136/10/1
f 137/12/1 138/13/1 139/14/1 140/15/1
f 141/16/1 142/12/1 143/15/1 144/17/1
f 145/2/1 146/19/1 147/31/1 148/3/1
f 149/1/1 150/2/1 151/3/1 152/4/1
f 153/5/1 154/6/1 155/2/1 156/1/1
f 157/20/1 158/21/1 159/22/1 160/23/1
f 161/10/1 162/7/1 163/9/1 164/11/1
f 165/10/1 166/7/1 167/9/1 168/11/1
f 169/7/1 170/8/1 171/5/1 172/9/1
f 173/10/1 174/7/1 175/9/1 176/11/1
f 177/12/1 178/13/1 179/14/1 180/15/1
f 181/16/1 182/12/1 183/15/1 184/17/1
f 185/6/1 186/18/1 187/19/1 188/2/1
f 189/5/1 190/6/1 191/2/1 192/1/1
f 193/5/1 194/6/1 195/2/1 196/1/1
f 197/20/1 198/21/1 199/22/1 200/23/1
f 201/7/1 202/8/1 203/5/1 204/9/1
f 205/7/1 206/8/1 207/5/1 208/9/1
f 209/10/1 210/7/1 211/9/1 212/11/1
f 213/25/1 214/27/1 215/7/1 216/10/1
f 217/12/1 218/13/1 219/14/1 220/15/1
f 221/16/1 222/12/1 223/15/1 224/17/1
f 225/6/1 226/18/1 227/19/1 228/2/1
f 229/6/1 230/18/1 231/19/1 232/2/1
f 233/5/1 234/6/1 235/2/1 236/1/1
f 237/20/1 238/21/1 239/22/1 240/23/1
f 241/7/1 242/8/1 243/5/1 244/9/1
f 245/27/1 246/28/1 247/8/1 248/7/1
f 249/7/1 250/8/1 251/5/1 252/9/1
f 253/10/1 254/7/1 255/9/1 256/11/1
f 257/12/1 258/13/1 259/14/1 260/15/1
f 261/16/1 262/12/1 263/15/1 264/17/1
f 265/6/1 266/18/1 267/19/1 268/2/1
f 269/6/1 270/18/1 271/19/1 272/2/1
f 273/5/1 274/6/1 275/2/1 276/1/1
f 277/20/1 278/21/1 279/22/1 280/23/1
f 281/10/1 282/7/1 283/9/1 284/11/1
f 285/7/1 286/8/1 287/5/1 288/9/1
f 289/27/1 290/28/1 291/8/1 292/7/1
f 293/25/1 294/27/1 295/7/1 296/10/1
f 297/12/1 298/13/1 299/14/1 300/15/1
f 301/16/1 302/12/1 303/15/1 304/17/1
f 305/6/1 306/18/1 307/19/1 308/2/1
f 309/6/1 310/18/1 311/19/1 312/2/1
f 313/5/1 314/6/1 315/2/1 316/1/1
f 317/20/1 318/21/1 319/22/1 320/23/1
f 321/25/1 322/27/1 323/7/1 324/10/1
f 325/10/1 326/7/1 327/9/1 328/11/1
f 329/25/1 330/27/1 331/7/1 332/10/1
f 333/10/1 334/7/1 335/9/1 336/11/1
f 337/32/1 338/11/1 339/13/1 340/12/1
f 341/33/1 342/32/1 343/12/1 344/16/1
f 345/6/1 346/18/1 347/19/1 348/2/1
f 349/2/1 350/19/1 351/31/1 352/3/1
f 353/1/1 354/2/1 355/3/1 356/4/1
f 357/29/1 358/20/1 359/23/1 360/30/1
f 361/27/1 362/28/1 363/8/1 364/7/1
f 365/25/1 366/27/1 367/7/1 368/10/1
f 369/7/1 370/8/1 371/5/1 372/9/1
f 373/10/1 374/7/1 375/9/1 376/11/1
f 377/12/1 378/13/1 379/14/1 380/15/1
f 381/16/1 382/12/1 383/15/1 384/17/1
f 385/6/1 386/18/1 387/19/1 388/2/1
f 389/6/1 390/18/1 391/19/1 392/2/1
f 393/5/1 394/6/1 395/2/1 396/1/1
f 397/29/1 398/20/1 399/23/1 400/30/1
f 401/7/1 402/8/1 403/5/1 404/9/1
f 405/10/1 406/7/1 407/9/1 408/11/1
f 409/27/1 410/28/1 411/8/1 412/7/1
f 413/25/1 414/27/1 415/7/1 416/10/1
f 417/12/1 418/13/1 419/14/1 420/15/1
f 421/16/1 422/12/1 423/15/1 424/17/1
f 425/6/1 426/18/1 427/19/1 428/2/1
f 429/6/1 430/18/1 431/19/1 432/2/1
f 433/5/1 434/6/1 435/2/1 436/1/1
f 437/20/1 438/21/1 439/22/1 440/23/1
f 441/7/1 442/8/1 443/5/1 444/9/1
f 445/10/1 446/7/1 447/9/1 448/11/1
f 449/7/1 450/8/1 451/5/1 452/9/1
f 453/10/1 454/7/1 455/9/1 456/11/1
f 457/12/1 458/13/1 459/14/1 460/15/1
f 461/16/1 462/12/1 463/15/1 464/17/1
f 465/6/1 466/18/1 467/19/1 468/2/1
f 469/6/1 470/18/1 471/19/1 472/2/1
f 473/5/1 474/6/1 475/2/1 476/1/1
f 477/29/1 478/20/1 479/23/1 480/30/1
f 481/7/1 482/8/1 483/5/1 484/9/1
f 485/10/1 486/7/1 487/9/1 488/11/1
f 489/27/1 490/28/1 491/8/1 492/7/1
f 493/25/1 494/27/1 495/7/1 496/10/1
f 497/12/1 498/13/1 499/14/1 500/15/1
f 501/16/1 502/12/1 503/15/1 504/17/1
f 505/6/1 506/18/1 507/19/1 508/2/1
f 509/6/1 510/18/1 511/19/1 512/2/1
f 513/5/1 514/6/1 515/2/1 516/1/1
f 517/29/1 518/20/1 519/23/1 520/30/1
f 521/27/1 522/28/1 523/8/1 524/7/1
f 525/25/1 526/27/1 527/7/1 528/10/1
f 529/7/1 530/8/1 531/5/1 532/9/1
f 533/10/1 534/7/1 535/9/1 536/11/1
f 537/32/1 538/11/1 539/13/1 540/12/1
f 541/33/1 542/32/1 543/12/1 544/16/1
f 545/6/1 546/18/1 547/19/1 548/2/1
f 549/6/1 550/18/1 551/19/1 552/2/1
f 553/5/1 554/6/1 555/2/1 556/1/1
f 557/20/1 558/21/1 559/22/1 560/23/1
f 561/7/1 562/8/1 563/5/1 564/9/1
f 565/7/1 566/8/1 567/5/1 568/9/1
f 569/10/1 570/7/1 571/9/1 572/11/1
f 573/25/1 574/27/1 575/7/1 576/10/1
f 577/32/1 578/11/1 579/13/1 580/12/1
f 581/33/1 582/32/1 583/12/1 584/16/1
f 585/6/1 586/18/1 587/19/1 588/2/1
f 589/6/1 590/18/1 591/19/1 592/2/1
f 593/5/1 594/6/1 595/2/1 596/1/1
f 597/29/1 598/20/1 599/23/1 600/30/1
f 601/10/1 602/7/1 603/9/1 604/11/1
f 605/27/1 606/28/1 607/8/1 608/7/1
f 609/25/1 610/27/1 611/7/1 612/10/1
f 613/10/1 614/7/1 615/9/1 616/11/1
f 617/12/1 618/13/1 619/14/1 620/15/1
f 621/16/1 622/12/1 623/15/1 624/17/1
f 625/6/1 626/18/1 627/19/1 628/2/1
f 629/6/1 630/18/1 631/19/1 632/2/1
f 633/5/1 634/6/1 635/2/1 636/1/1
f 637/29/1 638/20/1 639/23/1 640/30/1

