# Tiled2Unity generated file. Do not modify by hand.
# Wavefront file for 'dungeon1_mesh_0119.obj'

# Vertices (Count = 196)
v -2 -3 0
v -3 -3 0
v -3 -2 0
v -2 -2 0
v -1 -3 0
v -2 -3 0
v -2 -2 0
v -1 -2 0
v -2 -4 0
v -3 -4 0
v -3 -3 0
v -2 -3 0
v -1 -4 0
v -2 -4 0
v -2 -3 0
v -1 -3 0
v -2 -5 0
v -3 -5 0
v -3 -4 0
v -2 -4 0
v -1 -5 0
v -2 -5 0
v -2 -4 0
v -1 -4 0
v -2 -6 0
v -3 -6 0
v -3 -5 0
v -2 -5 0
v -1 -6 0
v -2 -6 0
v -2 -5 0
v -1 -5 0
v -2 -7 0
v -3 -7 0
v -3 -6 0
v -2 -6 0
v -1 -7 0
v -2 -7 0
v -2 -6 0
v -1 -6 0
v 0 -7 0
v -1 -7 0
v -1 -6 0
v 0 -6 0
v -15 -11 0
v -16 -11 0
v -16 -10 0
v -15 -10 0
v -14 -11 0
v -15 -11 0
v -15 -10 0
v -14 -10 0
v -2 -11 0
v -3 -11 0
v -3 -10 0
v -2 -10 0
v -1 -11 0
v -2 -11 0
v -2 -10 0
v -1 -10 0
v 0 -11 0
v -1 -11 0
v -1 -10 0
v 0 -10 0
v -15 -12 0
v -16 -12 0
v -16 -11 0
v -15 -11 0
v -14 -12 0
v -15 -12 0
v -15 -11 0
v -14 -11 0
v -13 -12 0
v -14 -12 0
v -14 -11 0
v -13 -11 0
v -2 -12 0
v -3 -12 0
v -3 -11 0
v -2 -11 0
v -1 -12 0
v -2 -12 0
v -2 -11 0
v -1 -11 0
v 0 -12 0
v -1 -12 0
v -1 -11 0
v 0 -11 0
v -15 -13 0
v -16 -13 0
v -16 -12 0
v -15 -12 0
v -14 -13 0
v -15 -13 0
v -15 -12 0
v -14 -12 0
v -13 -13 0
v -14 -13 0
v -14 -12 0
v -13 -12 0
v -7 -13 0
v -8 -13 0
v -8 -12 0
v -7 -12 0
v -3 -13 0
v -4 -13 0
v -4 -12 0
v -3 -12 0
v -2 -13 0
v -3 -13 0
v -3 -12 0
v -2 -12 0
v -1 -13 0
v -2 -13 0
v -2 -12 0
v -1 -12 0
v 0 -13 0
v -1 -13 0
v -1 -12 0
v 0 -12 0
v -15 -14 0
v -16 -14 0
v -16 -13 0
v -15 -13 0
v -14 -14 0
v -15 -14 0
v -15 -13 0
v -14 -13 0
v -7 -14 0
v -8 -14 0
v -8 -13 0
v -7 -13 0
v -3 -14 0
v -4 -14 0
v -4 -13 0
v -3 -13 0
v -2 -14 0
v -3 -14 0
v -3 -13 0
v -2 -13 0
v -1 -14 0
v -2 -14 0
v -2 -13 0
v -1 -13 0
v 0 -14 0
v -1 -14 0
v -1 -13 0
v 0 -13 0
v -15 -15 0
v -16 -15 0
v -16 -14 0
v -15 -14 0
v -14 -15 0
v -15 -15 0
v -15 -14 0
v -14 -14 0
v -11 -15 0
v -12 -15 0
v -12 -14 0
v -11 -14 0
v -2 -15 0
v -3 -15 0
v -3 -14 0
v -2 -14 0
v -1 -15 0
v -2 -15 0
v -2 -14 0
v -1 -14 0
v 0 -15 0
v -1 -15 0
v -1 -14 0
v 0 -14 0
v -15 -16 0
v -16 -16 0
v -16 -15 0
v -15 -15 0
v -14 -16 0
v -15 -16 0
v -15 -15 0
v -14 -15 0
v -11 -16 0
v -12 -16 0
v -12 -15 0
v -11 -15 0
v -2 -16 0
v -3 -16 0
v -3 -15 0
v -2 -15 0
v -1 -16 0
v -2 -16 0
v -2 -15 0
v -1 -15 0
v 0 -16 0
v -1 -16 0
v -1 -15 0
v 0 -15 0

# Texture cooridinates (Count = 57)
vt 0.1621622 0.9782609
vt 0.1891892 0.9782609
vt 0.1891892 1
vt 0.1621622 1
vt 0.1351351 0.7826087
vt 0.1621622 0.7826087
vt 0.1621622 0.8043478
vt 0.1351351 0.8043478
vt 0.1621622 0.9347826
vt 0.1891892 0.9347826
vt 0.1891892 0.9565217
vt 0.1621622 0.9565217
vt 0.1621622 0.9130435
vt 0.1891892 0.9130435
vt 0.1621622 0.8913044
vt 0.1891892 0.8913044
vt 0.2432432 0.9782609
vt 0.2702703 0.9782609
vt 0.2702703 1
vt 0.2432432 1
vt 0.2162162 0.9782609
vt 0.2162162 1
vt 0.7837838 0.3913044
vt 0.8108108 0.3913044
vt 0.8108108 0.4130435
vt 0.7837838 0.4130435
vt 0.7567568 0.3913044
vt 0.7567568 0.4130435
vt 0.8378378 0.3913044
vt 0.8648649 0.3913044
vt 0.8648649 0.4130435
vt 0.8378378 0.4130435
vt 0.7837838 0.3695652
vt 0.8108108 0.3695652
vt 0.7567568 0.3695652
vt 0.8648649 0.4347826
vt 0.8918919 0.4347826
vt 0.8918919 0.4565217
vt 0.8648649 0.4565217
vt 0.8378378 0.3695652
vt 0.8648649 0.3695652
vt 0.7837838 0.3478261
vt 0.8108108 0.3478261
vt 0.7567568 0.3478261
vt 0.8918919 0.4130435
vt 0.8378378 0.3478261
vt 0.8648649 0.3478261
vt 0.7837838 0.3260869
vt 0.8108108 0.3260869
vt 0.7567568 0.3260869
vt 0.8378378 0.3260869
vt 0.8648649 0.3260869
vt 0.7837838 0.3043478
vt 0.8108108 0.3043478
vt 0.7567568 0.3043478
vt 0.8378378 0.3043478
vt 0.8648649 0.3043478

# Normal
vn 0 0 -1

# Mesh description
g dungeon1_mesh_0119

# Faces
f 1/1/1 2/2/1 3/3/1 4/4/1
f 5/5/1 6/6/1 7/7/1 8/8/1
f 9/9/1 10/10/1 11/11/1 12/12/1
f 13/5/1 14/6/1 15/7/1 16/8/1
f 17/13/1 18/14/1 19/10/1 20/9/1
f 21/5/1 22/6/1 23/7/1 24/8/1
f 25/15/1 26/16/1 27/14/1 28/13/1
f 29/5/1 30/6/1 31/7/1 32/8/1
f 33/17/1 34/18/1 35/19/1 36/20/1
f 37/21/1 38/17/1 39/20/1 40/22/1
f 41/2/1 42/21/1 43/22/1 44/3/1
f 45/23/1 46/24/1 47/25/1 48/26/1
f 49/27/1 50/23/1 51/26/1 52/28/1
f 53/29/1 54/30/1 55/31/1 56/32/1
f 57/24/1 58/29/1 59/32/1 60/25/1
f 61/23/1 62/24/1 63/25/1 64/26/1
f 65/33/1 66/34/1 67/24/1 68/23/1
f 69/35/1 70/33/1 71/23/1 72/27/1
f 73/36/1 74/37/1 75/38/1 76/39/1
f 77/40/1 78/41/1 79/30/1 80/29/1
f 81/34/1 82/40/1 83/29/1 84/24/1
f 85/33/1 86/34/1 87/24/1 88/23/1
f 89/42/1 90/43/1 91/34/1 92/33/1
f 93/44/1 94/42/1 95/33/1 96/35/1
f 97/31/1 98/45/1 99/37/1 100/36/1
f 101/36/1 102/37/1 103/38/1 104/39/1
f 105/36/1 106/37/1 107/38/1 108/39/1
f 109/46/1 110/47/1 111/41/1 112/40/1
f 113/43/1 114/46/1 115/40/1 116/34/1
f 117/42/1 118/43/1 119/34/1 120/33/1
f 121/48/1 122/49/1 123/43/1 124/42/1
f 125/50/1 126/48/1 127/42/1 128/44/1
f 129/31/1 130/45/1 131/37/1 132/36/1
f 133/31/1 134/45/1 135/37/1 136/36/1
f 137/51/1 138/52/1 139/47/1 140/46/1
f 141/49/1 142/51/1 143/46/1 144/43/1
f 145/48/1 146/49/1 147/43/1 148/42/1
f 149/53/1 150/54/1 151/49/1 152/48/1
f 153/55/1 154/53/1 155/48/1 156/50/1
f 157/36/1 158/37/1 159/38/1 160/39/1
f 161/56/1 162/57/1 163/52/1 164/51/1
f 165/54/1 166/56/1 167/51/1 168/49/1
f 169/53/1 170/54/1 171/49/1 172/48/1
f 173/23/1 174/24/1 175/25/1 176/26/1
f 177/27/1 178/23/1 179/26/1 180/28/1
f 181/31/1 182/45/1 183/37/1 184/36/1
f 185/29/1 186/30/1 187/31/1 188/32/1
f 189/24/1 190/29/1 191/32/1 192/25/1
f 193/23/1 194/24/1 195/25/1 196/26/1

