# Tiled2Unity generated file. Do not modify by hand.
# Wavefront file for 'dungeon1_mesh_0009.obj'

# Vertices (Count = 256)
v -3 -1 0
v -4 -1 0
v -4 0 0
v -3 0 0
v -2 -1 0
v -3 -1 0
v -3 0 0
v -2 0 0
v -1 -1 0
v -2 -1 0
v -2 0 0
v -1 0 0
v 0 -1 0
v -1 -1 0
v -1 0 0
v 0 0 0
v -3 -2 0
v -4 -2 0
v -4 -1 0
v -3 -1 0
v -2 -2 0
v -3 -2 0
v -3 -1 0
v -2 -1 0
v -1 -2 0
v -2 -2 0
v -2 -1 0
v -1 -1 0
v 0 -2 0
v -1 -2 0
v -1 -1 0
v 0 -1 0
v -3 -3 0
v -4 -3 0
v -4 -2 0
v -3 -2 0
v -2 -3 0
v -3 -3 0
v -3 -2 0
v -2 -2 0
v -1 -3 0
v -2 -3 0
v -2 -2 0
v -1 -2 0
v 0 -3 0
v -1 -3 0
v -1 -2 0
v 0 -2 0
v -3 -4 0
v -4 -4 0
v -4 -3 0
v -3 -3 0
v -2 -4 0
v -3 -4 0
v -3 -3 0
v -2 -3 0
v -1 -4 0
v -2 -4 0
v -2 -3 0
v -1 -3 0
v 0 -4 0
v -1 -4 0
v -1 -3 0
v 0 -3 0
v -3 -5 0
v -4 -5 0
v -4 -4 0
v -3 -4 0
v -2 -5 0
v -3 -5 0
v -3 -4 0
v -2 -4 0
v -1 -5 0
v -2 -5 0
v -2 -4 0
v -1 -4 0
v 0 -5 0
v -1 -5 0
v -1 -4 0
v 0 -4 0
v -3 -6 0
v -4 -6 0
v -4 -5 0
v -3 -5 0
v -2 -6 0
v -3 -6 0
v -3 -5 0
v -2 -5 0
v -1 -6 0
v -2 -6 0
v -2 -5 0
v -1 -5 0
v 0 -6 0
v -1 -6 0
v -1 -5 0
v 0 -5 0
v -3 -7 0
v -4 -7 0
v -4 -6 0
v -3 -6 0
v -2 -7 0
v -3 -7 0
v -3 -6 0
v -2 -6 0
v -1 -7 0
v -2 -7 0
v -2 -6 0
v -1 -6 0
v 0 -7 0
v -1 -7 0
v -1 -6 0
v 0 -6 0
v -3 -8 0
v -4 -8 0
v -4 -7 0
v -3 -7 0
v -2 -8 0
v -3 -8 0
v -3 -7 0
v -2 -7 0
v -1 -8 0
v -2 -8 0
v -2 -7 0
v -1 -7 0
v 0 -8 0
v -1 -8 0
v -1 -7 0
v 0 -7 0
v -3 -9 0
v -4 -9 0
v -4 -8 0
v -3 -8 0
v -2 -9 0
v -3 -9 0
v -3 -8 0
v -2 -8 0
v -1 -9 0
v -2 -9 0
v -2 -8 0
v -1 -8 0
v 0 -9 0
v -1 -9 0
v -1 -8 0
v 0 -8 0
v -3 -10 0
v -4 -10 0
v -4 -9 0
v -3 -9 0
v -2 -10 0
v -3 -10 0
v -3 -9 0
v -2 -9 0
v -1 -10 0
v -2 -10 0
v -2 -9 0
v -1 -9 0
v 0 -10 0
v -1 -10 0
v -1 -9 0
v 0 -9 0
v -3 -11 0
v -4 -11 0
v -4 -10 0
v -3 -10 0
v -2 -11 0
v -3 -11 0
v -3 -10 0
v -2 -10 0
v -1 -11 0
v -2 -11 0
v -2 -10 0
v -1 -10 0
v 0 -11 0
v -1 -11 0
v -1 -10 0
v 0 -10 0
v -3 -12 0
v -4 -12 0
v -4 -11 0
v -3 -11 0
v -2 -12 0
v -3 -12 0
v -3 -11 0
v -2 -11 0
v -1 -12 0
v -2 -12 0
v -2 -11 0
v -1 -11 0
v 0 -12 0
v -1 -12 0
v -1 -11 0
v 0 -11 0
v -3 -13 0
v -4 -13 0
v -4 -12 0
v -3 -12 0
v -2 -13 0
v -3 -13 0
v -3 -12 0
v -2 -12 0
v -1 -13 0
v -2 -13 0
v -2 -12 0
v -1 -12 0
v 0 -13 0
v -1 -13 0
v -1 -12 0
v 0 -12 0
v -3 -14 0
v -4 -14 0
v -4 -13 0
v -3 -13 0
v -2 -14 0
v -3 -14 0
v -3 -13 0
v -2 -13 0
v -1 -14 0
v -2 -14 0
v -2 -13 0
v -1 -13 0
v 0 -14 0
v -1 -14 0
v -1 -13 0
v 0 -13 0
v -3 -15 0
v -4 -15 0
v -4 -14 0
v -3 -14 0
v -2 -15 0
v -3 -15 0
v -3 -14 0
v -2 -14 0
v -1 -15 0
v -2 -15 0
v -2 -14 0
v -1 -14 0
v 0 -15 0
v -1 -15 0
v -1 -14 0
v 0 -14 0
v -3 -16 0
v -4 -16 0
v -4 -15 0
v -3 -15 0
v -2 -16 0
v -3 -16 0
v -3 -15 0
v -2 -15 0
v -1 -16 0
v -2 -16 0
v -2 -15 0
v -1 -15 0
v 0 -16 0
v -1 -16 0
v -1 -15 0
v 0 -15 0

# Texture cooridinates (Count = 14)
vt 0.2702703 0.9130435
vt 0.2972973 0.9130435
vt 0.2972973 0.9347826
vt 0.2702703 0.9347826
vt 0.2432432 0.9130435
vt 0.2432432 0.9347826
vt 0.3243243 0.9130435
vt 0.3513514 0.9130435
vt 0.3513514 0.9347826
vt 0.3243243 0.9347826
vt 0.3243243 0.8913044
vt 0.3513514 0.8913044
vt 0.2972973 0.8913044
vt 0.2702703 0.8913044

# Normal
vn 0 0 -1

# Mesh description
g dungeon1_mesh_0009

# Faces
f 1/1/1 2/2/1 3/3/1 4/4/1
f 5/5/1 6/1/1 7/4/1 8/6/1
f 9/5/1 10/1/1 11/4/1 12/6/1
f 13/5/1 14/1/1 15/4/1 16/6/1
f 17/7/1 18/8/1 19/9/1 20/10/1
f 21/7/1 22/8/1 23/9/1 24/10/1
f 25/2/1 26/7/1 27/10/1 28/3/1
f 29/1/1 30/2/1 31/3/1 32/4/1
f 33/7/1 34/8/1 35/9/1 36/10/1
f 37/11/1 38/12/1 39/8/1 40/7/1
f 41/13/1 42/11/1 43/7/1 44/2/1
f 45/14/1 46/13/1 47/2/1 48/1/1
f 49/7/1 50/8/1 51/9/1 52/10/1
f 53/11/1 54/12/1 55/8/1 56/7/1
f 57/13/1 58/11/1 59/7/1 60/2/1
f 61/14/1 62/13/1 63/2/1 64/1/1
f 65/7/1 66/8/1 67/9/1 68/10/1
f 69/11/1 70/12/1 71/8/1 72/7/1
f 73/13/1 74/11/1 75/7/1 76/2/1
f 77/14/1 78/13/1 79/2/1 80/1/1
f 81/7/1 82/8/1 83/9/1 84/10/1
f 85/11/1 86/12/1 87/8/1 88/7/1
f 89/13/1 90/11/1 91/7/1 92/2/1
f 93/14/1 94/13/1 95/2/1 96/1/1
f 97/7/1 98/8/1 99/9/1 100/10/1
f 101/11/1 102/12/1 103/8/1 104/7/1
f 105/13/1 106/11/1 107/7/1 108/2/1
f 109/14/1 110/13/1 111/2/1 112/1/1
f 113/7/1 114/8/1 115/9/1 116/10/1
f 117/11/1 118/12/1 119/8/1 120/7/1
f 121/13/1 122/11/1 123/7/1 124/2/1
f 125/14/1 126/13/1 127/2/1 128/1/1
f 129/7/1 130/8/1 131/9/1 132/10/1
f 133/11/1 134/12/1 135/8/1 136/7/1
f 137/13/1 138/11/1 139/7/1 140/2/1
f 141/14/1 142/13/1 143/2/1 144/1/1
f 145/7/1 146/8/1 147/9/1 148/10/1
f 149/11/1 150/12/1 151/8/1 152/7/1
f 153/13/1 154/11/1 155/7/1 156/2/1
f 157/14/1 158/13/1 159/2/1 160/1/1
f 161/7/1 162/8/1 163/9/1 164/10/1
f 165/11/1 166/12/1 167/8/1 168/7/1
f 169/13/1 170/11/1 171/7/1 172/2/1
f 173/14/1 174/13/1 175/2/1 176/1/1
f 177/7/1 178/8/1 179/9/1 180/10/1
f 181/11/1 182/12/1 183/8/1 184/7/1
f 185/13/1 186/11/1 187/7/1 188/2/1
f 189/14/1 190/13/1 191/2/1 192/1/1
f 193/7/1 194/8/1 195/9/1 196/10/1
f 197/11/1 198/12/1 199/8/1 200/7/1
f 201/13/1 202/11/1 203/7/1 204/2/1
f 205/14/1 206/13/1 207/2/1 208/1/1
f 209/7/1 210/8/1 211/9/1 212/10/1
f 213/11/1 214/12/1 215/8/1 216/7/1
f 217/13/1 218/11/1 219/7/1 220/2/1
f 221/14/1 222/13/1 223/2/1 224/1/1
f 225/7/1 226/8/1 227/9/1 228/10/1
f 229/11/1 230/12/1 231/8/1 232/7/1
f 233/13/1 234/11/1 235/7/1 236/2/1
f 237/14/1 238/13/1 239/2/1 240/1/1
f 241/7/1 242/8/1 243/9/1 244/10/1
f 245/11/1 246/12/1 247/8/1 248/7/1
f 249/13/1 250/11/1 251/7/1 252/2/1
f 253/14/1 254/13/1 255/2/1 256/1/1

