# Tiled2Unity generated file. Do not modify by hand.
# Wavefront file for 'dungeon1_mesh_0018.obj'

# Vertices (Count = 424)
v -15 -1 0
v -16 -1 0
v -16 0 0
v -15 0 0
v -14 -1 0
v -15 -1 0
v -15 0 0
v -14 0 0
v -13 -1 0
v -14 -1 0
v -14 0 0
v -13 0 0
v -12 -1 0
v -13 -1 0
v -13 0 0
v -12 0 0
v -11 -1 0
v -12 -1 0
v -12 0 0
v -11 0 0
v -10 -1 0
v -11 -1 0
v -11 0 0
v -10 0 0
v -15 -2 0
v -16 -2 0
v -16 -1 0
v -15 -1 0
v -14 -2 0
v -15 -2 0
v -15 -1 0
v -14 -1 0
v -13 -2 0
v -14 -2 0
v -14 -1 0
v -13 -1 0
v -12 -2 0
v -13 -2 0
v -13 -1 0
v -12 -1 0
v -11 -2 0
v -12 -2 0
v -12 -1 0
v -11 -1 0
v -10 -2 0
v -11 -2 0
v -11 -1 0
v -10 -1 0
v -15 -3 0
v -16 -3 0
v -16 -2 0
v -15 -2 0
v -14 -3 0
v -15 -3 0
v -15 -2 0
v -14 -2 0
v -13 -3 0
v -14 -3 0
v -14 -2 0
v -13 -2 0
v -12 -3 0
v -13 -3 0
v -13 -2 0
v -12 -2 0
v -11 -3 0
v -12 -3 0
v -12 -2 0
v -11 -2 0
v -10 -3 0
v -11 -3 0
v -11 -2 0
v -10 -2 0
v -15 -4 0
v -16 -4 0
v -16 -3 0
v -15 -3 0
v -14 -4 0
v -15 -4 0
v -15 -3 0
v -14 -3 0
v -13 -4 0
v -14 -4 0
v -14 -3 0
v -13 -3 0
v -12 -4 0
v -13 -4 0
v -13 -3 0
v -12 -3 0
v -11 -4 0
v -12 -4 0
v -12 -3 0
v -11 -3 0
v -10 -4 0
v -11 -4 0
v -11 -3 0
v -10 -3 0
v -15 -5 0
v -16 -5 0
v -16 -4 0
v -15 -4 0
v -14 -5 0
v -15 -5 0
v -15 -4 0
v -14 -4 0
v -13 -5 0
v -14 -5 0
v -14 -4 0
v -13 -4 0
v -12 -5 0
v -13 -5 0
v -13 -4 0
v -12 -4 0
v -11 -5 0
v -12 -5 0
v -12 -4 0
v -11 -4 0
v -10 -5 0
v -11 -5 0
v -11 -4 0
v -10 -4 0
v -15 -6 0
v -16 -6 0
v -16 -5 0
v -15 -5 0
v -14 -6 0
v -15 -6 0
v -15 -5 0
v -14 -5 0
v -13 -6 0
v -14 -6 0
v -14 -5 0
v -13 -5 0
v -12 -6 0
v -13 -6 0
v -13 -5 0
v -12 -5 0
v -11 -6 0
v -12 -6 0
v -12 -5 0
v -11 -5 0
v -10 -6 0
v -11 -6 0
v -11 -5 0
v -10 -5 0
v -15 -7 0
v -16 -7 0
v -16 -6 0
v -15 -6 0
v -14 -7 0
v -15 -7 0
v -15 -6 0
v -14 -6 0
v -13 -7 0
v -14 -7 0
v -14 -6 0
v -13 -6 0
v -12 -7 0
v -13 -7 0
v -13 -6 0
v -12 -6 0
v -11 -7 0
v -12 -7 0
v -12 -6 0
v -11 -6 0
v -10 -7 0
v -11 -7 0
v -11 -6 0
v -10 -6 0
v -15 -8 0
v -16 -8 0
v -16 -7 0
v -15 -7 0
v -14 -8 0
v -15 -8 0
v -15 -7 0
v -14 -7 0
v -13 -8 0
v -14 -8 0
v -14 -7 0
v -13 -7 0
v -12 -8 0
v -13 -8 0
v -13 -7 0
v -12 -7 0
v -11 -8 0
v -12 -8 0
v -12 -7 0
v -11 -7 0
v -10 -8 0
v -11 -8 0
v -11 -7 0
v -10 -7 0
v -15 -9 0
v -16 -9 0
v -16 -8 0
v -15 -8 0
v -14 -9 0
v -15 -9 0
v -15 -8 0
v -14 -8 0
v -13 -9 0
v -14 -9 0
v -14 -8 0
v -13 -8 0
v -12 -9 0
v -13 -9 0
v -13 -8 0
v -12 -8 0
v -11 -9 0
v -12 -9 0
v -12 -8 0
v -11 -8 0
v -10 -9 0
v -11 -9 0
v -11 -8 0
v -10 -8 0
v -15 -10 0
v -16 -10 0
v -16 -9 0
v -15 -9 0
v -14 -10 0
v -15 -10 0
v -15 -9 0
v -14 -9 0
v -13 -10 0
v -14 -10 0
v -14 -9 0
v -13 -9 0
v -12 -10 0
v -13 -10 0
v -13 -9 0
v -12 -9 0
v -11 -10 0
v -12 -10 0
v -12 -9 0
v -11 -9 0
v -10 -10 0
v -11 -10 0
v -11 -9 0
v -10 -9 0
v -15 -11 0
v -16 -11 0
v -16 -10 0
v -15 -10 0
v -14 -11 0
v -15 -11 0
v -15 -10 0
v -14 -10 0
v -13 -11 0
v -14 -11 0
v -14 -10 0
v -13 -10 0
v -12 -11 0
v -13 -11 0
v -13 -10 0
v -12 -10 0
v -11 -11 0
v -12 -11 0
v -12 -10 0
v -11 -10 0
v -10 -11 0
v -11 -11 0
v -11 -10 0
v -10 -10 0
v -15 -12 0
v -16 -12 0
v -16 -11 0
v -15 -11 0
v -14 -12 0
v -15 -12 0
v -15 -11 0
v -14 -11 0
v -13 -12 0
v -14 -12 0
v -14 -11 0
v -13 -11 0
v -12 -12 0
v -13 -12 0
v -13 -11 0
v -12 -11 0
v -11 -12 0
v -12 -12 0
v -12 -11 0
v -11 -11 0
v -10 -12 0
v -11 -12 0
v -11 -11 0
v -10 -11 0
v -15 -13 0
v -16 -13 0
v -16 -12 0
v -15 -12 0
v -14 -13 0
v -15 -13 0
v -15 -12 0
v -14 -12 0
v -13 -13 0
v -14 -13 0
v -14 -12 0
v -13 -12 0
v -12 -13 0
v -13 -13 0
v -13 -12 0
v -12 -12 0
v -11 -13 0
v -12 -13 0
v -12 -12 0
v -11 -12 0
v -10 -13 0
v -11 -13 0
v -11 -12 0
v -10 -12 0
v -15 -14 0
v -16 -14 0
v -16 -13 0
v -15 -13 0
v -14 -14 0
v -15 -14 0
v -15 -13 0
v -14 -13 0
v -13 -14 0
v -14 -14 0
v -14 -13 0
v -13 -13 0
v -12 -14 0
v -13 -14 0
v -13 -13 0
v -12 -13 0
v -11 -14 0
v -12 -14 0
v -12 -13 0
v -11 -13 0
v -10 -14 0
v -11 -14 0
v -11 -13 0
v -10 -13 0
v -15 -15 0
v -16 -15 0
v -16 -14 0
v -15 -14 0
v -14 -15 0
v -15 -15 0
v -15 -14 0
v -14 -14 0
v -13 -15 0
v -14 -15 0
v -14 -14 0
v -13 -14 0
v -12 -15 0
v -13 -15 0
v -13 -14 0
v -12 -14 0
v -11 -15 0
v -12 -15 0
v -12 -14 0
v -11 -14 0
v -10 -15 0
v -11 -15 0
v -11 -14 0
v -10 -14 0
v -15 -16 0
v -16 -16 0
v -16 -15 0
v -15 -15 0
v -14 -16 0
v -15 -16 0
v -15 -15 0
v -14 -15 0
v -13 -16 0
v -14 -16 0
v -14 -15 0
v -13 -15 0
v -12 -16 0
v -13 -16 0
v -13 -15 0
v -12 -15 0
v -11 -16 0
v -12 -16 0
v -12 -15 0
v -11 -15 0
v -10 -16 0
v -11 -16 0
v -11 -15 0
v -10 -15 0
v -9 -16 0
v -10 -16 0
v -10 -15 0
v -9 -15 0
v -8 -16 0
v -9 -16 0
v -9 -15 0
v -8 -15 0
v -7 -16 0
v -8 -16 0
v -8 -15 0
v -7 -15 0
v -6 -16 0
v -7 -16 0
v -7 -15 0
v -6 -15 0
v -5 -16 0
v -6 -16 0
v -6 -15 0
v -5 -15 0
v -4 -16 0
v -5 -16 0
v -5 -15 0
v -4 -15 0
v -3 -16 0
v -4 -16 0
v -4 -15 0
v -3 -15 0
v -2 -16 0
v -3 -16 0
v -3 -15 0
v -2 -15 0
v -1 -16 0
v -2 -16 0
v -2 -15 0
v -1 -15 0
v 0 -16 0
v -1 -16 0
v -1 -15 0
v 0 -15 0

# Texture cooridinates (Count = 23)
vt 0.3513514 0.9347826
vt 0.3783784 0.9347826
vt 0.3783784 0.9565217
vt 0.3513514 0.9565217
vt 0.3513514 0.9130435
vt 0.3783784 0.9130435
vt 0.3243243 0.9130435
vt 0.3243243 0.9347826
vt 0.3243243 0.9565217
vt 0.2702703 0.9347826
vt 0.2972973 0.9347826
vt 0.2972973 0.9565217
vt 0.2702703 0.9565217
vt 0.2432432 0.9347826
vt 0.2432432 0.9565217
vt 0.2432432 0.9130435
vt 0.2702703 0.9130435
vt 0.2432432 0.8913044
vt 0.2702703 0.8913044
vt 0.2162162 0.9347826
vt 0.2162162 0.9565217
vt 0.2972973 0.9130435
vt 0.2972973 0.8913044

# Normal
vn 0 0 -1

# Mesh description
g dungeon1_mesh_0018

# Faces
f 1/1/1 2/2/1 3/3/1 4/4/1
f 5/5/1 6/6/1 7/2/1 8/1/1
f 9/7/1 10/5/1 11/1/1 12/8/1
f 13/7/1 14/5/1 15/1/1 16/8/1
f 17/5/1 18/6/1 19/2/1 20/1/1
f 21/7/1 22/5/1 23/1/1 24/8/1
f 25/5/1 26/6/1 27/2/1 28/1/1
f 29/5/1 30/6/1 31/2/1 32/1/1
f 33/5/1 34/6/1 35/2/1 36/1/1
f 37/7/1 38/5/1 39/1/1 40/8/1
f 41/7/1 42/5/1 43/1/1 44/8/1
f 45/8/1 46/1/1 47/4/1 48/9/1
f 49/1/1 50/2/1 51/3/1 52/4/1
f 53/5/1 54/6/1 55/2/1 56/1/1
f 57/5/1 58/6/1 59/2/1 60/1/1
f 61/5/1 62/6/1 63/2/1 64/1/1
f 65/7/1 66/5/1 67/1/1 68/8/1
f 69/8/1 70/1/1 71/4/1 72/9/1
f 73/5/1 74/6/1 75/2/1 76/1/1
f 77/5/1 78/6/1 79/2/1 80/1/1
f 81/7/1 82/5/1 83/1/1 84/8/1
f 85/1/1 86/2/1 87/3/1 88/4/1
f 89/8/1 90/1/1 91/4/1 92/9/1
f 93/7/1 94/5/1 95/1/1 96/8/1
f 97/5/1 98/6/1 99/2/1 100/1/1
f 101/7/1 102/5/1 103/1/1 104/8/1
f 105/7/1 106/5/1 107/1/1 108/8/1
f 109/8/1 110/1/1 111/4/1 112/9/1
f 113/8/1 114/1/1 115/4/1 116/9/1
f 117/7/1 118/5/1 119/1/1 120/8/1
f 121/1/1 122/2/1 123/3/1 124/4/1
f 125/5/1 126/6/1 127/2/1 128/1/1
f 129/7/1 130/5/1 131/1/1 132/8/1
f 133/7/1 134/5/1 135/1/1 136/8/1
f 137/7/1 138/5/1 139/1/1 140/8/1
f 141/7/1 142/5/1 143/1/1 144/8/1
f 145/5/1 146/6/1 147/2/1 148/1/1
f 149/5/1 150/6/1 151/2/1 152/1/1
f 153/5/1 154/6/1 155/2/1 156/1/1
f 157/5/1 158/6/1 159/2/1 160/1/1
f 161/5/1 162/6/1 163/2/1 164/1/1
f 165/7/1 166/5/1 167/1/1 168/8/1
f 169/8/1 170/1/1 171/4/1 172/9/1
f 173/8/1 174/1/1 175/4/1 176/9/1
f 177/8/1 178/1/1 179/4/1 180/9/1
f 181/8/1 182/1/1 183/4/1 184/9/1
f 185/8/1 186/1/1 187/4/1 188/9/1
f 189/8/1 190/1/1 191/4/1 192/9/1
f 193/10/1 194/11/1 195/12/1 196/13/1
f 197/10/1 198/11/1 199/12/1 200/13/1
f 201/10/1 202/11/1 203/12/1 204/13/1
f 205/10/1 206/11/1 207/12/1 208/13/1
f 209/14/1 210/10/1 211/13/1 212/15/1
f 213/14/1 214/10/1 215/13/1 216/15/1
f 217/10/1 218/11/1 219/12/1 220/13/1
f 221/14/1 222/10/1 223/13/1 224/15/1
f 225/14/1 226/10/1 227/13/1 228/15/1
f 229/14/1 230/10/1 231/13/1 232/15/1
f 233/14/1 234/10/1 235/13/1 236/15/1
f 237/16/1 238/17/1 239/10/1 240/14/1
f 241/10/1 242/11/1 243/12/1 244/13/1
f 245/14/1 246/10/1 247/13/1 248/15/1
f 249/14/1 250/10/1 251/13/1 252/15/1
f 253/16/1 254/17/1 255/10/1 256/14/1
f 257/16/1 258/17/1 259/10/1 260/14/1
f 261/18/1 262/19/1 263/17/1 264/16/1
f 265/10/1 266/11/1 267/12/1 268/13/1
f 269/10/1 270/11/1 271/12/1 272/13/1
f 273/11/1 274/8/1 275/9/1 276/12/1
f 277/10/1 278/11/1 279/12/1 280/13/1
f 281/14/1 282/10/1 283/13/1 284/15/1
f 285/20/1 286/14/1 287/15/1 288/21/1
f 289/17/1 290/22/1 291/11/1 292/10/1
f 293/17/1 294/22/1 295/11/1 296/10/1
f 297/11/1 298/8/1 299/9/1 300/12/1
f 301/10/1 302/11/1 303/12/1 304/13/1
f 305/14/1 306/10/1 307/13/1 308/15/1
f 309/20/1 310/14/1 311/15/1 312/21/1
f 313/19/1 314/23/1 315/22/1 316/17/1
f 317/19/1 318/23/1 319/22/1 320/17/1
f 321/11/1 322/8/1 323/9/1 324/12/1
f 325/10/1 326/11/1 327/12/1 328/13/1
f 329/14/1 330/10/1 331/13/1 332/15/1
f 333/20/1 334/14/1 335/15/1 336/21/1
f 337/10/1 338/11/1 339/12/1 340/13/1
f 341/11/1 342/8/1 343/9/1 344/12/1
f 345/10/1 346/11/1 347/12/1 348/13/1
f 349/14/1 350/10/1 351/13/1 352/15/1
f 353/20/1 354/14/1 355/15/1 356/21/1
f 357/20/1 358/14/1 359/15/1 360/21/1
f 361/14/1 362/10/1 363/13/1 364/15/1
f 365/11/1 366/8/1 367/9/1 368/12/1
f 369/11/1 370/8/1 371/9/1 372/12/1
f 373/10/1 374/11/1 375/12/1 376/13/1
f 377/14/1 378/10/1 379/13/1 380/15/1
f 381/20/1 382/14/1 383/15/1 384/21/1
f 385/20/1 386/14/1 387/15/1 388/21/1
f 389/20/1 390/14/1 391/15/1 392/21/1
f 393/20/1 394/14/1 395/15/1 396/21/1
f 397/20/1 398/14/1 399/15/1 400/21/1
f 401/20/1 402/14/1 403/15/1 404/21/1
f 405/11/1 406/8/1 407/9/1 408/12/1
f 409/10/1 410/11/1 411/12/1 412/13/1
f 413/14/1 414/10/1 415/13/1 416/15/1
f 417/20/1 418/14/1 419/15/1 420/21/1
f 421/20/1 422/14/1 423/15/1 424/21/1

