# Tiled2Unity generated file. Do not modify by hand.
# Wavefront file for 'dungeon1_mesh_0022.obj'

# Vertices (Count = 324)
v -4 -4 0
v -5 -4 0
v -5 -3 0
v -4 -3 0
v -3 -4 0
v -4 -4 0
v -4 -3 0
v -3 -3 0
v -2 -4 0
v -3 -4 0
v -3 -3 0
v -2 -3 0
v -1 -4 0
v -2 -4 0
v -2 -3 0
v -1 -3 0
v 0 -4 0
v -1 -4 0
v -1 -3 0
v 0 -3 0
v -4 -5 0
v -5 -5 0
v -5 -4 0
v -4 -4 0
v -3 -5 0
v -4 -5 0
v -4 -4 0
v -3 -4 0
v -2 -5 0
v -3 -5 0
v -3 -4 0
v -2 -4 0
v -1 -5 0
v -2 -5 0
v -2 -4 0
v -1 -4 0
v 0 -5 0
v -1 -5 0
v -1 -4 0
v 0 -4 0
v -4 -6 0
v -5 -6 0
v -5 -5 0
v -4 -5 0
v -3 -6 0
v -4 -6 0
v -4 -5 0
v -3 -5 0
v -2 -6 0
v -3 -6 0
v -3 -5 0
v -2 -5 0
v -1 -6 0
v -2 -6 0
v -2 -5 0
v -1 -5 0
v 0 -6 0
v -1 -6 0
v -1 -5 0
v 0 -5 0
v -4 -7 0
v -5 -7 0
v -5 -6 0
v -4 -6 0
v -3 -7 0
v -4 -7 0
v -4 -6 0
v -3 -6 0
v -2 -7 0
v -3 -7 0
v -3 -6 0
v -2 -6 0
v -1 -7 0
v -2 -7 0
v -2 -6 0
v -1 -6 0
v 0 -7 0
v -1 -7 0
v -1 -6 0
v 0 -6 0
v -4 -8 0
v -5 -8 0
v -5 -7 0
v -4 -7 0
v -3 -8 0
v -4 -8 0
v -4 -7 0
v -3 -7 0
v -2 -8 0
v -3 -8 0
v -3 -7 0
v -2 -7 0
v -1 -8 0
v -2 -8 0
v -2 -7 0
v -1 -7 0
v 0 -8 0
v -1 -8 0
v -1 -7 0
v 0 -7 0
v -4 -9 0
v -5 -9 0
v -5 -8 0
v -4 -8 0
v -3 -9 0
v -4 -9 0
v -4 -8 0
v -3 -8 0
v -2 -9 0
v -3 -9 0
v -3 -8 0
v -2 -8 0
v -1 -9 0
v -2 -9 0
v -2 -8 0
v -1 -8 0
v 0 -9 0
v -1 -9 0
v -1 -8 0
v 0 -8 0
v -4 -10 0
v -5 -10 0
v -5 -9 0
v -4 -9 0
v -3 -10 0
v -4 -10 0
v -4 -9 0
v -3 -9 0
v -2 -10 0
v -3 -10 0
v -3 -9 0
v -2 -9 0
v -1 -10 0
v -2 -10 0
v -2 -9 0
v -1 -9 0
v 0 -10 0
v -1 -10 0
v -1 -9 0
v 0 -9 0
v -4 -11 0
v -5 -11 0
v -5 -10 0
v -4 -10 0
v -3 -11 0
v -4 -11 0
v -4 -10 0
v -3 -10 0
v -2 -11 0
v -3 -11 0
v -3 -10 0
v -2 -10 0
v -1 -11 0
v -2 -11 0
v -2 -10 0
v -1 -10 0
v 0 -11 0
v -1 -11 0
v -1 -10 0
v 0 -10 0
v -4 -12 0
v -5 -12 0
v -5 -11 0
v -4 -11 0
v -3 -12 0
v -4 -12 0
v -4 -11 0
v -3 -11 0
v -2 -12 0
v -3 -12 0
v -3 -11 0
v -2 -11 0
v -1 -12 0
v -2 -12 0
v -2 -11 0
v -1 -11 0
v 0 -12 0
v -1 -12 0
v -1 -11 0
v 0 -11 0
v -15 -13 0
v -16 -13 0
v -16 -12 0
v -15 -12 0
v -14 -13 0
v -15 -13 0
v -15 -12 0
v -14 -12 0
v -13 -13 0
v -14 -13 0
v -14 -12 0
v -13 -12 0
v -12 -13 0
v -13 -13 0
v -13 -12 0
v -12 -12 0
v -4 -13 0
v -5 -13 0
v -5 -12 0
v -4 -12 0
v -3 -13 0
v -4 -13 0
v -4 -12 0
v -3 -12 0
v -2 -13 0
v -3 -13 0
v -3 -12 0
v -2 -12 0
v -1 -13 0
v -2 -13 0
v -2 -12 0
v -1 -12 0
v 0 -13 0
v -1 -13 0
v -1 -12 0
v 0 -12 0
v -15 -14 0
v -16 -14 0
v -16 -13 0
v -15 -13 0
v -14 -14 0
v -15 -14 0
v -15 -13 0
v -14 -13 0
v -13 -14 0
v -14 -14 0
v -14 -13 0
v -13 -13 0
v -12 -14 0
v -13 -14 0
v -13 -13 0
v -12 -13 0
v -4 -14 0
v -5 -14 0
v -5 -13 0
v -4 -13 0
v -3 -14 0
v -4 -14 0
v -4 -13 0
v -3 -13 0
v -2 -14 0
v -3 -14 0
v -3 -13 0
v -2 -13 0
v -1 -14 0
v -2 -14 0
v -2 -13 0
v -1 -13 0
v 0 -14 0
v -1 -14 0
v -1 -13 0
v 0 -13 0
v -15 -15 0
v -16 -15 0
v -16 -14 0
v -15 -14 0
v -14 -15 0
v -15 -15 0
v -15 -14 0
v -14 -14 0
v -13 -15 0
v -14 -15 0
v -14 -14 0
v -13 -14 0
v -12 -15 0
v -13 -15 0
v -13 -14 0
v -12 -14 0
v -4 -15 0
v -5 -15 0
v -5 -14 0
v -4 -14 0
v -3 -15 0
v -4 -15 0
v -4 -14 0
v -3 -14 0
v -2 -15 0
v -3 -15 0
v -3 -14 0
v -2 -14 0
v -1 -15 0
v -2 -15 0
v -2 -14 0
v -1 -14 0
v 0 -15 0
v -1 -15 0
v -1 -14 0
v 0 -14 0
v -15 -16 0
v -16 -16 0
v -16 -15 0
v -15 -15 0
v -14 -16 0
v -15 -16 0
v -15 -15 0
v -14 -15 0
v -13 -16 0
v -14 -16 0
v -14 -15 0
v -13 -15 0
v -12 -16 0
v -13 -16 0
v -13 -15 0
v -12 -15 0
v -4 -16 0
v -5 -16 0
v -5 -15 0
v -4 -15 0
v -3 -16 0
v -4 -16 0
v -4 -15 0
v -3 -15 0
v -2 -16 0
v -3 -16 0
v -3 -15 0
v -2 -15 0
v -1 -16 0
v -2 -16 0
v -2 -15 0
v -1 -15 0
v 0 -16 0
v -1 -16 0
v -1 -15 0
v 0 -15 0

# Texture cooridinates (Count = 40)
vt 0.3243243 0.1956522
vt 0.3513514 0.1956522
vt 0.3513514 0.2173913
vt 0.3243243 0.2173913
vt 0.2972973 0.1956522
vt 0.2972973 0.2173913
vt 0.2702703 0.1956522
vt 0.2702703 0.2173913
vt 0.2432432 0.1956522
vt 0.2432432 0.2173913
vt 0.2162162 0.1956522
vt 0.2162162 0.2173913
vt 0.3243243 0.1739131
vt 0.3513514 0.1739131
vt 0.2972973 0.1739131
vt 0.2702703 0.1739131
vt 0.2432432 0.1739131
vt 0.2162162 0.1739131
vt 0.3243243 0.1521739
vt 0.3513514 0.1521739
vt 0.2972973 0.1521739
vt 0.2702703 0.1521739
vt 0.2432432 0.1521739
vt 0.2162162 0.1521739
vt 0.2972973 0.9347826
vt 0.2972973 0.9565217
vt 0.2702703 0.9565217
vt 0.2702703 0.9347826
vt 0.2972973 0.9130435
vt 0.2702703 0.9130435
vt 0.2432432 0.9347826
vt 0.2432432 0.9565217
vt 0.2162162 0.9565217
vt 0.2162162 0.9347826
vt 0.2432432 0.8913044
vt 0.2432432 0.9130435
vt 0.2162162 0.9130435
vt 0.2162162 0.8913044
vt 0.2972973 0.8913044
vt 0.2702703 0.8913044

# Normal
vn 0 0 -1

# Mesh description
g dungeon1_mesh_0022

# Faces
f 1/1/1 2/2/1 3/3/1 4/4/1
f 5/5/1 6/1/1 7/4/1 8/6/1
f 9/7/1 10/5/1 11/6/1 12/8/1
f 13/9/1 14/7/1 15/8/1 16/10/1
f 17/11/1 18/9/1 19/10/1 20/12/1
f 21/13/1 22/14/1 23/2/1 24/1/1
f 25/15/1 26/13/1 27/1/1 28/5/1
f 29/16/1 30/15/1 31/5/1 32/7/1
f 33/17/1 34/16/1 35/7/1 36/9/1
f 37/18/1 38/17/1 39/9/1 40/11/1
f 41/19/1 42/20/1 43/14/1 44/13/1
f 45/21/1 46/19/1 47/13/1 48/15/1
f 49/22/1 50/21/1 51/15/1 52/16/1
f 53/23/1 54/22/1 55/16/1 56/17/1
f 57/24/1 58/23/1 59/17/1 60/18/1
f 61/25/1 62/26/1 63/27/1 64/28/1
f 65/29/1 66/25/1 67/28/1 68/30/1
f 69/31/1 70/32/1 71/33/1 72/34/1
f 73/31/1 74/32/1 75/33/1 76/34/1
f 77/31/1 78/32/1 79/33/1 80/34/1
f 81/25/1 82/26/1 83/27/1 84/28/1
f 85/29/1 86/25/1 87/28/1 88/30/1
f 89/28/1 90/27/1 91/32/1 92/31/1
f 93/28/1 94/27/1 95/32/1 96/31/1
f 97/31/1 98/32/1 99/33/1 100/34/1
f 101/25/1 102/26/1 103/27/1 104/28/1
f 105/29/1 106/25/1 107/28/1 108/30/1
f 109/25/1 110/26/1 111/27/1 112/28/1
f 113/25/1 114/26/1 115/27/1 116/28/1
f 117/31/1 118/32/1 119/33/1 120/34/1
f 121/25/1 122/26/1 123/27/1 124/28/1
f 125/29/1 126/25/1 127/28/1 128/30/1
f 129/25/1 130/26/1 131/27/1 132/28/1
f 133/29/1 134/25/1 135/28/1 136/30/1
f 137/28/1 138/27/1 139/32/1 140/31/1
f 141/25/1 142/26/1 143/27/1 144/28/1
f 145/31/1 146/32/1 147/33/1 148/34/1
f 149/25/1 150/26/1 151/27/1 152/28/1
f 153/29/1 154/25/1 155/28/1 156/30/1
f 157/25/1 158/26/1 159/27/1 160/28/1
f 161/25/1 162/26/1 163/27/1 164/28/1
f 165/28/1 166/27/1 167/32/1 168/31/1
f 169/25/1 170/26/1 171/27/1 172/28/1
f 173/29/1 174/25/1 175/28/1 176/30/1
f 177/25/1 178/26/1 179/27/1 180/28/1
f 181/35/1 182/36/1 183/37/1 184/38/1
f 185/35/1 186/36/1 187/37/1 188/38/1
f 189/35/1 190/36/1 191/37/1 192/38/1
f 193/35/1 194/36/1 195/37/1 196/38/1
f 197/25/1 198/26/1 199/27/1 200/28/1
f 201/25/1 202/26/1 203/27/1 204/28/1
f 205/25/1 206/26/1 207/27/1 208/28/1
f 209/29/1 210/25/1 211/28/1 212/30/1
f 213/39/1 214/29/1 215/30/1 216/40/1
f 217/35/1 218/36/1 219/37/1 220/38/1
f 221/35/1 222/36/1 223/37/1 224/38/1
f 225/35/1 226/36/1 227/37/1 228/38/1
f 229/35/1 230/36/1 231/37/1 232/38/1
f 233/25/1 234/26/1 235/27/1 236/28/1
f 237/25/1 238/26/1 239/27/1 240/28/1
f 241/29/1 242/25/1 243/28/1 244/30/1
f 245/39/1 246/29/1 247/30/1 248/40/1
f 249/39/1 250/29/1 251/30/1 252/40/1
f 253/40/1 254/30/1 255/36/1 256/35/1
f 257/40/1 258/30/1 259/36/1 260/35/1
f 261/40/1 262/30/1 263/36/1 264/35/1
f 265/40/1 266/30/1 267/36/1 268/35/1
f 269/28/1 270/27/1 271/32/1 272/31/1
f 273/28/1 274/27/1 275/32/1 276/31/1
f 277/28/1 278/27/1 279/32/1 280/31/1
f 281/28/1 282/27/1 283/32/1 284/31/1
f 285/28/1 286/27/1 287/32/1 288/31/1
f 289/39/1 290/29/1 291/30/1 292/40/1
f 293/39/1 294/29/1 295/30/1 296/40/1
f 297/39/1 298/29/1 299/30/1 300/40/1
f 301/39/1 302/29/1 303/30/1 304/40/1
f 305/25/1 306/26/1 307/27/1 308/28/1
f 309/25/1 310/26/1 311/27/1 312/28/1
f 313/25/1 314/26/1 315/27/1 316/28/1
f 317/25/1 318/26/1 319/27/1 320/28/1
f 321/25/1 322/26/1 323/27/1 324/28/1

