# Tiled2Unity generated file. Do not modify by hand.
# Wavefront file for 'dungeon1_mesh_0053.obj'

# Vertices (Count = 560)
v -15 -1 0
v -16 -1 0
v -16 0 0
v -15 0 0
v -14 -1 0
v -15 -1 0
v -15 0 0
v -14 0 0
v -13 -1 0
v -14 -1 0
v -14 0 0
v -13 0 0
v -12 -1 0
v -13 -1 0
v -13 0 0
v -12 0 0
v -11 -1 0
v -12 -1 0
v -12 0 0
v -11 0 0
v -10 -1 0
v -11 -1 0
v -11 0 0
v -10 0 0
v -9 -1 0
v -10 -1 0
v -10 0 0
v -9 0 0
v -8 -1 0
v -9 -1 0
v -9 0 0
v -8 0 0
v -7 -1 0
v -8 -1 0
v -8 0 0
v -7 0 0
v -6 -1 0
v -7 -1 0
v -7 0 0
v -6 0 0
v -5 -1 0
v -6 -1 0
v -6 0 0
v -5 0 0
v -4 -1 0
v -5 -1 0
v -5 0 0
v -4 0 0
v -3 -1 0
v -4 -1 0
v -4 0 0
v -3 0 0
v -2 -1 0
v -3 -1 0
v -3 0 0
v -2 0 0
v -1 -1 0
v -2 -1 0
v -2 0 0
v -1 0 0
v -15 -2 0
v -16 -2 0
v -16 -1 0
v -15 -1 0
v -14 -2 0
v -15 -2 0
v -15 -1 0
v -14 -1 0
v -13 -2 0
v -14 -2 0
v -14 -1 0
v -13 -1 0
v -12 -2 0
v -13 -2 0
v -13 -1 0
v -12 -1 0
v -11 -2 0
v -12 -2 0
v -12 -1 0
v -11 -1 0
v -10 -2 0
v -11 -2 0
v -11 -1 0
v -10 -1 0
v -9 -2 0
v -10 -2 0
v -10 -1 0
v -9 -1 0
v -8 -2 0
v -9 -2 0
v -9 -1 0
v -8 -1 0
v -7 -2 0
v -8 -2 0
v -8 -1 0
v -7 -1 0
v -6 -2 0
v -7 -2 0
v -7 -1 0
v -6 -1 0
v -5 -2 0
v -6 -2 0
v -6 -1 0
v -5 -1 0
v -4 -2 0
v -5 -2 0
v -5 -1 0
v -4 -1 0
v -3 -2 0
v -4 -2 0
v -4 -1 0
v -3 -1 0
v -2 -2 0
v -3 -2 0
v -3 -1 0
v -2 -1 0
v -1 -2 0
v -2 -2 0
v -2 -1 0
v -1 -1 0
v -15 -3 0
v -16 -3 0
v -16 -2 0
v -15 -2 0
v -14 -3 0
v -15 -3 0
v -15 -2 0
v -14 -2 0
v -13 -3 0
v -14 -3 0
v -14 -2 0
v -13 -2 0
v -12 -3 0
v -13 -3 0
v -13 -2 0
v -12 -2 0
v -11 -3 0
v -12 -3 0
v -12 -2 0
v -11 -2 0
v -10 -3 0
v -11 -3 0
v -11 -2 0
v -10 -2 0
v -9 -3 0
v -10 -3 0
v -10 -2 0
v -9 -2 0
v -8 -3 0
v -9 -3 0
v -9 -2 0
v -8 -2 0
v -7 -3 0
v -8 -3 0
v -8 -2 0
v -7 -2 0
v -6 -3 0
v -7 -3 0
v -7 -2 0
v -6 -2 0
v -5 -3 0
v -6 -3 0
v -6 -2 0
v -5 -2 0
v -4 -3 0
v -5 -3 0
v -5 -2 0
v -4 -2 0
v -3 -3 0
v -4 -3 0
v -4 -2 0
v -3 -2 0
v -2 -3 0
v -3 -3 0
v -3 -2 0
v -2 -2 0
v -1 -3 0
v -2 -3 0
v -2 -2 0
v -1 -2 0
v -15 -4 0
v -16 -4 0
v -16 -3 0
v -15 -3 0
v -14 -4 0
v -15 -4 0
v -15 -3 0
v -14 -3 0
v -13 -4 0
v -14 -4 0
v -14 -3 0
v -13 -3 0
v -12 -4 0
v -13 -4 0
v -13 -3 0
v -12 -3 0
v -11 -4 0
v -12 -4 0
v -12 -3 0
v -11 -3 0
v -10 -4 0
v -11 -4 0
v -11 -3 0
v -10 -3 0
v -9 -4 0
v -10 -4 0
v -10 -3 0
v -9 -3 0
v -8 -4 0
v -9 -4 0
v -9 -3 0
v -8 -3 0
v -7 -4 0
v -8 -4 0
v -8 -3 0
v -7 -3 0
v -6 -4 0
v -7 -4 0
v -7 -3 0
v -6 -3 0
v -5 -4 0
v -6 -4 0
v -6 -3 0
v -5 -3 0
v -4 -4 0
v -5 -4 0
v -5 -3 0
v -4 -3 0
v -3 -4 0
v -4 -4 0
v -4 -3 0
v -3 -3 0
v -2 -4 0
v -3 -4 0
v -3 -3 0
v -2 -3 0
v -1 -4 0
v -2 -4 0
v -2 -3 0
v -1 -3 0
v -15 -5 0
v -16 -5 0
v -16 -4 0
v -15 -4 0
v -14 -5 0
v -15 -5 0
v -15 -4 0
v -14 -4 0
v -13 -5 0
v -14 -5 0
v -14 -4 0
v -13 -4 0
v -12 -5 0
v -13 -5 0
v -13 -4 0
v -12 -4 0
v -11 -5 0
v -12 -5 0
v -12 -4 0
v -11 -4 0
v -10 -5 0
v -11 -5 0
v -11 -4 0
v -10 -4 0
v -9 -5 0
v -10 -5 0
v -10 -4 0
v -9 -4 0
v -8 -5 0
v -9 -5 0
v -9 -4 0
v -8 -4 0
v -7 -5 0
v -8 -5 0
v -8 -4 0
v -7 -4 0
v -6 -5 0
v -7 -5 0
v -7 -4 0
v -6 -4 0
v -5 -5 0
v -6 -5 0
v -6 -4 0
v -5 -4 0
v -4 -5 0
v -5 -5 0
v -5 -4 0
v -4 -4 0
v -3 -5 0
v -4 -5 0
v -4 -4 0
v -3 -4 0
v -2 -5 0
v -3 -5 0
v -3 -4 0
v -2 -4 0
v -1 -5 0
v -2 -5 0
v -2 -4 0
v -1 -4 0
v -15 -6 0
v -16 -6 0
v -16 -5 0
v -15 -5 0
v -14 -6 0
v -15 -6 0
v -15 -5 0
v -14 -5 0
v -13 -6 0
v -14 -6 0
v -14 -5 0
v -13 -5 0
v -12 -6 0
v -13 -6 0
v -13 -5 0
v -12 -5 0
v -11 -6 0
v -12 -6 0
v -12 -5 0
v -11 -5 0
v -10 -6 0
v -11 -6 0
v -11 -5 0
v -10 -5 0
v -9 -6 0
v -10 -6 0
v -10 -5 0
v -9 -5 0
v -8 -6 0
v -9 -6 0
v -9 -5 0
v -8 -5 0
v -7 -6 0
v -8 -6 0
v -8 -5 0
v -7 -5 0
v -6 -6 0
v -7 -6 0
v -7 -5 0
v -6 -5 0
v -5 -6 0
v -6 -6 0
v -6 -5 0
v -5 -5 0
v -4 -6 0
v -5 -6 0
v -5 -5 0
v -4 -5 0
v -3 -6 0
v -4 -6 0
v -4 -5 0
v -3 -5 0
v -2 -6 0
v -3 -6 0
v -3 -5 0
v -2 -5 0
v -1 -6 0
v -2 -6 0
v -2 -5 0
v -1 -5 0
v -11 -7 0
v -12 -7 0
v -12 -6 0
v -11 -6 0
v -10 -7 0
v -11 -7 0
v -11 -6 0
v -10 -6 0
v -9 -7 0
v -10 -7 0
v -10 -6 0
v -9 -6 0
v -8 -7 0
v -9 -7 0
v -9 -6 0
v -8 -6 0
v -7 -7 0
v -8 -7 0
v -8 -6 0
v -7 -6 0
v -11 -8 0
v -12 -8 0
v -12 -7 0
v -11 -7 0
v -10 -8 0
v -11 -8 0
v -11 -7 0
v -10 -7 0
v -9 -8 0
v -10 -8 0
v -10 -7 0
v -9 -7 0
v -8 -8 0
v -9 -8 0
v -9 -7 0
v -8 -7 0
v -7 -8 0
v -8 -8 0
v -8 -7 0
v -7 -7 0
v -11 -9 0
v -12 -9 0
v -12 -8 0
v -11 -8 0
v -10 -9 0
v -11 -9 0
v -11 -8 0
v -10 -8 0
v -9 -9 0
v -10 -9 0
v -10 -8 0
v -9 -8 0
v -8 -9 0
v -9 -9 0
v -9 -8 0
v -8 -8 0
v -7 -9 0
v -8 -9 0
v -8 -8 0
v -7 -8 0
v -11 -10 0
v -12 -10 0
v -12 -9 0
v -11 -9 0
v -10 -10 0
v -11 -10 0
v -11 -9 0
v -10 -9 0
v -9 -10 0
v -10 -10 0
v -10 -9 0
v -9 -9 0
v -8 -10 0
v -9 -10 0
v -9 -9 0
v -8 -9 0
v -7 -10 0
v -8 -10 0
v -8 -9 0
v -7 -9 0
v -11 -11 0
v -12 -11 0
v -12 -10 0
v -11 -10 0
v -10 -11 0
v -11 -11 0
v -11 -10 0
v -10 -10 0
v -9 -11 0
v -10 -11 0
v -10 -10 0
v -9 -10 0
v -8 -11 0
v -9 -11 0
v -9 -10 0
v -8 -10 0
v -7 -11 0
v -8 -11 0
v -8 -10 0
v -7 -10 0
v -11 -12 0
v -12 -12 0
v -12 -11 0
v -11 -11 0
v -10 -12 0
v -11 -12 0
v -11 -11 0
v -10 -11 0
v -9 -12 0
v -10 -12 0
v -10 -11 0
v -9 -11 0
v -8 -12 0
v -9 -12 0
v -9 -11 0
v -8 -11 0
v -7 -12 0
v -8 -12 0
v -8 -11 0
v -7 -11 0
v -11 -13 0
v -12 -13 0
v -12 -12 0
v -11 -12 0
v -10 -13 0
v -11 -13 0
v -11 -12 0
v -10 -12 0
v -9 -13 0
v -10 -13 0
v -10 -12 0
v -9 -12 0
v -8 -13 0
v -9 -13 0
v -9 -12 0
v -8 -12 0
v -7 -13 0
v -8 -13 0
v -8 -12 0
v -7 -12 0
v -11 -14 0
v -12 -14 0
v -12 -13 0
v -11 -13 0
v -10 -14 0
v -11 -14 0
v -11 -13 0
v -10 -13 0
v -9 -14 0
v -10 -14 0
v -10 -13 0
v -9 -13 0
v -8 -14 0
v -9 -14 0
v -9 -13 0
v -8 -13 0
v -7 -14 0
v -8 -14 0
v -8 -13 0
v -7 -13 0
v -11 -15 0
v -12 -15 0
v -12 -14 0
v -11 -14 0
v -10 -15 0
v -11 -15 0
v -11 -14 0
v -10 -14 0
v -9 -15 0
v -10 -15 0
v -10 -14 0
v -9 -14 0
v -8 -15 0
v -9 -15 0
v -9 -14 0
v -8 -14 0
v -7 -15 0
v -8 -15 0
v -8 -14 0
v -7 -14 0
v -11 -16 0
v -12 -16 0
v -12 -15 0
v -11 -15 0
v -10 -16 0
v -11 -16 0
v -11 -15 0
v -10 -15 0
v -9 -16 0
v -10 -16 0
v -10 -15 0
v -9 -15 0
v -8 -16 0
v -9 -16 0
v -9 -15 0
v -8 -15 0
v -7 -16 0
v -8 -16 0
v -8 -15 0
v -7 -15 0

# Texture cooridinates (Count = 54)
vt 0.3783784 0.3695652
vt 0.4054054 0.3695652
vt 0.4054054 0.3913044
vt 0.3783784 0.3913044
vt 0.4054054 0.2826087
vt 0.4324324 0.2826087
vt 0.4324324 0.3043478
vt 0.4054054 0.3043478
vt 0.3783784 0.2826087
vt 0.3783784 0.3043478
vt 0.3513514 0.2826087
vt 0.3513514 0.3043478
vt 0.2162162 0.3478261
vt 0.2432432 0.3478261
vt 0.2432432 0.3695652
vt 0.2162162 0.3695652
vt 0.4054054 0.3478261
vt 0.4324324 0.3478261
vt 0.4324324 0.3695652
vt 0.3783784 0.3478261
vt 0.4054054 0.2608696
vt 0.4324324 0.2608696
vt 0.3513514 0.2608696
vt 0.3783784 0.2608696
vt 0.4324324 0.3913044
vt 0.3513514 0.2391304
vt 0.3783784 0.2391304
vt 0.4054054 0.2391304
vt 0.4324324 0.2391304
vt 0.2432432 0.3913044
vt 0.2702703 0.3913044
vt 0.2702703 0.4130435
vt 0.2432432 0.4130435
vt 0.2162162 0.3913044
vt 0.2162162 0.4130435
vt 0.4324324 0.3260869
vt 0.4054054 0.3260869
vt 0.3783784 0.3260869
vt 0.2702703 0.3695652
vt 0 0.5
vt 0.02702703 0.5
vt 0.02702703 0.5217391
vt 0 0.5217391
vt 0.1081081 0.3913044
vt 0.1351351 0.3913044
vt 0.1351351 0.4130435
vt 0.1081081 0.4130435
vt 0.08108108 0.3913044
vt 0.08108108 0.4130435
vt 0.05405406 0.5
vt 0.05405406 0.5217391
vt 0 0.4782609
vt 0.02702703 0.4782609
vt 0.05405406 0.4782609

# Normal
vn 0 0 -1

# Mesh description
g dungeon1_mesh_0053

# Faces
f 1/1/1 2/2/1 3/3/1 4/4/1
f 5/5/1 6/6/1 7/7/1 8/8/1
f 9/9/1 10/5/1 11/8/1 12/10/1
f 13/11/1 14/9/1 15/10/1 16/12/1
f 17/5/1 18/6/1 19/7/1 20/8/1
f 21/9/1 22/5/1 23/8/1 24/10/1
f 25/11/1 26/9/1 27/10/1 28/12/1
f 29/5/1 30/6/1 31/7/1 32/8/1
f 33/9/1 34/5/1 35/8/1 36/10/1
f 37/11/1 38/9/1 39/10/1 40/12/1
f 41/5/1 42/6/1 43/7/1 44/8/1
f 45/9/1 46/5/1 47/8/1 48/10/1
f 49/13/1 50/14/1 51/15/1 52/16/1
f 53/17/1 54/18/1 55/19/1 56/2/1
f 57/20/1 58/17/1 59/2/1 60/1/1
f 61/20/1 62/17/1 63/2/1 64/1/1
f 65/21/1 66/22/1 67/6/1 68/5/1
f 69/13/1 70/14/1 71/15/1 72/16/1
f 73/23/1 74/24/1 75/9/1 76/11/1
f 77/21/1 78/22/1 79/6/1 80/5/1
f 81/24/1 82/21/1 83/5/1 84/9/1
f 85/23/1 86/24/1 87/9/1 88/11/1
f 89/21/1 90/22/1 91/6/1 92/5/1
f 93/24/1 94/21/1 95/5/1 96/9/1
f 97/23/1 98/24/1 99/9/1 100/11/1
f 101/13/1 102/14/1 103/15/1 104/16/1
f 105/13/1 106/14/1 107/15/1 108/16/1
f 109/23/1 110/24/1 111/9/1 112/11/1
f 113/17/1 114/18/1 115/19/1 116/2/1
f 117/20/1 118/17/1 119/2/1 120/1/1
f 121/2/1 122/19/1 123/25/1 124/3/1
f 125/2/1 126/19/1 127/25/1 128/3/1
f 129/1/1 130/2/1 131/3/1 132/4/1
f 133/26/1 134/27/1 135/24/1 136/23/1
f 137/28/1 138/29/1 139/22/1 140/21/1
f 141/27/1 142/28/1 143/21/1 144/24/1
f 145/26/1 146/27/1 147/24/1 148/23/1
f 149/28/1 150/29/1 151/22/1 152/21/1
f 153/27/1 154/28/1 155/21/1 156/24/1
f 157/26/1 158/27/1 159/24/1 160/23/1
f 161/13/1 162/14/1 163/15/1 164/16/1
f 165/30/1 166/31/1 167/32/1 168/33/1
f 169/34/1 170/30/1 171/33/1 172/35/1
f 173/17/1 174/18/1 175/19/1 176/2/1
f 177/20/1 178/17/1 179/2/1 180/1/1
f 181/17/1 182/18/1 183/19/1 184/2/1
f 185/17/1 186/18/1 187/19/1 188/2/1
f 189/20/1 190/17/1 191/2/1 192/1/1
f 193/2/1 194/19/1 195/25/1 196/3/1
f 197/1/1 198/2/1 199/3/1 200/4/1
f 201/1/1 202/2/1 203/3/1 204/4/1
f 205/13/1 206/14/1 207/15/1 208/16/1
f 209/8/1 210/7/1 211/36/1 212/37/1
f 213/10/1 214/8/1 215/37/1 216/38/1
f 217/13/1 218/14/1 219/15/1 220/16/1
f 221/8/1 222/7/1 223/36/1 224/37/1
f 225/15/1 226/39/1 227/31/1 228/30/1
f 229/16/1 230/15/1 231/30/1 232/34/1
f 233/2/1 234/19/1 235/25/1 236/3/1
f 237/1/1 238/2/1 239/3/1 240/4/1
f 241/1/1 242/2/1 243/3/1 244/4/1
f 245/1/1 246/2/1 247/3/1 248/4/1
f 249/1/1 250/2/1 251/3/1 252/4/1
f 253/1/1 254/2/1 255/3/1 256/4/1
f 257/1/1 258/2/1 259/3/1 260/4/1
f 261/20/1 262/17/1 263/2/1 264/1/1
f 265/40/1 266/41/1 267/42/1 268/43/1
f 269/1/1 270/2/1 271/3/1 272/4/1
f 273/1/1 274/2/1 275/3/1 276/4/1
f 277/1/1 278/2/1 279/3/1 280/4/1
f 281/1/1 282/2/1 283/3/1 284/4/1
f 285/1/1 286/2/1 287/3/1 288/4/1
f 289/1/1 290/2/1 291/3/1 292/4/1
f 293/1/1 294/2/1 295/3/1 296/4/1
f 297/1/1 298/2/1 299/3/1 300/4/1
f 301/20/1 302/17/1 303/2/1 304/1/1
f 305/20/1 306/17/1 307/2/1 308/1/1
f 309/20/1 310/17/1 311/2/1 312/1/1
f 313/20/1 314/17/1 315/2/1 316/1/1
f 317/20/1 318/17/1 319/2/1 320/1/1
f 321/44/1 322/45/1 323/46/1 324/47/1
f 325/48/1 326/44/1 327/47/1 328/49/1
f 329/48/1 330/44/1 331/47/1 332/49/1
f 333/20/1 334/17/1 335/2/1 336/1/1
f 337/20/1 338/17/1 339/2/1 340/1/1
f 341/20/1 342/17/1 343/2/1 344/1/1
f 345/20/1 346/17/1 347/2/1 348/1/1
f 349/20/1 350/17/1 351/2/1 352/1/1
f 353/20/1 354/17/1 355/2/1 356/1/1
f 357/20/1 358/17/1 359/2/1 360/1/1
f 361/44/1 362/45/1 363/46/1 364/47/1
f 365/41/1 366/50/1 367/51/1 368/42/1
f 369/40/1 370/41/1 371/42/1 372/43/1
f 373/40/1 374/41/1 375/42/1 376/43/1
f 377/40/1 378/41/1 379/42/1 380/43/1
f 381/41/1 382/50/1 383/51/1 384/42/1
f 385/40/1 386/41/1 387/42/1 388/43/1
f 389/52/1 390/53/1 391/41/1 392/40/1
f 393/52/1 394/53/1 395/41/1 396/40/1
f 397/52/1 398/53/1 399/41/1 400/40/1
f 401/53/1 402/54/1 403/50/1 404/41/1
f 405/41/1 406/50/1 407/51/1 408/42/1
f 409/41/1 410/50/1 411/51/1 412/42/1
f 413/41/1 414/50/1 415/51/1 416/42/1
f 417/40/1 418/41/1 419/42/1 420/43/1
f 421/41/1 422/50/1 423/51/1 424/42/1
f 425/53/1 426/54/1 427/50/1 428/41/1
f 429/41/1 430/50/1 431/51/1 432/42/1
f 433/41/1 434/50/1 435/51/1 436/42/1
f 437/40/1 438/41/1 439/42/1 440/43/1
f 441/53/1 442/54/1 443/50/1 444/41/1
f 445/52/1 446/53/1 447/41/1 448/40/1
f 449/53/1 450/54/1 451/50/1 452/41/1
f 453/53/1 454/54/1 455/50/1 456/41/1
f 457/52/1 458/53/1 459/41/1 460/40/1
f 461/41/1 462/50/1 463/51/1 464/42/1
f 465/40/1 466/41/1 467/42/1 468/43/1
f 469/40/1 470/41/1 471/42/1 472/43/1
f 473/40/1 474/41/1 475/42/1 476/43/1
f 477/40/1 478/41/1 479/42/1 480/43/1
f 481/41/1 482/50/1 483/51/1 484/42/1
f 485/41/1 486/50/1 487/51/1 488/42/1
f 489/40/1 490/41/1 491/42/1 492/43/1
f 493/52/1 494/53/1 495/41/1 496/40/1
f 497/52/1 498/53/1 499/41/1 500/40/1
f 501/53/1 502/54/1 503/50/1 504/41/1
f 505/41/1 506/50/1 507/51/1 508/42/1
f 509/41/1 510/50/1 511/51/1 512/42/1
f 513/41/1 514/50/1 515/51/1 516/42/1
f 517/40/1 518/41/1 519/42/1 520/43/1
f 521/41/1 522/50/1 523/51/1 524/42/1
f 525/40/1 526/41/1 527/42/1 528/43/1
f 529/53/1 530/54/1 531/50/1 532/41/1
f 533/41/1 534/50/1 535/51/1 536/42/1
f 537/40/1 538/41/1 539/42/1 540/43/1
f 541/41/1 542/50/1 543/51/1 544/42/1
f 545/40/1 546/41/1 547/42/1 548/43/1
f 549/53/1 550/54/1 551/50/1 552/41/1
f 553/41/1 554/50/1 555/51/1 556/42/1
f 557/40/1 558/41/1 559/42/1 560/43/1

