# Tiled2Unity generated file. Do not modify by hand.
# Wavefront file for 'dungeon1_mesh_0076.obj'

# Vertices (Count = 192)
v -3 -1 0
v -4 -1 0
v -4 0 0
v -3 0 0
v -2 -1 0
v -3 -1 0
v -3 0 0
v -2 0 0
v -1 -1 0
v -2 -1 0
v -2 0 0
v -1 0 0
v 0 -1 0
v -1 -1 0
v -1 0 0
v 0 0 0
v -3 -2 0
v -4 -2 0
v -4 -1 0
v -3 -1 0
v -2 -2 0
v -3 -2 0
v -3 -1 0
v -2 -1 0
v -1 -2 0
v -2 -2 0
v -2 -1 0
v -1 -1 0
v 0 -2 0
v -1 -2 0
v -1 -1 0
v 0 -1 0
v -3 -3 0
v -4 -3 0
v -4 -2 0
v -3 -2 0
v -2 -3 0
v -3 -3 0
v -3 -2 0
v -2 -2 0
v -1 -3 0
v -2 -3 0
v -2 -2 0
v -1 -2 0
v 0 -3 0
v -1 -3 0
v -1 -2 0
v 0 -2 0
v -3 -4 0
v -4 -4 0
v -4 -3 0
v -3 -3 0
v -2 -4 0
v -3 -4 0
v -3 -3 0
v -2 -3 0
v -1 -4 0
v -2 -4 0
v -2 -3 0
v -1 -3 0
v 0 -4 0
v -1 -4 0
v -1 -3 0
v 0 -3 0
v -3 -5 0
v -4 -5 0
v -4 -4 0
v -3 -4 0
v -2 -5 0
v -3 -5 0
v -3 -4 0
v -2 -4 0
v -1 -5 0
v -2 -5 0
v -2 -4 0
v -1 -4 0
v 0 -5 0
v -1 -5 0
v -1 -4 0
v 0 -4 0
v -3 -6 0
v -4 -6 0
v -4 -5 0
v -3 -5 0
v -2 -6 0
v -3 -6 0
v -3 -5 0
v -2 -5 0
v -1 -6 0
v -2 -6 0
v -2 -5 0
v -1 -5 0
v 0 -6 0
v -1 -6 0
v -1 -5 0
v 0 -5 0
v -3 -7 0
v -4 -7 0
v -4 -6 0
v -3 -6 0
v -2 -7 0
v -3 -7 0
v -3 -6 0
v -2 -6 0
v -1 -7 0
v -2 -7 0
v -2 -6 0
v -1 -6 0
v 0 -7 0
v -1 -7 0
v -1 -6 0
v 0 -6 0
v -3 -8 0
v -4 -8 0
v -4 -7 0
v -3 -7 0
v -2 -8 0
v -3 -8 0
v -3 -7 0
v -2 -7 0
v -1 -8 0
v -2 -8 0
v -2 -7 0
v -1 -7 0
v 0 -8 0
v -1 -8 0
v -1 -7 0
v 0 -7 0
v -3 -9 0
v -4 -9 0
v -4 -8 0
v -3 -8 0
v -2 -9 0
v -3 -9 0
v -3 -8 0
v -2 -8 0
v -1 -9 0
v -2 -9 0
v -2 -8 0
v -1 -8 0
v 0 -9 0
v -1 -9 0
v -1 -8 0
v 0 -8 0
v -3 -10 0
v -4 -10 0
v -4 -9 0
v -3 -9 0
v -2 -10 0
v -3 -10 0
v -3 -9 0
v -2 -9 0
v -1 -10 0
v -2 -10 0
v -2 -9 0
v -1 -9 0
v 0 -10 0
v -1 -10 0
v -1 -9 0
v 0 -9 0
v -3 -11 0
v -4 -11 0
v -4 -10 0
v -3 -10 0
v -2 -11 0
v -3 -11 0
v -3 -10 0
v -2 -10 0
v -1 -11 0
v -2 -11 0
v -2 -10 0
v -1 -10 0
v 0 -11 0
v -1 -11 0
v -1 -10 0
v 0 -10 0
v -3 -12 0
v -4 -12 0
v -4 -11 0
v -3 -11 0
v -2 -12 0
v -3 -12 0
v -3 -11 0
v -2 -11 0
v -1 -12 0
v -2 -12 0
v -2 -11 0
v -1 -11 0
v 0 -12 0
v -1 -12 0
v -1 -11 0
v 0 -11 0

# Texture cooridinates (Count = 25)
vt 0.2972973 0.5
vt 0.3243243 0.5
vt 0.3243243 0.5217391
vt 0.2972973 0.5217391
vt 0.2702703 0.5
vt 0.2702703 0.5217391
vt 0.2432432 0.5
vt 0.2432432 0.5217391
vt 0.2162162 0.5
vt 0.2162162 0.5217391
vt 0.2972973 0.4782609
vt 0.3243243 0.4782609
vt 0.2702703 0.4782609
vt 0.2432432 0.4782609
vt 0.2162162 0.4782609
vt 0.2972973 0.4565217
vt 0.3243243 0.4565217
vt 0.2702703 0.4565217
vt 0.2432432 0.4565217
vt 0.2162162 0.4565217
vt 0.2972973 0.4347826
vt 0.3243243 0.4347826
vt 0.2702703 0.4347826
vt 0.2432432 0.4347826
vt 0.2162162 0.4347826

# Normal
vn 0 0 -1

# Mesh description
g dungeon1_mesh_0076

# Faces
f 1/1/1 2/2/1 3/3/1 4/4/1
f 5/5/1 6/1/1 7/4/1 8/6/1
f 9/7/1 10/5/1 11/6/1 12/8/1
f 13/9/1 14/7/1 15/8/1 16/10/1
f 17/11/1 18/12/1 19/2/1 20/1/1
f 21/13/1 22/11/1 23/1/1 24/5/1
f 25/14/1 26/13/1 27/5/1 28/7/1
f 29/15/1 30/14/1 31/7/1 32/9/1
f 33/16/1 34/17/1 35/12/1 36/11/1
f 37/18/1 38/16/1 39/11/1 40/13/1
f 41/19/1 42/18/1 43/13/1 44/14/1
f 45/20/1 46/19/1 47/14/1 48/15/1
f 49/21/1 50/22/1 51/17/1 52/16/1
f 53/23/1 54/21/1 55/16/1 56/18/1
f 57/24/1 58/23/1 59/18/1 60/19/1
f 61/25/1 62/24/1 63/19/1 64/20/1
f 65/1/1 66/2/1 67/3/1 68/4/1
f 69/5/1 70/1/1 71/4/1 72/6/1
f 73/7/1 74/5/1 75/6/1 76/8/1
f 77/9/1 78/7/1 79/8/1 80/10/1
f 81/11/1 82/12/1 83/2/1 84/1/1
f 85/13/1 86/11/1 87/1/1 88/5/1
f 89/14/1 90/13/1 91/5/1 92/7/1
f 93/15/1 94/14/1 95/7/1 96/9/1
f 97/16/1 98/17/1 99/12/1 100/11/1
f 101/18/1 102/16/1 103/11/1 104/13/1
f 105/19/1 106/18/1 107/13/1 108/14/1
f 109/20/1 110/19/1 111/14/1 112/15/1
f 113/21/1 114/22/1 115/17/1 116/16/1
f 117/23/1 118/21/1 119/16/1 120/18/1
f 121/24/1 122/23/1 123/18/1 124/19/1
f 125/25/1 126/24/1 127/19/1 128/20/1
f 129/1/1 130/2/1 131/3/1 132/4/1
f 133/5/1 134/1/1 135/4/1 136/6/1
f 137/7/1 138/5/1 139/6/1 140/8/1
f 141/9/1 142/7/1 143/8/1 144/10/1
f 145/11/1 146/12/1 147/2/1 148/1/1
f 149/13/1 150/11/1 151/1/1 152/5/1
f 153/14/1 154/13/1 155/5/1 156/7/1
f 157/15/1 158/14/1 159/7/1 160/9/1
f 161/16/1 162/17/1 163/12/1 164/11/1
f 165/18/1 166/16/1 167/11/1 168/13/1
f 169/19/1 170/18/1 171/13/1 172/14/1
f 173/20/1 174/19/1 175/14/1 176/15/1
f 177/21/1 178/22/1 179/17/1 180/16/1
f 181/23/1 182/21/1 183/16/1 184/18/1
f 185/24/1 186/23/1 187/18/1 188/19/1
f 189/25/1 190/24/1 191/19/1 192/20/1

