# Tiled2Unity generated file. Do not modify by hand.
# Wavefront file for 'dungeon1_mesh_0141.obj'

# Vertices (Count = 184)
v -4 -1 0
v -5 -1 0
v -5 0 0
v -4 0 0
v -3 -1 0
v -4 -1 0
v -4 0 0
v -3 0 0
v -2 -1 0
v -3 -1 0
v -3 0 0
v -2 0 0
v -1 -1 0
v -2 -1 0
v -2 0 0
v -1 0 0
v 0 -1 0
v -1 -1 0
v -1 0 0
v 0 0 0
v -4 -2 0
v -5 -2 0
v -5 -1 0
v -4 -1 0
v -3 -2 0
v -4 -2 0
v -4 -1 0
v -3 -1 0
v -2 -2 0
v -3 -2 0
v -3 -1 0
v -2 -1 0
v -1 -2 0
v -2 -2 0
v -2 -1 0
v -1 -1 0
v 0 -2 0
v -1 -2 0
v -1 -1 0
v 0 -1 0
v -4 -6 0
v -5 -6 0
v -5 -5 0
v -4 -5 0
v -3 -6 0
v -4 -6 0
v -4 -5 0
v -3 -5 0
v -2 -6 0
v -3 -6 0
v -3 -5 0
v -2 -5 0
v -1 -6 0
v -2 -6 0
v -2 -5 0
v -1 -5 0
v 0 -6 0
v -1 -6 0
v -1 -5 0
v 0 -5 0
v -4 -7 0
v -5 -7 0
v -5 -6 0
v -4 -6 0
v -3 -7 0
v -4 -7 0
v -4 -6 0
v -3 -6 0
v -2 -7 0
v -3 -7 0
v -3 -6 0
v -2 -6 0
v -4 -8 0
v -5 -8 0
v -5 -7 0
v -4 -7 0
v -3 -8 0
v -4 -8 0
v -4 -7 0
v -3 -7 0
v -2 -8 0
v -3 -8 0
v -3 -7 0
v -2 -7 0
v -4 -9 0
v -5 -9 0
v -5 -8 0
v -4 -8 0
v -3 -9 0
v -4 -9 0
v -4 -8 0
v -3 -8 0
v -2 -9 0
v -3 -9 0
v -3 -8 0
v -2 -8 0
v -4 -10 0
v -5 -10 0
v -5 -9 0
v -4 -9 0
v -3 -10 0
v -4 -10 0
v -4 -9 0
v -3 -9 0
v -2 -10 0
v -3 -10 0
v -3 -9 0
v -2 -9 0
v -4 -11 0
v -5 -11 0
v -5 -10 0
v -4 -10 0
v -3 -11 0
v -4 -11 0
v -4 -10 0
v -3 -10 0
v -2 -11 0
v -3 -11 0
v -3 -10 0
v -2 -10 0
v -4 -12 0
v -5 -12 0
v -5 -11 0
v -4 -11 0
v -3 -12 0
v -4 -12 0
v -4 -11 0
v -3 -11 0
v -2 -12 0
v -3 -12 0
v -3 -11 0
v -2 -11 0
v -15 -13 0
v -16 -13 0
v -16 -12 0
v -15 -12 0
v -14 -13 0
v -15 -13 0
v -15 -12 0
v -14 -12 0
v -13 -13 0
v -14 -13 0
v -14 -12 0
v -13 -12 0
v -12 -13 0
v -13 -13 0
v -13 -12 0
v -12 -12 0
v -11 -13 0
v -12 -13 0
v -12 -12 0
v -11 -12 0
v -10 -13 0
v -11 -13 0
v -11 -12 0
v -10 -12 0
v -9 -13 0
v -10 -13 0
v -10 -12 0
v -9 -12 0
v -8 -13 0
v -9 -13 0
v -9 -12 0
v -8 -12 0
v -7 -13 0
v -8 -13 0
v -8 -12 0
v -7 -12 0
v -6 -13 0
v -7 -13 0
v -7 -12 0
v -6 -12 0
v -5 -13 0
v -6 -13 0
v -6 -12 0
v -5 -12 0
v -4 -13 0
v -5 -13 0
v -5 -12 0
v -4 -12 0
v -3 -13 0
v -4 -13 0
v -4 -12 0
v -3 -12 0

# Texture cooridinates (Count = 49)
vt 0.4324324 0.7826087
vt 0.4594595 0.7826087
vt 0.4594595 0.8043478
vt 0.4324324 0.8043478
vt 0.3783784 0.7608696
vt 0.4054054 0.7608696
vt 0.4054054 0.7826087
vt 0.3783784 0.7826087
vt 0.3513514 0.7608696
vt 0.3513514 0.7826087
vt 0.3243243 0.7608696
vt 0.3243243 0.7826087
vt 0.4324324 0.7391304
vt 0.4594595 0.7391304
vt 0.4594595 0.7608696
vt 0.4324324 0.7608696
vt 0.3783784 0.7391304
vt 0.4054054 0.7391304
vt 0.3513514 0.7391304
vt 0.3243243 0.7391304
vt 0.4054054 0.9782609
vt 0.4324324 0.9782609
vt 0.4324324 1
vt 0.4054054 1
vt 0.3783784 0.9782609
vt 0.3783784 1
vt 0.4054054 0.9347826
vt 0.4324324 0.9347826
vt 0.4324324 0.9565217
vt 0.4054054 0.9565217
vt 0.3783784 0.9347826
vt 0.3783784 0.9565217
vt 0.4054054 0.9130435
vt 0.4324324 0.9130435
vt 0.3783784 0.9130435
vt 0.4054054 0.8913044
vt 0.4324324 0.8913044
vt 0.3783784 0.8913044
vt 0.4054054 0.8695652
vt 0.4324324 0.8695652
vt 0.3783784 0.8695652
vt 0.1891892 0.9782609
vt 0.2162162 0.9782609
vt 0.2162162 1
vt 0.1891892 1
vt 0.3243243 0.9782609
vt 0.3513514 0.9782609
vt 0.3513514 1
vt 0.3243243 1

# Normal
vn 0 0 -1

# Mesh description
g dungeon1_mesh_0141

# Faces
f 1/1/1 2/2/1 3/3/1 4/4/1
f 5/5/1 6/6/1 7/7/1 8/8/1
f 9/9/1 10/5/1 11/8/1 12/10/1
f 13/11/1 14/9/1 15/10/1 16/12/1
f 17/5/1 18/6/1 19/7/1 20/8/1
f 21/13/1 22/14/1 23/15/1 24/16/1
f 25/17/1 26/18/1 27/6/1 28/5/1
f 29/19/1 30/17/1 31/5/1 32/9/1
f 33/20/1 34/19/1 35/9/1 36/11/1
f 37/17/1 38/18/1 39/6/1 40/5/1
f 41/1/1 42/2/1 43/3/1 44/4/1
f 45/21/1 46/22/1 47/23/1 48/24/1
f 49/25/1 50/21/1 51/24/1 52/26/1
f 53/25/1 54/21/1 55/24/1 56/26/1
f 57/25/1 58/21/1 59/24/1 60/26/1
f 61/16/1 62/15/1 63/2/1 64/1/1
f 65/27/1 66/28/1 67/29/1 68/30/1
f 69/31/1 70/27/1 71/30/1 72/32/1
f 73/16/1 74/15/1 75/2/1 76/1/1
f 77/33/1 78/34/1 79/28/1 80/27/1
f 81/35/1 82/33/1 83/27/1 84/31/1
f 85/16/1 86/15/1 87/2/1 88/1/1
f 89/36/1 90/37/1 91/34/1 92/33/1
f 93/38/1 94/36/1 95/33/1 96/35/1
f 97/16/1 98/15/1 99/2/1 100/1/1
f 101/39/1 102/40/1 103/37/1 104/36/1
f 105/41/1 106/39/1 107/36/1 108/38/1
f 109/16/1 110/15/1 111/2/1 112/1/1
f 113/36/1 114/37/1 115/34/1 116/33/1
f 117/38/1 118/36/1 119/33/1 120/35/1
f 121/16/1 122/15/1 123/2/1 124/1/1
f 125/39/1 126/40/1 127/37/1 128/36/1
f 129/41/1 130/39/1 131/36/1 132/38/1
f 133/42/1 134/43/1 135/44/1 136/45/1
f 137/42/1 138/43/1 139/44/1 140/45/1
f 141/42/1 142/43/1 143/44/1 144/45/1
f 145/42/1 146/43/1 147/44/1 148/45/1
f 149/42/1 150/43/1 151/44/1 152/45/1
f 153/42/1 154/43/1 155/44/1 156/45/1
f 157/42/1 158/43/1 159/44/1 160/45/1
f 161/42/1 162/43/1 163/44/1 164/45/1
f 165/42/1 166/43/1 167/44/1 168/45/1
f 169/42/1 170/43/1 171/44/1 172/45/1
f 173/42/1 174/43/1 175/44/1 176/45/1
f 177/42/1 178/43/1 179/44/1 180/45/1
f 181/46/1 182/47/1 183/48/1 184/49/1

