# Tiled2Unity generated file. Do not modify by hand.
# Wavefront file for 'dungeon1_mesh_0026.obj'

# Vertices (Count = 464)
v -15 -1 0
v -16 -1 0
v -16 0 0
v -15 0 0
v -14 -1 0
v -15 -1 0
v -15 0 0
v -14 0 0
v -13 -1 0
v -14 -1 0
v -14 0 0
v -13 0 0
v -12 -1 0
v -13 -1 0
v -13 0 0
v -12 0 0
v -11 -1 0
v -12 -1 0
v -12 0 0
v -11 0 0
v -10 -1 0
v -11 -1 0
v -11 0 0
v -10 0 0
v -9 -1 0
v -10 -1 0
v -10 0 0
v -9 0 0
v -8 -1 0
v -9 -1 0
v -9 0 0
v -8 0 0
v -7 -1 0
v -8 -1 0
v -8 0 0
v -7 0 0
v -6 -1 0
v -7 -1 0
v -7 0 0
v -6 0 0
v -5 -1 0
v -6 -1 0
v -6 0 0
v -5 0 0
v -4 -1 0
v -5 -1 0
v -5 0 0
v -4 0 0
v -3 -1 0
v -4 -1 0
v -4 0 0
v -3 0 0
v -2 -1 0
v -3 -1 0
v -3 0 0
v -2 0 0
v -1 -1 0
v -2 -1 0
v -2 0 0
v -1 0 0
v 0 -1 0
v -1 -1 0
v -1 0 0
v 0 0 0
v -15 -2 0
v -16 -2 0
v -16 -1 0
v -15 -1 0
v -14 -2 0
v -15 -2 0
v -15 -1 0
v -14 -1 0
v -13 -2 0
v -14 -2 0
v -14 -1 0
v -13 -1 0
v -12 -2 0
v -13 -2 0
v -13 -1 0
v -12 -1 0
v -11 -2 0
v -12 -2 0
v -12 -1 0
v -11 -1 0
v -10 -2 0
v -11 -2 0
v -11 -1 0
v -10 -1 0
v -9 -2 0
v -10 -2 0
v -10 -1 0
v -9 -1 0
v -8 -2 0
v -9 -2 0
v -9 -1 0
v -8 -1 0
v -7 -2 0
v -8 -2 0
v -8 -1 0
v -7 -1 0
v -6 -2 0
v -7 -2 0
v -7 -1 0
v -6 -1 0
v -5 -2 0
v -6 -2 0
v -6 -1 0
v -5 -1 0
v -4 -2 0
v -5 -2 0
v -5 -1 0
v -4 -1 0
v -3 -2 0
v -4 -2 0
v -4 -1 0
v -3 -1 0
v -2 -2 0
v -3 -2 0
v -3 -1 0
v -2 -1 0
v -1 -2 0
v -2 -2 0
v -2 -1 0
v -1 -1 0
v 0 -2 0
v -1 -2 0
v -1 -1 0
v 0 -1 0
v -15 -3 0
v -16 -3 0
v -16 -2 0
v -15 -2 0
v -14 -3 0
v -15 -3 0
v -15 -2 0
v -14 -2 0
v -13 -3 0
v -14 -3 0
v -14 -2 0
v -13 -2 0
v -12 -3 0
v -13 -3 0
v -13 -2 0
v -12 -2 0
v -11 -3 0
v -12 -3 0
v -12 -2 0
v -11 -2 0
v -10 -3 0
v -11 -3 0
v -11 -2 0
v -10 -2 0
v -9 -3 0
v -10 -3 0
v -10 -2 0
v -9 -2 0
v -8 -3 0
v -9 -3 0
v -9 -2 0
v -8 -2 0
v -7 -3 0
v -8 -3 0
v -8 -2 0
v -7 -2 0
v -6 -3 0
v -7 -3 0
v -7 -2 0
v -6 -2 0
v -5 -3 0
v -6 -3 0
v -6 -2 0
v -5 -2 0
v -4 -3 0
v -5 -3 0
v -5 -2 0
v -4 -2 0
v -3 -3 0
v -4 -3 0
v -4 -2 0
v -3 -2 0
v -2 -3 0
v -3 -3 0
v -3 -2 0
v -2 -2 0
v -1 -3 0
v -2 -3 0
v -2 -2 0
v -1 -2 0
v 0 -3 0
v -1 -3 0
v -1 -2 0
v 0 -2 0
v -15 -4 0
v -16 -4 0
v -16 -3 0
v -15 -3 0
v -14 -4 0
v -15 -4 0
v -15 -3 0
v -14 -3 0
v -13 -4 0
v -14 -4 0
v -14 -3 0
v -13 -3 0
v -12 -4 0
v -13 -4 0
v -13 -3 0
v -12 -3 0
v -11 -4 0
v -12 -4 0
v -12 -3 0
v -11 -3 0
v -10 -4 0
v -11 -4 0
v -11 -3 0
v -10 -3 0
v -9 -4 0
v -10 -4 0
v -10 -3 0
v -9 -3 0
v -8 -4 0
v -9 -4 0
v -9 -3 0
v -8 -3 0
v -7 -4 0
v -8 -4 0
v -8 -3 0
v -7 -3 0
v -6 -4 0
v -7 -4 0
v -7 -3 0
v -6 -3 0
v -5 -4 0
v -6 -4 0
v -6 -3 0
v -5 -3 0
v -4 -4 0
v -5 -4 0
v -5 -3 0
v -4 -3 0
v -3 -4 0
v -4 -4 0
v -4 -3 0
v -3 -3 0
v -2 -4 0
v -3 -4 0
v -3 -3 0
v -2 -3 0
v -1 -4 0
v -2 -4 0
v -2 -3 0
v -1 -3 0
v 0 -4 0
v -1 -4 0
v -1 -3 0
v 0 -3 0
v -15 -5 0
v -16 -5 0
v -16 -4 0
v -15 -4 0
v -14 -5 0
v -15 -5 0
v -15 -4 0
v -14 -4 0
v -13 -5 0
v -14 -5 0
v -14 -4 0
v -13 -4 0
v -12 -5 0
v -13 -5 0
v -13 -4 0
v -12 -4 0
v -11 -5 0
v -12 -5 0
v -12 -4 0
v -11 -4 0
v -10 -5 0
v -11 -5 0
v -11 -4 0
v -10 -4 0
v -9 -5 0
v -10 -5 0
v -10 -4 0
v -9 -4 0
v -8 -5 0
v -9 -5 0
v -9 -4 0
v -8 -4 0
v -7 -5 0
v -8 -5 0
v -8 -4 0
v -7 -4 0
v -6 -5 0
v -7 -5 0
v -7 -4 0
v -6 -4 0
v -5 -5 0
v -6 -5 0
v -6 -4 0
v -5 -4 0
v -4 -5 0
v -5 -5 0
v -5 -4 0
v -4 -4 0
v -3 -5 0
v -4 -5 0
v -4 -4 0
v -3 -4 0
v -2 -5 0
v -3 -5 0
v -3 -4 0
v -2 -4 0
v -1 -5 0
v -2 -5 0
v -2 -4 0
v -1 -4 0
v 0 -5 0
v -1 -5 0
v -1 -4 0
v 0 -4 0
v -15 -6 0
v -16 -6 0
v -16 -5 0
v -15 -5 0
v -14 -6 0
v -15 -6 0
v -15 -5 0
v -14 -5 0
v -8 -6 0
v -9 -6 0
v -9 -5 0
v -8 -5 0
v -7 -6 0
v -8 -6 0
v -8 -5 0
v -7 -5 0
v -6 -6 0
v -7 -6 0
v -7 -5 0
v -6 -5 0
v -5 -6 0
v -6 -6 0
v -6 -5 0
v -5 -5 0
v -4 -6 0
v -5 -6 0
v -5 -5 0
v -4 -5 0
v -3 -6 0
v -4 -6 0
v -4 -5 0
v -3 -5 0
v -2 -6 0
v -3 -6 0
v -3 -5 0
v -2 -5 0
v -1 -6 0
v -2 -6 0
v -2 -5 0
v -1 -5 0
v 0 -6 0
v -1 -6 0
v -1 -5 0
v 0 -5 0
v -15 -7 0
v -16 -7 0
v -16 -6 0
v -15 -6 0
v -14 -7 0
v -15 -7 0
v -15 -6 0
v -14 -6 0
v -5 -7 0
v -6 -7 0
v -6 -6 0
v -5 -6 0
v -4 -7 0
v -5 -7 0
v -5 -6 0
v -4 -6 0
v -3 -7 0
v -4 -7 0
v -4 -6 0
v -3 -6 0
v -2 -7 0
v -3 -7 0
v -3 -6 0
v -2 -6 0
v -1 -7 0
v -2 -7 0
v -2 -6 0
v -1 -6 0
v 0 -7 0
v -1 -7 0
v -1 -6 0
v 0 -6 0
v -15 -8 0
v -16 -8 0
v -16 -7 0
v -15 -7 0
v -14 -8 0
v -15 -8 0
v -15 -7 0
v -14 -7 0
v -2 -8 0
v -3 -8 0
v -3 -7 0
v -2 -7 0
v -1 -8 0
v -2 -8 0
v -2 -7 0
v -1 -7 0
v 0 -8 0
v -1 -8 0
v -1 -7 0
v 0 -7 0
v -2 -9 0
v -3 -9 0
v -3 -8 0
v -2 -8 0
v -1 -9 0
v -2 -9 0
v -2 -8 0
v -1 -8 0
v 0 -9 0
v -1 -9 0
v -1 -8 0
v 0 -8 0
v -2 -10 0
v -3 -10 0
v -3 -9 0
v -2 -9 0
v -1 -10 0
v -2 -10 0
v -2 -9 0
v -1 -9 0
v 0 -10 0
v -1 -10 0
v -1 -9 0
v 0 -9 0
v -2 -11 0
v -3 -11 0
v -3 -10 0
v -2 -10 0
v -1 -11 0
v -2 -11 0
v -2 -10 0
v -1 -10 0
v 0 -11 0
v -1 -11 0
v -1 -10 0
v 0 -10 0
v -2 -12 0
v -3 -12 0
v -3 -11 0
v -2 -11 0
v -1 -12 0
v -2 -12 0
v -2 -11 0
v -1 -11 0
v 0 -12 0
v -1 -12 0
v -1 -11 0
v 0 -11 0

# Texture cooridinates (Count = 25)
vt 0.2432432 0.9347826
vt 0.2702703 0.9347826
vt 0.2702703 0.9565217
vt 0.2432432 0.9565217
vt 0.2972973 0.9130435
vt 0.3243243 0.9130435
vt 0.3243243 0.9347826
vt 0.2972973 0.9347826
vt 0.3243243 0.9565217
vt 0.2972973 0.9565217
vt 0.2162162 0.9347826
vt 0.2162162 0.9565217
vt 0.2162162 0.9130435
vt 0.2432432 0.9130435
vt 0.2702703 0.9130435
vt 0.2972973 0.8913044
vt 0.3243243 0.8913044
vt 0.2702703 0.8913044
vt 0.2432432 0.8913044
vt 0.2162162 0.8913044
vt 0.2972973 0.8695652
vt 0.3243243 0.8695652
vt 0.2702703 0.8695652
vt 0.2432432 0.8695652
vt 0.2162162 0.8695652

# Normal
vn 0 0 -1

# Mesh description
g dungeon1_mesh_0026

# Faces
f 1/1/1 2/2/1 3/3/1 4/4/1
f 5/5/1 6/6/1 7/7/1 8/8/1
f 9/8/1 10/7/1 11/9/1 12/10/1
f 13/2/1 14/8/1 15/10/1 16/3/1
f 17/1/1 18/2/1 19/3/1 20/4/1
f 21/11/1 22/1/1 23/4/1 24/12/1
f 25/13/1 26/14/1 27/1/1 28/11/1
f 29/13/1 30/14/1 31/1/1 32/11/1
f 33/13/1 34/14/1 35/1/1 36/11/1
f 37/13/1 38/14/1 39/1/1 40/11/1
f 41/13/1 42/14/1 43/1/1 44/11/1
f 45/5/1 46/6/1 47/7/1 48/8/1
f 49/15/1 50/5/1 51/8/1 52/2/1
f 53/14/1 54/15/1 55/2/1 56/1/1
f 57/13/1 58/14/1 59/1/1 60/11/1
f 61/13/1 62/14/1 63/1/1 64/11/1
f 65/1/1 66/2/1 67/3/1 68/4/1
f 69/16/1 70/17/1 71/6/1 72/5/1
f 73/8/1 74/7/1 75/9/1 76/10/1
f 77/8/1 78/7/1 79/9/1 80/10/1
f 81/8/1 82/7/1 83/9/1 84/10/1
f 85/8/1 86/7/1 87/9/1 88/10/1
f 89/8/1 90/7/1 91/9/1 92/10/1
f 93/8/1 94/7/1 95/9/1 96/10/1
f 97/2/1 98/8/1 99/10/1 100/3/1
f 101/1/1 102/2/1 103/3/1 104/4/1
f 105/11/1 106/1/1 107/4/1 108/12/1
f 109/16/1 110/17/1 111/6/1 112/5/1
f 113/18/1 114/16/1 115/5/1 116/15/1
f 117/19/1 118/18/1 119/15/1 120/14/1
f 121/20/1 122/19/1 123/14/1 124/13/1
f 125/20/1 126/19/1 127/14/1 128/13/1
f 129/1/1 130/2/1 131/3/1 132/4/1
f 133/21/1 134/22/1 135/17/1 136/16/1
f 137/5/1 138/6/1 139/7/1 140/8/1
f 141/5/1 142/6/1 143/7/1 144/8/1
f 145/5/1 146/6/1 147/7/1 148/8/1
f 149/5/1 150/6/1 151/7/1 152/8/1
f 153/5/1 154/6/1 155/7/1 156/8/1
f 157/8/1 158/7/1 159/9/1 160/10/1
f 161/8/1 162/7/1 163/9/1 164/10/1
f 165/8/1 166/7/1 167/9/1 168/10/1
f 169/8/1 170/7/1 171/9/1 172/10/1
f 173/8/1 174/7/1 175/9/1 176/10/1
f 177/8/1 178/7/1 179/9/1 180/10/1
f 181/2/1 182/8/1 183/10/1 184/3/1
f 185/1/1 186/2/1 187/3/1 188/4/1
f 189/11/1 190/1/1 191/4/1 192/12/1
f 193/14/1 194/15/1 195/2/1 196/1/1
f 197/19/1 198/18/1 199/15/1 200/14/1
f 201/16/1 202/17/1 203/6/1 204/5/1
f 205/16/1 206/17/1 207/6/1 208/5/1
f 209/16/1 210/17/1 211/6/1 212/5/1
f 213/16/1 214/17/1 215/6/1 216/5/1
f 217/16/1 218/17/1 219/6/1 220/5/1
f 221/5/1 222/6/1 223/7/1 224/8/1
f 225/5/1 226/6/1 227/7/1 228/8/1
f 229/5/1 230/6/1 231/7/1 232/8/1
f 233/5/1 234/6/1 235/7/1 236/8/1
f 237/5/1 238/6/1 239/7/1 240/8/1
f 241/5/1 242/6/1 243/7/1 244/8/1
f 245/15/1 246/5/1 247/8/1 248/2/1
f 249/14/1 250/15/1 251/2/1 252/1/1
f 253/13/1 254/14/1 255/1/1 256/11/1
f 257/19/1 258/18/1 259/15/1 260/14/1
f 261/19/1 262/18/1 263/15/1 264/14/1
f 265/21/1 266/22/1 267/17/1 268/16/1
f 269/21/1 270/22/1 271/17/1 272/16/1
f 273/21/1 274/22/1 275/17/1 276/16/1
f 277/21/1 278/22/1 279/17/1 280/16/1
f 281/21/1 282/22/1 283/17/1 284/16/1
f 285/16/1 286/17/1 287/6/1 288/5/1
f 289/16/1 290/17/1 291/6/1 292/5/1
f 293/16/1 294/17/1 295/6/1 296/5/1
f 297/16/1 298/17/1 299/6/1 300/5/1
f 301/16/1 302/17/1 303/6/1 304/5/1
f 305/16/1 306/17/1 307/6/1 308/5/1
f 309/18/1 310/16/1 311/5/1 312/15/1
f 313/19/1 314/18/1 315/15/1 316/14/1
f 317/20/1 318/19/1 319/14/1 320/13/1
f 321/19/1 322/18/1 323/15/1 324/14/1
f 325/19/1 326/18/1 327/15/1 328/14/1
f 329/21/1 330/22/1 331/17/1 332/16/1
f 333/21/1 334/22/1 335/17/1 336/16/1
f 337/21/1 338/22/1 339/17/1 340/16/1
f 341/21/1 342/22/1 343/17/1 344/16/1
f 345/21/1 346/22/1 347/17/1 348/16/1
f 349/21/1 350/22/1 351/17/1 352/16/1
f 353/23/1 354/21/1 355/16/1 356/18/1
f 357/24/1 358/23/1 359/18/1 360/19/1
f 361/25/1 362/24/1 363/19/1 364/20/1
f 365/18/1 366/16/1 367/5/1 368/15/1
f 369/19/1 370/18/1 371/15/1 372/14/1
f 373/21/1 374/22/1 375/17/1 376/16/1
f 377/23/1 378/21/1 379/16/1 380/18/1
f 381/24/1 382/23/1 383/18/1 384/19/1
f 385/25/1 386/24/1 387/19/1 388/20/1
f 389/25/1 390/24/1 391/19/1 392/20/1
f 393/23/1 394/21/1 395/16/1 396/18/1
f 397/18/1 398/16/1 399/5/1 400/15/1
f 401/19/1 402/18/1 403/15/1 404/14/1
f 405/16/1 406/17/1 407/6/1 408/5/1
f 409/21/1 410/22/1 411/17/1 412/16/1
f 413/23/1 414/21/1 415/16/1 416/18/1
f 417/21/1 418/22/1 419/17/1 420/16/1
f 421/21/1 422/22/1 423/17/1 424/16/1
f 425/23/1 426/21/1 427/16/1 428/18/1
f 429/21/1 430/22/1 431/17/1 432/16/1
f 433/23/1 434/21/1 435/16/1 436/18/1
f 437/24/1 438/23/1 439/18/1 440/19/1
f 441/21/1 442/22/1 443/17/1 444/16/1
f 445/23/1 446/21/1 447/16/1 448/18/1
f 449/24/1 450/23/1 451/18/1 452/19/1
f 453/21/1 454/22/1 455/17/1 456/16/1
f 457/23/1 458/21/1 459/16/1 460/18/1
f 461/24/1 462/23/1 463/18/1 464/19/1

