# Tiled2Unity generated file. Do not modify by hand.
# Wavefront file for 'dungeon1_mesh_0065.obj'

# Vertices (Count = 432)
v -8 -5 0
v -9 -5 0
v -9 -4 0
v -8 -4 0
v -7 -5 0
v -8 -5 0
v -8 -4 0
v -7 -4 0
v -6 -5 0
v -7 -5 0
v -7 -4 0
v -6 -4 0
v -5 -5 0
v -6 -5 0
v -6 -4 0
v -5 -4 0
v -4 -5 0
v -5 -5 0
v -5 -4 0
v -4 -4 0
v -3 -5 0
v -4 -5 0
v -4 -4 0
v -3 -4 0
v -2 -5 0
v -3 -5 0
v -3 -4 0
v -2 -4 0
v -1 -5 0
v -2 -5 0
v -2 -4 0
v -1 -4 0
v 0 -5 0
v -1 -5 0
v -1 -4 0
v 0 -4 0
v -8 -6 0
v -9 -6 0
v -9 -5 0
v -8 -5 0
v -7 -6 0
v -8 -6 0
v -8 -5 0
v -7 -5 0
v -6 -6 0
v -7 -6 0
v -7 -5 0
v -6 -5 0
v -5 -6 0
v -6 -6 0
v -6 -5 0
v -5 -5 0
v -4 -6 0
v -5 -6 0
v -5 -5 0
v -4 -5 0
v -3 -6 0
v -4 -6 0
v -4 -5 0
v -3 -5 0
v -2 -6 0
v -3 -6 0
v -3 -5 0
v -2 -5 0
v -1 -6 0
v -2 -6 0
v -2 -5 0
v -1 -5 0
v 0 -6 0
v -1 -6 0
v -1 -5 0
v 0 -5 0
v -8 -7 0
v -9 -7 0
v -9 -6 0
v -8 -6 0
v -7 -7 0
v -8 -7 0
v -8 -6 0
v -7 -6 0
v -6 -7 0
v -7 -7 0
v -7 -6 0
v -6 -6 0
v -5 -7 0
v -6 -7 0
v -6 -6 0
v -5 -6 0
v -4 -7 0
v -5 -7 0
v -5 -6 0
v -4 -6 0
v -3 -7 0
v -4 -7 0
v -4 -6 0
v -3 -6 0
v -2 -7 0
v -3 -7 0
v -3 -6 0
v -2 -6 0
v -1 -7 0
v -2 -7 0
v -2 -6 0
v -1 -6 0
v 0 -7 0
v -1 -7 0
v -1 -6 0
v 0 -6 0
v -8 -8 0
v -9 -8 0
v -9 -7 0
v -8 -7 0
v -7 -8 0
v -8 -8 0
v -8 -7 0
v -7 -7 0
v -6 -8 0
v -7 -8 0
v -7 -7 0
v -6 -7 0
v -5 -8 0
v -6 -8 0
v -6 -7 0
v -5 -7 0
v -4 -8 0
v -5 -8 0
v -5 -7 0
v -4 -7 0
v -3 -8 0
v -4 -8 0
v -4 -7 0
v -3 -7 0
v -2 -8 0
v -3 -8 0
v -3 -7 0
v -2 -7 0
v -1 -8 0
v -2 -8 0
v -2 -7 0
v -1 -7 0
v 0 -8 0
v -1 -8 0
v -1 -7 0
v 0 -7 0
v -8 -9 0
v -9 -9 0
v -9 -8 0
v -8 -8 0
v -7 -9 0
v -8 -9 0
v -8 -8 0
v -7 -8 0
v -6 -9 0
v -7 -9 0
v -7 -8 0
v -6 -8 0
v -5 -9 0
v -6 -9 0
v -6 -8 0
v -5 -8 0
v -4 -9 0
v -5 -9 0
v -5 -8 0
v -4 -8 0
v -3 -9 0
v -4 -9 0
v -4 -8 0
v -3 -8 0
v -2 -9 0
v -3 -9 0
v -3 -8 0
v -2 -8 0
v -1 -9 0
v -2 -9 0
v -2 -8 0
v -1 -8 0
v 0 -9 0
v -1 -9 0
v -1 -8 0
v 0 -8 0
v -8 -10 0
v -9 -10 0
v -9 -9 0
v -8 -9 0
v -7 -10 0
v -8 -10 0
v -8 -9 0
v -7 -9 0
v -6 -10 0
v -7 -10 0
v -7 -9 0
v -6 -9 0
v -5 -10 0
v -6 -10 0
v -6 -9 0
v -5 -9 0
v -4 -10 0
v -5 -10 0
v -5 -9 0
v -4 -9 0
v -3 -10 0
v -4 -10 0
v -4 -9 0
v -3 -9 0
v -2 -10 0
v -3 -10 0
v -3 -9 0
v -2 -9 0
v -1 -10 0
v -2 -10 0
v -2 -9 0
v -1 -9 0
v 0 -10 0
v -1 -10 0
v -1 -9 0
v 0 -9 0
v -8 -11 0
v -9 -11 0
v -9 -10 0
v -8 -10 0
v -7 -11 0
v -8 -11 0
v -8 -10 0
v -7 -10 0
v -6 -11 0
v -7 -11 0
v -7 -10 0
v -6 -10 0
v -5 -11 0
v -6 -11 0
v -6 -10 0
v -5 -10 0
v -4 -11 0
v -5 -11 0
v -5 -10 0
v -4 -10 0
v -3 -11 0
v -4 -11 0
v -4 -10 0
v -3 -10 0
v -2 -11 0
v -3 -11 0
v -3 -10 0
v -2 -10 0
v -1 -11 0
v -2 -11 0
v -2 -10 0
v -1 -10 0
v 0 -11 0
v -1 -11 0
v -1 -10 0
v 0 -10 0
v -8 -12 0
v -9 -12 0
v -9 -11 0
v -8 -11 0
v -7 -12 0
v -8 -12 0
v -8 -11 0
v -7 -11 0
v -6 -12 0
v -7 -12 0
v -7 -11 0
v -6 -11 0
v -5 -12 0
v -6 -12 0
v -6 -11 0
v -5 -11 0
v -4 -12 0
v -5 -12 0
v -5 -11 0
v -4 -11 0
v -3 -12 0
v -4 -12 0
v -4 -11 0
v -3 -11 0
v -2 -12 0
v -3 -12 0
v -3 -11 0
v -2 -11 0
v -1 -12 0
v -2 -12 0
v -2 -11 0
v -1 -11 0
v 0 -12 0
v -1 -12 0
v -1 -11 0
v 0 -11 0
v -8 -13 0
v -9 -13 0
v -9 -12 0
v -8 -12 0
v -7 -13 0
v -8 -13 0
v -8 -12 0
v -7 -12 0
v -6 -13 0
v -7 -13 0
v -7 -12 0
v -6 -12 0
v -5 -13 0
v -6 -13 0
v -6 -12 0
v -5 -12 0
v -4 -13 0
v -5 -13 0
v -5 -12 0
v -4 -12 0
v -3 -13 0
v -4 -13 0
v -4 -12 0
v -3 -12 0
v -2 -13 0
v -3 -13 0
v -3 -12 0
v -2 -12 0
v -1 -13 0
v -2 -13 0
v -2 -12 0
v -1 -12 0
v 0 -13 0
v -1 -13 0
v -1 -12 0
v 0 -12 0
v -8 -14 0
v -9 -14 0
v -9 -13 0
v -8 -13 0
v -7 -14 0
v -8 -14 0
v -8 -13 0
v -7 -13 0
v -6 -14 0
v -7 -14 0
v -7 -13 0
v -6 -13 0
v -5 -14 0
v -6 -14 0
v -6 -13 0
v -5 -13 0
v -4 -14 0
v -5 -14 0
v -5 -13 0
v -4 -13 0
v -3 -14 0
v -4 -14 0
v -4 -13 0
v -3 -13 0
v -2 -14 0
v -3 -14 0
v -3 -13 0
v -2 -13 0
v -1 -14 0
v -2 -14 0
v -2 -13 0
v -1 -13 0
v 0 -14 0
v -1 -14 0
v -1 -13 0
v 0 -13 0
v -8 -15 0
v -9 -15 0
v -9 -14 0
v -8 -14 0
v -7 -15 0
v -8 -15 0
v -8 -14 0
v -7 -14 0
v -6 -15 0
v -7 -15 0
v -7 -14 0
v -6 -14 0
v -5 -15 0
v -6 -15 0
v -6 -14 0
v -5 -14 0
v -4 -15 0
v -5 -15 0
v -5 -14 0
v -4 -14 0
v -3 -15 0
v -4 -15 0
v -4 -14 0
v -3 -14 0
v -2 -15 0
v -3 -15 0
v -3 -14 0
v -2 -14 0
v -1 -15 0
v -2 -15 0
v -2 -14 0
v -1 -14 0
v 0 -15 0
v -1 -15 0
v -1 -14 0
v 0 -14 0
v -8 -16 0
v -9 -16 0
v -9 -15 0
v -8 -15 0
v -7 -16 0
v -8 -16 0
v -8 -15 0
v -7 -15 0
v -6 -16 0
v -7 -16 0
v -7 -15 0
v -6 -15 0
v -5 -16 0
v -6 -16 0
v -6 -15 0
v -5 -15 0
v -4 -16 0
v -5 -16 0
v -5 -15 0
v -4 -15 0
v -3 -16 0
v -4 -16 0
v -4 -15 0
v -3 -15 0
v -2 -16 0
v -3 -16 0
v -3 -15 0
v -2 -15 0
v -1 -16 0
v -2 -16 0
v -2 -15 0
v -1 -15 0
v 0 -16 0
v -1 -16 0
v -1 -15 0
v 0 -15 0

# Texture cooridinates (Count = 33)
vt 0.1891892 0.3478261
vt 0.2162162 0.3478261
vt 0.2162162 0.3695652
vt 0.1891892 0.3695652
vt 0.2162162 0.3913044
vt 0.1891892 0.3913044
vt 0.1621622 0.3695652
vt 0.1621622 0.3913044
vt 0.1351351 0.3695652
vt 0.1351351 0.3913044
vt 0.1891892 0.3260869
vt 0.2162162 0.3260869
vt 0 0.2391304
vt 0.02702703 0.2391304
vt 0.02702703 0.2608696
vt 0 0.2608696
vt 0.1891892 0.3043478
vt 0.2162162 0.3043478
vt 0.1621622 0.3478261
vt 0.2162162 0.4130435
vt 0.1891892 0.4130435
vt 0.1351351 0.3478261
vt 0.1621622 0.4130435
vt 0.1081081 0.3260869
vt 0.1351351 0.3260869
vt 0.1081081 0.3478261
vt 0.08108108 0.3260869
vt 0.08108108 0.3478261
vt 0.08108108 0.3043478
vt 0.1081081 0.3043478
vt 0.1081081 0.3695652
vt 0.08108108 0.3695652
vt 0.1621622 0.3260869

# Normal
vn 0 0 -1

# Mesh description
g dungeon1_mesh_0065

# Faces
f 1/1/1 2/2/1 3/3/1 4/4/1
f 5/4/1 6/3/1 7/5/1 8/6/1
f 9/7/1 10/4/1 11/6/1 12/8/1
f 13/4/1 14/3/1 15/5/1 16/6/1
f 17/7/1 18/4/1 19/6/1 20/8/1
f 21/4/1 22/3/1 23/5/1 24/6/1
f 25/7/1 26/4/1 27/6/1 28/8/1
f 29/9/1 30/7/1 31/8/1 32/10/1
f 33/4/1 34/3/1 35/5/1 36/6/1
f 37/11/1 38/12/1 39/2/1 40/1/1
f 41/7/1 42/4/1 43/6/1 44/8/1
f 45/4/1 46/3/1 47/5/1 48/6/1
f 49/7/1 50/4/1 51/6/1 52/8/1
f 53/13/1 54/14/1 55/15/1 56/16/1
f 57/7/1 58/4/1 59/6/1 60/8/1
f 61/4/1 62/3/1 63/5/1 64/6/1
f 65/7/1 66/4/1 67/6/1 68/8/1
f 69/4/1 70/3/1 71/5/1 72/6/1
f 73/17/1 74/18/1 75/12/1 76/11/1
f 77/19/1 78/1/1 79/4/1 80/7/1
f 81/6/1 82/5/1 83/20/1 84/21/1
f 85/19/1 86/1/1 87/4/1 88/7/1
f 89/1/1 90/2/1 91/3/1 92/4/1
f 93/6/1 94/5/1 95/20/1 96/21/1
f 97/1/1 98/2/1 99/3/1 100/4/1
f 101/19/1 102/1/1 103/4/1 104/7/1
f 105/7/1 106/4/1 107/6/1 108/8/1
f 109/17/1 110/18/1 111/12/1 112/11/1
f 113/7/1 114/4/1 115/6/1 116/8/1
f 117/4/1 118/3/1 119/5/1 120/6/1
f 121/7/1 122/4/1 123/6/1 124/8/1
f 125/4/1 126/3/1 127/5/1 128/6/1
f 129/7/1 130/4/1 131/6/1 132/8/1
f 133/4/1 134/3/1 135/5/1 136/6/1
f 137/7/1 138/4/1 139/6/1 140/8/1
f 141/22/1 142/19/1 143/7/1 144/9/1
f 145/17/1 146/18/1 147/12/1 148/11/1
f 149/19/1 150/1/1 151/4/1 152/7/1
f 153/1/1 154/2/1 155/3/1 156/4/1
f 157/19/1 158/1/1 159/4/1 160/7/1
f 161/1/1 162/2/1 163/3/1 164/4/1
f 165/8/1 166/6/1 167/21/1 168/23/1
f 169/7/1 170/4/1 171/6/1 172/8/1
f 173/22/1 174/19/1 175/7/1 176/9/1
f 177/24/1 178/25/1 179/22/1 180/26/1
f 181/17/1 182/18/1 183/12/1 184/11/1
f 185/13/1 186/14/1 187/15/1 188/16/1
f 189/4/1 190/3/1 191/5/1 192/6/1
f 193/7/1 194/4/1 195/6/1 196/8/1
f 197/6/1 198/5/1 199/20/1 200/21/1
f 201/22/1 202/19/1 203/7/1 204/9/1
f 205/24/1 206/25/1 207/22/1 208/26/1
f 209/27/1 210/24/1 211/26/1 212/28/1
f 213/27/1 214/24/1 215/26/1 216/28/1
f 217/17/1 218/18/1 219/12/1 220/11/1
f 221/19/1 222/1/1 223/4/1 224/7/1
f 225/1/1 226/2/1 227/3/1 228/4/1
f 229/19/1 230/1/1 231/4/1 232/7/1
f 233/7/1 234/4/1 235/6/1 236/8/1
f 237/24/1 238/25/1 239/22/1 240/26/1
f 241/27/1 242/24/1 243/26/1 244/28/1
f 245/29/1 246/30/1 247/24/1 248/27/1
f 249/27/1 250/24/1 251/26/1 252/28/1
f 253/17/1 254/18/1 255/12/1 256/11/1
f 257/7/1 258/4/1 259/6/1 260/8/1
f 261/4/1 262/3/1 263/5/1 264/6/1
f 265/7/1 266/4/1 267/6/1 268/8/1
f 269/22/1 270/19/1 271/7/1 272/9/1
f 273/24/1 274/25/1 275/22/1 276/26/1
f 277/27/1 278/24/1 279/26/1 280/28/1
f 281/27/1 282/24/1 283/26/1 284/28/1
f 285/26/1 286/22/1 287/9/1 288/31/1
f 289/17/1 290/18/1 291/12/1 292/11/1
f 293/19/1 294/1/1 295/4/1 296/7/1
f 297/7/1 298/4/1 299/6/1 300/8/1
f 301/22/1 302/19/1 303/7/1 304/9/1
f 305/24/1 306/25/1 307/22/1 308/26/1
f 309/27/1 310/24/1 311/26/1 312/28/1
f 313/27/1 314/24/1 315/26/1 316/28/1
f 317/26/1 318/22/1 319/9/1 320/31/1
f 321/28/1 322/26/1 323/31/1 324/32/1
f 325/17/1 326/18/1 327/12/1 328/11/1
f 329/7/1 330/4/1 331/6/1 332/8/1
f 333/22/1 334/19/1 335/7/1 336/9/1
f 337/24/1 338/25/1 339/22/1 340/26/1
f 341/27/1 342/24/1 343/26/1 344/28/1
f 345/27/1 346/24/1 347/26/1 348/28/1
f 349/29/1 350/30/1 351/24/1 352/27/1
f 353/26/1 354/22/1 355/9/1 356/31/1
f 357/28/1 358/26/1 359/31/1 360/32/1
f 361/17/1 362/18/1 363/12/1 364/11/1
f 365/33/1 366/11/1 367/1/1 368/19/1
f 369/26/1 370/22/1 371/9/1 372/31/1
f 373/28/1 374/26/1 375/31/1 376/32/1
f 377/27/1 378/24/1 379/26/1 380/28/1
f 381/29/1 382/30/1 383/24/1 384/27/1
f 385/26/1 386/22/1 387/9/1 388/31/1
f 389/28/1 390/26/1 391/31/1 392/32/1
f 393/27/1 394/24/1 395/26/1 396/28/1
f 397/17/1 398/18/1 399/12/1 400/11/1
f 401/33/1 402/11/1 403/1/1 404/19/1
f 405/26/1 406/22/1 407/9/1 408/31/1
f 409/28/1 410/26/1 411/31/1 412/32/1
f 413/28/1 414/26/1 415/31/1 416/32/1
f 417/28/1 418/26/1 419/31/1 420/32/1
f 421/26/1 422/22/1 423/9/1 424/31/1
f 425/28/1 426/26/1 427/31/1 428/32/1
f 429/29/1 430/30/1 431/24/1 432/27/1

