# Tiled2Unity generated file. Do not modify by hand.
# Wavefront file for 'dungeon1_mesh_0052.obj'

# Vertices (Count = 24)
v -1 -14 0
v -2 -14 0
v -2 -13 0
v -1 -13 0
v 0 -14 0
v -1 -14 0
v -1 -13 0
v 0 -13 0
v -1 -15 0
v -2 -15 0
v -2 -14 0
v -1 -14 0
v 0 -15 0
v -1 -15 0
v -1 -14 0
v 0 -14 0
v -1 -16 0
v -2 -16 0
v -2 -15 0
v -1 -15 0
v 0 -16 0
v -1 -16 0
v -1 -15 0
v 0 -15 0

# Texture cooridinates (Count = 10)
vt 0 0.1086956
vt 0.02702703 0.1086956
vt 0.02702703 0.1304348
vt 0 0.1304348
vt 0.08108108 0.0869565
vt 0.1081081 0.0869565
vt 0.1081081 0.1086956
vt 0.08108108 0.1086956
vt 0.08108108 0.06521738
vt 0.1081081 0.06521738

# Normal
vn 0 0 -1

# Mesh description
g dungeon1_mesh_0052

# Faces
f 1/1/1 2/2/1 3/3/1 4/4/1
f 5/1/1 6/2/1 7/3/1 8/4/1
f 9/1/1 10/2/1 11/3/1 12/4/1
f 13/5/1 14/6/1 15/7/1 16/8/1
f 17/1/1 18/2/1 19/3/1 20/4/1
f 21/9/1 22/10/1 23/6/1 24/5/1

