# Tiled2Unity generated file. Do not modify by hand.
# Wavefront file for 'dungeon1_mesh_0098.obj'

# Vertices (Count = 240)
v -5 -3 0
v -6 -3 0
v -6 -2 0
v -5 -2 0
v -4 -3 0
v -5 -3 0
v -5 -2 0
v -4 -2 0
v -3 -3 0
v -4 -3 0
v -4 -2 0
v -3 -2 0
v -2 -3 0
v -3 -3 0
v -3 -2 0
v -2 -2 0
v -1 -3 0
v -2 -3 0
v -2 -2 0
v -1 -2 0
v 0 -3 0
v -1 -3 0
v -1 -2 0
v 0 -2 0
v -5 -4 0
v -6 -4 0
v -6 -3 0
v -5 -3 0
v -4 -4 0
v -5 -4 0
v -5 -3 0
v -4 -3 0
v -3 -4 0
v -4 -4 0
v -4 -3 0
v -3 -3 0
v -2 -4 0
v -3 -4 0
v -3 -3 0
v -2 -3 0
v -1 -4 0
v -2 -4 0
v -2 -3 0
v -1 -3 0
v 0 -4 0
v -1 -4 0
v -1 -3 0
v 0 -3 0
v -5 -5 0
v -6 -5 0
v -6 -4 0
v -5 -4 0
v -4 -5 0
v -5 -5 0
v -5 -4 0
v -4 -4 0
v -3 -5 0
v -4 -5 0
v -4 -4 0
v -3 -4 0
v -2 -5 0
v -3 -5 0
v -3 -4 0
v -2 -4 0
v -1 -5 0
v -2 -5 0
v -2 -4 0
v -1 -4 0
v 0 -5 0
v -1 -5 0
v -1 -4 0
v 0 -4 0
v -5 -6 0
v -6 -6 0
v -6 -5 0
v -5 -5 0
v -4 -6 0
v -5 -6 0
v -5 -5 0
v -4 -5 0
v -3 -6 0
v -4 -6 0
v -4 -5 0
v -3 -5 0
v -2 -6 0
v -3 -6 0
v -3 -5 0
v -2 -5 0
v -1 -6 0
v -2 -6 0
v -2 -5 0
v -1 -5 0
v 0 -6 0
v -1 -6 0
v -1 -5 0
v 0 -5 0
v -5 -7 0
v -6 -7 0
v -6 -6 0
v -5 -6 0
v -4 -7 0
v -5 -7 0
v -5 -6 0
v -4 -6 0
v -3 -7 0
v -4 -7 0
v -4 -6 0
v -3 -6 0
v -2 -7 0
v -3 -7 0
v -3 -6 0
v -2 -6 0
v -1 -7 0
v -2 -7 0
v -2 -6 0
v -1 -6 0
v 0 -7 0
v -1 -7 0
v -1 -6 0
v 0 -6 0
v -15 -9 0
v -16 -9 0
v -16 -8 0
v -15 -8 0
v -14 -9 0
v -15 -9 0
v -15 -8 0
v -14 -8 0
v -13 -9 0
v -14 -9 0
v -14 -8 0
v -13 -8 0
v -12 -9 0
v -13 -9 0
v -13 -8 0
v -12 -8 0
v -11 -9 0
v -12 -9 0
v -12 -8 0
v -11 -8 0
v -10 -9 0
v -11 -9 0
v -11 -8 0
v -10 -8 0
v -15 -10 0
v -16 -10 0
v -16 -9 0
v -15 -9 0
v -14 -10 0
v -15 -10 0
v -15 -9 0
v -14 -9 0
v -13 -10 0
v -14 -10 0
v -14 -9 0
v -13 -9 0
v -12 -10 0
v -13 -10 0
v -13 -9 0
v -12 -9 0
v -11 -10 0
v -12 -10 0
v -12 -9 0
v -11 -9 0
v -10 -10 0
v -11 -10 0
v -11 -9 0
v -10 -9 0
v -15 -11 0
v -16 -11 0
v -16 -10 0
v -15 -10 0
v -14 -11 0
v -15 -11 0
v -15 -10 0
v -14 -10 0
v -13 -11 0
v -14 -11 0
v -14 -10 0
v -13 -10 0
v -12 -11 0
v -13 -11 0
v -13 -10 0
v -12 -10 0
v -11 -11 0
v -12 -11 0
v -12 -10 0
v -11 -10 0
v -10 -11 0
v -11 -11 0
v -11 -10 0
v -10 -10 0
v -15 -12 0
v -16 -12 0
v -16 -11 0
v -15 -11 0
v -14 -12 0
v -15 -12 0
v -15 -11 0
v -14 -11 0
v -13 -12 0
v -14 -12 0
v -14 -11 0
v -13 -11 0
v -12 -12 0
v -13 -12 0
v -13 -11 0
v -12 -11 0
v -11 -12 0
v -12 -12 0
v -12 -11 0
v -11 -11 0
v -10 -12 0
v -11 -12 0
v -11 -11 0
v -10 -11 0
v -15 -13 0
v -16 -13 0
v -16 -12 0
v -15 -12 0
v -14 -13 0
v -15 -13 0
v -15 -12 0
v -14 -12 0
v -13 -13 0
v -14 -13 0
v -14 -12 0
v -13 -12 0
v -12 -13 0
v -13 -13 0
v -13 -12 0
v -12 -12 0
v -11 -13 0
v -12 -13 0
v -12 -12 0
v -11 -12 0
v -10 -13 0
v -11 -13 0
v -11 -12 0
v -10 -12 0

# Texture cooridinates (Count = 60)
vt 0.6486486 0.5
vt 0.6756757 0.5
vt 0.6756757 0.5217391
vt 0.6486486 0.5217391
vt 0.6216216 0.5
vt 0.6216216 0.5217391
vt 0.5945946 0.5
vt 0.5945946 0.5217391
vt 0.5675676 0.5
vt 0.5675676 0.5217391
vt 0.5405405 0.5
vt 0.5405405 0.5217391
vt 0.5135135 0.5
vt 0.5135135 0.5217391
vt 0.6486486 0.4782609
vt 0.6756757 0.4782609
vt 0.6216216 0.4782609
vt 0.5945946 0.4782609
vt 0.5675676 0.4782609
vt 0.5405405 0.4782609
vt 0.5135135 0.4782609
vt 0.6486486 0.4565217
vt 0.6756757 0.4565217
vt 0.6216216 0.4565217
vt 0.5945946 0.4565217
vt 0.5675676 0.4565217
vt 0.5405405 0.4565217
vt 0.5135135 0.4565217
vt 0.6486486 0.4347826
vt 0.6756757 0.4347826
vt 0.6216216 0.4347826
vt 0.5945946 0.4347826
vt 0.5675676 0.4347826
vt 0.5405405 0.4347826
vt 0.5135135 0.4347826
vt 0.6486486 0.4130435
vt 0.6756757 0.4130435
vt 0.6216216 0.4130435
vt 0.5945946 0.4130435
vt 0.5675676 0.4130435
vt 0.5405405 0.4130435
vt 0.5135135 0.4130435
vt 0.4864865 0.5
vt 0.4864865 0.5217391
vt 0.4594595 0.5
vt 0.4594595 0.5217391
vt 0.4324324 0.5
vt 0.4324324 0.5217391
vt 0.4864865 0.4782609
vt 0.4594595 0.4782609
vt 0.4324324 0.4782609
vt 0.4864865 0.4565217
vt 0.4594595 0.4565217
vt 0.4324324 0.4565217
vt 0.4864865 0.4347826
vt 0.4594595 0.4347826
vt 0.4324324 0.4347826
vt 0.4864865 0.4130435
vt 0.4594595 0.4130435
vt 0.4324324 0.4130435

# Normal
vn 0 0 -1

# Mesh description
g dungeon1_mesh_0098

# Faces
f 1/1/1 2/2/1 3/3/1 4/4/1
f 5/5/1 6/1/1 7/4/1 8/6/1
f 9/7/1 10/5/1 11/6/1 12/8/1
f 13/9/1 14/7/1 15/8/1 16/10/1
f 17/11/1 18/9/1 19/10/1 20/12/1
f 21/13/1 22/11/1 23/12/1 24/14/1
f 25/15/1 26/16/1 27/2/1 28/1/1
f 29/17/1 30/15/1 31/1/1 32/5/1
f 33/18/1 34/17/1 35/5/1 36/7/1
f 37/19/1 38/18/1 39/7/1 40/9/1
f 41/20/1 42/19/1 43/9/1 44/11/1
f 45/21/1 46/20/1 47/11/1 48/13/1
f 49/22/1 50/23/1 51/16/1 52/15/1
f 53/24/1 54/22/1 55/15/1 56/17/1
f 57/25/1 58/24/1 59/17/1 60/18/1
f 61/26/1 62/25/1 63/18/1 64/19/1
f 65/27/1 66/26/1 67/19/1 68/20/1
f 69/28/1 70/27/1 71/20/1 72/21/1
f 73/29/1 74/30/1 75/23/1 76/22/1
f 77/31/1 78/29/1 79/22/1 80/24/1
f 81/32/1 82/31/1 83/24/1 84/25/1
f 85/33/1 86/32/1 87/25/1 88/26/1
f 89/34/1 90/33/1 91/26/1 92/27/1
f 93/35/1 94/34/1 95/27/1 96/28/1
f 97/36/1 98/37/1 99/30/1 100/29/1
f 101/38/1 102/36/1 103/29/1 104/31/1
f 105/39/1 106/38/1 107/31/1 108/32/1
f 109/40/1 110/39/1 111/32/1 112/33/1
f 113/41/1 114/40/1 115/33/1 116/34/1
f 117/42/1 118/41/1 119/34/1 120/35/1
f 121/9/1 122/7/1 123/8/1 124/10/1
f 125/11/1 126/9/1 127/10/1 128/12/1
f 129/13/1 130/11/1 131/12/1 132/14/1
f 133/43/1 134/13/1 135/14/1 136/44/1
f 137/45/1 138/43/1 139/44/1 140/46/1
f 141/47/1 142/45/1 143/46/1 144/48/1
f 145/19/1 146/18/1 147/7/1 148/9/1
f 149/20/1 150/19/1 151/9/1 152/11/1
f 153/21/1 154/20/1 155/11/1 156/13/1
f 157/49/1 158/21/1 159/13/1 160/43/1
f 161/50/1 162/49/1 163/43/1 164/45/1
f 165/51/1 166/50/1 167/45/1 168/47/1
f 169/26/1 170/25/1 171/18/1 172/19/1
f 173/27/1 174/26/1 175/19/1 176/20/1
f 177/28/1 178/27/1 179/20/1 180/21/1
f 181/52/1 182/28/1 183/21/1 184/49/1
f 185/53/1 186/52/1 187/49/1 188/50/1
f 189/54/1 190/53/1 191/50/1 192/51/1
f 193/33/1 194/32/1 195/25/1 196/26/1
f 197/34/1 198/33/1 199/26/1 200/27/1
f 201/35/1 202/34/1 203/27/1 204/28/1
f 205/55/1 206/35/1 207/28/1 208/52/1
f 209/56/1 210/55/1 211/52/1 212/53/1
f 213/57/1 214/56/1 215/53/1 216/54/1
f 217/40/1 218/39/1 219/32/1 220/33/1
f 221/41/1 222/40/1 223/33/1 224/34/1
f 225/42/1 226/41/1 227/34/1 228/35/1
f 229/58/1 230/42/1 231/35/1 232/55/1
f 233/59/1 234/58/1 235/55/1 236/56/1
f 237/60/1 238/59/1 239/56/1 240/57/1

