# Tiled2Unity generated file. Do not modify by hand.
# Wavefront file for 'dungeon1_mesh_0126.obj'

# Vertices (Count = 388)
v -15 -1 0
v -16 -1 0
v -16 0 0
v -15 0 0
v -12 -1 0
v -13 -1 0
v -13 0 0
v -12 0 0
v -11 -1 0
v -12 -1 0
v -12 0 0
v -11 0 0
v -7 -1 0
v -8 -1 0
v -8 0 0
v -7 0 0
v -6 -1 0
v -7 -1 0
v -7 0 0
v -6 0 0
v -15 -2 0
v -16 -2 0
v -16 -1 0
v -15 -1 0
v -12 -2 0
v -13 -2 0
v -13 -1 0
v -12 -1 0
v -11 -2 0
v -12 -2 0
v -12 -1 0
v -11 -1 0
v -7 -2 0
v -8 -2 0
v -8 -1 0
v -7 -1 0
v -6 -2 0
v -7 -2 0
v -7 -1 0
v -6 -1 0
v -15 -3 0
v -16 -3 0
v -16 -2 0
v -15 -2 0
v -12 -3 0
v -13 -3 0
v -13 -2 0
v -12 -2 0
v -11 -3 0
v -12 -3 0
v -12 -2 0
v -11 -2 0
v -7 -3 0
v -8 -3 0
v -8 -2 0
v -7 -2 0
v -6 -3 0
v -7 -3 0
v -7 -2 0
v -6 -2 0
v -15 -4 0
v -16 -4 0
v -16 -3 0
v -15 -3 0
v -12 -4 0
v -13 -4 0
v -13 -3 0
v -12 -3 0
v -11 -4 0
v -12 -4 0
v -12 -3 0
v -11 -3 0
v -7 -4 0
v -8 -4 0
v -8 -3 0
v -7 -3 0
v -6 -4 0
v -7 -4 0
v -7 -3 0
v -6 -3 0
v -12 -5 0
v -13 -5 0
v -13 -4 0
v -12 -4 0
v -11 -5 0
v -12 -5 0
v -12 -4 0
v -11 -4 0
v -7 -5 0
v -8 -5 0
v -8 -4 0
v -7 -4 0
v -6 -5 0
v -7 -5 0
v -7 -4 0
v -6 -4 0
v -12 -6 0
v -13 -6 0
v -13 -5 0
v -12 -5 0
v -11 -6 0
v -12 -6 0
v -12 -5 0
v -11 -5 0
v -7 -6 0
v -8 -6 0
v -8 -5 0
v -7 -5 0
v -6 -6 0
v -7 -6 0
v -7 -5 0
v -6 -5 0
v -12 -7 0
v -13 -7 0
v -13 -6 0
v -12 -6 0
v -11 -7 0
v -12 -7 0
v -12 -6 0
v -11 -6 0
v -7 -7 0
v -8 -7 0
v -8 -6 0
v -7 -6 0
v -6 -7 0
v -7 -7 0
v -7 -6 0
v -6 -6 0
v -15 -8 0
v -16 -8 0
v -16 -7 0
v -15 -7 0
v -14 -8 0
v -15 -8 0
v -15 -7 0
v -14 -7 0
v -13 -8 0
v -14 -8 0
v -14 -7 0
v -13 -7 0
v -12 -8 0
v -13 -8 0
v -13 -7 0
v -12 -7 0
v -11 -8 0
v -12 -8 0
v -12 -7 0
v -11 -7 0
v -7 -8 0
v -8 -8 0
v -8 -7 0
v -7 -7 0
v -6 -8 0
v -7 -8 0
v -7 -7 0
v -6 -7 0
v -5 -8 0
v -6 -8 0
v -6 -7 0
v -5 -7 0
v -4 -8 0
v -5 -8 0
v -5 -7 0
v -4 -7 0
v -3 -8 0
v -4 -8 0
v -4 -7 0
v -3 -7 0
v -2 -8 0
v -3 -8 0
v -3 -7 0
v -2 -7 0
v -1 -8 0
v -2 -8 0
v -2 -7 0
v -1 -7 0
v 0 -8 0
v -1 -8 0
v -1 -7 0
v 0 -7 0
v -15 -9 0
v -16 -9 0
v -16 -8 0
v -15 -8 0
v -14 -9 0
v -15 -9 0
v -15 -8 0
v -14 -8 0
v -13 -9 0
v -14 -9 0
v -14 -8 0
v -13 -8 0
v -12 -9 0
v -13 -9 0
v -13 -8 0
v -12 -8 0
v -11 -9 0
v -12 -9 0
v -12 -8 0
v -11 -8 0
v -7 -9 0
v -8 -9 0
v -8 -8 0
v -7 -8 0
v -6 -9 0
v -7 -9 0
v -7 -8 0
v -6 -8 0
v -5 -9 0
v -6 -9 0
v -6 -8 0
v -5 -8 0
v -4 -9 0
v -5 -9 0
v -5 -8 0
v -4 -8 0
v -3 -9 0
v -4 -9 0
v -4 -8 0
v -3 -8 0
v -2 -9 0
v -3 -9 0
v -3 -8 0
v -2 -8 0
v -1 -9 0
v -2 -9 0
v -2 -8 0
v -1 -8 0
v 0 -9 0
v -1 -9 0
v -1 -8 0
v 0 -8 0
v -15 -10 0
v -16 -10 0
v -16 -9 0
v -15 -9 0
v -14 -10 0
v -15 -10 0
v -15 -9 0
v -14 -9 0
v -13 -10 0
v -14 -10 0
v -14 -9 0
v -13 -9 0
v -12 -10 0
v -13 -10 0
v -13 -9 0
v -12 -9 0
v -11 -10 0
v -12 -10 0
v -12 -9 0
v -11 -9 0
v -7 -10 0
v -8 -10 0
v -8 -9 0
v -7 -9 0
v -6 -10 0
v -7 -10 0
v -7 -9 0
v -6 -9 0
v -5 -10 0
v -6 -10 0
v -6 -9 0
v -5 -9 0
v -4 -10 0
v -5 -10 0
v -5 -9 0
v -4 -9 0
v -3 -10 0
v -4 -10 0
v -4 -9 0
v -3 -9 0
v -2 -10 0
v -3 -10 0
v -3 -9 0
v -2 -9 0
v -1 -10 0
v -2 -10 0
v -2 -9 0
v -1 -9 0
v 0 -10 0
v -1 -10 0
v -1 -9 0
v 0 -9 0
v -15 -11 0
v -16 -11 0
v -16 -10 0
v -15 -10 0
v -14 -11 0
v -15 -11 0
v -15 -10 0
v -14 -10 0
v -13 -11 0
v -14 -11 0
v -14 -10 0
v -13 -10 0
v -12 -11 0
v -13 -11 0
v -13 -10 0
v -12 -10 0
v -11 -11 0
v -12 -11 0
v -12 -10 0
v -11 -10 0
v -7 -11 0
v -8 -11 0
v -8 -10 0
v -7 -10 0
v -6 -11 0
v -7 -11 0
v -7 -10 0
v -6 -10 0
v -5 -11 0
v -6 -11 0
v -6 -10 0
v -5 -10 0
v -4 -11 0
v -5 -11 0
v -5 -10 0
v -4 -10 0
v -3 -11 0
v -4 -11 0
v -4 -10 0
v -3 -10 0
v -2 -11 0
v -3 -11 0
v -3 -10 0
v -2 -10 0
v -1 -11 0
v -2 -11 0
v -2 -10 0
v -1 -10 0
v 0 -11 0
v -1 -11 0
v -1 -10 0
v 0 -10 0
v -15 -12 0
v -16 -12 0
v -16 -11 0
v -15 -11 0
v -14 -12 0
v -15 -12 0
v -15 -11 0
v -14 -11 0
v -13 -12 0
v -14 -12 0
v -14 -11 0
v -13 -11 0
v -12 -12 0
v -13 -12 0
v -13 -11 0
v -12 -11 0
v -11 -12 0
v -12 -12 0
v -12 -11 0
v -11 -11 0
v -7 -12 0
v -8 -12 0
v -8 -11 0
v -7 -11 0
v -6 -12 0
v -7 -12 0
v -7 -11 0
v -6 -11 0
v -5 -12 0
v -6 -12 0
v -6 -11 0
v -5 -11 0
v -4 -12 0
v -5 -12 0
v -5 -11 0
v -4 -11 0
v -3 -12 0
v -4 -12 0
v -4 -11 0
v -3 -11 0
v -2 -12 0
v -3 -12 0
v -3 -11 0
v -2 -11 0
v -1 -12 0
v -2 -12 0
v -2 -11 0
v -1 -11 0
v 0 -12 0
v -1 -12 0
v -1 -11 0
v 0 -11 0

# Texture cooridinates (Count = 88)
vt 0.7567568 0.3695652
vt 0.7837838 0.3695652
vt 0.7837838 0.3913044
vt 0.7567568 0.3913044
vt 0.1621622 0.9347826
vt 0.1891892 0.9347826
vt 0.1891892 0.9565217
vt 0.1621622 0.9565217
vt 0.1351351 0.7826087
vt 0.1621622 0.7826087
vt 0.1621622 0.8043478
vt 0.1351351 0.8043478
vt 0.4324324 0.7826087
vt 0.4594595 0.7826087
vt 0.4594595 0.8043478
vt 0.4324324 0.8043478
vt 0.4054054 0.9347826
vt 0.4324324 0.9347826
vt 0.4324324 0.9565217
vt 0.4054054 0.9565217
vt 0.7567568 0.3478261
vt 0.7837838 0.3478261
vt 0.7567568 0.3260869
vt 0.7837838 0.3260869
vt 0.7567568 0.3043478
vt 0.7837838 0.3043478
vt 0.1621622 0.9130435
vt 0.1891892 0.9130435
vt 0.2432432 0.8260869
vt 0.2702703 0.8260869
vt 0.2702703 0.8478261
vt 0.2432432 0.8478261
vt 0.2162162 0.8260869
vt 0.2162162 0.8478261
vt 0.1891892 0.8260869
vt 0.1891892 0.8478261
vt 0.1621622 0.8260869
vt 0.1621622 0.8478261
vt 0.4054054 0.8260869
vt 0.4324324 0.8260869
vt 0.4324324 0.8478261
vt 0.4054054 0.8478261
vt 0.3783784 0.8260869
vt 0.3783784 0.8478261
vt 0.3513514 0.8260869
vt 0.3513514 0.8478261
vt 0.3243243 0.8260869
vt 0.3243243 0.8478261
vt 0.2432432 0.8043478
vt 0.2702703 0.8043478
vt 0.2162162 0.8043478
vt 0.1891892 0.8043478
vt 0.4054054 0.8043478
vt 0.3783784 0.8043478
vt 0.3513514 0.8043478
vt 0.3243243 0.8043478
vt 0.2432432 0.7826087
vt 0.2702703 0.7826087
vt 0.2162162 0.7826087
vt 0.1891892 0.7826087
vt 0.4054054 0.7826087
vt 0.3783784 0.7826087
vt 0.3513514 0.7826087
vt 0.3243243 0.7826087
vt 0.2432432 0.7608696
vt 0.2702703 0.7608696
vt 0.2162162 0.7608696
vt 0.1891892 0.7608696
vt 0.1621622 0.7608696
vt 0.1351351 0.7608696
vt 0.4324324 0.7608696
vt 0.4594595 0.7608696
vt 0.4054054 0.7608696
vt 0.3783784 0.7608696
vt 0.3513514 0.7608696
vt 0.3243243 0.7608696
vt 0.2432432 0.7391304
vt 0.2702703 0.7391304
vt 0.2162162 0.7391304
vt 0.1891892 0.7391304
vt 0.1621622 0.7391304
vt 0.1351351 0.7391304
vt 0.4324324 0.7391304
vt 0.4594595 0.7391304
vt 0.4054054 0.7391304
vt 0.3783784 0.7391304
vt 0.3513514 0.7391304
vt 0.3243243 0.7391304

# Normal
vn 0 0 -1

# Mesh description
g dungeon1_mesh_0126

# Faces
f 1/1/1 2/2/1 3/3/1 4/4/1
f 5/5/1 6/6/1 7/7/1 8/8/1
f 9/9/1 10/10/1 11/11/1 12/12/1
f 13/13/1 14/14/1 15/15/1 16/16/1
f 17/17/1 18/18/1 19/19/1 20/20/1
f 21/21/1 22/22/1 23/2/1 24/1/1
f 25/5/1 26/6/1 27/7/1 28/8/1
f 29/9/1 30/10/1 31/11/1 32/12/1
f 33/13/1 34/14/1 35/15/1 36/16/1
f 37/17/1 38/18/1 39/19/1 40/20/1
f 41/23/1 42/24/1 43/22/1 44/21/1
f 45/5/1 46/6/1 47/7/1 48/8/1
f 49/9/1 50/10/1 51/11/1 52/12/1
f 53/13/1 54/14/1 55/15/1 56/16/1
f 57/17/1 58/18/1 59/19/1 60/20/1
f 61/25/1 62/26/1 63/24/1 64/23/1
f 65/5/1 66/6/1 67/7/1 68/8/1
f 69/9/1 70/10/1 71/11/1 72/12/1
f 73/13/1 74/14/1 75/15/1 76/16/1
f 77/17/1 78/18/1 79/19/1 80/20/1
f 81/5/1 82/6/1 83/7/1 84/8/1
f 85/9/1 86/10/1 87/11/1 88/12/1
f 89/13/1 90/14/1 91/15/1 92/16/1
f 93/17/1 94/18/1 95/19/1 96/20/1
f 97/27/1 98/28/1 99/6/1 100/5/1
f 101/9/1 102/10/1 103/11/1 104/12/1
f 105/13/1 106/14/1 107/15/1 108/16/1
f 109/17/1 110/18/1 111/19/1 112/20/1
f 113/27/1 114/28/1 115/6/1 116/5/1
f 117/9/1 118/10/1 119/11/1 120/12/1
f 121/13/1 122/14/1 123/15/1 124/16/1
f 125/17/1 126/18/1 127/19/1 128/20/1
f 129/29/1 130/30/1 131/31/1 132/32/1
f 133/33/1 134/29/1 135/32/1 136/34/1
f 137/35/1 138/33/1 139/34/1 140/36/1
f 141/37/1 142/35/1 143/36/1 144/38/1
f 145/9/1 146/10/1 147/11/1 148/12/1
f 149/13/1 150/14/1 151/15/1 152/16/1
f 153/39/1 154/40/1 155/41/1 156/42/1
f 157/43/1 158/39/1 159/42/1 160/44/1
f 161/45/1 162/43/1 163/44/1 164/46/1
f 165/47/1 166/45/1 167/46/1 168/48/1
f 169/43/1 170/39/1 171/42/1 172/44/1
f 173/45/1 174/43/1 175/44/1 176/46/1
f 177/47/1 178/45/1 179/46/1 180/48/1
f 181/49/1 182/50/1 183/30/1 184/29/1
f 185/51/1 186/49/1 187/29/1 188/33/1
f 189/52/1 190/51/1 191/33/1 192/35/1
f 193/11/1 194/52/1 195/35/1 196/37/1
f 197/9/1 198/10/1 199/11/1 200/12/1
f 201/13/1 202/14/1 203/15/1 204/16/1
f 205/53/1 206/16/1 207/40/1 208/39/1
f 209/54/1 210/53/1 211/39/1 212/43/1
f 213/55/1 214/54/1 215/43/1 216/45/1
f 217/56/1 218/55/1 219/45/1 220/47/1
f 221/54/1 222/53/1 223/39/1 224/43/1
f 225/55/1 226/54/1 227/43/1 228/45/1
f 229/56/1 230/55/1 231/45/1 232/47/1
f 233/57/1 234/58/1 235/50/1 236/49/1
f 237/59/1 238/57/1 239/49/1 240/51/1
f 241/60/1 242/59/1 243/51/1 244/52/1
f 245/10/1 246/60/1 247/52/1 248/11/1
f 249/9/1 250/10/1 251/11/1 252/12/1
f 253/13/1 254/14/1 255/15/1 256/16/1
f 257/61/1 258/13/1 259/16/1 260/53/1
f 261/62/1 262/61/1 263/53/1 264/54/1
f 265/63/1 266/62/1 267/54/1 268/55/1
f 269/64/1 270/63/1 271/55/1 272/56/1
f 273/62/1 274/61/1 275/53/1 276/54/1
f 277/63/1 278/62/1 279/54/1 280/55/1
f 281/64/1 282/63/1 283/55/1 284/56/1
f 285/65/1 286/66/1 287/58/1 288/57/1
f 289/67/1 290/65/1 291/57/1 292/59/1
f 293/68/1 294/67/1 295/59/1 296/60/1
f 297/69/1 298/68/1 299/60/1 300/10/1
f 301/70/1 302/69/1 303/10/1 304/9/1
f 305/71/1 306/72/1 307/14/1 308/13/1
f 309/73/1 310/71/1 311/13/1 312/61/1
f 313/74/1 314/73/1 315/61/1 316/62/1
f 317/75/1 318/74/1 319/62/1 320/63/1
f 321/76/1 322/75/1 323/63/1 324/64/1
f 325/74/1 326/73/1 327/61/1 328/62/1
f 329/75/1 330/74/1 331/62/1 332/63/1
f 333/76/1 334/75/1 335/63/1 336/64/1
f 337/77/1 338/78/1 339/66/1 340/65/1
f 341/79/1 342/77/1 343/65/1 344/67/1
f 345/80/1 346/79/1 347/67/1 348/68/1
f 349/81/1 350/80/1 351/68/1 352/69/1
f 353/82/1 354/81/1 355/69/1 356/70/1
f 357/83/1 358/84/1 359/72/1 360/71/1
f 361/85/1 362/83/1 363/71/1 364/73/1
f 365/86/1 366/85/1 367/73/1 368/74/1
f 369/87/1 370/86/1 371/74/1 372/75/1
f 373/88/1 374/87/1 375/75/1 376/76/1
f 377/86/1 378/85/1 379/73/1 380/74/1
f 381/87/1 382/86/1 383/74/1 384/75/1
f 385/88/1 386/87/1 387/75/1 388/76/1

