# Tiled2Unity generated file. Do not modify by hand.
# Wavefront file for 'dungeon1_mesh_0123.obj'

# Vertices (Count = 548)
v -15 -1 0
v -16 -1 0
v -16 0 0
v -15 0 0
v -14 -1 0
v -15 -1 0
v -15 0 0
v -14 0 0
v -11 -1 0
v -12 -1 0
v -12 0 0
v -11 0 0
v -10 -1 0
v -11 -1 0
v -11 0 0
v -10 0 0
v -15 -2 0
v -16 -2 0
v -16 -1 0
v -15 -1 0
v -14 -2 0
v -15 -2 0
v -15 -1 0
v -14 -1 0
v -13 -2 0
v -14 -2 0
v -14 -1 0
v -13 -1 0
v -11 -2 0
v -12 -2 0
v -12 -1 0
v -11 -1 0
v -10 -2 0
v -11 -2 0
v -11 -1 0
v -10 -1 0
v -15 -3 0
v -16 -3 0
v -16 -2 0
v -15 -2 0
v -14 -3 0
v -15 -3 0
v -15 -2 0
v -14 -2 0
v -13 -3 0
v -14 -3 0
v -14 -2 0
v -13 -2 0
v -12 -3 0
v -13 -3 0
v -13 -2 0
v -12 -2 0
v -11 -3 0
v -12 -3 0
v -12 -2 0
v -11 -2 0
v -10 -3 0
v -11 -3 0
v -11 -2 0
v -10 -2 0
v -15 -4 0
v -16 -4 0
v -16 -3 0
v -15 -3 0
v -14 -4 0
v -15 -4 0
v -15 -3 0
v -14 -3 0
v -13 -4 0
v -14 -4 0
v -14 -3 0
v -13 -3 0
v -12 -4 0
v -13 -4 0
v -13 -3 0
v -12 -3 0
v -11 -4 0
v -12 -4 0
v -12 -3 0
v -11 -3 0
v -10 -4 0
v -11 -4 0
v -11 -3 0
v -10 -3 0
v -9 -4 0
v -10 -4 0
v -10 -3 0
v -9 -3 0
v -8 -4 0
v -9 -4 0
v -9 -3 0
v -8 -3 0
v -15 -5 0
v -16 -5 0
v -16 -4 0
v -15 -4 0
v -14 -5 0
v -15 -5 0
v -15 -4 0
v -14 -4 0
v -13 -5 0
v -14 -5 0
v -14 -4 0
v -13 -4 0
v -12 -5 0
v -13 -5 0
v -13 -4 0
v -12 -4 0
v -11 -5 0
v -12 -5 0
v -12 -4 0
v -11 -4 0
v -10 -5 0
v -11 -5 0
v -11 -4 0
v -10 -4 0
v -9 -5 0
v -10 -5 0
v -10 -4 0
v -9 -4 0
v -8 -5 0
v -9 -5 0
v -9 -4 0
v -8 -4 0
v -7 -5 0
v -8 -5 0
v -8 -4 0
v -7 -4 0
v -6 -5 0
v -7 -5 0
v -7 -4 0
v -6 -4 0
v -15 -6 0
v -16 -6 0
v -16 -5 0
v -15 -5 0
v -14 -6 0
v -15 -6 0
v -15 -5 0
v -14 -5 0
v -13 -6 0
v -14 -6 0
v -14 -5 0
v -13 -5 0
v -12 -6 0
v -13 -6 0
v -13 -5 0
v -12 -5 0
v -11 -6 0
v -12 -6 0
v -12 -5 0
v -11 -5 0
v -10 -6 0
v -11 -6 0
v -11 -5 0
v -10 -5 0
v -9 -6 0
v -10 -6 0
v -10 -5 0
v -9 -5 0
v -8 -6 0
v -9 -6 0
v -9 -5 0
v -8 -5 0
v -7 -6 0
v -8 -6 0
v -8 -5 0
v -7 -5 0
v -6 -6 0
v -7 -6 0
v -7 -5 0
v -6 -5 0
v -5 -6 0
v -6 -6 0
v -6 -5 0
v -5 -5 0
v -15 -7 0
v -16 -7 0
v -16 -6 0
v -15 -6 0
v -14 -7 0
v -15 -7 0
v -15 -6 0
v -14 -6 0
v -13 -7 0
v -14 -7 0
v -14 -6 0
v -13 -6 0
v -12 -7 0
v -13 -7 0
v -13 -6 0
v -12 -6 0
v -11 -7 0
v -12 -7 0
v -12 -6 0
v -11 -6 0
v -10 -7 0
v -11 -7 0
v -11 -6 0
v -10 -6 0
v -9 -7 0
v -10 -7 0
v -10 -6 0
v -9 -6 0
v -8 -7 0
v -9 -7 0
v -9 -6 0
v -8 -6 0
v -7 -7 0
v -8 -7 0
v -8 -6 0
v -7 -6 0
v -6 -7 0
v -7 -7 0
v -7 -6 0
v -6 -6 0
v -5 -7 0
v -6 -7 0
v -6 -6 0
v -5 -6 0
v -15 -8 0
v -16 -8 0
v -16 -7 0
v -15 -7 0
v -14 -8 0
v -15 -8 0
v -15 -7 0
v -14 -7 0
v -13 -8 0
v -14 -8 0
v -14 -7 0
v -13 -7 0
v -12 -8 0
v -13 -8 0
v -13 -7 0
v -12 -7 0
v -11 -8 0
v -12 -8 0
v -12 -7 0
v -11 -7 0
v -10 -8 0
v -11 -8 0
v -11 -7 0
v -10 -7 0
v -9 -8 0
v -10 -8 0
v -10 -7 0
v -9 -7 0
v -8 -8 0
v -9 -8 0
v -9 -7 0
v -8 -7 0
v -7 -8 0
v -8 -8 0
v -8 -7 0
v -7 -7 0
v -6 -8 0
v -7 -8 0
v -7 -7 0
v -6 -7 0
v -5 -8 0
v -6 -8 0
v -6 -7 0
v -5 -7 0
v -15 -9 0
v -16 -9 0
v -16 -8 0
v -15 -8 0
v -14 -9 0
v -15 -9 0
v -15 -8 0
v -14 -8 0
v -13 -9 0
v -14 -9 0
v -14 -8 0
v -13 -8 0
v -12 -9 0
v -13 -9 0
v -13 -8 0
v -12 -8 0
v -11 -9 0
v -12 -9 0
v -12 -8 0
v -11 -8 0
v -10 -9 0
v -11 -9 0
v -11 -8 0
v -10 -8 0
v -9 -9 0
v -10 -9 0
v -10 -8 0
v -9 -8 0
v -8 -9 0
v -9 -9 0
v -9 -8 0
v -8 -8 0
v -7 -9 0
v -8 -9 0
v -8 -8 0
v -7 -8 0
v -6 -9 0
v -7 -9 0
v -7 -8 0
v -6 -8 0
v -5 -9 0
v -6 -9 0
v -6 -8 0
v -5 -8 0
v -15 -10 0
v -16 -10 0
v -16 -9 0
v -15 -9 0
v -14 -10 0
v -15 -10 0
v -15 -9 0
v -14 -9 0
v -13 -10 0
v -14 -10 0
v -14 -9 0
v -13 -9 0
v -12 -10 0
v -13 -10 0
v -13 -9 0
v -12 -9 0
v -11 -10 0
v -12 -10 0
v -12 -9 0
v -11 -9 0
v -10 -10 0
v -11 -10 0
v -11 -9 0
v -10 -9 0
v -9 -10 0
v -10 -10 0
v -10 -9 0
v -9 -9 0
v -8 -10 0
v -9 -10 0
v -9 -9 0
v -8 -9 0
v -7 -10 0
v -8 -10 0
v -8 -9 0
v -7 -9 0
v -6 -10 0
v -7 -10 0
v -7 -9 0
v -6 -9 0
v -5 -10 0
v -6 -10 0
v -6 -9 0
v -5 -9 0
v -15 -11 0
v -16 -11 0
v -16 -10 0
v -15 -10 0
v -14 -11 0
v -15 -11 0
v -15 -10 0
v -14 -10 0
v -13 -11 0
v -14 -11 0
v -14 -10 0
v -13 -10 0
v -12 -11 0
v -13 -11 0
v -13 -10 0
v -12 -10 0
v -11 -11 0
v -12 -11 0
v -12 -10 0
v -11 -10 0
v -10 -11 0
v -11 -11 0
v -11 -10 0
v -10 -10 0
v -9 -11 0
v -10 -11 0
v -10 -10 0
v -9 -10 0
v -8 -11 0
v -9 -11 0
v -9 -10 0
v -8 -10 0
v -7 -11 0
v -8 -11 0
v -8 -10 0
v -7 -10 0
v -6 -11 0
v -7 -11 0
v -7 -10 0
v -6 -10 0
v -5 -11 0
v -6 -11 0
v -6 -10 0
v -5 -10 0
v -15 -12 0
v -16 -12 0
v -16 -11 0
v -15 -11 0
v -14 -12 0
v -15 -12 0
v -15 -11 0
v -14 -11 0
v -13 -12 0
v -14 -12 0
v -14 -11 0
v -13 -11 0
v -12 -12 0
v -13 -12 0
v -13 -11 0
v -12 -11 0
v -11 -12 0
v -12 -12 0
v -12 -11 0
v -11 -11 0
v -10 -12 0
v -11 -12 0
v -11 -11 0
v -10 -11 0
v -9 -12 0
v -10 -12 0
v -10 -11 0
v -9 -11 0
v -8 -12 0
v -9 -12 0
v -9 -11 0
v -8 -11 0
v -7 -12 0
v -8 -12 0
v -8 -11 0
v -7 -11 0
v -6 -12 0
v -7 -12 0
v -7 -11 0
v -6 -11 0
v -5 -12 0
v -6 -12 0
v -6 -11 0
v -5 -11 0
v -4 -12 0
v -5 -12 0
v -5 -11 0
v -4 -11 0
v -6 -13 0
v -7 -13 0
v -7 -12 0
v -6 -12 0
v -5 -13 0
v -6 -13 0
v -6 -12 0
v -5 -12 0
v -4 -13 0
v -5 -13 0
v -5 -12 0
v -4 -12 0
v -15 -14 0
v -16 -14 0
v -16 -13 0
v -15 -13 0
v -14 -14 0
v -15 -14 0
v -15 -13 0
v -14 -13 0
v -13 -14 0
v -14 -14 0
v -14 -13 0
v -13 -13 0
v -8 -14 0
v -9 -14 0
v -9 -13 0
v -8 -13 0
v -6 -14 0
v -7 -14 0
v -7 -13 0
v -6 -13 0
v -5 -14 0
v -6 -14 0
v -6 -13 0
v -5 -13 0
v -4 -14 0
v -5 -14 0
v -5 -13 0
v -4 -13 0
v -15 -15 0
v -16 -15 0
v -16 -14 0
v -15 -14 0
v -14 -15 0
v -15 -15 0
v -15 -14 0
v -14 -14 0
v -13 -15 0
v -14 -15 0
v -14 -14 0
v -13 -14 0
v -12 -15 0
v -13 -15 0
v -13 -14 0
v -12 -14 0
v -8 -15 0
v -9 -15 0
v -9 -14 0
v -8 -14 0
v -6 -15 0
v -7 -15 0
v -7 -14 0
v -6 -14 0
v -5 -15 0
v -6 -15 0
v -6 -14 0
v -5 -14 0
v -4 -15 0
v -5 -15 0
v -5 -14 0
v -4 -14 0
v -15 -16 0
v -16 -16 0
v -16 -15 0
v -15 -15 0
v -14 -16 0
v -15 -16 0
v -15 -15 0
v -14 -15 0
v -13 -16 0
v -14 -16 0
v -14 -15 0
v -13 -15 0
v -12 -16 0
v -13 -16 0
v -13 -15 0
v -12 -15 0
v -8 -16 0
v -9 -16 0
v -9 -15 0
v -8 -15 0
v -6 -16 0
v -7 -16 0
v -7 -15 0
v -6 -15 0
v -5 -16 0
v -6 -16 0
v -6 -15 0
v -5 -15 0
v -4 -16 0
v -5 -16 0
v -5 -15 0
v -4 -15 0

# Texture cooridinates (Count = 123)
vt 0.7567568 0.8478261
vt 0.7837838 0.8478261
vt 0.7837838 0.8695652
vt 0.7567568 0.8695652
vt 0.7837838 0.8913044
vt 0.7567568 0.8913044
vt 0.6486486 0.8260869
vt 0.6756757 0.8260869
vt 0.6756757 0.8478261
vt 0.6486486 0.8478261
vt 0.6216216 0.8260869
vt 0.6216216 0.8478261
vt 0.7567568 0.8260869
vt 0.7837838 0.8260869
vt 0.6486486 0.8043478
vt 0.6756757 0.8043478
vt 0.6216216 0.8043478
vt 0.7567568 0.8043478
vt 0.7837838 0.8043478
vt 0.7297297 0.8478261
vt 0.7297297 0.8695652
vt 0.6486486 0.7826087
vt 0.6756757 0.7826087
vt 0.6216216 0.7826087
vt 0.7567568 0.7826087
vt 0.7837838 0.7826087
vt 0.7297297 0.8260869
vt 0.6486486 0.7608696
vt 0.6756757 0.7608696
vt 0.6216216 0.7608696
vt 0.5675676 0.8478261
vt 0.5945946 0.8478261
vt 0.5945946 0.8695652
vt 0.5675676 0.8695652
vt 0.5405405 0.8478261
vt 0.5405405 0.8695652
vt 0.8108108 0.8043478
vt 0.8108108 0.8260869
vt 0.7297297 0.8043478
vt 0.5675676 0.8260869
vt 0.5945946 0.8260869
vt 0.5405405 0.8260869
vt 0.08108108 0.8260869
vt 0.1081081 0.8260869
vt 0.1081081 0.8478261
vt 0.08108108 0.8478261
vt 0.4054054 0.9565217
vt 0.4324324 0.9565217
vt 0.4324324 0.9782609
vt 0.4054054 0.9782609
vt 0.8108108 0.7826087
vt 0.7297297 0.7826087
vt 0.5675676 0.8043478
vt 0.5945946 0.8043478
vt 0.5405405 0.8043478
vt 0.08108108 0.8043478
vt 0.1081081 0.8043478
vt 0.4054054 0.9347826
vt 0.4324324 0.9347826
vt 0.3783784 0.9347826
vt 0.3783784 0.9565217
vt 0.5675676 0.7826087
vt 0.5945946 0.7826087
vt 0.5405405 0.7826087
vt 0.08108108 0.7608696
vt 0.1081081 0.7608696
vt 0.1081081 0.7826087
vt 0.08108108 0.7826087
vt 0.4054054 0.9130435
vt 0.4324324 0.9130435
vt 0.3783784 0.9130435
vt 0.4054054 0.8913044
vt 0.4324324 0.8913044
vt 0.3783784 0.8913044
vt 0.4054054 0.8695652
vt 0.4324324 0.8695652
vt 0.3783784 0.8695652
vt 0.7567568 0.7608696
vt 0.7837838 0.7608696
vt 0.8108108 0.7608696
vt 0.7297297 0.7608696
vt 0.6756757 0.9130435
vt 0.7027027 0.9130435
vt 0.7027027 0.9347826
vt 0.6756757 0.9347826
vt 0.6486486 0.9130435
vt 0.6486486 0.9347826
vt 0.5675676 0.7608696
vt 0.5945946 0.7608696
vt 0.5405405 0.7608696
vt 0.4054054 0.8260869
vt 0.4324324 0.8260869
vt 0.4324324 0.8478261
vt 0.4054054 0.8478261
vt 0.2702703 0.7391304
vt 0.2972973 0.7391304
vt 0.2972973 0.7608696
vt 0.2702703 0.7608696
vt 0.2432432 0.7391304
vt 0.2432432 0.7608696
vt 0.08108108 0.7391304
vt 0.1081081 0.7391304
vt 0.4324324 0.8043478
vt 0.4594595 0.8043478
vt 0.4594595 0.8260869
vt 0.4324324 0.7826087
vt 0.4594595 0.7826087
vt 0.4864865 0.7173913
vt 0.5135135 0.7173913
vt 0.5135135 0.7391304
vt 0.4864865 0.7391304
vt 0.5405405 0.7173913
vt 0.5405405 0.7391304
vt 0.5675676 0.6956522
vt 0.5945946 0.6956522
vt 0.5945946 0.7173913
vt 0.5675676 0.7173913
vt 0.5675676 0.673913
vt 0.5945946 0.673913
vt 0.4324324 0.7608696
vt 0.4594595 0.7608696
vt 0.5675676 0.6521739
vt 0.5945946 0.6521739

# Normal
vn 0 0 -1

# Mesh description
g dungeon1_mesh_0123

# Faces
f 1/1/1 2/2/1 3/3/1 4/4/1
f 5/4/1 6/3/1 7/5/1 8/6/1
f 9/7/1 10/8/1 11/9/1 12/10/1
f 13/11/1 14/7/1 15/10/1 16/12/1
f 17/13/1 18/14/1 19/2/1 20/1/1
f 21/1/1 22/2/1 23/3/1 24/4/1
f 25/4/1 26/3/1 27/5/1 28/6/1
f 29/15/1 30/16/1 31/8/1 32/7/1
f 33/17/1 34/15/1 35/7/1 36/11/1
f 37/18/1 38/19/1 39/14/1 40/13/1
f 41/13/1 42/14/1 43/2/1 44/1/1
f 45/1/1 46/2/1 47/3/1 48/4/1
f 49/20/1 50/1/1 51/4/1 52/21/1
f 53/22/1 54/23/1 55/16/1 56/15/1
f 57/24/1 58/22/1 59/15/1 60/17/1
f 61/25/1 62/26/1 63/19/1 64/18/1
f 65/25/1 66/26/1 67/19/1 68/18/1
f 69/13/1 70/14/1 71/2/1 72/1/1
f 73/27/1 74/13/1 75/1/1 76/20/1
f 77/28/1 78/29/1 79/23/1 80/22/1
f 81/30/1 82/28/1 83/22/1 84/24/1
f 85/31/1 86/32/1 87/33/1 88/34/1
f 89/35/1 90/31/1 91/34/1 92/36/1
f 93/18/1 94/19/1 95/14/1 96/13/1
f 97/19/1 98/37/1 99/38/1 100/14/1
f 101/18/1 102/19/1 103/14/1 104/13/1
f 105/39/1 106/18/1 107/13/1 108/27/1
f 109/22/1 110/23/1 111/16/1 112/15/1
f 113/24/1 114/22/1 115/15/1 116/17/1
f 117/40/1 118/41/1 119/32/1 120/31/1
f 121/42/1 122/40/1 123/31/1 124/35/1
f 125/43/1 126/44/1 127/45/1 128/46/1
f 129/47/1 130/48/1 131/49/1 132/50/1
f 133/25/1 134/26/1 135/19/1 136/18/1
f 137/26/1 138/51/1 139/37/1 140/19/1
f 141/25/1 142/26/1 143/19/1 144/18/1
f 145/52/1 146/25/1 147/18/1 148/39/1
f 149/28/1 150/29/1 151/23/1 152/22/1
f 153/30/1 154/28/1 155/22/1 156/24/1
f 157/53/1 158/54/1 159/41/1 160/40/1
f 161/55/1 162/53/1 163/40/1 164/42/1
f 165/56/1 166/57/1 167/44/1 168/43/1
f 169/58/1 170/59/1 171/48/1 172/47/1
f 173/60/1 174/58/1 175/47/1 176/61/1
f 177/18/1 178/19/1 179/14/1 180/13/1
f 181/19/1 182/37/1 183/38/1 184/14/1
f 185/18/1 186/19/1 187/14/1 188/13/1
f 189/39/1 190/18/1 191/13/1 192/27/1
f 193/22/1 194/23/1 195/16/1 196/15/1
f 197/24/1 198/22/1 199/15/1 200/17/1
f 201/62/1 202/63/1 203/54/1 204/53/1
f 205/64/1 206/62/1 207/53/1 208/55/1
f 209/65/1 210/66/1 211/67/1 212/68/1
f 213/69/1 214/70/1 215/59/1 216/58/1
f 217/71/1 218/69/1 219/58/1 220/60/1
f 221/25/1 222/26/1 223/19/1 224/18/1
f 225/26/1 226/51/1 227/37/1 228/19/1
f 229/25/1 230/26/1 231/19/1 232/18/1
f 233/52/1 234/25/1 235/18/1 236/39/1
f 237/28/1 238/29/1 239/23/1 240/22/1
f 241/30/1 242/28/1 243/22/1 244/24/1
f 245/62/1 246/63/1 247/54/1 248/53/1
f 249/64/1 250/62/1 251/53/1 252/55/1
f 253/68/1 254/67/1 255/57/1 256/56/1
f 257/72/1 258/73/1 259/70/1 260/69/1
f 261/74/1 262/72/1 263/69/1 264/71/1
f 265/18/1 266/19/1 267/14/1 268/13/1
f 269/19/1 270/37/1 271/38/1 272/14/1
f 273/18/1 274/19/1 275/14/1 276/13/1
f 277/39/1 278/18/1 279/13/1 280/27/1
f 281/22/1 282/23/1 283/16/1 284/15/1
f 285/24/1 286/22/1 287/15/1 288/17/1
f 289/62/1 290/63/1 291/54/1 292/53/1
f 293/64/1 294/62/1 295/53/1 296/55/1
f 297/65/1 298/66/1 299/67/1 300/68/1
f 301/75/1 302/76/1 303/73/1 304/72/1
f 305/77/1 306/75/1 307/72/1 308/74/1
f 309/25/1 310/26/1 311/19/1 312/18/1
f 313/26/1 314/51/1 315/37/1 316/19/1
f 317/25/1 318/26/1 319/19/1 320/18/1
f 321/52/1 322/25/1 323/18/1 324/39/1
f 325/28/1 326/29/1 327/23/1 328/22/1
f 329/30/1 330/28/1 331/22/1 332/24/1
f 333/62/1 334/63/1 335/54/1 336/53/1
f 337/64/1 338/62/1 339/53/1 340/55/1
f 341/68/1 342/67/1 343/57/1 344/56/1
f 345/72/1 346/73/1 347/70/1 348/69/1
f 349/74/1 350/72/1 351/69/1 352/71/1
f 353/78/1 354/79/1 355/26/1 356/25/1
f 357/79/1 358/80/1 359/51/1 360/26/1
f 361/78/1 362/79/1 363/26/1 364/25/1
f 365/81/1 366/78/1 367/25/1 368/52/1
f 369/82/1 370/83/1 371/84/1 372/85/1
f 373/86/1 374/82/1 375/85/1 376/87/1
f 377/88/1 378/89/1 379/63/1 380/62/1
f 381/90/1 382/88/1 383/62/1 384/64/1
f 385/65/1 386/66/1 387/67/1 388/68/1
f 389/91/1 390/92/1 391/93/1 392/94/1
f 393/47/1 394/48/1 395/49/1 396/50/1
f 397/95/1 398/96/1 399/97/1 400/98/1
f 401/99/1 402/95/1 403/98/1 404/100/1
f 405/95/1 406/96/1 407/97/1 408/98/1
f 409/99/1 410/95/1 411/98/1 412/100/1
f 413/95/1 414/96/1 415/97/1 416/98/1
f 417/99/1 418/95/1 419/98/1 420/100/1
f 421/95/1 422/96/1 423/97/1 424/98/1
f 425/99/1 426/95/1 427/98/1 428/100/1
f 429/101/1 430/102/1 431/66/1 432/65/1
f 433/103/1 434/104/1 435/105/1 436/92/1
f 437/58/1 438/59/1 439/48/1 440/47/1
f 441/60/1 442/58/1 443/47/1 444/61/1
f 445/106/1 446/107/1 447/104/1 448/103/1
f 449/58/1 450/59/1 451/48/1 452/47/1
f 453/60/1 454/58/1 455/47/1 456/61/1
f 457/108/1 458/109/1 459/110/1 460/111/1
f 461/109/1 462/112/1 463/113/1 464/110/1
f 465/108/1 466/109/1 467/110/1 468/111/1
f 469/114/1 470/115/1 471/116/1 472/117/1
f 473/106/1 474/107/1 475/104/1 476/103/1
f 477/58/1 478/59/1 479/48/1 480/47/1
f 481/60/1 482/58/1 483/47/1 484/61/1
f 485/109/1 486/112/1 487/113/1 488/110/1
f 489/108/1 490/109/1 491/110/1 492/111/1
f 493/109/1 494/112/1 495/113/1 496/110/1
f 497/108/1 498/109/1 499/110/1 500/111/1
f 501/118/1 502/119/1 503/115/1 504/114/1
f 505/120/1 506/121/1 507/107/1 508/106/1
f 509/58/1 510/59/1 511/48/1 512/47/1
f 513/60/1 514/58/1 515/47/1 516/61/1
f 517/109/1 518/112/1 519/113/1 520/110/1
f 521/108/1 522/109/1 523/110/1 524/111/1
f 525/109/1 526/112/1 527/113/1 528/110/1
f 529/108/1 530/109/1 531/110/1 532/111/1
f 533/122/1 534/123/1 535/119/1 536/118/1
f 537/120/1 538/121/1 539/107/1 540/106/1
f 541/58/1 542/59/1 543/48/1 544/47/1
f 545/60/1 546/58/1 547/47/1 548/61/1

