# Tiled2Unity generated file. Do not modify by hand.
# Wavefront file for 'dungeon1_mesh_0093.obj'

# Vertices (Count = 96)
v -3 -1 0
v -4 -1 0
v -4 0 0
v -3 0 0
v -2 -1 0
v -3 -1 0
v -3 0 0
v -2 0 0
v -1 -1 0
v -2 -1 0
v -2 0 0
v -1 0 0
v 0 -1 0
v -1 -1 0
v -1 0 0
v 0 0 0
v -3 -2 0
v -4 -2 0
v -4 -1 0
v -3 -1 0
v -2 -2 0
v -3 -2 0
v -3 -1 0
v -2 -1 0
v -1 -2 0
v -2 -2 0
v -2 -1 0
v -1 -1 0
v 0 -2 0
v -1 -2 0
v -1 -1 0
v 0 -1 0
v -3 -3 0
v -4 -3 0
v -4 -2 0
v -3 -2 0
v -2 -3 0
v -3 -3 0
v -3 -2 0
v -2 -2 0
v -1 -3 0
v -2 -3 0
v -2 -2 0
v -1 -2 0
v 0 -3 0
v -1 -3 0
v -1 -2 0
v 0 -2 0
v -3 -4 0
v -4 -4 0
v -4 -3 0
v -3 -3 0
v -2 -4 0
v -3 -4 0
v -3 -3 0
v -2 -3 0
v -1 -4 0
v -2 -4 0
v -2 -3 0
v -1 -3 0
v 0 -4 0
v -1 -4 0
v -1 -3 0
v 0 -3 0
v -3 -5 0
v -4 -5 0
v -4 -4 0
v -3 -4 0
v -2 -5 0
v -3 -5 0
v -3 -4 0
v -2 -4 0
v -1 -5 0
v -2 -5 0
v -2 -4 0
v -1 -4 0
v 0 -5 0
v -1 -5 0
v -1 -4 0
v 0 -4 0
v -3 -6 0
v -4 -6 0
v -4 -5 0
v -3 -5 0
v -2 -6 0
v -3 -6 0
v -3 -5 0
v -2 -5 0
v -1 -6 0
v -2 -6 0
v -2 -5 0
v -1 -5 0
v 0 -6 0
v -1 -6 0
v -1 -5 0
v 0 -5 0

# Texture cooridinates (Count = 27)
vt 0.6486486 0.3043478
vt 0.6756757 0.3043478
vt 0.6756757 0.3260869
vt 0.6486486 0.3260869
vt 0.6216216 0.3260869
vt 0.6486486 0.3478261
vt 0.6216216 0.3478261
vt 0.5945946 0.3260869
vt 0.5945946 0.3478261
vt 0.5675676 0.3260869
vt 0.5675676 0.3478261
vt 0.6756757 0.3478261
vt 0.6756757 0.3695652
vt 0.6486486 0.3695652
vt 0.6216216 0.3043478
vt 0.5945946 0.3043478
vt 0.5675676 0.3043478
vt 0.5945946 0.2826087
vt 0.6216216 0.2826087
vt 0.5675676 0.2826087
vt 0.6486486 0.2826087
vt 0.6756757 0.2826087
vt 0.6486486 0.2608696
vt 0.6756757 0.2608696
vt 0.6216216 0.2608696
vt 0.5945946 0.2608696
vt 0.5675676 0.2608696

# Normal
vn 0 0 -1

# Mesh description
g dungeon1_mesh_0093

# Faces
f 1/1/1 2/2/1 3/3/1 4/4/1
f 5/5/1 6/4/1 7/6/1 8/7/1
f 9/8/1 10/5/1 11/7/1 12/9/1
f 13/10/1 14/8/1 15/9/1 16/11/1
f 17/6/1 18/12/1 19/13/1 20/14/1
f 21/15/1 22/1/1 23/4/1 24/5/1
f 25/8/1 26/5/1 27/7/1 28/9/1
f 29/10/1 30/8/1 31/9/1 32/11/1
f 33/4/1 34/3/1 35/12/1 36/6/1
f 37/5/1 38/4/1 39/6/1 40/7/1
f 41/16/1 42/15/1 43/5/1 44/8/1
f 45/17/1 46/16/1 47/8/1 48/10/1
f 49/1/1 50/2/1 51/3/1 52/4/1
f 53/15/1 54/1/1 55/4/1 56/5/1
f 57/18/1 58/19/1 59/15/1 60/16/1
f 61/20/1 62/18/1 63/16/1 64/17/1
f 65/21/1 66/22/1 67/2/1 68/1/1
f 69/19/1 70/21/1 71/1/1 72/15/1
f 73/18/1 74/19/1 75/15/1 76/16/1
f 77/20/1 78/18/1 79/16/1 80/17/1
f 81/23/1 82/24/1 83/22/1 84/21/1
f 85/25/1 86/23/1 87/21/1 88/19/1
f 89/26/1 90/25/1 91/19/1 92/18/1
f 93/27/1 94/26/1 95/18/1 96/20/1

