# Tiled2Unity generated file. Do not modify by hand.
# Wavefront file for 'dungeon1_mesh_0114.obj'

# Vertices (Count = 308)
v -14 -1 0
v -15 -1 0
v -15 0 0
v -14 0 0
v -14 -2 0
v -15 -2 0
v -15 -1 0
v -14 -1 0
v -14 -3 0
v -15 -3 0
v -15 -2 0
v -14 -2 0
v -14 -4 0
v -15 -4 0
v -15 -3 0
v -14 -3 0
v -14 -5 0
v -15 -5 0
v -15 -4 0
v -14 -4 0
v -13 -5 0
v -14 -5 0
v -14 -4 0
v -13 -4 0
v -12 -5 0
v -13 -5 0
v -13 -4 0
v -12 -4 0
v -11 -5 0
v -12 -5 0
v -12 -4 0
v -11 -4 0
v -10 -5 0
v -11 -5 0
v -11 -4 0
v -10 -4 0
v -9 -5 0
v -10 -5 0
v -10 -4 0
v -9 -4 0
v -8 -5 0
v -9 -5 0
v -9 -4 0
v -8 -4 0
v -7 -5 0
v -8 -5 0
v -8 -4 0
v -7 -4 0
v -6 -5 0
v -7 -5 0
v -7 -4 0
v -6 -4 0
v 0 -5 0
v -1 -5 0
v -1 -4 0
v 0 -4 0
v -6 -6 0
v -7 -6 0
v -7 -5 0
v -6 -5 0
v 0 -6 0
v -1 -6 0
v -1 -5 0
v 0 -5 0
v -6 -7 0
v -7 -7 0
v -7 -6 0
v -6 -6 0
v 0 -7 0
v -1 -7 0
v -1 -6 0
v 0 -6 0
v -6 -8 0
v -7 -8 0
v -7 -7 0
v -6 -7 0
v 0 -8 0
v -1 -8 0
v -1 -7 0
v 0 -7 0
v -6 -9 0
v -7 -9 0
v -7 -8 0
v -6 -8 0
v 0 -9 0
v -1 -9 0
v -1 -8 0
v 0 -8 0
v -15 -10 0
v -16 -10 0
v -16 -9 0
v -15 -9 0
v -14 -10 0
v -15 -10 0
v -15 -9 0
v -14 -9 0
v -13 -10 0
v -14 -10 0
v -14 -9 0
v -13 -9 0
v -12 -10 0
v -13 -10 0
v -13 -9 0
v -12 -9 0
v -11 -10 0
v -12 -10 0
v -12 -9 0
v -11 -9 0
v -10 -10 0
v -11 -10 0
v -11 -9 0
v -10 -9 0
v -9 -10 0
v -10 -10 0
v -10 -9 0
v -9 -9 0
v -8 -10 0
v -9 -10 0
v -9 -9 0
v -8 -9 0
v -7 -10 0
v -8 -10 0
v -8 -9 0
v -7 -9 0
v -6 -10 0
v -7 -10 0
v -7 -9 0
v -6 -9 0
v 0 -10 0
v -1 -10 0
v -1 -9 0
v 0 -9 0
v -15 -11 0
v -16 -11 0
v -16 -10 0
v -15 -10 0
v -14 -11 0
v -15 -11 0
v -15 -10 0
v -14 -10 0
v -13 -11 0
v -14 -11 0
v -14 -10 0
v -13 -10 0
v -12 -11 0
v -13 -11 0
v -13 -10 0
v -12 -10 0
v -11 -11 0
v -12 -11 0
v -12 -10 0
v -11 -10 0
v -10 -11 0
v -11 -11 0
v -11 -10 0
v -10 -10 0
v -9 -11 0
v -10 -11 0
v -10 -10 0
v -9 -10 0
v -8 -11 0
v -9 -11 0
v -9 -10 0
v -8 -10 0
v -7 -11 0
v -8 -11 0
v -8 -10 0
v -7 -10 0
v -6 -11 0
v -7 -11 0
v -7 -10 0
v -6 -10 0
v 0 -11 0
v -1 -11 0
v -1 -10 0
v 0 -10 0
v -15 -12 0
v -16 -12 0
v -16 -11 0
v -15 -11 0
v -14 -12 0
v -15 -12 0
v -15 -11 0
v -14 -11 0
v -13 -12 0
v -14 -12 0
v -14 -11 0
v -13 -11 0
v -12 -12 0
v -13 -12 0
v -13 -11 0
v -12 -11 0
v -11 -12 0
v -12 -12 0
v -12 -11 0
v -11 -11 0
v -10 -12 0
v -11 -12 0
v -11 -11 0
v -10 -11 0
v -9 -12 0
v -10 -12 0
v -10 -11 0
v -9 -11 0
v -8 -12 0
v -9 -12 0
v -9 -11 0
v -8 -11 0
v -7 -12 0
v -8 -12 0
v -8 -11 0
v -7 -11 0
v -6 -12 0
v -7 -12 0
v -7 -11 0
v -6 -11 0
v 0 -12 0
v -1 -12 0
v -1 -11 0
v 0 -11 0
v -15 -13 0
v -16 -13 0
v -16 -12 0
v -15 -12 0
v -14 -13 0
v -15 -13 0
v -15 -12 0
v -14 -12 0
v -13 -13 0
v -14 -13 0
v -14 -12 0
v -13 -12 0
v -12 -13 0
v -13 -13 0
v -13 -12 0
v -12 -12 0
v -11 -13 0
v -12 -13 0
v -12 -12 0
v -11 -12 0
v -10 -13 0
v -11 -13 0
v -11 -12 0
v -10 -12 0
v -9 -13 0
v -10 -13 0
v -10 -12 0
v -9 -12 0
v -8 -13 0
v -9 -13 0
v -9 -12 0
v -8 -12 0
v -7 -13 0
v -8 -13 0
v -8 -12 0
v -7 -12 0
v -6 -13 0
v -7 -13 0
v -7 -12 0
v -6 -12 0
v 0 -13 0
v -1 -13 0
v -1 -12 0
v 0 -12 0
v -15 -14 0
v -16 -14 0
v -16 -13 0
v -15 -13 0
v -14 -14 0
v -15 -14 0
v -15 -13 0
v -14 -13 0
v -13 -14 0
v -14 -14 0
v -14 -13 0
v -13 -13 0
v -12 -14 0
v -13 -14 0
v -13 -13 0
v -12 -13 0
v -11 -14 0
v -12 -14 0
v -12 -13 0
v -11 -13 0
v -10 -14 0
v -11 -14 0
v -11 -13 0
v -10 -13 0
v -9 -14 0
v -10 -14 0
v -10 -13 0
v -9 -13 0
v -8 -14 0
v -9 -14 0
v -9 -13 0
v -8 -13 0
v -7 -14 0
v -8 -14 0
v -8 -13 0
v -7 -13 0
v -6 -14 0
v -7 -14 0
v -7 -13 0
v -6 -13 0
v 0 -14 0
v -1 -14 0
v -1 -13 0
v 0 -13 0

# Texture cooridinates (Count = 87)
vt 0.1621622 0.9347826
vt 0.1891892 0.9347826
vt 0.1891892 0.9565217
vt 0.1621622 0.9565217
vt 0.1621622 0.9130435
vt 0.1891892 0.9130435
vt 0.2432432 0.9782609
vt 0.2702703 0.9782609
vt 0.2702703 1
vt 0.2432432 1
vt 0.2162162 0.9782609
vt 0.2162162 1
vt 0.1891892 0.9782609
vt 0.1891892 1
vt 0.1621622 0.9782609
vt 0.1621622 1
vt 0.4054054 0.9782609
vt 0.4324324 0.9782609
vt 0.4324324 1
vt 0.4054054 1
vt 0.1621622 0.8913044
vt 0.1891892 0.8913044
vt 0.4054054 0.9130435
vt 0.4324324 0.9130435
vt 0.4324324 0.9347826
vt 0.4054054 0.9347826
vt 0.1621622 0.8695652
vt 0.1891892 0.8695652
vt 0.4054054 0.8913044
vt 0.4324324 0.8913044
vt 0.3243243 0.8260869
vt 0.3513514 0.8260869
vt 0.3513514 0.8478261
vt 0.3243243 0.8478261
vt 0.2972973 0.8260869
vt 0.2972973 0.8478261
vt 0.2702703 0.8260869
vt 0.2702703 0.8478261
vt 0.2432432 0.8260869
vt 0.2432432 0.8478261
vt 0.2162162 0.8260869
vt 0.2162162 0.8478261
vt 0.1891892 0.8260869
vt 0.1891892 0.8478261
vt 0.1621622 0.8260869
vt 0.1621622 0.8478261
vt 0.4054054 0.8260869
vt 0.4324324 0.8260869
vt 0.4324324 0.8478261
vt 0.4054054 0.8478261
vt 0.3243243 0.8043478
vt 0.3513514 0.8043478
vt 0.2972973 0.8043478
vt 0.2702703 0.8043478
vt 0.2432432 0.8043478
vt 0.2162162 0.8043478
vt 0.1891892 0.8043478
vt 0.1621622 0.8043478
vt 0.4054054 0.8043478
vt 0.4324324 0.8043478
vt 0.3243243 0.7826087
vt 0.3513514 0.7826087
vt 0.2972973 0.7826087
vt 0.2702703 0.7826087
vt 0.2432432 0.7826087
vt 0.2162162 0.7826087
vt 0.1891892 0.7826087
vt 0.1621622 0.7826087
vt 0.4054054 0.7826087
vt 0.4324324 0.7826087
vt 0.3243243 0.7608696
vt 0.3513514 0.7608696
vt 0.2972973 0.7608696
vt 0.2702703 0.7608696
vt 0.2432432 0.7608696
vt 0.2162162 0.7608696
vt 0.1891892 0.7608696
vt 0.1621622 0.7608696
vt 0.4054054 0.7608696
vt 0.4324324 0.7608696
vt 0.3243243 0.7391304
vt 0.3513514 0.7391304
vt 0.2972973 0.7391304
vt 0.2702703 0.7391304
vt 0.2432432 0.7391304
vt 0.2162162 0.7391304
vt 0.1891892 0.7391304

# Normal
vn 0 0 -1

# Mesh description
g dungeon1_mesh_0114

# Faces
f 1/1/1 2/2/1 3/3/1 4/4/1
f 5/1/1 6/2/1 7/3/1 8/4/1
f 9/1/1 10/2/1 11/3/1 12/4/1
f 13/5/1 14/6/1 15/2/1 16/1/1
f 17/7/1 18/8/1 19/9/1 20/10/1
f 21/11/1 22/7/1 23/10/1 24/12/1
f 25/11/1 26/7/1 27/10/1 28/12/1
f 29/13/1 30/11/1 31/12/1 32/14/1
f 33/13/1 34/11/1 35/12/1 36/14/1
f 37/13/1 38/11/1 39/12/1 40/14/1
f 41/13/1 42/11/1 43/12/1 44/14/1
f 45/13/1 46/11/1 47/12/1 48/14/1
f 49/15/1 50/13/1 51/14/1 52/16/1
f 53/17/1 54/18/1 55/19/1 56/20/1
f 57/21/1 58/22/1 59/6/1 60/5/1
f 61/23/1 62/24/1 63/25/1 64/26/1
f 65/27/1 66/28/1 67/22/1 68/21/1
f 69/29/1 70/30/1 71/24/1 72/23/1
f 73/21/1 74/22/1 75/6/1 76/5/1
f 77/23/1 78/24/1 79/25/1 80/26/1
f 81/27/1 82/28/1 83/22/1 84/21/1
f 85/29/1 86/30/1 87/24/1 88/23/1
f 89/31/1 90/32/1 91/33/1 92/34/1
f 93/35/1 94/31/1 95/34/1 96/36/1
f 97/37/1 98/35/1 99/36/1 100/38/1
f 101/39/1 102/37/1 103/38/1 104/40/1
f 105/41/1 106/39/1 107/40/1 108/42/1
f 109/43/1 110/41/1 111/42/1 112/44/1
f 113/39/1 114/37/1 115/38/1 116/40/1
f 117/41/1 118/39/1 119/40/1 120/42/1
f 121/43/1 122/41/1 123/42/1 124/44/1
f 125/45/1 126/43/1 127/44/1 128/46/1
f 129/47/1 130/48/1 131/49/1 132/50/1
f 133/51/1 134/52/1 135/32/1 136/31/1
f 137/53/1 138/51/1 139/31/1 140/35/1
f 141/54/1 142/53/1 143/35/1 144/37/1
f 145/55/1 146/54/1 147/37/1 148/39/1
f 149/56/1 150/55/1 151/39/1 152/41/1
f 153/57/1 154/56/1 155/41/1 156/43/1
f 157/55/1 158/54/1 159/37/1 160/39/1
f 161/56/1 162/55/1 163/39/1 164/41/1
f 165/57/1 166/56/1 167/41/1 168/43/1
f 169/58/1 170/57/1 171/43/1 172/45/1
f 173/59/1 174/60/1 175/48/1 176/47/1
f 177/61/1 178/62/1 179/52/1 180/51/1
f 181/63/1 182/61/1 183/51/1 184/53/1
f 185/64/1 186/63/1 187/53/1 188/54/1
f 189/65/1 190/64/1 191/54/1 192/55/1
f 193/66/1 194/65/1 195/55/1 196/56/1
f 197/67/1 198/66/1 199/56/1 200/57/1
f 201/65/1 202/64/1 203/54/1 204/55/1
f 205/66/1 206/65/1 207/55/1 208/56/1
f 209/67/1 210/66/1 211/56/1 212/57/1
f 213/68/1 214/67/1 215/57/1 216/58/1
f 217/69/1 218/70/1 219/60/1 220/59/1
f 221/71/1 222/72/1 223/62/1 224/61/1
f 225/73/1 226/71/1 227/61/1 228/63/1
f 229/74/1 230/73/1 231/63/1 232/64/1
f 233/75/1 234/74/1 235/64/1 236/65/1
f 237/76/1 238/75/1 239/65/1 240/66/1
f 241/77/1 242/76/1 243/66/1 244/67/1
f 245/75/1 246/74/1 247/64/1 248/65/1
f 249/76/1 250/75/1 251/65/1 252/66/1
f 253/77/1 254/76/1 255/66/1 256/67/1
f 257/78/1 258/77/1 259/67/1 260/68/1
f 261/79/1 262/80/1 263/70/1 264/69/1
f 265/81/1 266/82/1 267/72/1 268/71/1
f 269/83/1 270/81/1 271/71/1 272/73/1
f 273/84/1 274/83/1 275/73/1 276/74/1
f 277/85/1 278/84/1 279/74/1 280/75/1
f 281/86/1 282/85/1 283/75/1 284/76/1
f 285/87/1 286/86/1 287/76/1 288/77/1
f 289/85/1 290/84/1 291/74/1 292/75/1
f 293/86/1 294/85/1 295/75/1 296/76/1
f 297/87/1 298/86/1 299/76/1 300/77/1
f 301/87/1 302/86/1 303/76/1 304/77/1
f 305/86/1 306/85/1 307/75/1 308/76/1

