# Tiled2Unity generated file. Do not modify by hand.
# Wavefront file for 'dungeon1_mesh_0035.obj'

# Vertices (Count = 136)
v -2 -7 0
v -3 -7 0
v -3 -6 0
v -2 -6 0
v -1 -7 0
v -2 -7 0
v -2 -6 0
v -1 -6 0
v 0 -7 0
v -1 -7 0
v -1 -6 0
v 0 -6 0
v -2 -8 0
v -3 -8 0
v -3 -7 0
v -2 -7 0
v -1 -8 0
v -2 -8 0
v -2 -7 0
v -1 -7 0
v 0 -8 0
v -1 -8 0
v -1 -7 0
v 0 -7 0
v -2 -9 0
v -3 -9 0
v -3 -8 0
v -2 -8 0
v -1 -9 0
v -2 -9 0
v -2 -8 0
v -1 -8 0
v 0 -9 0
v -1 -9 0
v -1 -8 0
v 0 -8 0
v -2 -10 0
v -3 -10 0
v -3 -9 0
v -2 -9 0
v -1 -10 0
v -2 -10 0
v -2 -9 0
v -1 -9 0
v 0 -10 0
v -1 -10 0
v -1 -9 0
v 0 -9 0
v -2 -11 0
v -3 -11 0
v -3 -10 0
v -2 -10 0
v -1 -11 0
v -2 -11 0
v -2 -10 0
v -1 -10 0
v 0 -11 0
v -1 -11 0
v -1 -10 0
v 0 -10 0
v -2 -12 0
v -3 -12 0
v -3 -11 0
v -2 -11 0
v -1 -12 0
v -2 -12 0
v -2 -11 0
v -1 -11 0
v 0 -12 0
v -1 -12 0
v -1 -11 0
v 0 -11 0
v -3 -13 0
v -4 -13 0
v -4 -12 0
v -3 -12 0
v -2 -13 0
v -3 -13 0
v -3 -12 0
v -2 -12 0
v -1 -13 0
v -2 -13 0
v -2 -12 0
v -1 -12 0
v 0 -13 0
v -1 -13 0
v -1 -12 0
v 0 -12 0
v -3 -14 0
v -4 -14 0
v -4 -13 0
v -3 -13 0
v -2 -14 0
v -3 -14 0
v -3 -13 0
v -2 -13 0
v -1 -14 0
v -2 -14 0
v -2 -13 0
v -1 -13 0
v 0 -14 0
v -1 -14 0
v -1 -13 0
v 0 -13 0
v -3 -15 0
v -4 -15 0
v -4 -14 0
v -3 -14 0
v -2 -15 0
v -3 -15 0
v -3 -14 0
v -2 -14 0
v -1 -15 0
v -2 -15 0
v -2 -14 0
v -1 -14 0
v 0 -15 0
v -1 -15 0
v -1 -14 0
v 0 -14 0
v -3 -16 0
v -4 -16 0
v -4 -15 0
v -3 -15 0
v -2 -16 0
v -3 -16 0
v -3 -15 0
v -2 -15 0
v -1 -16 0
v -2 -16 0
v -2 -15 0
v -1 -15 0
v 0 -16 0
v -1 -16 0
v -1 -15 0
v 0 -15 0

# Texture cooridinates (Count = 24)
vt 0.1081081 0.1956522
vt 0.1351351 0.1956522
vt 0.1351351 0.2173913
vt 0.1081081 0.2173913
vt 0.08108108 0.1956522
vt 0.08108108 0.2173913
vt 0.05405406 0.1956522
vt 0.05405406 0.2173913
vt 0.1081081 0.1739131
vt 0.1351351 0.1739131
vt 0.08108108 0.1739131
vt 0.05405406 0.1739131
vt 0.2972973 0.9347826
vt 0.3243243 0.9347826
vt 0.3243243 0.9565217
vt 0.2972973 0.9565217
vt 0.2702703 0.9347826
vt 0.2702703 0.9565217
vt 0.2432432 0.9347826
vt 0.2432432 0.9565217
vt 0.2162162 0.9347826
vt 0.2162162 0.9565217
vt 0.2972973 0.9130435
vt 0.3243243 0.9130435

# Normal
vn 0 0 -1

# Mesh description
g dungeon1_mesh_0035

# Faces
f 1/1/1 2/2/1 3/3/1 4/4/1
f 5/5/1 6/1/1 7/4/1 8/6/1
f 9/7/1 10/5/1 11/6/1 12/8/1
f 13/9/1 14/10/1 15/2/1 16/1/1
f 17/11/1 18/9/1 19/1/1 20/5/1
f 21/12/1 22/11/1 23/5/1 24/7/1
f 25/13/1 26/14/1 27/15/1 28/16/1
f 29/17/1 30/13/1 31/16/1 32/18/1
f 33/19/1 34/17/1 35/18/1 36/20/1
f 37/13/1 38/14/1 39/15/1 40/16/1
f 41/17/1 42/13/1 43/16/1 44/18/1
f 45/19/1 46/17/1 47/18/1 48/20/1
f 49/13/1 50/14/1 51/15/1 52/16/1
f 53/17/1 54/13/1 55/16/1 56/18/1
f 57/19/1 58/17/1 59/18/1 60/20/1
f 61/13/1 62/14/1 63/15/1 64/16/1
f 65/17/1 66/13/1 67/16/1 68/18/1
f 69/19/1 70/17/1 71/18/1 72/20/1
f 73/13/1 74/14/1 75/15/1 76/16/1
f 77/17/1 78/13/1 79/16/1 80/18/1
f 81/19/1 82/17/1 83/18/1 84/20/1
f 85/21/1 86/19/1 87/20/1 88/22/1
f 89/13/1 90/14/1 91/15/1 92/16/1
f 93/17/1 94/13/1 95/16/1 96/18/1
f 97/19/1 98/17/1 99/18/1 100/20/1
f 101/21/1 102/19/1 103/20/1 104/22/1
f 105/13/1 106/14/1 107/15/1 108/16/1
f 109/13/1 110/14/1 111/15/1 112/16/1
f 113/17/1 114/13/1 115/16/1 116/18/1
f 117/19/1 118/17/1 119/18/1 120/20/1
f 121/23/1 122/24/1 123/14/1 124/13/1
f 125/13/1 126/14/1 127/15/1 128/16/1
f 129/17/1 130/13/1 131/16/1 132/18/1
f 133/19/1 134/17/1 135/18/1 136/20/1

