# Tiled2Unity generated file. Do not modify by hand.
# Wavefront file for 'dungeon1_mesh_0041.obj'

# Vertices (Count = 612)
v -3 -1 0
v -4 -1 0
v -4 0 0
v -3 0 0
v -2 -1 0
v -3 -1 0
v -3 0 0
v -2 0 0
v -1 -1 0
v -2 -1 0
v -2 0 0
v -1 0 0
v 0 -1 0
v -1 -1 0
v -1 0 0
v 0 0 0
v -15 -2 0
v -16 -2 0
v -16 -1 0
v -15 -1 0
v -14 -2 0
v -15 -2 0
v -15 -1 0
v -14 -1 0
v -13 -2 0
v -14 -2 0
v -14 -1 0
v -13 -1 0
v -5 -2 0
v -6 -2 0
v -6 -1 0
v -5 -1 0
v -4 -2 0
v -5 -2 0
v -5 -1 0
v -4 -1 0
v -3 -2 0
v -4 -2 0
v -4 -1 0
v -3 -1 0
v -2 -2 0
v -3 -2 0
v -3 -1 0
v -2 -1 0
v -1 -2 0
v -2 -2 0
v -2 -1 0
v -1 -1 0
v 0 -2 0
v -1 -2 0
v -1 -1 0
v 0 -1 0
v -15 -3 0
v -16 -3 0
v -16 -2 0
v -15 -2 0
v -14 -3 0
v -15 -3 0
v -15 -2 0
v -14 -2 0
v -13 -3 0
v -14 -3 0
v -14 -2 0
v -13 -2 0
v -5 -3 0
v -6 -3 0
v -6 -2 0
v -5 -2 0
v -4 -3 0
v -5 -3 0
v -5 -2 0
v -4 -2 0
v -3 -3 0
v -4 -3 0
v -4 -2 0
v -3 -2 0
v -2 -3 0
v -3 -3 0
v -3 -2 0
v -2 -2 0
v -1 -3 0
v -2 -3 0
v -2 -2 0
v -1 -2 0
v 0 -3 0
v -1 -3 0
v -1 -2 0
v 0 -2 0
v -15 -4 0
v -16 -4 0
v -16 -3 0
v -15 -3 0
v -14 -4 0
v -15 -4 0
v -15 -3 0
v -14 -3 0
v -13 -4 0
v -14 -4 0
v -14 -3 0
v -13 -3 0
v -5 -4 0
v -6 -4 0
v -6 -3 0
v -5 -3 0
v -4 -4 0
v -5 -4 0
v -5 -3 0
v -4 -3 0
v -3 -4 0
v -4 -4 0
v -4 -3 0
v -3 -3 0
v -2 -4 0
v -3 -4 0
v -3 -3 0
v -2 -3 0
v -1 -4 0
v -2 -4 0
v -2 -3 0
v -1 -3 0
v 0 -4 0
v -1 -4 0
v -1 -3 0
v 0 -3 0
v -15 -5 0
v -16 -5 0
v -16 -4 0
v -15 -4 0
v -14 -5 0
v -15 -5 0
v -15 -4 0
v -14 -4 0
v -13 -5 0
v -14 -5 0
v -14 -4 0
v -13 -4 0
v -5 -5 0
v -6 -5 0
v -6 -4 0
v -5 -4 0
v -4 -5 0
v -5 -5 0
v -5 -4 0
v -4 -4 0
v -3 -5 0
v -4 -5 0
v -4 -4 0
v -3 -4 0
v -2 -5 0
v -3 -5 0
v -3 -4 0
v -2 -4 0
v -1 -5 0
v -2 -5 0
v -2 -4 0
v -1 -4 0
v 0 -5 0
v -1 -5 0
v -1 -4 0
v 0 -4 0
v -15 -6 0
v -16 -6 0
v -16 -5 0
v -15 -5 0
v -14 -6 0
v -15 -6 0
v -15 -5 0
v -14 -5 0
v -13 -6 0
v -14 -6 0
v -14 -5 0
v -13 -5 0
v -5 -6 0
v -6 -6 0
v -6 -5 0
v -5 -5 0
v -4 -6 0
v -5 -6 0
v -5 -5 0
v -4 -5 0
v -3 -6 0
v -4 -6 0
v -4 -5 0
v -3 -5 0
v -2 -6 0
v -3 -6 0
v -3 -5 0
v -2 -5 0
v -1 -6 0
v -2 -6 0
v -2 -5 0
v -1 -5 0
v 0 -6 0
v -1 -6 0
v -1 -5 0
v 0 -5 0
v -15 -7 0
v -16 -7 0
v -16 -6 0
v -15 -6 0
v -14 -7 0
v -15 -7 0
v -15 -6 0
v -14 -6 0
v -13 -7 0
v -14 -7 0
v -14 -6 0
v -13 -6 0
v -5 -7 0
v -6 -7 0
v -6 -6 0
v -5 -6 0
v -4 -7 0
v -5 -7 0
v -5 -6 0
v -4 -6 0
v -3 -7 0
v -4 -7 0
v -4 -6 0
v -3 -6 0
v -2 -7 0
v -3 -7 0
v -3 -6 0
v -2 -6 0
v -1 -7 0
v -2 -7 0
v -2 -6 0
v -1 -6 0
v 0 -7 0
v -1 -7 0
v -1 -6 0
v 0 -6 0
v -15 -8 0
v -16 -8 0
v -16 -7 0
v -15 -7 0
v -14 -8 0
v -15 -8 0
v -15 -7 0
v -14 -7 0
v -13 -8 0
v -14 -8 0
v -14 -7 0
v -13 -7 0
v -10 -8 0
v -11 -8 0
v -11 -7 0
v -10 -7 0
v -5 -8 0
v -6 -8 0
v -6 -7 0
v -5 -7 0
v -4 -8 0
v -5 -8 0
v -5 -7 0
v -4 -7 0
v -3 -8 0
v -4 -8 0
v -4 -7 0
v -3 -7 0
v -2 -8 0
v -3 -8 0
v -3 -7 0
v -2 -7 0
v -1 -8 0
v -2 -8 0
v -2 -7 0
v -1 -7 0
v 0 -8 0
v -1 -8 0
v -1 -7 0
v 0 -7 0
v -15 -9 0
v -16 -9 0
v -16 -8 0
v -15 -8 0
v -14 -9 0
v -15 -9 0
v -15 -8 0
v -14 -8 0
v -13 -9 0
v -14 -9 0
v -14 -8 0
v -13 -8 0
v -10 -9 0
v -11 -9 0
v -11 -8 0
v -10 -8 0
v -8 -9 0
v -9 -9 0
v -9 -8 0
v -8 -8 0
v -5 -9 0
v -6 -9 0
v -6 -8 0
v -5 -8 0
v -4 -9 0
v -5 -9 0
v -5 -8 0
v -4 -8 0
v -3 -9 0
v -4 -9 0
v -4 -8 0
v -3 -8 0
v -2 -9 0
v -3 -9 0
v -3 -8 0
v -2 -8 0
v -1 -9 0
v -2 -9 0
v -2 -8 0
v -1 -8 0
v 0 -9 0
v -1 -9 0
v -1 -8 0
v 0 -8 0
v -15 -10 0
v -16 -10 0
v -16 -9 0
v -15 -9 0
v -14 -10 0
v -15 -10 0
v -15 -9 0
v -14 -9 0
v -13 -10 0
v -14 -10 0
v -14 -9 0
v -13 -9 0
v -11 -10 0
v -12 -10 0
v -12 -9 0
v -11 -9 0
v -10 -10 0
v -11 -10 0
v -11 -9 0
v -10 -9 0
v -9 -10 0
v -10 -10 0
v -10 -9 0
v -9 -9 0
v -8 -10 0
v -9 -10 0
v -9 -9 0
v -8 -9 0
v -5 -10 0
v -6 -10 0
v -6 -9 0
v -5 -9 0
v -4 -10 0
v -5 -10 0
v -5 -9 0
v -4 -9 0
v -3 -10 0
v -4 -10 0
v -4 -9 0
v -3 -9 0
v -2 -10 0
v -3 -10 0
v -3 -9 0
v -2 -9 0
v -1 -10 0
v -2 -10 0
v -2 -9 0
v -1 -9 0
v 0 -10 0
v -1 -10 0
v -1 -9 0
v 0 -9 0
v -15 -11 0
v -16 -11 0
v -16 -10 0
v -15 -10 0
v -14 -11 0
v -15 -11 0
v -15 -10 0
v -14 -10 0
v -13 -11 0
v -14 -11 0
v -14 -10 0
v -13 -10 0
v -12 -11 0
v -13 -11 0
v -13 -10 0
v -12 -10 0
v -11 -11 0
v -12 -11 0
v -12 -10 0
v -11 -10 0
v -10 -11 0
v -11 -11 0
v -11 -10 0
v -10 -10 0
v -8 -11 0
v -9 -11 0
v -9 -10 0
v -8 -10 0
v -7 -11 0
v -8 -11 0
v -8 -10 0
v -7 -10 0
v -6 -11 0
v -7 -11 0
v -7 -10 0
v -6 -10 0
v -5 -11 0
v -6 -11 0
v -6 -10 0
v -5 -10 0
v -4 -11 0
v -5 -11 0
v -5 -10 0
v -4 -10 0
v -3 -11 0
v -4 -11 0
v -4 -10 0
v -3 -10 0
v -2 -11 0
v -3 -11 0
v -3 -10 0
v -2 -10 0
v -1 -11 0
v -2 -11 0
v -2 -10 0
v -1 -10 0
v 0 -11 0
v -1 -11 0
v -1 -10 0
v 0 -10 0
v -15 -12 0
v -16 -12 0
v -16 -11 0
v -15 -11 0
v -14 -12 0
v -15 -12 0
v -15 -11 0
v -14 -11 0
v -13 -12 0
v -14 -12 0
v -14 -11 0
v -13 -11 0
v -10 -12 0
v -11 -12 0
v -11 -11 0
v -10 -11 0
v -5 -12 0
v -6 -12 0
v -6 -11 0
v -5 -11 0
v -4 -12 0
v -5 -12 0
v -5 -11 0
v -4 -11 0
v -3 -12 0
v -4 -12 0
v -4 -11 0
v -3 -11 0
v -2 -12 0
v -3 -12 0
v -3 -11 0
v -2 -11 0
v -1 -12 0
v -2 -12 0
v -2 -11 0
v -1 -11 0
v 0 -12 0
v -1 -12 0
v -1 -11 0
v 0 -11 0
v -15 -13 0
v -16 -13 0
v -16 -12 0
v -15 -12 0
v -14 -13 0
v -15 -13 0
v -15 -12 0
v -14 -12 0
v -13 -13 0
v -14 -13 0
v -14 -12 0
v -13 -12 0
v -5 -13 0
v -6 -13 0
v -6 -12 0
v -5 -12 0
v -4 -13 0
v -5 -13 0
v -5 -12 0
v -4 -12 0
v -3 -13 0
v -4 -13 0
v -4 -12 0
v -3 -12 0
v -2 -13 0
v -3 -13 0
v -3 -12 0
v -2 -12 0
v -1 -13 0
v -2 -13 0
v -2 -12 0
v -1 -12 0
v 0 -13 0
v -1 -13 0
v -1 -12 0
v 0 -12 0
v -15 -14 0
v -16 -14 0
v -16 -13 0
v -15 -13 0
v -14 -14 0
v -15 -14 0
v -15 -13 0
v -14 -13 0
v -13 -14 0
v -14 -14 0
v -14 -13 0
v -13 -13 0
v -5 -14 0
v -6 -14 0
v -6 -13 0
v -5 -13 0
v -4 -14 0
v -5 -14 0
v -5 -13 0
v -4 -13 0
v -3 -14 0
v -4 -14 0
v -4 -13 0
v -3 -13 0
v -2 -14 0
v -3 -14 0
v -3 -13 0
v -2 -13 0
v -1 -14 0
v -2 -14 0
v -2 -13 0
v -1 -13 0
v 0 -14 0
v -1 -14 0
v -1 -13 0
v 0 -13 0
v -15 -15 0
v -16 -15 0
v -16 -14 0
v -15 -14 0
v -14 -15 0
v -15 -15 0
v -15 -14 0
v -14 -14 0
v -13 -15 0
v -14 -15 0
v -14 -14 0
v -13 -14 0
v -5 -15 0
v -6 -15 0
v -6 -14 0
v -5 -14 0
v -4 -15 0
v -5 -15 0
v -5 -14 0
v -4 -14 0
v -3 -15 0
v -4 -15 0
v -4 -14 0
v -3 -14 0
v -2 -15 0
v -3 -15 0
v -3 -14 0
v -2 -14 0
v -1 -15 0
v -2 -15 0
v -2 -14 0
v -1 -14 0
v 0 -15 0
v -1 -15 0
v -1 -14 0
v 0 -14 0
v -15 -16 0
v -16 -16 0
v -16 -15 0
v -15 -15 0
v -14 -16 0
v -15 -16 0
v -15 -15 0
v -14 -15 0
v -13 -16 0
v -14 -16 0
v -14 -15 0
v -13 -15 0
v -5 -16 0
v -6 -16 0
v -6 -15 0
v -5 -15 0
v -4 -16 0
v -5 -16 0
v -5 -15 0
v -4 -15 0
v -3 -16 0
v -4 -16 0
v -4 -15 0
v -3 -15 0
v -2 -16 0
v -3 -16 0
v -3 -15 0
v -2 -15 0
v -1 -16 0
v -2 -16 0
v -2 -15 0
v -1 -15 0
v 0 -16 0
v -1 -16 0
v -1 -15 0
v 0 -15 0

# Texture cooridinates (Count = 25)
vt 0.2972973 0.8913044
vt 0.3243243 0.8913044
vt 0.3243243 0.9130435
vt 0.2972973 0.9130435
vt 0.2972973 0.9347826
vt 0.3243243 0.9347826
vt 0.3243243 0.9565217
vt 0.2972973 0.9565217
vt 0.2702703 0.9347826
vt 0.2702703 0.9565217
vt 0.2432432 0.9347826
vt 0.2432432 0.9565217
vt 0.2162162 0.9347826
vt 0.2162162 0.9565217
vt 0.2702703 0.9130435
vt 0.2432432 0.9130435
vt 0.2162162 0.9130435
vt 0.2702703 0.8913044
vt 0.2432432 0.8913044
vt 0.2162162 0.8913044
vt 0.2972973 0.8695652
vt 0.3243243 0.8695652
vt 0.2702703 0.8695652
vt 0.2432432 0.8695652
vt 0.2162162 0.8695652

# Normal
vn 0 0 -1

# Mesh description
g dungeon1_mesh_0041

# Faces
f 1/1/1 2/2/1 3/3/1 4/4/1
f 5/5/1 6/6/1 7/7/1 8/8/1
f 9/9/1 10/5/1 11/8/1 12/10/1
f 13/11/1 14/9/1 15/10/1 16/12/1
f 17/5/1 18/6/1 19/7/1 20/8/1
f 21/5/1 22/6/1 23/7/1 24/8/1
f 25/9/1 26/5/1 27/8/1 28/10/1
f 29/5/1 30/6/1 31/7/1 32/8/1
f 33/9/1 34/5/1 35/8/1 36/10/1
f 37/5/1 38/6/1 39/7/1 40/8/1
f 41/9/1 42/5/1 43/8/1 44/10/1
f 45/11/1 46/9/1 47/10/1 48/12/1
f 49/13/1 50/11/1 51/12/1 52/14/1
f 53/4/1 54/3/1 55/6/1 56/5/1
f 57/5/1 58/6/1 59/7/1 60/8/1
f 61/9/1 62/5/1 63/8/1 64/10/1
f 65/5/1 66/6/1 67/7/1 68/8/1
f 69/9/1 70/5/1 71/8/1 72/10/1
f 73/4/1 74/3/1 75/6/1 76/5/1
f 77/15/1 78/4/1 79/5/1 80/9/1
f 81/16/1 82/15/1 83/9/1 84/11/1
f 85/17/1 86/16/1 87/11/1 88/13/1
f 89/1/1 90/2/1 91/3/1 92/4/1
f 93/5/1 94/6/1 95/7/1 96/8/1
f 97/9/1 98/5/1 99/8/1 100/10/1
f 101/5/1 102/6/1 103/7/1 104/8/1
f 105/9/1 106/5/1 107/8/1 108/10/1
f 109/1/1 110/2/1 111/3/1 112/4/1
f 113/18/1 114/1/1 115/4/1 116/15/1
f 117/19/1 118/18/1 119/15/1 120/16/1
f 121/20/1 122/19/1 123/16/1 124/17/1
f 125/18/1 126/1/1 127/4/1 128/15/1
f 129/5/1 130/6/1 131/7/1 132/8/1
f 133/9/1 134/5/1 135/8/1 136/10/1
f 137/5/1 138/6/1 139/7/1 140/8/1
f 141/9/1 142/5/1 143/8/1 144/10/1
f 145/21/1 146/22/1 147/2/1 148/1/1
f 149/23/1 150/21/1 151/1/1 152/18/1
f 153/24/1 154/23/1 155/18/1 156/19/1
f 157/25/1 158/24/1 159/19/1 160/20/1
f 161/18/1 162/1/1 163/4/1 164/15/1
f 165/5/1 166/6/1 167/7/1 168/8/1
f 169/9/1 170/5/1 171/8/1 172/10/1
f 173/5/1 174/6/1 175/7/1 176/8/1
f 177/9/1 178/5/1 179/8/1 180/10/1
f 181/21/1 182/22/1 183/2/1 184/1/1
f 185/5/1 186/6/1 187/7/1 188/8/1
f 189/5/1 190/6/1 191/7/1 192/8/1
f 193/5/1 194/6/1 195/7/1 196/8/1
f 197/18/1 198/1/1 199/4/1 200/15/1
f 201/5/1 202/6/1 203/7/1 204/8/1
f 205/9/1 206/5/1 207/8/1 208/10/1
f 209/5/1 210/6/1 211/7/1 212/8/1
f 213/9/1 214/5/1 215/8/1 216/10/1
f 217/5/1 218/6/1 219/7/1 220/8/1
f 221/4/1 222/3/1 223/6/1 224/5/1
f 225/5/1 226/6/1 227/7/1 228/8/1
f 229/4/1 230/3/1 231/6/1 232/5/1
f 233/18/1 234/1/1 235/4/1 236/15/1
f 237/5/1 238/6/1 239/7/1 240/8/1
f 241/9/1 242/5/1 243/8/1 244/10/1
f 245/15/1 246/4/1 247/5/1 248/9/1
f 249/5/1 250/6/1 251/7/1 252/8/1
f 253/9/1 254/5/1 255/8/1 256/10/1
f 257/4/1 258/3/1 259/6/1 260/5/1
f 261/1/1 262/2/1 263/3/1 264/4/1
f 265/5/1 266/6/1 267/7/1 268/8/1
f 269/1/1 270/2/1 271/3/1 272/4/1
f 273/18/1 274/1/1 275/4/1 276/15/1
f 277/5/1 278/6/1 279/7/1 280/8/1
f 281/9/1 282/5/1 283/8/1 284/10/1
f 285/15/1 286/4/1 287/5/1 288/9/1
f 289/15/1 290/4/1 291/5/1 292/9/1
f 293/5/1 294/6/1 295/7/1 296/8/1
f 297/9/1 298/5/1 299/8/1 300/10/1
f 301/1/1 302/2/1 303/3/1 304/4/1
f 305/1/1 306/2/1 307/3/1 308/4/1
f 309/5/1 310/6/1 311/7/1 312/8/1
f 313/1/1 314/2/1 315/3/1 316/4/1
f 317/18/1 318/1/1 319/4/1 320/15/1
f 321/5/1 322/6/1 323/7/1 324/8/1
f 325/9/1 326/5/1 327/8/1 328/10/1
f 329/15/1 330/4/1 331/5/1 332/9/1
f 333/15/1 334/4/1 335/5/1 336/9/1
f 337/15/1 338/4/1 339/5/1 340/9/1
f 341/15/1 342/4/1 343/5/1 344/9/1
f 345/5/1 346/6/1 347/7/1 348/8/1
f 349/9/1 350/5/1 351/8/1 352/10/1
f 353/1/1 354/2/1 355/3/1 356/4/1
f 357/18/1 358/1/1 359/4/1 360/15/1
f 361/5/1 362/6/1 363/7/1 364/8/1
f 365/1/1 366/2/1 367/3/1 368/4/1
f 369/18/1 370/1/1 371/4/1 372/15/1
f 373/5/1 374/6/1 375/7/1 376/8/1
f 377/9/1 378/5/1 379/8/1 380/10/1
f 381/9/1 382/5/1 383/8/1 384/10/1
f 385/15/1 386/4/1 387/5/1 388/9/1
f 389/15/1 390/4/1 391/5/1 392/9/1
f 393/15/1 394/4/1 395/5/1 396/9/1
f 397/15/1 398/4/1 399/5/1 400/9/1
f 401/9/1 402/5/1 403/8/1 404/10/1
f 405/5/1 406/6/1 407/7/1 408/8/1
f 409/9/1 410/5/1 411/8/1 412/10/1
f 413/1/1 414/2/1 415/3/1 416/4/1
f 417/18/1 418/1/1 419/4/1 420/15/1
f 421/5/1 422/6/1 423/7/1 424/8/1
f 425/1/1 426/2/1 427/3/1 428/4/1
f 429/18/1 430/1/1 431/4/1 432/15/1
f 433/5/1 434/6/1 435/7/1 436/8/1
f 437/9/1 438/5/1 439/8/1 440/10/1
f 441/15/1 442/4/1 443/5/1 444/9/1
f 445/5/1 446/6/1 447/7/1 448/8/1
f 449/9/1 450/5/1 451/8/1 452/10/1
f 453/1/1 454/2/1 455/3/1 456/4/1
f 457/18/1 458/1/1 459/4/1 460/15/1
f 461/5/1 462/6/1 463/7/1 464/8/1
f 465/1/1 466/2/1 467/3/1 468/4/1
f 469/18/1 470/1/1 471/4/1 472/15/1
f 473/4/1 474/3/1 475/6/1 476/5/1
f 477/15/1 478/4/1 479/5/1 480/9/1
f 481/5/1 482/6/1 483/7/1 484/8/1
f 485/9/1 486/5/1 487/8/1 488/10/1
f 489/1/1 490/2/1 491/3/1 492/4/1
f 493/18/1 494/1/1 495/4/1 496/15/1
f 497/5/1 498/6/1 499/7/1 500/8/1
f 501/1/1 502/2/1 503/3/1 504/4/1
f 505/18/1 506/1/1 507/4/1 508/15/1
f 509/1/1 510/2/1 511/3/1 512/4/1
f 513/18/1 514/1/1 515/4/1 516/15/1
f 517/5/1 518/6/1 519/7/1 520/8/1
f 521/5/1 522/6/1 523/7/1 524/8/1
f 525/1/1 526/2/1 527/3/1 528/4/1
f 529/18/1 530/1/1 531/4/1 532/15/1
f 533/5/1 534/6/1 535/7/1 536/8/1
f 537/1/1 538/2/1 539/3/1 540/4/1
f 541/18/1 542/1/1 543/4/1 544/15/1
f 545/15/1 546/4/1 547/5/1 548/9/1
f 549/15/1 550/4/1 551/5/1 552/9/1
f 553/4/1 554/3/1 555/6/1 556/5/1
f 557/4/1 558/3/1 559/6/1 560/5/1
f 561/1/1 562/2/1 563/3/1 564/4/1
f 565/18/1 566/1/1 567/4/1 568/15/1
f 569/4/1 570/3/1 571/6/1 572/5/1
f 573/1/1 574/2/1 575/3/1 576/4/1
f 577/18/1 578/1/1 579/4/1 580/15/1
f 581/18/1 582/1/1 583/4/1 584/15/1
f 585/18/1 586/1/1 587/4/1 588/15/1
f 589/1/1 590/2/1 591/3/1 592/4/1
f 593/1/1 594/2/1 595/3/1 596/4/1
f 597/1/1 598/2/1 599/3/1 600/4/1
f 601/18/1 602/1/1 603/4/1 604/15/1
f 605/1/1 606/2/1 607/3/1 608/4/1
f 609/1/1 610/2/1 611/3/1 612/4/1

