# Tiled2Unity generated file. Do not modify by hand.
# Wavefront file for 'dungeon1_mesh_0039.obj'

# Vertices (Count = 244)
v -4 -1 0
v -5 -1 0
v -5 0 0
v -4 0 0
v -3 -1 0
v -4 -1 0
v -4 0 0
v -3 0 0
v -2 -1 0
v -3 -1 0
v -3 0 0
v -2 0 0
v -1 -1 0
v -2 -1 0
v -2 0 0
v -1 0 0
v 0 -1 0
v -1 -1 0
v -1 0 0
v 0 0 0
v -4 -2 0
v -5 -2 0
v -5 -1 0
v -4 -1 0
v -3 -2 0
v -4 -2 0
v -4 -1 0
v -3 -1 0
v -2 -2 0
v -3 -2 0
v -3 -1 0
v -2 -1 0
v -1 -2 0
v -2 -2 0
v -2 -1 0
v -1 -1 0
v 0 -2 0
v -1 -2 0
v -1 -1 0
v 0 -1 0
v -5 -3 0
v -6 -3 0
v -6 -2 0
v -5 -2 0
v -4 -3 0
v -5 -3 0
v -5 -2 0
v -4 -2 0
v -3 -3 0
v -4 -3 0
v -4 -2 0
v -3 -2 0
v -2 -3 0
v -3 -3 0
v -3 -2 0
v -2 -2 0
v -1 -3 0
v -2 -3 0
v -2 -2 0
v -1 -2 0
v 0 -3 0
v -1 -3 0
v -1 -2 0
v 0 -2 0
v -11 -4 0
v -12 -4 0
v -12 -3 0
v -11 -3 0
v -10 -4 0
v -11 -4 0
v -11 -3 0
v -10 -3 0
v -9 -4 0
v -10 -4 0
v -10 -3 0
v -9 -3 0
v -8 -4 0
v -9 -4 0
v -9 -3 0
v -8 -3 0
v -7 -4 0
v -8 -4 0
v -8 -3 0
v -7 -3 0
v -6 -4 0
v -7 -4 0
v -7 -3 0
v -6 -3 0
v -5 -4 0
v -6 -4 0
v -6 -3 0
v -5 -3 0
v -4 -4 0
v -5 -4 0
v -5 -3 0
v -4 -3 0
v -3 -4 0
v -4 -4 0
v -4 -3 0
v -3 -3 0
v -2 -4 0
v -3 -4 0
v -3 -3 0
v -2 -3 0
v -1 -4 0
v -2 -4 0
v -2 -3 0
v -1 -3 0
v 0 -4 0
v -1 -4 0
v -1 -3 0
v 0 -3 0
v -11 -5 0
v -12 -5 0
v -12 -4 0
v -11 -4 0
v -10 -5 0
v -11 -5 0
v -11 -4 0
v -10 -4 0
v -9 -5 0
v -10 -5 0
v -10 -4 0
v -9 -4 0
v -8 -5 0
v -9 -5 0
v -9 -4 0
v -8 -4 0
v -7 -5 0
v -8 -5 0
v -8 -4 0
v -7 -4 0
v -6 -5 0
v -7 -5 0
v -7 -4 0
v -6 -4 0
v -5 -5 0
v -6 -5 0
v -6 -4 0
v -5 -4 0
v -4 -5 0
v -5 -5 0
v -5 -4 0
v -4 -4 0
v -3 -5 0
v -4 -5 0
v -4 -4 0
v -3 -4 0
v -2 -5 0
v -3 -5 0
v -3 -4 0
v -2 -4 0
v -1 -5 0
v -2 -5 0
v -2 -4 0
v -1 -4 0
v 0 -5 0
v -1 -5 0
v -1 -4 0
v 0 -4 0
v -11 -6 0
v -12 -6 0
v -12 -5 0
v -11 -5 0
v -10 -6 0
v -11 -6 0
v -11 -5 0
v -10 -5 0
v -9 -6 0
v -10 -6 0
v -10 -5 0
v -9 -5 0
v -8 -6 0
v -9 -6 0
v -9 -5 0
v -8 -5 0
v -7 -6 0
v -8 -6 0
v -8 -5 0
v -7 -5 0
v -6 -6 0
v -7 -6 0
v -7 -5 0
v -6 -5 0
v -5 -6 0
v -6 -6 0
v -6 -5 0
v -5 -5 0
v -4 -6 0
v -5 -6 0
v -5 -5 0
v -4 -5 0
v -3 -6 0
v -4 -6 0
v -4 -5 0
v -3 -5 0
v -2 -6 0
v -3 -6 0
v -3 -5 0
v -2 -5 0
v -1 -6 0
v -2 -6 0
v -2 -5 0
v -1 -5 0
v 0 -6 0
v -1 -6 0
v -1 -5 0
v 0 -5 0
v -15 -9 0
v -16 -9 0
v -16 -8 0
v -15 -8 0
v -14 -9 0
v -15 -9 0
v -15 -8 0
v -14 -8 0
v -13 -9 0
v -14 -9 0
v -14 -8 0
v -13 -8 0
v -15 -10 0
v -16 -10 0
v -16 -9 0
v -15 -9 0
v -14 -10 0
v -15 -10 0
v -15 -9 0
v -14 -9 0
v -13 -10 0
v -14 -10 0
v -14 -9 0
v -13 -9 0
v -15 -11 0
v -16 -11 0
v -16 -10 0
v -15 -10 0
v -14 -11 0
v -15 -11 0
v -15 -10 0
v -14 -10 0
v -13 -11 0
v -14 -11 0
v -14 -10 0
v -13 -10 0

# Texture cooridinates (Count = 43)
vt 0.2972973 0.8913044
vt 0.3243243 0.8913044
vt 0.3243243 0.9130435
vt 0.2972973 0.9130435
vt 0.2702703 0.8913044
vt 0.2702703 0.9130435
vt 0.2432432 0.8913044
vt 0.2432432 0.9130435
vt 0.2162162 0.8913044
vt 0.2162162 0.9130435
vt 0.2972973 0.8695652
vt 0.3243243 0.8695652
vt 0.2702703 0.8695652
vt 0.2432432 0.8695652
vt 0.2162162 0.8695652
vt 0.2972973 0.9347826
vt 0.3243243 0.9347826
vt 0.3243243 0.9565217
vt 0.2972973 0.9565217
vt 0.1081081 0.1956522
vt 0.1351351 0.1956522
vt 0.1351351 0.2173913
vt 0.1081081 0.2173913
vt 0.08108108 0.1956522
vt 0.08108108 0.2173913
vt 0.05405406 0.1956522
vt 0.05405406 0.2173913
vt 0.02702703 0.1956522
vt 0.02702703 0.2173913
vt 0 0.1956522
vt 0 0.2173913
vt 0.1081081 0.1739131
vt 0.1351351 0.1739131
vt 0.08108108 0.1739131
vt 0.05405406 0.1739131
vt 0.02702703 0.1739131
vt 0 0.1739131
vt 0.1081081 0.1521739
vt 0.1351351 0.1521739
vt 0.08108108 0.1521739
vt 0.05405406 0.1521739
vt 0.02702703 0.1521739
vt 0 0.1521739

# Normal
vn 0 0 -1

# Mesh description
g dungeon1_mesh_0039

# Faces
f 1/1/1 2/2/1 3/3/1 4/4/1
f 5/5/1 6/1/1 7/4/1 8/6/1
f 9/7/1 10/5/1 11/6/1 12/8/1
f 13/9/1 14/7/1 15/8/1 16/10/1
f 17/9/1 18/7/1 19/8/1 20/10/1
f 21/11/1 22/12/1 23/2/1 24/1/1
f 25/13/1 26/11/1 27/1/1 28/5/1
f 29/14/1 30/13/1 31/5/1 32/7/1
f 33/15/1 34/14/1 35/7/1 36/9/1
f 37/15/1 38/14/1 39/7/1 40/9/1
f 41/16/1 42/17/1 43/18/1 44/19/1
f 45/16/1 46/17/1 47/18/1 48/19/1
f 49/11/1 50/12/1 51/2/1 52/1/1
f 53/13/1 54/11/1 55/1/1 56/5/1
f 57/14/1 58/13/1 59/5/1 60/7/1
f 61/15/1 62/14/1 63/7/1 64/9/1
f 65/20/1 66/21/1 67/22/1 68/23/1
f 69/20/1 70/21/1 71/22/1 72/23/1
f 73/24/1 74/20/1 75/23/1 76/25/1
f 77/26/1 78/24/1 79/25/1 80/27/1
f 81/28/1 82/26/1 83/27/1 84/29/1
f 85/30/1 86/28/1 87/29/1 88/31/1
f 89/4/1 90/3/1 91/17/1 92/16/1
f 93/4/1 94/3/1 95/17/1 96/16/1
f 97/11/1 98/12/1 99/2/1 100/1/1
f 101/13/1 102/11/1 103/1/1 104/5/1
f 105/14/1 106/13/1 107/5/1 108/7/1
f 109/15/1 110/14/1 111/7/1 112/9/1
f 113/32/1 114/33/1 115/21/1 116/20/1
f 117/32/1 118/33/1 119/21/1 120/20/1
f 121/34/1 122/32/1 123/20/1 124/24/1
f 125/35/1 126/34/1 127/24/1 128/26/1
f 129/36/1 130/35/1 131/26/1 132/28/1
f 133/37/1 134/36/1 135/28/1 136/30/1
f 137/1/1 138/2/1 139/3/1 140/4/1
f 141/1/1 142/2/1 143/3/1 144/4/1
f 145/11/1 146/12/1 147/2/1 148/1/1
f 149/13/1 150/11/1 151/1/1 152/5/1
f 153/14/1 154/13/1 155/5/1 156/7/1
f 157/15/1 158/14/1 159/7/1 160/9/1
f 161/38/1 162/39/1 163/33/1 164/32/1
f 165/38/1 166/39/1 167/33/1 168/32/1
f 169/40/1 170/38/1 171/32/1 172/34/1
f 173/41/1 174/40/1 175/34/1 176/35/1
f 177/42/1 178/41/1 179/35/1 180/36/1
f 181/43/1 182/42/1 183/36/1 184/37/1
f 185/11/1 186/12/1 187/2/1 188/1/1
f 189/11/1 190/12/1 191/2/1 192/1/1
f 193/11/1 194/12/1 195/2/1 196/1/1
f 197/13/1 198/11/1 199/1/1 200/5/1
f 201/14/1 202/13/1 203/5/1 204/7/1
f 205/15/1 206/14/1 207/7/1 208/9/1
f 209/28/1 210/26/1 211/27/1 212/29/1
f 213/30/1 214/28/1 215/29/1 216/31/1
f 217/30/1 218/28/1 219/29/1 220/31/1
f 221/36/1 222/35/1 223/26/1 224/28/1
f 225/37/1 226/36/1 227/28/1 228/30/1
f 229/37/1 230/36/1 231/28/1 232/30/1
f 233/42/1 234/41/1 235/35/1 236/36/1
f 237/43/1 238/42/1 239/36/1 240/37/1
f 241/43/1 242/42/1 243/36/1 244/37/1

