# Tiled2Unity generated file. Do not modify by hand.
# Wavefront file for 'dungeon1_mesh_0107.obj'

# Vertices (Count = 68)
v -7 -7 0
v -8 -7 0
v -8 -6 0
v -7 -6 0
v -6 -7 0
v -7 -7 0
v -7 -6 0
v -6 -6 0
v -5 -7 0
v -6 -7 0
v -6 -6 0
v -5 -6 0
v -4 -7 0
v -5 -7 0
v -5 -6 0
v -4 -6 0
v -7 -8 0
v -8 -8 0
v -8 -7 0
v -7 -7 0
v -6 -8 0
v -7 -8 0
v -7 -7 0
v -6 -7 0
v -5 -8 0
v -6 -8 0
v -6 -7 0
v -5 -7 0
v -4 -8 0
v -5 -8 0
v -5 -7 0
v -4 -7 0
v -6 -9 0
v -7 -9 0
v -7 -8 0
v -6 -8 0
v -5 -9 0
v -6 -9 0
v -6 -8 0
v -5 -8 0
v -4 -9 0
v -5 -9 0
v -5 -8 0
v -4 -8 0
v -6 -10 0
v -7 -10 0
v -7 -9 0
v -6 -9 0
v -5 -10 0
v -6 -10 0
v -6 -9 0
v -5 -9 0
v -4 -10 0
v -5 -10 0
v -5 -9 0
v -4 -9 0
v -6 -11 0
v -7 -11 0
v -7 -10 0
v -6 -10 0
v -5 -11 0
v -6 -11 0
v -6 -10 0
v -5 -10 0
v -4 -11 0
v -5 -11 0
v -5 -10 0
v -4 -10 0

# Texture cooridinates (Count = 30)
vt 0.8648649 0.4347826
vt 0.8918919 0.4347826
vt 0.8918919 0.4565217
vt 0.8648649 0.4565217
vt 0.7297297 0.1739131
vt 0.7567568 0.1739131
vt 0.7567568 0.1956522
vt 0.7297297 0.1956522
vt 0.7027027 0.1739131
vt 0.7027027 0.1956522
vt 0.6756757 0.1739131
vt 0.6756757 0.1956522
vt 0.8648649 0.4130435
vt 0.8918919 0.4130435
vt 0.7297297 0.1521739
vt 0.7567568 0.1521739
vt 0.7027027 0.1521739
vt 0.6756757 0.1521739
vt 0.7297297 0.1304348
vt 0.7567568 0.1304348
vt 0.7027027 0.1304348
vt 0.6756757 0.1304348
vt 0.7297297 0.1086956
vt 0.7567568 0.1086956
vt 0.7027027 0.1086956
vt 0.6756757 0.1086956
vt 0.7297297 0.0869565
vt 0.7567568 0.0869565
vt 0.7027027 0.0869565
vt 0.6756757 0.0869565

# Normal
vn 0 0 -1

# Mesh description
g dungeon1_mesh_0107

# Faces
f 1/1/1 2/2/1 3/3/1 4/4/1
f 5/5/1 6/6/1 7/7/1 8/8/1
f 9/9/1 10/5/1 11/8/1 12/10/1
f 13/11/1 14/9/1 15/10/1 16/12/1
f 17/13/1 18/14/1 19/2/1 20/1/1
f 21/15/1 22/16/1 23/6/1 24/5/1
f 25/17/1 26/15/1 27/5/1 28/9/1
f 29/18/1 30/17/1 31/9/1 32/11/1
f 33/19/1 34/20/1 35/16/1 36/15/1
f 37/21/1 38/19/1 39/15/1 40/17/1
f 41/22/1 42/21/1 43/17/1 44/18/1
f 45/23/1 46/24/1 47/20/1 48/19/1
f 49/25/1 50/23/1 51/19/1 52/21/1
f 53/26/1 54/25/1 55/21/1 56/22/1
f 57/27/1 58/28/1 59/24/1 60/23/1
f 61/29/1 62/27/1 63/23/1 64/25/1
f 65/30/1 66/29/1 67/25/1 68/26/1

