# Tiled2Unity generated file. Do not modify by hand.
# Wavefront file for 'dungeon1_mesh_0062.obj'

# Vertices (Count = 320)
v -15 -12 0
v -16 -12 0
v -16 -11 0
v -15 -11 0
v -14 -12 0
v -15 -12 0
v -15 -11 0
v -14 -11 0
v -13 -12 0
v -14 -12 0
v -14 -11 0
v -13 -11 0
v -12 -12 0
v -13 -12 0
v -13 -11 0
v -12 -11 0
v -11 -12 0
v -12 -12 0
v -12 -11 0
v -11 -11 0
v -10 -12 0
v -11 -12 0
v -11 -11 0
v -10 -11 0
v -9 -12 0
v -10 -12 0
v -10 -11 0
v -9 -11 0
v -8 -12 0
v -9 -12 0
v -9 -11 0
v -8 -11 0
v -7 -12 0
v -8 -12 0
v -8 -11 0
v -7 -11 0
v -6 -12 0
v -7 -12 0
v -7 -11 0
v -6 -11 0
v -5 -12 0
v -6 -12 0
v -6 -11 0
v -5 -11 0
v -4 -12 0
v -5 -12 0
v -5 -11 0
v -4 -11 0
v -3 -12 0
v -4 -12 0
v -4 -11 0
v -3 -11 0
v -2 -12 0
v -3 -12 0
v -3 -11 0
v -2 -11 0
v -1 -12 0
v -2 -12 0
v -2 -11 0
v -1 -11 0
v 0 -12 0
v -1 -12 0
v -1 -11 0
v 0 -11 0
v -15 -13 0
v -16 -13 0
v -16 -12 0
v -15 -12 0
v -14 -13 0
v -15 -13 0
v -15 -12 0
v -14 -12 0
v -13 -13 0
v -14 -13 0
v -14 -12 0
v -13 -12 0
v -12 -13 0
v -13 -13 0
v -13 -12 0
v -12 -12 0
v -11 -13 0
v -12 -13 0
v -12 -12 0
v -11 -12 0
v -10 -13 0
v -11 -13 0
v -11 -12 0
v -10 -12 0
v -9 -13 0
v -10 -13 0
v -10 -12 0
v -9 -12 0
v -8 -13 0
v -9 -13 0
v -9 -12 0
v -8 -12 0
v -7 -13 0
v -8 -13 0
v -8 -12 0
v -7 -12 0
v -6 -13 0
v -7 -13 0
v -7 -12 0
v -6 -12 0
v -5 -13 0
v -6 -13 0
v -6 -12 0
v -5 -12 0
v -4 -13 0
v -5 -13 0
v -5 -12 0
v -4 -12 0
v -3 -13 0
v -4 -13 0
v -4 -12 0
v -3 -12 0
v -2 -13 0
v -3 -13 0
v -3 -12 0
v -2 -12 0
v -1 -13 0
v -2 -13 0
v -2 -12 0
v -1 -12 0
v 0 -13 0
v -1 -13 0
v -1 -12 0
v 0 -12 0
v -15 -14 0
v -16 -14 0
v -16 -13 0
v -15 -13 0
v -14 -14 0
v -15 -14 0
v -15 -13 0
v -14 -13 0
v -13 -14 0
v -14 -14 0
v -14 -13 0
v -13 -13 0
v -12 -14 0
v -13 -14 0
v -13 -13 0
v -12 -13 0
v -11 -14 0
v -12 -14 0
v -12 -13 0
v -11 -13 0
v -10 -14 0
v -11 -14 0
v -11 -13 0
v -10 -13 0
v -9 -14 0
v -10 -14 0
v -10 -13 0
v -9 -13 0
v -8 -14 0
v -9 -14 0
v -9 -13 0
v -8 -13 0
v -7 -14 0
v -8 -14 0
v -8 -13 0
v -7 -13 0
v -6 -14 0
v -7 -14 0
v -7 -13 0
v -6 -13 0
v -5 -14 0
v -6 -14 0
v -6 -13 0
v -5 -13 0
v -4 -14 0
v -5 -14 0
v -5 -13 0
v -4 -13 0
v -3 -14 0
v -4 -14 0
v -4 -13 0
v -3 -13 0
v -2 -14 0
v -3 -14 0
v -3 -13 0
v -2 -13 0
v -1 -14 0
v -2 -14 0
v -2 -13 0
v -1 -13 0
v 0 -14 0
v -1 -14 0
v -1 -13 0
v 0 -13 0
v -15 -15 0
v -16 -15 0
v -16 -14 0
v -15 -14 0
v -14 -15 0
v -15 -15 0
v -15 -14 0
v -14 -14 0
v -13 -15 0
v -14 -15 0
v -14 -14 0
v -13 -14 0
v -12 -15 0
v -13 -15 0
v -13 -14 0
v -12 -14 0
v -11 -15 0
v -12 -15 0
v -12 -14 0
v -11 -14 0
v -10 -15 0
v -11 -15 0
v -11 -14 0
v -10 -14 0
v -9 -15 0
v -10 -15 0
v -10 -14 0
v -9 -14 0
v -8 -15 0
v -9 -15 0
v -9 -14 0
v -8 -14 0
v -7 -15 0
v -8 -15 0
v -8 -14 0
v -7 -14 0
v -6 -15 0
v -7 -15 0
v -7 -14 0
v -6 -14 0
v -5 -15 0
v -6 -15 0
v -6 -14 0
v -5 -14 0
v -4 -15 0
v -5 -15 0
v -5 -14 0
v -4 -14 0
v -3 -15 0
v -4 -15 0
v -4 -14 0
v -3 -14 0
v -2 -15 0
v -3 -15 0
v -3 -14 0
v -2 -14 0
v -1 -15 0
v -2 -15 0
v -2 -14 0
v -1 -14 0
v 0 -15 0
v -1 -15 0
v -1 -14 0
v 0 -14 0
v -15 -16 0
v -16 -16 0
v -16 -15 0
v -15 -15 0
v -14 -16 0
v -15 -16 0
v -15 -15 0
v -14 -15 0
v -13 -16 0
v -14 -16 0
v -14 -15 0
v -13 -15 0
v -12 -16 0
v -13 -16 0
v -13 -15 0
v -12 -15 0
v -11 -16 0
v -12 -16 0
v -12 -15 0
v -11 -15 0
v -10 -16 0
v -11 -16 0
v -11 -15 0
v -10 -15 0
v -9 -16 0
v -10 -16 0
v -10 -15 0
v -9 -15 0
v -8 -16 0
v -9 -16 0
v -9 -15 0
v -8 -15 0
v -7 -16 0
v -8 -16 0
v -8 -15 0
v -7 -15 0
v -6 -16 0
v -7 -16 0
v -7 -15 0
v -6 -15 0
v -5 -16 0
v -6 -16 0
v -6 -15 0
v -5 -15 0
v -4 -16 0
v -5 -16 0
v -5 -15 0
v -4 -15 0
v -3 -16 0
v -4 -16 0
v -4 -15 0
v -3 -15 0
v -2 -16 0
v -3 -16 0
v -3 -15 0
v -2 -15 0
v -1 -16 0
v -2 -16 0
v -2 -15 0
v -1 -15 0
v 0 -16 0
v -1 -16 0
v -1 -15 0
v 0 -15 0

# Texture cooridinates (Count = 9)
vt 0.02702703 0.5
vt 0.05405406 0.5
vt 0.05405406 0.5217391
vt 0.02702703 0.5217391
vt 0 0.5
vt 0 0.5217391
vt 0 0.4782609
vt 0.02702703 0.4782609
vt 0.05405406 0.4782609

# Normal
vn 0 0 -1

# Mesh description
g dungeon1_mesh_0062

# Faces
f 1/1/1 2/2/1 3/3/1 4/4/1
f 5/1/1 6/2/1 7/3/1 8/4/1
f 9/1/1 10/2/1 11/3/1 12/4/1
f 13/5/1 14/1/1 15/4/1 16/6/1
f 17/1/1 18/2/1 19/3/1 20/4/1
f 21/1/1 22/2/1 23/3/1 24/4/1
f 25/1/1 26/2/1 27/3/1 28/4/1
f 29/1/1 30/2/1 31/3/1 32/4/1
f 33/1/1 34/2/1 35/3/1 36/4/1
f 37/1/1 38/2/1 39/3/1 40/4/1
f 41/5/1 42/1/1 43/4/1 44/6/1
f 45/1/1 46/2/1 47/3/1 48/4/1
f 49/1/1 50/2/1 51/3/1 52/4/1
f 53/1/1 54/2/1 55/3/1 56/4/1
f 57/1/1 58/2/1 59/3/1 60/4/1
f 61/1/1 62/2/1 63/3/1 64/4/1
f 65/1/1 66/2/1 67/3/1 68/4/1
f 69/1/1 70/2/1 71/3/1 72/4/1
f 73/5/1 74/1/1 75/4/1 76/6/1
f 77/7/1 78/8/1 79/1/1 80/5/1
f 81/8/1 82/9/1 83/2/1 84/1/1
f 85/8/1 86/9/1 87/2/1 88/1/1
f 89/8/1 90/9/1 91/2/1 92/1/1
f 93/8/1 94/9/1 95/2/1 96/1/1
f 97/8/1 98/9/1 99/2/1 100/1/1
f 101/8/1 102/9/1 103/2/1 104/1/1
f 105/7/1 106/8/1 107/1/1 108/5/1
f 109/8/1 110/9/1 111/2/1 112/1/1
f 113/8/1 114/9/1 115/2/1 116/1/1
f 117/8/1 118/9/1 119/2/1 120/1/1
f 121/8/1 122/9/1 123/2/1 124/1/1
f 125/1/1 126/2/1 127/3/1 128/4/1
f 129/1/1 130/2/1 131/3/1 132/4/1
f 133/1/1 134/2/1 135/3/1 136/4/1
f 137/1/1 138/2/1 139/3/1 140/4/1
f 141/1/1 142/2/1 143/3/1 144/4/1
f 145/1/1 146/2/1 147/3/1 148/4/1
f 149/8/1 150/9/1 151/2/1 152/1/1
f 153/7/1 154/8/1 155/1/1 156/5/1
f 157/1/1 158/2/1 159/3/1 160/4/1
f 161/1/1 162/2/1 163/3/1 164/4/1
f 165/8/1 166/9/1 167/2/1 168/1/1
f 169/1/1 170/2/1 171/3/1 172/4/1
f 173/1/1 174/2/1 175/3/1 176/4/1
f 177/1/1 178/2/1 179/3/1 180/4/1
f 181/1/1 182/2/1 183/3/1 184/4/1
f 185/1/1 186/2/1 187/3/1 188/4/1
f 189/1/1 190/2/1 191/3/1 192/4/1
f 193/1/1 194/2/1 195/3/1 196/4/1
f 197/1/1 198/2/1 199/3/1 200/4/1
f 201/1/1 202/2/1 203/3/1 204/4/1
f 205/1/1 206/2/1 207/3/1 208/4/1
f 209/1/1 210/2/1 211/3/1 212/4/1
f 213/1/1 214/2/1 215/3/1 216/4/1
f 217/1/1 218/2/1 219/3/1 220/4/1
f 221/1/1 222/2/1 223/3/1 224/4/1
f 225/1/1 226/2/1 227/3/1 228/4/1
f 229/8/1 230/9/1 231/2/1 232/1/1
f 233/8/1 234/9/1 235/2/1 236/1/1
f 237/1/1 238/2/1 239/3/1 240/4/1
f 241/1/1 242/2/1 243/3/1 244/4/1
f 245/1/1 246/2/1 247/3/1 248/4/1
f 249/8/1 250/9/1 251/2/1 252/1/1
f 253/8/1 254/9/1 255/2/1 256/1/1
f 257/8/1 258/9/1 259/2/1 260/1/1
f 261/8/1 262/9/1 263/2/1 264/1/1
f 265/8/1 266/9/1 267/2/1 268/1/1
f 269/8/1 270/9/1 271/2/1 272/1/1
f 273/8/1 274/9/1 275/2/1 276/1/1
f 277/8/1 278/9/1 279/2/1 280/1/1
f 281/8/1 282/9/1 283/2/1 284/1/1
f 285/8/1 286/9/1 287/2/1 288/1/1
f 289/8/1 290/9/1 291/2/1 292/1/1
f 293/8/1 294/9/1 295/2/1 296/1/1
f 297/7/1 298/8/1 299/1/1 300/5/1
f 301/8/1 302/9/1 303/2/1 304/1/1
f 305/8/1 306/9/1 307/2/1 308/1/1
f 309/8/1 310/9/1 311/2/1 312/1/1
f 313/8/1 314/9/1 315/2/1 316/1/1
f 317/7/1 318/8/1 319/1/1 320/5/1

