# Tiled2Unity generated file. Do not modify by hand.
# Wavefront file for 'dungeon1_mesh_0089.obj'

# Vertices (Count = 32)
v -11 -15 0
v -12 -15 0
v -12 -14 0
v -11 -14 0
v -10 -15 0
v -11 -15 0
v -11 -14 0
v -10 -14 0
v -6 -15 0
v -7 -15 0
v -7 -14 0
v -6 -14 0
v -5 -15 0
v -6 -15 0
v -6 -14 0
v -5 -14 0
v -11 -16 0
v -12 -16 0
v -12 -15 0
v -11 -15 0
v -10 -16 0
v -11 -16 0
v -11 -15 0
v -10 -15 0
v -6 -16 0
v -7 -16 0
v -7 -15 0
v -6 -15 0
v -5 -16 0
v -6 -16 0
v -6 -15 0
v -5 -15 0

# Texture cooridinates (Count = 24)
vt 0.1621622 0.9130435
vt 0.1891892 0.9130435
vt 0.1891892 0.9347826
vt 0.1621622 0.9347826
vt 0.1351351 0.7826087
vt 0.1621622 0.7826087
vt 0.1621622 0.8043478
vt 0.1351351 0.8043478
vt 0.4324324 0.7826087
vt 0.4594595 0.7826087
vt 0.4594595 0.8043478
vt 0.4324324 0.8043478
vt 0.4054054 0.9130435
vt 0.4324324 0.9130435
vt 0.4324324 0.9347826
vt 0.4054054 0.9347826
vt 0.1621622 0.8913044
vt 0.1891892 0.8913044
vt 0.1351351 0.7608696
vt 0.1621622 0.7608696
vt 0.4324324 0.7608696
vt 0.4594595 0.7608696
vt 0.4054054 0.8913044
vt 0.4324324 0.8913044

# Normal
vn 0 0 -1

# Mesh description
g dungeon1_mesh_0089

# Faces
f 1/1/1 2/2/1 3/3/1 4/4/1
f 5/5/1 6/6/1 7/7/1 8/8/1
f 9/9/1 10/10/1 11/11/1 12/12/1
f 13/13/1 14/14/1 15/15/1 16/16/1
f 17/17/1 18/18/1 19/2/1 20/1/1
f 21/19/1 22/20/1 23/6/1 24/5/1
f 25/21/1 26/22/1 27/10/1 28/9/1
f 29/23/1 30/24/1 31/14/1 32/13/1

