# Tiled2Unity generated file. Do not modify by hand.
# Wavefront file for 'dungeon1_mesh_0056.obj'

# Vertices (Count = 476)
v -15 -1 0
v -16 -1 0
v -16 0 0
v -15 0 0
v -14 -1 0
v -15 -1 0
v -15 0 0
v -14 0 0
v -13 -1 0
v -14 -1 0
v -14 0 0
v -13 0 0
v -12 -1 0
v -13 -1 0
v -13 0 0
v -12 0 0
v -11 -1 0
v -12 -1 0
v -12 0 0
v -11 0 0
v -10 -1 0
v -11 -1 0
v -11 0 0
v -10 0 0
v -9 -1 0
v -10 -1 0
v -10 0 0
v -9 0 0
v -8 -1 0
v -9 -1 0
v -9 0 0
v -8 0 0
v -7 -1 0
v -8 -1 0
v -8 0 0
v -7 0 0
v -6 -1 0
v -7 -1 0
v -7 0 0
v -6 0 0
v -5 -1 0
v -6 -1 0
v -6 0 0
v -5 0 0
v -4 -1 0
v -5 -1 0
v -5 0 0
v -4 0 0
v -3 -1 0
v -4 -1 0
v -4 0 0
v -3 0 0
v -2 -1 0
v -3 -1 0
v -3 0 0
v -2 0 0
v -1 -1 0
v -2 -1 0
v -2 0 0
v -1 0 0
v 0 -1 0
v -1 -1 0
v -1 0 0
v 0 0 0
v -15 -2 0
v -16 -2 0
v -16 -1 0
v -15 -1 0
v -14 -2 0
v -15 -2 0
v -15 -1 0
v -14 -1 0
v -13 -2 0
v -14 -2 0
v -14 -1 0
v -13 -1 0
v -12 -2 0
v -13 -2 0
v -13 -1 0
v -12 -1 0
v -11 -2 0
v -12 -2 0
v -12 -1 0
v -11 -1 0
v -10 -2 0
v -11 -2 0
v -11 -1 0
v -10 -1 0
v -9 -2 0
v -10 -2 0
v -10 -1 0
v -9 -1 0
v -8 -2 0
v -9 -2 0
v -9 -1 0
v -8 -1 0
v -7 -2 0
v -8 -2 0
v -8 -1 0
v -7 -1 0
v -6 -2 0
v -7 -2 0
v -7 -1 0
v -6 -1 0
v -5 -2 0
v -6 -2 0
v -6 -1 0
v -5 -1 0
v -4 -2 0
v -5 -2 0
v -5 -1 0
v -4 -1 0
v -3 -2 0
v -4 -2 0
v -4 -1 0
v -3 -1 0
v -2 -2 0
v -3 -2 0
v -3 -1 0
v -2 -1 0
v -1 -2 0
v -2 -2 0
v -2 -1 0
v -1 -1 0
v 0 -2 0
v -1 -2 0
v -1 -1 0
v 0 -1 0
v -15 -3 0
v -16 -3 0
v -16 -2 0
v -15 -2 0
v -14 -3 0
v -15 -3 0
v -15 -2 0
v -14 -2 0
v -13 -3 0
v -14 -3 0
v -14 -2 0
v -13 -2 0
v -15 -4 0
v -16 -4 0
v -16 -3 0
v -15 -3 0
v -14 -4 0
v -15 -4 0
v -15 -3 0
v -14 -3 0
v -13 -4 0
v -14 -4 0
v -14 -3 0
v -13 -3 0
v -15 -5 0
v -16 -5 0
v -16 -4 0
v -15 -4 0
v -14 -5 0
v -15 -5 0
v -15 -4 0
v -14 -4 0
v -13 -5 0
v -14 -5 0
v -14 -4 0
v -13 -4 0
v -15 -6 0
v -16 -6 0
v -16 -5 0
v -15 -5 0
v -14 -6 0
v -15 -6 0
v -15 -5 0
v -14 -5 0
v -13 -6 0
v -14 -6 0
v -14 -5 0
v -13 -5 0
v -15 -7 0
v -16 -7 0
v -16 -6 0
v -15 -6 0
v -14 -7 0
v -15 -7 0
v -15 -6 0
v -14 -6 0
v -13 -7 0
v -14 -7 0
v -14 -6 0
v -13 -6 0
v -12 -7 0
v -13 -7 0
v -13 -6 0
v -12 -6 0
v -11 -7 0
v -12 -7 0
v -12 -6 0
v -11 -6 0
v -10 -7 0
v -11 -7 0
v -11 -6 0
v -10 -6 0
v -9 -7 0
v -10 -7 0
v -10 -6 0
v -9 -6 0
v -8 -7 0
v -9 -7 0
v -9 -6 0
v -8 -6 0
v -7 -7 0
v -8 -7 0
v -8 -6 0
v -7 -6 0
v -6 -7 0
v -7 -7 0
v -7 -6 0
v -6 -6 0
v -15 -8 0
v -16 -8 0
v -16 -7 0
v -15 -7 0
v -14 -8 0
v -15 -8 0
v -15 -7 0
v -14 -7 0
v -13 -8 0
v -14 -8 0
v -14 -7 0
v -13 -7 0
v -12 -8 0
v -13 -8 0
v -13 -7 0
v -12 -7 0
v -11 -8 0
v -12 -8 0
v -12 -7 0
v -11 -7 0
v -10 -8 0
v -11 -8 0
v -11 -7 0
v -10 -7 0
v -9 -8 0
v -10 -8 0
v -10 -7 0
v -9 -7 0
v -8 -8 0
v -9 -8 0
v -9 -7 0
v -8 -7 0
v -7 -8 0
v -8 -8 0
v -8 -7 0
v -7 -7 0
v -6 -8 0
v -7 -8 0
v -7 -7 0
v -6 -7 0
v -15 -9 0
v -16 -9 0
v -16 -8 0
v -15 -8 0
v -14 -9 0
v -15 -9 0
v -15 -8 0
v -14 -8 0
v -13 -9 0
v -14 -9 0
v -14 -8 0
v -13 -8 0
v -12 -9 0
v -13 -9 0
v -13 -8 0
v -12 -8 0
v -11 -9 0
v -12 -9 0
v -12 -8 0
v -11 -8 0
v -10 -9 0
v -11 -9 0
v -11 -8 0
v -10 -8 0
v -9 -9 0
v -10 -9 0
v -10 -8 0
v -9 -8 0
v -8 -9 0
v -9 -9 0
v -9 -8 0
v -8 -8 0
v -7 -9 0
v -8 -9 0
v -8 -8 0
v -7 -8 0
v -6 -9 0
v -7 -9 0
v -7 -8 0
v -6 -8 0
v -15 -10 0
v -16 -10 0
v -16 -9 0
v -15 -9 0
v -14 -10 0
v -15 -10 0
v -15 -9 0
v -14 -9 0
v -13 -10 0
v -14 -10 0
v -14 -9 0
v -13 -9 0
v -12 -10 0
v -13 -10 0
v -13 -9 0
v -12 -9 0
v -11 -10 0
v -12 -10 0
v -12 -9 0
v -11 -9 0
v -10 -10 0
v -11 -10 0
v -11 -9 0
v -10 -9 0
v -9 -10 0
v -10 -10 0
v -10 -9 0
v -9 -9 0
v -8 -10 0
v -9 -10 0
v -9 -9 0
v -8 -9 0
v -7 -10 0
v -8 -10 0
v -8 -9 0
v -7 -9 0
v -6 -10 0
v -7 -10 0
v -7 -9 0
v -6 -9 0
v -15 -11 0
v -16 -11 0
v -16 -10 0
v -15 -10 0
v -14 -11 0
v -15 -11 0
v -15 -10 0
v -14 -10 0
v -13 -11 0
v -14 -11 0
v -14 -10 0
v -13 -10 0
v -12 -11 0
v -13 -11 0
v -13 -10 0
v -12 -10 0
v -11 -11 0
v -12 -11 0
v -12 -10 0
v -11 -10 0
v -10 -11 0
v -11 -11 0
v -11 -10 0
v -10 -10 0
v -9 -11 0
v -10 -11 0
v -10 -10 0
v -9 -10 0
v -8 -11 0
v -9 -11 0
v -9 -10 0
v -8 -10 0
v -7 -11 0
v -8 -11 0
v -8 -10 0
v -7 -10 0
v -6 -11 0
v -7 -11 0
v -7 -10 0
v -6 -10 0
v -10 -12 0
v -11 -12 0
v -11 -11 0
v -10 -11 0
v -9 -12 0
v -10 -12 0
v -10 -11 0
v -9 -11 0
v -8 -12 0
v -9 -12 0
v -9 -11 0
v -8 -11 0
v -7 -12 0
v -8 -12 0
v -8 -11 0
v -7 -11 0
v -6 -12 0
v -7 -12 0
v -7 -11 0
v -6 -11 0
v -10 -13 0
v -11 -13 0
v -11 -12 0
v -10 -12 0
v -9 -13 0
v -10 -13 0
v -10 -12 0
v -9 -12 0
v -8 -13 0
v -9 -13 0
v -9 -12 0
v -8 -12 0
v -7 -13 0
v -8 -13 0
v -8 -12 0
v -7 -12 0
v -6 -13 0
v -7 -13 0
v -7 -12 0
v -6 -12 0
v -10 -14 0
v -11 -14 0
v -11 -13 0
v -10 -13 0
v -9 -14 0
v -10 -14 0
v -10 -13 0
v -9 -13 0
v -8 -14 0
v -9 -14 0
v -9 -13 0
v -8 -13 0
v -7 -14 0
v -8 -14 0
v -8 -13 0
v -7 -13 0
v -6 -14 0
v -7 -14 0
v -7 -13 0
v -6 -13 0
v -10 -15 0
v -11 -15 0
v -11 -14 0
v -10 -14 0
v -9 -15 0
v -10 -15 0
v -10 -14 0
v -9 -14 0
v -8 -15 0
v -9 -15 0
v -9 -14 0
v -8 -14 0
v -7 -15 0
v -8 -15 0
v -8 -14 0
v -7 -14 0
v -6 -15 0
v -7 -15 0
v -7 -14 0
v -6 -14 0
v -10 -16 0
v -11 -16 0
v -11 -15 0
v -10 -15 0
v -9 -16 0
v -10 -16 0
v -10 -15 0
v -9 -15 0
v -8 -16 0
v -9 -16 0
v -9 -15 0
v -8 -15 0
v -7 -16 0
v -8 -16 0
v -8 -15 0
v -7 -15 0
v -6 -16 0
v -7 -16 0
v -7 -15 0
v -6 -15 0

# Texture cooridinates (Count = 19)
vt 0.05405406 0.04347825
vt 0.08108108 0.04347825
vt 0.08108108 0.06521738
vt 0.05405406 0.06521738
vt 0.1081081 0.04347825
vt 0.1081081 0.06521738
vt 0.02702703 0.04347825
vt 0.02702703 0.06521738
vt 0.05405406 0.0869565
vt 0.08108108 0.0869565
vt 0.08108108 0.1086956
vt 0.05405406 0.1086956
vt 0.02702703 0.0869565
vt 0.02702703 0.1086956
vt 0 0.1086956
vt 0.02702703 0.1304348
vt 0 0.1304348
vt 0.1081081 0.0869565
vt 0.1081081 0.1086956

# Normal
vn 0 0 -1

# Mesh description
g dungeon1_mesh_0056

# Faces
f 1/1/1 2/2/1 3/3/1 4/4/1
f 5/2/1 6/5/1 7/6/1 8/3/1
f 9/2/1 10/5/1 11/6/1 12/3/1
f 13/1/1 14/2/1 15/3/1 16/4/1
f 17/7/1 18/1/1 19/4/1 20/8/1
f 21/2/1 22/5/1 23/6/1 24/3/1
f 25/1/1 26/2/1 27/3/1 28/4/1
f 29/7/1 30/1/1 31/4/1 32/8/1
f 33/1/1 34/2/1 35/3/1 36/4/1
f 37/7/1 38/1/1 39/4/1 40/8/1
f 41/2/1 42/5/1 43/6/1 44/3/1
f 45/2/1 46/5/1 47/6/1 48/3/1
f 49/1/1 50/2/1 51/3/1 52/4/1
f 53/2/1 54/5/1 55/6/1 56/3/1
f 57/1/1 58/2/1 59/3/1 60/4/1
f 61/2/1 62/5/1 63/6/1 64/3/1
f 65/9/1 66/10/1 67/11/1 68/12/1
f 69/13/1 70/9/1 71/12/1 72/14/1
f 73/15/1 74/14/1 75/16/1 76/17/1
f 77/15/1 78/14/1 79/16/1 80/17/1
f 81/15/1 82/14/1 83/16/1 84/17/1
f 85/15/1 86/14/1 87/16/1 88/17/1
f 89/15/1 90/14/1 91/16/1 92/17/1
f 93/15/1 94/14/1 95/16/1 96/17/1
f 97/15/1 98/14/1 99/16/1 100/17/1
f 101/15/1 102/14/1 103/16/1 104/17/1
f 105/15/1 106/14/1 107/16/1 108/17/1
f 109/15/1 110/14/1 111/16/1 112/17/1
f 113/15/1 114/14/1 115/16/1 116/17/1
f 117/15/1 118/14/1 119/16/1 120/17/1
f 121/15/1 122/14/1 123/16/1 124/17/1
f 125/15/1 126/14/1 127/16/1 128/17/1
f 129/4/1 130/3/1 131/10/1 132/9/1
f 133/8/1 134/4/1 135/9/1 136/13/1
f 137/15/1 138/14/1 139/16/1 140/17/1
f 141/1/1 142/2/1 143/3/1 144/4/1
f 145/7/1 146/1/1 147/4/1 148/8/1
f 149/15/1 150/14/1 151/16/1 152/17/1
f 153/1/1 154/2/1 155/3/1 156/4/1
f 157/7/1 158/1/1 159/4/1 160/8/1
f 161/15/1 162/14/1 163/16/1 164/17/1
f 165/4/1 166/3/1 167/10/1 168/9/1
f 169/8/1 170/4/1 171/9/1 172/13/1
f 173/15/1 174/14/1 175/16/1 176/17/1
f 177/1/1 178/2/1 179/3/1 180/4/1
f 181/7/1 182/1/1 183/4/1 184/8/1
f 185/15/1 186/14/1 187/16/1 188/17/1
f 189/15/1 190/14/1 191/16/1 192/17/1
f 193/15/1 194/14/1 195/16/1 196/17/1
f 197/15/1 198/14/1 199/16/1 200/17/1
f 201/15/1 202/14/1 203/16/1 204/17/1
f 205/15/1 206/14/1 207/16/1 208/17/1
f 209/15/1 210/14/1 211/16/1 212/17/1
f 213/15/1 214/14/1 215/16/1 216/17/1
f 217/1/1 218/2/1 219/3/1 220/4/1
f 221/7/1 222/1/1 223/4/1 224/8/1
f 225/9/1 226/10/1 227/11/1 228/12/1
f 229/13/1 230/9/1 231/12/1 232/14/1
f 233/10/1 234/18/1 235/19/1 236/11/1
f 237/9/1 238/10/1 239/11/1 240/12/1
f 241/13/1 242/9/1 243/12/1 244/14/1
f 245/9/1 246/10/1 247/11/1 248/12/1
f 249/13/1 250/9/1 251/12/1 252/14/1
f 253/15/1 254/14/1 255/16/1 256/17/1
f 257/1/1 258/2/1 259/3/1 260/4/1
f 261/7/1 262/1/1 263/4/1 264/8/1
f 265/4/1 266/3/1 267/10/1 268/9/1
f 269/8/1 270/4/1 271/9/1 272/13/1
f 273/3/1 274/6/1 275/18/1 276/10/1
f 277/4/1 278/3/1 279/10/1 280/9/1
f 281/8/1 282/4/1 283/9/1 284/13/1
f 285/4/1 286/3/1 287/10/1 288/9/1
f 289/8/1 290/4/1 291/9/1 292/13/1
f 293/15/1 294/14/1 295/16/1 296/17/1
f 297/1/1 298/2/1 299/3/1 300/4/1
f 301/7/1 302/1/1 303/4/1 304/8/1
f 305/1/1 306/2/1 307/3/1 308/4/1
f 309/7/1 310/1/1 311/4/1 312/8/1
f 313/2/1 314/5/1 315/6/1 316/3/1
f 317/1/1 318/2/1 319/3/1 320/4/1
f 321/7/1 322/1/1 323/4/1 324/8/1
f 325/1/1 326/2/1 327/3/1 328/4/1
f 329/7/1 330/1/1 331/4/1 332/8/1
f 333/15/1 334/14/1 335/16/1 336/17/1
f 337/15/1 338/14/1 339/16/1 340/17/1
f 341/15/1 342/14/1 343/16/1 344/17/1
f 345/15/1 346/14/1 347/16/1 348/17/1
f 349/15/1 350/14/1 351/16/1 352/17/1
f 353/15/1 354/14/1 355/16/1 356/17/1
f 357/15/1 358/14/1 359/16/1 360/17/1
f 361/2/1 362/5/1 363/6/1 364/3/1
f 365/1/1 366/2/1 367/3/1 368/4/1
f 369/7/1 370/1/1 371/4/1 372/8/1
f 373/15/1 374/14/1 375/16/1 376/17/1
f 377/15/1 378/14/1 379/16/1 380/17/1
f 381/3/1 382/6/1 383/18/1 384/10/1
f 385/4/1 386/3/1 387/10/1 388/9/1
f 389/8/1 390/4/1 391/9/1 392/13/1
f 393/15/1 394/14/1 395/16/1 396/17/1
f 397/15/1 398/14/1 399/16/1 400/17/1
f 401/2/1 402/5/1 403/6/1 404/3/1
f 405/1/1 406/2/1 407/3/1 408/4/1
f 409/7/1 410/1/1 411/4/1 412/8/1
f 413/15/1 414/14/1 415/16/1 416/17/1
f 417/15/1 418/14/1 419/16/1 420/17/1
f 421/10/1 422/18/1 423/19/1 424/11/1
f 425/9/1 426/10/1 427/11/1 428/12/1
f 429/13/1 430/9/1 431/12/1 432/14/1
f 433/15/1 434/14/1 435/16/1 436/17/1
f 437/15/1 438/14/1 439/16/1 440/17/1
f 441/3/1 442/6/1 443/18/1 444/10/1
f 445/4/1 446/3/1 447/10/1 448/9/1
f 449/8/1 450/4/1 451/9/1 452/13/1
f 453/15/1 454/14/1 455/16/1 456/17/1
f 457/15/1 458/14/1 459/16/1 460/17/1
f 461/2/1 462/5/1 463/6/1 464/3/1
f 465/1/1 466/2/1 467/3/1 468/4/1
f 469/7/1 470/1/1 471/4/1 472/8/1
f 473/15/1 474/14/1 475/16/1 476/17/1

