# Tiled2Unity generated file. Do not modify by hand.
# Wavefront file for 'dungeon1_mesh_0086.obj'

# Vertices (Count = 96)
v -15 -9 0
v -16 -9 0
v -16 -8 0
v -15 -8 0
v -14 -9 0
v -15 -9 0
v -15 -8 0
v -14 -8 0
v -13 -9 0
v -14 -9 0
v -14 -8 0
v -13 -8 0
v -15 -10 0
v -16 -10 0
v -16 -9 0
v -15 -9 0
v -14 -10 0
v -15 -10 0
v -15 -9 0
v -14 -9 0
v -13 -10 0
v -14 -10 0
v -14 -9 0
v -13 -9 0
v -15 -11 0
v -16 -11 0
v -16 -10 0
v -15 -10 0
v -14 -11 0
v -15 -11 0
v -15 -10 0
v -14 -10 0
v -13 -11 0
v -14 -11 0
v -14 -10 0
v -13 -10 0
v -15 -12 0
v -16 -12 0
v -16 -11 0
v -15 -11 0
v -14 -12 0
v -15 -12 0
v -15 -11 0
v -14 -11 0
v -13 -12 0
v -14 -12 0
v -14 -11 0
v -13 -11 0
v -15 -13 0
v -16 -13 0
v -16 -12 0
v -15 -12 0
v -14 -13 0
v -15 -13 0
v -15 -12 0
v -14 -12 0
v -13 -13 0
v -14 -13 0
v -14 -12 0
v -13 -12 0
v -15 -14 0
v -16 -14 0
v -16 -13 0
v -15 -13 0
v -14 -14 0
v -15 -14 0
v -15 -13 0
v -14 -13 0
v -13 -14 0
v -14 -14 0
v -14 -13 0
v -13 -13 0
v -15 -15 0
v -16 -15 0
v -16 -14 0
v -15 -14 0
v -14 -15 0
v -15 -15 0
v -15 -14 0
v -14 -14 0
v -13 -15 0
v -14 -15 0
v -14 -14 0
v -13 -14 0
v -15 -16 0
v -16 -16 0
v -16 -15 0
v -15 -15 0
v -14 -16 0
v -15 -16 0
v -15 -15 0
v -14 -15 0
v -13 -16 0
v -14 -16 0
v -14 -15 0
v -13 -15 0

# Texture cooridinates (Count = 28)
vt 0.4864865 0.3913044
vt 0.5135135 0.3913044
vt 0.5135135 0.4130435
vt 0.4864865 0.4130435
vt 0.4594595 0.3913044
vt 0.4594595 0.4130435
vt 0.4324324 0.3913044
vt 0.4324324 0.4130435
vt 0.4864865 0.3695652
vt 0.5135135 0.3695652
vt 0.4594595 0.3695652
vt 0.4324324 0.3478261
vt 0.4594595 0.3478261
vt 0.4324324 0.3695652
vt 0.4864865 0.3478261
vt 0.5135135 0.3478261
vt 0.4324324 0.3260869
vt 0.4594595 0.3260869
vt 0.4864865 0.3260869
vt 0.5135135 0.3260869
vt 0.4324324 0.3043478
vt 0.4594595 0.3043478
vt 0.4864865 0.3043478
vt 0.5135135 0.3043478
vt 0.4324324 0.2826087
vt 0.4594595 0.2826087
vt 0.4864865 0.2826087
vt 0.5135135 0.2826087

# Normal
vn 0 0 -1

# Mesh description
g dungeon1_mesh_0086

# Faces
f 1/1/1 2/2/1 3/3/1 4/4/1
f 5/5/1 6/1/1 7/4/1 8/6/1
f 9/7/1 10/5/1 11/6/1 12/8/1
f 13/9/1 14/10/1 15/2/1 16/1/1
f 17/11/1 18/9/1 19/1/1 20/5/1
f 21/12/1 22/13/1 23/11/1 24/14/1
f 25/15/1 26/16/1 27/10/1 28/9/1
f 29/13/1 30/15/1 31/9/1 32/11/1
f 33/17/1 34/18/1 35/13/1 36/12/1
f 37/19/1 38/20/1 39/16/1 40/15/1
f 41/18/1 42/19/1 43/15/1 44/13/1
f 45/21/1 46/22/1 47/18/1 48/17/1
f 49/23/1 50/24/1 51/20/1 52/19/1
f 53/22/1 54/23/1 55/19/1 56/18/1
f 57/25/1 58/26/1 59/22/1 60/21/1
f 61/27/1 62/28/1 63/24/1 64/23/1
f 65/26/1 66/27/1 67/23/1 68/22/1
f 69/12/1 70/13/1 71/11/1 72/14/1
f 73/27/1 74/28/1 75/24/1 76/23/1
f 77/18/1 78/19/1 79/15/1 80/13/1
f 81/17/1 82/18/1 83/13/1 84/12/1
f 85/27/1 86/28/1 87/24/1 88/23/1
f 89/22/1 90/23/1 91/19/1 92/18/1
f 93/21/1 94/22/1 95/18/1 96/17/1

