# Tiled2Unity generated file. Do not modify by hand.
# Wavefront file for 'dungeon1_mesh_0048.obj'

# Vertices (Count = 660)
v -15 -6 0
v -16 -6 0
v -16 -5 0
v -15 -5 0
v -14 -6 0
v -15 -6 0
v -15 -5 0
v -14 -5 0
v -13 -6 0
v -14 -6 0
v -14 -5 0
v -13 -5 0
v -12 -6 0
v -13 -6 0
v -13 -5 0
v -12 -5 0
v -11 -6 0
v -12 -6 0
v -12 -5 0
v -11 -5 0
v -10 -6 0
v -11 -6 0
v -11 -5 0
v -10 -5 0
v -9 -6 0
v -10 -6 0
v -10 -5 0
v -9 -5 0
v -8 -6 0
v -9 -6 0
v -9 -5 0
v -8 -5 0
v -7 -6 0
v -8 -6 0
v -8 -5 0
v -7 -5 0
v -6 -6 0
v -7 -6 0
v -7 -5 0
v -6 -5 0
v -5 -6 0
v -6 -6 0
v -6 -5 0
v -5 -5 0
v -4 -6 0
v -5 -6 0
v -5 -5 0
v -4 -5 0
v -3 -6 0
v -4 -6 0
v -4 -5 0
v -3 -5 0
v -2 -6 0
v -3 -6 0
v -3 -5 0
v -2 -5 0
v -1 -6 0
v -2 -6 0
v -2 -5 0
v -1 -5 0
v -15 -7 0
v -16 -7 0
v -16 -6 0
v -15 -6 0
v -14 -7 0
v -15 -7 0
v -15 -6 0
v -14 -6 0
v -13 -7 0
v -14 -7 0
v -14 -6 0
v -13 -6 0
v -12 -7 0
v -13 -7 0
v -13 -6 0
v -12 -6 0
v -11 -7 0
v -12 -7 0
v -12 -6 0
v -11 -6 0
v -10 -7 0
v -11 -7 0
v -11 -6 0
v -10 -6 0
v -9 -7 0
v -10 -7 0
v -10 -6 0
v -9 -6 0
v -8 -7 0
v -9 -7 0
v -9 -6 0
v -8 -6 0
v -7 -7 0
v -8 -7 0
v -8 -6 0
v -7 -6 0
v -6 -7 0
v -7 -7 0
v -7 -6 0
v -6 -6 0
v -5 -7 0
v -6 -7 0
v -6 -6 0
v -5 -6 0
v -4 -7 0
v -5 -7 0
v -5 -6 0
v -4 -6 0
v -3 -7 0
v -4 -7 0
v -4 -6 0
v -3 -6 0
v -2 -7 0
v -3 -7 0
v -3 -6 0
v -2 -6 0
v -1 -7 0
v -2 -7 0
v -2 -6 0
v -1 -6 0
v -15 -8 0
v -16 -8 0
v -16 -7 0
v -15 -7 0
v -14 -8 0
v -15 -8 0
v -15 -7 0
v -14 -7 0
v -13 -8 0
v -14 -8 0
v -14 -7 0
v -13 -7 0
v -12 -8 0
v -13 -8 0
v -13 -7 0
v -12 -7 0
v -11 -8 0
v -12 -8 0
v -12 -7 0
v -11 -7 0
v -10 -8 0
v -11 -8 0
v -11 -7 0
v -10 -7 0
v -9 -8 0
v -10 -8 0
v -10 -7 0
v -9 -7 0
v -8 -8 0
v -9 -8 0
v -9 -7 0
v -8 -7 0
v -7 -8 0
v -8 -8 0
v -8 -7 0
v -7 -7 0
v -6 -8 0
v -7 -8 0
v -7 -7 0
v -6 -7 0
v -5 -8 0
v -6 -8 0
v -6 -7 0
v -5 -7 0
v -4 -8 0
v -5 -8 0
v -5 -7 0
v -4 -7 0
v -3 -8 0
v -4 -8 0
v -4 -7 0
v -3 -7 0
v -2 -8 0
v -3 -8 0
v -3 -7 0
v -2 -7 0
v -1 -8 0
v -2 -8 0
v -2 -7 0
v -1 -7 0
v -15 -9 0
v -16 -9 0
v -16 -8 0
v -15 -8 0
v -14 -9 0
v -15 -9 0
v -15 -8 0
v -14 -8 0
v -13 -9 0
v -14 -9 0
v -14 -8 0
v -13 -8 0
v -12 -9 0
v -13 -9 0
v -13 -8 0
v -12 -8 0
v -11 -9 0
v -12 -9 0
v -12 -8 0
v -11 -8 0
v -10 -9 0
v -11 -9 0
v -11 -8 0
v -10 -8 0
v -9 -9 0
v -10 -9 0
v -10 -8 0
v -9 -8 0
v -8 -9 0
v -9 -9 0
v -9 -8 0
v -8 -8 0
v -7 -9 0
v -8 -9 0
v -8 -8 0
v -7 -8 0
v -6 -9 0
v -7 -9 0
v -7 -8 0
v -6 -8 0
v -5 -9 0
v -6 -9 0
v -6 -8 0
v -5 -8 0
v -4 -9 0
v -5 -9 0
v -5 -8 0
v -4 -8 0
v -3 -9 0
v -4 -9 0
v -4 -8 0
v -3 -8 0
v -2 -9 0
v -3 -9 0
v -3 -8 0
v -2 -8 0
v -1 -9 0
v -2 -9 0
v -2 -8 0
v -1 -8 0
v -15 -10 0
v -16 -10 0
v -16 -9 0
v -15 -9 0
v -14 -10 0
v -15 -10 0
v -15 -9 0
v -14 -9 0
v -13 -10 0
v -14 -10 0
v -14 -9 0
v -13 -9 0
v -12 -10 0
v -13 -10 0
v -13 -9 0
v -12 -9 0
v -11 -10 0
v -12 -10 0
v -12 -9 0
v -11 -9 0
v -10 -10 0
v -11 -10 0
v -11 -9 0
v -10 -9 0
v -9 -10 0
v -10 -10 0
v -10 -9 0
v -9 -9 0
v -8 -10 0
v -9 -10 0
v -9 -9 0
v -8 -9 0
v -7 -10 0
v -8 -10 0
v -8 -9 0
v -7 -9 0
v -6 -10 0
v -7 -10 0
v -7 -9 0
v -6 -9 0
v -5 -10 0
v -6 -10 0
v -6 -9 0
v -5 -9 0
v -4 -10 0
v -5 -10 0
v -5 -9 0
v -4 -9 0
v -3 -10 0
v -4 -10 0
v -4 -9 0
v -3 -9 0
v -2 -10 0
v -3 -10 0
v -3 -9 0
v -2 -9 0
v -1 -10 0
v -2 -10 0
v -2 -9 0
v -1 -9 0
v -15 -11 0
v -16 -11 0
v -16 -10 0
v -15 -10 0
v -14 -11 0
v -15 -11 0
v -15 -10 0
v -14 -10 0
v -13 -11 0
v -14 -11 0
v -14 -10 0
v -13 -10 0
v -12 -11 0
v -13 -11 0
v -13 -10 0
v -12 -10 0
v -11 -11 0
v -12 -11 0
v -12 -10 0
v -11 -10 0
v -10 -11 0
v -11 -11 0
v -11 -10 0
v -10 -10 0
v -9 -11 0
v -10 -11 0
v -10 -10 0
v -9 -10 0
v -8 -11 0
v -9 -11 0
v -9 -10 0
v -8 -10 0
v -7 -11 0
v -8 -11 0
v -8 -10 0
v -7 -10 0
v -6 -11 0
v -7 -11 0
v -7 -10 0
v -6 -10 0
v -5 -11 0
v -6 -11 0
v -6 -10 0
v -5 -10 0
v -4 -11 0
v -5 -11 0
v -5 -10 0
v -4 -10 0
v -3 -11 0
v -4 -11 0
v -4 -10 0
v -3 -10 0
v -2 -11 0
v -3 -11 0
v -3 -10 0
v -2 -10 0
v -1 -11 0
v -2 -11 0
v -2 -10 0
v -1 -10 0
v -15 -12 0
v -16 -12 0
v -16 -11 0
v -15 -11 0
v -14 -12 0
v -15 -12 0
v -15 -11 0
v -14 -11 0
v -13 -12 0
v -14 -12 0
v -14 -11 0
v -13 -11 0
v -12 -12 0
v -13 -12 0
v -13 -11 0
v -12 -11 0
v -11 -12 0
v -12 -12 0
v -12 -11 0
v -11 -11 0
v -10 -12 0
v -11 -12 0
v -11 -11 0
v -10 -11 0
v -9 -12 0
v -10 -12 0
v -10 -11 0
v -9 -11 0
v -8 -12 0
v -9 -12 0
v -9 -11 0
v -8 -11 0
v -7 -12 0
v -8 -12 0
v -8 -11 0
v -7 -11 0
v -6 -12 0
v -7 -12 0
v -7 -11 0
v -6 -11 0
v -5 -12 0
v -6 -12 0
v -6 -11 0
v -5 -11 0
v -4 -12 0
v -5 -12 0
v -5 -11 0
v -4 -11 0
v -3 -12 0
v -4 -12 0
v -4 -11 0
v -3 -11 0
v -2 -12 0
v -3 -12 0
v -3 -11 0
v -2 -11 0
v -1 -12 0
v -2 -12 0
v -2 -11 0
v -1 -11 0
v -15 -13 0
v -16 -13 0
v -16 -12 0
v -15 -12 0
v -14 -13 0
v -15 -13 0
v -15 -12 0
v -14 -12 0
v -13 -13 0
v -14 -13 0
v -14 -12 0
v -13 -12 0
v -12 -13 0
v -13 -13 0
v -13 -12 0
v -12 -12 0
v -11 -13 0
v -12 -13 0
v -12 -12 0
v -11 -12 0
v -10 -13 0
v -11 -13 0
v -11 -12 0
v -10 -12 0
v -9 -13 0
v -10 -13 0
v -10 -12 0
v -9 -12 0
v -8 -13 0
v -9 -13 0
v -9 -12 0
v -8 -12 0
v -7 -13 0
v -8 -13 0
v -8 -12 0
v -7 -12 0
v -6 -13 0
v -7 -13 0
v -7 -12 0
v -6 -12 0
v -5 -13 0
v -6 -13 0
v -6 -12 0
v -5 -12 0
v -4 -13 0
v -5 -13 0
v -5 -12 0
v -4 -12 0
v -3 -13 0
v -4 -13 0
v -4 -12 0
v -3 -12 0
v -2 -13 0
v -3 -13 0
v -3 -12 0
v -2 -12 0
v -1 -13 0
v -2 -13 0
v -2 -12 0
v -1 -12 0
v -15 -14 0
v -16 -14 0
v -16 -13 0
v -15 -13 0
v -14 -14 0
v -15 -14 0
v -15 -13 0
v -14 -13 0
v -13 -14 0
v -14 -14 0
v -14 -13 0
v -13 -13 0
v -12 -14 0
v -13 -14 0
v -13 -13 0
v -12 -13 0
v -11 -14 0
v -12 -14 0
v -12 -13 0
v -11 -13 0
v -10 -14 0
v -11 -14 0
v -11 -13 0
v -10 -13 0
v -9 -14 0
v -10 -14 0
v -10 -13 0
v -9 -13 0
v -8 -14 0
v -9 -14 0
v -9 -13 0
v -8 -13 0
v -7 -14 0
v -8 -14 0
v -8 -13 0
v -7 -13 0
v -6 -14 0
v -7 -14 0
v -7 -13 0
v -6 -13 0
v -5 -14 0
v -6 -14 0
v -6 -13 0
v -5 -13 0
v -4 -14 0
v -5 -14 0
v -5 -13 0
v -4 -13 0
v -3 -14 0
v -4 -14 0
v -4 -13 0
v -3 -13 0
v -2 -14 0
v -3 -14 0
v -3 -13 0
v -2 -13 0
v -1 -14 0
v -2 -14 0
v -2 -13 0
v -1 -13 0
v -15 -15 0
v -16 -15 0
v -16 -14 0
v -15 -14 0
v -14 -15 0
v -15 -15 0
v -15 -14 0
v -14 -14 0
v -13 -15 0
v -14 -15 0
v -14 -14 0
v -13 -14 0
v -12 -15 0
v -13 -15 0
v -13 -14 0
v -12 -14 0
v -11 -15 0
v -12 -15 0
v -12 -14 0
v -11 -14 0
v -10 -15 0
v -11 -15 0
v -11 -14 0
v -10 -14 0
v -9 -15 0
v -10 -15 0
v -10 -14 0
v -9 -14 0
v -8 -15 0
v -9 -15 0
v -9 -14 0
v -8 -14 0
v -7 -15 0
v -8 -15 0
v -8 -14 0
v -7 -14 0
v -6 -15 0
v -7 -15 0
v -7 -14 0
v -6 -14 0
v -5 -15 0
v -6 -15 0
v -6 -14 0
v -5 -14 0
v -4 -15 0
v -5 -15 0
v -5 -14 0
v -4 -14 0
v -3 -15 0
v -4 -15 0
v -4 -14 0
v -3 -14 0
v -2 -15 0
v -3 -15 0
v -3 -14 0
v -2 -14 0
v -1 -15 0
v -2 -15 0
v -2 -14 0
v -1 -14 0
v -15 -16 0
v -16 -16 0
v -16 -15 0
v -15 -15 0
v -14 -16 0
v -15 -16 0
v -15 -15 0
v -14 -15 0
v -13 -16 0
v -14 -16 0
v -14 -15 0
v -13 -15 0
v -12 -16 0
v -13 -16 0
v -13 -15 0
v -12 -15 0
v -11 -16 0
v -12 -16 0
v -12 -15 0
v -11 -15 0
v -10 -16 0
v -11 -16 0
v -11 -15 0
v -10 -15 0
v -9 -16 0
v -10 -16 0
v -10 -15 0
v -9 -15 0
v -8 -16 0
v -9 -16 0
v -9 -15 0
v -8 -15 0
v -7 -16 0
v -8 -16 0
v -8 -15 0
v -7 -15 0
v -6 -16 0
v -7 -16 0
v -7 -15 0
v -6 -15 0
v -5 -16 0
v -6 -16 0
v -6 -15 0
v -5 -15 0
v -4 -16 0
v -5 -16 0
v -5 -15 0
v -4 -15 0
v -3 -16 0
v -4 -16 0
v -4 -15 0
v -3 -15 0
v -2 -16 0
v -3 -16 0
v -3 -15 0
v -2 -15 0
v -1 -16 0
v -2 -16 0
v -2 -15 0
v -1 -15 0

# Texture cooridinates (Count = 81)
vt 0.3783784 0.3695652
vt 0.4054054 0.3695652
vt 0.4054054 0.3913044
vt 0.3783784 0.3913044
vt 0.4324324 0.3913044
vt 0.4324324 0.4130435
vt 0.4054054 0.4130435
vt 0.3783784 0.4130435
vt 0.3513514 0.3913044
vt 0.3513514 0.4130435
vt 0.3243243 0.3913044
vt 0.3243243 0.4130435
vt 0.2972973 0.3913044
vt 0.2972973 0.4130435
vt 0.2702703 0.3913044
vt 0.2702703 0.4130435
vt 0.2432432 0.3913044
vt 0.2432432 0.4130435
vt 0.2162162 0.3913044
vt 0.2162162 0.4130435
vt 0.2162162 0.3478261
vt 0.2432432 0.3478261
vt 0.2432432 0.3695652
vt 0.2162162 0.3695652
vt 0.3783784 0.3478261
vt 0.4054054 0.3478261
vt 0.4324324 0.3695652
vt 0.3513514 0.3695652
vt 0.3243243 0.3695652
vt 0.2972973 0.3695652
vt 0.2702703 0.3695652
vt 0.4054054 0.3043478
vt 0.4324324 0.3043478
vt 0.4324324 0.3260869
vt 0.4054054 0.3260869
vt 0.3783784 0.3043478
vt 0.3783784 0.3260869
vt 0.4324324 0.3478261
vt 0.3513514 0.3478261
vt 0.3243243 0.3478261
vt 0.2972973 0.3478261
vt 0.2702703 0.3478261
vt 0.4054054 0.2826087
vt 0.4324324 0.2826087
vt 0.3783784 0.2826087
vt 0.3513514 0.2826087
vt 0.3513514 0.3043478
vt 0.3513514 0.3260869
vt 0.3243243 0.3260869
vt 0.2972973 0.3260869
vt 0.2702703 0.3260869
vt 0.2432432 0.3260869
vt 0.2162162 0.3260869
vt 0.4054054 0.2608696
vt 0.4324324 0.2608696
vt 0.3783784 0.2608696
vt 0.3513514 0.2608696
vt 0.3243243 0.3043478
vt 0.2972973 0.3043478
vt 0.2162162 0.3043478
vt 0.2432432 0.3043478
vt 0.3513514 0.2391304
vt 0.3783784 0.2391304
vt 0.4054054 0.2391304
vt 0.4324324 0.2391304
vt 0.3243243 0.2826087
vt 0.2702703 0.3043478
vt 0.2162162 0.2826087
vt 0.2432432 0.2826087
vt 0.2972973 0.2826087
vt 0.2702703 0.2826087
vt 0.2162162 0.2608696
vt 0.2432432 0.2608696
vt 0.2432432 0.2391304
vt 0.2702703 0.2391304
vt 0.2702703 0.2608696
vt 0.2162162 0.2391304
vt 0.3243243 0.2608696
vt 0.3243243 0.2391304
vt 0.2972973 0.2391304
vt 0.2972973 0.2608696

# Normal
vn 0 0 -1

# Mesh description
g dungeon1_mesh_0048

# Faces
f 1/1/1 2/2/1 3/3/1 4/4/1
f 5/1/1 6/2/1 7/3/1 8/4/1
f 9/1/1 10/2/1 11/3/1 12/4/1
f 13/1/1 14/2/1 15/3/1 16/4/1
f 17/1/1 18/2/1 19/3/1 20/4/1
f 21/1/1 22/2/1 23/3/1 24/4/1
f 25/1/1 26/2/1 27/3/1 28/4/1
f 29/3/1 30/5/1 31/6/1 32/7/1
f 33/4/1 34/3/1 35/7/1 36/8/1
f 37/9/1 38/4/1 39/8/1 40/10/1
f 41/11/1 42/9/1 43/10/1 44/12/1
f 45/13/1 46/11/1 47/12/1 48/14/1
f 49/15/1 50/13/1 51/14/1 52/16/1
f 53/17/1 54/15/1 55/16/1 56/18/1
f 57/19/1 58/17/1 59/18/1 60/20/1
f 61/21/1 62/22/1 63/23/1 64/24/1
f 65/25/1 66/26/1 67/2/1 68/1/1
f 69/25/1 70/26/1 71/2/1 72/1/1
f 73/25/1 74/26/1 75/2/1 76/1/1
f 77/25/1 78/26/1 79/2/1 80/1/1
f 81/25/1 82/26/1 83/2/1 84/1/1
f 85/25/1 86/26/1 87/2/1 88/1/1
f 89/2/1 90/27/1 91/5/1 92/3/1
f 93/28/1 94/1/1 95/4/1 96/9/1
f 97/29/1 98/28/1 99/9/1 100/11/1
f 101/29/1 102/28/1 103/9/1 104/11/1
f 105/30/1 106/29/1 107/11/1 108/13/1
f 109/31/1 110/30/1 111/13/1 112/15/1
f 113/23/1 114/31/1 115/15/1 116/17/1
f 117/24/1 118/23/1 119/17/1 120/19/1
f 121/24/1 122/23/1 123/17/1 124/19/1
f 125/32/1 126/33/1 127/34/1 128/35/1
f 129/36/1 130/32/1 131/35/1 132/37/1
f 133/21/1 134/22/1 135/23/1 136/24/1
f 137/32/1 138/33/1 139/34/1 140/35/1
f 141/36/1 142/32/1 143/35/1 144/37/1
f 145/21/1 146/22/1 147/23/1 148/24/1
f 149/26/1 150/38/1 151/27/1 152/2/1
f 153/39/1 154/25/1 155/1/1 156/28/1
f 157/40/1 158/39/1 159/28/1 160/29/1
f 161/40/1 162/39/1 163/28/1 164/29/1
f 165/41/1 166/40/1 167/29/1 168/30/1
f 169/42/1 170/41/1 171/30/1 172/31/1
f 173/22/1 174/42/1 175/31/1 176/23/1
f 177/21/1 178/22/1 179/23/1 180/24/1
f 181/25/1 182/26/1 183/2/1 184/1/1
f 185/43/1 186/44/1 187/33/1 188/32/1
f 189/45/1 190/43/1 191/32/1 192/36/1
f 193/46/1 194/45/1 195/36/1 196/47/1
f 197/21/1 198/22/1 199/23/1 200/24/1
f 201/45/1 202/43/1 203/32/1 204/36/1
f 205/35/1 206/34/1 207/38/1 208/26/1
f 209/37/1 210/35/1 211/26/1 212/25/1
f 213/48/1 214/37/1 215/25/1 216/39/1
f 217/49/1 218/48/1 219/39/1 220/40/1
f 221/50/1 222/49/1 223/40/1 224/41/1
f 225/50/1 226/49/1 227/40/1 228/41/1
f 229/51/1 230/50/1 231/41/1 232/42/1
f 233/52/1 234/51/1 235/42/1 236/22/1
f 237/53/1 238/52/1 239/22/1 240/21/1
f 241/25/1 242/26/1 243/2/1 244/1/1
f 245/54/1 246/55/1 247/44/1 248/43/1
f 249/56/1 250/54/1 251/43/1 252/45/1
f 253/57/1 254/56/1 255/45/1 256/46/1
f 257/54/1 258/55/1 259/44/1 260/43/1
f 261/56/1 262/54/1 263/43/1 264/45/1
f 265/32/1 266/33/1 267/34/1 268/35/1
f 269/36/1 270/32/1 271/35/1 272/37/1
f 273/47/1 274/36/1 275/37/1 276/48/1
f 277/58/1 278/47/1 279/48/1 280/49/1
f 281/59/1 282/58/1 283/49/1 284/50/1
f 285/50/1 286/49/1 287/40/1 288/41/1
f 289/51/1 290/50/1 291/41/1 292/42/1
f 293/52/1 294/51/1 295/42/1 296/22/1
f 297/60/1 298/61/1 299/52/1 300/53/1
f 301/62/1 302/63/1 303/56/1 304/57/1
f 305/64/1 306/65/1 307/55/1 308/54/1
f 309/63/1 310/64/1 311/54/1 312/56/1
f 313/62/1 314/63/1 315/56/1 316/57/1
f 317/21/1 318/22/1 319/23/1 320/24/1
f 321/63/1 322/64/1 323/54/1 324/56/1
f 325/43/1 326/44/1 327/33/1 328/32/1
f 329/36/1 330/32/1 331/35/1 332/37/1
f 333/47/1 334/36/1 335/37/1 336/48/1
f 337/66/1 338/46/1 339/47/1 340/58/1
f 341/50/1 342/49/1 343/40/1 344/41/1
f 345/59/1 346/58/1 347/49/1 348/50/1
f 349/67/1 350/59/1 351/50/1 352/51/1
f 353/61/1 354/67/1 355/51/1 356/52/1
f 357/68/1 358/69/1 359/61/1 360/60/1
f 361/47/1 362/36/1 363/37/1 364/48/1
f 365/32/1 366/33/1 367/34/1 368/35/1
f 369/36/1 370/32/1 371/35/1 372/37/1
f 373/21/1 374/22/1 375/23/1 376/24/1
f 377/21/1 378/22/1 379/23/1 380/24/1
f 381/36/1 382/32/1 383/35/1 384/37/1
f 385/35/1 386/34/1 387/38/1 388/26/1
f 389/37/1 390/35/1 391/26/1 392/25/1
f 393/48/1 394/37/1 395/25/1 396/39/1
f 397/49/1 398/48/1 399/39/1 400/40/1
f 401/59/1 402/58/1 403/49/1 404/50/1
f 405/70/1 406/66/1 407/58/1 408/59/1
f 409/71/1 410/70/1 411/59/1 412/67/1
f 413/69/1 414/71/1 415/67/1 416/61/1
f 417/72/1 418/73/1 419/69/1 420/68/1
f 421/46/1 422/45/1 423/36/1 424/47/1
f 425/43/1 426/44/1 427/33/1 428/32/1
f 429/17/1 430/15/1 431/16/1 432/18/1
f 433/19/1 434/17/1 435/18/1 436/20/1
f 437/43/1 438/44/1 439/33/1 440/32/1
f 441/45/1 442/43/1 443/32/1 444/36/1
f 445/32/1 446/33/1 447/34/1 448/35/1
f 449/36/1 450/32/1 451/35/1 452/37/1
f 453/47/1 454/36/1 455/37/1 456/48/1
f 457/58/1 458/47/1 459/48/1 460/49/1
f 461/50/1 462/49/1 463/40/1 464/41/1
f 465/51/1 466/50/1 467/41/1 468/42/1
f 469/52/1 470/51/1 471/42/1 472/22/1
f 473/74/1 474/75/1 475/76/1 476/73/1
f 477/77/1 478/74/1 479/73/1 480/72/1
f 481/1/1 482/2/1 483/3/1 484/4/1
f 485/54/1 486/55/1 487/44/1 488/43/1
f 489/23/1 490/31/1 491/15/1 492/17/1
f 493/24/1 494/23/1 495/17/1 496/19/1
f 497/54/1 498/55/1 499/44/1 500/43/1
f 501/21/1 502/22/1 503/23/1 504/24/1
f 505/43/1 506/44/1 507/33/1 508/32/1
f 509/45/1 510/43/1 511/32/1 512/36/1
f 513/46/1 514/45/1 515/36/1 516/47/1
f 517/66/1 518/46/1 519/47/1 520/58/1
f 521/59/1 522/58/1 523/49/1 524/50/1
f 525/67/1 526/59/1 527/50/1 528/51/1
f 529/61/1 530/67/1 531/51/1 532/52/1
f 533/2/1 534/27/1 535/5/1 536/3/1
f 537/1/1 538/2/1 539/3/1 540/4/1
f 541/25/1 542/26/1 543/2/1 544/1/1
f 545/64/1 546/65/1 547/55/1 548/54/1
f 549/63/1 550/64/1 551/54/1 552/56/1
f 553/62/1 554/63/1 555/56/1 556/57/1
f 557/64/1 558/65/1 559/55/1 560/54/1
f 561/21/1 562/22/1 563/23/1 564/24/1
f 565/54/1 566/55/1 567/44/1 568/43/1
f 569/56/1 570/54/1 571/43/1 572/45/1
f 573/57/1 574/56/1 575/45/1 576/46/1
f 577/78/1 578/57/1 579/46/1 580/66/1
f 581/70/1 582/66/1 583/58/1 584/59/1
f 585/71/1 586/70/1 587/59/1 588/67/1
f 589/21/1 590/22/1 591/23/1 592/24/1
f 593/26/1 594/38/1 595/27/1 596/2/1
f 597/25/1 598/26/1 599/2/1 600/1/1
f 601/47/1 602/36/1 603/37/1 604/48/1
f 605/32/1 606/33/1 607/34/1 608/35/1
f 609/36/1 610/32/1 611/35/1 612/37/1
f 613/47/1 614/36/1 615/37/1 616/48/1
f 617/32/1 618/33/1 619/34/1 620/35/1
f 621/36/1 622/32/1 623/35/1 624/37/1
f 625/64/1 626/65/1 627/55/1 628/54/1
f 629/63/1 630/64/1 631/54/1 632/56/1
f 633/62/1 634/63/1 635/56/1 636/57/1
f 637/79/1 638/62/1 639/57/1 640/78/1
f 641/80/1 642/79/1 643/78/1 644/81/1
f 645/36/1 646/32/1 647/35/1 648/37/1
f 649/21/1 650/22/1 651/23/1 652/24/1
f 653/26/1 654/38/1 655/27/1 656/2/1
f 657/25/1 658/26/1 659/2/1 660/1/1

