# Tiled2Unity generated file. Do not modify by hand.
# Wavefront file for 'dungeon1_mesh_0081.obj'

# Vertices (Count = 320)
v -15 -1 0
v -16 -1 0
v -16 0 0
v -15 0 0
v -14 -1 0
v -15 -1 0
v -15 0 0
v -14 0 0
v -13 -1 0
v -14 -1 0
v -14 0 0
v -13 0 0
v -12 -1 0
v -13 -1 0
v -13 0 0
v -12 0 0
v -11 -1 0
v -12 -1 0
v -12 0 0
v -11 0 0
v -10 -1 0
v -11 -1 0
v -11 0 0
v -10 0 0
v -9 -1 0
v -10 -1 0
v -10 0 0
v -9 0 0
v -8 -1 0
v -9 -1 0
v -9 0 0
v -8 0 0
v -7 -1 0
v -8 -1 0
v -8 0 0
v -7 0 0
v -6 -1 0
v -7 -1 0
v -7 0 0
v -6 0 0
v -5 -1 0
v -6 -1 0
v -6 0 0
v -5 0 0
v -4 -1 0
v -5 -1 0
v -5 0 0
v -4 0 0
v -3 -1 0
v -4 -1 0
v -4 0 0
v -3 0 0
v -2 -1 0
v -3 -1 0
v -3 0 0
v -2 0 0
v -1 -1 0
v -2 -1 0
v -2 0 0
v -1 0 0
v 0 -1 0
v -1 -1 0
v -1 0 0
v 0 0 0
v -15 -2 0
v -16 -2 0
v -16 -1 0
v -15 -1 0
v -14 -2 0
v -15 -2 0
v -15 -1 0
v -14 -1 0
v -13 -2 0
v -14 -2 0
v -14 -1 0
v -13 -1 0
v -12 -2 0
v -13 -2 0
v -13 -1 0
v -12 -1 0
v -11 -2 0
v -12 -2 0
v -12 -1 0
v -11 -1 0
v -10 -2 0
v -11 -2 0
v -11 -1 0
v -10 -1 0
v -9 -2 0
v -10 -2 0
v -10 -1 0
v -9 -1 0
v -8 -2 0
v -9 -2 0
v -9 -1 0
v -8 -1 0
v -7 -2 0
v -8 -2 0
v -8 -1 0
v -7 -1 0
v -6 -2 0
v -7 -2 0
v -7 -1 0
v -6 -1 0
v -5 -2 0
v -6 -2 0
v -6 -1 0
v -5 -1 0
v -4 -2 0
v -5 -2 0
v -5 -1 0
v -4 -1 0
v -3 -2 0
v -4 -2 0
v -4 -1 0
v -3 -1 0
v -2 -2 0
v -3 -2 0
v -3 -1 0
v -2 -1 0
v -1 -2 0
v -2 -2 0
v -2 -1 0
v -1 -1 0
v 0 -2 0
v -1 -2 0
v -1 -1 0
v 0 -1 0
v -15 -3 0
v -16 -3 0
v -16 -2 0
v -15 -2 0
v -14 -3 0
v -15 -3 0
v -15 -2 0
v -14 -2 0
v -13 -3 0
v -14 -3 0
v -14 -2 0
v -13 -2 0
v -12 -3 0
v -13 -3 0
v -13 -2 0
v -12 -2 0
v -11 -3 0
v -12 -3 0
v -12 -2 0
v -11 -2 0
v -10 -3 0
v -11 -3 0
v -11 -2 0
v -10 -2 0
v -9 -3 0
v -10 -3 0
v -10 -2 0
v -9 -2 0
v -8 -3 0
v -9 -3 0
v -9 -2 0
v -8 -2 0
v -7 -3 0
v -8 -3 0
v -8 -2 0
v -7 -2 0
v -6 -3 0
v -7 -3 0
v -7 -2 0
v -6 -2 0
v -5 -3 0
v -6 -3 0
v -6 -2 0
v -5 -2 0
v -4 -3 0
v -5 -3 0
v -5 -2 0
v -4 -2 0
v -3 -3 0
v -4 -3 0
v -4 -2 0
v -3 -2 0
v -2 -3 0
v -3 -3 0
v -3 -2 0
v -2 -2 0
v -1 -3 0
v -2 -3 0
v -2 -2 0
v -1 -2 0
v 0 -3 0
v -1 -3 0
v -1 -2 0
v 0 -2 0
v -15 -4 0
v -16 -4 0
v -16 -3 0
v -15 -3 0
v -14 -4 0
v -15 -4 0
v -15 -3 0
v -14 -3 0
v -13 -4 0
v -14 -4 0
v -14 -3 0
v -13 -3 0
v -12 -4 0
v -13 -4 0
v -13 -3 0
v -12 -3 0
v -11 -4 0
v -12 -4 0
v -12 -3 0
v -11 -3 0
v -10 -4 0
v -11 -4 0
v -11 -3 0
v -10 -3 0
v -9 -4 0
v -10 -4 0
v -10 -3 0
v -9 -3 0
v -8 -4 0
v -9 -4 0
v -9 -3 0
v -8 -3 0
v -7 -4 0
v -8 -4 0
v -8 -3 0
v -7 -3 0
v -6 -4 0
v -7 -4 0
v -7 -3 0
v -6 -3 0
v -5 -4 0
v -6 -4 0
v -6 -3 0
v -5 -3 0
v -4 -4 0
v -5 -4 0
v -5 -3 0
v -4 -3 0
v -3 -4 0
v -4 -4 0
v -4 -3 0
v -3 -3 0
v -2 -4 0
v -3 -4 0
v -3 -3 0
v -2 -3 0
v -1 -4 0
v -2 -4 0
v -2 -3 0
v -1 -3 0
v 0 -4 0
v -1 -4 0
v -1 -3 0
v 0 -3 0
v -15 -5 0
v -16 -5 0
v -16 -4 0
v -15 -4 0
v -14 -5 0
v -15 -5 0
v -15 -4 0
v -14 -4 0
v -13 -5 0
v -14 -5 0
v -14 -4 0
v -13 -4 0
v -12 -5 0
v -13 -5 0
v -13 -4 0
v -12 -4 0
v -11 -5 0
v -12 -5 0
v -12 -4 0
v -11 -4 0
v -10 -5 0
v -11 -5 0
v -11 -4 0
v -10 -4 0
v -9 -5 0
v -10 -5 0
v -10 -4 0
v -9 -4 0
v -8 -5 0
v -9 -5 0
v -9 -4 0
v -8 -4 0
v -7 -5 0
v -8 -5 0
v -8 -4 0
v -7 -4 0
v -6 -5 0
v -7 -5 0
v -7 -4 0
v -6 -4 0
v -5 -5 0
v -6 -5 0
v -6 -4 0
v -5 -4 0
v -4 -5 0
v -5 -5 0
v -5 -4 0
v -4 -4 0
v -3 -5 0
v -4 -5 0
v -4 -4 0
v -3 -4 0
v -2 -5 0
v -3 -5 0
v -3 -4 0
v -2 -4 0
v -1 -5 0
v -2 -5 0
v -2 -4 0
v -1 -4 0
v 0 -5 0
v -1 -5 0
v -1 -4 0
v 0 -4 0

# Texture cooridinates (Count = 29)
vt 0.1351351 0.2826087
vt 0.1621622 0.2826087
vt 0.1621622 0.3043478
vt 0.1351351 0.3043478
vt 0.1081081 0.3043478
vt 0.1351351 0.3260869
vt 0.1081081 0.3260869
vt 0.08108108 0.3043478
vt 0.08108108 0.3260869
vt 0.05405406 0.2826087
vt 0.08108108 0.2826087
vt 0.05405406 0.3043478
vt 0.1621622 0.3695652
vt 0.1891892 0.3695652
vt 0.1891892 0.3913044
vt 0.1621622 0.3913044
vt 0.1081081 0.2608696
vt 0.1351351 0.2608696
vt 0.1081081 0.2826087
vt 0.08108108 0.2608696
vt 0.1621622 0.3478261
vt 0.1891892 0.3478261
vt 0.2162162 0.3478261
vt 0.2162162 0.3695652
vt 0.2162162 0.3913044
vt 0.2162162 0.4130435
vt 0.1891892 0.4130435
vt 0.1351351 0.3695652
vt 0.1351351 0.3913044

# Normal
vn 0 0 -1

# Mesh description
g dungeon1_mesh_0081

# Faces
f 1/1/1 2/2/1 3/3/1 4/4/1
f 5/5/1 6/4/1 7/6/1 8/7/1
f 9/8/1 10/5/1 11/7/1 12/9/1
f 13/8/1 14/5/1 15/7/1 16/9/1
f 17/8/1 18/5/1 19/7/1 20/9/1
f 21/8/1 22/5/1 23/7/1 24/9/1
f 25/8/1 26/5/1 27/7/1 28/9/1
f 29/8/1 30/5/1 31/7/1 32/9/1
f 33/8/1 34/5/1 35/7/1 36/9/1
f 37/8/1 38/5/1 39/7/1 40/9/1
f 41/8/1 42/5/1 43/7/1 44/9/1
f 45/8/1 46/5/1 47/7/1 48/9/1
f 49/8/1 50/5/1 51/7/1 52/9/1
f 53/8/1 54/5/1 55/7/1 56/9/1
f 57/8/1 58/5/1 59/7/1 60/9/1
f 61/10/1 62/11/1 63/8/1 64/12/1
f 65/13/1 66/14/1 67/15/1 68/16/1
f 69/17/1 70/18/1 71/1/1 72/19/1
f 73/20/1 74/17/1 75/19/1 76/11/1
f 77/20/1 78/17/1 79/19/1 80/11/1
f 81/20/1 82/17/1 83/19/1 84/11/1
f 85/20/1 86/17/1 87/19/1 88/11/1
f 89/20/1 90/17/1 91/19/1 92/11/1
f 93/20/1 94/17/1 95/19/1 96/11/1
f 97/20/1 98/17/1 99/19/1 100/11/1
f 101/20/1 102/17/1 103/19/1 104/11/1
f 105/20/1 106/17/1 107/19/1 108/11/1
f 109/20/1 110/17/1 111/19/1 112/11/1
f 113/20/1 114/17/1 115/19/1 116/11/1
f 117/20/1 118/17/1 119/19/1 120/11/1
f 121/20/1 122/17/1 123/19/1 124/11/1
f 125/13/1 126/14/1 127/15/1 128/16/1
f 129/21/1 130/22/1 131/14/1 132/13/1
f 133/22/1 134/23/1 135/24/1 136/14/1
f 137/21/1 138/22/1 139/14/1 140/13/1
f 141/22/1 142/23/1 143/24/1 144/14/1
f 145/21/1 146/22/1 147/14/1 148/13/1
f 149/22/1 150/23/1 151/24/1 152/14/1
f 153/21/1 154/22/1 155/14/1 156/13/1
f 157/22/1 158/23/1 159/24/1 160/14/1
f 161/21/1 162/22/1 163/14/1 164/13/1
f 165/22/1 166/23/1 167/24/1 168/14/1
f 169/21/1 170/22/1 171/14/1 172/13/1
f 173/22/1 174/23/1 175/24/1 176/14/1
f 177/21/1 178/22/1 179/14/1 180/13/1
f 181/22/1 182/23/1 183/24/1 184/14/1
f 185/21/1 186/22/1 187/14/1 188/13/1
f 189/22/1 190/23/1 191/24/1 192/14/1
f 193/15/1 194/25/1 195/26/1 196/27/1
f 197/14/1 198/24/1 199/25/1 200/15/1
f 201/13/1 202/14/1 203/15/1 204/16/1
f 205/14/1 206/24/1 207/25/1 208/15/1
f 209/13/1 210/14/1 211/15/1 212/16/1
f 213/14/1 214/24/1 215/25/1 216/15/1
f 217/15/1 218/25/1 219/26/1 220/27/1
f 221/14/1 222/24/1 223/25/1 224/15/1
f 225/13/1 226/14/1 227/15/1 228/16/1
f 229/14/1 230/24/1 231/25/1 232/15/1
f 233/13/1 234/14/1 235/15/1 236/16/1
f 237/14/1 238/24/1 239/25/1 240/15/1
f 241/13/1 242/14/1 243/15/1 244/16/1
f 245/14/1 246/24/1 247/25/1 248/15/1
f 249/13/1 250/14/1 251/15/1 252/16/1
f 253/14/1 254/24/1 255/25/1 256/15/1
f 257/13/1 258/14/1 259/15/1 260/16/1
f 261/28/1 262/13/1 263/16/1 264/29/1
f 265/14/1 266/24/1 267/25/1 268/15/1
f 269/14/1 270/24/1 271/25/1 272/15/1
f 273/14/1 274/24/1 275/25/1 276/15/1
f 277/13/1 278/14/1 279/15/1 280/16/1
f 281/28/1 282/13/1 283/16/1 284/29/1
f 285/14/1 286/24/1 287/25/1 288/15/1
f 289/13/1 290/14/1 291/15/1 292/16/1
f 293/28/1 294/13/1 295/16/1 296/29/1
f 297/14/1 298/24/1 299/25/1 300/15/1
f 301/13/1 302/14/1 303/15/1 304/16/1
f 305/14/1 306/24/1 307/25/1 308/15/1
f 309/13/1 310/14/1 311/15/1 312/16/1
f 313/14/1 314/24/1 315/25/1 316/15/1
f 317/13/1 318/14/1 319/15/1 320/16/1

