# Tiled2Unity generated file. Do not modify by hand.
# Wavefront file for 'dungeon1_mesh_0128.obj'

# Vertices (Count = 388)
v -15 -1 0
v -16 -1 0
v -16 0 0
v -15 0 0
v -14 -1 0
v -15 -1 0
v -15 0 0
v -14 0 0
v -13 -1 0
v -14 -1 0
v -14 0 0
v -13 0 0
v -12 -1 0
v -13 -1 0
v -13 0 0
v -12 0 0
v -11 -1 0
v -12 -1 0
v -12 0 0
v -11 0 0
v -10 -1 0
v -11 -1 0
v -11 0 0
v -10 0 0
v -9 -1 0
v -10 -1 0
v -10 0 0
v -9 0 0
v -8 -1 0
v -9 -1 0
v -9 0 0
v -8 0 0
v -7 -1 0
v -8 -1 0
v -8 0 0
v -7 0 0
v -6 -1 0
v -7 -1 0
v -7 0 0
v -6 0 0
v -5 -1 0
v -6 -1 0
v -6 0 0
v -5 0 0
v -1 -1 0
v -2 -1 0
v -2 0 0
v -1 0 0
v 0 -1 0
v -1 -1 0
v -1 0 0
v 0 0 0
v -15 -2 0
v -16 -2 0
v -16 -1 0
v -15 -1 0
v -14 -2 0
v -15 -2 0
v -15 -1 0
v -14 -1 0
v -13 -2 0
v -14 -2 0
v -14 -1 0
v -13 -1 0
v -12 -2 0
v -13 -2 0
v -13 -1 0
v -12 -1 0
v -11 -2 0
v -12 -2 0
v -12 -1 0
v -11 -1 0
v -10 -2 0
v -11 -2 0
v -11 -1 0
v -10 -1 0
v -9 -2 0
v -10 -2 0
v -10 -1 0
v -9 -1 0
v -8 -2 0
v -9 -2 0
v -9 -1 0
v -8 -1 0
v -7 -2 0
v -8 -2 0
v -8 -1 0
v -7 -1 0
v -6 -2 0
v -7 -2 0
v -7 -1 0
v -6 -1 0
v -5 -2 0
v -6 -2 0
v -6 -1 0
v -5 -1 0
v -1 -2 0
v -2 -2 0
v -2 -1 0
v -1 -1 0
v 0 -2 0
v -1 -2 0
v -1 -1 0
v 0 -1 0
v -15 -3 0
v -16 -3 0
v -16 -2 0
v -15 -2 0
v -14 -3 0
v -15 -3 0
v -15 -2 0
v -14 -2 0
v -13 -3 0
v -14 -3 0
v -14 -2 0
v -13 -2 0
v -12 -3 0
v -13 -3 0
v -13 -2 0
v -12 -2 0
v -11 -3 0
v -12 -3 0
v -12 -2 0
v -11 -2 0
v -10 -3 0
v -11 -3 0
v -11 -2 0
v -10 -2 0
v -9 -3 0
v -10 -3 0
v -10 -2 0
v -9 -2 0
v -8 -3 0
v -9 -3 0
v -9 -2 0
v -8 -2 0
v -7 -3 0
v -8 -3 0
v -8 -2 0
v -7 -2 0
v -6 -3 0
v -7 -3 0
v -7 -2 0
v -6 -2 0
v -5 -3 0
v -6 -3 0
v -6 -2 0
v -5 -2 0
v -1 -3 0
v -2 -3 0
v -2 -2 0
v -1 -2 0
v 0 -3 0
v -1 -3 0
v -1 -2 0
v 0 -2 0
v -15 -4 0
v -16 -4 0
v -16 -3 0
v -15 -3 0
v -14 -4 0
v -15 -4 0
v -15 -3 0
v -14 -3 0
v -13 -4 0
v -14 -4 0
v -14 -3 0
v -13 -3 0
v -12 -4 0
v -13 -4 0
v -13 -3 0
v -12 -3 0
v -11 -4 0
v -12 -4 0
v -12 -3 0
v -11 -3 0
v -10 -4 0
v -11 -4 0
v -11 -3 0
v -10 -3 0
v -9 -4 0
v -10 -4 0
v -10 -3 0
v -9 -3 0
v -8 -4 0
v -9 -4 0
v -9 -3 0
v -8 -3 0
v -7 -4 0
v -8 -4 0
v -8 -3 0
v -7 -3 0
v -6 -4 0
v -7 -4 0
v -7 -3 0
v -6 -3 0
v -5 -4 0
v -6 -4 0
v -6 -3 0
v -5 -3 0
v -1 -4 0
v -2 -4 0
v -2 -3 0
v -1 -3 0
v 0 -4 0
v -1 -4 0
v -1 -3 0
v 0 -3 0
v -15 -5 0
v -16 -5 0
v -16 -4 0
v -15 -4 0
v -14 -5 0
v -15 -5 0
v -15 -4 0
v -14 -4 0
v -13 -5 0
v -14 -5 0
v -14 -4 0
v -13 -4 0
v -12 -5 0
v -13 -5 0
v -13 -4 0
v -12 -4 0
v -11 -5 0
v -12 -5 0
v -12 -4 0
v -11 -4 0
v -10 -5 0
v -11 -5 0
v -11 -4 0
v -10 -4 0
v -9 -5 0
v -10 -5 0
v -10 -4 0
v -9 -4 0
v -8 -5 0
v -9 -5 0
v -9 -4 0
v -8 -4 0
v -7 -5 0
v -8 -5 0
v -8 -4 0
v -7 -4 0
v -6 -5 0
v -7 -5 0
v -7 -4 0
v -6 -4 0
v -5 -5 0
v -6 -5 0
v -6 -4 0
v -5 -4 0
v -5 -6 0
v -6 -6 0
v -6 -5 0
v -5 -5 0
v -5 -7 0
v -6 -7 0
v -6 -6 0
v -5 -6 0
v -5 -8 0
v -6 -8 0
v -6 -7 0
v -5 -7 0
v -4 -8 0
v -5 -8 0
v -5 -7 0
v -4 -7 0
v -3 -8 0
v -4 -8 0
v -4 -7 0
v -3 -7 0
v -2 -8 0
v -3 -8 0
v -3 -7 0
v -2 -7 0
v -1 -8 0
v -2 -8 0
v -2 -7 0
v -1 -7 0
v 0 -8 0
v -1 -8 0
v -1 -7 0
v 0 -7 0
v -5 -9 0
v -6 -9 0
v -6 -8 0
v -5 -8 0
v -4 -9 0
v -5 -9 0
v -5 -8 0
v -4 -8 0
v -3 -9 0
v -4 -9 0
v -4 -8 0
v -3 -8 0
v -2 -9 0
v -3 -9 0
v -3 -8 0
v -2 -8 0
v -1 -9 0
v -2 -9 0
v -2 -8 0
v -1 -8 0
v 0 -9 0
v -1 -9 0
v -1 -8 0
v 0 -8 0
v -5 -10 0
v -6 -10 0
v -6 -9 0
v -5 -9 0
v -4 -10 0
v -5 -10 0
v -5 -9 0
v -4 -9 0
v -3 -10 0
v -4 -10 0
v -4 -9 0
v -3 -9 0
v -2 -10 0
v -3 -10 0
v -3 -9 0
v -2 -9 0
v -1 -10 0
v -2 -10 0
v -2 -9 0
v -1 -9 0
v 0 -10 0
v -1 -10 0
v -1 -9 0
v 0 -9 0
v -5 -11 0
v -6 -11 0
v -6 -10 0
v -5 -10 0
v -4 -11 0
v -5 -11 0
v -5 -10 0
v -4 -10 0
v -3 -11 0
v -4 -11 0
v -4 -10 0
v -3 -10 0
v -2 -11 0
v -3 -11 0
v -3 -10 0
v -2 -10 0
v -1 -11 0
v -2 -11 0
v -2 -10 0
v -1 -10 0
v 0 -11 0
v -1 -11 0
v -1 -10 0
v 0 -10 0
v -5 -12 0
v -6 -12 0
v -6 -11 0
v -5 -11 0
v -4 -12 0
v -5 -12 0
v -5 -11 0
v -4 -11 0
v -3 -12 0
v -4 -12 0
v -4 -11 0
v -3 -11 0
v -2 -12 0
v -3 -12 0
v -3 -11 0
v -2 -11 0
v -1 -12 0
v -2 -12 0
v -2 -11 0
v -1 -11 0
v 0 -12 0
v -1 -12 0
v -1 -11 0
v 0 -11 0
v -13 -15 0
v -14 -15 0
v -14 -14 0
v -13 -14 0
v -13 -16 0
v -14 -16 0
v -14 -15 0
v -13 -15 0

# Texture cooridinates (Count = 115)
vt 0 0.8260869
vt 0.02702703 0.8260869
vt 0.02702703 0.8478261
vt 0 0.8478261
vt 0.08108108 0.8260869
vt 0.1081081 0.8260869
vt 0.1081081 0.8478261
vt 0.08108108 0.8478261
vt 0.3783784 0.8260869
vt 0.4054054 0.8260869
vt 0.4054054 0.8478261
vt 0.3783784 0.8478261
vt 0.3513514 0.8260869
vt 0.3513514 0.8478261
vt 0.3243243 0.8260869
vt 0.3243243 0.8478261
vt 0.2972973 0.8260869
vt 0.2972973 0.8478261
vt 0.2702703 0.8260869
vt 0.2702703 0.8478261
vt 0.2432432 0.8260869
vt 0.2432432 0.8478261
vt 0.2162162 0.8260869
vt 0.2162162 0.8478261
vt 0.1891892 0.8260869
vt 0.1891892 0.8478261
vt 0.4054054 0.9565217
vt 0.4324324 0.9565217
vt 0.4324324 0.9782609
vt 0.4054054 0.9782609
vt 0.8378378 0.3695652
vt 0.8648649 0.3695652
vt 0.8648649 0.3913044
vt 0.8378378 0.3913044
vt 0.8108108 0.3695652
vt 0.8108108 0.3913044
vt 0 0.8043478
vt 0.02702703 0.8043478
vt 0.08108108 0.8043478
vt 0.1081081 0.8043478
vt 0.3783784 0.8043478
vt 0.4054054 0.8043478
vt 0.3513514 0.8043478
vt 0.3243243 0.8043478
vt 0.2972973 0.8043478
vt 0.2702703 0.8043478
vt 0.2432432 0.8043478
vt 0.2162162 0.8043478
vt 0.1621622 0.8043478
vt 0.1891892 0.8043478
vt 0.1621622 0.8260869
vt 0.4054054 0.9130435
vt 0.4324324 0.9130435
vt 0.4324324 0.9347826
vt 0.4054054 0.9347826
vt 0.8378378 0.3478261
vt 0.8648649 0.3478261
vt 0.8108108 0.3478261
vt 0 0.7826087
vt 0.02702703 0.7826087
vt 0.08108108 0.7826087
vt 0.1081081 0.7826087
vt 0.3783784 0.7826087
vt 0.4054054 0.7826087
vt 0.3513514 0.7826087
vt 0.3243243 0.7826087
vt 0.2972973 0.7826087
vt 0.2702703 0.7826087
vt 0.2432432 0.7826087
vt 0.2162162 0.7826087
vt 0.1621622 0.7826087
vt 0.1891892 0.7826087
vt 0.8378378 0.3260869
vt 0.8648649 0.3260869
vt 0.8108108 0.3260869
vt 0 0.7608696
vt 0.02702703 0.7608696
vt 0.08108108 0.7608696
vt 0.1081081 0.7608696
vt 0.3783784 0.7608696
vt 0.4054054 0.7608696
vt 0.3513514 0.7608696
vt 0.3243243 0.7608696
vt 0.2972973 0.7608696
vt 0.2702703 0.7608696
vt 0.2432432 0.7608696
vt 0.2162162 0.7608696
vt 0.1621622 0.7608696
vt 0.1891892 0.7608696
vt 0.8378378 0.3043478
vt 0.8648649 0.3043478
vt 0.8108108 0.3043478
vt 0.3513514 0.7391304
vt 0.3783784 0.7391304
vt 0.08108108 0.7391304
vt 0.1081081 0.7391304
vt 0.4054054 0.7391304
vt 0.3243243 0.7391304
vt 0.2972973 0.7391304
vt 0.2702703 0.7391304
vt 0.2432432 0.7391304
vt 0.2162162 0.7391304
vt 0.1891892 0.7391304
vt 0.4324324 0.8260869
vt 0.4324324 0.8478261
vt 0.4324324 0.8043478
vt 0.4324324 0.7826087
vt 0.4324324 0.7608696
vt 0.4324324 0.7391304
vt 0.5675676 0.6956522
vt 0.5945946 0.6956522
vt 0.5945946 0.7173913
vt 0.5675676 0.7173913
vt 0.5675676 0.673913
vt 0.5945946 0.673913

# Normal
vn 0 0 -1

# Mesh description
g dungeon1_mesh_0128

# Faces
f 1/1/1 2/2/1 3/3/1 4/4/1
f 5/5/1 6/6/1 7/7/1 8/8/1
f 9/9/1 10/10/1 11/11/1 12/12/1
f 13/13/1 14/9/1 15/12/1 16/14/1
f 17/15/1 18/13/1 19/14/1 20/16/1
f 21/17/1 22/15/1 23/16/1 24/18/1
f 25/19/1 26/17/1 27/18/1 28/20/1
f 29/21/1 30/19/1 31/20/1 32/22/1
f 33/23/1 34/21/1 35/22/1 36/24/1
f 37/25/1 38/23/1 39/24/1 40/26/1
f 41/27/1 42/28/1 43/29/1 44/30/1
f 45/31/1 46/32/1 47/33/1 48/34/1
f 49/35/1 50/31/1 51/34/1 52/36/1
f 53/37/1 54/38/1 55/2/1 56/1/1
f 57/39/1 58/40/1 59/6/1 60/5/1
f 61/41/1 62/42/1 63/10/1 64/9/1
f 65/43/1 66/41/1 67/9/1 68/13/1
f 69/44/1 70/43/1 71/13/1 72/15/1
f 73/45/1 74/44/1 75/15/1 76/17/1
f 77/46/1 78/45/1 79/17/1 80/19/1
f 81/47/1 82/46/1 83/19/1 84/21/1
f 85/48/1 86/47/1 87/21/1 88/23/1
f 89/49/1 90/50/1 91/25/1 92/51/1
f 93/52/1 94/53/1 95/54/1 96/55/1
f 97/56/1 98/57/1 99/32/1 100/31/1
f 101/58/1 102/56/1 103/31/1 104/35/1
f 105/59/1 106/60/1 107/38/1 108/37/1
f 109/61/1 110/62/1 111/40/1 112/39/1
f 113/63/1 114/64/1 115/42/1 116/41/1
f 117/65/1 118/63/1 119/41/1 120/43/1
f 121/66/1 122/65/1 123/43/1 124/44/1
f 125/67/1 126/66/1 127/44/1 128/45/1
f 129/68/1 130/67/1 131/45/1 132/46/1
f 133/69/1 134/68/1 135/46/1 136/47/1
f 137/70/1 138/69/1 139/47/1 140/48/1
f 141/71/1 142/72/1 143/50/1 144/49/1
f 145/52/1 146/53/1 147/54/1 148/55/1
f 149/73/1 150/74/1 151/57/1 152/56/1
f 153/75/1 154/73/1 155/56/1 156/58/1
f 157/76/1 158/77/1 159/60/1 160/59/1
f 161/78/1 162/79/1 163/62/1 164/61/1
f 165/80/1 166/81/1 167/64/1 168/63/1
f 169/82/1 170/80/1 171/63/1 172/65/1
f 173/83/1 174/82/1 175/65/1 176/66/1
f 177/84/1 178/83/1 179/66/1 180/67/1
f 181/85/1 182/84/1 183/67/1 184/68/1
f 185/86/1 186/85/1 187/68/1 188/69/1
f 189/87/1 190/86/1 191/69/1 192/70/1
f 193/88/1 194/89/1 195/72/1 196/71/1
f 197/52/1 198/53/1 199/54/1 200/55/1
f 201/90/1 202/91/1 203/74/1 204/73/1
f 205/92/1 206/90/1 207/73/1 208/75/1
f 209/93/1 210/94/1 211/80/1 212/82/1
f 213/95/1 214/96/1 215/79/1 216/78/1
f 217/94/1 218/97/1 219/81/1 220/80/1
f 221/93/1 222/94/1 223/80/1 224/82/1
f 225/98/1 226/93/1 227/82/1 228/83/1
f 229/99/1 230/98/1 231/83/1 232/84/1
f 233/100/1 234/99/1 235/84/1 236/85/1
f 237/101/1 238/100/1 239/85/1 240/86/1
f 241/102/1 242/101/1 243/86/1 244/87/1
f 245/103/1 246/102/1 247/87/1 248/89/1
f 249/52/1 250/53/1 251/54/1 252/55/1
f 253/52/1 254/53/1 255/54/1 256/55/1
f 257/52/1 258/53/1 259/54/1 260/55/1
f 261/10/1 262/104/1 263/105/1 264/11/1
f 265/9/1 266/10/1 267/11/1 268/12/1
f 269/13/1 270/9/1 271/12/1 272/14/1
f 273/15/1 274/13/1 275/14/1 276/16/1
f 277/17/1 278/15/1 279/16/1 280/18/1
f 281/19/1 282/17/1 283/18/1 284/20/1
f 285/42/1 286/106/1 287/104/1 288/10/1
f 289/41/1 290/42/1 291/10/1 292/9/1
f 293/43/1 294/41/1 295/9/1 296/13/1
f 297/44/1 298/43/1 299/13/1 300/15/1
f 301/45/1 302/44/1 303/15/1 304/17/1
f 305/46/1 306/45/1 307/17/1 308/19/1
f 309/64/1 310/107/1 311/106/1 312/42/1
f 313/63/1 314/64/1 315/42/1 316/41/1
f 317/65/1 318/63/1 319/41/1 320/43/1
f 321/66/1 322/65/1 323/43/1 324/44/1
f 325/67/1 326/66/1 327/44/1 328/45/1
f 329/68/1 330/67/1 331/45/1 332/46/1
f 333/81/1 334/108/1 335/107/1 336/64/1
f 337/80/1 338/81/1 339/64/1 340/63/1
f 341/82/1 342/80/1 343/63/1 344/65/1
f 345/83/1 346/82/1 347/65/1 348/66/1
f 349/84/1 350/83/1 351/66/1 352/67/1
f 353/85/1 354/84/1 355/67/1 356/68/1
f 357/97/1 358/109/1 359/108/1 360/81/1
f 361/94/1 362/97/1 363/81/1 364/80/1
f 365/93/1 366/94/1 367/80/1 368/82/1
f 369/98/1 370/93/1 371/82/1 372/83/1
f 373/99/1 374/98/1 375/83/1 376/84/1
f 377/100/1 378/99/1 379/84/1 380/85/1
f 381/110/1 382/111/1 383/112/1 384/113/1
f 385/114/1 386/115/1 387/111/1 388/110/1

