# Tiled2Unity generated file. Do not modify by hand.
# Wavefront file for 'dungeon1_mesh_0096.obj'

# Vertices (Count = 80)
v -3 -9 0
v -4 -9 0
v -4 -8 0
v -3 -8 0
v -2 -9 0
v -3 -9 0
v -3 -8 0
v -2 -8 0
v -1 -9 0
v -2 -9 0
v -2 -8 0
v -1 -8 0
v 0 -9 0
v -1 -9 0
v -1 -8 0
v 0 -8 0
v -3 -10 0
v -4 -10 0
v -4 -9 0
v -3 -9 0
v -2 -10 0
v -3 -10 0
v -3 -9 0
v -2 -9 0
v -1 -10 0
v -2 -10 0
v -2 -9 0
v -1 -9 0
v 0 -10 0
v -1 -10 0
v -1 -9 0
v 0 -9 0
v -3 -11 0
v -4 -11 0
v -4 -10 0
v -3 -10 0
v -2 -11 0
v -3 -11 0
v -3 -10 0
v -2 -10 0
v -1 -11 0
v -2 -11 0
v -2 -10 0
v -1 -10 0
v 0 -11 0
v -1 -11 0
v -1 -10 0
v 0 -10 0
v -3 -12 0
v -4 -12 0
v -4 -11 0
v -3 -11 0
v -2 -12 0
v -3 -12 0
v -3 -11 0
v -2 -11 0
v -1 -12 0
v -2 -12 0
v -2 -11 0
v -1 -11 0
v 0 -12 0
v -1 -12 0
v -1 -11 0
v 0 -11 0
v -3 -13 0
v -4 -13 0
v -4 -12 0
v -3 -12 0
v -2 -13 0
v -3 -13 0
v -3 -12 0
v -2 -12 0
v -1 -13 0
v -2 -13 0
v -2 -12 0
v -1 -12 0
v 0 -13 0
v -1 -13 0
v -1 -12 0
v 0 -12 0

# Texture cooridinates (Count = 44)
vt 0.6486486 0.1739131
vt 0.6756757 0.1739131
vt 0.6756757 0.1956522
vt 0.6486486 0.1956522
vt 0.6216216 0.1739131
vt 0.6216216 0.1956522
vt 0.5405405 0.1739131
vt 0.5675676 0.1739131
vt 0.5675676 0.1956522
vt 0.5405405 0.1956522
vt 0.5135135 0.1739131
vt 0.5135135 0.1956522
vt 0.6486486 0.1521739
vt 0.6756757 0.1521739
vt 0.6216216 0.1521739
vt 0.5405405 0.1521739
vt 0.5675676 0.1521739
vt 0.5135135 0.1521739
vt 0.6486486 0.1086956
vt 0.6756757 0.1086956
vt 0.6756757 0.1304348
vt 0.6486486 0.1304348
vt 0.6216216 0.1304348
vt 0.5405405 0.1304348
vt 0.5675676 0.1304348
vt 0.5135135 0.1304348
vt 0.6486486 0.06521738
vt 0.6756757 0.06521738
vt 0.6756757 0.0869565
vt 0.6486486 0.0869565
vt 0.6216216 0.06521738
vt 0.6216216 0.0869565
vt 0.5405405 0.06521738
vt 0.5675676 0.06521738
vt 0.5675676 0.0869565
vt 0.5405405 0.0869565
vt 0.5135135 0.06521738
vt 0.5135135 0.0869565
vt 0.6486486 0.04347825
vt 0.6756757 0.04347825
vt 0.6216216 0.04347825
vt 0.5405405 0.04347825
vt 0.5675676 0.04347825
vt 0.5135135 0.04347825

# Normal
vn 0 0 -1

# Mesh description
g dungeon1_mesh_0096

# Faces
f 1/1/1 2/2/1 3/3/1 4/4/1
f 5/5/1 6/1/1 7/4/1 8/6/1
f 9/7/1 10/8/1 11/9/1 12/10/1
f 13/11/1 14/7/1 15/10/1 16/12/1
f 17/13/1 18/14/1 19/2/1 20/1/1
f 21/15/1 22/13/1 23/1/1 24/5/1
f 25/16/1 26/17/1 27/8/1 28/7/1
f 29/18/1 30/16/1 31/7/1 32/11/1
f 33/19/1 34/20/1 35/21/1 36/22/1
f 37/23/1 38/22/1 39/13/1 40/15/1
f 41/24/1 42/25/1 43/17/1 44/16/1
f 45/26/1 46/24/1 47/16/1 48/18/1
f 49/27/1 50/28/1 51/29/1 52/30/1
f 53/31/1 54/27/1 55/30/1 56/32/1
f 57/33/1 58/34/1 59/35/1 60/36/1
f 61/37/1 62/33/1 63/36/1 64/38/1
f 65/39/1 66/40/1 67/28/1 68/27/1
f 69/41/1 70/39/1 71/27/1 72/31/1
f 73/42/1 74/43/1 75/34/1 76/33/1
f 77/44/1 78/42/1 79/33/1 80/37/1

