# Tiled2Unity generated file. Do not modify by hand.
# Wavefront file for 'dungeon1_mesh_0133.obj'

# Vertices (Count = 352)
v -15 -1 0
v -16 -1 0
v -16 0 0
v -15 0 0
v -14 -1 0
v -15 -1 0
v -15 0 0
v -14 0 0
v -13 -1 0
v -14 -1 0
v -14 0 0
v -13 0 0
v -12 -1 0
v -13 -1 0
v -13 0 0
v -12 0 0
v -8 -1 0
v -9 -1 0
v -9 0 0
v -8 0 0
v -6 -1 0
v -7 -1 0
v -7 0 0
v -6 0 0
v -5 -1 0
v -6 -1 0
v -6 0 0
v -5 0 0
v -4 -1 0
v -5 -1 0
v -5 0 0
v -4 0 0
v -15 -2 0
v -16 -2 0
v -16 -1 0
v -15 -1 0
v -14 -2 0
v -15 -2 0
v -15 -1 0
v -14 -1 0
v -13 -2 0
v -14 -2 0
v -14 -1 0
v -13 -1 0
v -12 -2 0
v -13 -2 0
v -13 -1 0
v -12 -1 0
v -8 -2 0
v -9 -2 0
v -9 -1 0
v -8 -1 0
v -6 -2 0
v -7 -2 0
v -7 -1 0
v -6 -1 0
v -5 -2 0
v -6 -2 0
v -6 -1 0
v -5 -1 0
v -4 -2 0
v -5 -2 0
v -5 -1 0
v -4 -1 0
v -15 -3 0
v -16 -3 0
v -16 -2 0
v -15 -2 0
v -14 -3 0
v -15 -3 0
v -15 -2 0
v -14 -2 0
v -13 -3 0
v -14 -3 0
v -14 -2 0
v -13 -2 0
v -12 -3 0
v -13 -3 0
v -13 -2 0
v -12 -2 0
v -6 -3 0
v -7 -3 0
v -7 -2 0
v -6 -2 0
v -5 -3 0
v -6 -3 0
v -6 -2 0
v -5 -2 0
v -4 -3 0
v -5 -3 0
v -5 -2 0
v -4 -2 0
v -15 -4 0
v -16 -4 0
v -16 -3 0
v -15 -3 0
v -14 -4 0
v -15 -4 0
v -15 -3 0
v -14 -3 0
v -13 -4 0
v -14 -4 0
v -14 -3 0
v -13 -3 0
v -12 -4 0
v -13 -4 0
v -13 -3 0
v -12 -3 0
v -8 -4 0
v -9 -4 0
v -9 -3 0
v -8 -3 0
v -6 -4 0
v -7 -4 0
v -7 -3 0
v -6 -3 0
v -5 -4 0
v -6 -4 0
v -6 -3 0
v -5 -3 0
v -4 -4 0
v -5 -4 0
v -5 -3 0
v -4 -3 0
v -15 -5 0
v -16 -5 0
v -16 -4 0
v -15 -4 0
v -14 -5 0
v -15 -5 0
v -15 -4 0
v -14 -4 0
v -13 -5 0
v -14 -5 0
v -14 -4 0
v -13 -4 0
v -8 -5 0
v -9 -5 0
v -9 -4 0
v -8 -4 0
v -6 -5 0
v -7 -5 0
v -7 -4 0
v -6 -4 0
v -5 -5 0
v -6 -5 0
v -6 -4 0
v -5 -4 0
v -4 -5 0
v -5 -5 0
v -5 -4 0
v -4 -4 0
v -15 -6 0
v -16 -6 0
v -16 -5 0
v -15 -5 0
v -14 -6 0
v -15 -6 0
v -15 -5 0
v -14 -5 0
v -8 -6 0
v -9 -6 0
v -9 -5 0
v -8 -5 0
v -6 -6 0
v -7 -6 0
v -7 -5 0
v -6 -5 0
v -5 -6 0
v -6 -6 0
v -6 -5 0
v -5 -5 0
v -4 -6 0
v -5 -6 0
v -5 -5 0
v -4 -5 0
v -15 -7 0
v -16 -7 0
v -16 -6 0
v -15 -6 0
v -14 -7 0
v -15 -7 0
v -15 -6 0
v -14 -6 0
v -8 -7 0
v -9 -7 0
v -9 -6 0
v -8 -6 0
v -6 -7 0
v -7 -7 0
v -7 -6 0
v -6 -6 0
v -5 -7 0
v -6 -7 0
v -6 -6 0
v -5 -6 0
v -4 -7 0
v -5 -7 0
v -5 -6 0
v -4 -6 0
v -15 -8 0
v -16 -8 0
v -16 -7 0
v -15 -7 0
v -8 -8 0
v -9 -8 0
v -9 -7 0
v -8 -7 0
v -6 -8 0
v -7 -8 0
v -7 -7 0
v -6 -7 0
v -5 -8 0
v -6 -8 0
v -6 -7 0
v -5 -7 0
v -4 -8 0
v -5 -8 0
v -5 -7 0
v -4 -7 0
v -6 -9 0
v -7 -9 0
v -7 -8 0
v -6 -8 0
v -5 -9 0
v -6 -9 0
v -6 -8 0
v -5 -8 0
v -4 -9 0
v -5 -9 0
v -5 -8 0
v -4 -8 0
v -8 -10 0
v -9 -10 0
v -9 -9 0
v -8 -9 0
v -6 -10 0
v -7 -10 0
v -7 -9 0
v -6 -9 0
v -5 -10 0
v -6 -10 0
v -6 -9 0
v -5 -9 0
v -4 -10 0
v -5 -10 0
v -5 -9 0
v -4 -9 0
v -8 -11 0
v -9 -11 0
v -9 -10 0
v -8 -10 0
v -6 -11 0
v -7 -11 0
v -7 -10 0
v -6 -10 0
v -5 -11 0
v -6 -11 0
v -6 -10 0
v -5 -10 0
v -4 -11 0
v -5 -11 0
v -5 -10 0
v -4 -10 0
v -8 -12 0
v -9 -12 0
v -9 -11 0
v -8 -11 0
v -6 -12 0
v -7 -12 0
v -7 -11 0
v -6 -11 0
v -5 -12 0
v -6 -12 0
v -6 -11 0
v -5 -11 0
v -4 -12 0
v -5 -12 0
v -5 -11 0
v -4 -11 0
v -8 -13 0
v -9 -13 0
v -9 -12 0
v -8 -12 0
v -6 -13 0
v -7 -13 0
v -7 -12 0
v -6 -12 0
v -5 -13 0
v -6 -13 0
v -6 -12 0
v -5 -12 0
v -4 -13 0
v -5 -13 0
v -5 -12 0
v -4 -12 0
v -8 -14 0
v -9 -14 0
v -9 -13 0
v -8 -13 0
v -6 -14 0
v -7 -14 0
v -7 -13 0
v -6 -13 0
v -5 -14 0
v -6 -14 0
v -6 -13 0
v -5 -13 0
v -4 -14 0
v -5 -14 0
v -5 -13 0
v -4 -13 0
v -8 -15 0
v -9 -15 0
v -9 -14 0
v -8 -14 0
v -7 -15 0
v -8 -15 0
v -8 -14 0
v -7 -14 0
v -6 -15 0
v -7 -15 0
v -7 -14 0
v -6 -14 0
v -5 -15 0
v -6 -15 0
v -6 -14 0
v -5 -14 0
v -4 -15 0
v -5 -15 0
v -5 -14 0
v -4 -14 0
v -8 -16 0
v -9 -16 0
v -9 -15 0
v -8 -15 0
v -7 -16 0
v -8 -16 0
v -8 -15 0
v -7 -15 0
v -6 -16 0
v -7 -16 0
v -7 -15 0
v -6 -15 0
v -5 -16 0
v -6 -16 0
v -6 -15 0
v -5 -15 0
v -4 -16 0
v -5 -16 0
v -5 -15 0
v -4 -15 0

# Texture cooridinates (Count = 46)
vt 0.5135135 0.7173913
vt 0.5405405 0.7173913
vt 0.5405405 0.7391304
vt 0.5135135 0.7391304
vt 0.4864865 0.7173913
vt 0.4864865 0.7391304
vt 0.5675676 0.6304348
vt 0.5945946 0.6304348
vt 0.5945946 0.6521739
vt 0.5675676 0.6521739
vt 0.4324324 0.7608696
vt 0.4594595 0.7608696
vt 0.4594595 0.7826087
vt 0.4324324 0.7826087
vt 0.4054054 0.9347826
vt 0.4324324 0.9347826
vt 0.4324324 0.9565217
vt 0.4054054 0.9565217
vt 0.3783784 0.9347826
vt 0.3783784 0.9565217
vt 0.4864865 0.6956522
vt 0.5135135 0.6956522
vt 0.5675676 0.6086956
vt 0.5945946 0.6086956
vt 0.4864865 0.673913
vt 0.5135135 0.673913
vt 0.4864865 0.6521739
vt 0.5135135 0.6521739
vt 0.5675676 0.6956522
vt 0.5945946 0.6956522
vt 0.5945946 0.7173913
vt 0.5675676 0.7173913
vt 0.5675676 0.673913
vt 0.5945946 0.673913
vt 0.2702703 0.7173913
vt 0.2972973 0.7173913
vt 0.2972973 0.7391304
vt 0.2702703 0.7391304
vt 0.4594595 0.8043478
vt 0.4324324 0.8043478
vt 0.4054054 0.9130435
vt 0.4324324 0.9130435
vt 0.3783784 0.9130435
vt 0.4054054 0.8913044
vt 0.4324324 0.8913044
vt 0.3783784 0.8913044

# Normal
vn 0 0 -1

# Mesh description
g dungeon1_mesh_0133

# Faces
f 1/1/1 2/2/1 3/3/1 4/4/1
f 5/5/1 6/1/1 7/4/1 8/6/1
f 9/5/1 10/1/1 11/4/1 12/6/1
f 13/5/1 14/1/1 15/4/1 16/6/1
f 17/7/1 18/8/1 19/9/1 20/10/1
f 21/11/1 22/12/1 23/13/1 24/14/1
f 25/15/1 26/16/1 27/17/1 28/18/1
f 29/19/1 30/15/1 31/18/1 32/20/1
f 33/1/1 34/2/1 35/3/1 36/4/1
f 37/5/1 38/1/1 39/4/1 40/6/1
f 41/5/1 42/1/1 43/4/1 44/6/1
f 45/21/1 46/22/1 47/1/1 48/5/1
f 49/23/1 50/24/1 51/8/1 52/7/1
f 53/11/1 54/12/1 55/13/1 56/14/1
f 57/15/1 58/16/1 59/17/1 60/18/1
f 61/19/1 62/15/1 63/18/1 64/20/1
f 65/1/1 66/2/1 67/3/1 68/4/1
f 69/5/1 70/1/1 71/4/1 72/6/1
f 73/21/1 74/22/1 75/1/1 76/5/1
f 77/25/1 78/26/1 79/22/1 80/21/1
f 81/11/1 82/12/1 83/13/1 84/14/1
f 85/15/1 86/16/1 87/17/1 88/18/1
f 89/19/1 90/15/1 91/18/1 92/20/1
f 93/5/1 94/1/1 95/4/1 96/6/1
f 97/5/1 98/1/1 99/4/1 100/6/1
f 101/25/1 102/26/1 103/22/1 104/21/1
f 105/27/1 106/28/1 107/26/1 108/25/1
f 109/29/1 110/30/1 111/31/1 112/32/1
f 113/11/1 114/12/1 115/13/1 116/14/1
f 117/15/1 118/16/1 119/17/1 120/18/1
f 121/19/1 122/15/1 123/18/1 124/20/1
f 125/5/1 126/1/1 127/4/1 128/6/1
f 129/21/1 130/22/1 131/1/1 132/5/1
f 133/27/1 134/28/1 135/26/1 136/25/1
f 137/33/1 138/34/1 139/30/1 140/29/1
f 141/11/1 142/12/1 143/13/1 144/14/1
f 145/15/1 146/16/1 147/17/1 148/18/1
f 149/19/1 150/15/1 151/18/1 152/20/1
f 153/21/1 154/22/1 155/1/1 156/5/1
f 157/25/1 158/26/1 159/22/1 160/21/1
f 161/10/1 162/9/1 163/34/1 164/33/1
f 165/11/1 166/12/1 167/13/1 168/14/1
f 169/15/1 170/16/1 171/17/1 172/18/1
f 173/19/1 174/15/1 175/18/1 176/20/1
f 177/25/1 178/26/1 179/22/1 180/21/1
f 181/27/1 182/28/1 183/26/1 184/25/1
f 185/7/1 186/8/1 187/9/1 188/10/1
f 189/11/1 190/12/1 191/13/1 192/14/1
f 193/15/1 194/16/1 195/17/1 196/18/1
f 197/19/1 198/15/1 199/18/1 200/20/1
f 201/27/1 202/28/1 203/26/1 204/25/1
f 205/23/1 206/24/1 207/8/1 208/7/1
f 209/11/1 210/12/1 211/13/1 212/14/1
f 213/15/1 214/16/1 215/17/1 216/18/1
f 217/19/1 218/15/1 219/18/1 220/20/1
f 221/11/1 222/12/1 223/13/1 224/14/1
f 225/15/1 226/16/1 227/17/1 228/18/1
f 229/19/1 230/15/1 231/18/1 232/20/1
f 233/29/1 234/30/1 235/31/1 236/32/1
f 237/11/1 238/12/1 239/13/1 240/14/1
f 241/15/1 242/16/1 243/17/1 244/18/1
f 245/19/1 246/15/1 247/18/1 248/20/1
f 249/33/1 250/34/1 251/30/1 252/29/1
f 253/11/1 254/12/1 255/13/1 256/14/1
f 257/15/1 258/16/1 259/17/1 260/18/1
f 261/19/1 262/15/1 263/18/1 264/20/1
f 265/10/1 266/9/1 267/34/1 268/33/1
f 269/11/1 270/12/1 271/13/1 272/14/1
f 273/15/1 274/16/1 275/17/1 276/18/1
f 277/19/1 278/15/1 279/18/1 280/20/1
f 281/7/1 282/8/1 283/9/1 284/10/1
f 285/11/1 286/12/1 287/13/1 288/14/1
f 289/15/1 290/16/1 291/17/1 292/18/1
f 293/19/1 294/15/1 295/18/1 296/20/1
f 297/23/1 298/24/1 299/8/1 300/7/1
f 301/11/1 302/12/1 303/13/1 304/14/1
f 305/15/1 306/16/1 307/17/1 308/18/1
f 309/19/1 310/15/1 311/18/1 312/20/1
f 313/35/1 314/36/1 315/37/1 316/38/1
f 317/35/1 318/36/1 319/37/1 320/38/1
f 321/14/1 322/13/1 323/39/1 324/40/1
f 325/41/1 326/42/1 327/16/1 328/15/1
f 329/43/1 330/41/1 331/15/1 332/19/1
f 333/35/1 334/36/1 335/37/1 336/38/1
f 337/35/1 338/36/1 339/37/1 340/38/1
f 341/14/1 342/13/1 343/39/1 344/40/1
f 345/44/1 346/45/1 347/42/1 348/41/1
f 349/46/1 350/44/1 351/41/1 352/43/1

