# Tiled2Unity generated file. Do not modify by hand.
# Wavefront file for 'dungeon1_mesh_0087.obj'

# Vertices (Count = 512)
v -15 -9 0
v -16 -9 0
v -16 -8 0
v -15 -8 0
v -14 -9 0
v -15 -9 0
v -15 -8 0
v -14 -8 0
v -13 -9 0
v -14 -9 0
v -14 -8 0
v -13 -8 0
v -12 -9 0
v -13 -9 0
v -13 -8 0
v -12 -8 0
v -11 -9 0
v -12 -9 0
v -12 -8 0
v -11 -8 0
v -10 -9 0
v -11 -9 0
v -11 -8 0
v -10 -8 0
v -9 -9 0
v -10 -9 0
v -10 -8 0
v -9 -8 0
v -8 -9 0
v -9 -9 0
v -9 -8 0
v -8 -8 0
v -7 -9 0
v -8 -9 0
v -8 -8 0
v -7 -8 0
v -6 -9 0
v -7 -9 0
v -7 -8 0
v -6 -8 0
v -5 -9 0
v -6 -9 0
v -6 -8 0
v -5 -8 0
v -4 -9 0
v -5 -9 0
v -5 -8 0
v -4 -8 0
v -3 -9 0
v -4 -9 0
v -4 -8 0
v -3 -8 0
v -2 -9 0
v -3 -9 0
v -3 -8 0
v -2 -8 0
v -1 -9 0
v -2 -9 0
v -2 -8 0
v -1 -8 0
v 0 -9 0
v -1 -9 0
v -1 -8 0
v 0 -8 0
v -15 -10 0
v -16 -10 0
v -16 -9 0
v -15 -9 0
v -14 -10 0
v -15 -10 0
v -15 -9 0
v -14 -9 0
v -13 -10 0
v -14 -10 0
v -14 -9 0
v -13 -9 0
v -12 -10 0
v -13 -10 0
v -13 -9 0
v -12 -9 0
v -11 -10 0
v -12 -10 0
v -12 -9 0
v -11 -9 0
v -10 -10 0
v -11 -10 0
v -11 -9 0
v -10 -9 0
v -9 -10 0
v -10 -10 0
v -10 -9 0
v -9 -9 0
v -8 -10 0
v -9 -10 0
v -9 -9 0
v -8 -9 0
v -7 -10 0
v -8 -10 0
v -8 -9 0
v -7 -9 0
v -6 -10 0
v -7 -10 0
v -7 -9 0
v -6 -9 0
v -5 -10 0
v -6 -10 0
v -6 -9 0
v -5 -9 0
v -4 -10 0
v -5 -10 0
v -5 -9 0
v -4 -9 0
v -3 -10 0
v -4 -10 0
v -4 -9 0
v -3 -9 0
v -2 -10 0
v -3 -10 0
v -3 -9 0
v -2 -9 0
v -1 -10 0
v -2 -10 0
v -2 -9 0
v -1 -9 0
v 0 -10 0
v -1 -10 0
v -1 -9 0
v 0 -9 0
v -15 -11 0
v -16 -11 0
v -16 -10 0
v -15 -10 0
v -14 -11 0
v -15 -11 0
v -15 -10 0
v -14 -10 0
v -13 -11 0
v -14 -11 0
v -14 -10 0
v -13 -10 0
v -12 -11 0
v -13 -11 0
v -13 -10 0
v -12 -10 0
v -11 -11 0
v -12 -11 0
v -12 -10 0
v -11 -10 0
v -10 -11 0
v -11 -11 0
v -11 -10 0
v -10 -10 0
v -9 -11 0
v -10 -11 0
v -10 -10 0
v -9 -10 0
v -8 -11 0
v -9 -11 0
v -9 -10 0
v -8 -10 0
v -7 -11 0
v -8 -11 0
v -8 -10 0
v -7 -10 0
v -6 -11 0
v -7 -11 0
v -7 -10 0
v -6 -10 0
v -5 -11 0
v -6 -11 0
v -6 -10 0
v -5 -10 0
v -4 -11 0
v -5 -11 0
v -5 -10 0
v -4 -10 0
v -3 -11 0
v -4 -11 0
v -4 -10 0
v -3 -10 0
v -2 -11 0
v -3 -11 0
v -3 -10 0
v -2 -10 0
v -1 -11 0
v -2 -11 0
v -2 -10 0
v -1 -10 0
v 0 -11 0
v -1 -11 0
v -1 -10 0
v 0 -10 0
v -15 -12 0
v -16 -12 0
v -16 -11 0
v -15 -11 0
v -14 -12 0
v -15 -12 0
v -15 -11 0
v -14 -11 0
v -13 -12 0
v -14 -12 0
v -14 -11 0
v -13 -11 0
v -12 -12 0
v -13 -12 0
v -13 -11 0
v -12 -11 0
v -11 -12 0
v -12 -12 0
v -12 -11 0
v -11 -11 0
v -10 -12 0
v -11 -12 0
v -11 -11 0
v -10 -11 0
v -9 -12 0
v -10 -12 0
v -10 -11 0
v -9 -11 0
v -8 -12 0
v -9 -12 0
v -9 -11 0
v -8 -11 0
v -7 -12 0
v -8 -12 0
v -8 -11 0
v -7 -11 0
v -6 -12 0
v -7 -12 0
v -7 -11 0
v -6 -11 0
v -5 -12 0
v -6 -12 0
v -6 -11 0
v -5 -11 0
v -4 -12 0
v -5 -12 0
v -5 -11 0
v -4 -11 0
v -3 -12 0
v -4 -12 0
v -4 -11 0
v -3 -11 0
v -2 -12 0
v -3 -12 0
v -3 -11 0
v -2 -11 0
v -1 -12 0
v -2 -12 0
v -2 -11 0
v -1 -11 0
v 0 -12 0
v -1 -12 0
v -1 -11 0
v 0 -11 0
v -15 -13 0
v -16 -13 0
v -16 -12 0
v -15 -12 0
v -14 -13 0
v -15 -13 0
v -15 -12 0
v -14 -12 0
v -13 -13 0
v -14 -13 0
v -14 -12 0
v -13 -12 0
v -12 -13 0
v -13 -13 0
v -13 -12 0
v -12 -12 0
v -11 -13 0
v -12 -13 0
v -12 -12 0
v -11 -12 0
v -10 -13 0
v -11 -13 0
v -11 -12 0
v -10 -12 0
v -9 -13 0
v -10 -13 0
v -10 -12 0
v -9 -12 0
v -8 -13 0
v -9 -13 0
v -9 -12 0
v -8 -12 0
v -7 -13 0
v -8 -13 0
v -8 -12 0
v -7 -12 0
v -6 -13 0
v -7 -13 0
v -7 -12 0
v -6 -12 0
v -5 -13 0
v -6 -13 0
v -6 -12 0
v -5 -12 0
v -4 -13 0
v -5 -13 0
v -5 -12 0
v -4 -12 0
v -3 -13 0
v -4 -13 0
v -4 -12 0
v -3 -12 0
v -2 -13 0
v -3 -13 0
v -3 -12 0
v -2 -12 0
v -1 -13 0
v -2 -13 0
v -2 -12 0
v -1 -12 0
v 0 -13 0
v -1 -13 0
v -1 -12 0
v 0 -12 0
v -15 -14 0
v -16 -14 0
v -16 -13 0
v -15 -13 0
v -14 -14 0
v -15 -14 0
v -15 -13 0
v -14 -13 0
v -13 -14 0
v -14 -14 0
v -14 -13 0
v -13 -13 0
v -12 -14 0
v -13 -14 0
v -13 -13 0
v -12 -13 0
v -11 -14 0
v -12 -14 0
v -12 -13 0
v -11 -13 0
v -10 -14 0
v -11 -14 0
v -11 -13 0
v -10 -13 0
v -9 -14 0
v -10 -14 0
v -10 -13 0
v -9 -13 0
v -8 -14 0
v -9 -14 0
v -9 -13 0
v -8 -13 0
v -7 -14 0
v -8 -14 0
v -8 -13 0
v -7 -13 0
v -6 -14 0
v -7 -14 0
v -7 -13 0
v -6 -13 0
v -5 -14 0
v -6 -14 0
v -6 -13 0
v -5 -13 0
v -4 -14 0
v -5 -14 0
v -5 -13 0
v -4 -13 0
v -3 -14 0
v -4 -14 0
v -4 -13 0
v -3 -13 0
v -2 -14 0
v -3 -14 0
v -3 -13 0
v -2 -13 0
v -1 -14 0
v -2 -14 0
v -2 -13 0
v -1 -13 0
v 0 -14 0
v -1 -14 0
v -1 -13 0
v 0 -13 0
v -15 -15 0
v -16 -15 0
v -16 -14 0
v -15 -14 0
v -14 -15 0
v -15 -15 0
v -15 -14 0
v -14 -14 0
v -13 -15 0
v -14 -15 0
v -14 -14 0
v -13 -14 0
v -12 -15 0
v -13 -15 0
v -13 -14 0
v -12 -14 0
v -11 -15 0
v -12 -15 0
v -12 -14 0
v -11 -14 0
v -10 -15 0
v -11 -15 0
v -11 -14 0
v -10 -14 0
v -9 -15 0
v -10 -15 0
v -10 -14 0
v -9 -14 0
v -8 -15 0
v -9 -15 0
v -9 -14 0
v -8 -14 0
v -7 -15 0
v -8 -15 0
v -8 -14 0
v -7 -14 0
v -6 -15 0
v -7 -15 0
v -7 -14 0
v -6 -14 0
v -5 -15 0
v -6 -15 0
v -6 -14 0
v -5 -14 0
v -4 -15 0
v -5 -15 0
v -5 -14 0
v -4 -14 0
v -3 -15 0
v -4 -15 0
v -4 -14 0
v -3 -14 0
v -2 -15 0
v -3 -15 0
v -3 -14 0
v -2 -14 0
v -1 -15 0
v -2 -15 0
v -2 -14 0
v -1 -14 0
v 0 -15 0
v -1 -15 0
v -1 -14 0
v 0 -14 0
v -15 -16 0
v -16 -16 0
v -16 -15 0
v -15 -15 0
v -14 -16 0
v -15 -16 0
v -15 -15 0
v -14 -15 0
v -13 -16 0
v -14 -16 0
v -14 -15 0
v -13 -15 0
v -12 -16 0
v -13 -16 0
v -13 -15 0
v -12 -15 0
v -11 -16 0
v -12 -16 0
v -12 -15 0
v -11 -15 0
v -10 -16 0
v -11 -16 0
v -11 -15 0
v -10 -15 0
v -9 -16 0
v -10 -16 0
v -10 -15 0
v -9 -15 0
v -8 -16 0
v -9 -16 0
v -9 -15 0
v -8 -15 0
v -7 -16 0
v -8 -16 0
v -8 -15 0
v -7 -15 0
v -6 -16 0
v -7 -16 0
v -7 -15 0
v -6 -15 0
v -5 -16 0
v -6 -16 0
v -6 -15 0
v -5 -15 0
v -4 -16 0
v -5 -16 0
v -5 -15 0
v -4 -15 0
v -3 -16 0
v -4 -16 0
v -4 -15 0
v -3 -15 0
v -2 -16 0
v -3 -16 0
v -3 -15 0
v -2 -15 0
v -1 -16 0
v -2 -16 0
v -2 -15 0
v -1 -15 0
v 0 -16 0
v -1 -16 0
v -1 -15 0
v 0 -15 0

# Texture cooridinates (Count = 42)
vt 0.5135135 0.3913044
vt 0.5405405 0.3913044
vt 0.5405405 0.4130435
vt 0.5135135 0.4130435
vt 0.4864865 0.3913044
vt 0.4864865 0.4130435
vt 0.5945946 0.3913044
vt 0.6216216 0.3913044
vt 0.6216216 0.4130435
vt 0.5945946 0.4130435
vt 0.5675676 0.3913044
vt 0.5675676 0.4130435
vt 0.5135135 0.3695652
vt 0.5405405 0.3695652
vt 0.4864865 0.3695652
vt 0.5945946 0.3695652
vt 0.6216216 0.3695652
vt 0.5675676 0.3695652
vt 0.5135135 0.3478261
vt 0.5405405 0.3478261
vt 0.4864865 0.3478261
vt 0.5945946 0.3478261
vt 0.6216216 0.3478261
vt 0.5675676 0.3478261
vt 0.5945946 0.3260869
vt 0.6216216 0.3260869
vt 0.5675676 0.3260869
vt 0.5405405 0.3260869
vt 0.5135135 0.3260869
vt 0.4864865 0.3260869
vt 0.4864865 0.3043478
vt 0.5135135 0.3043478
vt 0.4864865 0.2826087
vt 0.5135135 0.2826087
vt 0.5945946 0.3043478
vt 0.6216216 0.3043478
vt 0.5945946 0.2826087
vt 0.6216216 0.2826087
vt 0.5675676 0.2826087
vt 0.5675676 0.3043478
vt 0.5405405 0.2826087
vt 0.5405405 0.3043478

# Normal
vn 0 0 -1

# Mesh description
g dungeon1_mesh_0087

# Faces
f 1/1/1 2/2/1 3/3/1 4/4/1
f 5/5/1 6/1/1 7/4/1 8/6/1
f 9/1/1 10/2/1 11/3/1 12/4/1
f 13/5/1 14/1/1 15/4/1 16/6/1
f 17/7/1 18/8/1 19/9/1 20/10/1
f 21/11/1 22/7/1 23/10/1 24/12/1
f 25/2/1 26/11/1 27/12/1 28/3/1
f 29/1/1 30/2/1 31/3/1 32/4/1
f 33/5/1 34/1/1 35/4/1 36/6/1
f 37/11/1 38/7/1 39/10/1 40/12/1
f 41/2/1 42/11/1 43/12/1 44/3/1
f 45/1/1 46/2/1 47/3/1 48/4/1
f 49/5/1 50/1/1 51/4/1 52/6/1
f 53/11/1 54/7/1 55/10/1 56/12/1
f 57/2/1 58/11/1 59/12/1 60/3/1
f 61/1/1 62/2/1 63/3/1 64/4/1
f 65/13/1 66/14/1 67/2/1 68/1/1
f 69/15/1 70/13/1 71/1/1 72/5/1
f 73/13/1 74/14/1 75/2/1 76/1/1
f 77/15/1 78/13/1 79/1/1 80/5/1
f 81/16/1 82/17/1 83/8/1 84/7/1
f 85/18/1 86/16/1 87/7/1 88/11/1
f 89/14/1 90/18/1 91/11/1 92/2/1
f 93/13/1 94/14/1 95/2/1 96/1/1
f 97/15/1 98/13/1 99/1/1 100/5/1
f 101/18/1 102/16/1 103/7/1 104/11/1
f 105/14/1 106/18/1 107/11/1 108/2/1
f 109/13/1 110/14/1 111/2/1 112/1/1
f 113/15/1 114/13/1 115/1/1 116/5/1
f 117/18/1 118/16/1 119/7/1 120/11/1
f 121/14/1 122/18/1 123/11/1 124/2/1
f 125/13/1 126/14/1 127/2/1 128/1/1
f 129/19/1 130/20/1 131/14/1 132/13/1
f 133/21/1 134/19/1 135/13/1 136/15/1
f 137/19/1 138/20/1 139/14/1 140/13/1
f 141/21/1 142/19/1 143/13/1 144/15/1
f 145/22/1 146/23/1 147/17/1 148/16/1
f 149/24/1 150/22/1 151/16/1 152/18/1
f 153/20/1 154/24/1 155/18/1 156/14/1
f 157/19/1 158/20/1 159/14/1 160/13/1
f 161/21/1 162/19/1 163/13/1 164/15/1
f 165/24/1 166/22/1 167/16/1 168/18/1
f 169/20/1 170/24/1 171/18/1 172/14/1
f 173/19/1 174/20/1 175/14/1 176/13/1
f 177/21/1 178/19/1 179/13/1 180/15/1
f 181/24/1 182/22/1 183/16/1 184/18/1
f 185/20/1 186/24/1 187/18/1 188/14/1
f 189/19/1 190/20/1 191/14/1 192/13/1
f 193/25/1 194/26/1 195/23/1 196/22/1
f 197/27/1 198/25/1 199/22/1 200/24/1
f 201/28/1 202/27/1 203/24/1 204/20/1
f 205/29/1 206/28/1 207/20/1 208/19/1
f 209/30/1 210/29/1 211/19/1 212/21/1
f 213/30/1 214/29/1 215/19/1 216/21/1
f 217/30/1 218/29/1 219/19/1 220/21/1
f 221/25/1 222/26/1 223/23/1 224/22/1
f 225/27/1 226/25/1 227/22/1 228/24/1
f 229/28/1 230/27/1 231/24/1 232/20/1
f 233/29/1 234/28/1 235/20/1 236/19/1
f 237/30/1 238/29/1 239/19/1 240/21/1
f 241/30/1 242/29/1 243/19/1 244/21/1
f 245/30/1 246/29/1 247/19/1 248/21/1
f 249/30/1 250/29/1 251/19/1 252/21/1
f 253/30/1 254/29/1 255/19/1 256/21/1
f 257/25/1 258/26/1 259/23/1 260/22/1
f 261/25/1 262/26/1 263/23/1 264/22/1
f 265/27/1 266/25/1 267/22/1 268/24/1
f 269/28/1 270/27/1 271/24/1 272/20/1
f 273/29/1 274/28/1 275/20/1 276/19/1
f 277/30/1 278/29/1 279/19/1 280/21/1
f 281/31/1 282/32/1 283/29/1 284/30/1
f 285/30/1 286/29/1 287/19/1 288/21/1
f 289/30/1 290/29/1 291/19/1 292/21/1
f 293/30/1 294/29/1 295/19/1 296/21/1
f 297/30/1 298/29/1 299/19/1 300/21/1
f 301/30/1 302/29/1 303/19/1 304/21/1
f 305/31/1 306/32/1 307/29/1 308/30/1
f 309/31/1 310/32/1 311/29/1 312/30/1
f 313/31/1 314/32/1 315/29/1 316/30/1
f 317/31/1 318/32/1 319/29/1 320/30/1
f 321/28/1 322/27/1 323/24/1 324/20/1
f 325/29/1 326/28/1 327/20/1 328/19/1
f 329/30/1 330/29/1 331/19/1 332/21/1
f 333/25/1 334/26/1 335/23/1 336/22/1
f 337/25/1 338/26/1 339/23/1 340/22/1
f 341/27/1 342/25/1 343/22/1 344/24/1
f 345/28/1 346/27/1 347/24/1 348/20/1
f 349/29/1 350/28/1 351/20/1 352/19/1
f 353/30/1 354/29/1 355/19/1 356/21/1
f 357/31/1 358/32/1 359/29/1 360/30/1
f 361/31/1 362/32/1 363/29/1 364/30/1
f 365/31/1 366/32/1 367/29/1 368/30/1
f 369/33/1 370/34/1 371/32/1 372/31/1
f 373/33/1 374/34/1 375/32/1 376/31/1
f 377/33/1 378/34/1 379/32/1 380/31/1
f 381/33/1 382/34/1 383/32/1 384/31/1
f 385/28/1 386/27/1 387/24/1 388/20/1
f 389/29/1 390/28/1 391/20/1 392/19/1
f 393/30/1 394/29/1 395/19/1 396/21/1
f 397/35/1 398/36/1 399/26/1 400/25/1
f 401/25/1 402/26/1 403/23/1 404/22/1
f 405/25/1 406/26/1 407/23/1 408/22/1
f 409/25/1 410/26/1 411/23/1 412/22/1
f 413/27/1 414/25/1 415/22/1 416/24/1
f 417/28/1 418/27/1 419/24/1 420/20/1
f 421/29/1 422/28/1 423/20/1 424/19/1
f 425/30/1 426/29/1 427/19/1 428/21/1
f 429/33/1 430/34/1 431/32/1 432/31/1
f 433/37/1 434/38/1 435/36/1 436/35/1
f 437/39/1 438/37/1 439/35/1 440/40/1
f 441/41/1 442/39/1 443/40/1 444/42/1
f 445/34/1 446/41/1 447/42/1 448/32/1
f 449/28/1 450/27/1 451/24/1 452/20/1
f 453/29/1 454/28/1 455/20/1 456/19/1
f 457/30/1 458/29/1 459/19/1 460/21/1
f 461/30/1 462/29/1 463/19/1 464/21/1
f 465/35/1 466/36/1 467/26/1 468/25/1
f 469/35/1 470/36/1 471/26/1 472/25/1
f 473/25/1 474/26/1 475/23/1 476/22/1
f 477/25/1 478/26/1 479/23/1 480/22/1
f 481/27/1 482/25/1 483/22/1 484/24/1
f 485/28/1 486/27/1 487/24/1 488/20/1
f 489/29/1 490/28/1 491/20/1 492/19/1
f 493/30/1 494/29/1 495/19/1 496/21/1
f 497/37/1 498/38/1 499/36/1 500/35/1
f 501/39/1 502/37/1 503/35/1 504/40/1
f 505/41/1 506/39/1 507/40/1 508/42/1
f 509/34/1 510/41/1 511/42/1 512/32/1

