# Tiled2Unity generated file. Do not modify by hand.
# Wavefront file for 'dungeon1_mesh_0031.obj'

# Vertices (Count = 580)
v -15 -1 0
v -16 -1 0
v -16 0 0
v -15 0 0
v -14 -1 0
v -15 -1 0
v -15 0 0
v -14 0 0
v -13 -1 0
v -14 -1 0
v -14 0 0
v -13 0 0
v -12 -1 0
v -13 -1 0
v -13 0 0
v -12 0 0
v -11 -1 0
v -12 -1 0
v -12 0 0
v -11 0 0
v -10 -1 0
v -11 -1 0
v -11 0 0
v -10 0 0
v -9 -1 0
v -10 -1 0
v -10 0 0
v -9 0 0
v -8 -1 0
v -9 -1 0
v -9 0 0
v -8 0 0
v -7 -1 0
v -8 -1 0
v -8 0 0
v -7 0 0
v -6 -1 0
v -7 -1 0
v -7 0 0
v -6 0 0
v -5 -1 0
v -6 -1 0
v -6 0 0
v -5 0 0
v -4 -1 0
v -5 -1 0
v -5 0 0
v -4 0 0
v -3 -1 0
v -4 -1 0
v -4 0 0
v -3 0 0
v -2 -1 0
v -3 -1 0
v -3 0 0
v -2 0 0
v -1 -1 0
v -2 -1 0
v -2 0 0
v -1 0 0
v 0 -1 0
v -1 -1 0
v -1 0 0
v 0 0 0
v -15 -2 0
v -16 -2 0
v -16 -1 0
v -15 -1 0
v -14 -2 0
v -15 -2 0
v -15 -1 0
v -14 -1 0
v -13 -2 0
v -14 -2 0
v -14 -1 0
v -13 -1 0
v -12 -2 0
v -13 -2 0
v -13 -1 0
v -12 -1 0
v -11 -2 0
v -12 -2 0
v -12 -1 0
v -11 -1 0
v -10 -2 0
v -11 -2 0
v -11 -1 0
v -10 -1 0
v -9 -2 0
v -10 -2 0
v -10 -1 0
v -9 -1 0
v -8 -2 0
v -9 -2 0
v -9 -1 0
v -8 -1 0
v -7 -2 0
v -8 -2 0
v -8 -1 0
v -7 -1 0
v -6 -2 0
v -7 -2 0
v -7 -1 0
v -6 -1 0
v -5 -2 0
v -6 -2 0
v -6 -1 0
v -5 -1 0
v -4 -2 0
v -5 -2 0
v -5 -1 0
v -4 -1 0
v -3 -2 0
v -4 -2 0
v -4 -1 0
v -3 -1 0
v -2 -2 0
v -3 -2 0
v -3 -1 0
v -2 -1 0
v -1 -2 0
v -2 -2 0
v -2 -1 0
v -1 -1 0
v 0 -2 0
v -1 -2 0
v -1 -1 0
v 0 -1 0
v -15 -3 0
v -16 -3 0
v -16 -2 0
v -15 -2 0
v -14 -3 0
v -15 -3 0
v -15 -2 0
v -14 -2 0
v -13 -3 0
v -14 -3 0
v -14 -2 0
v -13 -2 0
v -12 -3 0
v -13 -3 0
v -13 -2 0
v -12 -2 0
v -11 -3 0
v -12 -3 0
v -12 -2 0
v -11 -2 0
v -10 -3 0
v -11 -3 0
v -11 -2 0
v -10 -2 0
v -9 -3 0
v -10 -3 0
v -10 -2 0
v -9 -2 0
v -8 -3 0
v -9 -3 0
v -9 -2 0
v -8 -2 0
v -7 -3 0
v -8 -3 0
v -8 -2 0
v -7 -2 0
v -6 -3 0
v -7 -3 0
v -7 -2 0
v -6 -2 0
v -5 -3 0
v -6 -3 0
v -6 -2 0
v -5 -2 0
v -4 -3 0
v -5 -3 0
v -5 -2 0
v -4 -2 0
v -3 -3 0
v -4 -3 0
v -4 -2 0
v -3 -2 0
v -2 -3 0
v -3 -3 0
v -3 -2 0
v -2 -2 0
v -1 -3 0
v -2 -3 0
v -2 -2 0
v -1 -2 0
v 0 -3 0
v -1 -3 0
v -1 -2 0
v 0 -2 0
v -15 -4 0
v -16 -4 0
v -16 -3 0
v -15 -3 0
v -14 -4 0
v -15 -4 0
v -15 -3 0
v -14 -3 0
v -13 -4 0
v -14 -4 0
v -14 -3 0
v -13 -3 0
v -12 -4 0
v -13 -4 0
v -13 -3 0
v -12 -3 0
v -11 -4 0
v -12 -4 0
v -12 -3 0
v -11 -3 0
v -10 -4 0
v -11 -4 0
v -11 -3 0
v -10 -3 0
v -9 -4 0
v -10 -4 0
v -10 -3 0
v -9 -3 0
v -8 -4 0
v -9 -4 0
v -9 -3 0
v -8 -3 0
v -7 -4 0
v -8 -4 0
v -8 -3 0
v -7 -3 0
v -6 -4 0
v -7 -4 0
v -7 -3 0
v -6 -3 0
v -5 -4 0
v -6 -4 0
v -6 -3 0
v -5 -3 0
v -4 -4 0
v -5 -4 0
v -5 -3 0
v -4 -3 0
v -3 -4 0
v -4 -4 0
v -4 -3 0
v -3 -3 0
v -2 -4 0
v -3 -4 0
v -3 -3 0
v -2 -3 0
v -1 -4 0
v -2 -4 0
v -2 -3 0
v -1 -3 0
v 0 -4 0
v -1 -4 0
v -1 -3 0
v 0 -3 0
v -15 -5 0
v -16 -5 0
v -16 -4 0
v -15 -4 0
v -14 -5 0
v -15 -5 0
v -15 -4 0
v -14 -4 0
v -13 -5 0
v -14 -5 0
v -14 -4 0
v -13 -4 0
v -12 -5 0
v -13 -5 0
v -13 -4 0
v -12 -4 0
v -11 -5 0
v -12 -5 0
v -12 -4 0
v -11 -4 0
v -10 -5 0
v -11 -5 0
v -11 -4 0
v -10 -4 0
v -9 -5 0
v -10 -5 0
v -10 -4 0
v -9 -4 0
v -8 -5 0
v -9 -5 0
v -9 -4 0
v -8 -4 0
v -7 -5 0
v -8 -5 0
v -8 -4 0
v -7 -4 0
v -6 -5 0
v -7 -5 0
v -7 -4 0
v -6 -4 0
v -5 -5 0
v -6 -5 0
v -6 -4 0
v -5 -4 0
v -4 -5 0
v -5 -5 0
v -5 -4 0
v -4 -4 0
v -3 -5 0
v -4 -5 0
v -4 -4 0
v -3 -4 0
v -2 -5 0
v -3 -5 0
v -3 -4 0
v -2 -4 0
v -1 -5 0
v -2 -5 0
v -2 -4 0
v -1 -4 0
v 0 -5 0
v -1 -5 0
v -1 -4 0
v 0 -4 0
v -15 -6 0
v -16 -6 0
v -16 -5 0
v -15 -5 0
v -14 -6 0
v -15 -6 0
v -15 -5 0
v -14 -5 0
v -13 -6 0
v -14 -6 0
v -14 -5 0
v -13 -5 0
v -12 -6 0
v -13 -6 0
v -13 -5 0
v -12 -5 0
v -11 -6 0
v -12 -6 0
v -12 -5 0
v -11 -5 0
v -10 -6 0
v -11 -6 0
v -11 -5 0
v -10 -5 0
v -9 -6 0
v -10 -6 0
v -10 -5 0
v -9 -5 0
v -8 -6 0
v -9 -6 0
v -9 -5 0
v -8 -5 0
v -7 -6 0
v -8 -6 0
v -8 -5 0
v -7 -5 0
v -6 -6 0
v -7 -6 0
v -7 -5 0
v -6 -5 0
v -5 -6 0
v -6 -6 0
v -6 -5 0
v -5 -5 0
v -4 -6 0
v -5 -6 0
v -5 -5 0
v -4 -5 0
v -3 -6 0
v -4 -6 0
v -4 -5 0
v -3 -5 0
v -2 -6 0
v -3 -6 0
v -3 -5 0
v -2 -5 0
v -1 -6 0
v -2 -6 0
v -2 -5 0
v -1 -5 0
v 0 -6 0
v -1 -6 0
v -1 -5 0
v 0 -5 0
v -15 -7 0
v -16 -7 0
v -16 -6 0
v -15 -6 0
v -14 -7 0
v -15 -7 0
v -15 -6 0
v -14 -6 0
v -13 -7 0
v -14 -7 0
v -14 -6 0
v -13 -6 0
v -12 -7 0
v -13 -7 0
v -13 -6 0
v -12 -6 0
v -11 -7 0
v -12 -7 0
v -12 -6 0
v -11 -6 0
v -10 -7 0
v -11 -7 0
v -11 -6 0
v -10 -6 0
v -9 -7 0
v -10 -7 0
v -10 -6 0
v -9 -6 0
v -8 -7 0
v -9 -7 0
v -9 -6 0
v -8 -6 0
v -7 -7 0
v -8 -7 0
v -8 -6 0
v -7 -6 0
v -6 -7 0
v -7 -7 0
v -7 -6 0
v -6 -6 0
v -5 -7 0
v -6 -7 0
v -6 -6 0
v -5 -6 0
v -4 -7 0
v -5 -7 0
v -5 -6 0
v -4 -6 0
v -3 -7 0
v -4 -7 0
v -4 -6 0
v -3 -6 0
v -2 -7 0
v -3 -7 0
v -3 -6 0
v -2 -6 0
v -1 -7 0
v -2 -7 0
v -2 -6 0
v -1 -6 0
v 0 -7 0
v -1 -7 0
v -1 -6 0
v 0 -6 0
v -15 -8 0
v -16 -8 0
v -16 -7 0
v -15 -7 0
v -14 -8 0
v -15 -8 0
v -15 -7 0
v -14 -7 0
v -13 -8 0
v -14 -8 0
v -14 -7 0
v -13 -7 0
v -12 -8 0
v -13 -8 0
v -13 -7 0
v -12 -7 0
v -11 -8 0
v -12 -8 0
v -12 -7 0
v -11 -7 0
v -10 -8 0
v -11 -8 0
v -11 -7 0
v -10 -7 0
v -9 -8 0
v -10 -8 0
v -10 -7 0
v -9 -7 0
v -8 -8 0
v -9 -8 0
v -9 -7 0
v -8 -7 0
v -7 -8 0
v -8 -8 0
v -8 -7 0
v -7 -7 0
v -6 -8 0
v -7 -8 0
v -7 -7 0
v -6 -7 0
v -5 -8 0
v -6 -8 0
v -6 -7 0
v -5 -7 0
v -4 -8 0
v -5 -8 0
v -5 -7 0
v -4 -7 0
v -3 -8 0
v -4 -8 0
v -4 -7 0
v -3 -7 0
v -2 -8 0
v -3 -8 0
v -3 -7 0
v -2 -7 0
v -1 -8 0
v -2 -8 0
v -2 -7 0
v -1 -7 0
v 0 -8 0
v -1 -8 0
v -1 -7 0
v 0 -7 0
v -4 -9 0
v -5 -9 0
v -5 -8 0
v -4 -8 0
v -3 -9 0
v -4 -9 0
v -4 -8 0
v -3 -8 0
v -2 -9 0
v -3 -9 0
v -3 -8 0
v -2 -8 0
v -1 -9 0
v -2 -9 0
v -2 -8 0
v -1 -8 0
v 0 -9 0
v -1 -9 0
v -1 -8 0
v 0 -8 0
v -2 -10 0
v -3 -10 0
v -3 -9 0
v -2 -9 0
v -1 -10 0
v -2 -10 0
v -2 -9 0
v -1 -9 0
v 0 -10 0
v -1 -10 0
v -1 -9 0
v 0 -9 0
v -2 -11 0
v -3 -11 0
v -3 -10 0
v -2 -10 0
v -1 -11 0
v -2 -11 0
v -2 -10 0
v -1 -10 0
v 0 -11 0
v -1 -11 0
v -1 -10 0
v 0 -10 0
v -2 -12 0
v -3 -12 0
v -3 -11 0
v -2 -11 0
v -1 -12 0
v -2 -12 0
v -2 -11 0
v -1 -11 0
v 0 -12 0
v -1 -12 0
v -1 -11 0
v 0 -11 0
v -2 -13 0
v -3 -13 0
v -3 -12 0
v -2 -12 0
v -1 -13 0
v -2 -13 0
v -2 -12 0
v -1 -12 0
v 0 -13 0
v -1 -13 0
v -1 -12 0
v 0 -12 0

# Texture cooridinates (Count = 42)
vt 0.3243243 0.9347826
vt 0.3513514 0.9347826
vt 0.3513514 0.9565217
vt 0.3243243 0.9565217
vt 0.2972973 0.9347826
vt 0.2972973 0.9565217
vt 0.2702703 0.9347826
vt 0.2702703 0.9565217
vt 0.2432432 0.9347826
vt 0.2432432 0.9565217
vt 0.2162162 0.9347826
vt 0.2162162 0.9565217
vt 0.3783784 0.9347826
vt 0.3783784 0.9565217
vt 0.3243243 0.9130435
vt 0.3513514 0.9130435
vt 0.2972973 0.9130435
vt 0.2702703 0.9130435
vt 0.2432432 0.9130435
vt 0.2162162 0.9130435
vt 0.3243243 0.8913044
vt 0.3513514 0.8913044
vt 0.2972973 0.8913044
vt 0.2702703 0.8913044
vt 0.2432432 0.8913044
vt 0.2162162 0.8913044
vt 0.3243243 0.8695652
vt 0.3513514 0.8695652
vt 0.2972973 0.8695652
vt 0.2702703 0.8695652
vt 0.2432432 0.8695652
vt 0.2162162 0.8695652
vt 0.3783784 0.9130435
vt 0.1891892 0.9347826
vt 0.1891892 0.9565217
vt 0.3783784 0.8695652
vt 0.4054054 0.8695652
vt 0.4054054 0.8913044
vt 0.3783784 0.8913044
vt 0.4054054 0.9347826
vt 0.4054054 0.9565217
vt 0.4054054 0.9130435

# Normal
vn 0 0 -1

# Mesh description
g dungeon1_mesh_0031

# Faces
f 1/1/1 2/2/1 3/3/1 4/4/1
f 5/5/1 6/1/1 7/4/1 8/6/1
f 9/7/1 10/5/1 11/6/1 12/8/1
f 13/9/1 14/7/1 15/8/1 16/10/1
f 17/11/1 18/9/1 19/10/1 20/12/1
f 21/5/1 22/1/1 23/4/1 24/6/1
f 25/7/1 26/5/1 27/6/1 28/8/1
f 29/9/1 30/7/1 31/8/1 32/10/1
f 33/11/1 34/9/1 35/10/1 36/12/1
f 37/11/1 38/9/1 39/10/1 40/12/1
f 41/11/1 42/9/1 43/10/1 44/12/1
f 45/11/1 46/9/1 47/10/1 48/12/1
f 49/11/1 50/9/1 51/10/1 52/12/1
f 53/2/1 54/13/1 55/14/1 56/3/1
f 57/1/1 58/2/1 59/3/1 60/4/1
f 61/5/1 62/1/1 63/4/1 64/6/1
f 65/15/1 66/16/1 67/2/1 68/1/1
f 69/17/1 70/15/1 71/1/1 72/5/1
f 73/18/1 74/17/1 75/5/1 76/7/1
f 77/19/1 78/18/1 79/7/1 80/9/1
f 81/20/1 82/19/1 83/9/1 84/11/1
f 85/1/1 86/2/1 87/3/1 88/4/1
f 89/5/1 90/1/1 91/4/1 92/6/1
f 93/7/1 94/5/1 95/6/1 96/8/1
f 97/9/1 98/7/1 99/8/1 100/10/1
f 101/11/1 102/9/1 103/10/1 104/12/1
f 105/20/1 106/19/1 107/9/1 108/11/1
f 109/20/1 110/19/1 111/9/1 112/11/1
f 113/20/1 114/19/1 115/9/1 116/11/1
f 117/11/1 118/9/1 119/10/1 120/12/1
f 121/1/1 122/2/1 123/3/1 124/4/1
f 125/5/1 126/1/1 127/4/1 128/6/1
f 129/21/1 130/22/1 131/16/1 132/15/1
f 133/23/1 134/21/1 135/15/1 136/17/1
f 137/24/1 138/23/1 139/17/1 140/18/1
f 141/25/1 142/24/1 143/18/1 144/19/1
f 145/26/1 146/25/1 147/19/1 148/20/1
f 149/7/1 150/5/1 151/6/1 152/8/1
f 153/9/1 154/7/1 155/8/1 156/10/1
f 157/11/1 158/9/1 159/10/1 160/12/1
f 161/11/1 162/9/1 163/10/1 164/12/1
f 165/9/1 166/7/1 167/8/1 168/10/1
f 169/11/1 170/9/1 171/10/1 172/12/1
f 173/26/1 174/25/1 175/19/1 176/20/1
f 177/26/1 178/25/1 179/19/1 180/20/1
f 181/20/1 182/19/1 183/9/1 184/11/1
f 185/5/1 186/1/1 187/4/1 188/6/1
f 189/7/1 190/5/1 191/6/1 192/8/1
f 193/27/1 194/28/1 195/22/1 196/21/1
f 197/29/1 198/27/1 199/21/1 200/23/1
f 201/30/1 202/29/1 203/23/1 204/24/1
f 205/31/1 206/30/1 207/24/1 208/25/1
f 209/32/1 210/31/1 211/25/1 212/26/1
f 213/11/1 214/9/1 215/10/1 216/12/1
f 217/11/1 218/9/1 219/10/1 220/12/1
f 221/11/1 222/9/1 223/10/1 224/12/1
f 225/20/1 226/19/1 227/9/1 228/11/1
f 229/11/1 230/9/1 231/10/1 232/12/1
f 233/11/1 234/9/1 235/10/1 236/12/1
f 237/11/1 238/9/1 239/10/1 240/12/1
f 241/32/1 242/31/1 243/25/1 244/26/1
f 245/26/1 246/25/1 247/19/1 248/20/1
f 249/5/1 250/1/1 251/4/1 252/6/1
f 253/7/1 254/5/1 255/6/1 256/8/1
f 257/27/1 258/28/1 259/22/1 260/21/1
f 261/29/1 262/27/1 263/21/1 264/23/1
f 265/30/1 266/29/1 267/23/1 268/24/1
f 269/31/1 270/30/1 271/24/1 272/25/1
f 273/32/1 274/31/1 275/25/1 276/26/1
f 277/20/1 278/19/1 279/9/1 280/11/1
f 281/20/1 282/19/1 283/9/1 284/11/1
f 285/20/1 286/19/1 287/9/1 288/11/1
f 289/26/1 290/25/1 291/19/1 292/20/1
f 293/20/1 294/19/1 295/9/1 296/11/1
f 297/20/1 298/19/1 299/9/1 300/11/1
f 301/20/1 302/19/1 303/9/1 304/11/1
f 305/32/1 306/31/1 307/25/1 308/26/1
f 309/32/1 310/31/1 311/25/1 312/26/1
f 313/5/1 314/1/1 315/4/1 316/6/1
f 317/7/1 318/5/1 319/6/1 320/8/1
f 321/27/1 322/28/1 323/22/1 324/21/1
f 325/29/1 326/27/1 327/21/1 328/23/1
f 329/30/1 330/29/1 331/23/1 332/24/1
f 333/31/1 334/30/1 335/24/1 336/25/1
f 337/32/1 338/31/1 339/25/1 340/26/1
f 341/26/1 342/25/1 343/19/1 344/20/1
f 345/26/1 346/25/1 347/19/1 348/20/1
f 349/26/1 350/25/1 351/19/1 352/20/1
f 353/32/1 354/31/1 355/25/1 356/26/1
f 357/26/1 358/25/1 359/19/1 360/20/1
f 361/26/1 362/25/1 363/19/1 364/20/1
f 365/26/1 366/25/1 367/19/1 368/20/1
f 369/2/1 370/13/1 371/14/1 372/3/1
f 373/1/1 374/2/1 375/3/1 376/4/1
f 377/5/1 378/1/1 379/4/1 380/6/1
f 381/7/1 382/5/1 383/6/1 384/8/1
f 385/27/1 386/28/1 387/22/1 388/21/1
f 389/29/1 390/27/1 391/21/1 392/23/1
f 393/30/1 394/29/1 395/23/1 396/24/1
f 397/31/1 398/30/1 399/24/1 400/25/1
f 401/32/1 402/31/1 403/25/1 404/26/1
f 405/32/1 406/31/1 407/25/1 408/26/1
f 409/32/1 410/31/1 411/25/1 412/26/1
f 413/32/1 414/31/1 415/25/1 416/26/1
f 417/32/1 418/31/1 419/25/1 420/26/1
f 421/32/1 422/31/1 423/25/1 424/26/1
f 425/32/1 426/31/1 427/25/1 428/26/1
f 429/32/1 430/31/1 431/25/1 432/26/1
f 433/16/1 434/33/1 435/13/1 436/2/1
f 437/15/1 438/16/1 439/2/1 440/1/1
f 441/17/1 442/15/1 443/1/1 444/5/1
f 445/18/1 446/17/1 447/5/1 448/7/1
f 449/34/1 450/11/1 451/12/1 452/35/1
f 453/34/1 454/11/1 455/12/1 456/35/1
f 457/34/1 458/11/1 459/12/1 460/35/1
f 461/34/1 462/11/1 463/12/1 464/35/1
f 465/34/1 466/11/1 467/12/1 468/35/1
f 469/36/1 470/37/1 471/38/1 472/39/1
f 473/28/1 474/36/1 475/39/1 476/22/1
f 477/27/1 478/28/1 479/22/1 480/21/1
f 481/29/1 482/27/1 483/21/1 484/23/1
f 485/30/1 486/29/1 487/23/1 488/24/1
f 489/31/1 490/30/1 491/24/1 492/25/1
f 493/32/1 494/31/1 495/25/1 496/26/1
f 497/22/1 498/39/1 499/33/1 500/16/1
f 501/21/1 502/22/1 503/16/1 504/15/1
f 505/23/1 506/21/1 507/15/1 508/17/1
f 509/24/1 510/23/1 511/17/1 512/18/1
f 513/36/1 514/37/1 515/38/1 516/39/1
f 517/28/1 518/36/1 519/39/1 520/22/1
f 521/27/1 522/28/1 523/22/1 524/21/1
f 525/29/1 526/27/1 527/21/1 528/23/1
f 529/30/1 530/29/1 531/23/1 532/24/1
f 533/13/1 534/40/1 535/41/1 536/14/1
f 537/2/1 538/13/1 539/14/1 540/3/1
f 541/36/1 542/37/1 543/38/1 544/39/1
f 545/33/1 546/42/1 547/40/1 548/13/1
f 549/16/1 550/33/1 551/13/1 552/2/1
f 553/15/1 554/16/1 555/2/1 556/1/1
f 557/39/1 558/38/1 559/42/1 560/33/1
f 561/22/1 562/39/1 563/33/1 564/16/1
f 565/21/1 566/22/1 567/16/1 568/15/1
f 569/36/1 570/37/1 571/38/1 572/39/1
f 573/28/1 574/36/1 575/39/1 576/22/1
f 577/27/1 578/28/1 579/22/1 580/21/1

