# Tiled2Unity generated file. Do not modify by hand.
# Wavefront file for 'dungeon1_mesh_0127.obj'

# Vertices (Count = 440)
v -15 -1 0
v -16 -1 0
v -16 0 0
v -15 0 0
v -14 -1 0
v -15 -1 0
v -15 0 0
v -14 0 0
v -2 -1 0
v -3 -1 0
v -3 0 0
v -2 0 0
v -1 -1 0
v -2 -1 0
v -2 0 0
v -1 0 0
v 0 -1 0
v -1 -1 0
v -1 0 0
v 0 0 0
v -15 -2 0
v -16 -2 0
v -16 -1 0
v -15 -1 0
v -14 -2 0
v -15 -2 0
v -15 -1 0
v -14 -1 0
v -10 -2 0
v -11 -2 0
v -11 -1 0
v -10 -1 0
v -7 -2 0
v -8 -2 0
v -8 -1 0
v -7 -1 0
v -3 -2 0
v -4 -2 0
v -4 -1 0
v -3 -1 0
v -2 -2 0
v -3 -2 0
v -3 -1 0
v -2 -1 0
v -1 -2 0
v -2 -2 0
v -2 -1 0
v -1 -1 0
v 0 -2 0
v -1 -2 0
v -1 -1 0
v 0 -1 0
v -15 -3 0
v -16 -3 0
v -16 -2 0
v -15 -2 0
v -14 -3 0
v -15 -3 0
v -15 -2 0
v -14 -2 0
v -10 -3 0
v -11 -3 0
v -11 -2 0
v -10 -2 0
v -7 -3 0
v -8 -3 0
v -8 -2 0
v -7 -2 0
v -3 -3 0
v -4 -3 0
v -4 -2 0
v -3 -2 0
v -2 -3 0
v -3 -3 0
v -3 -2 0
v -2 -2 0
v -1 -3 0
v -2 -3 0
v -2 -2 0
v -1 -2 0
v 0 -3 0
v -1 -3 0
v -1 -2 0
v 0 -2 0
v -15 -4 0
v -16 -4 0
v -16 -3 0
v -15 -3 0
v -14 -4 0
v -15 -4 0
v -15 -3 0
v -14 -3 0
v -2 -4 0
v -3 -4 0
v -3 -3 0
v -2 -3 0
v -1 -4 0
v -2 -4 0
v -2 -3 0
v -1 -3 0
v 0 -4 0
v -1 -4 0
v -1 -3 0
v 0 -3 0
v -10 -7 0
v -11 -7 0
v -11 -6 0
v -10 -6 0
v -9 -7 0
v -10 -7 0
v -10 -6 0
v -9 -6 0
v -8 -7 0
v -9 -7 0
v -9 -6 0
v -8 -6 0
v -7 -7 0
v -8 -7 0
v -8 -6 0
v -7 -6 0
v -15 -8 0
v -16 -8 0
v -16 -7 0
v -15 -7 0
v -14 -8 0
v -15 -8 0
v -15 -7 0
v -14 -7 0
v -13 -8 0
v -14 -8 0
v -14 -7 0
v -13 -7 0
v -12 -8 0
v -13 -8 0
v -13 -7 0
v -12 -7 0
v -11 -8 0
v -12 -8 0
v -12 -7 0
v -11 -7 0
v -10 -8 0
v -11 -8 0
v -11 -7 0
v -10 -7 0
v -9 -8 0
v -10 -8 0
v -10 -7 0
v -9 -7 0
v -8 -8 0
v -9 -8 0
v -9 -7 0
v -8 -7 0
v -7 -8 0
v -8 -8 0
v -8 -7 0
v -7 -7 0
v -6 -8 0
v -7 -8 0
v -7 -7 0
v -6 -7 0
v -5 -8 0
v -6 -8 0
v -6 -7 0
v -5 -7 0
v -4 -8 0
v -5 -8 0
v -5 -7 0
v -4 -7 0
v -3 -8 0
v -4 -8 0
v -4 -7 0
v -3 -7 0
v -2 -8 0
v -3 -8 0
v -3 -7 0
v -2 -7 0
v -1 -8 0
v -2 -8 0
v -2 -7 0
v -1 -7 0
v 0 -8 0
v -1 -8 0
v -1 -7 0
v 0 -7 0
v -15 -9 0
v -16 -9 0
v -16 -8 0
v -15 -8 0
v -14 -9 0
v -15 -9 0
v -15 -8 0
v -14 -8 0
v -13 -9 0
v -14 -9 0
v -14 -8 0
v -13 -8 0
v -12 -9 0
v -13 -9 0
v -13 -8 0
v -12 -8 0
v -11 -9 0
v -12 -9 0
v -12 -8 0
v -11 -8 0
v -10 -9 0
v -11 -9 0
v -11 -8 0
v -10 -8 0
v -9 -9 0
v -10 -9 0
v -10 -8 0
v -9 -8 0
v -8 -9 0
v -9 -9 0
v -9 -8 0
v -8 -8 0
v -7 -9 0
v -8 -9 0
v -8 -8 0
v -7 -8 0
v -6 -9 0
v -7 -9 0
v -7 -8 0
v -6 -8 0
v -5 -9 0
v -6 -9 0
v -6 -8 0
v -5 -8 0
v -4 -9 0
v -5 -9 0
v -5 -8 0
v -4 -8 0
v -3 -9 0
v -4 -9 0
v -4 -8 0
v -3 -8 0
v -2 -9 0
v -3 -9 0
v -3 -8 0
v -2 -8 0
v -1 -9 0
v -2 -9 0
v -2 -8 0
v -1 -8 0
v 0 -9 0
v -1 -9 0
v -1 -8 0
v 0 -8 0
v -15 -10 0
v -16 -10 0
v -16 -9 0
v -15 -9 0
v -14 -10 0
v -15 -10 0
v -15 -9 0
v -14 -9 0
v -13 -10 0
v -14 -10 0
v -14 -9 0
v -13 -9 0
v -12 -10 0
v -13 -10 0
v -13 -9 0
v -12 -9 0
v -11 -10 0
v -12 -10 0
v -12 -9 0
v -11 -9 0
v -10 -10 0
v -11 -10 0
v -11 -9 0
v -10 -9 0
v -9 -10 0
v -10 -10 0
v -10 -9 0
v -9 -9 0
v -8 -10 0
v -9 -10 0
v -9 -9 0
v -8 -9 0
v -7 -10 0
v -8 -10 0
v -8 -9 0
v -7 -9 0
v -6 -10 0
v -7 -10 0
v -7 -9 0
v -6 -9 0
v -5 -10 0
v -6 -10 0
v -6 -9 0
v -5 -9 0
v -4 -10 0
v -5 -10 0
v -5 -9 0
v -4 -9 0
v -3 -10 0
v -4 -10 0
v -4 -9 0
v -3 -9 0
v -2 -10 0
v -3 -10 0
v -3 -9 0
v -2 -9 0
v -1 -10 0
v -2 -10 0
v -2 -9 0
v -1 -9 0
v 0 -10 0
v -1 -10 0
v -1 -9 0
v 0 -9 0
v -15 -11 0
v -16 -11 0
v -16 -10 0
v -15 -10 0
v -14 -11 0
v -15 -11 0
v -15 -10 0
v -14 -10 0
v -13 -11 0
v -14 -11 0
v -14 -10 0
v -13 -10 0
v -12 -11 0
v -13 -11 0
v -13 -10 0
v -12 -10 0
v -11 -11 0
v -12 -11 0
v -12 -10 0
v -11 -10 0
v -10 -11 0
v -11 -11 0
v -11 -10 0
v -10 -10 0
v -9 -11 0
v -10 -11 0
v -10 -10 0
v -9 -10 0
v -8 -11 0
v -9 -11 0
v -9 -10 0
v -8 -10 0
v -7 -11 0
v -8 -11 0
v -8 -10 0
v -7 -10 0
v -6 -11 0
v -7 -11 0
v -7 -10 0
v -6 -10 0
v -5 -11 0
v -6 -11 0
v -6 -10 0
v -5 -10 0
v -4 -11 0
v -5 -11 0
v -5 -10 0
v -4 -10 0
v -3 -11 0
v -4 -11 0
v -4 -10 0
v -3 -10 0
v -2 -11 0
v -3 -11 0
v -3 -10 0
v -2 -10 0
v -1 -11 0
v -2 -11 0
v -2 -10 0
v -1 -10 0
v 0 -11 0
v -1 -11 0
v -1 -10 0
v 0 -10 0
v -15 -12 0
v -16 -12 0
v -16 -11 0
v -15 -11 0
v -14 -12 0
v -15 -12 0
v -15 -11 0
v -14 -11 0
v -13 -12 0
v -14 -12 0
v -14 -11 0
v -13 -11 0
v -12 -12 0
v -13 -12 0
v -13 -11 0
v -12 -11 0
v -11 -12 0
v -12 -12 0
v -12 -11 0
v -11 -11 0
v -10 -12 0
v -11 -12 0
v -11 -11 0
v -10 -11 0
v -9 -12 0
v -10 -12 0
v -10 -11 0
v -9 -11 0
v -8 -12 0
v -9 -12 0
v -9 -11 0
v -8 -11 0
v -7 -12 0
v -8 -12 0
v -8 -11 0
v -7 -11 0
v -6 -12 0
v -7 -12 0
v -7 -11 0
v -6 -11 0
v -5 -12 0
v -6 -12 0
v -6 -11 0
v -5 -11 0
v -4 -12 0
v -5 -12 0
v -5 -11 0
v -4 -11 0
v -3 -12 0
v -4 -12 0
v -4 -11 0
v -3 -11 0
v -2 -12 0
v -3 -12 0
v -3 -11 0
v -2 -11 0
v -1 -12 0
v -2 -12 0
v -2 -11 0
v -1 -11 0
v 0 -12 0
v -1 -12 0
v -1 -11 0
v 0 -11 0

# Texture cooridinates (Count = 117)
vt 0.7837838 0.3695652
vt 0.8108108 0.3695652
vt 0.8108108 0.3913044
vt 0.7837838 0.3913044
vt 0.7567568 0.3695652
vt 0.7567568 0.3913044
vt 0.8378378 0.3695652
vt 0.8648649 0.3695652
vt 0.8648649 0.3913044
vt 0.8378378 0.3913044
vt 0.7837838 0.3478261
vt 0.8108108 0.3478261
vt 0.7567568 0.3478261
vt 0.8648649 0.4347826
vt 0.8918919 0.4347826
vt 0.8918919 0.4565217
vt 0.8648649 0.4565217
vt 0.8378378 0.3478261
vt 0.8648649 0.3478261
vt 0.7837838 0.3260869
vt 0.8108108 0.3260869
vt 0.7567568 0.3260869
vt 0.8648649 0.4130435
vt 0.8918919 0.4130435
vt 0.8378378 0.3260869
vt 0.8648649 0.3260869
vt 0.7837838 0.3043478
vt 0.8108108 0.3043478
vt 0.7567568 0.3043478
vt 0.8378378 0.3043478
vt 0.8648649 0.3043478
vt 0.4864865 0.8478261
vt 0.5135135 0.8478261
vt 0.5135135 0.8695652
vt 0.4864865 0.8695652
vt 0.02702703 0.8478261
vt 0.05405406 0.8478261
vt 0.05405406 0.8695652
vt 0.02702703 0.8695652
vt 0 0.8478261
vt 0 0.8695652
vt 0.3243243 0.8260869
vt 0.3513514 0.8260869
vt 0.3513514 0.8478261
vt 0.3243243 0.8478261
vt 0.2972973 0.8260869
vt 0.2972973 0.8478261
vt 0.2702703 0.8260869
vt 0.2702703 0.8478261
vt 0.2162162 0.8260869
vt 0.2432432 0.8260869
vt 0.2432432 0.8478261
vt 0.2162162 0.8478261
vt 0.4864865 0.8260869
vt 0.5135135 0.8260869
vt 0.02702703 0.8260869
vt 0.05405406 0.8260869
vt 0 0.8260869
vt 0.1891892 0.8260869
vt 0.1891892 0.8478261
vt 0.3243243 0.8043478
vt 0.3513514 0.8043478
vt 0.2972973 0.8043478
vt 0.2702703 0.8043478
vt 0.2162162 0.8043478
vt 0.2432432 0.8043478
vt 0.4864865 0.8043478
vt 0.5135135 0.8043478
vt 0.02702703 0.8043478
vt 0.05405406 0.8043478
vt 0 0.8043478
vt 0.4864865 0.9347826
vt 0.5135135 0.9347826
vt 0.5135135 0.9565217
vt 0.4864865 0.9565217
vt 0.4594595 0.9347826
vt 0.4594595 0.9565217
vt 0.1891892 0.8043478
vt 0.3243243 0.7826087
vt 0.3513514 0.7826087
vt 0.2972973 0.7826087
vt 0.2702703 0.7826087
vt 0.2162162 0.7826087
vt 0.2432432 0.7826087
vt 0.4864865 0.7826087
vt 0.5135135 0.7826087
vt 0.02702703 0.7826087
vt 0.05405406 0.7826087
vt 0 0.7826087
vt 0.4864865 0.9130435
vt 0.5135135 0.9130435
vt 0.4594595 0.9130435
vt 0.1891892 0.7826087
vt 0.3243243 0.7608696
vt 0.3513514 0.7608696
vt 0.2972973 0.7608696
vt 0.2702703 0.7608696
vt 0.2162162 0.7608696
vt 0.2432432 0.7608696
vt 0.4864865 0.7608696
vt 0.5135135 0.7608696
vt 0.02702703 0.7608696
vt 0.05405406 0.7608696
vt 0 0.7608696
vt 0.4864865 0.8913044
vt 0.5135135 0.8913044
vt 0.4594595 0.8913044
vt 0.1891892 0.7608696
vt 0.3243243 0.7391304
vt 0.3513514 0.7391304
vt 0.2972973 0.7391304
vt 0.2702703 0.7391304
vt 0.2162162 0.7391304
vt 0.2432432 0.7391304
vt 0.4864865 0.7391304
vt 0.5135135 0.7391304
vt 0.1891892 0.7391304

# Normal
vn 0 0 -1

# Mesh description
g dungeon1_mesh_0127

# Faces
f 1/1/1 2/2/1 3/3/1 4/4/1
f 5/5/1 6/1/1 7/4/1 8/6/1
f 9/7/1 10/8/1 11/9/1 12/10/1
f 13/2/1 14/7/1 15/10/1 16/3/1
f 17/1/1 18/2/1 19/3/1 20/4/1
f 21/11/1 22/12/1 23/2/1 24/1/1
f 25/13/1 26/11/1 27/1/1 28/5/1
f 29/14/1 30/15/1 31/16/1 32/17/1
f 33/14/1 34/15/1 35/16/1 36/17/1
f 37/14/1 38/15/1 39/16/1 40/17/1
f 41/18/1 42/19/1 43/8/1 44/7/1
f 45/12/1 46/18/1 47/7/1 48/2/1
f 49/11/1 50/12/1 51/2/1 52/1/1
f 53/20/1 54/21/1 55/12/1 56/11/1
f 57/22/1 58/20/1 59/11/1 60/13/1
f 61/23/1 62/24/1 63/15/1 64/14/1
f 65/23/1 66/24/1 67/15/1 68/14/1
f 69/23/1 70/24/1 71/15/1 72/14/1
f 73/25/1 74/26/1 75/19/1 76/18/1
f 77/21/1 78/25/1 79/18/1 80/12/1
f 81/20/1 82/21/1 83/12/1 84/11/1
f 85/27/1 86/28/1 87/21/1 88/20/1
f 89/29/1 90/27/1 91/20/1 92/22/1
f 93/30/1 94/31/1 95/26/1 96/25/1
f 97/28/1 98/30/1 99/25/1 100/21/1
f 101/27/1 102/28/1 103/21/1 104/20/1
f 105/32/1 106/33/1 107/34/1 108/35/1
f 109/36/1 110/37/1 111/38/1 112/39/1
f 113/40/1 114/36/1 115/39/1 116/41/1
f 117/32/1 118/33/1 119/34/1 120/35/1
f 121/42/1 122/43/1 123/44/1 124/45/1
f 125/46/1 126/42/1 127/45/1 128/47/1
f 129/48/1 130/46/1 131/47/1 132/49/1
f 133/42/1 134/43/1 135/44/1 136/45/1
f 137/50/1 138/51/1 139/52/1 140/53/1
f 141/54/1 142/55/1 143/33/1 144/32/1
f 145/56/1 146/57/1 147/37/1 148/36/1
f 149/58/1 150/56/1 151/36/1 152/40/1
f 153/54/1 154/55/1 155/33/1 156/32/1
f 157/50/1 158/51/1 159/52/1 160/53/1
f 161/42/1 162/43/1 163/44/1 164/45/1
f 165/46/1 166/42/1 167/45/1 168/47/1
f 169/48/1 170/46/1 171/47/1 172/49/1
f 173/51/1 174/48/1 175/49/1 176/52/1
f 177/50/1 178/51/1 179/52/1 180/53/1
f 181/59/1 182/50/1 183/53/1 184/60/1
f 185/61/1 186/62/1 187/43/1 188/42/1
f 189/63/1 190/61/1 191/42/1 192/46/1
f 193/64/1 194/63/1 195/46/1 196/48/1
f 197/61/1 198/62/1 199/43/1 200/42/1
f 201/65/1 202/66/1 203/51/1 204/50/1
f 205/67/1 206/68/1 207/55/1 208/54/1
f 209/69/1 210/70/1 211/57/1 212/56/1
f 213/71/1 214/69/1 215/56/1 216/58/1
f 217/67/1 218/68/1 219/55/1 220/54/1
f 221/65/1 222/66/1 223/51/1 224/50/1
f 225/61/1 226/62/1 227/43/1 228/42/1
f 229/72/1 230/73/1 231/74/1 232/75/1
f 233/76/1 234/72/1 235/75/1 236/77/1
f 237/66/1 238/64/1 239/48/1 240/51/1
f 241/65/1 242/66/1 243/51/1 244/50/1
f 245/78/1 246/65/1 247/50/1 248/59/1
f 249/79/1 250/80/1 251/62/1 252/61/1
f 253/81/1 254/79/1 255/61/1 256/63/1
f 257/82/1 258/81/1 259/63/1 260/64/1
f 261/79/1 262/80/1 263/62/1 264/61/1
f 265/83/1 266/84/1 267/66/1 268/65/1
f 269/85/1 270/86/1 271/68/1 272/67/1
f 273/87/1 274/88/1 275/70/1 276/69/1
f 277/89/1 278/87/1 279/69/1 280/71/1
f 281/85/1 282/86/1 283/68/1 284/67/1
f 285/83/1 286/84/1 287/66/1 288/65/1
f 289/79/1 290/80/1 291/62/1 292/61/1
f 293/90/1 294/91/1 295/73/1 296/72/1
f 297/92/1 298/90/1 299/72/1 300/76/1
f 301/84/1 302/82/1 303/64/1 304/66/1
f 305/83/1 306/84/1 307/66/1 308/65/1
f 309/93/1 310/83/1 311/65/1 312/78/1
f 313/94/1 314/95/1 315/80/1 316/79/1
f 317/96/1 318/94/1 319/79/1 320/81/1
f 321/97/1 322/96/1 323/81/1 324/82/1
f 325/94/1 326/95/1 327/80/1 328/79/1
f 329/98/1 330/99/1 331/84/1 332/83/1
f 333/100/1 334/101/1 335/86/1 336/85/1
f 337/102/1 338/103/1 339/88/1 340/87/1
f 341/104/1 342/102/1 343/87/1 344/89/1
f 345/100/1 346/101/1 347/86/1 348/85/1
f 349/98/1 350/99/1 351/84/1 352/83/1
f 353/94/1 354/95/1 355/80/1 356/79/1
f 357/105/1 358/106/1 359/91/1 360/90/1
f 361/107/1 362/105/1 363/90/1 364/92/1
f 365/99/1 366/97/1 367/82/1 368/84/1
f 369/98/1 370/99/1 371/84/1 372/83/1
f 373/108/1 374/98/1 375/83/1 376/93/1
f 377/109/1 378/110/1 379/95/1 380/94/1
f 381/111/1 382/109/1 383/94/1 384/96/1
f 385/112/1 386/111/1 387/96/1 388/97/1
f 389/109/1 390/110/1 391/95/1 392/94/1
f 393/113/1 394/114/1 395/99/1 396/98/1
f 397/115/1 398/116/1 399/101/1 400/100/1
f 401/114/1 402/112/1 403/97/1 404/99/1
f 405/114/1 406/112/1 407/97/1 408/99/1
f 409/115/1 410/116/1 411/101/1 412/100/1
f 413/113/1 414/114/1 415/99/1 416/98/1
f 417/109/1 418/110/1 419/95/1 420/94/1
f 421/111/1 422/109/1 423/94/1 424/96/1
f 425/112/1 426/111/1 427/96/1 428/97/1
f 429/114/1 430/112/1 431/97/1 432/99/1
f 433/113/1 434/114/1 435/99/1 436/98/1
f 437/117/1 438/113/1 439/98/1 440/108/1

