# Tiled2Unity generated file. Do not modify by hand.
# Wavefront file for 'dungeon1_mesh_0108.obj'

# Vertices (Count = 24)
v -10 -16 0
v -11 -16 0
v -11 -15 0
v -10 -15 0
v -9 -16 0
v -10 -16 0
v -10 -15 0
v -9 -15 0
v -8 -16 0
v -9 -16 0
v -9 -15 0
v -8 -15 0
v -7 -16 0
v -8 -16 0
v -8 -15 0
v -7 -15 0
v -6 -16 0
v -7 -16 0
v -7 -15 0
v -6 -15 0
v -5 -16 0
v -6 -16 0
v -6 -15 0
v -5 -15 0

# Texture cooridinates (Count = 14)
vt 0.8378378 0.8695652
vt 0.8648649 0.8695652
vt 0.8648649 0.8913044
vt 0.8378378 0.8913044
vt 0.8108108 0.8695652
vt 0.8108108 0.8913044
vt 0.7837838 0.8695652
vt 0.7837838 0.8913044
vt 0.7567568 0.8695652
vt 0.7567568 0.8913044
vt 0.7297297 0.8695652
vt 0.7297297 0.8913044
vt 0.7027027 0.8695652
vt 0.7027027 0.8913044

# Normal
vn 0 0 -1

# Mesh description
g dungeon1_mesh_0108

# Faces
f 1/1/1 2/2/1 3/3/1 4/4/1
f 5/5/1 6/1/1 7/4/1 8/6/1
f 9/7/1 10/5/1 11/6/1 12/8/1
f 13/9/1 14/7/1 15/8/1 16/10/1
f 17/11/1 18/9/1 19/10/1 20/12/1
f 21/13/1 22/11/1 23/12/1 24/14/1

