# Tiled2Unity generated file. Do not modify by hand.
# Wavefront file for 'dungeon1_mesh_0069.obj'

# Vertices (Count = 764)
v -15 -1 0
v -16 -1 0
v -16 0 0
v -15 0 0
v -14 -1 0
v -15 -1 0
v -15 0 0
v -14 0 0
v -13 -1 0
v -14 -1 0
v -14 0 0
v -13 0 0
v -12 -1 0
v -13 -1 0
v -13 0 0
v -12 0 0
v -11 -1 0
v -12 -1 0
v -12 0 0
v -11 0 0
v -10 -1 0
v -11 -1 0
v -11 0 0
v -10 0 0
v -9 -1 0
v -10 -1 0
v -10 0 0
v -9 0 0
v -8 -1 0
v -9 -1 0
v -9 0 0
v -8 0 0
v -7 -1 0
v -8 -1 0
v -8 0 0
v -7 0 0
v -6 -1 0
v -7 -1 0
v -7 0 0
v -6 0 0
v -5 -1 0
v -6 -1 0
v -6 0 0
v -5 0 0
v -4 -1 0
v -5 -1 0
v -5 0 0
v -4 0 0
v -3 -1 0
v -4 -1 0
v -4 0 0
v -3 0 0
v -2 -1 0
v -3 -1 0
v -3 0 0
v -2 0 0
v -1 -1 0
v -2 -1 0
v -2 0 0
v -1 0 0
v 0 -1 0
v -1 -1 0
v -1 0 0
v 0 0 0
v -15 -2 0
v -16 -2 0
v -16 -1 0
v -15 -1 0
v -14 -2 0
v -15 -2 0
v -15 -1 0
v -14 -1 0
v -13 -2 0
v -14 -2 0
v -14 -1 0
v -13 -1 0
v -12 -2 0
v -13 -2 0
v -13 -1 0
v -12 -1 0
v -11 -2 0
v -12 -2 0
v -12 -1 0
v -11 -1 0
v -10 -2 0
v -11 -2 0
v -11 -1 0
v -10 -1 0
v -9 -2 0
v -10 -2 0
v -10 -1 0
v -9 -1 0
v -8 -2 0
v -9 -2 0
v -9 -1 0
v -8 -1 0
v -7 -2 0
v -8 -2 0
v -8 -1 0
v -7 -1 0
v -6 -2 0
v -7 -2 0
v -7 -1 0
v -6 -1 0
v -5 -2 0
v -6 -2 0
v -6 -1 0
v -5 -1 0
v -4 -2 0
v -5 -2 0
v -5 -1 0
v -4 -1 0
v -3 -2 0
v -4 -2 0
v -4 -1 0
v -3 -1 0
v -2 -2 0
v -3 -2 0
v -3 -1 0
v -2 -1 0
v -1 -2 0
v -2 -2 0
v -2 -1 0
v -1 -1 0
v 0 -2 0
v -1 -2 0
v -1 -1 0
v 0 -1 0
v -15 -3 0
v -16 -3 0
v -16 -2 0
v -15 -2 0
v -14 -3 0
v -15 -3 0
v -15 -2 0
v -14 -2 0
v -13 -3 0
v -14 -3 0
v -14 -2 0
v -13 -2 0
v -12 -3 0
v -13 -3 0
v -13 -2 0
v -12 -2 0
v -11 -3 0
v -12 -3 0
v -12 -2 0
v -11 -2 0
v -10 -3 0
v -11 -3 0
v -11 -2 0
v -10 -2 0
v -9 -3 0
v -10 -3 0
v -10 -2 0
v -9 -2 0
v -8 -3 0
v -9 -3 0
v -9 -2 0
v -8 -2 0
v -7 -3 0
v -8 -3 0
v -8 -2 0
v -7 -2 0
v -6 -3 0
v -7 -3 0
v -7 -2 0
v -6 -2 0
v -5 -3 0
v -6 -3 0
v -6 -2 0
v -5 -2 0
v -4 -3 0
v -5 -3 0
v -5 -2 0
v -4 -2 0
v -3 -3 0
v -4 -3 0
v -4 -2 0
v -3 -2 0
v -2 -3 0
v -3 -3 0
v -3 -2 0
v -2 -2 0
v -1 -3 0
v -2 -3 0
v -2 -2 0
v -1 -2 0
v 0 -3 0
v -1 -3 0
v -1 -2 0
v 0 -2 0
v -15 -4 0
v -16 -4 0
v -16 -3 0
v -15 -3 0
v -14 -4 0
v -15 -4 0
v -15 -3 0
v -14 -3 0
v -13 -4 0
v -14 -4 0
v -14 -3 0
v -13 -3 0
v -12 -4 0
v -13 -4 0
v -13 -3 0
v -12 -3 0
v -11 -4 0
v -12 -4 0
v -12 -3 0
v -11 -3 0
v -10 -4 0
v -11 -4 0
v -11 -3 0
v -10 -3 0
v -9 -4 0
v -10 -4 0
v -10 -3 0
v -9 -3 0
v -8 -4 0
v -9 -4 0
v -9 -3 0
v -8 -3 0
v -7 -4 0
v -8 -4 0
v -8 -3 0
v -7 -3 0
v -6 -4 0
v -7 -4 0
v -7 -3 0
v -6 -3 0
v -5 -4 0
v -6 -4 0
v -6 -3 0
v -5 -3 0
v -4 -4 0
v -5 -4 0
v -5 -3 0
v -4 -3 0
v -3 -4 0
v -4 -4 0
v -4 -3 0
v -3 -3 0
v -2 -4 0
v -3 -4 0
v -3 -3 0
v -2 -3 0
v -1 -4 0
v -2 -4 0
v -2 -3 0
v -1 -3 0
v 0 -4 0
v -1 -4 0
v -1 -3 0
v 0 -3 0
v -15 -5 0
v -16 -5 0
v -16 -4 0
v -15 -4 0
v -14 -5 0
v -15 -5 0
v -15 -4 0
v -14 -4 0
v -13 -5 0
v -14 -5 0
v -14 -4 0
v -13 -4 0
v -12 -5 0
v -13 -5 0
v -13 -4 0
v -12 -4 0
v -11 -5 0
v -12 -5 0
v -12 -4 0
v -11 -4 0
v -10 -5 0
v -11 -5 0
v -11 -4 0
v -10 -4 0
v -9 -5 0
v -10 -5 0
v -10 -4 0
v -9 -4 0
v -8 -5 0
v -9 -5 0
v -9 -4 0
v -8 -4 0
v -7 -5 0
v -8 -5 0
v -8 -4 0
v -7 -4 0
v -6 -5 0
v -7 -5 0
v -7 -4 0
v -6 -4 0
v -5 -5 0
v -6 -5 0
v -6 -4 0
v -5 -4 0
v -4 -5 0
v -5 -5 0
v -5 -4 0
v -4 -4 0
v -3 -5 0
v -4 -5 0
v -4 -4 0
v -3 -4 0
v -2 -5 0
v -3 -5 0
v -3 -4 0
v -2 -4 0
v -1 -5 0
v -2 -5 0
v -2 -4 0
v -1 -4 0
v 0 -5 0
v -1 -5 0
v -1 -4 0
v 0 -4 0
v -9 -6 0
v -10 -6 0
v -10 -5 0
v -9 -5 0
v -8 -6 0
v -9 -6 0
v -9 -5 0
v -8 -5 0
v -7 -6 0
v -8 -6 0
v -8 -5 0
v -7 -5 0
v -6 -6 0
v -7 -6 0
v -7 -5 0
v -6 -5 0
v -5 -6 0
v -6 -6 0
v -6 -5 0
v -5 -5 0
v -4 -6 0
v -5 -6 0
v -5 -5 0
v -4 -5 0
v -3 -6 0
v -4 -6 0
v -4 -5 0
v -3 -5 0
v -2 -6 0
v -3 -6 0
v -3 -5 0
v -2 -5 0
v -1 -6 0
v -2 -6 0
v -2 -5 0
v -1 -5 0
v 0 -6 0
v -1 -6 0
v -1 -5 0
v 0 -5 0
v -9 -7 0
v -10 -7 0
v -10 -6 0
v -9 -6 0
v -8 -7 0
v -9 -7 0
v -9 -6 0
v -8 -6 0
v -7 -7 0
v -8 -7 0
v -8 -6 0
v -7 -6 0
v -6 -7 0
v -7 -7 0
v -7 -6 0
v -6 -6 0
v -5 -7 0
v -6 -7 0
v -6 -6 0
v -5 -6 0
v -4 -7 0
v -5 -7 0
v -5 -6 0
v -4 -6 0
v -3 -7 0
v -4 -7 0
v -4 -6 0
v -3 -6 0
v -2 -7 0
v -3 -7 0
v -3 -6 0
v -2 -6 0
v -1 -7 0
v -2 -7 0
v -2 -6 0
v -1 -6 0
v 0 -7 0
v -1 -7 0
v -1 -6 0
v 0 -6 0
v -9 -8 0
v -10 -8 0
v -10 -7 0
v -9 -7 0
v -8 -8 0
v -9 -8 0
v -9 -7 0
v -8 -7 0
v -7 -8 0
v -8 -8 0
v -8 -7 0
v -7 -7 0
v -6 -8 0
v -7 -8 0
v -7 -7 0
v -6 -7 0
v -5 -8 0
v -6 -8 0
v -6 -7 0
v -5 -7 0
v -4 -8 0
v -5 -8 0
v -5 -7 0
v -4 -7 0
v -3 -8 0
v -4 -8 0
v -4 -7 0
v -3 -7 0
v -2 -8 0
v -3 -8 0
v -3 -7 0
v -2 -7 0
v -1 -8 0
v -2 -8 0
v -2 -7 0
v -1 -7 0
v 0 -8 0
v -1 -8 0
v -1 -7 0
v 0 -7 0
v -9 -9 0
v -10 -9 0
v -10 -8 0
v -9 -8 0
v -8 -9 0
v -9 -9 0
v -9 -8 0
v -8 -8 0
v -7 -9 0
v -8 -9 0
v -8 -8 0
v -7 -8 0
v -6 -9 0
v -7 -9 0
v -7 -8 0
v -6 -8 0
v -5 -9 0
v -6 -9 0
v -6 -8 0
v -5 -8 0
v -4 -9 0
v -5 -9 0
v -5 -8 0
v -4 -8 0
v -3 -9 0
v -4 -9 0
v -4 -8 0
v -3 -8 0
v -2 -9 0
v -3 -9 0
v -3 -8 0
v -2 -8 0
v -1 -9 0
v -2 -9 0
v -2 -8 0
v -1 -8 0
v 0 -9 0
v -1 -9 0
v -1 -8 0
v 0 -8 0
v -9 -10 0
v -10 -10 0
v -10 -9 0
v -9 -9 0
v -8 -10 0
v -9 -10 0
v -9 -9 0
v -8 -9 0
v -7 -10 0
v -8 -10 0
v -8 -9 0
v -7 -9 0
v -6 -10 0
v -7 -10 0
v -7 -9 0
v -6 -9 0
v -5 -10 0
v -6 -10 0
v -6 -9 0
v -5 -9 0
v -4 -10 0
v -5 -10 0
v -5 -9 0
v -4 -9 0
v -3 -10 0
v -4 -10 0
v -4 -9 0
v -3 -9 0
v -2 -10 0
v -3 -10 0
v -3 -9 0
v -2 -9 0
v -1 -10 0
v -2 -10 0
v -2 -9 0
v -1 -9 0
v 0 -10 0
v -1 -10 0
v -1 -9 0
v 0 -9 0
v -9 -11 0
v -10 -11 0
v -10 -10 0
v -9 -10 0
v -8 -11 0
v -9 -11 0
v -9 -10 0
v -8 -10 0
v -7 -11 0
v -8 -11 0
v -8 -10 0
v -7 -10 0
v -6 -11 0
v -7 -11 0
v -7 -10 0
v -6 -10 0
v -5 -11 0
v -6 -11 0
v -6 -10 0
v -5 -10 0
v -4 -11 0
v -5 -11 0
v -5 -10 0
v -4 -10 0
v -3 -11 0
v -4 -11 0
v -4 -10 0
v -3 -10 0
v -2 -11 0
v -3 -11 0
v -3 -10 0
v -2 -10 0
v -1 -11 0
v -2 -11 0
v -2 -10 0
v -1 -10 0
v 0 -11 0
v -1 -11 0
v -1 -10 0
v 0 -10 0
v -9 -12 0
v -10 -12 0
v -10 -11 0
v -9 -11 0
v -8 -12 0
v -9 -12 0
v -9 -11 0
v -8 -11 0
v -7 -12 0
v -8 -12 0
v -8 -11 0
v -7 -11 0
v -6 -12 0
v -7 -12 0
v -7 -11 0
v -6 -11 0
v -5 -12 0
v -6 -12 0
v -6 -11 0
v -5 -11 0
v -4 -12 0
v -5 -12 0
v -5 -11 0
v -4 -11 0
v -3 -12 0
v -4 -12 0
v -4 -11 0
v -3 -11 0
v -2 -12 0
v -3 -12 0
v -3 -11 0
v -2 -11 0
v -1 -12 0
v -2 -12 0
v -2 -11 0
v -1 -11 0
v 0 -12 0
v -1 -12 0
v -1 -11 0
v 0 -11 0
v -9 -13 0
v -10 -13 0
v -10 -12 0
v -9 -12 0
v -8 -13 0
v -9 -13 0
v -9 -12 0
v -8 -12 0
v -7 -13 0
v -8 -13 0
v -8 -12 0
v -7 -12 0
v -6 -13 0
v -7 -13 0
v -7 -12 0
v -6 -12 0
v -5 -13 0
v -6 -13 0
v -6 -12 0
v -5 -12 0
v -4 -13 0
v -5 -13 0
v -5 -12 0
v -4 -12 0
v -3 -13 0
v -4 -13 0
v -4 -12 0
v -3 -12 0
v -2 -13 0
v -3 -13 0
v -3 -12 0
v -2 -12 0
v -1 -13 0
v -2 -13 0
v -2 -12 0
v -1 -12 0
v 0 -13 0
v -1 -13 0
v -1 -12 0
v 0 -12 0
v -9 -14 0
v -10 -14 0
v -10 -13 0
v -9 -13 0
v -8 -14 0
v -9 -14 0
v -9 -13 0
v -8 -13 0
v -7 -14 0
v -8 -14 0
v -8 -13 0
v -7 -13 0
v -6 -14 0
v -7 -14 0
v -7 -13 0
v -6 -13 0
v -5 -14 0
v -6 -14 0
v -6 -13 0
v -5 -13 0
v -4 -14 0
v -5 -14 0
v -5 -13 0
v -4 -13 0
v -3 -14 0
v -4 -14 0
v -4 -13 0
v -3 -13 0
v -2 -14 0
v -3 -14 0
v -3 -13 0
v -2 -13 0
v -1 -14 0
v -2 -14 0
v -2 -13 0
v -1 -13 0
v 0 -14 0
v -1 -14 0
v -1 -13 0
v 0 -13 0
v -9 -15 0
v -10 -15 0
v -10 -14 0
v -9 -14 0
v -8 -15 0
v -9 -15 0
v -9 -14 0
v -8 -14 0
v -7 -15 0
v -8 -15 0
v -8 -14 0
v -7 -14 0
v -6 -15 0
v -7 -15 0
v -7 -14 0
v -6 -14 0
v -5 -15 0
v -6 -15 0
v -6 -14 0
v -5 -14 0
v -4 -15 0
v -5 -15 0
v -5 -14 0
v -4 -14 0
v -3 -15 0
v -4 -15 0
v -4 -14 0
v -3 -14 0
v -2 -15 0
v -3 -15 0
v -3 -14 0
v -2 -14 0
v -1 -15 0
v -2 -15 0
v -2 -14 0
v -1 -14 0
v 0 -15 0
v -1 -15 0
v -1 -14 0
v 0 -14 0
v -10 -16 0
v -11 -16 0
v -11 -15 0
v -10 -15 0
v -9 -16 0
v -10 -16 0
v -10 -15 0
v -9 -15 0
v -8 -16 0
v -9 -16 0
v -9 -15 0
v -8 -15 0
v -7 -16 0
v -8 -16 0
v -8 -15 0
v -7 -15 0
v -6 -16 0
v -7 -16 0
v -7 -15 0
v -6 -15 0
v -5 -16 0
v -6 -16 0
v -6 -15 0
v -5 -15 0
v -4 -16 0
v -5 -16 0
v -5 -15 0
v -4 -15 0
v -3 -16 0
v -4 -16 0
v -4 -15 0
v -3 -15 0
v -2 -16 0
v -3 -16 0
v -3 -15 0
v -2 -15 0
v -1 -16 0
v -2 -16 0
v -2 -15 0
v -1 -15 0
v 0 -16 0
v -1 -16 0
v -1 -15 0
v 0 -15 0

# Texture cooridinates (Count = 54)
vt 0.2702703 0.1086956
vt 0.2972973 0.1086956
vt 0.2972973 0.1304348
vt 0.2702703 0.1304348
vt 0.3243243 0.1086956
vt 0.3243243 0.1304348
vt 0.2972973 0.06521738
vt 0.3243243 0.06521738
vt 0.3243243 0.0869565
vt 0.2972973 0.0869565
vt 0.2702703 0.06521738
vt 0.2702703 0.0869565
vt 0.2162162 0.1086956
vt 0.2432432 0.1086956
vt 0.2432432 0.1304348
vt 0.2162162 0.1304348
vt 0.1351351 0.0869565
vt 0.1621622 0.0869565
vt 0.1621622 0.1086956
vt 0.1351351 0.1086956
vt 0.1081081 0.0869565
vt 0.1081081 0.1086956
vt 0.02702703 0.1086956
vt 0.05405406 0.1086956
vt 0.05405406 0.1304348
vt 0.02702703 0.1304348
vt 0 0.1086956
vt 0 0.1304348
vt 0.08108108 0.06521738
vt 0.1081081 0.06521738
vt 0.08108108 0.0869565
vt 0.05405406 0.06521738
vt 0.05405406 0.0869565
vt 0.1621622 0.1304348
vt 0.1351351 0.1304348
vt 0.08108108 0.04347825
vt 0.1081081 0.04347825
vt 0.05405406 0.04347825
vt 0.02702703 0.04347825
vt 0.02702703 0.06521738
vt 0.02702703 0.0869565
vt 0 0.0869565
vt 0.2432432 0.06521738
vt 0.2432432 0.0869565
vt 0.2162162 0.06521738
vt 0.2162162 0.0869565
vt 0.2432432 0.04347825
vt 0.2702703 0.04347825
vt 0.2162162 0.04347825
vt 0.1081081 0.1304348
vt 0.4054054 0.5652174
vt 0.4324324 0.5652174
vt 0.4324324 0.5869565
vt 0.4054054 0.5869565

# Normal
vn 0 0 -1

# Mesh description
g dungeon1_mesh_0069

# Faces
f 1/1/1 2/2/1 3/3/1 4/4/1
f 5/2/1 6/5/1 7/6/1 8/3/1
f 9/1/1 10/2/1 11/3/1 12/4/1
f 13/7/1 14/8/1 15/9/1 16/10/1
f 17/11/1 18/7/1 19/10/1 20/12/1
f 21/11/1 22/7/1 23/10/1 24/12/1
f 25/13/1 26/14/1 27/15/1 28/16/1
f 29/17/1 30/18/1 31/19/1 32/20/1
f 33/21/1 34/17/1 35/20/1 36/22/1
f 37/21/1 38/17/1 39/20/1 40/22/1
f 41/23/1 42/24/1 43/25/1 44/26/1
f 45/27/1 46/23/1 47/26/1 48/28/1
f 49/29/1 50/30/1 51/21/1 52/31/1
f 53/32/1 54/29/1 55/31/1 56/33/1
f 57/17/1 58/18/1 59/19/1 60/20/1
f 61/20/1 62/19/1 63/34/1 64/35/1
f 65/12/1 66/10/1 67/2/1 68/1/1
f 69/7/1 70/8/1 71/9/1 72/10/1
f 73/7/1 74/8/1 75/9/1 76/10/1
f 77/11/1 78/7/1 79/10/1 80/12/1
f 81/23/1 82/24/1 83/25/1 84/26/1
f 85/27/1 86/23/1 87/26/1 88/28/1
f 89/27/1 90/23/1 91/26/1 92/28/1
f 93/27/1 94/23/1 95/26/1 96/28/1
f 97/27/1 98/23/1 99/26/1 100/28/1
f 101/27/1 102/23/1 103/26/1 104/28/1
f 105/27/1 106/23/1 107/26/1 108/28/1
f 109/27/1 110/23/1 111/26/1 112/28/1
f 113/36/1 114/37/1 115/30/1 116/29/1
f 117/38/1 118/36/1 119/29/1 120/32/1
f 121/39/1 122/38/1 123/32/1 124/40/1
f 125/17/1 126/18/1 127/19/1 128/20/1
f 129/11/1 130/7/1 131/10/1 132/12/1
f 133/7/1 134/8/1 135/9/1 136/10/1
f 137/11/1 138/7/1 139/10/1 140/12/1
f 141/23/1 142/24/1 143/25/1 144/26/1
f 145/41/1 146/33/1 147/24/1 148/23/1
f 149/42/1 150/41/1 151/23/1 152/27/1
f 153/42/1 154/41/1 155/23/1 156/27/1
f 157/42/1 158/41/1 159/23/1 160/27/1
f 161/42/1 162/41/1 163/23/1 164/27/1
f 165/27/1 166/23/1 167/26/1 168/28/1
f 169/42/1 170/41/1 171/23/1 172/27/1
f 173/42/1 174/41/1 175/23/1 176/27/1
f 177/36/1 178/37/1 179/30/1 180/29/1
f 181/29/1 182/30/1 183/21/1 184/31/1
f 185/32/1 186/29/1 187/31/1 188/33/1
f 189/29/1 190/30/1 191/21/1 192/31/1
f 193/10/1 194/9/1 195/5/1 196/2/1
f 197/10/1 198/9/1 199/5/1 200/2/1
f 201/43/1 202/11/1 203/12/1 204/44/1
f 205/45/1 206/43/1 207/44/1 208/46/1
f 209/41/1 210/33/1 211/24/1 212/23/1
f 213/42/1 214/41/1 215/23/1 216/27/1
f 217/42/1 218/41/1 219/23/1 220/27/1
f 221/42/1 222/41/1 223/23/1 224/27/1
f 225/42/1 226/41/1 227/23/1 228/27/1
f 229/42/1 230/41/1 231/23/1 232/27/1
f 233/23/1 234/24/1 235/25/1 236/26/1
f 237/27/1 238/23/1 239/26/1 240/28/1
f 241/29/1 242/30/1 243/21/1 244/31/1
f 245/36/1 246/37/1 247/30/1 248/29/1
f 249/38/1 250/36/1 251/29/1 252/32/1
f 253/36/1 254/37/1 255/30/1 256/29/1
f 257/7/1 258/8/1 259/9/1 260/10/1
f 261/7/1 262/8/1 263/9/1 264/10/1
f 265/47/1 266/48/1 267/11/1 268/43/1
f 269/49/1 270/47/1 271/43/1 272/45/1
f 273/7/1 274/8/1 275/9/1 276/10/1
f 277/11/1 278/7/1 279/10/1 280/12/1
f 281/13/1 282/14/1 283/15/1 284/16/1
f 285/20/1 286/19/1 287/34/1 288/35/1
f 289/20/1 290/19/1 291/34/1 292/35/1
f 293/22/1 294/20/1 295/35/1 296/50/1
f 297/23/1 298/24/1 299/25/1 300/26/1
f 301/27/1 302/23/1 303/26/1 304/28/1
f 305/36/1 306/37/1 307/30/1 308/29/1
f 309/38/1 310/36/1 311/29/1 312/32/1
f 313/32/1 314/29/1 315/31/1 316/33/1
f 317/29/1 318/30/1 319/21/1 320/31/1
f 321/13/1 322/14/1 323/15/1 324/16/1
f 325/20/1 326/19/1 327/34/1 328/35/1
f 329/17/1 330/18/1 331/19/1 332/20/1
f 333/21/1 334/17/1 335/20/1 336/22/1
f 337/23/1 338/24/1 339/25/1 340/26/1
f 341/27/1 342/23/1 343/26/1 344/28/1
f 345/29/1 346/30/1 347/21/1 348/31/1
f 349/32/1 350/29/1 351/31/1 352/33/1
f 353/38/1 354/36/1 355/29/1 356/32/1
f 357/29/1 358/30/1 359/21/1 360/31/1
f 361/13/1 362/14/1 363/15/1 364/16/1
f 365/20/1 366/19/1 367/34/1 368/35/1
f 369/22/1 370/20/1 371/35/1 372/50/1
f 373/21/1 374/17/1 375/20/1 376/22/1
f 377/41/1 378/33/1 379/24/1 380/23/1
f 381/42/1 382/41/1 383/23/1 384/27/1
f 385/29/1 386/30/1 387/21/1 388/31/1
f 389/32/1 390/29/1 391/31/1 392/33/1
f 393/32/1 394/29/1 395/31/1 396/33/1
f 397/32/1 398/29/1 399/31/1 400/33/1
f 401/13/1 402/14/1 403/15/1 404/16/1
f 405/20/1 406/19/1 407/34/1 408/35/1
f 409/20/1 410/19/1 411/34/1 412/35/1
f 413/22/1 414/20/1 415/35/1 416/50/1
f 417/23/1 418/24/1 419/25/1 420/26/1
f 421/27/1 422/23/1 423/26/1 424/28/1
f 425/36/1 426/37/1 427/30/1 428/29/1
f 429/38/1 430/36/1 431/29/1 432/32/1
f 433/38/1 434/36/1 435/29/1 436/32/1
f 437/29/1 438/30/1 439/21/1 440/31/1
f 441/13/1 442/14/1 443/15/1 444/16/1
f 445/20/1 446/19/1 447/34/1 448/35/1
f 449/17/1 450/18/1 451/19/1 452/20/1
f 453/21/1 454/17/1 455/20/1 456/22/1
f 457/23/1 458/24/1 459/25/1 460/26/1
f 461/27/1 462/23/1 463/26/1 464/28/1
f 465/29/1 466/30/1 467/21/1 468/31/1
f 469/32/1 470/29/1 471/31/1 472/33/1
f 473/29/1 474/30/1 475/21/1 476/31/1
f 477/36/1 478/37/1 479/30/1 480/29/1
f 481/14/1 482/1/1 483/4/1 484/15/1
f 485/20/1 486/19/1 487/34/1 488/35/1
f 489/22/1 490/20/1 491/35/1 492/50/1
f 493/21/1 494/17/1 495/20/1 496/22/1
f 497/41/1 498/33/1 499/24/1 500/23/1
f 501/42/1 502/41/1 503/23/1 504/27/1
f 505/36/1 506/37/1 507/30/1 508/29/1
f 509/38/1 510/36/1 511/29/1 512/32/1
f 513/36/1 514/37/1 515/30/1 516/29/1
f 517/38/1 518/36/1 519/29/1 520/32/1
f 521/13/1 522/14/1 523/15/1 524/16/1
f 525/20/1 526/19/1 527/34/1 528/35/1
f 529/20/1 530/19/1 531/34/1 532/35/1
f 533/22/1 534/20/1 535/35/1 536/50/1
f 537/23/1 538/24/1 539/25/1 540/26/1
f 541/27/1 542/23/1 543/26/1 544/28/1
f 545/36/1 546/37/1 547/30/1 548/29/1
f 549/38/1 550/36/1 551/29/1 552/32/1
f 553/29/1 554/30/1 555/21/1 556/31/1
f 557/32/1 558/29/1 559/31/1 560/33/1
f 561/14/1 562/1/1 563/4/1 564/15/1
f 565/20/1 566/19/1 567/34/1 568/35/1
f 569/20/1 570/19/1 571/34/1 572/35/1
f 573/22/1 574/20/1 575/35/1 576/50/1
f 577/23/1 578/24/1 579/25/1 580/26/1
f 581/27/1 582/23/1 583/26/1 584/28/1
f 585/29/1 586/30/1 587/21/1 588/31/1
f 589/32/1 590/29/1 591/31/1 592/33/1
f 593/32/1 594/29/1 595/31/1 596/33/1
f 597/38/1 598/36/1 599/29/1 600/32/1
f 601/13/1 602/14/1 603/15/1 604/16/1
f 605/17/1 606/18/1 607/19/1 608/20/1
f 609/17/1 610/18/1 611/19/1 612/20/1
f 613/21/1 614/17/1 615/20/1 616/22/1
f 617/23/1 618/24/1 619/25/1 620/26/1
f 621/27/1 622/23/1 623/26/1 624/28/1
f 625/36/1 626/37/1 627/30/1 628/29/1
f 629/38/1 630/36/1 631/29/1 632/32/1
f 633/38/1 634/36/1 635/29/1 636/32/1
f 637/29/1 638/30/1 639/21/1 640/31/1
f 641/14/1 642/1/1 643/4/1 644/15/1
f 645/20/1 646/19/1 647/34/1 648/35/1
f 649/22/1 650/20/1 651/35/1 652/50/1
f 653/21/1 654/17/1 655/20/1 656/22/1
f 657/41/1 658/33/1 659/24/1 660/23/1
f 661/42/1 662/41/1 663/23/1 664/27/1
f 665/29/1 666/30/1 667/21/1 668/31/1
f 669/32/1 670/29/1 671/31/1 672/33/1
f 673/32/1 674/29/1 675/31/1 676/33/1
f 677/32/1 678/29/1 679/31/1 680/33/1
f 681/14/1 682/1/1 683/4/1 684/15/1
f 685/20/1 686/19/1 687/34/1 688/35/1
f 689/22/1 690/20/1 691/35/1 692/50/1
f 693/21/1 694/17/1 695/20/1 696/22/1
f 697/41/1 698/33/1 699/24/1 700/23/1
f 701/42/1 702/41/1 703/23/1 704/27/1
f 705/36/1 706/37/1 707/30/1 708/29/1
f 709/38/1 710/36/1 711/29/1 712/32/1
f 713/38/1 714/36/1 715/29/1 716/32/1
f 717/38/1 718/36/1 719/29/1 720/32/1
f 721/51/1 722/52/1 723/53/1 724/54/1
f 725/14/1 726/1/1 727/4/1 728/15/1
f 729/20/1 730/19/1 731/34/1 732/35/1
f 733/22/1 734/20/1 735/35/1 736/50/1
f 737/21/1 738/17/1 739/20/1 740/22/1
f 741/23/1 742/24/1 743/25/1 744/26/1
f 745/27/1 746/23/1 747/26/1 748/28/1
f 749/29/1 750/30/1 751/21/1 752/31/1
f 753/32/1 754/29/1 755/31/1 756/33/1
f 757/29/1 758/30/1 759/21/1 760/31/1
f 761/32/1 762/29/1 763/31/1 764/33/1

